M48
; DRILL file {KiCad 8.0.2} date 2024-05-30T21:41:46+0800
; FORMAT={-:-/ absolute / metric / decimal}
; #@! TF.CreationDate,2024-05-30T21:41:46+08:00
; #@! TF.GenerationSoftware,Kicad,Pcbnew,8.0.2
; #@! TF.FileFunction,NonPlated,1,4,NPTH
FMAT,2
METRIC
; #@! TA.AperFunction,NonPlated,NPTH,ComponentDrill
T1C0.700
; #@! TA.AperFunction,NonPlated,NPTH,ComponentDrill
T2C0.900
%
G90
G05
T1
X117.209Y-86.293
X117.4Y-127.1
X119.1Y-127.1
X122.989Y-86.293
X132.974Y-127.1
X134.674Y-127.1
X137.209Y-86.293
X142.989Y-86.293
X147.974Y-127.1
X149.674Y-127.1
X176.95Y-82.864
X178.65Y-82.864
T2
X116.1Y-127.1
X120.4Y-127.1
X131.674Y-127.1
X135.974Y-127.1
X146.674Y-127.1
X150.974Y-127.1
X175.65Y-82.864
X179.95Y-82.864
M30
