G04 #@! TF.GenerationSoftware,KiCad,Pcbnew,8.0.2*
G04 #@! TF.CreationDate,2024-05-30T21:41:25+08:00*
G04 #@! TF.ProjectId,pppc_usb_hub,70707063-5f75-4736-925f-6875622e6b69,rev?*
G04 #@! TF.SameCoordinates,Original*
G04 #@! TF.FileFunction,Soldermask,Bot*
G04 #@! TF.FilePolarity,Negative*
%FSLAX46Y46*%
G04 Gerber Fmt 4.6, Leading zero omitted, Abs format (unit mm)*
G04 Created by KiCad (PCBNEW 8.0.2) date 2024-05-30 21:41:25*
%MOMM*%
%LPD*%
G01*
G04 APERTURE LIST*
G04 Aperture macros list*
%AMRoundRect*
0 Rectangle with rounded corners*
0 $1 Rounding radius*
0 $2 $3 $4 $5 $6 $7 $8 $9 X,Y pos of 4 corners*
0 Add a 4 corners polygon primitive as box body*
4,1,4,$2,$3,$4,$5,$6,$7,$8,$9,$2,$3,0*
0 Add four circle primitives for the rounded corners*
1,1,$1+$1,$2,$3*
1,1,$1+$1,$4,$5*
1,1,$1+$1,$6,$7*
1,1,$1+$1,$8,$9*
0 Add four rect primitives between the rounded corners*
20,1,$1+$1,$2,$3,$4,$5,0*
20,1,$1+$1,$4,$5,$6,$7,0*
20,1,$1+$1,$6,$7,$8,$9,0*
20,1,$1+$1,$8,$9,$2,$3,0*%
G04 Aperture macros list end*
%ADD10C,0.900000*%
%ADD11C,0.700000*%
%ADD12O,1.200000X2.100000*%
%ADD13O,1.300000X1.900000*%
%ADD14RoundRect,0.050000X0.800000X-0.800000X0.800000X0.800000X-0.800000X0.800000X-0.800000X-0.800000X0*%
%ADD15O,1.700000X1.700000*%
%ADD16O,2.900000X1.400000*%
%ADD17R,1.700000X1.700000*%
%ADD18C,2.500000*%
%ADD19C,3.000000*%
%ADD20O,1.625600X1.625600*%
%ADD21O,3.301600X2.101600*%
%ADD22O,2.501600X2.501600*%
G04 APERTURE END LIST*
D10*
X179949900Y-82863500D03*
D11*
X178649900Y-82863500D03*
X176949900Y-82863500D03*
D10*
X175649900Y-82863500D03*
D11*
X122988900Y-86293400D03*
X117208900Y-86293400D03*
D12*
X124424000Y-86813600D03*
D13*
X124424000Y-82613500D03*
D12*
X115774000Y-86813600D03*
D13*
X115774000Y-82613500D03*
D10*
X116100000Y-127100000D03*
D11*
X117400000Y-127100000D03*
X119100000Y-127100000D03*
D10*
X120400000Y-127100000D03*
D14*
X115774000Y-111099900D03*
D15*
X115774000Y-113600000D03*
X115774000Y-115600000D03*
X115774000Y-118099900D03*
D16*
X114273800Y-108150000D03*
X114273800Y-121049800D03*
D10*
X131674100Y-127100000D03*
D11*
X132974100Y-127100000D03*
X134674100Y-127100000D03*
D10*
X135974100Y-127100000D03*
D17*
X163800000Y-109480000D03*
D15*
X163800000Y-112020000D03*
X163800000Y-114560000D03*
X163800000Y-117100000D03*
X163800000Y-119640000D03*
D18*
X183770000Y-102150000D03*
D19*
X183820000Y-114400000D03*
X171770000Y-114350000D03*
D18*
X171770000Y-102150000D03*
D19*
X177820000Y-100200000D03*
D20*
X135774000Y-111099800D03*
X135774000Y-113599100D03*
X135774000Y-115600700D03*
X135774000Y-118100000D03*
D21*
X133273800Y-108029900D03*
X133273800Y-121169900D03*
D22*
X172740000Y-123800000D03*
X177820000Y-123800000D03*
X182900000Y-123800000D03*
D20*
X150774000Y-111099800D03*
X150774000Y-113599100D03*
X150774000Y-115600700D03*
X150774000Y-118100000D03*
D21*
X148273800Y-108029900D03*
X148273800Y-121169900D03*
D10*
X146674100Y-127100000D03*
D11*
X147974100Y-127100000D03*
X149674100Y-127100000D03*
D10*
X150974100Y-127100000D03*
D11*
X142988900Y-86293400D03*
X137208900Y-86293400D03*
D12*
X144424000Y-86813600D03*
D13*
X144424000Y-82613500D03*
D12*
X135774000Y-86813600D03*
D13*
X135774000Y-82613500D03*
D15*
X153500000Y-104200000D03*
X150960000Y-104200000D03*
D17*
X148420000Y-104200000D03*
M02*
