G04 #@! TF.GenerationSoftware,KiCad,Pcbnew,8.0.2*
G04 #@! TF.CreationDate,2024-05-30T21:41:25+08:00*
G04 #@! TF.ProjectId,pppc_usb_hub,70707063-5f75-4736-925f-6875622e6b69,rev?*
G04 #@! TF.SameCoordinates,Original*
G04 #@! TF.FileFunction,Paste,Top*
G04 #@! TF.FilePolarity,Positive*
%FSLAX46Y46*%
G04 Gerber Fmt 4.6, Leading zero omitted, Abs format (unit mm)*
G04 Created by KiCad (PCBNEW 8.0.2) date 2024-05-30 21:41:25*
%MOMM*%
%LPD*%
G01*
G04 APERTURE LIST*
G04 Aperture macros list*
%AMRoundRect*
0 Rectangle with rounded corners*
0 $1 Rounding radius*
0 $2 $3 $4 $5 $6 $7 $8 $9 X,Y pos of 4 corners*
0 Add a 4 corners polygon primitive as box body*
4,1,4,$2,$3,$4,$5,$6,$7,$8,$9,$2,$3,0*
0 Add four circle primitives for the rounded corners*
1,1,$1+$1,$2,$3*
1,1,$1+$1,$4,$5*
1,1,$1+$1,$6,$7*
1,1,$1+$1,$8,$9*
0 Add four rect primitives between the rounded corners*
20,1,$1+$1,$2,$3,$4,$5,0*
20,1,$1+$1,$4,$5,$6,$7,0*
20,1,$1+$1,$6,$7,$8,$9,0*
20,1,$1+$1,$8,$9,$2,$3,0*%
G04 Aperture macros list end*
%ADD10R,1.100000X0.700000*%
%ADD11R,1.500000X1.000000*%
%ADD12R,0.700000X1.200000*%
%ADD13RoundRect,0.200000X0.200000X0.275000X-0.200000X0.275000X-0.200000X-0.275000X0.200000X-0.275000X0*%
%ADD14R,0.250000X1.200000*%
%ADD15RoundRect,0.225000X0.250000X-0.225000X0.250000X0.225000X-0.250000X0.225000X-0.250000X-0.225000X0*%
%ADD16R,0.600000X1.100000*%
%ADD17RoundRect,0.250000X0.300000X0.300000X-0.300000X0.300000X-0.300000X-0.300000X0.300000X-0.300000X0*%
%ADD18RoundRect,0.225000X0.225000X0.250000X-0.225000X0.250000X-0.225000X-0.250000X0.225000X-0.250000X0*%
%ADD19RoundRect,0.200000X0.275000X-0.200000X0.275000X0.200000X-0.275000X0.200000X-0.275000X-0.200000X0*%
%ADD20RoundRect,0.200000X-0.275000X0.200000X-0.275000X-0.200000X0.275000X-0.200000X0.275000X0.200000X0*%
%ADD21RoundRect,0.218750X-0.218750X-0.256250X0.218750X-0.256250X0.218750X0.256250X-0.218750X0.256250X0*%
%ADD22RoundRect,0.225000X-0.250000X0.225000X-0.250000X-0.225000X0.250000X-0.225000X0.250000X0.225000X0*%
%ADD23RoundRect,0.200000X-0.200000X-0.275000X0.200000X-0.275000X0.200000X0.275000X-0.200000X0.275000X0*%
%ADD24R,1.200000X1.400000*%
%ADD25RoundRect,0.150000X-0.150000X0.587500X-0.150000X-0.587500X0.150000X-0.587500X0.150000X0.587500X0*%
%ADD26RoundRect,0.225000X-0.225000X-0.250000X0.225000X-0.250000X0.225000X0.250000X-0.225000X0.250000X0*%
%ADD27RoundRect,0.150000X-0.512500X-0.150000X0.512500X-0.150000X0.512500X0.150000X-0.512500X0.150000X0*%
%ADD28RoundRect,0.375000X-0.375000X0.625000X-0.375000X-0.625000X0.375000X-0.625000X0.375000X0.625000X0*%
%ADD29RoundRect,0.500000X-1.400000X0.500000X-1.400000X-0.500000X1.400000X-0.500000X1.400000X0.500000X0*%
%ADD30R,1.900000X1.500000*%
%ADD31RoundRect,0.250000X-1.500000X-0.550000X1.500000X-0.550000X1.500000X0.550000X-1.500000X0.550000X0*%
%ADD32RoundRect,0.150000X-0.587500X-0.150000X0.587500X-0.150000X0.587500X0.150000X-0.587500X0.150000X0*%
%ADD33RoundRect,0.100000X0.637500X0.100000X-0.637500X0.100000X-0.637500X-0.100000X0.637500X-0.100000X0*%
%ADD34RoundRect,0.250000X-0.550000X1.500000X-0.550000X-1.500000X0.550000X-1.500000X0.550000X1.500000X0*%
%ADD35RoundRect,0.218750X0.218750X0.256250X-0.218750X0.256250X-0.218750X-0.256250X0.218750X-0.256250X0*%
%ADD36R,1.400000X1.200000*%
%ADD37RoundRect,0.250000X0.425000X-0.450000X0.425000X0.450000X-0.425000X0.450000X-0.425000X-0.450000X0*%
%ADD38RoundRect,0.243750X-0.456250X0.243750X-0.456250X-0.243750X0.456250X-0.243750X0.456250X0.243750X0*%
%ADD39RoundRect,0.250000X-0.250000X-0.475000X0.250000X-0.475000X0.250000X0.475000X-0.250000X0.475000X0*%
G04 APERTURE END LIST*
D10*
X175699900Y-81913500D03*
X179900100Y-81913500D03*
D11*
X177800000Y-84463500D03*
D12*
X176100000Y-84163500D03*
X179500000Y-84163500D03*
D13*
X137725000Y-123900000D03*
X136075000Y-123900000D03*
D14*
X121955000Y-98099900D03*
X121424900Y-98099900D03*
X120895000Y-98099900D03*
X120364900Y-98099900D03*
X119835100Y-98099900D03*
X119305000Y-98099900D03*
X118774900Y-98099900D03*
X118245000Y-98099900D03*
X118245000Y-101700100D03*
X118774900Y-101700100D03*
X119305000Y-101700100D03*
X119835100Y-101700100D03*
X120364900Y-101700100D03*
X120895000Y-101700100D03*
X121424900Y-101700100D03*
X121955000Y-101700100D03*
D15*
X138200000Y-98675000D03*
X138200000Y-97125000D03*
D13*
X132574000Y-83300000D03*
X130924000Y-83300000D03*
D16*
X140488000Y-112399900D03*
X141438000Y-112399900D03*
X142388000Y-112399900D03*
X142388000Y-109799700D03*
X140488000Y-109799700D03*
D13*
X152850000Y-123900000D03*
X151200000Y-123900000D03*
D15*
X136600000Y-98675000D03*
X136600000Y-97125000D03*
D17*
X179197500Y-94200000D03*
X176397500Y-94200000D03*
D18*
X163525000Y-89600000D03*
X161975000Y-89600000D03*
D19*
X125800000Y-112399900D03*
X125800000Y-110749900D03*
D20*
X140600000Y-103675000D03*
X140600000Y-105325000D03*
D13*
X124135500Y-108100000D03*
X122485500Y-108100000D03*
D18*
X116375000Y-104800000D03*
X114825000Y-104800000D03*
D13*
X132574000Y-85000000D03*
X130924000Y-85000000D03*
D16*
X122474500Y-112399900D03*
X123424500Y-112399900D03*
X124374500Y-112399900D03*
X124374500Y-109799700D03*
X122474500Y-109799700D03*
D12*
X116549900Y-125800000D03*
X119949900Y-125800000D03*
D11*
X118249900Y-125500000D03*
D10*
X116149800Y-128050000D03*
X120350000Y-128050000D03*
D21*
X117482400Y-123900000D03*
X119057400Y-123900000D03*
D20*
X124200000Y-89175000D03*
X124200000Y-90825000D03*
D22*
X154000000Y-109799700D03*
X154000000Y-111349700D03*
D16*
X155488000Y-112399900D03*
X156438000Y-112399900D03*
X157388000Y-112399900D03*
X157388000Y-109799700D03*
X155488000Y-109799700D03*
D12*
X132124000Y-125800000D03*
X135524000Y-125800000D03*
D11*
X133824000Y-125500000D03*
D10*
X131723900Y-128050000D03*
X135924100Y-128050000D03*
D23*
X127624000Y-83300000D03*
X129274000Y-83300000D03*
D24*
X114732784Y-98926800D03*
X114732784Y-101127000D03*
X116482784Y-101127000D03*
X116482784Y-98926800D03*
D20*
X139000000Y-103675000D03*
X139000000Y-105325000D03*
D25*
X173450000Y-92125000D03*
X171550000Y-92125000D03*
X172500000Y-94000000D03*
D13*
X112937500Y-83800000D03*
X111287500Y-83800000D03*
D19*
X175300000Y-91425000D03*
X175300000Y-89775000D03*
D26*
X149125000Y-92000000D03*
X150675000Y-92000000D03*
D13*
X122225000Y-123900000D03*
X120575000Y-123900000D03*
D19*
X143800000Y-112399900D03*
X143800000Y-110749900D03*
D27*
X126162500Y-88250000D03*
X126162500Y-89200000D03*
X126162500Y-90150000D03*
X128437500Y-90150000D03*
X128437500Y-89200000D03*
X128437500Y-88250000D03*
D18*
X116375000Y-103000000D03*
X114825000Y-103000000D03*
D22*
X145100000Y-126225000D03*
X145100000Y-127775000D03*
D28*
X153800000Y-94500000D03*
X151500000Y-94500000D03*
D29*
X151500000Y-100800000D03*
D28*
X149200000Y-94500000D03*
D30*
X166750000Y-86550000D03*
X158750000Y-86550000D03*
D31*
X148600000Y-86600000D03*
X154000000Y-86600000D03*
D32*
X132162500Y-88250000D03*
X132162500Y-90150000D03*
X134037500Y-89200000D03*
D22*
X121000000Y-109799700D03*
X121000000Y-111349700D03*
X130100000Y-126225000D03*
X130100000Y-127775000D03*
D15*
X127300000Y-105375000D03*
X127300000Y-103825000D03*
D21*
X133056500Y-123900000D03*
X134631500Y-123900000D03*
D22*
X133200000Y-103825000D03*
X133200000Y-105375000D03*
D33*
X133062500Y-101725000D03*
X133062500Y-101075000D03*
X133062500Y-100425000D03*
X133062500Y-99775000D03*
X133062500Y-99125000D03*
X133062500Y-98475000D03*
X133062500Y-97825000D03*
X133062500Y-97175000D03*
X133062500Y-96525000D03*
X133062500Y-95875000D03*
X127337500Y-95875000D03*
X127337500Y-96525000D03*
X127337500Y-97175000D03*
X127337500Y-97825000D03*
X127337500Y-98475000D03*
X127337500Y-99125000D03*
X127337500Y-99775000D03*
X127337500Y-100425000D03*
X127337500Y-101075000D03*
X127337500Y-101725000D03*
D22*
X139000000Y-109799700D03*
X139000000Y-111349700D03*
D34*
X156324000Y-115699900D03*
X156324000Y-121099900D03*
D26*
X114825000Y-97000000D03*
X116375000Y-97000000D03*
D13*
X142125000Y-108100000D03*
X140475000Y-108100000D03*
X157125000Y-108100000D03*
X155475000Y-108100000D03*
X178645000Y-89700000D03*
X176995000Y-89700000D03*
D35*
X112887500Y-85600000D03*
X111312500Y-85600000D03*
D15*
X125400000Y-98675000D03*
X125400000Y-97125000D03*
D12*
X147124000Y-125800000D03*
X150524000Y-125800000D03*
D11*
X148824000Y-125500000D03*
D10*
X146723900Y-128050000D03*
X150924100Y-128050000D03*
D36*
X131360700Y-103700000D03*
X129160500Y-103700000D03*
X129160500Y-105450000D03*
X131360700Y-105450000D03*
D37*
X146400000Y-97050000D03*
X146400000Y-94350000D03*
D19*
X130265000Y-89325000D03*
X130265000Y-87675000D03*
D23*
X127624000Y-85000000D03*
X129274000Y-85000000D03*
D34*
X123310500Y-115699900D03*
X123310500Y-121099900D03*
D35*
X178587500Y-91400000D03*
X177012500Y-91400000D03*
D21*
X148056500Y-123900000D03*
X149631500Y-123900000D03*
D38*
X117100000Y-89162500D03*
X117100000Y-91037500D03*
D39*
X140250000Y-91037500D03*
X142150000Y-91037500D03*
D13*
X178625000Y-86100000D03*
X176975000Y-86100000D03*
D22*
X118200000Y-103325000D03*
X118200000Y-104875000D03*
D15*
X135000000Y-98675000D03*
X135000000Y-97125000D03*
D19*
X158800000Y-112399900D03*
X158800000Y-110749900D03*
D26*
X116525000Y-122300000D03*
X118075000Y-122300000D03*
D15*
X123800000Y-98675000D03*
X123800000Y-97125000D03*
D34*
X141324000Y-115699900D03*
X141324000Y-121099900D03*
D20*
X137400000Y-103675000D03*
X137400000Y-105325000D03*
D38*
X137600000Y-89162500D03*
X137600000Y-91037500D03*
D15*
X118000000Y-96475000D03*
X118000000Y-94925000D03*
M02*
