M48
; DRILL file {KiCad 8.0.2} date 2024-05-30T21:41:46+0800
; FORMAT={-:-/ absolute / metric / decimal}
; #@! TF.CreationDate,2024-05-30T21:41:46+08:00
; #@! TF.GenerationSoftware,Kicad,Pcbnew,8.0.2
; #@! TF.FileFunction,Plated,1,4,PTH
FMAT,2
METRIC
; #@! TA.AperFunction,Plated,PTH,ViaDrill
T1C0.300
; #@! TA.AperFunction,Plated,PTH,ComponentDrill
T2C0.600
; #@! TA.AperFunction,Plated,PTH,ComponentDrill
T3C0.800
; #@! TA.AperFunction,Plated,PTH,ComponentDrill
T4C0.914
; #@! TA.AperFunction,Plated,PTH,ComponentDrill
T5C1.000
; #@! TA.AperFunction,Plated,PTH,ComponentDrill
T6C1.300
; #@! TA.AperFunction,Plated,PTH,ComponentDrill
T7C1.600
%
G90
G05
T1
X110.35Y-122.2
X110.4Y-115.5
X110.45Y-87.25
X110.5Y-118.65
X110.85Y-95.4
X111.25Y-99.45
X111.25Y-103.8
X112.5Y-116.75
X112.8Y-122.25
X112.95Y-82.4
X113.1Y-110.55
X113.3Y-101.1
X113.3Y-112.2
X113.6Y-103.0
X113.6Y-104.75
X114.45Y-84.25
X114.8Y-127.9
X114.85Y-123.3
X115.55Y-95.95
X116.35Y-88.25
X116.35Y-89.85
X116.8Y-121.0
X117.05Y-84.6
X117.1Y-92.2
X117.1Y-93.0
X117.1Y-95.9
X117.4Y-97.9
X117.5Y-109.1
X117.65Y-114.45
X117.8Y-82.3
X118.05Y-89.85
X118.05Y-94.0
X118.1Y-121.05
X118.45Y-93.05
X119.199Y-84.4
X119.199Y-88.8
X119.35Y-108.75
X119.5Y-104.65
X119.999Y-84.4
X119.999Y-88.8
X120.85Y-94.1
X121.0Y-107.5
X121.0Y-108.6
X121.05Y-125.55
X121.3Y-92.55
X121.75Y-118.25
X121.75Y-121.1
X122.1Y-82.2
X122.5Y-88.45
X122.5Y-89.3
X122.5Y-106.8
X122.8Y-98.5
X122.95Y-127.5
X123.4Y-111.2
X123.45Y-88.35
X123.8Y-95.9
X124.35Y-92.35
X124.8Y-95.9
X125.2Y-108.8
X125.25Y-126.35
X126.05Y-105.55
X126.2Y-87.1
X126.45Y-93.1
X127.55Y-126.15
X127.8Y-102.85
X128.3Y-123.8
X128.5Y-96.2
X128.6Y-98.8
X128.6Y-101.2
X128.6Y-102.1
X128.75Y-113.5
X128.85Y-127.75
X129.0Y-118.05
X129.05Y-92.05
X129.25Y-107.85
X129.3Y-98.1
X129.4Y-99.8
X129.65Y-96.25
X130.5Y-125.2
X130.6Y-95.096
X131.35Y-98.0
X131.6Y-93.45
X131.65Y-99.7
X131.7Y-96.2
X131.7Y-97.1
X131.8Y-98.8
X132.0Y-123.95
X132.95Y-110.8
X133.1Y-102.8
X133.9Y-91.9
X134.0Y-82.35
X134.0Y-87.3
X134.0Y-88.2
X134.3Y-105.4
X134.5Y-85.5
X135.1Y-99.8
X135.8Y-107.6
X136.0Y-105.4
X136.3Y-88.4
X136.4Y-125.85
X136.95Y-108.85
X137.4Y-106.4
X137.8Y-109.75
X138.2Y-95.4
X138.25Y-82.6
X139.0Y-106.4
X139.1Y-127.5
X139.3Y-125.5
X139.5Y-99.3
X140.6Y-106.4
X141.2Y-100.3
X141.4Y-126.85
X141.5Y-111.1
X141.8Y-94.0
X141.85Y-103.7
X142.0Y-83.2
X142.1Y-107.1
X142.3Y-100.0
X142.75Y-105.6
X142.8Y-121.1
X143.2Y-124.35
X143.35Y-117.35
X143.6Y-88.45
X143.75Y-91.1
X143.8Y-94.6
X143.8Y-108.65
X143.95Y-119.2
X145.625Y-91.1
X146.2Y-125.8
X146.4Y-98.5
X146.4Y-99.35
X147.05Y-123.9
X147.45Y-82.55
X147.5Y-91.1
X147.7Y-116.9
X148.4Y-111.55
X151.65Y-84.0
X151.7Y-125.85
X154.0Y-107.3
X154.0Y-108.4
X154.05Y-88.3
X154.3Y-100.85
X155.15Y-125.55
X155.35Y-94.6
X156.4Y-103.1
X156.4Y-111.2
X156.45Y-96.05
X156.55Y-82.6
X157.3Y-126.45
X157.4Y-89.45
X157.7Y-104.3
X157.75Y-121.15
X158.0Y-97.35
X158.2Y-108.05
X158.5Y-83.1
X158.7Y-118.15
X158.75Y-95.35
X159.2Y-123.6
X160.55Y-94.2
X160.65Y-108.15
X160.95Y-113.5
X161.15Y-117.3
X161.2Y-100.1
X161.2Y-125.5
X161.85Y-127.8
X161.95Y-123.35
X164.15Y-122.45
X165.15Y-92.1
X165.25Y-104.4
X166.2Y-89.5
X166.35Y-83.35
X167.05Y-122.4
X167.15Y-112.6
X167.2Y-116.5
X167.4Y-119.65
X167.6Y-106.45
X168.1Y-94.15
X171.77Y-117.02
X171.77Y-118.49
X171.77Y-119.96
X171.77Y-121.43
X173.4Y-90.6
X175.1Y-85.45
X175.3Y-88.5
X177.8Y-103.0
X177.8Y-104.227
X177.8Y-105.453
X177.8Y-106.68
X177.8Y-107.907
X177.8Y-109.133
X177.8Y-110.36
X177.8Y-111.587
X177.8Y-112.813
X177.8Y-114.04
X177.8Y-115.267
X177.8Y-116.493
X177.8Y-117.72
X177.8Y-118.947
X177.8Y-120.173
X177.8Y-121.4
X183.77Y-96.47
X183.82Y-117.06
X183.82Y-118.52
X183.82Y-119.98
X183.82Y-121.44
T4
X135.774Y-111.1
X135.774Y-113.599
X135.774Y-115.601
X135.774Y-118.1
X150.774Y-111.1
X150.774Y-113.599
X150.774Y-115.601
X150.774Y-118.1
T5
X115.774Y-111.1
X115.774Y-113.6
X115.774Y-115.6
X115.774Y-118.1
X148.42Y-104.2
X150.96Y-104.2
X153.5Y-104.2
X163.8Y-109.48
X163.8Y-112.02
X163.8Y-114.56
X163.8Y-117.1
X163.8Y-119.64
X171.77Y-102.15
X183.77Y-102.15
T6
X171.77Y-114.35
X177.82Y-100.2
X183.82Y-114.4
T7
X172.74Y-123.8
X177.82Y-123.8
X182.9Y-123.8
T2
X115.774Y-82.913G85X115.774Y-82.313
G05
X115.774Y-87.264G85X115.774Y-86.364
G05
X124.424Y-82.913G85X124.424Y-82.313
G05
X124.424Y-87.264G85X124.424Y-86.364
G05
X135.774Y-82.913G85X135.774Y-82.313
G05
X135.774Y-87.264G85X135.774Y-86.364
G05
X144.424Y-82.913G85X144.424Y-82.313
G05
X144.424Y-87.264G85X144.424Y-86.364
G05
T3
X113.624Y-108.15G85X114.924Y-108.15
G05
X113.624Y-121.05G85X114.924Y-121.05
G05
T5
X133.974Y-108.03G85X132.574Y-108.03
G05
X132.574Y-121.17G85X133.974Y-121.17
G05
X148.974Y-108.03G85X147.574Y-108.03
G05
X147.574Y-121.17G85X148.974Y-121.17
G05
M30
