%TF.GenerationSoftware,KiCad,Pcbnew,8.0.2*%
%TF.CreationDate,2024-05-30T21:42:03+08:00*%
%TF.ProjectId,pppc_usb_hub,70707063-5f75-4736-925f-6875622e6b69,rev?*%
%TF.SameCoordinates,Original*%
%TF.FileFunction,Drillmap*%
%TF.FilePolarity,Positive*%
%FSLAX45Y45*%
G04 Gerber Fmt 4.5, Leading zero omitted, Abs format (unit mm)*
G04 Created by KiCad (PCBNEW 8.0.2) date 2024-05-30 21:42:03*
%MOMM*%
%LPD*%
G01*
G04 APERTURE LIST*
%ADD10C,0.200000*%
%ADD11C,0.100000*%
G04 APERTURE END LIST*
D10*
X11170000Y-8101000D02*
X18530000Y-8101000D01*
X18665000Y-8401000D02*
G75*
G02*
X18395000Y-8401000I-135000J0D01*
G01*
X18395000Y-8401000D02*
G75*
G02*
X18665000Y-8401000I135000J0D01*
G01*
X18530000Y-12899000D02*
X11170000Y-12899000D01*
X10870000Y-12599000D02*
X10870000Y-8401000D01*
X11170000Y-12899000D02*
G75*
G02*
X10870000Y-12599000I0J300000D01*
G01*
X11305000Y-9101000D02*
G75*
G02*
X11035000Y-9101000I-135000J0D01*
G01*
X11035000Y-9101000D02*
G75*
G02*
X11305000Y-9101000I135000J0D01*
G01*
X18830000Y-12599000D02*
G75*
G02*
X18530000Y-12899000I-300000J0D01*
G01*
X11305000Y-12599000D02*
G75*
G02*
X11035000Y-12599000I-135000J0D01*
G01*
X11035000Y-12599000D02*
G75*
G02*
X11305000Y-12599000I135000J0D01*
G01*
X10870000Y-8401000D02*
G75*
G02*
X11170000Y-8101000I300000J0D01*
G01*
X18530000Y-8101000D02*
G75*
G02*
X18830000Y-8401000I0J-300000D01*
G01*
X16665000Y-12599000D02*
G75*
G02*
X16395000Y-12599000I-135000J0D01*
G01*
X16395000Y-12599000D02*
G75*
G02*
X16665000Y-12599000I135000J0D01*
G01*
X18830000Y-8401000D02*
X18830000Y-12599000D01*
D11*
X11685890Y-8594340D02*
X11755890Y-8664340D01*
X11755890Y-8594340D02*
X11685890Y-8664340D01*
X11705000Y-12675000D02*
X11775000Y-12745000D01*
X11775000Y-12675000D02*
X11705000Y-12745000D01*
X11875000Y-12675000D02*
X11945000Y-12745000D01*
X11945000Y-12675000D02*
X11875000Y-12745000D01*
X12263890Y-8594340D02*
X12333890Y-8664340D01*
X12333890Y-8594340D02*
X12263890Y-8664340D01*
X13262410Y-12675000D02*
X13332410Y-12745000D01*
X13332410Y-12675000D02*
X13262410Y-12745000D01*
X13432410Y-12675000D02*
X13502410Y-12745000D01*
X13502410Y-12675000D02*
X13432410Y-12745000D01*
X13685890Y-8594340D02*
X13755890Y-8664340D01*
X13755890Y-8594340D02*
X13685890Y-8664340D01*
X14263890Y-8594340D02*
X14333890Y-8664340D01*
X14333890Y-8594340D02*
X14263890Y-8664340D01*
X14762410Y-12675000D02*
X14832410Y-12745000D01*
X14832410Y-12675000D02*
X14762410Y-12745000D01*
X14932410Y-12675000D02*
X15002410Y-12745000D01*
X15002410Y-12675000D02*
X14932410Y-12745000D01*
X17659990Y-8251350D02*
X17729990Y-8321350D01*
X17729990Y-8251350D02*
X17659990Y-8321350D01*
X17829990Y-8251350D02*
X17899990Y-8321350D01*
X17899990Y-8251350D02*
X17829990Y-8321350D01*
X11655000Y-12710000D02*
G75*
G02*
X11565000Y-12710000I-45000J0D01*
G01*
X11565000Y-12710000D02*
G75*
G02*
X11655000Y-12710000I45000J0D01*
G01*
X12085000Y-12710000D02*
G75*
G02*
X11995000Y-12710000I-45000J0D01*
G01*
X11995000Y-12710000D02*
G75*
G02*
X12085000Y-12710000I45000J0D01*
G01*
X13212410Y-12710000D02*
G75*
G02*
X13122410Y-12710000I-45000J0D01*
G01*
X13122410Y-12710000D02*
G75*
G02*
X13212410Y-12710000I45000J0D01*
G01*
X13642410Y-12710000D02*
G75*
G02*
X13552410Y-12710000I-45000J0D01*
G01*
X13552410Y-12710000D02*
G75*
G02*
X13642410Y-12710000I45000J0D01*
G01*
X14712410Y-12710000D02*
G75*
G02*
X14622410Y-12710000I-45000J0D01*
G01*
X14622410Y-12710000D02*
G75*
G02*
X14712410Y-12710000I45000J0D01*
G01*
X15142410Y-12710000D02*
G75*
G02*
X15052410Y-12710000I-45000J0D01*
G01*
X15052410Y-12710000D02*
G75*
G02*
X15142410Y-12710000I45000J0D01*
G01*
X17609990Y-8286350D02*
G75*
G02*
X17519990Y-8286350I-45000J0D01*
G01*
X17519990Y-8286350D02*
G75*
G02*
X17609990Y-8286350I45000J0D01*
G01*
X18039990Y-8286350D02*
G75*
G02*
X17949990Y-8286350I-45000J0D01*
G01*
X17949990Y-8286350D02*
G75*
G02*
X18039990Y-8286350I45000J0D01*
G01*
D10*
X11120777Y-13220484D02*
X11120777Y-13020484D01*
X11120777Y-13020484D02*
X11168396Y-13020484D01*
X11168396Y-13020484D02*
X11196967Y-13030008D01*
X11196967Y-13030008D02*
X11216015Y-13049055D01*
X11216015Y-13049055D02*
X11225539Y-13068103D01*
X11225539Y-13068103D02*
X11235062Y-13106198D01*
X11235062Y-13106198D02*
X11235062Y-13134769D01*
X11235062Y-13134769D02*
X11225539Y-13172865D01*
X11225539Y-13172865D02*
X11216015Y-13191912D01*
X11216015Y-13191912D02*
X11196967Y-13210960D01*
X11196967Y-13210960D02*
X11168396Y-13220484D01*
X11168396Y-13220484D02*
X11120777Y-13220484D01*
X11320777Y-13220484D02*
X11320777Y-13087150D01*
X11320777Y-13125246D02*
X11330301Y-13106198D01*
X11330301Y-13106198D02*
X11339824Y-13096674D01*
X11339824Y-13096674D02*
X11358872Y-13087150D01*
X11358872Y-13087150D02*
X11377920Y-13087150D01*
X11444586Y-13220484D02*
X11444586Y-13087150D01*
X11444586Y-13020484D02*
X11435062Y-13030008D01*
X11435062Y-13030008D02*
X11444586Y-13039531D01*
X11444586Y-13039531D02*
X11454110Y-13030008D01*
X11454110Y-13030008D02*
X11444586Y-13020484D01*
X11444586Y-13020484D02*
X11444586Y-13039531D01*
X11568396Y-13220484D02*
X11549348Y-13210960D01*
X11549348Y-13210960D02*
X11539824Y-13191912D01*
X11539824Y-13191912D02*
X11539824Y-13020484D01*
X11673158Y-13220484D02*
X11654110Y-13210960D01*
X11654110Y-13210960D02*
X11644586Y-13191912D01*
X11644586Y-13191912D02*
X11644586Y-13020484D01*
X11901729Y-13220484D02*
X11901729Y-13020484D01*
X11901729Y-13020484D02*
X11968396Y-13163341D01*
X11968396Y-13163341D02*
X12035062Y-13020484D01*
X12035062Y-13020484D02*
X12035062Y-13220484D01*
X12216015Y-13220484D02*
X12216015Y-13115722D01*
X12216015Y-13115722D02*
X12206491Y-13096674D01*
X12206491Y-13096674D02*
X12187443Y-13087150D01*
X12187443Y-13087150D02*
X12149348Y-13087150D01*
X12149348Y-13087150D02*
X12130301Y-13096674D01*
X12216015Y-13210960D02*
X12196967Y-13220484D01*
X12196967Y-13220484D02*
X12149348Y-13220484D01*
X12149348Y-13220484D02*
X12130301Y-13210960D01*
X12130301Y-13210960D02*
X12120777Y-13191912D01*
X12120777Y-13191912D02*
X12120777Y-13172865D01*
X12120777Y-13172865D02*
X12130301Y-13153817D01*
X12130301Y-13153817D02*
X12149348Y-13144293D01*
X12149348Y-13144293D02*
X12196967Y-13144293D01*
X12196967Y-13144293D02*
X12216015Y-13134769D01*
X12311253Y-13087150D02*
X12311253Y-13287150D01*
X12311253Y-13096674D02*
X12330301Y-13087150D01*
X12330301Y-13087150D02*
X12368396Y-13087150D01*
X12368396Y-13087150D02*
X12387443Y-13096674D01*
X12387443Y-13096674D02*
X12396967Y-13106198D01*
X12396967Y-13106198D02*
X12406491Y-13125246D01*
X12406491Y-13125246D02*
X12406491Y-13182388D01*
X12406491Y-13182388D02*
X12396967Y-13201436D01*
X12396967Y-13201436D02*
X12387443Y-13210960D01*
X12387443Y-13210960D02*
X12368396Y-13220484D01*
X12368396Y-13220484D02*
X12330301Y-13220484D01*
X12330301Y-13220484D02*
X12311253Y-13210960D01*
X12492205Y-13201436D02*
X12501729Y-13210960D01*
X12501729Y-13210960D02*
X12492205Y-13220484D01*
X12492205Y-13220484D02*
X12482682Y-13210960D01*
X12482682Y-13210960D02*
X12492205Y-13201436D01*
X12492205Y-13201436D02*
X12492205Y-13220484D01*
X12492205Y-13096674D02*
X12501729Y-13106198D01*
X12501729Y-13106198D02*
X12492205Y-13115722D01*
X12492205Y-13115722D02*
X12482682Y-13106198D01*
X12482682Y-13106198D02*
X12492205Y-13096674D01*
X12492205Y-13096674D02*
X12492205Y-13115722D01*
D11*
X10790000Y-13514000D02*
X10860000Y-13584000D01*
X10860000Y-13514000D02*
X10790000Y-13584000D01*
D10*
X11158872Y-13440484D02*
X11177920Y-13440484D01*
X11177920Y-13440484D02*
X11196967Y-13450008D01*
X11196967Y-13450008D02*
X11206491Y-13459531D01*
X11206491Y-13459531D02*
X11216015Y-13478579D01*
X11216015Y-13478579D02*
X11225539Y-13516674D01*
X11225539Y-13516674D02*
X11225539Y-13564293D01*
X11225539Y-13564293D02*
X11216015Y-13602388D01*
X11216015Y-13602388D02*
X11206491Y-13621436D01*
X11206491Y-13621436D02*
X11196967Y-13630960D01*
X11196967Y-13630960D02*
X11177920Y-13640484D01*
X11177920Y-13640484D02*
X11158872Y-13640484D01*
X11158872Y-13640484D02*
X11139824Y-13630960D01*
X11139824Y-13630960D02*
X11130301Y-13621436D01*
X11130301Y-13621436D02*
X11120777Y-13602388D01*
X11120777Y-13602388D02*
X11111253Y-13564293D01*
X11111253Y-13564293D02*
X11111253Y-13516674D01*
X11111253Y-13516674D02*
X11120777Y-13478579D01*
X11120777Y-13478579D02*
X11130301Y-13459531D01*
X11130301Y-13459531D02*
X11139824Y-13450008D01*
X11139824Y-13450008D02*
X11158872Y-13440484D01*
X11311253Y-13621436D02*
X11320777Y-13630960D01*
X11320777Y-13630960D02*
X11311253Y-13640484D01*
X11311253Y-13640484D02*
X11301729Y-13630960D01*
X11301729Y-13630960D02*
X11311253Y-13621436D01*
X11311253Y-13621436D02*
X11311253Y-13640484D01*
X11387443Y-13440484D02*
X11520777Y-13440484D01*
X11520777Y-13440484D02*
X11435062Y-13640484D01*
X11635062Y-13440484D02*
X11654110Y-13440484D01*
X11654110Y-13440484D02*
X11673158Y-13450008D01*
X11673158Y-13450008D02*
X11682682Y-13459531D01*
X11682682Y-13459531D02*
X11692205Y-13478579D01*
X11692205Y-13478579D02*
X11701729Y-13516674D01*
X11701729Y-13516674D02*
X11701729Y-13564293D01*
X11701729Y-13564293D02*
X11692205Y-13602388D01*
X11692205Y-13602388D02*
X11682682Y-13621436D01*
X11682682Y-13621436D02*
X11673158Y-13630960D01*
X11673158Y-13630960D02*
X11654110Y-13640484D01*
X11654110Y-13640484D02*
X11635062Y-13640484D01*
X11635062Y-13640484D02*
X11616015Y-13630960D01*
X11616015Y-13630960D02*
X11606491Y-13621436D01*
X11606491Y-13621436D02*
X11596967Y-13602388D01*
X11596967Y-13602388D02*
X11587443Y-13564293D01*
X11587443Y-13564293D02*
X11587443Y-13516674D01*
X11587443Y-13516674D02*
X11596967Y-13478579D01*
X11596967Y-13478579D02*
X11606491Y-13459531D01*
X11606491Y-13459531D02*
X11616015Y-13450008D01*
X11616015Y-13450008D02*
X11635062Y-13440484D01*
X11825539Y-13440484D02*
X11844586Y-13440484D01*
X11844586Y-13440484D02*
X11863634Y-13450008D01*
X11863634Y-13450008D02*
X11873158Y-13459531D01*
X11873158Y-13459531D02*
X11882682Y-13478579D01*
X11882682Y-13478579D02*
X11892205Y-13516674D01*
X11892205Y-13516674D02*
X11892205Y-13564293D01*
X11892205Y-13564293D02*
X11882682Y-13602388D01*
X11882682Y-13602388D02*
X11873158Y-13621436D01*
X11873158Y-13621436D02*
X11863634Y-13630960D01*
X11863634Y-13630960D02*
X11844586Y-13640484D01*
X11844586Y-13640484D02*
X11825539Y-13640484D01*
X11825539Y-13640484D02*
X11806491Y-13630960D01*
X11806491Y-13630960D02*
X11796967Y-13621436D01*
X11796967Y-13621436D02*
X11787443Y-13602388D01*
X11787443Y-13602388D02*
X11777920Y-13564293D01*
X11777920Y-13564293D02*
X11777920Y-13516674D01*
X11777920Y-13516674D02*
X11787443Y-13478579D01*
X11787443Y-13478579D02*
X11796967Y-13459531D01*
X11796967Y-13459531D02*
X11806491Y-13450008D01*
X11806491Y-13450008D02*
X11825539Y-13440484D01*
X11977920Y-13640484D02*
X11977920Y-13507150D01*
X11977920Y-13526198D02*
X11987443Y-13516674D01*
X11987443Y-13516674D02*
X12006491Y-13507150D01*
X12006491Y-13507150D02*
X12035063Y-13507150D01*
X12035063Y-13507150D02*
X12054110Y-13516674D01*
X12054110Y-13516674D02*
X12063634Y-13535722D01*
X12063634Y-13535722D02*
X12063634Y-13640484D01*
X12063634Y-13535722D02*
X12073158Y-13516674D01*
X12073158Y-13516674D02*
X12092205Y-13507150D01*
X12092205Y-13507150D02*
X12120777Y-13507150D01*
X12120777Y-13507150D02*
X12139824Y-13516674D01*
X12139824Y-13516674D02*
X12149348Y-13535722D01*
X12149348Y-13535722D02*
X12149348Y-13640484D01*
X12244586Y-13640484D02*
X12244586Y-13507150D01*
X12244586Y-13526198D02*
X12254110Y-13516674D01*
X12254110Y-13516674D02*
X12273158Y-13507150D01*
X12273158Y-13507150D02*
X12301729Y-13507150D01*
X12301729Y-13507150D02*
X12320777Y-13516674D01*
X12320777Y-13516674D02*
X12330301Y-13535722D01*
X12330301Y-13535722D02*
X12330301Y-13640484D01*
X12330301Y-13535722D02*
X12339824Y-13516674D01*
X12339824Y-13516674D02*
X12358872Y-13507150D01*
X12358872Y-13507150D02*
X12387443Y-13507150D01*
X12387443Y-13507150D02*
X12406491Y-13516674D01*
X12406491Y-13516674D02*
X12416015Y-13535722D01*
X12416015Y-13535722D02*
X12416015Y-13640484D01*
X12806491Y-13430960D02*
X12635063Y-13688103D01*
X13063634Y-13440484D02*
X13082682Y-13440484D01*
X13082682Y-13440484D02*
X13101729Y-13450008D01*
X13101729Y-13450008D02*
X13111253Y-13459531D01*
X13111253Y-13459531D02*
X13120777Y-13478579D01*
X13120777Y-13478579D02*
X13130301Y-13516674D01*
X13130301Y-13516674D02*
X13130301Y-13564293D01*
X13130301Y-13564293D02*
X13120777Y-13602388D01*
X13120777Y-13602388D02*
X13111253Y-13621436D01*
X13111253Y-13621436D02*
X13101729Y-13630960D01*
X13101729Y-13630960D02*
X13082682Y-13640484D01*
X13082682Y-13640484D02*
X13063634Y-13640484D01*
X13063634Y-13640484D02*
X13044586Y-13630960D01*
X13044586Y-13630960D02*
X13035063Y-13621436D01*
X13035063Y-13621436D02*
X13025539Y-13602388D01*
X13025539Y-13602388D02*
X13016015Y-13564293D01*
X13016015Y-13564293D02*
X13016015Y-13516674D01*
X13016015Y-13516674D02*
X13025539Y-13478579D01*
X13025539Y-13478579D02*
X13035063Y-13459531D01*
X13035063Y-13459531D02*
X13044586Y-13450008D01*
X13044586Y-13450008D02*
X13063634Y-13440484D01*
X13216015Y-13621436D02*
X13225539Y-13630960D01*
X13225539Y-13630960D02*
X13216015Y-13640484D01*
X13216015Y-13640484D02*
X13206491Y-13630960D01*
X13206491Y-13630960D02*
X13216015Y-13621436D01*
X13216015Y-13621436D02*
X13216015Y-13640484D01*
X13349348Y-13440484D02*
X13368396Y-13440484D01*
X13368396Y-13440484D02*
X13387444Y-13450008D01*
X13387444Y-13450008D02*
X13396967Y-13459531D01*
X13396967Y-13459531D02*
X13406491Y-13478579D01*
X13406491Y-13478579D02*
X13416015Y-13516674D01*
X13416015Y-13516674D02*
X13416015Y-13564293D01*
X13416015Y-13564293D02*
X13406491Y-13602388D01*
X13406491Y-13602388D02*
X13396967Y-13621436D01*
X13396967Y-13621436D02*
X13387444Y-13630960D01*
X13387444Y-13630960D02*
X13368396Y-13640484D01*
X13368396Y-13640484D02*
X13349348Y-13640484D01*
X13349348Y-13640484D02*
X13330301Y-13630960D01*
X13330301Y-13630960D02*
X13320777Y-13621436D01*
X13320777Y-13621436D02*
X13311253Y-13602388D01*
X13311253Y-13602388D02*
X13301729Y-13564293D01*
X13301729Y-13564293D02*
X13301729Y-13516674D01*
X13301729Y-13516674D02*
X13311253Y-13478579D01*
X13311253Y-13478579D02*
X13320777Y-13459531D01*
X13320777Y-13459531D02*
X13330301Y-13450008D01*
X13330301Y-13450008D02*
X13349348Y-13440484D01*
X13492206Y-13459531D02*
X13501729Y-13450008D01*
X13501729Y-13450008D02*
X13520777Y-13440484D01*
X13520777Y-13440484D02*
X13568396Y-13440484D01*
X13568396Y-13440484D02*
X13587444Y-13450008D01*
X13587444Y-13450008D02*
X13596967Y-13459531D01*
X13596967Y-13459531D02*
X13606491Y-13478579D01*
X13606491Y-13478579D02*
X13606491Y-13497627D01*
X13606491Y-13497627D02*
X13596967Y-13526198D01*
X13596967Y-13526198D02*
X13482682Y-13640484D01*
X13482682Y-13640484D02*
X13606491Y-13640484D01*
X13673158Y-13440484D02*
X13806491Y-13440484D01*
X13806491Y-13440484D02*
X13720777Y-13640484D01*
X13968396Y-13440484D02*
X13930301Y-13440484D01*
X13930301Y-13440484D02*
X13911253Y-13450008D01*
X13911253Y-13450008D02*
X13901729Y-13459531D01*
X13901729Y-13459531D02*
X13882682Y-13488103D01*
X13882682Y-13488103D02*
X13873158Y-13526198D01*
X13873158Y-13526198D02*
X13873158Y-13602388D01*
X13873158Y-13602388D02*
X13882682Y-13621436D01*
X13882682Y-13621436D02*
X13892206Y-13630960D01*
X13892206Y-13630960D02*
X13911253Y-13640484D01*
X13911253Y-13640484D02*
X13949348Y-13640484D01*
X13949348Y-13640484D02*
X13968396Y-13630960D01*
X13968396Y-13630960D02*
X13977920Y-13621436D01*
X13977920Y-13621436D02*
X13987444Y-13602388D01*
X13987444Y-13602388D02*
X13987444Y-13554769D01*
X13987444Y-13554769D02*
X13977920Y-13535722D01*
X13977920Y-13535722D02*
X13968396Y-13526198D01*
X13968396Y-13526198D02*
X13949348Y-13516674D01*
X13949348Y-13516674D02*
X13911253Y-13516674D01*
X13911253Y-13516674D02*
X13892206Y-13526198D01*
X13892206Y-13526198D02*
X13882682Y-13535722D01*
X13882682Y-13535722D02*
X13873158Y-13554769D01*
X14063634Y-13440484D02*
X14063634Y-13478579D01*
X14139825Y-13440484D02*
X14139825Y-13478579D01*
X14435063Y-13716674D02*
X14425539Y-13707150D01*
X14425539Y-13707150D02*
X14406491Y-13678579D01*
X14406491Y-13678579D02*
X14396968Y-13659531D01*
X14396968Y-13659531D02*
X14387444Y-13630960D01*
X14387444Y-13630960D02*
X14377920Y-13583341D01*
X14377920Y-13583341D02*
X14377920Y-13545246D01*
X14377920Y-13545246D02*
X14387444Y-13497627D01*
X14387444Y-13497627D02*
X14396968Y-13469055D01*
X14396968Y-13469055D02*
X14406491Y-13450008D01*
X14406491Y-13450008D02*
X14425539Y-13421436D01*
X14425539Y-13421436D02*
X14435063Y-13411912D01*
X14616015Y-13640484D02*
X14501729Y-13640484D01*
X14558872Y-13640484D02*
X14558872Y-13440484D01*
X14558872Y-13440484D02*
X14539825Y-13469055D01*
X14539825Y-13469055D02*
X14520777Y-13488103D01*
X14520777Y-13488103D02*
X14501729Y-13497627D01*
X14692206Y-13459531D02*
X14701729Y-13450008D01*
X14701729Y-13450008D02*
X14720777Y-13440484D01*
X14720777Y-13440484D02*
X14768396Y-13440484D01*
X14768396Y-13440484D02*
X14787444Y-13450008D01*
X14787444Y-13450008D02*
X14796968Y-13459531D01*
X14796968Y-13459531D02*
X14806491Y-13478579D01*
X14806491Y-13478579D02*
X14806491Y-13497627D01*
X14806491Y-13497627D02*
X14796968Y-13526198D01*
X14796968Y-13526198D02*
X14682682Y-13640484D01*
X14682682Y-13640484D02*
X14806491Y-13640484D01*
X15044587Y-13640484D02*
X15044587Y-13440484D01*
X15130301Y-13640484D02*
X15130301Y-13535722D01*
X15130301Y-13535722D02*
X15120777Y-13516674D01*
X15120777Y-13516674D02*
X15101730Y-13507150D01*
X15101730Y-13507150D02*
X15073158Y-13507150D01*
X15073158Y-13507150D02*
X15054110Y-13516674D01*
X15054110Y-13516674D02*
X15044587Y-13526198D01*
X15254110Y-13640484D02*
X15235063Y-13630960D01*
X15235063Y-13630960D02*
X15225539Y-13621436D01*
X15225539Y-13621436D02*
X15216015Y-13602388D01*
X15216015Y-13602388D02*
X15216015Y-13545246D01*
X15216015Y-13545246D02*
X15225539Y-13526198D01*
X15225539Y-13526198D02*
X15235063Y-13516674D01*
X15235063Y-13516674D02*
X15254110Y-13507150D01*
X15254110Y-13507150D02*
X15282682Y-13507150D01*
X15282682Y-13507150D02*
X15301730Y-13516674D01*
X15301730Y-13516674D02*
X15311253Y-13526198D01*
X15311253Y-13526198D02*
X15320777Y-13545246D01*
X15320777Y-13545246D02*
X15320777Y-13602388D01*
X15320777Y-13602388D02*
X15311253Y-13621436D01*
X15311253Y-13621436D02*
X15301730Y-13630960D01*
X15301730Y-13630960D02*
X15282682Y-13640484D01*
X15282682Y-13640484D02*
X15254110Y-13640484D01*
X15435063Y-13640484D02*
X15416015Y-13630960D01*
X15416015Y-13630960D02*
X15406491Y-13611912D01*
X15406491Y-13611912D02*
X15406491Y-13440484D01*
X15587444Y-13630960D02*
X15568396Y-13640484D01*
X15568396Y-13640484D02*
X15530301Y-13640484D01*
X15530301Y-13640484D02*
X15511253Y-13630960D01*
X15511253Y-13630960D02*
X15501730Y-13611912D01*
X15501730Y-13611912D02*
X15501730Y-13535722D01*
X15501730Y-13535722D02*
X15511253Y-13516674D01*
X15511253Y-13516674D02*
X15530301Y-13507150D01*
X15530301Y-13507150D02*
X15568396Y-13507150D01*
X15568396Y-13507150D02*
X15587444Y-13516674D01*
X15587444Y-13516674D02*
X15596968Y-13535722D01*
X15596968Y-13535722D02*
X15596968Y-13554769D01*
X15596968Y-13554769D02*
X15501730Y-13573817D01*
X15673158Y-13630960D02*
X15692206Y-13640484D01*
X15692206Y-13640484D02*
X15730301Y-13640484D01*
X15730301Y-13640484D02*
X15749349Y-13630960D01*
X15749349Y-13630960D02*
X15758872Y-13611912D01*
X15758872Y-13611912D02*
X15758872Y-13602388D01*
X15758872Y-13602388D02*
X15749349Y-13583341D01*
X15749349Y-13583341D02*
X15730301Y-13573817D01*
X15730301Y-13573817D02*
X15701730Y-13573817D01*
X15701730Y-13573817D02*
X15682682Y-13564293D01*
X15682682Y-13564293D02*
X15673158Y-13545246D01*
X15673158Y-13545246D02*
X15673158Y-13535722D01*
X15673158Y-13535722D02*
X15682682Y-13516674D01*
X15682682Y-13516674D02*
X15701730Y-13507150D01*
X15701730Y-13507150D02*
X15730301Y-13507150D01*
X15730301Y-13507150D02*
X15749349Y-13516674D01*
X15825539Y-13716674D02*
X15835063Y-13707150D01*
X15835063Y-13707150D02*
X15854111Y-13678579D01*
X15854111Y-13678579D02*
X15863634Y-13659531D01*
X15863634Y-13659531D02*
X15873158Y-13630960D01*
X15873158Y-13630960D02*
X15882682Y-13583341D01*
X15882682Y-13583341D02*
X15882682Y-13545246D01*
X15882682Y-13545246D02*
X15873158Y-13497627D01*
X15873158Y-13497627D02*
X15863634Y-13469055D01*
X15863634Y-13469055D02*
X15854111Y-13450008D01*
X15854111Y-13450008D02*
X15835063Y-13421436D01*
X15835063Y-13421436D02*
X15825539Y-13411912D01*
X16187444Y-13716674D02*
X16177920Y-13707150D01*
X16177920Y-13707150D02*
X16158872Y-13678579D01*
X16158872Y-13678579D02*
X16149349Y-13659531D01*
X16149349Y-13659531D02*
X16139825Y-13630960D01*
X16139825Y-13630960D02*
X16130301Y-13583341D01*
X16130301Y-13583341D02*
X16130301Y-13545246D01*
X16130301Y-13545246D02*
X16139825Y-13497627D01*
X16139825Y-13497627D02*
X16149349Y-13469055D01*
X16149349Y-13469055D02*
X16158872Y-13450008D01*
X16158872Y-13450008D02*
X16177920Y-13421436D01*
X16177920Y-13421436D02*
X16187444Y-13411912D01*
X16263634Y-13507150D02*
X16263634Y-13640484D01*
X16263634Y-13526198D02*
X16273158Y-13516674D01*
X16273158Y-13516674D02*
X16292206Y-13507150D01*
X16292206Y-13507150D02*
X16320777Y-13507150D01*
X16320777Y-13507150D02*
X16339825Y-13516674D01*
X16339825Y-13516674D02*
X16349349Y-13535722D01*
X16349349Y-13535722D02*
X16349349Y-13640484D01*
X16473158Y-13640484D02*
X16454111Y-13630960D01*
X16454111Y-13630960D02*
X16444587Y-13621436D01*
X16444587Y-13621436D02*
X16435063Y-13602388D01*
X16435063Y-13602388D02*
X16435063Y-13545246D01*
X16435063Y-13545246D02*
X16444587Y-13526198D01*
X16444587Y-13526198D02*
X16454111Y-13516674D01*
X16454111Y-13516674D02*
X16473158Y-13507150D01*
X16473158Y-13507150D02*
X16501730Y-13507150D01*
X16501730Y-13507150D02*
X16520777Y-13516674D01*
X16520777Y-13516674D02*
X16530301Y-13526198D01*
X16530301Y-13526198D02*
X16539825Y-13545246D01*
X16539825Y-13545246D02*
X16539825Y-13602388D01*
X16539825Y-13602388D02*
X16530301Y-13621436D01*
X16530301Y-13621436D02*
X16520777Y-13630960D01*
X16520777Y-13630960D02*
X16501730Y-13640484D01*
X16501730Y-13640484D02*
X16473158Y-13640484D01*
X16596968Y-13507150D02*
X16673158Y-13507150D01*
X16625539Y-13440484D02*
X16625539Y-13611912D01*
X16625539Y-13611912D02*
X16635063Y-13630960D01*
X16635063Y-13630960D02*
X16654111Y-13640484D01*
X16654111Y-13640484D02*
X16673158Y-13640484D01*
X16892206Y-13507150D02*
X16892206Y-13707150D01*
X16892206Y-13516674D02*
X16911254Y-13507150D01*
X16911254Y-13507150D02*
X16949349Y-13507150D01*
X16949349Y-13507150D02*
X16968396Y-13516674D01*
X16968396Y-13516674D02*
X16977920Y-13526198D01*
X16977920Y-13526198D02*
X16987444Y-13545246D01*
X16987444Y-13545246D02*
X16987444Y-13602388D01*
X16987444Y-13602388D02*
X16977920Y-13621436D01*
X16977920Y-13621436D02*
X16968396Y-13630960D01*
X16968396Y-13630960D02*
X16949349Y-13640484D01*
X16949349Y-13640484D02*
X16911254Y-13640484D01*
X16911254Y-13640484D02*
X16892206Y-13630960D01*
X17101730Y-13640484D02*
X17082682Y-13630960D01*
X17082682Y-13630960D02*
X17073158Y-13611912D01*
X17073158Y-13611912D02*
X17073158Y-13440484D01*
X17263635Y-13640484D02*
X17263635Y-13535722D01*
X17263635Y-13535722D02*
X17254111Y-13516674D01*
X17254111Y-13516674D02*
X17235063Y-13507150D01*
X17235063Y-13507150D02*
X17196968Y-13507150D01*
X17196968Y-13507150D02*
X17177920Y-13516674D01*
X17263635Y-13630960D02*
X17244587Y-13640484D01*
X17244587Y-13640484D02*
X17196968Y-13640484D01*
X17196968Y-13640484D02*
X17177920Y-13630960D01*
X17177920Y-13630960D02*
X17168396Y-13611912D01*
X17168396Y-13611912D02*
X17168396Y-13592865D01*
X17168396Y-13592865D02*
X17177920Y-13573817D01*
X17177920Y-13573817D02*
X17196968Y-13564293D01*
X17196968Y-13564293D02*
X17244587Y-13564293D01*
X17244587Y-13564293D02*
X17263635Y-13554769D01*
X17330301Y-13507150D02*
X17406492Y-13507150D01*
X17358873Y-13440484D02*
X17358873Y-13611912D01*
X17358873Y-13611912D02*
X17368396Y-13630960D01*
X17368396Y-13630960D02*
X17387444Y-13640484D01*
X17387444Y-13640484D02*
X17406492Y-13640484D01*
X17549349Y-13630960D02*
X17530301Y-13640484D01*
X17530301Y-13640484D02*
X17492206Y-13640484D01*
X17492206Y-13640484D02*
X17473158Y-13630960D01*
X17473158Y-13630960D02*
X17463635Y-13611912D01*
X17463635Y-13611912D02*
X17463635Y-13535722D01*
X17463635Y-13535722D02*
X17473158Y-13516674D01*
X17473158Y-13516674D02*
X17492206Y-13507150D01*
X17492206Y-13507150D02*
X17530301Y-13507150D01*
X17530301Y-13507150D02*
X17549349Y-13516674D01*
X17549349Y-13516674D02*
X17558873Y-13535722D01*
X17558873Y-13535722D02*
X17558873Y-13554769D01*
X17558873Y-13554769D02*
X17463635Y-13573817D01*
X17730301Y-13640484D02*
X17730301Y-13440484D01*
X17730301Y-13630960D02*
X17711254Y-13640484D01*
X17711254Y-13640484D02*
X17673158Y-13640484D01*
X17673158Y-13640484D02*
X17654111Y-13630960D01*
X17654111Y-13630960D02*
X17644587Y-13621436D01*
X17644587Y-13621436D02*
X17635063Y-13602388D01*
X17635063Y-13602388D02*
X17635063Y-13545246D01*
X17635063Y-13545246D02*
X17644587Y-13526198D01*
X17644587Y-13526198D02*
X17654111Y-13516674D01*
X17654111Y-13516674D02*
X17673158Y-13507150D01*
X17673158Y-13507150D02*
X17711254Y-13507150D01*
X17711254Y-13507150D02*
X17730301Y-13516674D01*
X17806492Y-13716674D02*
X17816016Y-13707150D01*
X17816016Y-13707150D02*
X17835063Y-13678579D01*
X17835063Y-13678579D02*
X17844587Y-13659531D01*
X17844587Y-13659531D02*
X17854111Y-13630960D01*
X17854111Y-13630960D02*
X17863635Y-13583341D01*
X17863635Y-13583341D02*
X17863635Y-13545246D01*
X17863635Y-13545246D02*
X17854111Y-13497627D01*
X17854111Y-13497627D02*
X17844587Y-13469055D01*
X17844587Y-13469055D02*
X17835063Y-13450008D01*
X17835063Y-13450008D02*
X17816016Y-13421436D01*
X17816016Y-13421436D02*
X17806492Y-13411912D01*
D11*
X10860000Y-13813000D02*
G75*
G02*
X10770000Y-13813000I-45000J0D01*
G01*
X10770000Y-13813000D02*
G75*
G02*
X10860000Y-13813000I45000J0D01*
G01*
D10*
X11158872Y-13704484D02*
X11177920Y-13704484D01*
X11177920Y-13704484D02*
X11196967Y-13714008D01*
X11196967Y-13714008D02*
X11206491Y-13723531D01*
X11206491Y-13723531D02*
X11216015Y-13742579D01*
X11216015Y-13742579D02*
X11225539Y-13780674D01*
X11225539Y-13780674D02*
X11225539Y-13828293D01*
X11225539Y-13828293D02*
X11216015Y-13866388D01*
X11216015Y-13866388D02*
X11206491Y-13885436D01*
X11206491Y-13885436D02*
X11196967Y-13894960D01*
X11196967Y-13894960D02*
X11177920Y-13904484D01*
X11177920Y-13904484D02*
X11158872Y-13904484D01*
X11158872Y-13904484D02*
X11139824Y-13894960D01*
X11139824Y-13894960D02*
X11130301Y-13885436D01*
X11130301Y-13885436D02*
X11120777Y-13866388D01*
X11120777Y-13866388D02*
X11111253Y-13828293D01*
X11111253Y-13828293D02*
X11111253Y-13780674D01*
X11111253Y-13780674D02*
X11120777Y-13742579D01*
X11120777Y-13742579D02*
X11130301Y-13723531D01*
X11130301Y-13723531D02*
X11139824Y-13714008D01*
X11139824Y-13714008D02*
X11158872Y-13704484D01*
X11311253Y-13885436D02*
X11320777Y-13894960D01*
X11320777Y-13894960D02*
X11311253Y-13904484D01*
X11311253Y-13904484D02*
X11301729Y-13894960D01*
X11301729Y-13894960D02*
X11311253Y-13885436D01*
X11311253Y-13885436D02*
X11311253Y-13904484D01*
X11416015Y-13904484D02*
X11454110Y-13904484D01*
X11454110Y-13904484D02*
X11473158Y-13894960D01*
X11473158Y-13894960D02*
X11482682Y-13885436D01*
X11482682Y-13885436D02*
X11501729Y-13856865D01*
X11501729Y-13856865D02*
X11511253Y-13818769D01*
X11511253Y-13818769D02*
X11511253Y-13742579D01*
X11511253Y-13742579D02*
X11501729Y-13723531D01*
X11501729Y-13723531D02*
X11492205Y-13714008D01*
X11492205Y-13714008D02*
X11473158Y-13704484D01*
X11473158Y-13704484D02*
X11435062Y-13704484D01*
X11435062Y-13704484D02*
X11416015Y-13714008D01*
X11416015Y-13714008D02*
X11406491Y-13723531D01*
X11406491Y-13723531D02*
X11396967Y-13742579D01*
X11396967Y-13742579D02*
X11396967Y-13790198D01*
X11396967Y-13790198D02*
X11406491Y-13809246D01*
X11406491Y-13809246D02*
X11416015Y-13818769D01*
X11416015Y-13818769D02*
X11435062Y-13828293D01*
X11435062Y-13828293D02*
X11473158Y-13828293D01*
X11473158Y-13828293D02*
X11492205Y-13818769D01*
X11492205Y-13818769D02*
X11501729Y-13809246D01*
X11501729Y-13809246D02*
X11511253Y-13790198D01*
X11635062Y-13704484D02*
X11654110Y-13704484D01*
X11654110Y-13704484D02*
X11673158Y-13714008D01*
X11673158Y-13714008D02*
X11682682Y-13723531D01*
X11682682Y-13723531D02*
X11692205Y-13742579D01*
X11692205Y-13742579D02*
X11701729Y-13780674D01*
X11701729Y-13780674D02*
X11701729Y-13828293D01*
X11701729Y-13828293D02*
X11692205Y-13866388D01*
X11692205Y-13866388D02*
X11682682Y-13885436D01*
X11682682Y-13885436D02*
X11673158Y-13894960D01*
X11673158Y-13894960D02*
X11654110Y-13904484D01*
X11654110Y-13904484D02*
X11635062Y-13904484D01*
X11635062Y-13904484D02*
X11616015Y-13894960D01*
X11616015Y-13894960D02*
X11606491Y-13885436D01*
X11606491Y-13885436D02*
X11596967Y-13866388D01*
X11596967Y-13866388D02*
X11587443Y-13828293D01*
X11587443Y-13828293D02*
X11587443Y-13780674D01*
X11587443Y-13780674D02*
X11596967Y-13742579D01*
X11596967Y-13742579D02*
X11606491Y-13723531D01*
X11606491Y-13723531D02*
X11616015Y-13714008D01*
X11616015Y-13714008D02*
X11635062Y-13704484D01*
X11825539Y-13704484D02*
X11844586Y-13704484D01*
X11844586Y-13704484D02*
X11863634Y-13714008D01*
X11863634Y-13714008D02*
X11873158Y-13723531D01*
X11873158Y-13723531D02*
X11882682Y-13742579D01*
X11882682Y-13742579D02*
X11892205Y-13780674D01*
X11892205Y-13780674D02*
X11892205Y-13828293D01*
X11892205Y-13828293D02*
X11882682Y-13866388D01*
X11882682Y-13866388D02*
X11873158Y-13885436D01*
X11873158Y-13885436D02*
X11863634Y-13894960D01*
X11863634Y-13894960D02*
X11844586Y-13904484D01*
X11844586Y-13904484D02*
X11825539Y-13904484D01*
X11825539Y-13904484D02*
X11806491Y-13894960D01*
X11806491Y-13894960D02*
X11796967Y-13885436D01*
X11796967Y-13885436D02*
X11787443Y-13866388D01*
X11787443Y-13866388D02*
X11777920Y-13828293D01*
X11777920Y-13828293D02*
X11777920Y-13780674D01*
X11777920Y-13780674D02*
X11787443Y-13742579D01*
X11787443Y-13742579D02*
X11796967Y-13723531D01*
X11796967Y-13723531D02*
X11806491Y-13714008D01*
X11806491Y-13714008D02*
X11825539Y-13704484D01*
X11977920Y-13904484D02*
X11977920Y-13771150D01*
X11977920Y-13790198D02*
X11987443Y-13780674D01*
X11987443Y-13780674D02*
X12006491Y-13771150D01*
X12006491Y-13771150D02*
X12035063Y-13771150D01*
X12035063Y-13771150D02*
X12054110Y-13780674D01*
X12054110Y-13780674D02*
X12063634Y-13799722D01*
X12063634Y-13799722D02*
X12063634Y-13904484D01*
X12063634Y-13799722D02*
X12073158Y-13780674D01*
X12073158Y-13780674D02*
X12092205Y-13771150D01*
X12092205Y-13771150D02*
X12120777Y-13771150D01*
X12120777Y-13771150D02*
X12139824Y-13780674D01*
X12139824Y-13780674D02*
X12149348Y-13799722D01*
X12149348Y-13799722D02*
X12149348Y-13904484D01*
X12244586Y-13904484D02*
X12244586Y-13771150D01*
X12244586Y-13790198D02*
X12254110Y-13780674D01*
X12254110Y-13780674D02*
X12273158Y-13771150D01*
X12273158Y-13771150D02*
X12301729Y-13771150D01*
X12301729Y-13771150D02*
X12320777Y-13780674D01*
X12320777Y-13780674D02*
X12330301Y-13799722D01*
X12330301Y-13799722D02*
X12330301Y-13904484D01*
X12330301Y-13799722D02*
X12339824Y-13780674D01*
X12339824Y-13780674D02*
X12358872Y-13771150D01*
X12358872Y-13771150D02*
X12387443Y-13771150D01*
X12387443Y-13771150D02*
X12406491Y-13780674D01*
X12406491Y-13780674D02*
X12416015Y-13799722D01*
X12416015Y-13799722D02*
X12416015Y-13904484D01*
X12806491Y-13694960D02*
X12635063Y-13952103D01*
X13063634Y-13704484D02*
X13082682Y-13704484D01*
X13082682Y-13704484D02*
X13101729Y-13714008D01*
X13101729Y-13714008D02*
X13111253Y-13723531D01*
X13111253Y-13723531D02*
X13120777Y-13742579D01*
X13120777Y-13742579D02*
X13130301Y-13780674D01*
X13130301Y-13780674D02*
X13130301Y-13828293D01*
X13130301Y-13828293D02*
X13120777Y-13866388D01*
X13120777Y-13866388D02*
X13111253Y-13885436D01*
X13111253Y-13885436D02*
X13101729Y-13894960D01*
X13101729Y-13894960D02*
X13082682Y-13904484D01*
X13082682Y-13904484D02*
X13063634Y-13904484D01*
X13063634Y-13904484D02*
X13044586Y-13894960D01*
X13044586Y-13894960D02*
X13035063Y-13885436D01*
X13035063Y-13885436D02*
X13025539Y-13866388D01*
X13025539Y-13866388D02*
X13016015Y-13828293D01*
X13016015Y-13828293D02*
X13016015Y-13780674D01*
X13016015Y-13780674D02*
X13025539Y-13742579D01*
X13025539Y-13742579D02*
X13035063Y-13723531D01*
X13035063Y-13723531D02*
X13044586Y-13714008D01*
X13044586Y-13714008D02*
X13063634Y-13704484D01*
X13216015Y-13885436D02*
X13225539Y-13894960D01*
X13225539Y-13894960D02*
X13216015Y-13904484D01*
X13216015Y-13904484D02*
X13206491Y-13894960D01*
X13206491Y-13894960D02*
X13216015Y-13885436D01*
X13216015Y-13885436D02*
X13216015Y-13904484D01*
X13349348Y-13704484D02*
X13368396Y-13704484D01*
X13368396Y-13704484D02*
X13387444Y-13714008D01*
X13387444Y-13714008D02*
X13396967Y-13723531D01*
X13396967Y-13723531D02*
X13406491Y-13742579D01*
X13406491Y-13742579D02*
X13416015Y-13780674D01*
X13416015Y-13780674D02*
X13416015Y-13828293D01*
X13416015Y-13828293D02*
X13406491Y-13866388D01*
X13406491Y-13866388D02*
X13396967Y-13885436D01*
X13396967Y-13885436D02*
X13387444Y-13894960D01*
X13387444Y-13894960D02*
X13368396Y-13904484D01*
X13368396Y-13904484D02*
X13349348Y-13904484D01*
X13349348Y-13904484D02*
X13330301Y-13894960D01*
X13330301Y-13894960D02*
X13320777Y-13885436D01*
X13320777Y-13885436D02*
X13311253Y-13866388D01*
X13311253Y-13866388D02*
X13301729Y-13828293D01*
X13301729Y-13828293D02*
X13301729Y-13780674D01*
X13301729Y-13780674D02*
X13311253Y-13742579D01*
X13311253Y-13742579D02*
X13320777Y-13723531D01*
X13320777Y-13723531D02*
X13330301Y-13714008D01*
X13330301Y-13714008D02*
X13349348Y-13704484D01*
X13482682Y-13704484D02*
X13606491Y-13704484D01*
X13606491Y-13704484D02*
X13539825Y-13780674D01*
X13539825Y-13780674D02*
X13568396Y-13780674D01*
X13568396Y-13780674D02*
X13587444Y-13790198D01*
X13587444Y-13790198D02*
X13596967Y-13799722D01*
X13596967Y-13799722D02*
X13606491Y-13818769D01*
X13606491Y-13818769D02*
X13606491Y-13866388D01*
X13606491Y-13866388D02*
X13596967Y-13885436D01*
X13596967Y-13885436D02*
X13587444Y-13894960D01*
X13587444Y-13894960D02*
X13568396Y-13904484D01*
X13568396Y-13904484D02*
X13511253Y-13904484D01*
X13511253Y-13904484D02*
X13492206Y-13894960D01*
X13492206Y-13894960D02*
X13482682Y-13885436D01*
X13787444Y-13704484D02*
X13692206Y-13704484D01*
X13692206Y-13704484D02*
X13682682Y-13799722D01*
X13682682Y-13799722D02*
X13692206Y-13790198D01*
X13692206Y-13790198D02*
X13711253Y-13780674D01*
X13711253Y-13780674D02*
X13758872Y-13780674D01*
X13758872Y-13780674D02*
X13777920Y-13790198D01*
X13777920Y-13790198D02*
X13787444Y-13799722D01*
X13787444Y-13799722D02*
X13796967Y-13818769D01*
X13796967Y-13818769D02*
X13796967Y-13866388D01*
X13796967Y-13866388D02*
X13787444Y-13885436D01*
X13787444Y-13885436D02*
X13777920Y-13894960D01*
X13777920Y-13894960D02*
X13758872Y-13904484D01*
X13758872Y-13904484D02*
X13711253Y-13904484D01*
X13711253Y-13904484D02*
X13692206Y-13894960D01*
X13692206Y-13894960D02*
X13682682Y-13885436D01*
X13968396Y-13771150D02*
X13968396Y-13904484D01*
X13920777Y-13694960D02*
X13873158Y-13837817D01*
X13873158Y-13837817D02*
X13996967Y-13837817D01*
X14063634Y-13704484D02*
X14063634Y-13742579D01*
X14139825Y-13704484D02*
X14139825Y-13742579D01*
X14435063Y-13980674D02*
X14425539Y-13971150D01*
X14425539Y-13971150D02*
X14406491Y-13942579D01*
X14406491Y-13942579D02*
X14396968Y-13923531D01*
X14396968Y-13923531D02*
X14387444Y-13894960D01*
X14387444Y-13894960D02*
X14377920Y-13847341D01*
X14377920Y-13847341D02*
X14377920Y-13809246D01*
X14377920Y-13809246D02*
X14387444Y-13761627D01*
X14387444Y-13761627D02*
X14396968Y-13733055D01*
X14396968Y-13733055D02*
X14406491Y-13714008D01*
X14406491Y-13714008D02*
X14425539Y-13685436D01*
X14425539Y-13685436D02*
X14435063Y-13675912D01*
X14539825Y-13790198D02*
X14520777Y-13780674D01*
X14520777Y-13780674D02*
X14511253Y-13771150D01*
X14511253Y-13771150D02*
X14501729Y-13752103D01*
X14501729Y-13752103D02*
X14501729Y-13742579D01*
X14501729Y-13742579D02*
X14511253Y-13723531D01*
X14511253Y-13723531D02*
X14520777Y-13714008D01*
X14520777Y-13714008D02*
X14539825Y-13704484D01*
X14539825Y-13704484D02*
X14577920Y-13704484D01*
X14577920Y-13704484D02*
X14596968Y-13714008D01*
X14596968Y-13714008D02*
X14606491Y-13723531D01*
X14606491Y-13723531D02*
X14616015Y-13742579D01*
X14616015Y-13742579D02*
X14616015Y-13752103D01*
X14616015Y-13752103D02*
X14606491Y-13771150D01*
X14606491Y-13771150D02*
X14596968Y-13780674D01*
X14596968Y-13780674D02*
X14577920Y-13790198D01*
X14577920Y-13790198D02*
X14539825Y-13790198D01*
X14539825Y-13790198D02*
X14520777Y-13799722D01*
X14520777Y-13799722D02*
X14511253Y-13809246D01*
X14511253Y-13809246D02*
X14501729Y-13828293D01*
X14501729Y-13828293D02*
X14501729Y-13866388D01*
X14501729Y-13866388D02*
X14511253Y-13885436D01*
X14511253Y-13885436D02*
X14520777Y-13894960D01*
X14520777Y-13894960D02*
X14539825Y-13904484D01*
X14539825Y-13904484D02*
X14577920Y-13904484D01*
X14577920Y-13904484D02*
X14596968Y-13894960D01*
X14596968Y-13894960D02*
X14606491Y-13885436D01*
X14606491Y-13885436D02*
X14616015Y-13866388D01*
X14616015Y-13866388D02*
X14616015Y-13828293D01*
X14616015Y-13828293D02*
X14606491Y-13809246D01*
X14606491Y-13809246D02*
X14596968Y-13799722D01*
X14596968Y-13799722D02*
X14577920Y-13790198D01*
X14854110Y-13904484D02*
X14854110Y-13704484D01*
X14939825Y-13904484D02*
X14939825Y-13799722D01*
X14939825Y-13799722D02*
X14930301Y-13780674D01*
X14930301Y-13780674D02*
X14911253Y-13771150D01*
X14911253Y-13771150D02*
X14882682Y-13771150D01*
X14882682Y-13771150D02*
X14863634Y-13780674D01*
X14863634Y-13780674D02*
X14854110Y-13790198D01*
X15063634Y-13904484D02*
X15044587Y-13894960D01*
X15044587Y-13894960D02*
X15035063Y-13885436D01*
X15035063Y-13885436D02*
X15025539Y-13866388D01*
X15025539Y-13866388D02*
X15025539Y-13809246D01*
X15025539Y-13809246D02*
X15035063Y-13790198D01*
X15035063Y-13790198D02*
X15044587Y-13780674D01*
X15044587Y-13780674D02*
X15063634Y-13771150D01*
X15063634Y-13771150D02*
X15092206Y-13771150D01*
X15092206Y-13771150D02*
X15111253Y-13780674D01*
X15111253Y-13780674D02*
X15120777Y-13790198D01*
X15120777Y-13790198D02*
X15130301Y-13809246D01*
X15130301Y-13809246D02*
X15130301Y-13866388D01*
X15130301Y-13866388D02*
X15120777Y-13885436D01*
X15120777Y-13885436D02*
X15111253Y-13894960D01*
X15111253Y-13894960D02*
X15092206Y-13904484D01*
X15092206Y-13904484D02*
X15063634Y-13904484D01*
X15244587Y-13904484D02*
X15225539Y-13894960D01*
X15225539Y-13894960D02*
X15216015Y-13875912D01*
X15216015Y-13875912D02*
X15216015Y-13704484D01*
X15396968Y-13894960D02*
X15377920Y-13904484D01*
X15377920Y-13904484D02*
X15339825Y-13904484D01*
X15339825Y-13904484D02*
X15320777Y-13894960D01*
X15320777Y-13894960D02*
X15311253Y-13875912D01*
X15311253Y-13875912D02*
X15311253Y-13799722D01*
X15311253Y-13799722D02*
X15320777Y-13780674D01*
X15320777Y-13780674D02*
X15339825Y-13771150D01*
X15339825Y-13771150D02*
X15377920Y-13771150D01*
X15377920Y-13771150D02*
X15396968Y-13780674D01*
X15396968Y-13780674D02*
X15406491Y-13799722D01*
X15406491Y-13799722D02*
X15406491Y-13818769D01*
X15406491Y-13818769D02*
X15311253Y-13837817D01*
X15482682Y-13894960D02*
X15501730Y-13904484D01*
X15501730Y-13904484D02*
X15539825Y-13904484D01*
X15539825Y-13904484D02*
X15558872Y-13894960D01*
X15558872Y-13894960D02*
X15568396Y-13875912D01*
X15568396Y-13875912D02*
X15568396Y-13866388D01*
X15568396Y-13866388D02*
X15558872Y-13847341D01*
X15558872Y-13847341D02*
X15539825Y-13837817D01*
X15539825Y-13837817D02*
X15511253Y-13837817D01*
X15511253Y-13837817D02*
X15492206Y-13828293D01*
X15492206Y-13828293D02*
X15482682Y-13809246D01*
X15482682Y-13809246D02*
X15482682Y-13799722D01*
X15482682Y-13799722D02*
X15492206Y-13780674D01*
X15492206Y-13780674D02*
X15511253Y-13771150D01*
X15511253Y-13771150D02*
X15539825Y-13771150D01*
X15539825Y-13771150D02*
X15558872Y-13780674D01*
X15635063Y-13980674D02*
X15644587Y-13971150D01*
X15644587Y-13971150D02*
X15663634Y-13942579D01*
X15663634Y-13942579D02*
X15673158Y-13923531D01*
X15673158Y-13923531D02*
X15682682Y-13894960D01*
X15682682Y-13894960D02*
X15692206Y-13847341D01*
X15692206Y-13847341D02*
X15692206Y-13809246D01*
X15692206Y-13809246D02*
X15682682Y-13761627D01*
X15682682Y-13761627D02*
X15673158Y-13733055D01*
X15673158Y-13733055D02*
X15663634Y-13714008D01*
X15663634Y-13714008D02*
X15644587Y-13685436D01*
X15644587Y-13685436D02*
X15635063Y-13675912D01*
X15996968Y-13980674D02*
X15987444Y-13971150D01*
X15987444Y-13971150D02*
X15968396Y-13942579D01*
X15968396Y-13942579D02*
X15958872Y-13923531D01*
X15958872Y-13923531D02*
X15949349Y-13894960D01*
X15949349Y-13894960D02*
X15939825Y-13847341D01*
X15939825Y-13847341D02*
X15939825Y-13809246D01*
X15939825Y-13809246D02*
X15949349Y-13761627D01*
X15949349Y-13761627D02*
X15958872Y-13733055D01*
X15958872Y-13733055D02*
X15968396Y-13714008D01*
X15968396Y-13714008D02*
X15987444Y-13685436D01*
X15987444Y-13685436D02*
X15996968Y-13675912D01*
X16073158Y-13771150D02*
X16073158Y-13904484D01*
X16073158Y-13790198D02*
X16082682Y-13780674D01*
X16082682Y-13780674D02*
X16101730Y-13771150D01*
X16101730Y-13771150D02*
X16130301Y-13771150D01*
X16130301Y-13771150D02*
X16149349Y-13780674D01*
X16149349Y-13780674D02*
X16158872Y-13799722D01*
X16158872Y-13799722D02*
X16158872Y-13904484D01*
X16282682Y-13904484D02*
X16263634Y-13894960D01*
X16263634Y-13894960D02*
X16254111Y-13885436D01*
X16254111Y-13885436D02*
X16244587Y-13866388D01*
X16244587Y-13866388D02*
X16244587Y-13809246D01*
X16244587Y-13809246D02*
X16254111Y-13790198D01*
X16254111Y-13790198D02*
X16263634Y-13780674D01*
X16263634Y-13780674D02*
X16282682Y-13771150D01*
X16282682Y-13771150D02*
X16311253Y-13771150D01*
X16311253Y-13771150D02*
X16330301Y-13780674D01*
X16330301Y-13780674D02*
X16339825Y-13790198D01*
X16339825Y-13790198D02*
X16349349Y-13809246D01*
X16349349Y-13809246D02*
X16349349Y-13866388D01*
X16349349Y-13866388D02*
X16339825Y-13885436D01*
X16339825Y-13885436D02*
X16330301Y-13894960D01*
X16330301Y-13894960D02*
X16311253Y-13904484D01*
X16311253Y-13904484D02*
X16282682Y-13904484D01*
X16406492Y-13771150D02*
X16482682Y-13771150D01*
X16435063Y-13704484D02*
X16435063Y-13875912D01*
X16435063Y-13875912D02*
X16444587Y-13894960D01*
X16444587Y-13894960D02*
X16463634Y-13904484D01*
X16463634Y-13904484D02*
X16482682Y-13904484D01*
X16701730Y-13771150D02*
X16701730Y-13971150D01*
X16701730Y-13780674D02*
X16720777Y-13771150D01*
X16720777Y-13771150D02*
X16758873Y-13771150D01*
X16758873Y-13771150D02*
X16777920Y-13780674D01*
X16777920Y-13780674D02*
X16787444Y-13790198D01*
X16787444Y-13790198D02*
X16796968Y-13809246D01*
X16796968Y-13809246D02*
X16796968Y-13866388D01*
X16796968Y-13866388D02*
X16787444Y-13885436D01*
X16787444Y-13885436D02*
X16777920Y-13894960D01*
X16777920Y-13894960D02*
X16758873Y-13904484D01*
X16758873Y-13904484D02*
X16720777Y-13904484D01*
X16720777Y-13904484D02*
X16701730Y-13894960D01*
X16911254Y-13904484D02*
X16892206Y-13894960D01*
X16892206Y-13894960D02*
X16882682Y-13875912D01*
X16882682Y-13875912D02*
X16882682Y-13704484D01*
X17073158Y-13904484D02*
X17073158Y-13799722D01*
X17073158Y-13799722D02*
X17063635Y-13780674D01*
X17063635Y-13780674D02*
X17044587Y-13771150D01*
X17044587Y-13771150D02*
X17006492Y-13771150D01*
X17006492Y-13771150D02*
X16987444Y-13780674D01*
X17073158Y-13894960D02*
X17054111Y-13904484D01*
X17054111Y-13904484D02*
X17006492Y-13904484D01*
X17006492Y-13904484D02*
X16987444Y-13894960D01*
X16987444Y-13894960D02*
X16977920Y-13875912D01*
X16977920Y-13875912D02*
X16977920Y-13856865D01*
X16977920Y-13856865D02*
X16987444Y-13837817D01*
X16987444Y-13837817D02*
X17006492Y-13828293D01*
X17006492Y-13828293D02*
X17054111Y-13828293D01*
X17054111Y-13828293D02*
X17073158Y-13818769D01*
X17139825Y-13771150D02*
X17216015Y-13771150D01*
X17168396Y-13704484D02*
X17168396Y-13875912D01*
X17168396Y-13875912D02*
X17177920Y-13894960D01*
X17177920Y-13894960D02*
X17196968Y-13904484D01*
X17196968Y-13904484D02*
X17216015Y-13904484D01*
X17358873Y-13894960D02*
X17339825Y-13904484D01*
X17339825Y-13904484D02*
X17301730Y-13904484D01*
X17301730Y-13904484D02*
X17282682Y-13894960D01*
X17282682Y-13894960D02*
X17273158Y-13875912D01*
X17273158Y-13875912D02*
X17273158Y-13799722D01*
X17273158Y-13799722D02*
X17282682Y-13780674D01*
X17282682Y-13780674D02*
X17301730Y-13771150D01*
X17301730Y-13771150D02*
X17339825Y-13771150D01*
X17339825Y-13771150D02*
X17358873Y-13780674D01*
X17358873Y-13780674D02*
X17368396Y-13799722D01*
X17368396Y-13799722D02*
X17368396Y-13818769D01*
X17368396Y-13818769D02*
X17273158Y-13837817D01*
X17539825Y-13904484D02*
X17539825Y-13704484D01*
X17539825Y-13894960D02*
X17520777Y-13904484D01*
X17520777Y-13904484D02*
X17482682Y-13904484D01*
X17482682Y-13904484D02*
X17463635Y-13894960D01*
X17463635Y-13894960D02*
X17454111Y-13885436D01*
X17454111Y-13885436D02*
X17444587Y-13866388D01*
X17444587Y-13866388D02*
X17444587Y-13809246D01*
X17444587Y-13809246D02*
X17454111Y-13790198D01*
X17454111Y-13790198D02*
X17463635Y-13780674D01*
X17463635Y-13780674D02*
X17482682Y-13771150D01*
X17482682Y-13771150D02*
X17520777Y-13771150D01*
X17520777Y-13771150D02*
X17539825Y-13780674D01*
X17616016Y-13980674D02*
X17625539Y-13971150D01*
X17625539Y-13971150D02*
X17644587Y-13942579D01*
X17644587Y-13942579D02*
X17654111Y-13923531D01*
X17654111Y-13923531D02*
X17663635Y-13894960D01*
X17663635Y-13894960D02*
X17673158Y-13847341D01*
X17673158Y-13847341D02*
X17673158Y-13809246D01*
X17673158Y-13809246D02*
X17663635Y-13761627D01*
X17663635Y-13761627D02*
X17654111Y-13733055D01*
X17654111Y-13733055D02*
X17644587Y-13714008D01*
X17644587Y-13714008D02*
X17625539Y-13685436D01*
X17625539Y-13685436D02*
X17616016Y-13675912D01*
M02*
