G04 #@! TF.GenerationSoftware,KiCad,Pcbnew,8.0.2*
G04 #@! TF.CreationDate,2024-05-30T21:41:25+08:00*
G04 #@! TF.ProjectId,pppc_usb_hub,70707063-5f75-4736-925f-6875622e6b69,rev?*
G04 #@! TF.SameCoordinates,Original*
G04 #@! TF.FileFunction,Copper,L3,Inr*
G04 #@! TF.FilePolarity,Positive*
%FSLAX46Y46*%
G04 Gerber Fmt 4.6, Leading zero omitted, Abs format (unit mm)*
G04 Created by KiCad (PCBNEW 8.0.2) date 2024-05-30 21:41:25*
%MOMM*%
%LPD*%
G01*
G04 APERTURE LIST*
G04 #@! TA.AperFunction,ComponentPad*
%ADD10O,1.100000X2.000000*%
G04 #@! TD*
G04 #@! TA.AperFunction,ComponentPad*
%ADD11O,1.200000X1.800000*%
G04 #@! TD*
G04 #@! TA.AperFunction,ComponentPad*
%ADD12R,1.600000X1.600000*%
G04 #@! TD*
G04 #@! TA.AperFunction,ComponentPad*
%ADD13O,1.600000X1.600000*%
G04 #@! TD*
G04 #@! TA.AperFunction,ComponentPad*
%ADD14O,2.800000X1.300000*%
G04 #@! TD*
G04 #@! TA.AperFunction,ComponentPad*
%ADD15R,1.700000X1.700000*%
G04 #@! TD*
G04 #@! TA.AperFunction,ComponentPad*
%ADD16O,1.700000X1.700000*%
G04 #@! TD*
G04 #@! TA.AperFunction,ComponentPad*
%ADD17C,2.500000*%
G04 #@! TD*
G04 #@! TA.AperFunction,ComponentPad*
%ADD18C,3.000000*%
G04 #@! TD*
G04 #@! TA.AperFunction,ComponentPad*
%ADD19O,1.524000X1.524000*%
G04 #@! TD*
G04 #@! TA.AperFunction,ComponentPad*
%ADD20O,3.200000X2.000000*%
G04 #@! TD*
G04 #@! TA.AperFunction,ComponentPad*
%ADD21O,2.400000X2.400000*%
G04 #@! TD*
G04 #@! TA.AperFunction,ViaPad*
%ADD22C,0.600000*%
G04 #@! TD*
G04 #@! TA.AperFunction,Conductor*
%ADD23C,0.700000*%
G04 #@! TD*
G04 #@! TA.AperFunction,Conductor*
%ADD24C,0.200000*%
G04 #@! TD*
G04 APERTURE END LIST*
D10*
X124424000Y-86813600D03*
D11*
X124424000Y-82613500D03*
D10*
X115774000Y-86813600D03*
D11*
X115774000Y-82613500D03*
D12*
X115774000Y-111099900D03*
D13*
X115774000Y-113600000D03*
X115774000Y-115600000D03*
X115774000Y-118099900D03*
D14*
X114273800Y-108150000D03*
X114273800Y-121049800D03*
D15*
X163800000Y-109480000D03*
D16*
X163800000Y-112020000D03*
X163800000Y-114560000D03*
X163800000Y-117100000D03*
X163800000Y-119640000D03*
D17*
X183770000Y-102150000D03*
D18*
X183820000Y-114400000D03*
X171770000Y-114350000D03*
D17*
X171770000Y-102150000D03*
D18*
X177820000Y-100200000D03*
D19*
X135774000Y-111099800D03*
X135774000Y-113599100D03*
X135774000Y-115600700D03*
X135774000Y-118100000D03*
D20*
X133273800Y-108029900D03*
X133273800Y-121169900D03*
D21*
X172740000Y-123800000D03*
X177820000Y-123800000D03*
X182900000Y-123800000D03*
D19*
X150774000Y-111099800D03*
X150774000Y-113599100D03*
X150774000Y-115600700D03*
X150774000Y-118100000D03*
D20*
X148273800Y-108029900D03*
X148273800Y-121169900D03*
D10*
X144424000Y-86813600D03*
D11*
X144424000Y-82613500D03*
D10*
X135774000Y-86813600D03*
D11*
X135774000Y-82613500D03*
D16*
X153500000Y-104200000D03*
X150960000Y-104200000D03*
D15*
X148420000Y-104200000D03*
D22*
X156450000Y-96050000D03*
X165150000Y-92100000D03*
X161200000Y-100100000D03*
X167600000Y-106450000D03*
X165250000Y-104400000D03*
X160550000Y-94200000D03*
X155150000Y-125550000D03*
X157300000Y-126450000D03*
X159200000Y-123600000D03*
X158700000Y-118150000D03*
X161150000Y-117300000D03*
X160950000Y-113500000D03*
X160650000Y-108150000D03*
X157700000Y-104300000D03*
X142750000Y-105600000D03*
X132950000Y-110800000D03*
X148400000Y-111550000D03*
X147700000Y-116900000D03*
X143950000Y-119200000D03*
X143350000Y-117350000D03*
X141400000Y-126850000D03*
X143200000Y-124350000D03*
X139300000Y-125500000D03*
X139100000Y-127500000D03*
X121750000Y-118250000D03*
X127550000Y-126150000D03*
X122950000Y-127500000D03*
X125250000Y-126350000D03*
X128300000Y-123800000D03*
X129000000Y-118050000D03*
X128750000Y-113500000D03*
X129250000Y-107850000D03*
X126050000Y-105550000D03*
X119350000Y-108750000D03*
X117500000Y-109100000D03*
X117650000Y-114450000D03*
X112500000Y-116750000D03*
X110500000Y-118650000D03*
X110400000Y-115500000D03*
X113300000Y-112200000D03*
X113100000Y-110550000D03*
X111250000Y-103800000D03*
X111250000Y-99450000D03*
X158000000Y-97350000D03*
X143800000Y-94600000D03*
X141800000Y-94000000D03*
X133900000Y-91900000D03*
X129050000Y-92050000D03*
X126450000Y-93100000D03*
X120850000Y-94100000D03*
X124350000Y-92350000D03*
X121300000Y-92550000D03*
X118450000Y-93050000D03*
X110850000Y-95400000D03*
X114450000Y-84250000D03*
X110450000Y-87250000D03*
X134500000Y-85500000D03*
X134000000Y-82350000D03*
X122100000Y-82200000D03*
X117800000Y-82300000D03*
X117050000Y-84600000D03*
X142000000Y-83200000D03*
X138250000Y-82600000D03*
X151650000Y-84000000D03*
X156550000Y-82600000D03*
X147450000Y-82550000D03*
X166200000Y-89500000D03*
X157400000Y-89450000D03*
X158500000Y-83100000D03*
X166350000Y-83350000D03*
X158750000Y-95350000D03*
X167150000Y-112600000D03*
X167200000Y-116500000D03*
X167400000Y-119650000D03*
X167050000Y-122400000D03*
X164150000Y-122450000D03*
X161950000Y-123350000D03*
X161200000Y-125500000D03*
X161850000Y-127800000D03*
X114800000Y-127900000D03*
X114850000Y-123300000D03*
X112800000Y-122250000D03*
X110350000Y-122200000D03*
X119500000Y-104650000D03*
X136950000Y-108850000D03*
X137800000Y-109750000D03*
X154300000Y-100850000D03*
X116350000Y-89850000D03*
X118050000Y-89850000D03*
X112950000Y-82400000D03*
X117100000Y-95900000D03*
X131600000Y-93450000D03*
X175100000Y-85450000D03*
X183770000Y-96470000D03*
X147500000Y-91100000D03*
X145625000Y-91100000D03*
X143750000Y-91100000D03*
X141850000Y-103700000D03*
X146400000Y-99350000D03*
X146400000Y-98500000D03*
X156400000Y-103100000D03*
X136300000Y-88400000D03*
X143600000Y-88450000D03*
X128850000Y-127750000D03*
X136400000Y-125850000D03*
X127800000Y-102850000D03*
X154050000Y-88300000D03*
X121050000Y-125550000D03*
X142800000Y-121100000D03*
X156400000Y-111200000D03*
X124800000Y-95900000D03*
X157750000Y-121150000D03*
X116350000Y-88250000D03*
X141500000Y-111100000D03*
X117400000Y-97900000D03*
X123800000Y-95900000D03*
X134300000Y-105400000D03*
X132000000Y-123950000D03*
X155350000Y-94600000D03*
X118050000Y-94000000D03*
X122500000Y-106800000D03*
X123450000Y-88350000D03*
X113600000Y-104750000D03*
X121750000Y-121100000D03*
X168100000Y-94150000D03*
X147050000Y-123900000D03*
X113600000Y-103000000D03*
X118100000Y-121050000D03*
X175300000Y-88500000D03*
X115550000Y-95950000D03*
X123400000Y-111200000D03*
X128600000Y-98800000D03*
X151700000Y-125850000D03*
X113300000Y-101100000D03*
X154000000Y-107299900D03*
X121000000Y-108599900D03*
X121000000Y-107499900D03*
X154000000Y-108399900D03*
X129300000Y-98100000D03*
X116800000Y-121000000D03*
X135100000Y-99800000D03*
X131800000Y-98800000D03*
X130500000Y-125200000D03*
X135800000Y-107600000D03*
X143800000Y-108650000D03*
X131350000Y-98000000D03*
X142300000Y-100000000D03*
X146200000Y-125800000D03*
X139500000Y-99300000D03*
X122800000Y-98500000D03*
X131650000Y-99700000D03*
X134000000Y-87300000D03*
X134000000Y-88200000D03*
X117100000Y-93000000D03*
X126200000Y-87100000D03*
X117100000Y-92200000D03*
X122500000Y-88450000D03*
X122500000Y-89300000D03*
X119199000Y-88800000D03*
X119199000Y-84400000D03*
X119999000Y-84400000D03*
X119999000Y-88800000D03*
X183820000Y-118519999D03*
X183820000Y-117059999D03*
X183820000Y-119979999D03*
X183820000Y-121439999D03*
X177800000Y-111586662D03*
X177800000Y-115266660D03*
X177800000Y-107906664D03*
X177800000Y-112813328D03*
X177800000Y-118946658D03*
X177800000Y-117719992D03*
X177800000Y-106679998D03*
X177800000Y-120173324D03*
X177800000Y-121400000D03*
X177800000Y-116493326D03*
X177800000Y-103000000D03*
X177800000Y-110359996D03*
X177800000Y-105453332D03*
X177800000Y-114039994D03*
X177800000Y-104226666D03*
X177800000Y-109133330D03*
X171770000Y-121429999D03*
X171770000Y-119959999D03*
X171770000Y-117019999D03*
X171770000Y-118489999D03*
X131700000Y-96200000D03*
X131700000Y-97100000D03*
X128600000Y-101200000D03*
X128600000Y-102100000D03*
X173400000Y-90600000D03*
X129650000Y-96250000D03*
X125200000Y-108800000D03*
X137400000Y-106400000D03*
X129400000Y-99800000D03*
X130600000Y-95095500D03*
X142100000Y-107100000D03*
X136000000Y-105400000D03*
X138200000Y-95400000D03*
X139000000Y-106400000D03*
X140600000Y-106400000D03*
X141200000Y-100300000D03*
X128500000Y-96200000D03*
X158200000Y-108050000D03*
X133100000Y-102800000D03*
D23*
X163800000Y-107600000D02*
X163800000Y-109480000D01*
X162400000Y-106200000D02*
X163800000Y-107600000D01*
X153300100Y-106200000D02*
X162400000Y-106200000D01*
X153100100Y-106400000D02*
X153300100Y-106200000D01*
X152900100Y-106200000D02*
X153100100Y-106400000D01*
X146750000Y-106200000D02*
X152900100Y-106200000D01*
X145475000Y-104925000D02*
X146750000Y-106200000D01*
X145450000Y-104950000D02*
X145475000Y-104925000D01*
X145450000Y-108650000D02*
X145450000Y-104950000D01*
X144350000Y-109750000D02*
X145450000Y-108650000D01*
X137800000Y-109750000D02*
X144350000Y-109750000D01*
X144250000Y-103700000D02*
X145475000Y-104925000D01*
X136950000Y-108850000D02*
X136950000Y-108900000D01*
X136950000Y-108900000D02*
X137800000Y-109750000D01*
D24*
X165430000Y-112020000D02*
X163800000Y-112020000D01*
X166750000Y-110700000D02*
X165430000Y-112020000D01*
X166750000Y-107500000D02*
X166750000Y-110700000D01*
X160100000Y-100850000D02*
X166750000Y-107500000D01*
X154300000Y-100850000D02*
X160100000Y-100850000D01*
D23*
X114948807Y-88948807D02*
X114948807Y-90761473D01*
X112950000Y-86950000D02*
X114948807Y-88948807D01*
X114951727Y-90784116D02*
X114951727Y-93751727D01*
X112950000Y-82400000D02*
X112950000Y-86950000D01*
X114948807Y-90761473D02*
X114951727Y-90784116D01*
X114951727Y-93751727D02*
X117100000Y-95900000D01*
X117100000Y-95900000D02*
X122900000Y-101700000D01*
X122900000Y-101700000D02*
X122900000Y-103700000D01*
X121000000Y-105600000D02*
X121000000Y-108599900D01*
X122900000Y-103700000D02*
X121000000Y-105600000D01*
X141850000Y-103700000D02*
X122900000Y-103700000D01*
X183750000Y-96450000D02*
X183770000Y-96470000D01*
X183750000Y-91050000D02*
X183750000Y-96450000D01*
X172050000Y-86700000D02*
X179400000Y-86700000D01*
X179400000Y-86700000D02*
X183750000Y-91050000D01*
X167650000Y-91100000D02*
X172050000Y-86700000D01*
X147500000Y-91100000D02*
X167650000Y-91100000D01*
X154000000Y-108399900D02*
X154000000Y-107299900D01*
X153100100Y-106400000D02*
X154000000Y-107299900D01*
X149350000Y-92950000D02*
X149350000Y-98600000D01*
X144250000Y-103700000D02*
X141850000Y-103700000D01*
X147500000Y-91100000D02*
X149350000Y-92950000D01*
X149350000Y-98600000D02*
X144250000Y-103700000D01*
X143750000Y-91100000D02*
X147500000Y-91100000D01*
D24*
X132800000Y-100450000D02*
X134550000Y-98700000D01*
X134550000Y-98700000D02*
X138900000Y-98700000D01*
X124750000Y-100450000D02*
X132800000Y-100450000D01*
X138900000Y-98700000D02*
X139500000Y-99300000D01*
X122800000Y-98500000D02*
X124750000Y-100450000D01*
X139673000Y-99473000D02*
X139500000Y-99300000D01*
X146277000Y-99473000D02*
X139673000Y-99473000D01*
X146400000Y-99350000D02*
X146277000Y-99473000D01*
X146400000Y-98500000D02*
X146400000Y-99350000D01*
D23*
X117100000Y-93000000D02*
X117100000Y-91800000D01*
X124500000Y-90900000D02*
X126200000Y-89200000D01*
X126200000Y-89200000D02*
X126200000Y-87100000D01*
X118000000Y-90900000D02*
X124500000Y-90900000D01*
X133100000Y-86400000D02*
X134000000Y-87300000D01*
X126900000Y-86400000D02*
X133100000Y-86400000D01*
X117100000Y-91800000D02*
X118000000Y-90900000D01*
X126200000Y-87100000D02*
X126900000Y-86400000D01*
G04 #@! TA.AperFunction,Conductor*
G36*
X179343039Y-98519685D02*
G01*
X179388794Y-98572489D01*
X179400000Y-98624000D01*
X179400000Y-124976000D01*
X179380315Y-125043039D01*
X179327511Y-125088794D01*
X179276000Y-125100000D01*
X176351362Y-125100000D01*
X176284323Y-125080315D01*
X176263681Y-125063681D01*
X176236319Y-125036319D01*
X176202834Y-124974996D01*
X176200000Y-124948638D01*
X176200000Y-98624000D01*
X176219685Y-98556961D01*
X176272489Y-98511206D01*
X176324000Y-98500000D01*
X179276000Y-98500000D01*
X179343039Y-98519685D01*
G37*
G04 #@! TD.AperFunction*
G04 #@! TA.AperFunction,Conductor*
G36*
X150443039Y-85619685D02*
G01*
X150488794Y-85672489D01*
X150500000Y-85724000D01*
X150500000Y-87948638D01*
X150480315Y-88015677D01*
X150463681Y-88036319D01*
X149700000Y-88799999D01*
X149700000Y-92400000D01*
X149963681Y-92663681D01*
X149997166Y-92725004D01*
X150000000Y-92751362D01*
X150000000Y-95476000D01*
X149980315Y-95543039D01*
X149927511Y-95588794D01*
X149876000Y-95600000D01*
X148474000Y-95600000D01*
X148406961Y-95580315D01*
X148361206Y-95527511D01*
X148350000Y-95476000D01*
X148350000Y-93600000D01*
X146850000Y-92100000D01*
X141901362Y-92100000D01*
X141834323Y-92080315D01*
X141813681Y-92063681D01*
X141586319Y-91836319D01*
X141552834Y-91774996D01*
X141550000Y-91748638D01*
X141550000Y-90424000D01*
X141569685Y-90356961D01*
X141622489Y-90311206D01*
X141674000Y-90300000D01*
X145400000Y-90300000D01*
X146550000Y-89150000D01*
X146550000Y-85851362D01*
X146569685Y-85784323D01*
X146586319Y-85763681D01*
X146713681Y-85636319D01*
X146775004Y-85602834D01*
X146801362Y-85600000D01*
X150376000Y-85600000D01*
X150443039Y-85619685D01*
G37*
G04 #@! TD.AperFunction*
G04 #@! TA.AperFunction,Conductor*
G36*
X168619334Y-90908467D02*
G01*
X168675267Y-90950339D01*
X168699684Y-91015803D01*
X168700000Y-91024649D01*
X168700000Y-128365500D01*
X168680315Y-128432539D01*
X168627511Y-128478294D01*
X168576000Y-128489500D01*
X167186195Y-128489500D01*
X167119156Y-128469815D01*
X167073401Y-128417011D01*
X167063457Y-128347853D01*
X167092482Y-128284297D01*
X167106489Y-128270511D01*
X167206035Y-128186980D01*
X167293817Y-128113323D01*
X167525678Y-127867565D01*
X167727440Y-127596552D01*
X167896375Y-127303948D01*
X168030198Y-126993711D01*
X168127100Y-126670035D01*
X168185771Y-126337298D01*
X168205416Y-126000000D01*
X168185771Y-125662702D01*
X168182557Y-125644477D01*
X168127103Y-125329982D01*
X168127102Y-125329981D01*
X168127100Y-125329965D01*
X168030198Y-125006289D01*
X167896375Y-124696052D01*
X167727440Y-124403448D01*
X167727439Y-124403446D01*
X167525681Y-124132438D01*
X167525676Y-124132432D01*
X167413564Y-124013601D01*
X167293817Y-123886677D01*
X167293810Y-123886671D01*
X167293808Y-123886669D01*
X167034998Y-123669500D01*
X166893851Y-123576667D01*
X166752708Y-123483836D01*
X166747593Y-123481267D01*
X166450783Y-123332203D01*
X166450777Y-123332200D01*
X166133284Y-123216642D01*
X166133281Y-123216641D01*
X165906639Y-123162926D01*
X165804520Y-123138724D01*
X165468935Y-123099500D01*
X165131065Y-123099500D01*
X164795480Y-123138724D01*
X164466718Y-123216641D01*
X164466715Y-123216642D01*
X164149222Y-123332200D01*
X164149216Y-123332203D01*
X163847295Y-123483834D01*
X163565001Y-123669500D01*
X163306191Y-123886669D01*
X163306181Y-123886679D01*
X163074323Y-124132432D01*
X163074318Y-124132438D01*
X162872560Y-124403446D01*
X162703627Y-124696047D01*
X162703621Y-124696060D01*
X162569801Y-125006289D01*
X162472899Y-125329968D01*
X162472896Y-125329982D01*
X162414230Y-125662690D01*
X162414229Y-125662701D01*
X162394584Y-125999996D01*
X162394584Y-126000003D01*
X162414229Y-126337298D01*
X162414230Y-126337309D01*
X162472896Y-126670017D01*
X162472899Y-126670031D01*
X162569801Y-126993710D01*
X162703621Y-127303939D01*
X162703627Y-127303952D01*
X162872560Y-127596553D01*
X163074318Y-127867561D01*
X163074323Y-127867567D01*
X163194069Y-127994489D01*
X163306183Y-128113323D01*
X163306189Y-128113328D01*
X163306191Y-128113330D01*
X163493511Y-128270511D01*
X163532213Y-128328682D01*
X163533321Y-128398543D01*
X163496484Y-128457913D01*
X163433397Y-128487942D01*
X163413805Y-128489500D01*
X113586195Y-128489500D01*
X113519156Y-128469815D01*
X113473401Y-128417011D01*
X113463457Y-128347853D01*
X113492482Y-128284297D01*
X113506489Y-128270511D01*
X113606035Y-128186980D01*
X113693817Y-128113323D01*
X113925678Y-127867565D01*
X114127440Y-127596552D01*
X114296375Y-127303948D01*
X114356712Y-127164071D01*
X115449499Y-127164071D01*
X115474497Y-127289738D01*
X115474499Y-127289744D01*
X115523533Y-127408124D01*
X115523538Y-127408133D01*
X115594723Y-127514668D01*
X115594726Y-127514672D01*
X115685327Y-127605273D01*
X115685331Y-127605276D01*
X115791866Y-127676461D01*
X115791872Y-127676464D01*
X115791873Y-127676465D01*
X115910256Y-127725501D01*
X115910260Y-127725501D01*
X115910261Y-127725502D01*
X116035928Y-127750500D01*
X116035931Y-127750500D01*
X116164071Y-127750500D01*
X116248615Y-127733682D01*
X116289744Y-127725501D01*
X116408127Y-127676465D01*
X116514669Y-127605276D01*
X116605276Y-127514669D01*
X116676465Y-127408127D01*
X116691263Y-127372402D01*
X116735101Y-127318000D01*
X116801395Y-127295934D01*
X116869094Y-127313212D01*
X116913209Y-127357853D01*
X116959491Y-127438015D01*
X117061985Y-127540509D01*
X117061986Y-127540510D01*
X117061988Y-127540511D01*
X117187511Y-127612982D01*
X117187512Y-127612982D01*
X117187515Y-127612984D01*
X117327525Y-127650500D01*
X117327528Y-127650500D01*
X117472472Y-127650500D01*
X117472475Y-127650500D01*
X117612485Y-127612984D01*
X117738015Y-127540509D01*
X117840509Y-127438015D01*
X117912984Y-127312485D01*
X117950500Y-127172475D01*
X117950500Y-127027525D01*
X118549500Y-127027525D01*
X118549500Y-127172475D01*
X118584730Y-127303952D01*
X118587017Y-127312488D01*
X118659488Y-127438011D01*
X118659490Y-127438013D01*
X118659491Y-127438015D01*
X118761985Y-127540509D01*
X118761986Y-127540510D01*
X118761988Y-127540511D01*
X118887511Y-127612982D01*
X118887512Y-127612982D01*
X118887515Y-127612984D01*
X119027525Y-127650500D01*
X119027528Y-127650500D01*
X119172472Y-127650500D01*
X119172475Y-127650500D01*
X119312485Y-127612984D01*
X119438015Y-127540509D01*
X119540509Y-127438015D01*
X119586790Y-127357853D01*
X119637356Y-127309640D01*
X119705963Y-127296416D01*
X119770827Y-127322384D01*
X119808737Y-127372402D01*
X119823533Y-127408123D01*
X119823538Y-127408133D01*
X119894723Y-127514668D01*
X119894726Y-127514672D01*
X119985327Y-127605273D01*
X119985331Y-127605276D01*
X120091866Y-127676461D01*
X120091872Y-127676464D01*
X120091873Y-127676465D01*
X120210256Y-127725501D01*
X120210260Y-127725501D01*
X120210261Y-127725502D01*
X120335928Y-127750500D01*
X120335931Y-127750500D01*
X120464071Y-127750500D01*
X120548615Y-127733682D01*
X120589744Y-127725501D01*
X120708127Y-127676465D01*
X120814669Y-127605276D01*
X120905276Y-127514669D01*
X120976465Y-127408127D01*
X121025501Y-127289744D01*
X121048828Y-127172475D01*
X121050500Y-127164071D01*
X131023599Y-127164071D01*
X131048597Y-127289738D01*
X131048599Y-127289744D01*
X131097633Y-127408124D01*
X131097638Y-127408133D01*
X131168823Y-127514668D01*
X131168826Y-127514672D01*
X131259427Y-127605273D01*
X131259431Y-127605276D01*
X131365966Y-127676461D01*
X131365972Y-127676464D01*
X131365973Y-127676465D01*
X131484356Y-127725501D01*
X131484360Y-127725501D01*
X131484361Y-127725502D01*
X131610028Y-127750500D01*
X131610031Y-127750500D01*
X131738171Y-127750500D01*
X131822715Y-127733682D01*
X131863844Y-127725501D01*
X131982227Y-127676465D01*
X132088769Y-127605276D01*
X132179376Y-127514669D01*
X132250565Y-127408127D01*
X132265363Y-127372402D01*
X132309201Y-127318000D01*
X132375495Y-127295934D01*
X132443194Y-127313212D01*
X132487309Y-127357853D01*
X132533591Y-127438015D01*
X132636085Y-127540509D01*
X132636086Y-127540510D01*
X132636088Y-127540511D01*
X132761611Y-127612982D01*
X132761612Y-127612982D01*
X132761615Y-127612984D01*
X132901625Y-127650500D01*
X132901628Y-127650500D01*
X133046572Y-127650500D01*
X133046575Y-127650500D01*
X133186585Y-127612984D01*
X133312115Y-127540509D01*
X133414609Y-127438015D01*
X133487084Y-127312485D01*
X133524600Y-127172475D01*
X133524600Y-127027525D01*
X134123600Y-127027525D01*
X134123600Y-127172475D01*
X134158830Y-127303952D01*
X134161117Y-127312488D01*
X134233588Y-127438011D01*
X134233590Y-127438013D01*
X134233591Y-127438015D01*
X134336085Y-127540509D01*
X134336086Y-127540510D01*
X134336088Y-127540511D01*
X134461611Y-127612982D01*
X134461612Y-127612982D01*
X134461615Y-127612984D01*
X134601625Y-127650500D01*
X134601628Y-127650500D01*
X134746572Y-127650500D01*
X134746575Y-127650500D01*
X134886585Y-127612984D01*
X135012115Y-127540509D01*
X135114609Y-127438015D01*
X135160890Y-127357853D01*
X135211456Y-127309640D01*
X135280063Y-127296416D01*
X135344927Y-127322384D01*
X135382837Y-127372402D01*
X135397633Y-127408123D01*
X135397638Y-127408133D01*
X135468823Y-127514668D01*
X135468826Y-127514672D01*
X135559427Y-127605273D01*
X135559431Y-127605276D01*
X135665966Y-127676461D01*
X135665972Y-127676464D01*
X135665973Y-127676465D01*
X135784356Y-127725501D01*
X135784360Y-127725501D01*
X135784361Y-127725502D01*
X135910028Y-127750500D01*
X135910031Y-127750500D01*
X136038171Y-127750500D01*
X136122715Y-127733682D01*
X136163844Y-127725501D01*
X136282227Y-127676465D01*
X136388769Y-127605276D01*
X136479376Y-127514669D01*
X136550565Y-127408127D01*
X136599601Y-127289744D01*
X136622928Y-127172475D01*
X136624600Y-127164071D01*
X146023599Y-127164071D01*
X146048597Y-127289738D01*
X146048599Y-127289744D01*
X146097633Y-127408124D01*
X146097638Y-127408133D01*
X146168823Y-127514668D01*
X146168826Y-127514672D01*
X146259427Y-127605273D01*
X146259431Y-127605276D01*
X146365966Y-127676461D01*
X146365972Y-127676464D01*
X146365973Y-127676465D01*
X146484356Y-127725501D01*
X146484360Y-127725501D01*
X146484361Y-127725502D01*
X146610028Y-127750500D01*
X146610031Y-127750500D01*
X146738171Y-127750500D01*
X146822715Y-127733682D01*
X146863844Y-127725501D01*
X146982227Y-127676465D01*
X147088769Y-127605276D01*
X147179376Y-127514669D01*
X147250565Y-127408127D01*
X147265363Y-127372402D01*
X147309201Y-127318000D01*
X147375495Y-127295934D01*
X147443194Y-127313212D01*
X147487309Y-127357853D01*
X147533591Y-127438015D01*
X147636085Y-127540509D01*
X147636086Y-127540510D01*
X147636088Y-127540511D01*
X147761611Y-127612982D01*
X147761612Y-127612982D01*
X147761615Y-127612984D01*
X147901625Y-127650500D01*
X147901628Y-127650500D01*
X148046572Y-127650500D01*
X148046575Y-127650500D01*
X148186585Y-127612984D01*
X148312115Y-127540509D01*
X148414609Y-127438015D01*
X148487084Y-127312485D01*
X148524600Y-127172475D01*
X148524600Y-127027525D01*
X149123600Y-127027525D01*
X149123600Y-127172475D01*
X149158830Y-127303952D01*
X149161117Y-127312488D01*
X149233588Y-127438011D01*
X149233590Y-127438013D01*
X149233591Y-127438015D01*
X149336085Y-127540509D01*
X149336086Y-127540510D01*
X149336088Y-127540511D01*
X149461611Y-127612982D01*
X149461612Y-127612982D01*
X149461615Y-127612984D01*
X149601625Y-127650500D01*
X149601628Y-127650500D01*
X149746572Y-127650500D01*
X149746575Y-127650500D01*
X149886585Y-127612984D01*
X150012115Y-127540509D01*
X150114609Y-127438015D01*
X150160890Y-127357853D01*
X150211456Y-127309640D01*
X150280063Y-127296416D01*
X150344927Y-127322384D01*
X150382837Y-127372402D01*
X150397633Y-127408123D01*
X150397638Y-127408133D01*
X150468823Y-127514668D01*
X150468826Y-127514672D01*
X150559427Y-127605273D01*
X150559431Y-127605276D01*
X150665966Y-127676461D01*
X150665972Y-127676464D01*
X150665973Y-127676465D01*
X150784356Y-127725501D01*
X150784360Y-127725501D01*
X150784361Y-127725502D01*
X150910028Y-127750500D01*
X150910031Y-127750500D01*
X151038171Y-127750500D01*
X151122715Y-127733682D01*
X151163844Y-127725501D01*
X151282227Y-127676465D01*
X151388769Y-127605276D01*
X151479376Y-127514669D01*
X151550565Y-127408127D01*
X151599601Y-127289744D01*
X151622928Y-127172475D01*
X151624600Y-127164071D01*
X151624600Y-127035928D01*
X151599602Y-126910261D01*
X151599601Y-126910260D01*
X151599601Y-126910256D01*
X151550565Y-126791873D01*
X151550564Y-126791872D01*
X151550561Y-126791866D01*
X151479376Y-126685331D01*
X151479373Y-126685327D01*
X151388772Y-126594726D01*
X151388768Y-126594723D01*
X151282233Y-126523538D01*
X151282224Y-126523533D01*
X151163844Y-126474499D01*
X151163838Y-126474497D01*
X151038171Y-126449500D01*
X151038169Y-126449500D01*
X150910031Y-126449500D01*
X150910029Y-126449500D01*
X150784361Y-126474497D01*
X150784355Y-126474499D01*
X150665975Y-126523533D01*
X150665966Y-126523538D01*
X150559431Y-126594723D01*
X150559427Y-126594726D01*
X150468826Y-126685327D01*
X150468823Y-126685331D01*
X150397638Y-126791866D01*
X150397635Y-126791873D01*
X150382837Y-126827598D01*
X150338995Y-126882001D01*
X150272701Y-126904065D01*
X150205002Y-126886785D01*
X150160889Y-126842144D01*
X150152489Y-126827595D01*
X150114609Y-126761985D01*
X150012115Y-126659491D01*
X150012113Y-126659490D01*
X150012111Y-126659488D01*
X149886588Y-126587017D01*
X149886589Y-126587017D01*
X149875106Y-126583940D01*
X149746575Y-126549500D01*
X149601625Y-126549500D01*
X149473093Y-126583940D01*
X149461611Y-126587017D01*
X149336088Y-126659488D01*
X149336082Y-126659493D01*
X149233593Y-126761982D01*
X149233588Y-126761988D01*
X149161117Y-126887511D01*
X149161116Y-126887515D01*
X149123600Y-127027525D01*
X148524600Y-127027525D01*
X148487084Y-126887515D01*
X148483900Y-126882001D01*
X148414611Y-126761988D01*
X148414606Y-126761982D01*
X148312117Y-126659493D01*
X148312111Y-126659488D01*
X148186588Y-126587017D01*
X148186589Y-126587017D01*
X148175106Y-126583940D01*
X148046575Y-126549500D01*
X147901625Y-126549500D01*
X147773093Y-126583940D01*
X147761611Y-126587017D01*
X147636088Y-126659488D01*
X147636082Y-126659493D01*
X147533593Y-126761982D01*
X147533591Y-126761985D01*
X147487310Y-126842145D01*
X147436742Y-126890360D01*
X147368135Y-126903582D01*
X147303270Y-126877614D01*
X147265362Y-126827596D01*
X147250565Y-126791873D01*
X147250561Y-126791866D01*
X147179376Y-126685331D01*
X147179373Y-126685327D01*
X147088772Y-126594726D01*
X147088768Y-126594723D01*
X146982233Y-126523538D01*
X146982224Y-126523533D01*
X146863844Y-126474499D01*
X146863838Y-126474497D01*
X146738171Y-126449500D01*
X146738169Y-126449500D01*
X146610031Y-126449500D01*
X146610029Y-126449500D01*
X146484361Y-126474497D01*
X146484355Y-126474499D01*
X146365975Y-126523533D01*
X146365966Y-126523538D01*
X146259431Y-126594723D01*
X146259427Y-126594726D01*
X146168826Y-126685327D01*
X146168823Y-126685331D01*
X146097638Y-126791866D01*
X146097633Y-126791875D01*
X146048599Y-126910255D01*
X146048597Y-126910261D01*
X146023600Y-127035928D01*
X146023600Y-127035931D01*
X146023600Y-127164069D01*
X146023600Y-127164071D01*
X146023599Y-127164071D01*
X136624600Y-127164071D01*
X136624600Y-127035928D01*
X136599602Y-126910261D01*
X136599601Y-126910260D01*
X136599601Y-126910256D01*
X136550565Y-126791873D01*
X136550564Y-126791872D01*
X136550561Y-126791866D01*
X136479376Y-126685331D01*
X136479373Y-126685327D01*
X136388772Y-126594726D01*
X136388768Y-126594723D01*
X136282233Y-126523538D01*
X136282224Y-126523533D01*
X136163844Y-126474499D01*
X136163838Y-126474497D01*
X136038171Y-126449500D01*
X136038169Y-126449500D01*
X135910031Y-126449500D01*
X135910029Y-126449500D01*
X135784361Y-126474497D01*
X135784355Y-126474499D01*
X135665975Y-126523533D01*
X135665966Y-126523538D01*
X135559431Y-126594723D01*
X135559427Y-126594726D01*
X135468826Y-126685327D01*
X135468823Y-126685331D01*
X135397638Y-126791866D01*
X135397635Y-126791873D01*
X135382837Y-126827598D01*
X135338995Y-126882001D01*
X135272701Y-126904065D01*
X135205002Y-126886785D01*
X135160889Y-126842144D01*
X135152489Y-126827595D01*
X135114609Y-126761985D01*
X135012115Y-126659491D01*
X135012113Y-126659490D01*
X135012111Y-126659488D01*
X134886588Y-126587017D01*
X134886589Y-126587017D01*
X134875106Y-126583940D01*
X134746575Y-126549500D01*
X134601625Y-126549500D01*
X134473093Y-126583940D01*
X134461611Y-126587017D01*
X134336088Y-126659488D01*
X134336082Y-126659493D01*
X134233593Y-126761982D01*
X134233588Y-126761988D01*
X134161117Y-126887511D01*
X134161116Y-126887515D01*
X134123600Y-127027525D01*
X133524600Y-127027525D01*
X133487084Y-126887515D01*
X133483900Y-126882001D01*
X133414611Y-126761988D01*
X133414606Y-126761982D01*
X133312117Y-126659493D01*
X133312111Y-126659488D01*
X133186588Y-126587017D01*
X133186589Y-126587017D01*
X133175106Y-126583940D01*
X133046575Y-126549500D01*
X132901625Y-126549500D01*
X132773093Y-126583940D01*
X132761611Y-126587017D01*
X132636088Y-126659488D01*
X132636082Y-126659493D01*
X132533593Y-126761982D01*
X132533591Y-126761985D01*
X132487310Y-126842145D01*
X132436742Y-126890360D01*
X132368135Y-126903582D01*
X132303270Y-126877614D01*
X132265362Y-126827596D01*
X132250565Y-126791873D01*
X132250561Y-126791866D01*
X132179376Y-126685331D01*
X132179373Y-126685327D01*
X132088772Y-126594726D01*
X132088768Y-126594723D01*
X131982233Y-126523538D01*
X131982224Y-126523533D01*
X131863844Y-126474499D01*
X131863838Y-126474497D01*
X131738171Y-126449500D01*
X131738169Y-126449500D01*
X131610031Y-126449500D01*
X131610029Y-126449500D01*
X131484361Y-126474497D01*
X131484355Y-126474499D01*
X131365975Y-126523533D01*
X131365966Y-126523538D01*
X131259431Y-126594723D01*
X131259427Y-126594726D01*
X131168826Y-126685327D01*
X131168823Y-126685331D01*
X131097638Y-126791866D01*
X131097633Y-126791875D01*
X131048599Y-126910255D01*
X131048597Y-126910261D01*
X131023600Y-127035928D01*
X131023600Y-127035931D01*
X131023600Y-127164069D01*
X131023600Y-127164071D01*
X131023599Y-127164071D01*
X121050500Y-127164071D01*
X121050500Y-127035928D01*
X121025502Y-126910261D01*
X121025501Y-126910260D01*
X121025501Y-126910256D01*
X120976465Y-126791873D01*
X120976464Y-126791872D01*
X120976461Y-126791866D01*
X120905276Y-126685331D01*
X120905273Y-126685327D01*
X120814672Y-126594726D01*
X120814668Y-126594723D01*
X120708133Y-126523538D01*
X120708124Y-126523533D01*
X120589744Y-126474499D01*
X120589738Y-126474497D01*
X120464071Y-126449500D01*
X120464069Y-126449500D01*
X120335931Y-126449500D01*
X120335929Y-126449500D01*
X120210261Y-126474497D01*
X120210255Y-126474499D01*
X120091875Y-126523533D01*
X120091866Y-126523538D01*
X119985331Y-126594723D01*
X119985327Y-126594726D01*
X119894726Y-126685327D01*
X119894723Y-126685331D01*
X119823538Y-126791866D01*
X119823535Y-126791873D01*
X119808737Y-126827598D01*
X119764895Y-126882001D01*
X119698601Y-126904065D01*
X119630902Y-126886785D01*
X119586789Y-126842144D01*
X119578389Y-126827595D01*
X119540509Y-126761985D01*
X119438015Y-126659491D01*
X119438013Y-126659490D01*
X119438011Y-126659488D01*
X119312488Y-126587017D01*
X119312489Y-126587017D01*
X119301006Y-126583940D01*
X119172475Y-126549500D01*
X119027525Y-126549500D01*
X118898993Y-126583940D01*
X118887511Y-126587017D01*
X118761988Y-126659488D01*
X118761982Y-126659493D01*
X118659493Y-126761982D01*
X118659488Y-126761988D01*
X118587017Y-126887511D01*
X118587016Y-126887515D01*
X118549500Y-127027525D01*
X117950500Y-127027525D01*
X117912984Y-126887515D01*
X117909800Y-126882001D01*
X117840511Y-126761988D01*
X117840506Y-126761982D01*
X117738017Y-126659493D01*
X117738011Y-126659488D01*
X117612488Y-126587017D01*
X117612489Y-126587017D01*
X117601006Y-126583940D01*
X117472475Y-126549500D01*
X117327525Y-126549500D01*
X117198993Y-126583940D01*
X117187511Y-126587017D01*
X117061988Y-126659488D01*
X117061982Y-126659493D01*
X116959493Y-126761982D01*
X116959491Y-126761985D01*
X116913210Y-126842145D01*
X116862642Y-126890360D01*
X116794035Y-126903582D01*
X116729170Y-126877614D01*
X116691262Y-126827596D01*
X116676465Y-126791873D01*
X116676461Y-126791866D01*
X116605276Y-126685331D01*
X116605273Y-126685327D01*
X116514672Y-126594726D01*
X116514668Y-126594723D01*
X116408133Y-126523538D01*
X116408124Y-126523533D01*
X116289744Y-126474499D01*
X116289738Y-126474497D01*
X116164071Y-126449500D01*
X116164069Y-126449500D01*
X116035931Y-126449500D01*
X116035929Y-126449500D01*
X115910261Y-126474497D01*
X115910255Y-126474499D01*
X115791875Y-126523533D01*
X115791866Y-126523538D01*
X115685331Y-126594723D01*
X115685327Y-126594726D01*
X115594726Y-126685327D01*
X115594723Y-126685331D01*
X115523538Y-126791866D01*
X115523533Y-126791875D01*
X115474499Y-126910255D01*
X115474497Y-126910261D01*
X115449500Y-127035928D01*
X115449500Y-127035931D01*
X115449500Y-127164069D01*
X115449500Y-127164071D01*
X115449499Y-127164071D01*
X114356712Y-127164071D01*
X114430198Y-126993711D01*
X114527100Y-126670035D01*
X114585771Y-126337298D01*
X114605416Y-126000000D01*
X114593768Y-125800000D01*
X145768104Y-125800000D01*
X145785598Y-125921678D01*
X145785599Y-125921682D01*
X145821368Y-126000003D01*
X145836666Y-126033501D01*
X145917168Y-126126405D01*
X146020584Y-126192866D01*
X146138535Y-126227500D01*
X146261465Y-126227500D01*
X146379416Y-126192866D01*
X146482832Y-126126405D01*
X146563334Y-126033501D01*
X146614401Y-125921679D01*
X146631896Y-125800000D01*
X146614401Y-125678321D01*
X146614400Y-125678317D01*
X146563334Y-125566500D01*
X146563334Y-125566499D01*
X146482832Y-125473595D01*
X146379416Y-125407134D01*
X146261465Y-125372500D01*
X146138535Y-125372500D01*
X146020584Y-125407134D01*
X146020582Y-125407134D01*
X146020582Y-125407135D01*
X145917169Y-125473594D01*
X145836667Y-125566497D01*
X145836665Y-125566500D01*
X145785599Y-125678317D01*
X145785598Y-125678321D01*
X145768104Y-125800000D01*
X114593768Y-125800000D01*
X114585771Y-125662702D01*
X114582557Y-125644477D01*
X114527103Y-125329982D01*
X114527102Y-125329981D01*
X114527100Y-125329965D01*
X114488191Y-125200000D01*
X130068104Y-125200000D01*
X130085598Y-125321678D01*
X130085599Y-125321682D01*
X130124625Y-125407135D01*
X130136666Y-125433501D01*
X130217168Y-125526405D01*
X130320584Y-125592866D01*
X130438535Y-125627500D01*
X130561465Y-125627500D01*
X130679416Y-125592866D01*
X130782832Y-125526405D01*
X130863334Y-125433501D01*
X130914401Y-125321679D01*
X130931896Y-125200000D01*
X130914401Y-125078321D01*
X130914400Y-125078317D01*
X130863334Y-124966500D01*
X130863334Y-124966499D01*
X130782832Y-124873595D01*
X130679416Y-124807134D01*
X130561465Y-124772500D01*
X130438535Y-124772500D01*
X130320584Y-124807134D01*
X130320582Y-124807134D01*
X130320582Y-124807135D01*
X130217169Y-124873594D01*
X130136667Y-124966497D01*
X130136665Y-124966500D01*
X130085599Y-125078317D01*
X130085598Y-125078321D01*
X130068104Y-125200000D01*
X114488191Y-125200000D01*
X114430198Y-125006289D01*
X114296375Y-124696052D01*
X114127440Y-124403448D01*
X114127439Y-124403446D01*
X113925681Y-124132438D01*
X113925676Y-124132432D01*
X113813564Y-124013601D01*
X113693817Y-123886677D01*
X113693810Y-123886671D01*
X113693808Y-123886669D01*
X113434998Y-123669500D01*
X113293851Y-123576667D01*
X113152708Y-123483836D01*
X113147593Y-123481267D01*
X112850783Y-123332203D01*
X112850777Y-123332200D01*
X112533284Y-123216642D01*
X112533281Y-123216641D01*
X112306639Y-123162926D01*
X112204520Y-123138724D01*
X111868935Y-123099500D01*
X111531065Y-123099500D01*
X111195480Y-123138724D01*
X110866718Y-123216641D01*
X110866715Y-123216642D01*
X110549222Y-123332200D01*
X110549216Y-123332203D01*
X110247295Y-123483834D01*
X109965001Y-123669500D01*
X109706191Y-123886669D01*
X109706181Y-123886679D01*
X109474323Y-124132432D01*
X109474318Y-124132438D01*
X109423963Y-124200078D01*
X109368140Y-124242097D01*
X109298462Y-124247265D01*
X109237051Y-124213943D01*
X109203404Y-124152708D01*
X109200500Y-124126030D01*
X109200500Y-120973218D01*
X112746300Y-120973218D01*
X112746300Y-121126381D01*
X112776176Y-121276580D01*
X112776179Y-121276589D01*
X112834784Y-121418077D01*
X112834791Y-121418090D01*
X112919875Y-121545426D01*
X112919878Y-121545430D01*
X113028169Y-121653721D01*
X113028173Y-121653724D01*
X113155509Y-121738808D01*
X113155522Y-121738815D01*
X113261638Y-121782768D01*
X113297012Y-121797421D01*
X113297014Y-121797421D01*
X113297019Y-121797423D01*
X113447218Y-121827299D01*
X113447221Y-121827300D01*
X113447223Y-121827300D01*
X115100379Y-121827300D01*
X115100380Y-121827299D01*
X115150447Y-121817340D01*
X115250580Y-121797423D01*
X115250583Y-121797421D01*
X115250588Y-121797421D01*
X115392084Y-121738812D01*
X115519427Y-121653724D01*
X115627724Y-121545427D01*
X115712812Y-121418084D01*
X115771421Y-121276588D01*
X115779992Y-121233502D01*
X115801299Y-121126381D01*
X115801300Y-121126379D01*
X115801300Y-121000000D01*
X116368104Y-121000000D01*
X116385598Y-121121678D01*
X116385599Y-121121682D01*
X116436665Y-121233499D01*
X116436666Y-121233501D01*
X116517168Y-121326405D01*
X116620584Y-121392866D01*
X116738535Y-121427500D01*
X116861465Y-121427500D01*
X116979416Y-121392866D01*
X117082832Y-121326405D01*
X117163334Y-121233501D01*
X117214401Y-121121679D01*
X117220226Y-121081164D01*
X131546300Y-121081164D01*
X131546300Y-121258635D01*
X131574063Y-121433924D01*
X131574063Y-121433927D01*
X131628903Y-121602707D01*
X131628905Y-121602710D01*
X131698254Y-121738815D01*
X131709478Y-121760842D01*
X131813785Y-121904410D01*
X131813789Y-121904415D01*
X131939284Y-122029910D01*
X131939289Y-122029914D01*
X132064516Y-122120896D01*
X132082861Y-122134224D01*
X132240990Y-122214795D01*
X132240992Y-122214796D01*
X132409773Y-122269636D01*
X132409774Y-122269636D01*
X132409777Y-122269637D01*
X132585064Y-122297400D01*
X132585065Y-122297400D01*
X133962535Y-122297400D01*
X133962536Y-122297400D01*
X134137823Y-122269637D01*
X134137826Y-122269636D01*
X134137827Y-122269636D01*
X134306607Y-122214796D01*
X134306607Y-122214795D01*
X134306610Y-122214795D01*
X134464739Y-122134224D01*
X134608317Y-122029909D01*
X134733809Y-121904417D01*
X134838124Y-121760839D01*
X134918695Y-121602710D01*
X134973537Y-121433923D01*
X135001300Y-121258636D01*
X135001300Y-121081164D01*
X146546300Y-121081164D01*
X146546300Y-121258635D01*
X146574063Y-121433924D01*
X146574063Y-121433927D01*
X146628903Y-121602707D01*
X146628905Y-121602710D01*
X146698254Y-121738815D01*
X146709478Y-121760842D01*
X146813785Y-121904410D01*
X146813789Y-121904415D01*
X146939284Y-122029910D01*
X146939289Y-122029914D01*
X147064516Y-122120896D01*
X147082861Y-122134224D01*
X147240990Y-122214795D01*
X147240992Y-122214796D01*
X147409773Y-122269636D01*
X147409774Y-122269636D01*
X147409777Y-122269637D01*
X147585064Y-122297400D01*
X147585065Y-122297400D01*
X148962535Y-122297400D01*
X148962536Y-122297400D01*
X149137823Y-122269637D01*
X149137826Y-122269636D01*
X149137827Y-122269636D01*
X149306607Y-122214796D01*
X149306607Y-122214795D01*
X149306610Y-122214795D01*
X149464739Y-122134224D01*
X149608317Y-122029909D01*
X149733809Y-121904417D01*
X149838124Y-121760839D01*
X149918695Y-121602710D01*
X149973537Y-121433923D01*
X150001300Y-121258636D01*
X150001300Y-121081164D01*
X149973537Y-120905877D01*
X149973536Y-120905873D01*
X149973536Y-120905872D01*
X149918696Y-120737092D01*
X149918695Y-120737090D01*
X149838124Y-120578961D01*
X149820112Y-120554169D01*
X149733814Y-120435389D01*
X149733810Y-120435384D01*
X149608315Y-120309889D01*
X149608310Y-120309885D01*
X149464742Y-120205578D01*
X149464741Y-120205577D01*
X149464739Y-120205576D01*
X149385674Y-120165290D01*
X149306607Y-120125003D01*
X149137826Y-120070163D01*
X149006357Y-120049340D01*
X148962536Y-120042400D01*
X147585064Y-120042400D01*
X147526635Y-120051654D01*
X147409775Y-120070163D01*
X147409772Y-120070163D01*
X147240992Y-120125003D01*
X147082857Y-120205578D01*
X146939289Y-120309885D01*
X146939284Y-120309889D01*
X146813789Y-120435384D01*
X146813785Y-120435389D01*
X146709478Y-120578957D01*
X146628903Y-120737092D01*
X146574063Y-120905872D01*
X146574063Y-120905875D01*
X146546300Y-121081164D01*
X135001300Y-121081164D01*
X134973537Y-120905877D01*
X134973536Y-120905873D01*
X134973536Y-120905872D01*
X134918696Y-120737092D01*
X134918695Y-120737090D01*
X134838124Y-120578961D01*
X134820112Y-120554169D01*
X134733814Y-120435389D01*
X134733810Y-120435384D01*
X134608315Y-120309889D01*
X134608310Y-120309885D01*
X134464742Y-120205578D01*
X134464741Y-120205577D01*
X134464739Y-120205576D01*
X134385674Y-120165290D01*
X134306607Y-120125003D01*
X134137826Y-120070163D01*
X134006357Y-120049340D01*
X133962536Y-120042400D01*
X132585064Y-120042400D01*
X132526635Y-120051654D01*
X132409775Y-120070163D01*
X132409772Y-120070163D01*
X132240992Y-120125003D01*
X132082857Y-120205578D01*
X131939289Y-120309885D01*
X131939284Y-120309889D01*
X131813789Y-120435384D01*
X131813785Y-120435389D01*
X131709478Y-120578957D01*
X131628903Y-120737092D01*
X131574063Y-120905872D01*
X131574063Y-120905875D01*
X131546300Y-121081164D01*
X117220226Y-121081164D01*
X117231896Y-121000000D01*
X117214401Y-120878321D01*
X117214400Y-120878317D01*
X117163334Y-120766500D01*
X117163334Y-120766499D01*
X117082832Y-120673595D01*
X116979416Y-120607134D01*
X116861465Y-120572500D01*
X116738535Y-120572500D01*
X116620584Y-120607134D01*
X116620582Y-120607134D01*
X116620582Y-120607135D01*
X116517169Y-120673594D01*
X116517168Y-120673594D01*
X116517168Y-120673595D01*
X116510304Y-120681516D01*
X116436667Y-120766497D01*
X116436665Y-120766500D01*
X116385599Y-120878317D01*
X116385598Y-120878321D01*
X116368104Y-121000000D01*
X115801300Y-121000000D01*
X115801300Y-120973220D01*
X115801299Y-120973218D01*
X115771423Y-120823019D01*
X115771420Y-120823010D01*
X115712815Y-120681522D01*
X115712808Y-120681509D01*
X115627724Y-120554173D01*
X115627721Y-120554169D01*
X115519430Y-120445878D01*
X115519426Y-120445875D01*
X115392090Y-120360791D01*
X115392077Y-120360784D01*
X115250589Y-120302179D01*
X115250580Y-120302176D01*
X115100380Y-120272300D01*
X115100377Y-120272300D01*
X113447223Y-120272300D01*
X113447220Y-120272300D01*
X113297019Y-120302176D01*
X113297010Y-120302179D01*
X113155522Y-120360784D01*
X113155509Y-120360791D01*
X113028173Y-120445875D01*
X113028169Y-120445878D01*
X112919878Y-120554169D01*
X112919875Y-120554173D01*
X112834791Y-120681509D01*
X112834784Y-120681522D01*
X112776179Y-120823010D01*
X112776176Y-120823019D01*
X112746300Y-120973218D01*
X109200500Y-120973218D01*
X109200500Y-119389999D01*
X162469364Y-119389999D01*
X162469364Y-119390000D01*
X163366988Y-119390000D01*
X163334075Y-119447007D01*
X163300000Y-119574174D01*
X163300000Y-119705826D01*
X163334075Y-119832993D01*
X163366988Y-119890000D01*
X162469364Y-119890000D01*
X162526567Y-120103486D01*
X162526570Y-120103492D01*
X162626399Y-120317578D01*
X162761894Y-120511082D01*
X162928917Y-120678105D01*
X163122421Y-120813600D01*
X163336507Y-120913429D01*
X163336516Y-120913433D01*
X163550000Y-120970634D01*
X163550000Y-120073012D01*
X163607007Y-120105925D01*
X163734174Y-120140000D01*
X163865826Y-120140000D01*
X163992993Y-120105925D01*
X164050000Y-120073012D01*
X164050000Y-120970633D01*
X164263483Y-120913433D01*
X164263492Y-120913429D01*
X164477578Y-120813600D01*
X164671082Y-120678105D01*
X164838105Y-120511082D01*
X164973600Y-120317578D01*
X165073429Y-120103492D01*
X165073432Y-120103486D01*
X165130636Y-119890000D01*
X164233012Y-119890000D01*
X164265925Y-119832993D01*
X164300000Y-119705826D01*
X164300000Y-119574174D01*
X164265925Y-119447007D01*
X164233012Y-119390000D01*
X165130636Y-119390000D01*
X165130635Y-119389999D01*
X165073432Y-119176513D01*
X165073429Y-119176507D01*
X164973600Y-118962422D01*
X164973599Y-118962420D01*
X164838113Y-118768926D01*
X164838108Y-118768920D01*
X164671082Y-118601894D01*
X164477578Y-118466399D01*
X164263492Y-118366570D01*
X164263483Y-118366566D01*
X164035326Y-118305432D01*
X164035318Y-118305431D01*
X164021242Y-118304199D01*
X163956175Y-118278743D01*
X163915199Y-118222151D01*
X163911323Y-118152389D01*
X163945780Y-118091606D01*
X163996055Y-118062012D01*
X164175883Y-118007462D01*
X164345698Y-117916694D01*
X164494541Y-117794541D01*
X164616694Y-117645698D01*
X164707462Y-117475883D01*
X164763357Y-117291624D01*
X164782230Y-117100000D01*
X164763357Y-116908376D01*
X164707462Y-116724117D01*
X164616694Y-116554302D01*
X164616693Y-116554300D01*
X164494541Y-116405458D01*
X164345699Y-116283306D01*
X164345692Y-116283302D01*
X164175884Y-116192538D01*
X163991626Y-116136643D01*
X163800000Y-116117770D01*
X163608373Y-116136643D01*
X163424115Y-116192538D01*
X163254307Y-116283302D01*
X163254300Y-116283306D01*
X163105458Y-116405458D01*
X162983306Y-116554300D01*
X162983302Y-116554307D01*
X162892538Y-116724115D01*
X162836643Y-116908373D01*
X162817770Y-117100000D01*
X162836643Y-117291626D01*
X162892538Y-117475884D01*
X162983302Y-117645692D01*
X162983306Y-117645699D01*
X163105458Y-117794541D01*
X163254300Y-117916693D01*
X163254307Y-117916697D01*
X163424112Y-118007460D01*
X163424114Y-118007460D01*
X163424117Y-118007462D01*
X163603941Y-118062011D01*
X163662378Y-118100308D01*
X163690834Y-118164120D01*
X163680274Y-118233187D01*
X163634050Y-118285581D01*
X163578757Y-118304199D01*
X163564681Y-118305431D01*
X163564673Y-118305432D01*
X163336516Y-118366566D01*
X163336507Y-118366570D01*
X163122422Y-118466399D01*
X163122420Y-118466400D01*
X162928926Y-118601886D01*
X162928920Y-118601891D01*
X162761891Y-118768920D01*
X162761886Y-118768926D01*
X162626400Y-118962420D01*
X162626399Y-118962422D01*
X162526570Y-119176507D01*
X162526567Y-119176513D01*
X162469364Y-119389999D01*
X109200500Y-119389999D01*
X109200500Y-117849899D01*
X114495127Y-117849899D01*
X114495128Y-117849900D01*
X115340988Y-117849900D01*
X115308075Y-117906907D01*
X115274000Y-118034074D01*
X115274000Y-118165726D01*
X115308075Y-118292893D01*
X115340988Y-118349900D01*
X114495128Y-118349900D01*
X114547730Y-118546217D01*
X114547734Y-118546226D01*
X114643865Y-118752382D01*
X114774342Y-118938720D01*
X114935179Y-119099557D01*
X115121517Y-119230034D01*
X115327673Y-119326165D01*
X115327682Y-119326169D01*
X115523999Y-119378772D01*
X115524000Y-119378771D01*
X115524000Y-118532912D01*
X115581007Y-118565825D01*
X115708174Y-118599900D01*
X115839826Y-118599900D01*
X115966993Y-118565825D01*
X116024000Y-118532912D01*
X116024000Y-119378772D01*
X116220317Y-119326169D01*
X116220326Y-119326165D01*
X116426482Y-119230034D01*
X116612820Y-119099557D01*
X116773657Y-118938720D01*
X116904134Y-118752382D01*
X117000265Y-118546226D01*
X117000269Y-118546217D01*
X117052872Y-118349900D01*
X116207012Y-118349900D01*
X116239925Y-118292893D01*
X116274000Y-118165726D01*
X116274000Y-118034074D01*
X116239925Y-117906907D01*
X116207069Y-117849999D01*
X134534468Y-117849999D01*
X134534469Y-117850000D01*
X135390409Y-117850000D01*
X135347958Y-117923527D01*
X135316800Y-118039808D01*
X135316800Y-118160192D01*
X135347958Y-118276473D01*
X135390409Y-118350000D01*
X134534469Y-118350000D01*
X134583575Y-118533270D01*
X134583580Y-118533284D01*
X134676899Y-118733407D01*
X134676900Y-118733409D01*
X134803563Y-118914301D01*
X134959698Y-119070436D01*
X135140590Y-119197099D01*
X135140592Y-119197100D01*
X135340715Y-119290419D01*
X135340729Y-119290424D01*
X135523999Y-119339531D01*
X135524000Y-119339530D01*
X135524000Y-118483591D01*
X135597527Y-118526042D01*
X135713808Y-118557200D01*
X135834192Y-118557200D01*
X135950473Y-118526042D01*
X136024000Y-118483591D01*
X136024000Y-119339531D01*
X136207270Y-119290424D01*
X136207284Y-119290419D01*
X136407407Y-119197100D01*
X136407409Y-119197099D01*
X136588301Y-119070436D01*
X136744436Y-118914301D01*
X136871099Y-118733409D01*
X136871100Y-118733407D01*
X136964419Y-118533284D01*
X136964424Y-118533270D01*
X137013531Y-118350000D01*
X136157591Y-118350000D01*
X136200042Y-118276473D01*
X136231200Y-118160192D01*
X136231200Y-118039808D01*
X136200042Y-117923527D01*
X136157591Y-117850000D01*
X137013531Y-117850000D01*
X137013531Y-117849999D01*
X149534468Y-117849999D01*
X149534469Y-117850000D01*
X150390409Y-117850000D01*
X150347958Y-117923527D01*
X150316800Y-118039808D01*
X150316800Y-118160192D01*
X150347958Y-118276473D01*
X150390409Y-118350000D01*
X149534469Y-118350000D01*
X149583575Y-118533270D01*
X149583580Y-118533284D01*
X149676899Y-118733407D01*
X149676900Y-118733409D01*
X149803563Y-118914301D01*
X149959698Y-119070436D01*
X150140590Y-119197099D01*
X150140592Y-119197100D01*
X150340715Y-119290419D01*
X150340729Y-119290424D01*
X150523999Y-119339531D01*
X150524000Y-119339530D01*
X150524000Y-118483591D01*
X150597527Y-118526042D01*
X150713808Y-118557200D01*
X150834192Y-118557200D01*
X150950473Y-118526042D01*
X151024000Y-118483591D01*
X151024000Y-119339531D01*
X151207270Y-119290424D01*
X151207284Y-119290419D01*
X151407407Y-119197100D01*
X151407409Y-119197099D01*
X151588301Y-119070436D01*
X151744436Y-118914301D01*
X151871099Y-118733409D01*
X151871100Y-118733407D01*
X151964419Y-118533284D01*
X151964424Y-118533270D01*
X152013531Y-118350000D01*
X151157591Y-118350000D01*
X151200042Y-118276473D01*
X151231200Y-118160192D01*
X151231200Y-118039808D01*
X151200042Y-117923527D01*
X151157591Y-117850000D01*
X152013531Y-117850000D01*
X152013531Y-117849999D01*
X151964424Y-117666729D01*
X151964420Y-117666720D01*
X151871099Y-117466591D01*
X151871098Y-117466589D01*
X151744442Y-117285704D01*
X151588297Y-117129560D01*
X151407409Y-117002900D01*
X151407407Y-117002899D01*
X151207283Y-116909580D01*
X151024000Y-116860468D01*
X151024000Y-117716408D01*
X150950473Y-117673958D01*
X150834192Y-117642800D01*
X150713808Y-117642800D01*
X150597527Y-117673958D01*
X150524000Y-117716408D01*
X150524000Y-116860468D01*
X150340718Y-116909579D01*
X150140591Y-117002900D01*
X150140589Y-117002901D01*
X149959700Y-117129560D01*
X149803560Y-117285700D01*
X149676901Y-117466589D01*
X149676900Y-117466591D01*
X149583579Y-117666720D01*
X149583575Y-117666729D01*
X149534468Y-117849999D01*
X137013531Y-117849999D01*
X136964424Y-117666729D01*
X136964420Y-117666720D01*
X136871099Y-117466591D01*
X136871098Y-117466589D01*
X136744442Y-117285704D01*
X136588297Y-117129560D01*
X136407409Y-117002900D01*
X136407407Y-117002899D01*
X136207283Y-116909580D01*
X136024000Y-116860468D01*
X136024000Y-117716408D01*
X135950473Y-117673958D01*
X135834192Y-117642800D01*
X135713808Y-117642800D01*
X135597527Y-117673958D01*
X135524000Y-117716408D01*
X135524000Y-116860468D01*
X135340718Y-116909579D01*
X135140591Y-117002900D01*
X135140589Y-117002901D01*
X134959700Y-117129560D01*
X134803560Y-117285700D01*
X134676901Y-117466589D01*
X134676900Y-117466591D01*
X134583579Y-117666720D01*
X134583575Y-117666729D01*
X134534468Y-117849999D01*
X116207069Y-117849999D01*
X116207012Y-117849900D01*
X117052872Y-117849900D01*
X117052872Y-117849899D01*
X117000269Y-117653582D01*
X117000265Y-117653573D01*
X116904134Y-117447417D01*
X116773657Y-117261079D01*
X116612820Y-117100242D01*
X116426482Y-116969765D01*
X116220328Y-116873634D01*
X116024000Y-116821027D01*
X116024000Y-117666888D01*
X115966993Y-117633975D01*
X115839826Y-117599900D01*
X115708174Y-117599900D01*
X115581007Y-117633975D01*
X115524000Y-117666888D01*
X115524000Y-116821027D01*
X115327671Y-116873634D01*
X115121517Y-116969765D01*
X114935179Y-117100242D01*
X114774342Y-117261079D01*
X114643865Y-117447417D01*
X114547734Y-117653573D01*
X114547730Y-117653582D01*
X114495127Y-117849899D01*
X109200500Y-117849899D01*
X109200500Y-113600000D01*
X114841391Y-113600000D01*
X114861771Y-113793901D01*
X114922019Y-113979328D01*
X114922020Y-113979329D01*
X115019501Y-114148172D01*
X115123586Y-114263769D01*
X115149963Y-114293064D01*
X115260912Y-114373673D01*
X115307695Y-114407663D01*
X115485260Y-114486721D01*
X115538497Y-114531971D01*
X115558818Y-114598820D01*
X115539773Y-114666044D01*
X115487406Y-114712299D01*
X115485260Y-114713279D01*
X115307696Y-114792336D01*
X115307691Y-114792339D01*
X115149969Y-114906930D01*
X115149963Y-114906935D01*
X115019501Y-115051827D01*
X114922020Y-115220670D01*
X114922019Y-115220671D01*
X114861771Y-115406098D01*
X114841391Y-115600000D01*
X114861771Y-115793901D01*
X114922019Y-115979328D01*
X114922020Y-115979329D01*
X115019501Y-116148172D01*
X115059449Y-116192538D01*
X115149963Y-116293064D01*
X115263110Y-116375270D01*
X115307695Y-116407663D01*
X115485802Y-116486962D01*
X115485808Y-116486964D01*
X115676516Y-116527500D01*
X115676517Y-116527500D01*
X115871482Y-116527500D01*
X115871484Y-116527500D01*
X116062192Y-116486964D01*
X116062194Y-116486962D01*
X116062197Y-116486962D01*
X116122190Y-116460251D01*
X116240305Y-116407663D01*
X116398037Y-116293064D01*
X116528497Y-116148174D01*
X116625981Y-115979326D01*
X116686229Y-115793900D01*
X116706609Y-115600000D01*
X116686229Y-115406100D01*
X116625981Y-115220674D01*
X116625980Y-115220673D01*
X116625980Y-115220671D01*
X116625979Y-115220670D01*
X116528498Y-115051827D01*
X116398038Y-114906937D01*
X116398035Y-114906935D01*
X116240305Y-114792337D01*
X116240304Y-114792336D01*
X116062739Y-114713279D01*
X116009502Y-114668029D01*
X115989181Y-114601180D01*
X116008226Y-114533956D01*
X116060592Y-114487701D01*
X116062739Y-114486721D01*
X116160064Y-114443388D01*
X116240305Y-114407663D01*
X116398037Y-114293064D01*
X116528497Y-114148174D01*
X116625981Y-113979326D01*
X116686229Y-113793900D01*
X116706609Y-113600000D01*
X116706514Y-113599100D01*
X134879600Y-113599100D01*
X134899145Y-113785058D01*
X134899146Y-113785060D01*
X134956925Y-113962886D01*
X135050413Y-114124813D01*
X135175530Y-114263769D01*
X135326795Y-114373670D01*
X135326796Y-114373670D01*
X135326800Y-114373673D01*
X135403143Y-114407663D01*
X135497609Y-114449723D01*
X135497615Y-114449725D01*
X135633510Y-114478610D01*
X135694992Y-114511802D01*
X135728768Y-114572965D01*
X135724116Y-114642680D01*
X135682511Y-114698812D01*
X135633510Y-114721190D01*
X135497615Y-114750074D01*
X135497609Y-114750076D01*
X135326800Y-114826127D01*
X135326795Y-114826129D01*
X135175530Y-114936030D01*
X135050413Y-115074986D01*
X134956925Y-115236913D01*
X134899146Y-115414739D01*
X134899145Y-115414741D01*
X134879600Y-115600700D01*
X134899145Y-115786658D01*
X134899146Y-115786660D01*
X134956925Y-115964486D01*
X135050413Y-116126413D01*
X135175530Y-116265369D01*
X135326795Y-116375270D01*
X135326796Y-116375270D01*
X135326800Y-116375273D01*
X135428996Y-116420773D01*
X135497609Y-116451323D01*
X135497615Y-116451325D01*
X135680510Y-116490200D01*
X135680511Y-116490200D01*
X135867489Y-116490200D01*
X135867490Y-116490200D01*
X136050385Y-116451325D01*
X136050387Y-116451323D01*
X136050390Y-116451323D01*
X136073501Y-116441032D01*
X136221200Y-116375273D01*
X136372470Y-116265369D01*
X136497585Y-116126415D01*
X136591075Y-115964485D01*
X136648855Y-115786656D01*
X136668400Y-115600700D01*
X136648855Y-115414744D01*
X136591075Y-115236915D01*
X136497585Y-115074985D01*
X136372470Y-114936031D01*
X136372268Y-114935884D01*
X136221204Y-114826129D01*
X136221201Y-114826127D01*
X136221200Y-114826127D01*
X136175698Y-114805868D01*
X136050390Y-114750076D01*
X136050384Y-114750074D01*
X135941011Y-114726827D01*
X135914488Y-114721189D01*
X135853007Y-114687998D01*
X135819231Y-114626835D01*
X135823883Y-114557120D01*
X135865488Y-114500988D01*
X135914488Y-114478610D01*
X136050385Y-114449725D01*
X136050387Y-114449723D01*
X136050390Y-114449723D01*
X136073501Y-114439432D01*
X136221200Y-114373673D01*
X136372470Y-114263769D01*
X136497585Y-114124815D01*
X136591075Y-113962885D01*
X136648855Y-113785056D01*
X136668400Y-113599100D01*
X149879600Y-113599100D01*
X149899145Y-113785058D01*
X149899146Y-113785060D01*
X149956925Y-113962886D01*
X150050413Y-114124813D01*
X150175530Y-114263769D01*
X150326795Y-114373670D01*
X150326796Y-114373670D01*
X150326800Y-114373673D01*
X150403143Y-114407663D01*
X150497609Y-114449723D01*
X150497615Y-114449725D01*
X150633510Y-114478610D01*
X150694992Y-114511802D01*
X150728768Y-114572965D01*
X150724116Y-114642680D01*
X150682511Y-114698812D01*
X150633510Y-114721190D01*
X150497615Y-114750074D01*
X150497609Y-114750076D01*
X150326800Y-114826127D01*
X150326795Y-114826129D01*
X150175530Y-114936030D01*
X150050413Y-115074986D01*
X149956925Y-115236913D01*
X149899146Y-115414739D01*
X149899145Y-115414741D01*
X149879600Y-115600700D01*
X149899145Y-115786658D01*
X149899146Y-115786660D01*
X149956925Y-115964486D01*
X150050413Y-116126413D01*
X150175530Y-116265369D01*
X150326795Y-116375270D01*
X150326796Y-116375270D01*
X150326800Y-116375273D01*
X150428996Y-116420773D01*
X150497609Y-116451323D01*
X150497615Y-116451325D01*
X150680510Y-116490200D01*
X150680511Y-116490200D01*
X150867489Y-116490200D01*
X150867490Y-116490200D01*
X151050385Y-116451325D01*
X151050387Y-116451323D01*
X151050390Y-116451323D01*
X151073501Y-116441032D01*
X151221200Y-116375273D01*
X151372470Y-116265369D01*
X151497585Y-116126415D01*
X151591075Y-115964485D01*
X151648855Y-115786656D01*
X151668400Y-115600700D01*
X151648855Y-115414744D01*
X151591075Y-115236915D01*
X151497585Y-115074985D01*
X151372470Y-114936031D01*
X151372268Y-114935884D01*
X151221204Y-114826129D01*
X151221201Y-114826127D01*
X151221200Y-114826127D01*
X151175698Y-114805868D01*
X151050390Y-114750076D01*
X151050384Y-114750074D01*
X150941011Y-114726827D01*
X150914488Y-114721189D01*
X150853007Y-114687998D01*
X150819231Y-114626835D01*
X150823691Y-114560000D01*
X162817770Y-114560000D01*
X162836643Y-114751626D01*
X162892538Y-114935884D01*
X162983302Y-115105692D01*
X162983306Y-115105699D01*
X163105458Y-115254541D01*
X163254300Y-115376693D01*
X163254307Y-115376697D01*
X163424115Y-115467461D01*
X163424117Y-115467462D01*
X163608376Y-115523357D01*
X163800000Y-115542230D01*
X163991624Y-115523357D01*
X164175883Y-115467462D01*
X164345698Y-115376694D01*
X164494541Y-115254541D01*
X164616694Y-115105698D01*
X164707462Y-114935883D01*
X164763357Y-114751624D01*
X164782230Y-114560000D01*
X164763357Y-114368376D01*
X164707462Y-114184117D01*
X164688249Y-114148172D01*
X164616697Y-114014307D01*
X164616693Y-114014300D01*
X164494541Y-113865458D01*
X164345699Y-113743306D01*
X164345692Y-113743302D01*
X164175884Y-113652538D01*
X163991626Y-113596643D01*
X163800000Y-113577770D01*
X163608373Y-113596643D01*
X163424115Y-113652538D01*
X163254307Y-113743302D01*
X163254300Y-113743306D01*
X163105458Y-113865458D01*
X162983306Y-114014300D01*
X162983302Y-114014307D01*
X162892538Y-114184115D01*
X162836643Y-114368373D01*
X162817770Y-114560000D01*
X150823691Y-114560000D01*
X150823883Y-114557120D01*
X150865488Y-114500988D01*
X150914488Y-114478610D01*
X151050385Y-114449725D01*
X151050387Y-114449723D01*
X151050390Y-114449723D01*
X151073501Y-114439432D01*
X151221200Y-114373673D01*
X151372470Y-114263769D01*
X151497585Y-114124815D01*
X151591075Y-113962885D01*
X151648855Y-113785056D01*
X151668400Y-113599100D01*
X151648855Y-113413144D01*
X151591075Y-113235315D01*
X151497585Y-113073385D01*
X151372470Y-112934431D01*
X151334628Y-112906937D01*
X151221204Y-112824529D01*
X151221201Y-112824527D01*
X151221200Y-112824527D01*
X151148905Y-112792339D01*
X151050390Y-112748476D01*
X151050384Y-112748474D01*
X150906364Y-112717862D01*
X150867490Y-112709600D01*
X150680510Y-112709600D01*
X150664345Y-112713036D01*
X150497615Y-112748474D01*
X150497609Y-112748476D01*
X150326800Y-112824527D01*
X150326795Y-112824529D01*
X150175530Y-112934430D01*
X150050413Y-113073386D01*
X149956925Y-113235313D01*
X149899146Y-113413139D01*
X149899145Y-113413141D01*
X149879600Y-113599100D01*
X136668400Y-113599100D01*
X136648855Y-113413144D01*
X136591075Y-113235315D01*
X136497585Y-113073385D01*
X136372470Y-112934431D01*
X136334628Y-112906937D01*
X136221204Y-112824529D01*
X136221201Y-112824527D01*
X136221200Y-112824527D01*
X136148905Y-112792339D01*
X136050390Y-112748476D01*
X136050384Y-112748474D01*
X135906364Y-112717862D01*
X135867490Y-112709600D01*
X135680510Y-112709600D01*
X135664345Y-112713036D01*
X135497615Y-112748474D01*
X135497609Y-112748476D01*
X135326800Y-112824527D01*
X135326795Y-112824529D01*
X135175530Y-112934430D01*
X135050413Y-113073386D01*
X134956925Y-113235313D01*
X134899146Y-113413139D01*
X134899145Y-113413141D01*
X134879600Y-113599100D01*
X116706514Y-113599100D01*
X116686229Y-113406100D01*
X116625981Y-113220674D01*
X116625980Y-113220673D01*
X116625980Y-113220671D01*
X116625979Y-113220670D01*
X116528498Y-113051827D01*
X116398038Y-112906937D01*
X116398035Y-112906935D01*
X116301356Y-112836693D01*
X116240304Y-112792336D01*
X116062197Y-112713037D01*
X116062191Y-112713035D01*
X115912019Y-112681115D01*
X115871484Y-112672500D01*
X115676516Y-112672500D01*
X115643086Y-112679605D01*
X115485808Y-112713035D01*
X115485803Y-112713037D01*
X115307696Y-112792336D01*
X115307691Y-112792339D01*
X115149969Y-112906930D01*
X115149963Y-112906935D01*
X115019501Y-113051827D01*
X114922020Y-113220670D01*
X114922019Y-113220671D01*
X114861771Y-113406098D01*
X114841391Y-113600000D01*
X109200500Y-113600000D01*
X109200500Y-110287341D01*
X114846500Y-110287341D01*
X114846500Y-111912458D01*
X114853898Y-111949649D01*
X114882077Y-111991822D01*
X114924250Y-112020001D01*
X114924252Y-112020002D01*
X114952205Y-112025562D01*
X114961441Y-112027400D01*
X114961442Y-112027400D01*
X116586559Y-112027400D01*
X116593957Y-112025928D01*
X116623748Y-112020002D01*
X116665922Y-111991822D01*
X116694102Y-111949648D01*
X116701500Y-111912458D01*
X116701500Y-111099800D01*
X134879600Y-111099800D01*
X134899145Y-111285758D01*
X134899146Y-111285760D01*
X134956925Y-111463586D01*
X135050413Y-111625513D01*
X135175530Y-111764469D01*
X135326795Y-111874370D01*
X135326796Y-111874370D01*
X135326800Y-111874373D01*
X135412340Y-111912458D01*
X135497609Y-111950423D01*
X135497615Y-111950425D01*
X135680510Y-111989300D01*
X135680511Y-111989300D01*
X135867489Y-111989300D01*
X135867490Y-111989300D01*
X136050385Y-111950425D01*
X136050387Y-111950423D01*
X136050390Y-111950423D01*
X136073501Y-111940132D01*
X136221200Y-111874373D01*
X136372470Y-111764469D01*
X136497585Y-111625515D01*
X136591075Y-111463585D01*
X136648855Y-111285756D01*
X136668400Y-111099800D01*
X149879600Y-111099800D01*
X149899145Y-111285758D01*
X149899146Y-111285760D01*
X149956925Y-111463586D01*
X150050413Y-111625513D01*
X150175530Y-111764469D01*
X150326795Y-111874370D01*
X150326796Y-111874370D01*
X150326800Y-111874373D01*
X150412340Y-111912458D01*
X150497609Y-111950423D01*
X150497615Y-111950425D01*
X150680510Y-111989300D01*
X150680511Y-111989300D01*
X150867489Y-111989300D01*
X150867490Y-111989300D01*
X151050385Y-111950425D01*
X151050387Y-111950423D01*
X151050390Y-111950423D01*
X151073501Y-111940132D01*
X151221200Y-111874373D01*
X151372470Y-111764469D01*
X151497585Y-111625515D01*
X151591075Y-111463585D01*
X151648855Y-111285756D01*
X151668400Y-111099800D01*
X151648855Y-110913844D01*
X151591075Y-110736015D01*
X151497585Y-110574085D01*
X151372470Y-110435131D01*
X151372469Y-110435130D01*
X151221204Y-110325229D01*
X151221201Y-110325227D01*
X151221200Y-110325227D01*
X151175698Y-110304968D01*
X151050390Y-110249176D01*
X151050384Y-110249174D01*
X150906364Y-110218562D01*
X150867490Y-110210300D01*
X150680510Y-110210300D01*
X150648450Y-110217114D01*
X150497615Y-110249174D01*
X150497609Y-110249176D01*
X150326800Y-110325227D01*
X150326795Y-110325229D01*
X150175530Y-110435130D01*
X150050413Y-110574086D01*
X149956925Y-110736013D01*
X149899146Y-110913839D01*
X149899145Y-110913841D01*
X149879600Y-111099800D01*
X136668400Y-111099800D01*
X136648855Y-110913844D01*
X136591075Y-110736015D01*
X136497585Y-110574085D01*
X136372470Y-110435131D01*
X136372469Y-110435130D01*
X136221204Y-110325229D01*
X136221201Y-110325227D01*
X136221200Y-110325227D01*
X136175698Y-110304968D01*
X136050390Y-110249176D01*
X136050384Y-110249174D01*
X135906364Y-110218562D01*
X135867490Y-110210300D01*
X135680510Y-110210300D01*
X135648450Y-110217114D01*
X135497615Y-110249174D01*
X135497609Y-110249176D01*
X135326800Y-110325227D01*
X135326795Y-110325229D01*
X135175530Y-110435130D01*
X135050413Y-110574086D01*
X134956925Y-110736013D01*
X134899146Y-110913839D01*
X134899145Y-110913841D01*
X134879600Y-111099800D01*
X116701500Y-111099800D01*
X116701500Y-110287342D01*
X116694102Y-110250152D01*
X116693450Y-110249176D01*
X116665922Y-110207977D01*
X116623749Y-110179798D01*
X116586559Y-110172400D01*
X116586558Y-110172400D01*
X114961442Y-110172400D01*
X114961441Y-110172400D01*
X114924250Y-110179798D01*
X114882077Y-110207977D01*
X114853898Y-110250150D01*
X114846500Y-110287341D01*
X109200500Y-110287341D01*
X109200500Y-108073418D01*
X112746300Y-108073418D01*
X112746300Y-108226581D01*
X112776176Y-108376780D01*
X112776179Y-108376789D01*
X112834784Y-108518277D01*
X112834791Y-108518290D01*
X112919875Y-108645626D01*
X112919878Y-108645630D01*
X113028169Y-108753921D01*
X113028173Y-108753924D01*
X113155509Y-108839008D01*
X113155522Y-108839015D01*
X113248194Y-108877400D01*
X113297012Y-108897621D01*
X113297014Y-108897621D01*
X113297019Y-108897623D01*
X113447218Y-108927499D01*
X113447221Y-108927500D01*
X113447223Y-108927500D01*
X115100379Y-108927500D01*
X115100380Y-108927499D01*
X115150447Y-108917540D01*
X115250580Y-108897623D01*
X115250583Y-108897621D01*
X115250588Y-108897621D01*
X115392084Y-108839012D01*
X115519427Y-108753924D01*
X115627724Y-108645627D01*
X115712812Y-108518284D01*
X115771421Y-108376788D01*
X115771498Y-108376405D01*
X115801299Y-108226581D01*
X115801300Y-108226579D01*
X115801300Y-108073420D01*
X115801299Y-108073418D01*
X115771423Y-107923219D01*
X115771420Y-107923210D01*
X115712815Y-107781722D01*
X115712808Y-107781709D01*
X115627724Y-107654373D01*
X115627721Y-107654369D01*
X115519430Y-107546078D01*
X115519426Y-107546075D01*
X115392090Y-107460991D01*
X115392077Y-107460984D01*
X115250589Y-107402379D01*
X115250580Y-107402376D01*
X115100380Y-107372500D01*
X115100377Y-107372500D01*
X113447223Y-107372500D01*
X113447220Y-107372500D01*
X113297019Y-107402376D01*
X113297010Y-107402379D01*
X113155522Y-107460984D01*
X113155509Y-107460991D01*
X113028173Y-107546075D01*
X113028169Y-107546078D01*
X112919878Y-107654369D01*
X112919875Y-107654373D01*
X112834791Y-107781709D01*
X112834784Y-107781722D01*
X112776179Y-107923210D01*
X112776176Y-107923219D01*
X112746300Y-108073418D01*
X109200500Y-108073418D01*
X109200500Y-92873969D01*
X109220185Y-92806930D01*
X109272989Y-92761175D01*
X109342147Y-92751231D01*
X109405703Y-92780256D01*
X109423964Y-92799922D01*
X109474321Y-92867564D01*
X109474323Y-92867567D01*
X109594069Y-92994489D01*
X109706183Y-93113323D01*
X109706189Y-93113328D01*
X109706191Y-93113330D01*
X109965001Y-93330499D01*
X109965006Y-93330502D01*
X110247292Y-93516164D01*
X110549224Y-93667800D01*
X110866717Y-93783358D01*
X111195480Y-93861276D01*
X111531065Y-93900500D01*
X111531072Y-93900500D01*
X111868928Y-93900500D01*
X111868935Y-93900500D01*
X112204520Y-93861276D01*
X112533283Y-93783358D01*
X112850776Y-93667800D01*
X113152708Y-93516164D01*
X113434994Y-93330502D01*
X113437594Y-93328321D01*
X113609219Y-93184309D01*
X113693817Y-93113323D01*
X113925678Y-92867565D01*
X114127440Y-92596552D01*
X114242840Y-92396672D01*
X114293407Y-92348457D01*
X114362014Y-92335234D01*
X114426879Y-92361202D01*
X114467407Y-92418116D01*
X114474227Y-92458673D01*
X114474227Y-93688863D01*
X114474227Y-93814591D01*
X114491084Y-93877500D01*
X114506768Y-93936036D01*
X114506769Y-93936037D01*
X114569629Y-94044915D01*
X114569633Y-94044920D01*
X122386181Y-101861468D01*
X122419666Y-101922791D01*
X122422500Y-101949149D01*
X122422500Y-103450851D01*
X122402815Y-103517890D01*
X122386181Y-103538532D01*
X120617906Y-105306806D01*
X120617902Y-105306811D01*
X120555042Y-105415689D01*
X120555041Y-105415690D01*
X120539570Y-105473429D01*
X120522500Y-105537136D01*
X120522500Y-108662764D01*
X120546905Y-108753847D01*
X120555041Y-108784209D01*
X120555042Y-108784210D01*
X120617902Y-108893088D01*
X120617904Y-108893091D01*
X120617905Y-108893092D01*
X120706808Y-108981995D01*
X120815692Y-109044859D01*
X120937136Y-109077400D01*
X120937139Y-109077400D01*
X121062861Y-109077400D01*
X121062864Y-109077400D01*
X121184308Y-109044859D01*
X121293192Y-108981995D01*
X121382095Y-108893092D01*
X121435842Y-108800000D01*
X124768104Y-108800000D01*
X124785598Y-108921678D01*
X124785599Y-108921682D01*
X124836665Y-109033499D01*
X124836666Y-109033501D01*
X124917168Y-109126405D01*
X125020584Y-109192866D01*
X125138535Y-109227500D01*
X125261465Y-109227500D01*
X125379416Y-109192866D01*
X125482832Y-109126405D01*
X125563334Y-109033501D01*
X125604576Y-108943193D01*
X125614400Y-108921682D01*
X125614401Y-108921678D01*
X125631896Y-108800000D01*
X125614401Y-108678321D01*
X125614400Y-108678317D01*
X125581505Y-108606288D01*
X125563334Y-108566499D01*
X125482832Y-108473595D01*
X125379416Y-108407134D01*
X125261465Y-108372500D01*
X125138535Y-108372500D01*
X125020584Y-108407134D01*
X125020582Y-108407134D01*
X125020582Y-108407135D01*
X124917169Y-108473594D01*
X124836667Y-108566497D01*
X124836665Y-108566500D01*
X124785599Y-108678317D01*
X124785598Y-108678321D01*
X124768104Y-108800000D01*
X121435842Y-108800000D01*
X121444959Y-108784208D01*
X121477500Y-108662764D01*
X121477500Y-107941164D01*
X131546300Y-107941164D01*
X131546300Y-108118635D01*
X131574063Y-108293924D01*
X131574063Y-108293927D01*
X131628903Y-108462707D01*
X131667307Y-108538077D01*
X131707745Y-108617442D01*
X131709478Y-108620842D01*
X131813785Y-108764410D01*
X131813789Y-108764415D01*
X131939284Y-108889910D01*
X131939289Y-108889914D01*
X132039693Y-108962861D01*
X132082861Y-108994224D01*
X132240990Y-109074795D01*
X132240992Y-109074796D01*
X132409773Y-109129636D01*
X132409774Y-109129636D01*
X132409777Y-109129637D01*
X132585064Y-109157400D01*
X132585065Y-109157400D01*
X133962535Y-109157400D01*
X133962536Y-109157400D01*
X134137823Y-109129637D01*
X134137826Y-109129636D01*
X134137827Y-109129636D01*
X134306607Y-109074796D01*
X134306607Y-109074795D01*
X134306610Y-109074795D01*
X134464739Y-108994224D01*
X134608317Y-108889909D01*
X134733809Y-108764417D01*
X134838124Y-108620839D01*
X134918695Y-108462710D01*
X134929320Y-108430011D01*
X134973536Y-108293927D01*
X134973536Y-108293926D01*
X134973537Y-108293923D01*
X135001300Y-108118636D01*
X135001300Y-107941164D01*
X134973537Y-107765877D01*
X134973536Y-107765873D01*
X134973536Y-107765872D01*
X134919641Y-107600000D01*
X135368104Y-107600000D01*
X135385598Y-107721678D01*
X135385599Y-107721682D01*
X135428902Y-107816500D01*
X135436666Y-107833501D01*
X135517168Y-107926405D01*
X135620584Y-107992866D01*
X135738535Y-108027500D01*
X135861465Y-108027500D01*
X135979416Y-107992866D01*
X136082832Y-107926405D01*
X136163334Y-107833501D01*
X136213526Y-107723595D01*
X136214400Y-107721682D01*
X136214401Y-107721678D01*
X136224078Y-107654373D01*
X136231896Y-107600000D01*
X136214401Y-107478321D01*
X136214400Y-107478317D01*
X136179718Y-107402376D01*
X136163334Y-107366499D01*
X136082832Y-107273595D01*
X135979416Y-107207134D01*
X135861465Y-107172500D01*
X135738535Y-107172500D01*
X135620584Y-107207134D01*
X135620582Y-107207134D01*
X135620582Y-107207135D01*
X135517169Y-107273594D01*
X135436667Y-107366497D01*
X135436665Y-107366500D01*
X135385599Y-107478317D01*
X135385598Y-107478321D01*
X135368104Y-107600000D01*
X134919641Y-107600000D01*
X134918696Y-107597092D01*
X134892701Y-107546075D01*
X134838124Y-107438961D01*
X134811544Y-107402376D01*
X134733814Y-107295389D01*
X134733810Y-107295384D01*
X134608315Y-107169889D01*
X134608310Y-107169885D01*
X134512120Y-107100000D01*
X141668104Y-107100000D01*
X141685598Y-107221678D01*
X141685599Y-107221682D01*
X141736665Y-107333499D01*
X141736666Y-107333501D01*
X141817168Y-107426405D01*
X141920584Y-107492866D01*
X142038535Y-107527500D01*
X142161465Y-107527500D01*
X142279416Y-107492866D01*
X142382832Y-107426405D01*
X142463334Y-107333501D01*
X142514401Y-107221679D01*
X142531896Y-107100000D01*
X142514401Y-106978321D01*
X142514400Y-106978317D01*
X142463334Y-106866500D01*
X142463334Y-106866499D01*
X142382832Y-106773595D01*
X142279416Y-106707134D01*
X142161465Y-106672500D01*
X142038535Y-106672500D01*
X141920584Y-106707134D01*
X141920582Y-106707134D01*
X141920582Y-106707135D01*
X141817169Y-106773594D01*
X141736667Y-106866497D01*
X141736665Y-106866500D01*
X141685599Y-106978317D01*
X141685598Y-106978321D01*
X141668104Y-107100000D01*
X134512120Y-107100000D01*
X134464742Y-107065578D01*
X134464741Y-107065577D01*
X134464739Y-107065576D01*
X134385674Y-107025290D01*
X134306607Y-106985003D01*
X134137826Y-106930163D01*
X134006357Y-106909340D01*
X133962536Y-106902400D01*
X132585064Y-106902400D01*
X132526635Y-106911654D01*
X132409775Y-106930163D01*
X132409772Y-106930163D01*
X132240992Y-106985003D01*
X132082857Y-107065578D01*
X131939289Y-107169885D01*
X131939284Y-107169889D01*
X131813789Y-107295384D01*
X131813785Y-107295389D01*
X131709478Y-107438957D01*
X131628903Y-107597092D01*
X131574063Y-107765872D01*
X131574063Y-107765875D01*
X131546300Y-107941164D01*
X121477500Y-107941164D01*
X121477500Y-106400000D01*
X136968104Y-106400000D01*
X136985598Y-106521678D01*
X136985599Y-106521682D01*
X137036665Y-106633499D01*
X137036666Y-106633501D01*
X137117168Y-106726405D01*
X137220584Y-106792866D01*
X137338535Y-106827500D01*
X137461465Y-106827500D01*
X137579416Y-106792866D01*
X137682832Y-106726405D01*
X137763334Y-106633501D01*
X137814401Y-106521679D01*
X137831896Y-106400000D01*
X138568104Y-106400000D01*
X138585598Y-106521678D01*
X138585599Y-106521682D01*
X138636665Y-106633499D01*
X138636666Y-106633501D01*
X138717168Y-106726405D01*
X138820584Y-106792866D01*
X138938535Y-106827500D01*
X139061465Y-106827500D01*
X139179416Y-106792866D01*
X139282832Y-106726405D01*
X139363334Y-106633501D01*
X139414401Y-106521679D01*
X139431896Y-106400000D01*
X140168104Y-106400000D01*
X140185598Y-106521678D01*
X140185599Y-106521682D01*
X140236665Y-106633499D01*
X140236666Y-106633501D01*
X140317168Y-106726405D01*
X140420584Y-106792866D01*
X140538535Y-106827500D01*
X140661465Y-106827500D01*
X140779416Y-106792866D01*
X140882832Y-106726405D01*
X140963334Y-106633501D01*
X141014401Y-106521679D01*
X141031896Y-106400000D01*
X141014401Y-106278321D01*
X141014400Y-106278317D01*
X140963334Y-106166500D01*
X140963334Y-106166499D01*
X140882832Y-106073595D01*
X140779416Y-106007134D01*
X140661465Y-105972500D01*
X140538535Y-105972500D01*
X140420584Y-106007134D01*
X140420582Y-106007134D01*
X140420582Y-106007135D01*
X140317169Y-106073594D01*
X140236667Y-106166497D01*
X140236665Y-106166500D01*
X140185599Y-106278317D01*
X140185598Y-106278321D01*
X140168104Y-106400000D01*
X139431896Y-106400000D01*
X139414401Y-106278321D01*
X139414400Y-106278317D01*
X139363334Y-106166500D01*
X139363334Y-106166499D01*
X139282832Y-106073595D01*
X139179416Y-106007134D01*
X139061465Y-105972500D01*
X138938535Y-105972500D01*
X138820584Y-106007134D01*
X138820582Y-106007134D01*
X138820582Y-106007135D01*
X138717169Y-106073594D01*
X138636667Y-106166497D01*
X138636665Y-106166500D01*
X138585599Y-106278317D01*
X138585598Y-106278321D01*
X138568104Y-106400000D01*
X137831896Y-106400000D01*
X137814401Y-106278321D01*
X137814400Y-106278317D01*
X137763334Y-106166500D01*
X137763334Y-106166499D01*
X137682832Y-106073595D01*
X137579416Y-106007134D01*
X137461465Y-105972500D01*
X137338535Y-105972500D01*
X137220584Y-106007134D01*
X137220582Y-106007134D01*
X137220582Y-106007135D01*
X137117169Y-106073594D01*
X137036667Y-106166497D01*
X137036665Y-106166500D01*
X136985599Y-106278317D01*
X136985598Y-106278321D01*
X136968104Y-106400000D01*
X121477500Y-106400000D01*
X121477500Y-105849149D01*
X121497185Y-105782110D01*
X121513819Y-105761468D01*
X121875287Y-105400000D01*
X135568104Y-105400000D01*
X135585598Y-105521678D01*
X135585599Y-105521682D01*
X135623327Y-105604293D01*
X135636666Y-105633501D01*
X135717168Y-105726405D01*
X135820584Y-105792866D01*
X135938535Y-105827500D01*
X136061465Y-105827500D01*
X136179416Y-105792866D01*
X136282832Y-105726405D01*
X136363334Y-105633501D01*
X136414401Y-105521679D01*
X136431896Y-105400000D01*
X136414401Y-105278321D01*
X136414400Y-105278317D01*
X136370518Y-105182230D01*
X136363334Y-105166499D01*
X136282832Y-105073595D01*
X136179416Y-105007134D01*
X136061465Y-104972500D01*
X135938535Y-104972500D01*
X135820584Y-105007134D01*
X135820582Y-105007134D01*
X135820582Y-105007135D01*
X135717169Y-105073594D01*
X135636667Y-105166497D01*
X135636665Y-105166500D01*
X135585599Y-105278317D01*
X135585598Y-105278321D01*
X135568104Y-105400000D01*
X121875287Y-105400000D01*
X123061468Y-104213819D01*
X123122791Y-104180334D01*
X123149149Y-104177500D01*
X141787136Y-104177500D01*
X144000851Y-104177500D01*
X144067890Y-104197185D01*
X144088532Y-104213819D01*
X144936181Y-105061468D01*
X144969666Y-105122791D01*
X144972500Y-105149149D01*
X144972500Y-108400851D01*
X144952815Y-108467890D01*
X144936181Y-108488532D01*
X144188532Y-109236181D01*
X144127209Y-109269666D01*
X144100851Y-109272500D01*
X144044404Y-109272500D01*
X143977365Y-109252815D01*
X143931610Y-109200011D01*
X143921666Y-109130853D01*
X143950691Y-109067297D01*
X143977365Y-109044184D01*
X143979416Y-109042866D01*
X144082832Y-108976405D01*
X144163334Y-108883501D01*
X144207342Y-108787136D01*
X144214400Y-108771682D01*
X144214401Y-108771678D01*
X144222857Y-108712864D01*
X144231896Y-108650000D01*
X144214401Y-108528321D01*
X144214400Y-108528317D01*
X144175374Y-108442864D01*
X144163334Y-108416499D01*
X144082832Y-108323595D01*
X143979416Y-108257134D01*
X143861465Y-108222500D01*
X143738535Y-108222500D01*
X143620584Y-108257134D01*
X143620582Y-108257134D01*
X143620582Y-108257135D01*
X143517169Y-108323594D01*
X143436667Y-108416497D01*
X143436665Y-108416500D01*
X143385599Y-108528317D01*
X143385598Y-108528321D01*
X143368104Y-108650000D01*
X143385598Y-108771678D01*
X143385599Y-108771682D01*
X143433880Y-108877400D01*
X143436666Y-108883501D01*
X143517168Y-108976405D01*
X143620584Y-109042866D01*
X143622635Y-109044184D01*
X143668390Y-109096988D01*
X143678334Y-109166147D01*
X143649309Y-109229702D01*
X143590531Y-109267477D01*
X143555596Y-109272500D01*
X138049149Y-109272500D01*
X137982110Y-109252815D01*
X137961468Y-109236181D01*
X137411939Y-108686652D01*
X137392235Y-108660974D01*
X137332095Y-108556808D01*
X137243192Y-108467905D01*
X137243191Y-108467904D01*
X137243188Y-108467902D01*
X137134310Y-108405042D01*
X137134309Y-108405041D01*
X137103947Y-108396905D01*
X137012864Y-108372500D01*
X136887136Y-108372500D01*
X136814269Y-108392024D01*
X136765690Y-108405041D01*
X136765689Y-108405042D01*
X136656811Y-108467902D01*
X136656806Y-108467906D01*
X136567906Y-108556806D01*
X136567902Y-108556811D01*
X136505042Y-108665689D01*
X136505041Y-108665690D01*
X136497700Y-108693088D01*
X136472500Y-108787136D01*
X136472500Y-108837136D01*
X136472500Y-108962864D01*
X136493937Y-109042866D01*
X136505041Y-109084309D01*
X136505042Y-109084310D01*
X136567902Y-109193188D01*
X136567904Y-109193191D01*
X136567905Y-109193192D01*
X137506808Y-110132095D01*
X137615692Y-110194959D01*
X137737136Y-110227500D01*
X137737139Y-110227500D01*
X144412861Y-110227500D01*
X144412864Y-110227500D01*
X144534308Y-110194959D01*
X144643192Y-110132095D01*
X145832095Y-108943192D01*
X145894959Y-108834308D01*
X145927500Y-108712864D01*
X145927500Y-108587136D01*
X145927500Y-106352149D01*
X145947185Y-106285110D01*
X145999989Y-106239355D01*
X146069147Y-106229411D01*
X146132703Y-106258436D01*
X146139181Y-106264468D01*
X146456808Y-106582095D01*
X146565692Y-106644959D01*
X146687136Y-106677500D01*
X146812864Y-106677500D01*
X147429460Y-106677500D01*
X147496499Y-106697185D01*
X147542254Y-106749989D01*
X147552198Y-106819147D01*
X147523173Y-106882703D01*
X147464395Y-106920477D01*
X147448858Y-106923973D01*
X147409775Y-106930163D01*
X147409772Y-106930163D01*
X147240992Y-106985003D01*
X147082857Y-107065578D01*
X146939289Y-107169885D01*
X146939284Y-107169889D01*
X146813789Y-107295384D01*
X146813785Y-107295389D01*
X146709478Y-107438957D01*
X146628903Y-107597092D01*
X146574063Y-107765872D01*
X146574063Y-107765875D01*
X146546300Y-107941164D01*
X146546300Y-108118635D01*
X146574063Y-108293924D01*
X146574063Y-108293927D01*
X146628903Y-108462707D01*
X146667307Y-108538077D01*
X146707745Y-108617442D01*
X146709478Y-108620842D01*
X146813785Y-108764410D01*
X146813789Y-108764415D01*
X146939284Y-108889910D01*
X146939289Y-108889914D01*
X147039693Y-108962861D01*
X147082861Y-108994224D01*
X147240990Y-109074795D01*
X147240992Y-109074796D01*
X147409773Y-109129636D01*
X147409774Y-109129636D01*
X147409777Y-109129637D01*
X147585064Y-109157400D01*
X147585065Y-109157400D01*
X148962535Y-109157400D01*
X148962536Y-109157400D01*
X149137823Y-109129637D01*
X149137826Y-109129636D01*
X149137827Y-109129636D01*
X149306607Y-109074796D01*
X149306607Y-109074795D01*
X149306610Y-109074795D01*
X149464739Y-108994224D01*
X149608317Y-108889909D01*
X149733809Y-108764417D01*
X149838124Y-108620839D01*
X149918695Y-108462710D01*
X149929320Y-108430011D01*
X149973536Y-108293927D01*
X149973536Y-108293926D01*
X149973537Y-108293923D01*
X150001300Y-108118636D01*
X150001300Y-107941164D01*
X149973537Y-107765877D01*
X149973536Y-107765873D01*
X149973536Y-107765872D01*
X149918696Y-107597092D01*
X149892701Y-107546075D01*
X149838124Y-107438961D01*
X149811544Y-107402376D01*
X149733814Y-107295389D01*
X149733810Y-107295384D01*
X149608315Y-107169889D01*
X149608310Y-107169885D01*
X149464742Y-107065578D01*
X149464741Y-107065577D01*
X149464739Y-107065576D01*
X149385674Y-107025290D01*
X149306607Y-106985003D01*
X149137826Y-106930163D01*
X149098742Y-106923973D01*
X149035607Y-106894044D01*
X148998676Y-106834732D01*
X148999674Y-106764870D01*
X149038284Y-106706637D01*
X149102247Y-106678523D01*
X149118140Y-106677500D01*
X152650951Y-106677500D01*
X152717990Y-106697185D01*
X152738632Y-106713819D01*
X153486181Y-107461368D01*
X153519666Y-107522691D01*
X153522500Y-107549049D01*
X153522500Y-108462764D01*
X153546905Y-108553847D01*
X153555041Y-108584209D01*
X153555042Y-108584210D01*
X153617902Y-108693088D01*
X153617904Y-108693091D01*
X153617905Y-108693092D01*
X153706808Y-108781995D01*
X153706809Y-108781996D01*
X153706811Y-108781997D01*
X153761250Y-108813427D01*
X153815692Y-108844859D01*
X153937136Y-108877400D01*
X153937139Y-108877400D01*
X154062861Y-108877400D01*
X154062864Y-108877400D01*
X154184308Y-108844859D01*
X154293192Y-108781995D01*
X154382095Y-108693092D01*
X154444959Y-108584208D01*
X154477500Y-108462764D01*
X154477500Y-108050000D01*
X157768104Y-108050000D01*
X157785598Y-108171678D01*
X157785599Y-108171682D01*
X157824625Y-108257135D01*
X157836666Y-108283501D01*
X157917168Y-108376405D01*
X158020584Y-108442866D01*
X158138535Y-108477500D01*
X158261465Y-108477500D01*
X158379416Y-108442866D01*
X158482832Y-108376405D01*
X158563334Y-108283501D01*
X158614401Y-108171679D01*
X158631896Y-108050000D01*
X158614401Y-107928321D01*
X158614400Y-107928317D01*
X158571098Y-107833501D01*
X158563334Y-107816499D01*
X158482832Y-107723595D01*
X158379416Y-107657134D01*
X158261465Y-107622500D01*
X158138535Y-107622500D01*
X158020584Y-107657134D01*
X158020582Y-107657134D01*
X158020582Y-107657135D01*
X157917169Y-107723594D01*
X157836667Y-107816497D01*
X157836665Y-107816500D01*
X157785599Y-107928317D01*
X157785598Y-107928321D01*
X157768104Y-108050000D01*
X154477500Y-108050000D01*
X154477500Y-107237036D01*
X154444959Y-107115592D01*
X154382095Y-107006708D01*
X154293192Y-106917805D01*
X154264568Y-106889181D01*
X154231083Y-106827858D01*
X154236067Y-106758166D01*
X154277939Y-106702233D01*
X154343403Y-106677816D01*
X154352249Y-106677500D01*
X162150851Y-106677500D01*
X162217890Y-106697185D01*
X162238532Y-106713819D01*
X163286181Y-107761468D01*
X163319666Y-107822791D01*
X163322500Y-107849149D01*
X163322500Y-108378500D01*
X163302815Y-108445539D01*
X163250011Y-108491294D01*
X163198500Y-108502500D01*
X162937441Y-108502500D01*
X162900250Y-108509898D01*
X162858077Y-108538077D01*
X162829898Y-108580250D01*
X162822500Y-108617441D01*
X162822500Y-110342558D01*
X162829898Y-110379749D01*
X162858077Y-110421922D01*
X162900250Y-110450101D01*
X162900252Y-110450102D01*
X162928205Y-110455662D01*
X162937441Y-110457500D01*
X162937442Y-110457500D01*
X164662559Y-110457500D01*
X164669957Y-110456028D01*
X164699748Y-110450102D01*
X164741922Y-110421922D01*
X164770102Y-110379748D01*
X164777500Y-110342558D01*
X164777500Y-108617442D01*
X164770102Y-108580252D01*
X164770101Y-108580250D01*
X164741922Y-108538077D01*
X164699749Y-108509898D01*
X164662559Y-108502500D01*
X164662558Y-108502500D01*
X164401500Y-108502500D01*
X164334461Y-108482815D01*
X164288706Y-108430011D01*
X164277500Y-108378500D01*
X164277500Y-107537138D01*
X164277500Y-107537136D01*
X164244959Y-107415692D01*
X164197505Y-107333499D01*
X164182097Y-107306811D01*
X164182093Y-107306806D01*
X162693193Y-105817906D01*
X162693188Y-105817902D01*
X162584310Y-105755042D01*
X162584309Y-105755041D01*
X162553947Y-105746905D01*
X162462864Y-105722500D01*
X153975828Y-105722500D01*
X153908789Y-105702815D01*
X153863034Y-105650011D01*
X153853090Y-105580853D01*
X153882115Y-105517297D01*
X153940893Y-105479523D01*
X153943734Y-105478725D01*
X153963486Y-105473432D01*
X153963492Y-105473429D01*
X154177578Y-105373600D01*
X154371082Y-105238105D01*
X154538105Y-105071082D01*
X154673600Y-104877578D01*
X154773429Y-104663492D01*
X154773432Y-104663486D01*
X154830636Y-104450000D01*
X153933012Y-104450000D01*
X153965925Y-104392993D01*
X154000000Y-104265826D01*
X154000000Y-104134174D01*
X153965925Y-104007007D01*
X153933012Y-103950000D01*
X154830636Y-103950000D01*
X154830635Y-103949999D01*
X154773432Y-103736513D01*
X154773429Y-103736507D01*
X154673600Y-103522422D01*
X154673599Y-103522420D01*
X154538113Y-103328926D01*
X154538108Y-103328920D01*
X154371082Y-103161894D01*
X154282690Y-103100000D01*
X155968104Y-103100000D01*
X155985598Y-103221678D01*
X155985599Y-103221682D01*
X156034574Y-103328920D01*
X156036666Y-103333501D01*
X156117168Y-103426405D01*
X156220584Y-103492866D01*
X156338535Y-103527500D01*
X156461465Y-103527500D01*
X156579416Y-103492866D01*
X156682832Y-103426405D01*
X156763334Y-103333501D01*
X156814401Y-103221679D01*
X156831896Y-103100000D01*
X156814401Y-102978321D01*
X156814400Y-102978317D01*
X156763334Y-102866500D01*
X156763334Y-102866499D01*
X156682832Y-102773595D01*
X156579416Y-102707134D01*
X156461465Y-102672500D01*
X156338535Y-102672500D01*
X156220584Y-102707134D01*
X156220582Y-102707134D01*
X156220582Y-102707135D01*
X156117169Y-102773594D01*
X156036667Y-102866497D01*
X156036665Y-102866500D01*
X155985599Y-102978317D01*
X155985598Y-102978321D01*
X155968104Y-103100000D01*
X154282690Y-103100000D01*
X154177578Y-103026399D01*
X153963492Y-102926570D01*
X153963486Y-102926567D01*
X153750000Y-102869364D01*
X153750000Y-103766988D01*
X153692993Y-103734075D01*
X153565826Y-103700000D01*
X153434174Y-103700000D01*
X153307007Y-103734075D01*
X153250000Y-103766988D01*
X153250000Y-102869364D01*
X153249999Y-102869364D01*
X153036513Y-102926567D01*
X153036507Y-102926570D01*
X152822422Y-103026399D01*
X152822420Y-103026400D01*
X152628926Y-103161886D01*
X152628920Y-103161891D01*
X152461891Y-103328920D01*
X152461886Y-103328926D01*
X152326400Y-103522420D01*
X152326399Y-103522422D01*
X152226570Y-103736507D01*
X152226566Y-103736516D01*
X152165432Y-103964673D01*
X152165431Y-103964681D01*
X152164199Y-103978757D01*
X152138743Y-104043825D01*
X152082150Y-104084801D01*
X152012388Y-104088675D01*
X151951605Y-104054219D01*
X151922012Y-104003942D01*
X151867462Y-103824117D01*
X151867460Y-103824114D01*
X151867460Y-103824112D01*
X151776697Y-103654307D01*
X151776693Y-103654300D01*
X151654541Y-103505458D01*
X151505699Y-103383306D01*
X151505692Y-103383302D01*
X151335884Y-103292538D01*
X151151626Y-103236643D01*
X150960000Y-103217770D01*
X150768373Y-103236643D01*
X150584115Y-103292538D01*
X150414307Y-103383302D01*
X150414300Y-103383306D01*
X150265458Y-103505458D01*
X150143306Y-103654300D01*
X150143302Y-103654307D01*
X150052538Y-103824115D01*
X149996643Y-104008373D01*
X149977770Y-104200000D01*
X149996643Y-104391626D01*
X150052538Y-104575884D01*
X150143302Y-104745692D01*
X150143306Y-104745699D01*
X150265458Y-104894541D01*
X150414300Y-105016693D01*
X150414307Y-105016697D01*
X150520754Y-105073594D01*
X150584117Y-105107462D01*
X150768376Y-105163357D01*
X150960000Y-105182230D01*
X151151624Y-105163357D01*
X151335883Y-105107462D01*
X151505698Y-105016694D01*
X151654541Y-104894541D01*
X151776694Y-104745698D01*
X151867462Y-104575883D01*
X151922012Y-104396056D01*
X151960308Y-104337621D01*
X152024120Y-104309165D01*
X152093187Y-104319725D01*
X152145581Y-104365949D01*
X152164199Y-104421242D01*
X152165431Y-104435318D01*
X152165432Y-104435326D01*
X152226566Y-104663483D01*
X152226570Y-104663492D01*
X152326399Y-104877578D01*
X152461894Y-105071082D01*
X152628917Y-105238105D01*
X152822421Y-105373600D01*
X153036507Y-105473429D01*
X153036516Y-105473433D01*
X153154634Y-105505082D01*
X153214294Y-105541447D01*
X153244824Y-105604293D01*
X153236530Y-105673669D01*
X153192045Y-105727547D01*
X153154639Y-105744631D01*
X153132198Y-105750645D01*
X153068007Y-105750646D01*
X153009167Y-105734880D01*
X152962964Y-105722500D01*
X152962963Y-105722500D01*
X146999149Y-105722500D01*
X146932110Y-105702815D01*
X146911468Y-105686181D01*
X145012968Y-103787681D01*
X144979483Y-103726358D01*
X144984467Y-103656666D01*
X145012968Y-103612319D01*
X145287846Y-103337441D01*
X147442500Y-103337441D01*
X147442500Y-105062558D01*
X147449898Y-105099749D01*
X147478077Y-105141922D01*
X147520250Y-105170101D01*
X147520252Y-105170102D01*
X147548205Y-105175662D01*
X147557441Y-105177500D01*
X147557442Y-105177500D01*
X149282559Y-105177500D01*
X149289957Y-105176028D01*
X149319748Y-105170102D01*
X149361922Y-105141922D01*
X149390102Y-105099748D01*
X149397500Y-105062558D01*
X149397500Y-103337442D01*
X149390102Y-103300252D01*
X149384948Y-103292538D01*
X149361922Y-103258077D01*
X149319749Y-103229898D01*
X149282559Y-103222500D01*
X149282558Y-103222500D01*
X147557442Y-103222500D01*
X147557441Y-103222500D01*
X147520250Y-103229898D01*
X147478077Y-103258077D01*
X147449898Y-103300250D01*
X147442500Y-103337441D01*
X145287846Y-103337441D01*
X147347787Y-101277500D01*
X147775287Y-100850000D01*
X153868104Y-100850000D01*
X153885598Y-100971678D01*
X153885599Y-100971682D01*
X153934300Y-101078321D01*
X153936666Y-101083501D01*
X154017168Y-101176405D01*
X154120584Y-101242866D01*
X154238535Y-101277500D01*
X154361465Y-101277500D01*
X154479416Y-101242866D01*
X154582832Y-101176405D01*
X154631451Y-101120295D01*
X154690227Y-101082523D01*
X154725162Y-101077500D01*
X159954405Y-101077500D01*
X160021444Y-101097185D01*
X160042086Y-101113819D01*
X166486181Y-107557914D01*
X166519666Y-107619237D01*
X166522500Y-107645595D01*
X166522500Y-110554404D01*
X166502815Y-110621443D01*
X166486181Y-110642085D01*
X165372086Y-111756181D01*
X165310763Y-111789666D01*
X165284405Y-111792500D01*
X164844438Y-111792500D01*
X164777399Y-111772815D01*
X164731644Y-111720011D01*
X164725780Y-111704504D01*
X164707462Y-111644117D01*
X164707460Y-111644114D01*
X164707460Y-111644112D01*
X164616697Y-111474307D01*
X164616693Y-111474300D01*
X164494541Y-111325458D01*
X164345699Y-111203306D01*
X164345692Y-111203302D01*
X164175884Y-111112538D01*
X163991626Y-111056643D01*
X163800000Y-111037770D01*
X163608373Y-111056643D01*
X163424115Y-111112538D01*
X163254307Y-111203302D01*
X163254300Y-111203306D01*
X163105458Y-111325458D01*
X162983306Y-111474300D01*
X162983302Y-111474307D01*
X162892538Y-111644115D01*
X162836643Y-111828373D01*
X162817770Y-112020000D01*
X162836643Y-112211626D01*
X162892538Y-112395884D01*
X162983302Y-112565692D01*
X162983306Y-112565699D01*
X163105458Y-112714541D01*
X163254300Y-112836693D01*
X163254307Y-112836697D01*
X163385717Y-112906937D01*
X163424117Y-112927462D01*
X163608376Y-112983357D01*
X163800000Y-113002230D01*
X163991624Y-112983357D01*
X164175883Y-112927462D01*
X164345698Y-112836694D01*
X164494541Y-112714541D01*
X164616694Y-112565698D01*
X164707462Y-112395883D01*
X164725778Y-112335503D01*
X164764075Y-112277066D01*
X164827887Y-112248610D01*
X164844438Y-112247500D01*
X165475252Y-112247500D01*
X165475253Y-112247500D01*
X165558868Y-112212865D01*
X166942866Y-110828868D01*
X166942866Y-110828866D01*
X166942868Y-110828865D01*
X166960183Y-110787060D01*
X166977500Y-110745253D01*
X166977500Y-110654747D01*
X166977500Y-107454747D01*
X166942865Y-107371132D01*
X166878868Y-107307135D01*
X163575672Y-104003939D01*
X160228870Y-100657136D01*
X160194417Y-100642865D01*
X160145253Y-100622500D01*
X154725162Y-100622500D01*
X154658123Y-100602815D01*
X154631452Y-100579706D01*
X154582832Y-100523595D01*
X154479416Y-100457134D01*
X154361465Y-100422500D01*
X154238535Y-100422500D01*
X154120584Y-100457134D01*
X154120582Y-100457134D01*
X154120582Y-100457135D01*
X154017169Y-100523594D01*
X153936667Y-100616497D01*
X153936665Y-100616500D01*
X153885599Y-100728317D01*
X153885598Y-100728321D01*
X153868104Y-100850000D01*
X147775287Y-100850000D01*
X149732095Y-98893192D01*
X149794959Y-98784308D01*
X149827500Y-98662864D01*
X149827500Y-98537136D01*
X149827500Y-95846075D01*
X149847185Y-95779036D01*
X149899989Y-95733281D01*
X149925141Y-95724909D01*
X149925993Y-95724723D01*
X149955677Y-95718266D01*
X150014280Y-95688931D01*
X150067084Y-95643176D01*
X150107448Y-95580370D01*
X150127133Y-95513331D01*
X150132500Y-95476000D01*
X150132500Y-92751362D01*
X150131741Y-92737197D01*
X150128907Y-92710839D01*
X150113458Y-92661503D01*
X150079973Y-92600180D01*
X150077257Y-92596552D01*
X150057380Y-92569998D01*
X150057378Y-92569995D01*
X150057373Y-92569989D01*
X149868819Y-92381435D01*
X149835334Y-92320112D01*
X149832500Y-92293754D01*
X149832500Y-91701500D01*
X149852185Y-91634461D01*
X149904989Y-91588706D01*
X149956500Y-91577500D01*
X167712861Y-91577500D01*
X167712864Y-91577500D01*
X167834308Y-91544959D01*
X167943192Y-91482095D01*
X168488319Y-90936968D01*
X168549642Y-90903483D01*
X168619334Y-90908467D01*
G37*
G04 #@! TD.AperFunction*
G04 #@! TA.AperFunction,Conductor*
G36*
X115324575Y-81530185D02*
G01*
X115370330Y-81582989D01*
X115380274Y-81652147D01*
X115351249Y-81715703D01*
X115326426Y-81737603D01*
X115310243Y-81748415D01*
X115208916Y-81849742D01*
X115208913Y-81849746D01*
X115129301Y-81968893D01*
X115129296Y-81968903D01*
X115074457Y-82101295D01*
X115074455Y-82101303D01*
X115046500Y-82241843D01*
X115046500Y-82985156D01*
X115074455Y-83125696D01*
X115074457Y-83125704D01*
X115129296Y-83258096D01*
X115129301Y-83258106D01*
X115208913Y-83377253D01*
X115208916Y-83377257D01*
X115310242Y-83478583D01*
X115310246Y-83478586D01*
X115429393Y-83558198D01*
X115429397Y-83558200D01*
X115429400Y-83558202D01*
X115561796Y-83613043D01*
X115702343Y-83640999D01*
X115702347Y-83641000D01*
X115702348Y-83641000D01*
X115845653Y-83641000D01*
X115845654Y-83640999D01*
X115986204Y-83613043D01*
X116118600Y-83558202D01*
X116237754Y-83478586D01*
X116339086Y-83377254D01*
X116418702Y-83258100D01*
X116473543Y-83125704D01*
X116501500Y-82985152D01*
X116501500Y-82241848D01*
X116473543Y-82101296D01*
X116418702Y-81968900D01*
X116418700Y-81968897D01*
X116418698Y-81968893D01*
X116339086Y-81849746D01*
X116339083Y-81849742D01*
X116237756Y-81748415D01*
X116221574Y-81737603D01*
X116176768Y-81683990D01*
X116168061Y-81614666D01*
X116198215Y-81551638D01*
X116257658Y-81514918D01*
X116290464Y-81510500D01*
X123907536Y-81510500D01*
X123974575Y-81530185D01*
X124020330Y-81582989D01*
X124030274Y-81652147D01*
X124001249Y-81715703D01*
X123976426Y-81737603D01*
X123960243Y-81748415D01*
X123858916Y-81849742D01*
X123858913Y-81849746D01*
X123779301Y-81968893D01*
X123779296Y-81968903D01*
X123724457Y-82101295D01*
X123724455Y-82101303D01*
X123696500Y-82241843D01*
X123696500Y-82985156D01*
X123724455Y-83125696D01*
X123724457Y-83125704D01*
X123779296Y-83258096D01*
X123779301Y-83258106D01*
X123858913Y-83377253D01*
X123858916Y-83377257D01*
X123960242Y-83478583D01*
X123960246Y-83478586D01*
X124079393Y-83558198D01*
X124079397Y-83558200D01*
X124079400Y-83558202D01*
X124211796Y-83613043D01*
X124352343Y-83640999D01*
X124352347Y-83641000D01*
X124352348Y-83641000D01*
X124495653Y-83641000D01*
X124495654Y-83640999D01*
X124636204Y-83613043D01*
X124768600Y-83558202D01*
X124887754Y-83478586D01*
X124989086Y-83377254D01*
X125068702Y-83258100D01*
X125123543Y-83125704D01*
X125151500Y-82985152D01*
X125151500Y-82241848D01*
X125123543Y-82101296D01*
X125068702Y-81968900D01*
X125068700Y-81968897D01*
X125068698Y-81968893D01*
X124989086Y-81849746D01*
X124989083Y-81849742D01*
X124887756Y-81748415D01*
X124871574Y-81737603D01*
X124826768Y-81683990D01*
X124818061Y-81614666D01*
X124848215Y-81551638D01*
X124907658Y-81514918D01*
X124940464Y-81510500D01*
X135257536Y-81510500D01*
X135324575Y-81530185D01*
X135370330Y-81582989D01*
X135380274Y-81652147D01*
X135351249Y-81715703D01*
X135326426Y-81737603D01*
X135310243Y-81748415D01*
X135208916Y-81849742D01*
X135208913Y-81849746D01*
X135129301Y-81968893D01*
X135129296Y-81968903D01*
X135074457Y-82101295D01*
X135074455Y-82101303D01*
X135046500Y-82241843D01*
X135046500Y-82985156D01*
X135074455Y-83125696D01*
X135074457Y-83125704D01*
X135129296Y-83258096D01*
X135129301Y-83258106D01*
X135208913Y-83377253D01*
X135208916Y-83377257D01*
X135310242Y-83478583D01*
X135310246Y-83478586D01*
X135429393Y-83558198D01*
X135429397Y-83558200D01*
X135429400Y-83558202D01*
X135561796Y-83613043D01*
X135702343Y-83640999D01*
X135702347Y-83641000D01*
X135702348Y-83641000D01*
X135845653Y-83641000D01*
X135845654Y-83640999D01*
X135986204Y-83613043D01*
X136118600Y-83558202D01*
X136237754Y-83478586D01*
X136339086Y-83377254D01*
X136418702Y-83258100D01*
X136473543Y-83125704D01*
X136501500Y-82985152D01*
X136501500Y-82241848D01*
X136473543Y-82101296D01*
X136418702Y-81968900D01*
X136418700Y-81968897D01*
X136418698Y-81968893D01*
X136339086Y-81849746D01*
X136339083Y-81849742D01*
X136237756Y-81748415D01*
X136221574Y-81737603D01*
X136176768Y-81683990D01*
X136168061Y-81614666D01*
X136198215Y-81551638D01*
X136257658Y-81514918D01*
X136290464Y-81510500D01*
X143907536Y-81510500D01*
X143974575Y-81530185D01*
X144020330Y-81582989D01*
X144030274Y-81652147D01*
X144001249Y-81715703D01*
X143976426Y-81737603D01*
X143960243Y-81748415D01*
X143858916Y-81849742D01*
X143858913Y-81849746D01*
X143779301Y-81968893D01*
X143779296Y-81968903D01*
X143724457Y-82101295D01*
X143724455Y-82101303D01*
X143696500Y-82241843D01*
X143696500Y-82985156D01*
X143724455Y-83125696D01*
X143724457Y-83125704D01*
X143779296Y-83258096D01*
X143779301Y-83258106D01*
X143858913Y-83377253D01*
X143858916Y-83377257D01*
X143960242Y-83478583D01*
X143960246Y-83478586D01*
X144079393Y-83558198D01*
X144079397Y-83558200D01*
X144079400Y-83558202D01*
X144211796Y-83613043D01*
X144352343Y-83640999D01*
X144352347Y-83641000D01*
X144352348Y-83641000D01*
X144495653Y-83641000D01*
X144495654Y-83640999D01*
X144636204Y-83613043D01*
X144768600Y-83558202D01*
X144887754Y-83478586D01*
X144989086Y-83377254D01*
X145068702Y-83258100D01*
X145123543Y-83125704D01*
X145151500Y-82985152D01*
X145151500Y-82241848D01*
X145123543Y-82101296D01*
X145068702Y-81968900D01*
X145068700Y-81968897D01*
X145068698Y-81968893D01*
X144989086Y-81849746D01*
X144989083Y-81849742D01*
X144887756Y-81748415D01*
X144871574Y-81737603D01*
X144826768Y-81683990D01*
X144818061Y-81614666D01*
X144848215Y-81551638D01*
X144907658Y-81514918D01*
X144940464Y-81510500D01*
X168576000Y-81510500D01*
X168643039Y-81530185D01*
X168688794Y-81582989D01*
X168700000Y-81634500D01*
X168700000Y-89323351D01*
X168680315Y-89390390D01*
X168663681Y-89411032D01*
X167488532Y-90586181D01*
X167427209Y-90619666D01*
X167400851Y-90622500D01*
X149956500Y-90622500D01*
X149889461Y-90602815D01*
X149843706Y-90550011D01*
X149832500Y-90498500D01*
X149832500Y-88906245D01*
X149852185Y-88839206D01*
X149868819Y-88818564D01*
X150186719Y-88500664D01*
X150557373Y-88130011D01*
X150566852Y-88119458D01*
X150583486Y-88098816D01*
X150607448Y-88053008D01*
X150627133Y-87985969D01*
X150632500Y-87948638D01*
X150632500Y-85724000D01*
X150629472Y-85695834D01*
X150618266Y-85644323D01*
X150588931Y-85585720D01*
X150588930Y-85585718D01*
X150569577Y-85563384D01*
X150543176Y-85532916D01*
X150543173Y-85532914D01*
X150543172Y-85532913D01*
X150480374Y-85492554D01*
X150480372Y-85492553D01*
X150480371Y-85492552D01*
X150480370Y-85492552D01*
X150413331Y-85472867D01*
X150413328Y-85472866D01*
X150376003Y-85467500D01*
X150376000Y-85467500D01*
X146801362Y-85467500D01*
X146792863Y-85467955D01*
X146787191Y-85468259D01*
X146760849Y-85471091D01*
X146760829Y-85471095D01*
X146711508Y-85486539D01*
X146650178Y-85520027D01*
X146619998Y-85542619D01*
X146619983Y-85542632D01*
X146492640Y-85669975D01*
X146492614Y-85670002D01*
X146483139Y-85680552D01*
X146466516Y-85701181D01*
X146466510Y-85701189D01*
X146442551Y-85746992D01*
X146442550Y-85746993D01*
X146422866Y-85814031D01*
X146417500Y-85851358D01*
X146417500Y-89043754D01*
X146397815Y-89110793D01*
X146381181Y-89131435D01*
X145381435Y-90131181D01*
X145320112Y-90164666D01*
X145293754Y-90167500D01*
X141673997Y-90167500D01*
X141645834Y-90170527D01*
X141594321Y-90181734D01*
X141535718Y-90211069D01*
X141482916Y-90256824D01*
X141482913Y-90256827D01*
X141442554Y-90319625D01*
X141442553Y-90319627D01*
X141422866Y-90386671D01*
X141417500Y-90423996D01*
X141417500Y-91748629D01*
X141418259Y-91762808D01*
X141421091Y-91789150D01*
X141421095Y-91789170D01*
X141436539Y-91838491D01*
X141470027Y-91899821D01*
X141492619Y-91930001D01*
X141492622Y-91930005D01*
X141492627Y-91930011D01*
X141719989Y-92157373D01*
X141730542Y-92166852D01*
X141751184Y-92183486D01*
X141751187Y-92183487D01*
X141751189Y-92183489D01*
X141796992Y-92207448D01*
X141796993Y-92207449D01*
X141844347Y-92221353D01*
X141864031Y-92227133D01*
X141864029Y-92227133D01*
X141879094Y-92229298D01*
X141901362Y-92232500D01*
X146743754Y-92232500D01*
X146810793Y-92252185D01*
X146831435Y-92268819D01*
X148181181Y-93618565D01*
X148214666Y-93679888D01*
X148217500Y-93706246D01*
X148217500Y-95476002D01*
X148220527Y-95504165D01*
X148231734Y-95555678D01*
X148261069Y-95614281D01*
X148277722Y-95633499D01*
X148306824Y-95667084D01*
X148306826Y-95667085D01*
X148306827Y-95667086D01*
X148340817Y-95688931D01*
X148369630Y-95707448D01*
X148436669Y-95727133D01*
X148474000Y-95732500D01*
X148748500Y-95732500D01*
X148815539Y-95752185D01*
X148861294Y-95804989D01*
X148872500Y-95856500D01*
X148872500Y-98350851D01*
X148852815Y-98417890D01*
X148836181Y-98438532D01*
X144088532Y-103186181D01*
X144027209Y-103219666D01*
X144000851Y-103222500D01*
X133568960Y-103222500D01*
X133501921Y-103202815D01*
X133456166Y-103150011D01*
X133446222Y-103080853D01*
X133460697Y-103042045D01*
X133459650Y-103041567D01*
X133514400Y-102921682D01*
X133514401Y-102921678D01*
X133531896Y-102800000D01*
X133514401Y-102678321D01*
X133514400Y-102678317D01*
X133463334Y-102566500D01*
X133463334Y-102566499D01*
X133382832Y-102473595D01*
X133279416Y-102407134D01*
X133161465Y-102372500D01*
X133038535Y-102372500D01*
X132920584Y-102407134D01*
X132920582Y-102407134D01*
X132920582Y-102407135D01*
X132817169Y-102473594D01*
X132736667Y-102566497D01*
X132736665Y-102566500D01*
X132685599Y-102678317D01*
X132685598Y-102678321D01*
X132668104Y-102800000D01*
X132685598Y-102921678D01*
X132685599Y-102921682D01*
X132740350Y-103041567D01*
X132738561Y-103042383D01*
X132755040Y-103098498D01*
X132735357Y-103165538D01*
X132682553Y-103211293D01*
X132631040Y-103222500D01*
X123501500Y-103222500D01*
X123434461Y-103202815D01*
X123388706Y-103150011D01*
X123377500Y-103098500D01*
X123377500Y-101637138D01*
X123377500Y-101637136D01*
X123344959Y-101515692D01*
X123282095Y-101406808D01*
X123193192Y-101317905D01*
X120375287Y-98500000D01*
X122368104Y-98500000D01*
X122385598Y-98621678D01*
X122385599Y-98621682D01*
X122411466Y-98678321D01*
X122436666Y-98733501D01*
X122517168Y-98826405D01*
X122620584Y-98892866D01*
X122738535Y-98927500D01*
X122854405Y-98927500D01*
X122921444Y-98947185D01*
X122942086Y-98963819D01*
X124557135Y-100578868D01*
X124621132Y-100642865D01*
X124704747Y-100677500D01*
X124704748Y-100677500D01*
X128215563Y-100677500D01*
X128282602Y-100697185D01*
X128328357Y-100749989D01*
X128338301Y-100819147D01*
X128309276Y-100882703D01*
X128236667Y-100966497D01*
X128236665Y-100966500D01*
X128185599Y-101078317D01*
X128185598Y-101078321D01*
X128168104Y-101200000D01*
X128185598Y-101321678D01*
X128185599Y-101321682D01*
X128224477Y-101406811D01*
X128236666Y-101433501D01*
X128317168Y-101526405D01*
X128347167Y-101545684D01*
X128392922Y-101598488D01*
X128402866Y-101667647D01*
X128373841Y-101731203D01*
X128347167Y-101754316D01*
X128317169Y-101773594D01*
X128236667Y-101866497D01*
X128236665Y-101866500D01*
X128185599Y-101978317D01*
X128185598Y-101978321D01*
X128168104Y-102100000D01*
X128185598Y-102221678D01*
X128185599Y-102221682D01*
X128236665Y-102333499D01*
X128236666Y-102333501D01*
X128317168Y-102426405D01*
X128420584Y-102492866D01*
X128538535Y-102527500D01*
X128661465Y-102527500D01*
X128779416Y-102492866D01*
X128882832Y-102426405D01*
X128963334Y-102333501D01*
X129014401Y-102221679D01*
X129031896Y-102100000D01*
X129014401Y-101978321D01*
X129014400Y-101978317D01*
X128963334Y-101866500D01*
X128963334Y-101866499D01*
X128882832Y-101773595D01*
X128852832Y-101754315D01*
X128807077Y-101701513D01*
X128797133Y-101632355D01*
X128826157Y-101568799D01*
X128852833Y-101545684D01*
X128882832Y-101526405D01*
X128963334Y-101433501D01*
X129014401Y-101321679D01*
X129031896Y-101200000D01*
X129014401Y-101078321D01*
X129014400Y-101078317D01*
X128965701Y-100971682D01*
X128963334Y-100966499D01*
X128890723Y-100882702D01*
X128861699Y-100819147D01*
X128871643Y-100749989D01*
X128917397Y-100697185D01*
X128984437Y-100677500D01*
X132845252Y-100677500D01*
X132845253Y-100677500D01*
X132928868Y-100642865D01*
X133771734Y-99800000D01*
X134668104Y-99800000D01*
X134685598Y-99921678D01*
X134685599Y-99921682D01*
X134729266Y-100017297D01*
X134736666Y-100033501D01*
X134817168Y-100126405D01*
X134920584Y-100192866D01*
X135038535Y-100227500D01*
X135161465Y-100227500D01*
X135279416Y-100192866D01*
X135382832Y-100126405D01*
X135463334Y-100033501D01*
X135514401Y-99921679D01*
X135531896Y-99800000D01*
X135514401Y-99678321D01*
X135514400Y-99678317D01*
X135471098Y-99583501D01*
X135463334Y-99566499D01*
X135382832Y-99473595D01*
X135279416Y-99407134D01*
X135161465Y-99372500D01*
X135038535Y-99372500D01*
X134920584Y-99407134D01*
X134920582Y-99407134D01*
X134920582Y-99407135D01*
X134817169Y-99473594D01*
X134736667Y-99566497D01*
X134736665Y-99566500D01*
X134685599Y-99678317D01*
X134685598Y-99678321D01*
X134668104Y-99800000D01*
X133771734Y-99800000D01*
X134607915Y-98963819D01*
X134669238Y-98930334D01*
X134695596Y-98927500D01*
X138754405Y-98927500D01*
X138821444Y-98947185D01*
X138842086Y-98963819D01*
X139038061Y-99159794D01*
X139071546Y-99221117D01*
X139073118Y-99265120D01*
X139068104Y-99299997D01*
X139068104Y-99299999D01*
X139085598Y-99421678D01*
X139085599Y-99421682D01*
X139136665Y-99533499D01*
X139136666Y-99533501D01*
X139217168Y-99626405D01*
X139320584Y-99692866D01*
X139438535Y-99727500D01*
X139561466Y-99727500D01*
X139610628Y-99713063D01*
X139636311Y-99705522D01*
X139671246Y-99700500D01*
X140919807Y-99700500D01*
X140986846Y-99720185D01*
X141032601Y-99772989D01*
X141042545Y-99842147D01*
X141013520Y-99905703D01*
X140986846Y-99928816D01*
X140917169Y-99973594D01*
X140836667Y-100066497D01*
X140836665Y-100066500D01*
X140785599Y-100178317D01*
X140785598Y-100178321D01*
X140768104Y-100300000D01*
X140785598Y-100421678D01*
X140785599Y-100421682D01*
X140832142Y-100523595D01*
X140836666Y-100533501D01*
X140917168Y-100626405D01*
X141020584Y-100692866D01*
X141138535Y-100727500D01*
X141261465Y-100727500D01*
X141379416Y-100692866D01*
X141482832Y-100626405D01*
X141563334Y-100533501D01*
X141614401Y-100421679D01*
X141631896Y-100300000D01*
X141614401Y-100178321D01*
X141614400Y-100178317D01*
X141563334Y-100066500D01*
X141563334Y-100066499D01*
X141482832Y-99973595D01*
X141413153Y-99928815D01*
X141367399Y-99876012D01*
X141357455Y-99806853D01*
X141386480Y-99743297D01*
X141445258Y-99705523D01*
X141480193Y-99700500D01*
X141773859Y-99700500D01*
X141840898Y-99720185D01*
X141886653Y-99772989D01*
X141896597Y-99842147D01*
X141886653Y-99876011D01*
X141885600Y-99878314D01*
X141885598Y-99878321D01*
X141868104Y-100000000D01*
X141885598Y-100121678D01*
X141885599Y-100121682D01*
X141922652Y-100202815D01*
X141936666Y-100233501D01*
X142017168Y-100326405D01*
X142120584Y-100392866D01*
X142238535Y-100427500D01*
X142361465Y-100427500D01*
X142479416Y-100392866D01*
X142582832Y-100326405D01*
X142663334Y-100233501D01*
X142714401Y-100121679D01*
X142731896Y-100000000D01*
X142714401Y-99878321D01*
X142714399Y-99878314D01*
X142713347Y-99876011D01*
X142712986Y-99873503D01*
X142711902Y-99869810D01*
X142712432Y-99869654D01*
X142703403Y-99806853D01*
X142732428Y-99743297D01*
X142791206Y-99705523D01*
X142826141Y-99700500D01*
X146118251Y-99700500D01*
X146185290Y-99720184D01*
X146220584Y-99742866D01*
X146301070Y-99766499D01*
X146338534Y-99777500D01*
X146338535Y-99777500D01*
X146461465Y-99777500D01*
X146579416Y-99742866D01*
X146682832Y-99676405D01*
X146763334Y-99583501D01*
X146813526Y-99473595D01*
X146814400Y-99471682D01*
X146814401Y-99471678D01*
X146831896Y-99350000D01*
X146814401Y-99228321D01*
X146814400Y-99228317D01*
X146763334Y-99116500D01*
X146763334Y-99116499D01*
X146682832Y-99023595D01*
X146682828Y-99023592D01*
X146677198Y-99018713D01*
X146639423Y-98959935D01*
X146639423Y-98890066D01*
X146677197Y-98831287D01*
X146677202Y-98831283D01*
X146682827Y-98826407D01*
X146682832Y-98826405D01*
X146763334Y-98733501D01*
X146814401Y-98621679D01*
X146831896Y-98500000D01*
X146814401Y-98378321D01*
X146814400Y-98378317D01*
X146763334Y-98266500D01*
X146763334Y-98266499D01*
X146682832Y-98173595D01*
X146579416Y-98107134D01*
X146461465Y-98072500D01*
X146338535Y-98072500D01*
X146220584Y-98107134D01*
X146220582Y-98107134D01*
X146220582Y-98107135D01*
X146117169Y-98173594D01*
X146036667Y-98266497D01*
X146036665Y-98266500D01*
X145985599Y-98378317D01*
X145985598Y-98378321D01*
X145968104Y-98500000D01*
X145985598Y-98621678D01*
X145985599Y-98621682D01*
X146036665Y-98733499D01*
X146036667Y-98733502D01*
X146117167Y-98826404D01*
X146122801Y-98831286D01*
X146160576Y-98890064D01*
X146160576Y-98959934D01*
X146122805Y-99018710D01*
X146117171Y-99023592D01*
X146117168Y-99023594D01*
X146117168Y-99023595D01*
X146108584Y-99033502D01*
X146036667Y-99116497D01*
X146036666Y-99116498D01*
X146036666Y-99116499D01*
X146010858Y-99173012D01*
X145965104Y-99225815D01*
X145898064Y-99245500D01*
X140024771Y-99245500D01*
X139957732Y-99225815D01*
X139911977Y-99173012D01*
X139863334Y-99066500D01*
X139863334Y-99066499D01*
X139782832Y-98973595D01*
X139679416Y-98907134D01*
X139561465Y-98872500D01*
X139445595Y-98872500D01*
X139378556Y-98852815D01*
X139357914Y-98836181D01*
X139028870Y-98507136D01*
X139028865Y-98507134D01*
X138945253Y-98472500D01*
X134595253Y-98472500D01*
X134504747Y-98472500D01*
X134504745Y-98472500D01*
X134504743Y-98472501D01*
X134421134Y-98507131D01*
X134421132Y-98507133D01*
X132742086Y-100186181D01*
X132680763Y-100219666D01*
X132654405Y-100222500D01*
X132034437Y-100222500D01*
X131967398Y-100202815D01*
X131921643Y-100150011D01*
X131911699Y-100080853D01*
X131940724Y-100017297D01*
X131978592Y-99973595D01*
X132013334Y-99933501D01*
X132064401Y-99821679D01*
X132081896Y-99700000D01*
X132064401Y-99578321D01*
X132064400Y-99578317D01*
X132031505Y-99506288D01*
X132013334Y-99466499D01*
X131942310Y-99384533D01*
X131913286Y-99320980D01*
X131923229Y-99251821D01*
X131968984Y-99199017D01*
X131974699Y-99195896D01*
X131979411Y-99192867D01*
X131979416Y-99192866D01*
X132082832Y-99126405D01*
X132163334Y-99033501D01*
X132202753Y-98947185D01*
X132214400Y-98921682D01*
X132214401Y-98921678D01*
X132216492Y-98907134D01*
X132231896Y-98800000D01*
X132214401Y-98678321D01*
X132214400Y-98678317D01*
X132163334Y-98566500D01*
X132163334Y-98566499D01*
X132082832Y-98473595D01*
X131979416Y-98407134D01*
X131861465Y-98372500D01*
X131842803Y-98372500D01*
X131775764Y-98352815D01*
X131730009Y-98300011D01*
X131720065Y-98230853D01*
X131730009Y-98196989D01*
X131764399Y-98121685D01*
X131764401Y-98121678D01*
X131767518Y-98100000D01*
X131781896Y-98000000D01*
X131764401Y-97878321D01*
X131764400Y-97878317D01*
X131731505Y-97806288D01*
X131713334Y-97766499D01*
X131683225Y-97731752D01*
X131654201Y-97668197D01*
X131664144Y-97599039D01*
X131709899Y-97546235D01*
X131753002Y-97530159D01*
X131752955Y-97529999D01*
X131755199Y-97529339D01*
X131759299Y-97527811D01*
X131761460Y-97527500D01*
X131761465Y-97527500D01*
X131879416Y-97492866D01*
X131982832Y-97426405D01*
X132063334Y-97333501D01*
X132114401Y-97221679D01*
X132131896Y-97100000D01*
X132114401Y-96978321D01*
X132114400Y-96978317D01*
X132063334Y-96866500D01*
X132063334Y-96866499D01*
X131982832Y-96773595D01*
X131952832Y-96754315D01*
X131907077Y-96701513D01*
X131897133Y-96632355D01*
X131926157Y-96568799D01*
X131952833Y-96545684D01*
X131982832Y-96526405D01*
X132063334Y-96433501D01*
X132114401Y-96321679D01*
X132131896Y-96200000D01*
X132114401Y-96078321D01*
X132114400Y-96078317D01*
X132063334Y-95966500D01*
X132063334Y-95966499D01*
X131982832Y-95873595D01*
X131879416Y-95807134D01*
X131761465Y-95772500D01*
X131638535Y-95772500D01*
X131520584Y-95807134D01*
X131520582Y-95807134D01*
X131520582Y-95807135D01*
X131417169Y-95873594D01*
X131336667Y-95966497D01*
X131336665Y-95966500D01*
X131285599Y-96078317D01*
X131285598Y-96078321D01*
X131268104Y-96200000D01*
X131285598Y-96321678D01*
X131285599Y-96321682D01*
X131308434Y-96371682D01*
X131336666Y-96433501D01*
X131417168Y-96526405D01*
X131447167Y-96545684D01*
X131492922Y-96598488D01*
X131502866Y-96667647D01*
X131473841Y-96731203D01*
X131447167Y-96754316D01*
X131417169Y-96773594D01*
X131336667Y-96866497D01*
X131336665Y-96866500D01*
X131285599Y-96978317D01*
X131285598Y-96978321D01*
X131268104Y-97100000D01*
X131285598Y-97221678D01*
X131285599Y-97221682D01*
X131336665Y-97333499D01*
X131336667Y-97333502D01*
X131366773Y-97368246D01*
X131395798Y-97431802D01*
X131385854Y-97500960D01*
X131340100Y-97553764D01*
X131296998Y-97569841D01*
X131297045Y-97570001D01*
X131294811Y-97570656D01*
X131290712Y-97572186D01*
X131288540Y-97572498D01*
X131222123Y-97592000D01*
X131170584Y-97607134D01*
X131170582Y-97607134D01*
X131170582Y-97607135D01*
X131067169Y-97673594D01*
X130986667Y-97766497D01*
X130986665Y-97766500D01*
X130935599Y-97878317D01*
X130935598Y-97878321D01*
X130918104Y-98000000D01*
X130935598Y-98121678D01*
X130935599Y-98121682D01*
X130981267Y-98221679D01*
X130986666Y-98233501D01*
X131067168Y-98326405D01*
X131170584Y-98392866D01*
X131288535Y-98427500D01*
X131307197Y-98427500D01*
X131374236Y-98447185D01*
X131419991Y-98499989D01*
X131429935Y-98569147D01*
X131419991Y-98603011D01*
X131385600Y-98678314D01*
X131385598Y-98678321D01*
X131368104Y-98800000D01*
X131385598Y-98921678D01*
X131385599Y-98921682D01*
X131432141Y-99023592D01*
X131436666Y-99033501D01*
X131465257Y-99066497D01*
X131507688Y-99115464D01*
X131536713Y-99179020D01*
X131526770Y-99248178D01*
X131481015Y-99300982D01*
X131475300Y-99304102D01*
X131367169Y-99373594D01*
X131286667Y-99466497D01*
X131286665Y-99466500D01*
X131235599Y-99578317D01*
X131235598Y-99578321D01*
X131218104Y-99700000D01*
X131235598Y-99821678D01*
X131235599Y-99821682D01*
X131286665Y-99933499D01*
X131286667Y-99933502D01*
X131359276Y-100017297D01*
X131388301Y-100080853D01*
X131378357Y-100150011D01*
X131332603Y-100202815D01*
X131265563Y-100222500D01*
X129868960Y-100222500D01*
X129801921Y-100202815D01*
X129756166Y-100150011D01*
X129746222Y-100080853D01*
X129760697Y-100042045D01*
X129759650Y-100041567D01*
X129766575Y-100026405D01*
X129814401Y-99921679D01*
X129831896Y-99800000D01*
X129814401Y-99678321D01*
X129814400Y-99678317D01*
X129771098Y-99583501D01*
X129763334Y-99566499D01*
X129682832Y-99473595D01*
X129579416Y-99407134D01*
X129461465Y-99372500D01*
X129338535Y-99372500D01*
X129220584Y-99407134D01*
X129220582Y-99407134D01*
X129220582Y-99407135D01*
X129117169Y-99473594D01*
X129036667Y-99566497D01*
X129036665Y-99566500D01*
X128985599Y-99678317D01*
X128985598Y-99678321D01*
X128968104Y-99800000D01*
X128985598Y-99921678D01*
X128985599Y-99921682D01*
X129021367Y-100000000D01*
X129033425Y-100026405D01*
X129040350Y-100041567D01*
X129038561Y-100042383D01*
X129055040Y-100098498D01*
X129035357Y-100165538D01*
X128982553Y-100211293D01*
X128931040Y-100222500D01*
X124895595Y-100222500D01*
X124828556Y-100202815D01*
X124807914Y-100186181D01*
X123261938Y-98640205D01*
X123228453Y-98578882D01*
X123226881Y-98534876D01*
X123231896Y-98500000D01*
X123214401Y-98378321D01*
X123214400Y-98378317D01*
X123163334Y-98266500D01*
X123163334Y-98266499D01*
X123082832Y-98173595D01*
X122979416Y-98107134D01*
X122955120Y-98100000D01*
X128868104Y-98100000D01*
X128885598Y-98221678D01*
X128885599Y-98221682D01*
X128933425Y-98326405D01*
X128936666Y-98333501D01*
X129017168Y-98426405D01*
X129120584Y-98492866D01*
X129238535Y-98527500D01*
X129361465Y-98527500D01*
X129479416Y-98492866D01*
X129582832Y-98426405D01*
X129663334Y-98333501D01*
X129709003Y-98233499D01*
X129714400Y-98221682D01*
X129714401Y-98221678D01*
X129717951Y-98196989D01*
X129731896Y-98100000D01*
X129714401Y-97978321D01*
X129714400Y-97978317D01*
X129663334Y-97866500D01*
X129663334Y-97866499D01*
X129582832Y-97773595D01*
X129479416Y-97707134D01*
X129361465Y-97672500D01*
X129238535Y-97672500D01*
X129120584Y-97707134D01*
X129120582Y-97707134D01*
X129120582Y-97707135D01*
X129017169Y-97773594D01*
X128936667Y-97866497D01*
X128936665Y-97866500D01*
X128885599Y-97978317D01*
X128885598Y-97978321D01*
X128868104Y-98100000D01*
X122955120Y-98100000D01*
X122861465Y-98072500D01*
X122738535Y-98072500D01*
X122620584Y-98107134D01*
X122620582Y-98107134D01*
X122620582Y-98107135D01*
X122517169Y-98173594D01*
X122436667Y-98266497D01*
X122436665Y-98266500D01*
X122385599Y-98378317D01*
X122385598Y-98378321D01*
X122368104Y-98500000D01*
X120375287Y-98500000D01*
X118075287Y-96200000D01*
X128068104Y-96200000D01*
X128085598Y-96321678D01*
X128085599Y-96321682D01*
X128108434Y-96371682D01*
X128136666Y-96433501D01*
X128217168Y-96526405D01*
X128320584Y-96592866D01*
X128438535Y-96627500D01*
X128561465Y-96627500D01*
X128679416Y-96592866D01*
X128782832Y-96526405D01*
X128863334Y-96433501D01*
X128914401Y-96321679D01*
X128924707Y-96250000D01*
X129218104Y-96250000D01*
X129235598Y-96371678D01*
X129235599Y-96371682D01*
X129263832Y-96433502D01*
X129286666Y-96483501D01*
X129367168Y-96576405D01*
X129470584Y-96642866D01*
X129588535Y-96677500D01*
X129711465Y-96677500D01*
X129829416Y-96642866D01*
X129932832Y-96576405D01*
X130013334Y-96483501D01*
X130064401Y-96371679D01*
X130081896Y-96250000D01*
X130064401Y-96128321D01*
X130064400Y-96128317D01*
X130013334Y-96016500D01*
X130013334Y-96016499D01*
X129932832Y-95923595D01*
X129829416Y-95857134D01*
X129711465Y-95822500D01*
X129588535Y-95822500D01*
X129470584Y-95857134D01*
X129470582Y-95857134D01*
X129470582Y-95857135D01*
X129367169Y-95923594D01*
X129286667Y-96016497D01*
X129286665Y-96016500D01*
X129235599Y-96128317D01*
X129235598Y-96128321D01*
X129218104Y-96250000D01*
X128924707Y-96250000D01*
X128931896Y-96200000D01*
X128914401Y-96078321D01*
X128914400Y-96078317D01*
X128863334Y-95966500D01*
X128863334Y-95966499D01*
X128782832Y-95873595D01*
X128679416Y-95807134D01*
X128561465Y-95772500D01*
X128438535Y-95772500D01*
X128320584Y-95807134D01*
X128320582Y-95807134D01*
X128320582Y-95807135D01*
X128217169Y-95873594D01*
X128136667Y-95966497D01*
X128136665Y-95966500D01*
X128085599Y-96078317D01*
X128085598Y-96078321D01*
X128068104Y-96200000D01*
X118075287Y-96200000D01*
X117393192Y-95517905D01*
X116970787Y-95095500D01*
X130168104Y-95095500D01*
X130185598Y-95217178D01*
X130185599Y-95217182D01*
X130213521Y-95278321D01*
X130236666Y-95329001D01*
X130317168Y-95421905D01*
X130420584Y-95488366D01*
X130538535Y-95523000D01*
X130661465Y-95523000D01*
X130779416Y-95488366D01*
X130882832Y-95421905D01*
X130901813Y-95400000D01*
X137768104Y-95400000D01*
X137785598Y-95521678D01*
X137785599Y-95521682D01*
X137836665Y-95633499D01*
X137836666Y-95633501D01*
X137917168Y-95726405D01*
X138020584Y-95792866D01*
X138138535Y-95827500D01*
X138261465Y-95827500D01*
X138379416Y-95792866D01*
X138482832Y-95726405D01*
X138563334Y-95633501D01*
X138614401Y-95521679D01*
X138631896Y-95400000D01*
X138614401Y-95278321D01*
X138614400Y-95278317D01*
X138563334Y-95166500D01*
X138563334Y-95166499D01*
X138482832Y-95073595D01*
X138379416Y-95007134D01*
X138261465Y-94972500D01*
X138138535Y-94972500D01*
X138020584Y-95007134D01*
X138020582Y-95007134D01*
X138020582Y-95007135D01*
X137917169Y-95073594D01*
X137836667Y-95166497D01*
X137836665Y-95166500D01*
X137785599Y-95278317D01*
X137785598Y-95278321D01*
X137768104Y-95400000D01*
X130901813Y-95400000D01*
X130963334Y-95329001D01*
X131014401Y-95217179D01*
X131031896Y-95095500D01*
X131014401Y-94973821D01*
X131014400Y-94973817D01*
X130963334Y-94862000D01*
X130963334Y-94861999D01*
X130882832Y-94769095D01*
X130779416Y-94702634D01*
X130661465Y-94668000D01*
X130538535Y-94668000D01*
X130420584Y-94702634D01*
X130420582Y-94702634D01*
X130420582Y-94702635D01*
X130317169Y-94769094D01*
X130236667Y-94861997D01*
X130236665Y-94862000D01*
X130185599Y-94973817D01*
X130185598Y-94973821D01*
X130168104Y-95095500D01*
X116970787Y-95095500D01*
X115465546Y-93590259D01*
X115432061Y-93528936D01*
X115429227Y-93502578D01*
X115429227Y-91737136D01*
X116622500Y-91737136D01*
X116622500Y-93062864D01*
X116638773Y-93123594D01*
X116655041Y-93184309D01*
X116655042Y-93184310D01*
X116717902Y-93293188D01*
X116717904Y-93293191D01*
X116717905Y-93293192D01*
X116806808Y-93382095D01*
X116915692Y-93444959D01*
X117037136Y-93477500D01*
X117037139Y-93477500D01*
X117162861Y-93477500D01*
X117162864Y-93477500D01*
X117265495Y-93450000D01*
X131168104Y-93450000D01*
X131185598Y-93571678D01*
X131185599Y-93571682D01*
X131235016Y-93679888D01*
X131236666Y-93683501D01*
X131317168Y-93776405D01*
X131420584Y-93842866D01*
X131538535Y-93877500D01*
X131661465Y-93877500D01*
X131779416Y-93842866D01*
X131882832Y-93776405D01*
X131963334Y-93683501D01*
X132014401Y-93571679D01*
X132031896Y-93450000D01*
X132014401Y-93328321D01*
X132014400Y-93328317D01*
X131963334Y-93216500D01*
X131963334Y-93216499D01*
X131882832Y-93123595D01*
X131779416Y-93057134D01*
X131661465Y-93022500D01*
X131538535Y-93022500D01*
X131420584Y-93057134D01*
X131420582Y-93057134D01*
X131420582Y-93057135D01*
X131317169Y-93123594D01*
X131236667Y-93216497D01*
X131236665Y-93216500D01*
X131185599Y-93328317D01*
X131185598Y-93328321D01*
X131168104Y-93450000D01*
X117265495Y-93450000D01*
X117284308Y-93444959D01*
X117393192Y-93382095D01*
X117482095Y-93293192D01*
X117544959Y-93184308D01*
X117577500Y-93062864D01*
X117577500Y-92049149D01*
X117597185Y-91982110D01*
X117613819Y-91961468D01*
X118161468Y-91413819D01*
X118222791Y-91380334D01*
X118249149Y-91377500D01*
X124562861Y-91377500D01*
X124562864Y-91377500D01*
X124684308Y-91344959D01*
X124793192Y-91282095D01*
X126582095Y-89493192D01*
X126644959Y-89384308D01*
X126677500Y-89262864D01*
X126677500Y-89137136D01*
X126677500Y-87349149D01*
X126697185Y-87282110D01*
X126713819Y-87261468D01*
X127061468Y-86913819D01*
X127122791Y-86880334D01*
X127149149Y-86877500D01*
X132850851Y-86877500D01*
X132917890Y-86897185D01*
X132938532Y-86913819D01*
X133706808Y-87682095D01*
X133706810Y-87682096D01*
X133708913Y-87683710D01*
X133710238Y-87685525D01*
X133712555Y-87687842D01*
X133712193Y-87688203D01*
X133750114Y-87740139D01*
X133754267Y-87809885D01*
X133722487Y-87866469D01*
X133722976Y-87866893D01*
X133720912Y-87869273D01*
X133720053Y-87870805D01*
X133717750Y-87872923D01*
X133636667Y-87966497D01*
X133636665Y-87966500D01*
X133585599Y-88078317D01*
X133585598Y-88078321D01*
X133568104Y-88200000D01*
X133585598Y-88321678D01*
X133585599Y-88321682D01*
X133624625Y-88407135D01*
X133636666Y-88433501D01*
X133717168Y-88526405D01*
X133820584Y-88592866D01*
X133938535Y-88627500D01*
X134061465Y-88627500D01*
X134179416Y-88592866D01*
X134282832Y-88526405D01*
X134363334Y-88433501D01*
X134409595Y-88332203D01*
X134414400Y-88321682D01*
X134414401Y-88321678D01*
X134431896Y-88200000D01*
X134414401Y-88078321D01*
X134414400Y-88078317D01*
X134381505Y-88006288D01*
X134363334Y-87966499D01*
X134282832Y-87873595D01*
X134282830Y-87873594D01*
X134277024Y-87866893D01*
X134278711Y-87865430D01*
X134247600Y-87817025D01*
X134247596Y-87747156D01*
X134285367Y-87688375D01*
X134291092Y-87683706D01*
X134293185Y-87682098D01*
X134293192Y-87682095D01*
X134382095Y-87593192D01*
X134444959Y-87484308D01*
X134477500Y-87362864D01*
X134477500Y-87237136D01*
X134444959Y-87115692D01*
X134399605Y-87037136D01*
X134382097Y-87006811D01*
X134382093Y-87006806D01*
X133672154Y-86296867D01*
X135096500Y-86296867D01*
X135096500Y-87330332D01*
X135122533Y-87461210D01*
X135122536Y-87461220D01*
X135173607Y-87584517D01*
X135173608Y-87584520D01*
X135247750Y-87695480D01*
X135247753Y-87695484D01*
X135342115Y-87789846D01*
X135342119Y-87789849D01*
X135453079Y-87863991D01*
X135453081Y-87863991D01*
X135453083Y-87863993D01*
X135576381Y-87915064D01*
X135576384Y-87915064D01*
X135576389Y-87915066D01*
X135707267Y-87941099D01*
X135707270Y-87941100D01*
X135707272Y-87941100D01*
X135840730Y-87941100D01*
X135840731Y-87941099D01*
X135905312Y-87928253D01*
X135971610Y-87915066D01*
X135971612Y-87915065D01*
X135971619Y-87915064D01*
X136094917Y-87863993D01*
X136205881Y-87789849D01*
X136300249Y-87695481D01*
X136374393Y-87584517D01*
X136425464Y-87461219D01*
X136451500Y-87330328D01*
X136451500Y-86535584D01*
X136471185Y-86468545D01*
X136523989Y-86422790D01*
X136593147Y-86412846D01*
X136656703Y-86441871D01*
X136694477Y-86500649D01*
X136695275Y-86503492D01*
X136695916Y-86505886D01*
X136695917Y-86505888D01*
X136768388Y-86631411D01*
X136768390Y-86631413D01*
X136768391Y-86631415D01*
X136870885Y-86733909D01*
X136870886Y-86733910D01*
X136870888Y-86733911D01*
X136996411Y-86806382D01*
X136996412Y-86806382D01*
X136996415Y-86806384D01*
X137136425Y-86843900D01*
X137136428Y-86843900D01*
X137281372Y-86843900D01*
X137281375Y-86843900D01*
X137421385Y-86806384D01*
X137546915Y-86733909D01*
X137649409Y-86631415D01*
X137721884Y-86505885D01*
X137759400Y-86365875D01*
X137759400Y-86220925D01*
X142438400Y-86220925D01*
X142438400Y-86365875D01*
X142473940Y-86498510D01*
X142475917Y-86505888D01*
X142548388Y-86631411D01*
X142548390Y-86631413D01*
X142548391Y-86631415D01*
X142650885Y-86733909D01*
X142650886Y-86733910D01*
X142650888Y-86733911D01*
X142776411Y-86806382D01*
X142776412Y-86806382D01*
X142776415Y-86806384D01*
X142916425Y-86843900D01*
X142916428Y-86843900D01*
X143061372Y-86843900D01*
X143061375Y-86843900D01*
X143201385Y-86806384D01*
X143326915Y-86733909D01*
X143429409Y-86631415D01*
X143501884Y-86505885D01*
X143502725Y-86502743D01*
X143504158Y-86500392D01*
X143504992Y-86498381D01*
X143505305Y-86498510D01*
X143539090Y-86443084D01*
X143601937Y-86412555D01*
X143671312Y-86420850D01*
X143725190Y-86465335D01*
X143746465Y-86531887D01*
X143746500Y-86534838D01*
X143746500Y-87330332D01*
X143772533Y-87461210D01*
X143772536Y-87461220D01*
X143823607Y-87584517D01*
X143823608Y-87584520D01*
X143897750Y-87695480D01*
X143897753Y-87695484D01*
X143992115Y-87789846D01*
X143992119Y-87789849D01*
X144103079Y-87863991D01*
X144103081Y-87863991D01*
X144103083Y-87863993D01*
X144226381Y-87915064D01*
X144226384Y-87915064D01*
X144226389Y-87915066D01*
X144357267Y-87941099D01*
X144357270Y-87941100D01*
X144357272Y-87941100D01*
X144490730Y-87941100D01*
X144490731Y-87941099D01*
X144555312Y-87928253D01*
X144621610Y-87915066D01*
X144621612Y-87915065D01*
X144621619Y-87915064D01*
X144744917Y-87863993D01*
X144855881Y-87789849D01*
X144950249Y-87695481D01*
X145024393Y-87584517D01*
X145075464Y-87461219D01*
X145101500Y-87330328D01*
X145101500Y-86296872D01*
X145101500Y-86296869D01*
X145101499Y-86296867D01*
X145075466Y-86165989D01*
X145075463Y-86165979D01*
X145040229Y-86080915D01*
X145024393Y-86042683D01*
X145024391Y-86042681D01*
X145024391Y-86042679D01*
X144950249Y-85931719D01*
X144950246Y-85931715D01*
X144855884Y-85837353D01*
X144855880Y-85837350D01*
X144744920Y-85763208D01*
X144744917Y-85763207D01*
X144621620Y-85712136D01*
X144621610Y-85712133D01*
X144490731Y-85686100D01*
X144490728Y-85686100D01*
X144357272Y-85686100D01*
X144357269Y-85686100D01*
X144226389Y-85712133D01*
X144226379Y-85712136D01*
X144103082Y-85763207D01*
X144103079Y-85763208D01*
X143992119Y-85837350D01*
X143992115Y-85837353D01*
X143897753Y-85931715D01*
X143897750Y-85931719D01*
X143823608Y-86042679D01*
X143823607Y-86042682D01*
X143772536Y-86165979D01*
X143772533Y-86165991D01*
X143770681Y-86175301D01*
X143738294Y-86237211D01*
X143677577Y-86271783D01*
X143607807Y-86268040D01*
X143551137Y-86227172D01*
X143529292Y-86183202D01*
X143501884Y-86080915D01*
X143479808Y-86042679D01*
X143429411Y-85955388D01*
X143429406Y-85955382D01*
X143326917Y-85852893D01*
X143326911Y-85852888D01*
X143201388Y-85780417D01*
X143201389Y-85780417D01*
X143189906Y-85777340D01*
X143061375Y-85742900D01*
X142916425Y-85742900D01*
X142787893Y-85777340D01*
X142776411Y-85780417D01*
X142650888Y-85852888D01*
X142650882Y-85852893D01*
X142548393Y-85955382D01*
X142548388Y-85955388D01*
X142475917Y-86080911D01*
X142475916Y-86080915D01*
X142438400Y-86220925D01*
X137759400Y-86220925D01*
X137721884Y-86080915D01*
X137699808Y-86042679D01*
X137649411Y-85955388D01*
X137649406Y-85955382D01*
X137546917Y-85852893D01*
X137546911Y-85852888D01*
X137421388Y-85780417D01*
X137421389Y-85780417D01*
X137409906Y-85777340D01*
X137281375Y-85742900D01*
X137136425Y-85742900D01*
X137007893Y-85777340D01*
X136996411Y-85780417D01*
X136870888Y-85852888D01*
X136870882Y-85852893D01*
X136768393Y-85955382D01*
X136768388Y-85955388D01*
X136695917Y-86080911D01*
X136695916Y-86080915D01*
X136670742Y-86174867D01*
X136668624Y-86182770D01*
X136632258Y-86242430D01*
X136569411Y-86272959D01*
X136500036Y-86264664D01*
X136446158Y-86220178D01*
X136427232Y-86174867D01*
X136425466Y-86165988D01*
X136425463Y-86165979D01*
X136390229Y-86080915D01*
X136374393Y-86042683D01*
X136374391Y-86042681D01*
X136374391Y-86042679D01*
X136300249Y-85931719D01*
X136300246Y-85931715D01*
X136205884Y-85837353D01*
X136205880Y-85837350D01*
X136094920Y-85763208D01*
X136094917Y-85763207D01*
X135971620Y-85712136D01*
X135971610Y-85712133D01*
X135840731Y-85686100D01*
X135840728Y-85686100D01*
X135707272Y-85686100D01*
X135707269Y-85686100D01*
X135576389Y-85712133D01*
X135576379Y-85712136D01*
X135453082Y-85763207D01*
X135453079Y-85763208D01*
X135342119Y-85837350D01*
X135342115Y-85837353D01*
X135247753Y-85931715D01*
X135247750Y-85931719D01*
X135173608Y-86042679D01*
X135173607Y-86042682D01*
X135122536Y-86165979D01*
X135122533Y-86165989D01*
X135096500Y-86296867D01*
X133672154Y-86296867D01*
X133393193Y-86017906D01*
X133393188Y-86017902D01*
X133284310Y-85955042D01*
X133284309Y-85955041D01*
X133253947Y-85946905D01*
X133162864Y-85922500D01*
X126962864Y-85922500D01*
X126837136Y-85922500D01*
X126764269Y-85942024D01*
X126715690Y-85955041D01*
X126715689Y-85955042D01*
X126606811Y-86017902D01*
X126606806Y-86017906D01*
X125817906Y-86806806D01*
X125817902Y-86806811D01*
X125755042Y-86915689D01*
X125755041Y-86915690D01*
X125738770Y-86976414D01*
X125722500Y-87037136D01*
X125722500Y-87037138D01*
X125722500Y-88950851D01*
X125702815Y-89017890D01*
X125686181Y-89038532D01*
X124338532Y-90386181D01*
X124277209Y-90419666D01*
X124250851Y-90422500D01*
X118372206Y-90422500D01*
X118305167Y-90402815D01*
X118259412Y-90350011D01*
X118249468Y-90280853D01*
X118278493Y-90217297D01*
X118305167Y-90194184D01*
X118332832Y-90176405D01*
X118413334Y-90083501D01*
X118464401Y-89971679D01*
X118481896Y-89850000D01*
X118464401Y-89728321D01*
X118464400Y-89728317D01*
X118413334Y-89616500D01*
X118413334Y-89616499D01*
X118332832Y-89523595D01*
X118229416Y-89457134D01*
X118111465Y-89422500D01*
X117988535Y-89422500D01*
X117870584Y-89457134D01*
X117870582Y-89457134D01*
X117870582Y-89457135D01*
X117767169Y-89523594D01*
X117686667Y-89616497D01*
X117686665Y-89616500D01*
X117635599Y-89728317D01*
X117635598Y-89728321D01*
X117618104Y-89850000D01*
X117635598Y-89971678D01*
X117635599Y-89971682D01*
X117686665Y-90083499D01*
X117686666Y-90083501D01*
X117767168Y-90176405D01*
X117851629Y-90230684D01*
X117897384Y-90283488D01*
X117907328Y-90352646D01*
X117878303Y-90416202D01*
X117823095Y-90451682D01*
X117823199Y-90451932D01*
X117821815Y-90452505D01*
X117819525Y-90453977D01*
X117816694Y-90454772D01*
X117815697Y-90455039D01*
X117815689Y-90455042D01*
X117706811Y-90517902D01*
X117706806Y-90517906D01*
X116717906Y-91506806D01*
X116717902Y-91506811D01*
X116655042Y-91615689D01*
X116655041Y-91615690D01*
X116638770Y-91676414D01*
X116622500Y-91737136D01*
X115429227Y-91737136D01*
X115429227Y-90824344D01*
X115430331Y-90807833D01*
X115433346Y-90785392D01*
X115430245Y-90761344D01*
X115429227Y-90745486D01*
X115429227Y-90721255D01*
X115428166Y-90713198D01*
X115428818Y-90713112D01*
X115426307Y-90694031D01*
X115426307Y-89850000D01*
X115918104Y-89850000D01*
X115935598Y-89971678D01*
X115935599Y-89971682D01*
X115986665Y-90083499D01*
X115986666Y-90083501D01*
X116067168Y-90176405D01*
X116170584Y-90242866D01*
X116288535Y-90277500D01*
X116411465Y-90277500D01*
X116529416Y-90242866D01*
X116632832Y-90176405D01*
X116713334Y-90083501D01*
X116764401Y-89971679D01*
X116781896Y-89850000D01*
X116764401Y-89728321D01*
X116764400Y-89728317D01*
X116713334Y-89616500D01*
X116713334Y-89616499D01*
X116632832Y-89523595D01*
X116529416Y-89457134D01*
X116411465Y-89422500D01*
X116288535Y-89422500D01*
X116170584Y-89457134D01*
X116170582Y-89457134D01*
X116170582Y-89457135D01*
X116067169Y-89523594D01*
X115986667Y-89616497D01*
X115986665Y-89616500D01*
X115935599Y-89728317D01*
X115935598Y-89728321D01*
X115918104Y-89850000D01*
X115426307Y-89850000D01*
X115426307Y-88885945D01*
X115426307Y-88885943D01*
X115403279Y-88800000D01*
X118767104Y-88800000D01*
X118784598Y-88921678D01*
X118784599Y-88921682D01*
X118835665Y-89033499D01*
X118835666Y-89033501D01*
X118916168Y-89126405D01*
X119019584Y-89192866D01*
X119137535Y-89227500D01*
X119260465Y-89227500D01*
X119378416Y-89192866D01*
X119481832Y-89126405D01*
X119505289Y-89099333D01*
X119564064Y-89061561D01*
X119633934Y-89061561D01*
X119692709Y-89099332D01*
X119715843Y-89126030D01*
X119716169Y-89126406D01*
X119732866Y-89137136D01*
X119819584Y-89192866D01*
X119937535Y-89227500D01*
X120060465Y-89227500D01*
X120178416Y-89192866D01*
X120281832Y-89126405D01*
X120362334Y-89033501D01*
X120413401Y-88921679D01*
X120430896Y-88800000D01*
X120413401Y-88678321D01*
X120413400Y-88678317D01*
X120364701Y-88571682D01*
X120362334Y-88566499D01*
X120281832Y-88473595D01*
X120245117Y-88450000D01*
X122068104Y-88450000D01*
X122085598Y-88571678D01*
X122085599Y-88571682D01*
X122134300Y-88678321D01*
X122136666Y-88683501D01*
X122217168Y-88776405D01*
X122217170Y-88776406D01*
X122217171Y-88776407D01*
X122222805Y-88781290D01*
X122260577Y-88840070D01*
X122260575Y-88909939D01*
X122222805Y-88968710D01*
X122217171Y-88973592D01*
X122136667Y-89066497D01*
X122136665Y-89066500D01*
X122085599Y-89178317D01*
X122085598Y-89178321D01*
X122068104Y-89300000D01*
X122085598Y-89421678D01*
X122085599Y-89421682D01*
X122132142Y-89523595D01*
X122136666Y-89533501D01*
X122217168Y-89626405D01*
X122320584Y-89692866D01*
X122438535Y-89727500D01*
X122561465Y-89727500D01*
X122679416Y-89692866D01*
X122782832Y-89626405D01*
X122863334Y-89533501D01*
X122914401Y-89421679D01*
X122931896Y-89300000D01*
X122914401Y-89178321D01*
X122914400Y-89178317D01*
X122863334Y-89066500D01*
X122863334Y-89066499D01*
X122782832Y-88973595D01*
X122782828Y-88973592D01*
X122777198Y-88968713D01*
X122739423Y-88909935D01*
X122739423Y-88840066D01*
X122777197Y-88781287D01*
X122777198Y-88781287D01*
X122782825Y-88776409D01*
X122782832Y-88776405D01*
X122863334Y-88683501D01*
X122914401Y-88571679D01*
X122931896Y-88450000D01*
X122914401Y-88328321D01*
X122914400Y-88328317D01*
X122863399Y-88216642D01*
X122863334Y-88216499D01*
X122782832Y-88123595D01*
X122679416Y-88057134D01*
X122561465Y-88022500D01*
X122438535Y-88022500D01*
X122320584Y-88057134D01*
X122320582Y-88057134D01*
X122320582Y-88057135D01*
X122217169Y-88123594D01*
X122217168Y-88123594D01*
X122217168Y-88123595D01*
X122211597Y-88130024D01*
X122136667Y-88216497D01*
X122136665Y-88216500D01*
X122085599Y-88328317D01*
X122085598Y-88328321D01*
X122068104Y-88450000D01*
X120245117Y-88450000D01*
X120178416Y-88407134D01*
X120060465Y-88372500D01*
X119937535Y-88372500D01*
X119819584Y-88407134D01*
X119819582Y-88407134D01*
X119819582Y-88407135D01*
X119716169Y-88473594D01*
X119692713Y-88500664D01*
X119633934Y-88538438D01*
X119564065Y-88538438D01*
X119505287Y-88500664D01*
X119481832Y-88473595D01*
X119378416Y-88407134D01*
X119260465Y-88372500D01*
X119137535Y-88372500D01*
X119019584Y-88407134D01*
X119019582Y-88407134D01*
X119019582Y-88407135D01*
X118916169Y-88473594D01*
X118835667Y-88566497D01*
X118835665Y-88566500D01*
X118784599Y-88678317D01*
X118784598Y-88678321D01*
X118767104Y-88800000D01*
X115403279Y-88800000D01*
X115393766Y-88764499D01*
X115344009Y-88678317D01*
X115330904Y-88655618D01*
X115330900Y-88655613D01*
X113463819Y-86788532D01*
X113430334Y-86727209D01*
X113427500Y-86700851D01*
X113427500Y-86296867D01*
X115096500Y-86296867D01*
X115096500Y-87330332D01*
X115122533Y-87461210D01*
X115122536Y-87461220D01*
X115173607Y-87584517D01*
X115173608Y-87584520D01*
X115247750Y-87695480D01*
X115247753Y-87695484D01*
X115342115Y-87789846D01*
X115342119Y-87789849D01*
X115453079Y-87863991D01*
X115453081Y-87863991D01*
X115453083Y-87863993D01*
X115576381Y-87915064D01*
X115576384Y-87915064D01*
X115576389Y-87915066D01*
X115707267Y-87941099D01*
X115707270Y-87941100D01*
X115707272Y-87941100D01*
X115840730Y-87941100D01*
X115840731Y-87941099D01*
X115905312Y-87928253D01*
X115971610Y-87915066D01*
X115971612Y-87915065D01*
X115971619Y-87915064D01*
X116094917Y-87863993D01*
X116205881Y-87789849D01*
X116300249Y-87695481D01*
X116374393Y-87584517D01*
X116425464Y-87461219D01*
X116451500Y-87330328D01*
X116451500Y-86535584D01*
X116471185Y-86468545D01*
X116523989Y-86422790D01*
X116593147Y-86412846D01*
X116656703Y-86441871D01*
X116694477Y-86500649D01*
X116695275Y-86503492D01*
X116695916Y-86505886D01*
X116695917Y-86505888D01*
X116768388Y-86631411D01*
X116768390Y-86631413D01*
X116768391Y-86631415D01*
X116870885Y-86733909D01*
X116870886Y-86733910D01*
X116870888Y-86733911D01*
X116996411Y-86806382D01*
X116996412Y-86806382D01*
X116996415Y-86806384D01*
X117136425Y-86843900D01*
X117136428Y-86843900D01*
X117281372Y-86843900D01*
X117281375Y-86843900D01*
X117421385Y-86806384D01*
X117546915Y-86733909D01*
X117649409Y-86631415D01*
X117721884Y-86505885D01*
X117759400Y-86365875D01*
X117759400Y-86220925D01*
X122438400Y-86220925D01*
X122438400Y-86365875D01*
X122473940Y-86498510D01*
X122475917Y-86505888D01*
X122548388Y-86631411D01*
X122548390Y-86631413D01*
X122548391Y-86631415D01*
X122650885Y-86733909D01*
X122650886Y-86733910D01*
X122650888Y-86733911D01*
X122776411Y-86806382D01*
X122776412Y-86806382D01*
X122776415Y-86806384D01*
X122916425Y-86843900D01*
X122916428Y-86843900D01*
X123061372Y-86843900D01*
X123061375Y-86843900D01*
X123201385Y-86806384D01*
X123326915Y-86733909D01*
X123429409Y-86631415D01*
X123501884Y-86505885D01*
X123502725Y-86502743D01*
X123504158Y-86500392D01*
X123504992Y-86498381D01*
X123505305Y-86498510D01*
X123539090Y-86443084D01*
X123601937Y-86412555D01*
X123671312Y-86420850D01*
X123725190Y-86465335D01*
X123746465Y-86531887D01*
X123746500Y-86534838D01*
X123746500Y-87330332D01*
X123772533Y-87461210D01*
X123772536Y-87461220D01*
X123823607Y-87584517D01*
X123823608Y-87584520D01*
X123897750Y-87695480D01*
X123897753Y-87695484D01*
X123992115Y-87789846D01*
X123992119Y-87789849D01*
X124103079Y-87863991D01*
X124103081Y-87863991D01*
X124103083Y-87863993D01*
X124226381Y-87915064D01*
X124226384Y-87915064D01*
X124226389Y-87915066D01*
X124357267Y-87941099D01*
X124357270Y-87941100D01*
X124357272Y-87941100D01*
X124490730Y-87941100D01*
X124490731Y-87941099D01*
X124555312Y-87928253D01*
X124621610Y-87915066D01*
X124621612Y-87915065D01*
X124621619Y-87915064D01*
X124744917Y-87863993D01*
X124855881Y-87789849D01*
X124950249Y-87695481D01*
X125024393Y-87584517D01*
X125075464Y-87461219D01*
X125101500Y-87330328D01*
X125101500Y-86296872D01*
X125101500Y-86296869D01*
X125101499Y-86296867D01*
X125075466Y-86165989D01*
X125075463Y-86165979D01*
X125040229Y-86080915D01*
X125024393Y-86042683D01*
X125024391Y-86042681D01*
X125024391Y-86042679D01*
X124950249Y-85931719D01*
X124950246Y-85931715D01*
X124855884Y-85837353D01*
X124855880Y-85837350D01*
X124744920Y-85763208D01*
X124744917Y-85763207D01*
X124621620Y-85712136D01*
X124621610Y-85712133D01*
X124490731Y-85686100D01*
X124490728Y-85686100D01*
X124357272Y-85686100D01*
X124357269Y-85686100D01*
X124226389Y-85712133D01*
X124226379Y-85712136D01*
X124103082Y-85763207D01*
X124103079Y-85763208D01*
X123992119Y-85837350D01*
X123992115Y-85837353D01*
X123897753Y-85931715D01*
X123897750Y-85931719D01*
X123823608Y-86042679D01*
X123823607Y-86042682D01*
X123772536Y-86165979D01*
X123772533Y-86165991D01*
X123770681Y-86175301D01*
X123738294Y-86237211D01*
X123677577Y-86271783D01*
X123607807Y-86268040D01*
X123551137Y-86227172D01*
X123529292Y-86183202D01*
X123501884Y-86080915D01*
X123479808Y-86042679D01*
X123429411Y-85955388D01*
X123429406Y-85955382D01*
X123326917Y-85852893D01*
X123326911Y-85852888D01*
X123201388Y-85780417D01*
X123201389Y-85780417D01*
X123189906Y-85777340D01*
X123061375Y-85742900D01*
X122916425Y-85742900D01*
X122787893Y-85777340D01*
X122776411Y-85780417D01*
X122650888Y-85852888D01*
X122650882Y-85852893D01*
X122548393Y-85955382D01*
X122548388Y-85955388D01*
X122475917Y-86080911D01*
X122475916Y-86080915D01*
X122438400Y-86220925D01*
X117759400Y-86220925D01*
X117721884Y-86080915D01*
X117699808Y-86042679D01*
X117649411Y-85955388D01*
X117649406Y-85955382D01*
X117546917Y-85852893D01*
X117546911Y-85852888D01*
X117421388Y-85780417D01*
X117421389Y-85780417D01*
X117409906Y-85777340D01*
X117281375Y-85742900D01*
X117136425Y-85742900D01*
X117007893Y-85777340D01*
X116996411Y-85780417D01*
X116870888Y-85852888D01*
X116870882Y-85852893D01*
X116768393Y-85955382D01*
X116768388Y-85955388D01*
X116695917Y-86080911D01*
X116695916Y-86080915D01*
X116670742Y-86174867D01*
X116668624Y-86182770D01*
X116632258Y-86242430D01*
X116569411Y-86272959D01*
X116500036Y-86264664D01*
X116446158Y-86220178D01*
X116427232Y-86174867D01*
X116425466Y-86165988D01*
X116425463Y-86165979D01*
X116390229Y-86080915D01*
X116374393Y-86042683D01*
X116374391Y-86042681D01*
X116374391Y-86042679D01*
X116300249Y-85931719D01*
X116300246Y-85931715D01*
X116205884Y-85837353D01*
X116205880Y-85837350D01*
X116094920Y-85763208D01*
X116094917Y-85763207D01*
X115971620Y-85712136D01*
X115971610Y-85712133D01*
X115840731Y-85686100D01*
X115840728Y-85686100D01*
X115707272Y-85686100D01*
X115707269Y-85686100D01*
X115576389Y-85712133D01*
X115576379Y-85712136D01*
X115453082Y-85763207D01*
X115453079Y-85763208D01*
X115342119Y-85837350D01*
X115342115Y-85837353D01*
X115247753Y-85931715D01*
X115247750Y-85931719D01*
X115173608Y-86042679D01*
X115173607Y-86042682D01*
X115122536Y-86165979D01*
X115122533Y-86165989D01*
X115096500Y-86296867D01*
X113427500Y-86296867D01*
X113427500Y-84400000D01*
X118767104Y-84400000D01*
X118784598Y-84521678D01*
X118784599Y-84521682D01*
X118835665Y-84633499D01*
X118835666Y-84633501D01*
X118916168Y-84726405D01*
X119019584Y-84792866D01*
X119137535Y-84827500D01*
X119260465Y-84827500D01*
X119378416Y-84792866D01*
X119481832Y-84726405D01*
X119505289Y-84699333D01*
X119564064Y-84661561D01*
X119633934Y-84661561D01*
X119692709Y-84699332D01*
X119716168Y-84726405D01*
X119716169Y-84726406D01*
X119750640Y-84748558D01*
X119819584Y-84792866D01*
X119937535Y-84827500D01*
X120060465Y-84827500D01*
X120178416Y-84792866D01*
X120281832Y-84726405D01*
X120362334Y-84633501D01*
X120413401Y-84521679D01*
X120430896Y-84400000D01*
X120413401Y-84278321D01*
X120413400Y-84278317D01*
X120362334Y-84166500D01*
X120362334Y-84166499D01*
X120281832Y-84073595D01*
X120178416Y-84007134D01*
X120060465Y-83972500D01*
X119937535Y-83972500D01*
X119819584Y-84007134D01*
X119819582Y-84007134D01*
X119819582Y-84007135D01*
X119716169Y-84073594D01*
X119692713Y-84100664D01*
X119633934Y-84138438D01*
X119564065Y-84138438D01*
X119505287Y-84100664D01*
X119481832Y-84073595D01*
X119378416Y-84007134D01*
X119260465Y-83972500D01*
X119137535Y-83972500D01*
X119019584Y-84007134D01*
X119019582Y-84007134D01*
X119019582Y-84007135D01*
X118916169Y-84073594D01*
X118835667Y-84166497D01*
X118835665Y-84166500D01*
X118784599Y-84278317D01*
X118784598Y-84278321D01*
X118767104Y-84400000D01*
X113427500Y-84400000D01*
X113427500Y-82337138D01*
X113427500Y-82337136D01*
X113394959Y-82215692D01*
X113332095Y-82106808D01*
X113243192Y-82017905D01*
X113243191Y-82017904D01*
X113243188Y-82017902D01*
X113134310Y-81955042D01*
X113134309Y-81955041D01*
X113103947Y-81946905D01*
X113012864Y-81922500D01*
X112887136Y-81922500D01*
X112814269Y-81942024D01*
X112765690Y-81955041D01*
X112765689Y-81955042D01*
X112656811Y-82017902D01*
X112656806Y-82017906D01*
X112567906Y-82106806D01*
X112567902Y-82106811D01*
X112505042Y-82215689D01*
X112505041Y-82215690D01*
X112498032Y-82241848D01*
X112472500Y-82337136D01*
X112472500Y-86887136D01*
X112472500Y-87012864D01*
X112496905Y-87103947D01*
X112505041Y-87134309D01*
X112505042Y-87134310D01*
X112567902Y-87243188D01*
X112567906Y-87243193D01*
X114434988Y-89110275D01*
X114468473Y-89171598D01*
X114471307Y-89197956D01*
X114471307Y-89536269D01*
X114451622Y-89603308D01*
X114398818Y-89649063D01*
X114329660Y-89659007D01*
X114266104Y-89629982D01*
X114239920Y-89598269D01*
X114127439Y-89403446D01*
X113925681Y-89132438D01*
X113925676Y-89132432D01*
X113771211Y-88968710D01*
X113693817Y-88886677D01*
X113693810Y-88886671D01*
X113693808Y-88886669D01*
X113434998Y-88669500D01*
X113217431Y-88526405D01*
X113152708Y-88483836D01*
X113147593Y-88481267D01*
X112850783Y-88332203D01*
X112850777Y-88332200D01*
X112533284Y-88216642D01*
X112533281Y-88216641D01*
X112306639Y-88162926D01*
X112204520Y-88138724D01*
X111868935Y-88099500D01*
X111531065Y-88099500D01*
X111195480Y-88138724D01*
X110866718Y-88216641D01*
X110866715Y-88216642D01*
X110549222Y-88332200D01*
X110549216Y-88332203D01*
X110247295Y-88483834D01*
X109965001Y-88669500D01*
X109706191Y-88886669D01*
X109706181Y-88886679D01*
X109474323Y-89132432D01*
X109474318Y-89132438D01*
X109423963Y-89200078D01*
X109368140Y-89242097D01*
X109298462Y-89247265D01*
X109237051Y-89213943D01*
X109203404Y-89152708D01*
X109200500Y-89126030D01*
X109200500Y-84013750D01*
X109200726Y-84006263D01*
X109218271Y-83716205D01*
X109220076Y-83701340D01*
X109271780Y-83419201D01*
X109275364Y-83404663D01*
X109283905Y-83377254D01*
X109360696Y-83130822D01*
X109365998Y-83116841D01*
X109483731Y-82855249D01*
X109490676Y-82842016D01*
X109639080Y-82596526D01*
X109647567Y-82584230D01*
X109824480Y-82358417D01*
X109834395Y-82347226D01*
X110037226Y-82144395D01*
X110048417Y-82134480D01*
X110274230Y-81957567D01*
X110286526Y-81949080D01*
X110532016Y-81800676D01*
X110545249Y-81793731D01*
X110806841Y-81675998D01*
X110820822Y-81670696D01*
X111094668Y-81585362D01*
X111109197Y-81581780D01*
X111391344Y-81530075D01*
X111406201Y-81528271D01*
X111696264Y-81510726D01*
X111703751Y-81510500D01*
X115257536Y-81510500D01*
X115324575Y-81530185D01*
G37*
G04 #@! TD.AperFunction*
G04 #@! TA.AperFunction,Conductor*
G36*
X185743039Y-112619685D02*
G01*
X185788794Y-112672489D01*
X185800000Y-112724000D01*
X185800000Y-123548638D01*
X185780315Y-123615677D01*
X185763681Y-123636319D01*
X184336319Y-125063681D01*
X184274996Y-125097166D01*
X184248638Y-125100000D01*
X181724000Y-125100000D01*
X181656961Y-125080315D01*
X181611206Y-125027511D01*
X181600000Y-124976000D01*
X181600000Y-112751362D01*
X181619685Y-112684323D01*
X181636319Y-112663681D01*
X181663681Y-112636319D01*
X181725004Y-112602834D01*
X181751362Y-112600000D01*
X185676000Y-112600000D01*
X185743039Y-112619685D01*
G37*
G04 #@! TD.AperFunction*
G04 #@! TA.AperFunction,Conductor*
G36*
X174015677Y-112619685D02*
G01*
X174036319Y-112636319D01*
X174063681Y-112663681D01*
X174097166Y-112725004D01*
X174100000Y-112751362D01*
X174100000Y-124976000D01*
X174080315Y-125043039D01*
X174027511Y-125088794D01*
X173976000Y-125100000D01*
X171451362Y-125100000D01*
X171384323Y-125080315D01*
X171363681Y-125063681D01*
X169936319Y-123636319D01*
X169902834Y-123574996D01*
X169900000Y-123548638D01*
X169900000Y-112724000D01*
X169919685Y-112656961D01*
X169972489Y-112611206D01*
X170024000Y-112600000D01*
X173948638Y-112600000D01*
X174015677Y-112619685D01*
G37*
G04 #@! TD.AperFunction*
M02*
