%TF.GenerationSoftware,KiCad,Pcbnew,8.0.2*%
%TF.CreationDate,2024-05-30T21:42:03+08:00*%
%TF.ProjectId,pppc_usb_hub,70707063-5f75-4736-925f-6875622e6b69,rev?*%
%TF.SameCoordinates,Original*%
%TF.FileFunction,Drillmap*%
%TF.FilePolarity,Positive*%
%FSLAX45Y45*%
G04 Gerber Fmt 4.5, Leading zero omitted, Abs format (unit mm)*
G04 Created by KiCad (PCBNEW 8.0.2) date 2024-05-30 21:42:03*
%MOMM*%
%LPD*%
G01*
G04 APERTURE LIST*
%ADD10C,0.200000*%
%ADD11C,0.100000*%
%ADD12C,0.130000*%
%ADD13C,0.160000*%
G04 APERTURE END LIST*
D10*
X11170000Y-8101000D02*
X18530000Y-8101000D01*
X18665000Y-8401000D02*
G75*
G02*
X18395000Y-8401000I-135000J0D01*
G01*
X18395000Y-8401000D02*
G75*
G02*
X18665000Y-8401000I135000J0D01*
G01*
X18530000Y-12899000D02*
X11170000Y-12899000D01*
X10870000Y-12599000D02*
X10870000Y-8401000D01*
X11170000Y-12899000D02*
G75*
G02*
X10870000Y-12599000I0J300000D01*
G01*
X11305000Y-9101000D02*
G75*
G02*
X11035000Y-9101000I-135000J0D01*
G01*
X11035000Y-9101000D02*
G75*
G02*
X11305000Y-9101000I135000J0D01*
G01*
X18830000Y-12599000D02*
G75*
G02*
X18530000Y-12899000I-300000J0D01*
G01*
X11305000Y-12599000D02*
G75*
G02*
X11035000Y-12599000I-135000J0D01*
G01*
X11035000Y-12599000D02*
G75*
G02*
X11305000Y-12599000I135000J0D01*
G01*
X10870000Y-8401000D02*
G75*
G02*
X11170000Y-8101000I300000J0D01*
G01*
X18530000Y-8101000D02*
G75*
G02*
X18830000Y-8401000I0J-300000D01*
G01*
X16665000Y-12599000D02*
G75*
G02*
X16395000Y-12599000I-135000J0D01*
G01*
X16395000Y-12599000D02*
G75*
G02*
X16665000Y-12599000I135000J0D01*
G01*
X18830000Y-8401000D02*
X18830000Y-12599000D01*
D11*
X11020000Y-12205000D02*
X11050000Y-12235000D01*
X11050000Y-12205000D02*
X11020000Y-12235000D01*
X11025000Y-11535000D02*
X11055000Y-11565000D01*
X11055000Y-11535000D02*
X11025000Y-11565000D01*
X11030000Y-8710000D02*
X11060000Y-8740000D01*
X11060000Y-8710000D02*
X11030000Y-8740000D01*
X11035000Y-11850000D02*
X11065000Y-11880000D01*
X11065000Y-11850000D02*
X11035000Y-11880000D01*
X11070000Y-9525000D02*
X11100000Y-9555000D01*
X11100000Y-9525000D02*
X11070000Y-9555000D01*
X11110000Y-9930000D02*
X11140000Y-9960000D01*
X11140000Y-9930000D02*
X11110000Y-9960000D01*
X11110000Y-10365000D02*
X11140000Y-10395000D01*
X11140000Y-10365000D02*
X11110000Y-10395000D01*
X11235000Y-11660000D02*
X11265000Y-11690000D01*
X11265000Y-11660000D02*
X11235000Y-11690000D01*
X11265000Y-12210000D02*
X11295000Y-12240000D01*
X11295000Y-12210000D02*
X11265000Y-12240000D01*
X11280000Y-8225000D02*
X11310000Y-8255000D01*
X11310000Y-8225000D02*
X11280000Y-8255000D01*
X11295000Y-11040000D02*
X11325000Y-11070000D01*
X11325000Y-11040000D02*
X11295000Y-11070000D01*
X11315000Y-10095000D02*
X11345000Y-10125000D01*
X11345000Y-10095000D02*
X11315000Y-10125000D01*
X11315000Y-11205000D02*
X11345000Y-11235000D01*
X11345000Y-11205000D02*
X11315000Y-11235000D01*
X11345000Y-10285000D02*
X11375000Y-10315000D01*
X11375000Y-10285000D02*
X11345000Y-10315000D01*
X11345000Y-10460000D02*
X11375000Y-10490000D01*
X11375000Y-10460000D02*
X11345000Y-10490000D01*
X11430000Y-8410000D02*
X11460000Y-8440000D01*
X11460000Y-8410000D02*
X11430000Y-8440000D01*
X11465000Y-12775000D02*
X11495000Y-12805000D01*
X11495000Y-12775000D02*
X11465000Y-12805000D01*
X11470000Y-12315000D02*
X11500000Y-12345000D01*
X11500000Y-12315000D02*
X11470000Y-12345000D01*
X11540000Y-9580000D02*
X11570000Y-9610000D01*
X11570000Y-9580000D02*
X11540000Y-9610000D01*
X11620000Y-8810000D02*
X11650000Y-8840000D01*
X11650000Y-8810000D02*
X11620000Y-8840000D01*
X11620000Y-8970000D02*
X11650000Y-9000000D01*
X11650000Y-8970000D02*
X11620000Y-9000000D01*
X11665000Y-12085000D02*
X11695000Y-12115000D01*
X11695000Y-12085000D02*
X11665000Y-12115000D01*
X11690000Y-8445000D02*
X11720000Y-8475000D01*
X11720000Y-8445000D02*
X11690000Y-8475000D01*
X11695000Y-9205000D02*
X11725000Y-9235000D01*
X11725000Y-9205000D02*
X11695000Y-9235000D01*
X11695000Y-9285000D02*
X11725000Y-9315000D01*
X11725000Y-9285000D02*
X11695000Y-9315000D01*
X11695000Y-9575000D02*
X11725000Y-9605000D01*
X11725000Y-9575000D02*
X11695000Y-9605000D01*
X11725000Y-9775000D02*
X11755000Y-9805000D01*
X11755000Y-9775000D02*
X11725000Y-9805000D01*
X11735000Y-10895000D02*
X11765000Y-10925000D01*
X11765000Y-10895000D02*
X11735000Y-10925000D01*
X11750000Y-11430000D02*
X11780000Y-11460000D01*
X11780000Y-11430000D02*
X11750000Y-11460000D01*
X11765000Y-8215000D02*
X11795000Y-8245000D01*
X11795000Y-8215000D02*
X11765000Y-8245000D01*
X11790000Y-8970000D02*
X11820000Y-9000000D01*
X11820000Y-8970000D02*
X11790000Y-9000000D01*
X11790000Y-9385000D02*
X11820000Y-9415000D01*
X11820000Y-9385000D02*
X11790000Y-9415000D01*
X11795000Y-12090000D02*
X11825000Y-12120000D01*
X11825000Y-12090000D02*
X11795000Y-12120000D01*
X11830000Y-9290000D02*
X11860000Y-9320000D01*
X11860000Y-9290000D02*
X11830000Y-9320000D01*
X11904900Y-8425000D02*
X11934900Y-8455000D01*
X11934900Y-8425000D02*
X11904900Y-8455000D01*
X11904900Y-8865000D02*
X11934900Y-8895000D01*
X11934900Y-8865000D02*
X11904900Y-8895000D01*
X11920000Y-10860000D02*
X11950000Y-10890000D01*
X11950000Y-10860000D02*
X11920000Y-10890000D01*
X11935000Y-10450000D02*
X11965000Y-10480000D01*
X11965000Y-10450000D02*
X11935000Y-10480000D01*
X11984900Y-8425000D02*
X12014900Y-8455000D01*
X12014900Y-8425000D02*
X11984900Y-8455000D01*
X11984900Y-8865000D02*
X12014900Y-8895000D01*
X12014900Y-8865000D02*
X11984900Y-8895000D01*
X12070000Y-9395000D02*
X12100000Y-9425000D01*
X12100000Y-9395000D02*
X12070000Y-9425000D01*
X12085000Y-10734990D02*
X12115000Y-10764990D01*
X12115000Y-10734990D02*
X12085000Y-10764990D01*
X12085000Y-10844990D02*
X12115000Y-10874990D01*
X12115000Y-10844990D02*
X12085000Y-10874990D01*
X12090000Y-12540000D02*
X12120000Y-12570000D01*
X12120000Y-12540000D02*
X12090000Y-12570000D01*
X12115000Y-9240000D02*
X12145000Y-9270000D01*
X12145000Y-9240000D02*
X12115000Y-9270000D01*
X12160000Y-11810000D02*
X12190000Y-11840000D01*
X12190000Y-11810000D02*
X12160000Y-11840000D01*
X12160000Y-12095000D02*
X12190000Y-12125000D01*
X12190000Y-12095000D02*
X12160000Y-12125000D01*
X12195000Y-8205000D02*
X12225000Y-8235000D01*
X12225000Y-8205000D02*
X12195000Y-8235000D01*
X12235000Y-8830000D02*
X12265000Y-8860000D01*
X12265000Y-8830000D02*
X12235000Y-8860000D01*
X12235000Y-8915000D02*
X12265000Y-8945000D01*
X12265000Y-8915000D02*
X12235000Y-8945000D01*
X12235000Y-10665000D02*
X12265000Y-10695000D01*
X12265000Y-10665000D02*
X12235000Y-10695000D01*
X12265000Y-9835000D02*
X12295000Y-9865000D01*
X12295000Y-9835000D02*
X12265000Y-9865000D01*
X12280000Y-12735000D02*
X12310000Y-12765000D01*
X12310000Y-12735000D02*
X12280000Y-12765000D01*
X12325000Y-11105000D02*
X12355000Y-11135000D01*
X12355000Y-11105000D02*
X12325000Y-11135000D01*
X12330000Y-8820000D02*
X12360000Y-8850000D01*
X12360000Y-8820000D02*
X12330000Y-8850000D01*
X12365000Y-9575000D02*
X12395000Y-9605000D01*
X12395000Y-9575000D02*
X12365000Y-9605000D01*
X12420000Y-9220000D02*
X12450000Y-9250000D01*
X12450000Y-9220000D02*
X12420000Y-9250000D01*
X12465000Y-9575000D02*
X12495000Y-9605000D01*
X12495000Y-9575000D02*
X12465000Y-9605000D01*
X12505000Y-10865000D02*
X12535000Y-10895000D01*
X12535000Y-10865000D02*
X12505000Y-10895000D01*
X12510000Y-12620000D02*
X12540000Y-12650000D01*
X12540000Y-12620000D02*
X12510000Y-12650000D01*
X12590000Y-10540000D02*
X12620000Y-10570000D01*
X12620000Y-10540000D02*
X12590000Y-10570000D01*
X12605000Y-8695000D02*
X12635000Y-8725000D01*
X12635000Y-8695000D02*
X12605000Y-8725000D01*
X12630000Y-9295000D02*
X12660000Y-9325000D01*
X12660000Y-9295000D02*
X12630000Y-9325000D01*
X12740000Y-12600000D02*
X12770000Y-12630000D01*
X12770000Y-12600000D02*
X12740000Y-12630000D01*
X12765000Y-10270000D02*
X12795000Y-10300000D01*
X12795000Y-10270000D02*
X12765000Y-10300000D01*
X12815000Y-12365000D02*
X12845000Y-12395000D01*
X12845000Y-12365000D02*
X12815000Y-12395000D01*
X12835000Y-9605000D02*
X12865000Y-9635000D01*
X12865000Y-9605000D02*
X12835000Y-9635000D01*
X12845000Y-9865000D02*
X12875000Y-9895000D01*
X12875000Y-9865000D02*
X12845000Y-9895000D01*
X12845000Y-10105000D02*
X12875000Y-10135000D01*
X12875000Y-10105000D02*
X12845000Y-10135000D01*
X12845000Y-10195000D02*
X12875000Y-10225000D01*
X12875000Y-10195000D02*
X12845000Y-10225000D01*
X12860000Y-11335000D02*
X12890000Y-11365000D01*
X12890000Y-11335000D02*
X12860000Y-11365000D01*
X12870000Y-12760000D02*
X12900000Y-12790000D01*
X12900000Y-12760000D02*
X12870000Y-12790000D01*
X12885000Y-11790000D02*
X12915000Y-11820000D01*
X12915000Y-11790000D02*
X12885000Y-11820000D01*
X12890000Y-9190000D02*
X12920000Y-9220000D01*
X12920000Y-9190000D02*
X12890000Y-9220000D01*
X12910000Y-10770000D02*
X12940000Y-10800000D01*
X12940000Y-10770000D02*
X12910000Y-10800000D01*
X12915000Y-9795000D02*
X12945000Y-9825000D01*
X12945000Y-9795000D02*
X12915000Y-9825000D01*
X12925000Y-9965000D02*
X12955000Y-9995000D01*
X12955000Y-9965000D02*
X12925000Y-9995000D01*
X12950000Y-9610000D02*
X12980000Y-9640000D01*
X12980000Y-9610000D02*
X12950000Y-9640000D01*
X13035000Y-12505000D02*
X13065000Y-12535000D01*
X13065000Y-12505000D02*
X13035000Y-12535000D01*
X13045000Y-9494550D02*
X13075000Y-9524550D01*
X13075000Y-9494550D02*
X13045000Y-9524550D01*
X13120000Y-9785000D02*
X13150000Y-9815000D01*
X13150000Y-9785000D02*
X13120000Y-9815000D01*
X13145000Y-9330000D02*
X13175000Y-9360000D01*
X13175000Y-9330000D02*
X13145000Y-9360000D01*
X13150000Y-9955000D02*
X13180000Y-9985000D01*
X13180000Y-9955000D02*
X13150000Y-9985000D01*
X13155000Y-9605000D02*
X13185000Y-9635000D01*
X13185000Y-9605000D02*
X13155000Y-9635000D01*
X13155000Y-9695000D02*
X13185000Y-9725000D01*
X13185000Y-9695000D02*
X13155000Y-9725000D01*
X13165000Y-9865000D02*
X13195000Y-9895000D01*
X13195000Y-9865000D02*
X13165000Y-9895000D01*
X13185000Y-12380000D02*
X13215000Y-12410000D01*
X13215000Y-12380000D02*
X13185000Y-12410000D01*
X13280000Y-11065000D02*
X13310000Y-11095000D01*
X13310000Y-11065000D02*
X13280000Y-11095000D01*
X13295000Y-10265000D02*
X13325000Y-10295000D01*
X13325000Y-10265000D02*
X13295000Y-10295000D01*
X13375000Y-9175000D02*
X13405000Y-9205000D01*
X13405000Y-9175000D02*
X13375000Y-9205000D01*
X13385000Y-8220000D02*
X13415000Y-8250000D01*
X13415000Y-8220000D02*
X13385000Y-8250000D01*
X13385000Y-8715000D02*
X13415000Y-8745000D01*
X13415000Y-8715000D02*
X13385000Y-8745000D01*
X13385000Y-8805000D02*
X13415000Y-8835000D01*
X13415000Y-8805000D02*
X13385000Y-8835000D01*
X13415000Y-10525000D02*
X13445000Y-10555000D01*
X13445000Y-10525000D02*
X13415000Y-10555000D01*
X13435000Y-8535000D02*
X13465000Y-8565000D01*
X13465000Y-8535000D02*
X13435000Y-8565000D01*
X13495000Y-9965000D02*
X13525000Y-9995000D01*
X13525000Y-9965000D02*
X13495000Y-9995000D01*
X13565000Y-10745000D02*
X13595000Y-10775000D01*
X13595000Y-10745000D02*
X13565000Y-10775000D01*
X13585000Y-10525000D02*
X13615000Y-10555000D01*
X13615000Y-10525000D02*
X13585000Y-10555000D01*
X13615000Y-8825000D02*
X13645000Y-8855000D01*
X13645000Y-8825000D02*
X13615000Y-8855000D01*
X13625000Y-12570000D02*
X13655000Y-12600000D01*
X13655000Y-12570000D02*
X13625000Y-12600000D01*
X13680000Y-10870000D02*
X13710000Y-10900000D01*
X13710000Y-10870000D02*
X13680000Y-10900000D01*
X13725000Y-10625000D02*
X13755000Y-10655000D01*
X13755000Y-10625000D02*
X13725000Y-10655000D01*
X13765000Y-10960000D02*
X13795000Y-10990000D01*
X13795000Y-10960000D02*
X13765000Y-10990000D01*
X13805000Y-9525000D02*
X13835000Y-9555000D01*
X13835000Y-9525000D02*
X13805000Y-9555000D01*
X13810000Y-8245000D02*
X13840000Y-8275000D01*
X13840000Y-8245000D02*
X13810000Y-8275000D01*
X13885000Y-10625000D02*
X13915000Y-10655000D01*
X13915000Y-10625000D02*
X13885000Y-10655000D01*
X13895000Y-12735000D02*
X13925000Y-12765000D01*
X13925000Y-12735000D02*
X13895000Y-12765000D01*
X13915000Y-12535000D02*
X13945000Y-12565000D01*
X13945000Y-12535000D02*
X13915000Y-12565000D01*
X13935000Y-9915000D02*
X13965000Y-9945000D01*
X13965000Y-9915000D02*
X13935000Y-9945000D01*
X14045000Y-10625000D02*
X14075000Y-10655000D01*
X14075000Y-10625000D02*
X14045000Y-10655000D01*
X14105000Y-10015000D02*
X14135000Y-10045000D01*
X14135000Y-10015000D02*
X14105000Y-10045000D01*
X14125000Y-12670000D02*
X14155000Y-12700000D01*
X14155000Y-12670000D02*
X14125000Y-12700000D01*
X14135000Y-11095000D02*
X14165000Y-11125000D01*
X14165000Y-11095000D02*
X14135000Y-11125000D01*
X14165000Y-9385000D02*
X14195000Y-9415000D01*
X14195000Y-9385000D02*
X14165000Y-9415000D01*
X14170000Y-10355000D02*
X14200000Y-10385000D01*
X14200000Y-10355000D02*
X14170000Y-10385000D01*
X14185000Y-8305000D02*
X14215000Y-8335000D01*
X14215000Y-8305000D02*
X14185000Y-8335000D01*
X14195000Y-10695000D02*
X14225000Y-10725000D01*
X14225000Y-10695000D02*
X14195000Y-10725000D01*
X14215000Y-9985000D02*
X14245000Y-10015000D01*
X14245000Y-9985000D02*
X14215000Y-10015000D01*
X14260000Y-10545000D02*
X14290000Y-10575000D01*
X14290000Y-10545000D02*
X14260000Y-10575000D01*
X14265000Y-12095000D02*
X14295000Y-12125000D01*
X14295000Y-12095000D02*
X14265000Y-12125000D01*
X14305000Y-12420000D02*
X14335000Y-12450000D01*
X14335000Y-12420000D02*
X14305000Y-12450000D01*
X14320000Y-11720000D02*
X14350000Y-11750000D01*
X14350000Y-11720000D02*
X14320000Y-11750000D01*
X14345000Y-8830000D02*
X14375000Y-8860000D01*
X14375000Y-8830000D02*
X14345000Y-8860000D01*
X14360000Y-9095000D02*
X14390000Y-9125000D01*
X14390000Y-9095000D02*
X14360000Y-9125000D01*
X14365000Y-9445000D02*
X14395000Y-9475000D01*
X14395000Y-9445000D02*
X14365000Y-9475000D01*
X14365000Y-10850000D02*
X14395000Y-10880000D01*
X14395000Y-10850000D02*
X14365000Y-10880000D01*
X14380000Y-11905000D02*
X14410000Y-11935000D01*
X14410000Y-11905000D02*
X14380000Y-11935000D01*
X14547500Y-9095000D02*
X14577500Y-9125000D01*
X14577500Y-9095000D02*
X14547500Y-9125000D01*
X14605000Y-12565000D02*
X14635000Y-12595000D01*
X14635000Y-12565000D02*
X14605000Y-12595000D01*
X14625000Y-9835000D02*
X14655000Y-9865000D01*
X14655000Y-9835000D02*
X14625000Y-9865000D01*
X14625000Y-9920000D02*
X14655000Y-9950000D01*
X14655000Y-9920000D02*
X14625000Y-9950000D01*
X14690000Y-12375000D02*
X14720000Y-12405000D01*
X14720000Y-12375000D02*
X14690000Y-12405000D01*
X14730000Y-8240000D02*
X14760000Y-8270000D01*
X14760000Y-8240000D02*
X14730000Y-8270000D01*
X14735000Y-9095000D02*
X14765000Y-9125000D01*
X14765000Y-9095000D02*
X14735000Y-9125000D01*
X14755000Y-11675000D02*
X14785000Y-11705000D01*
X14785000Y-11675000D02*
X14755000Y-11705000D01*
X14825000Y-11140000D02*
X14855000Y-11170000D01*
X14855000Y-11140000D02*
X14825000Y-11170000D01*
X15150000Y-8385000D02*
X15180000Y-8415000D01*
X15180000Y-8385000D02*
X15150000Y-8415000D01*
X15155000Y-12570000D02*
X15185000Y-12600000D01*
X15185000Y-12570000D02*
X15155000Y-12600000D01*
X15385000Y-10714990D02*
X15415000Y-10744990D01*
X15415000Y-10714990D02*
X15385000Y-10744990D01*
X15385000Y-10824990D02*
X15415000Y-10854990D01*
X15415000Y-10824990D02*
X15385000Y-10854990D01*
X15390000Y-8815000D02*
X15420000Y-8845000D01*
X15420000Y-8815000D02*
X15390000Y-8845000D01*
X15415000Y-10070000D02*
X15445000Y-10100000D01*
X15445000Y-10070000D02*
X15415000Y-10100000D01*
X15500000Y-12540000D02*
X15530000Y-12570000D01*
X15530000Y-12540000D02*
X15500000Y-12570000D01*
X15520000Y-9445000D02*
X15550000Y-9475000D01*
X15550000Y-9445000D02*
X15520000Y-9475000D01*
X15625000Y-10295000D02*
X15655000Y-10325000D01*
X15655000Y-10295000D02*
X15625000Y-10325000D01*
X15625000Y-11105000D02*
X15655000Y-11135000D01*
X15655000Y-11105000D02*
X15625000Y-11135000D01*
X15630000Y-9590000D02*
X15660000Y-9620000D01*
X15660000Y-9590000D02*
X15630000Y-9620000D01*
X15640000Y-8245000D02*
X15670000Y-8275000D01*
X15670000Y-8245000D02*
X15640000Y-8275000D01*
X15715000Y-12630000D02*
X15745000Y-12660000D01*
X15745000Y-12630000D02*
X15715000Y-12660000D01*
X15725000Y-8930000D02*
X15755000Y-8960000D01*
X15755000Y-8930000D02*
X15725000Y-8960000D01*
X15755000Y-10415000D02*
X15785000Y-10445000D01*
X15785000Y-10415000D02*
X15755000Y-10445000D01*
X15760000Y-12100000D02*
X15790000Y-12130000D01*
X15790000Y-12100000D02*
X15760000Y-12130000D01*
X15785000Y-9720000D02*
X15815000Y-9750000D01*
X15815000Y-9720000D02*
X15785000Y-9750000D01*
X15805000Y-10790000D02*
X15835000Y-10820000D01*
X15835000Y-10790000D02*
X15805000Y-10820000D01*
X15835000Y-8295000D02*
X15865000Y-8325000D01*
X15865000Y-8295000D02*
X15835000Y-8325000D01*
X15855000Y-11800000D02*
X15885000Y-11830000D01*
X15885000Y-11800000D02*
X15855000Y-11830000D01*
X15860000Y-9520000D02*
X15890000Y-9550000D01*
X15890000Y-9520000D02*
X15860000Y-9550000D01*
X15905000Y-12345000D02*
X15935000Y-12375000D01*
X15935000Y-12345000D02*
X15905000Y-12375000D01*
X16040000Y-9405000D02*
X16070000Y-9435000D01*
X16070000Y-9405000D02*
X16040000Y-9435000D01*
X16050000Y-10800000D02*
X16080000Y-10830000D01*
X16080000Y-10800000D02*
X16050000Y-10830000D01*
X16080000Y-11335000D02*
X16110000Y-11365000D01*
X16110000Y-11335000D02*
X16080000Y-11365000D01*
X16100000Y-11715000D02*
X16130000Y-11745000D01*
X16130000Y-11715000D02*
X16100000Y-11745000D01*
X16105000Y-9995000D02*
X16135000Y-10025000D01*
X16135000Y-9995000D02*
X16105000Y-10025000D01*
X16105000Y-12535000D02*
X16135000Y-12565000D01*
X16135000Y-12535000D02*
X16105000Y-12565000D01*
X16170000Y-12765000D02*
X16200000Y-12795000D01*
X16200000Y-12765000D02*
X16170000Y-12795000D01*
X16180000Y-12320000D02*
X16210000Y-12350000D01*
X16210000Y-12320000D02*
X16180000Y-12350000D01*
X16400000Y-12230000D02*
X16430000Y-12260000D01*
X16430000Y-12230000D02*
X16400000Y-12260000D01*
X16500000Y-9195000D02*
X16530000Y-9225000D01*
X16530000Y-9195000D02*
X16500000Y-9225000D01*
X16510000Y-10425000D02*
X16540000Y-10455000D01*
X16540000Y-10425000D02*
X16510000Y-10455000D01*
X16605000Y-8935000D02*
X16635000Y-8965000D01*
X16635000Y-8935000D02*
X16605000Y-8965000D01*
X16620000Y-8320000D02*
X16650000Y-8350000D01*
X16650000Y-8320000D02*
X16620000Y-8350000D01*
X16690000Y-12225000D02*
X16720000Y-12255000D01*
X16720000Y-12225000D02*
X16690000Y-12255000D01*
X16700000Y-11245000D02*
X16730000Y-11275000D01*
X16730000Y-11245000D02*
X16700000Y-11275000D01*
X16705000Y-11635000D02*
X16735000Y-11665000D01*
X16735000Y-11635000D02*
X16705000Y-11665000D01*
X16725000Y-11950000D02*
X16755000Y-11980000D01*
X16755000Y-11950000D02*
X16725000Y-11980000D01*
X16745000Y-10630000D02*
X16775000Y-10660000D01*
X16775000Y-10630000D02*
X16745000Y-10660000D01*
X16795000Y-9400000D02*
X16825000Y-9430000D01*
X16825000Y-9400000D02*
X16795000Y-9430000D01*
X17162000Y-11687000D02*
X17192000Y-11717000D01*
X17192000Y-11687000D02*
X17162000Y-11717000D01*
X17162000Y-11834000D02*
X17192000Y-11864000D01*
X17192000Y-11834000D02*
X17162000Y-11864000D01*
X17162000Y-11981000D02*
X17192000Y-12011000D01*
X17192000Y-11981000D02*
X17162000Y-12011000D01*
X17162000Y-12128000D02*
X17192000Y-12158000D01*
X17192000Y-12128000D02*
X17162000Y-12158000D01*
X17325000Y-9045000D02*
X17355000Y-9075000D01*
X17355000Y-9045000D02*
X17325000Y-9075000D01*
X17495000Y-8530000D02*
X17525000Y-8560000D01*
X17525000Y-8530000D02*
X17495000Y-8560000D01*
X17515000Y-8835000D02*
X17545000Y-8865000D01*
X17545000Y-8835000D02*
X17515000Y-8865000D01*
X17765000Y-10285000D02*
X17795000Y-10315000D01*
X17795000Y-10285000D02*
X17765000Y-10315000D01*
X17765000Y-10407667D02*
X17795000Y-10437667D01*
X17795000Y-10407667D02*
X17765000Y-10437667D01*
X17765000Y-10530333D02*
X17795000Y-10560333D01*
X17795000Y-10530333D02*
X17765000Y-10560333D01*
X17765000Y-10653000D02*
X17795000Y-10683000D01*
X17795000Y-10653000D02*
X17765000Y-10683000D01*
X17765000Y-10775666D02*
X17795000Y-10805666D01*
X17795000Y-10775666D02*
X17765000Y-10805666D01*
X17765000Y-10898333D02*
X17795000Y-10928333D01*
X17795000Y-10898333D02*
X17765000Y-10928333D01*
X17765000Y-11021000D02*
X17795000Y-11051000D01*
X17795000Y-11021000D02*
X17765000Y-11051000D01*
X17765000Y-11143666D02*
X17795000Y-11173666D01*
X17795000Y-11143666D02*
X17765000Y-11173666D01*
X17765000Y-11266333D02*
X17795000Y-11296333D01*
X17795000Y-11266333D02*
X17765000Y-11296333D01*
X17765000Y-11388999D02*
X17795000Y-11418999D01*
X17795000Y-11388999D02*
X17765000Y-11418999D01*
X17765000Y-11511666D02*
X17795000Y-11541666D01*
X17795000Y-11511666D02*
X17765000Y-11541666D01*
X17765000Y-11634333D02*
X17795000Y-11664333D01*
X17795000Y-11634333D02*
X17765000Y-11664333D01*
X17765000Y-11756999D02*
X17795000Y-11786999D01*
X17795000Y-11756999D02*
X17765000Y-11786999D01*
X17765000Y-11879666D02*
X17795000Y-11909666D01*
X17795000Y-11879666D02*
X17765000Y-11909666D01*
X17765000Y-12002332D02*
X17795000Y-12032332D01*
X17795000Y-12002332D02*
X17765000Y-12032332D01*
X17765000Y-12125000D02*
X17795000Y-12155000D01*
X17795000Y-12125000D02*
X17765000Y-12155000D01*
X18362000Y-9632000D02*
X18392000Y-9662000D01*
X18392000Y-9632000D02*
X18362000Y-9662000D01*
X18367000Y-11691000D02*
X18397000Y-11721000D01*
X18397000Y-11691000D02*
X18367000Y-11721000D01*
X18367000Y-11837000D02*
X18397000Y-11867000D01*
X18397000Y-11837000D02*
X18367000Y-11867000D01*
X18367000Y-11983000D02*
X18397000Y-12013000D01*
X18397000Y-11983000D02*
X18367000Y-12013000D01*
X18367000Y-12129000D02*
X18397000Y-12159000D01*
X18397000Y-12129000D02*
X18367000Y-12159000D01*
X11607400Y-8261350D02*
G75*
G02*
X11547400Y-8261350I-30000J0D01*
G01*
X11547400Y-8261350D02*
G75*
G02*
X11607400Y-8261350I30000J0D01*
G01*
X11607400Y-8291350D02*
X11607400Y-8231350D01*
X11547400Y-8231350D02*
G75*
G02*
X11607400Y-8231350I30000J0D01*
G01*
X11547400Y-8231350D02*
X11547400Y-8291350D01*
X11547400Y-8291350D02*
G75*
G03*
X11607400Y-8291350I30000J0D01*
G01*
X11607400Y-8681360D02*
G75*
G02*
X11547400Y-8681360I-30000J0D01*
G01*
X11547400Y-8681360D02*
G75*
G02*
X11607400Y-8681360I30000J0D01*
G01*
X11607400Y-8726360D02*
X11607400Y-8636360D01*
X11547400Y-8636360D02*
G75*
G02*
X11607400Y-8636360I30000J0D01*
G01*
X11547400Y-8636360D02*
X11547400Y-8726360D01*
X11547400Y-8726360D02*
G75*
G03*
X11607400Y-8726360I30000J0D01*
G01*
X12472400Y-8261350D02*
G75*
G02*
X12412400Y-8261350I-30000J0D01*
G01*
X12412400Y-8261350D02*
G75*
G02*
X12472400Y-8261350I30000J0D01*
G01*
X12472400Y-8291350D02*
X12472400Y-8231350D01*
X12412400Y-8231350D02*
G75*
G02*
X12472400Y-8231350I30000J0D01*
G01*
X12412400Y-8231350D02*
X12412400Y-8291350D01*
X12412400Y-8291350D02*
G75*
G03*
X12472400Y-8291350I30000J0D01*
G01*
X12472400Y-8681360D02*
G75*
G02*
X12412400Y-8681360I-30000J0D01*
G01*
X12412400Y-8681360D02*
G75*
G02*
X12472400Y-8681360I30000J0D01*
G01*
X12472400Y-8726360D02*
X12472400Y-8636360D01*
X12412400Y-8636360D02*
G75*
G02*
X12472400Y-8636360I30000J0D01*
G01*
X12412400Y-8636360D02*
X12412400Y-8726360D01*
X12412400Y-8726360D02*
G75*
G03*
X12472400Y-8726360I30000J0D01*
G01*
X13607400Y-8261350D02*
G75*
G02*
X13547400Y-8261350I-30000J0D01*
G01*
X13547400Y-8261350D02*
G75*
G02*
X13607400Y-8261350I30000J0D01*
G01*
X13607400Y-8291350D02*
X13607400Y-8231350D01*
X13547400Y-8231350D02*
G75*
G02*
X13607400Y-8231350I30000J0D01*
G01*
X13547400Y-8231350D02*
X13547400Y-8291350D01*
X13547400Y-8291350D02*
G75*
G03*
X13607400Y-8291350I30000J0D01*
G01*
X13607400Y-8681360D02*
G75*
G02*
X13547400Y-8681360I-30000J0D01*
G01*
X13547400Y-8681360D02*
G75*
G02*
X13607400Y-8681360I30000J0D01*
G01*
X13607400Y-8726360D02*
X13607400Y-8636360D01*
X13547400Y-8636360D02*
G75*
G02*
X13607400Y-8636360I30000J0D01*
G01*
X13547400Y-8636360D02*
X13547400Y-8726360D01*
X13547400Y-8726360D02*
G75*
G03*
X13607400Y-8726360I30000J0D01*
G01*
X14472400Y-8261350D02*
G75*
G02*
X14412400Y-8261350I-30000J0D01*
G01*
X14412400Y-8261350D02*
G75*
G02*
X14472400Y-8261350I30000J0D01*
G01*
X14472400Y-8291350D02*
X14472400Y-8231350D01*
X14412400Y-8231350D02*
G75*
G02*
X14472400Y-8231350I30000J0D01*
G01*
X14412400Y-8231350D02*
X14412400Y-8291350D01*
X14412400Y-8291350D02*
G75*
G03*
X14472400Y-8291350I30000J0D01*
G01*
X14472400Y-8681360D02*
G75*
G02*
X14412400Y-8681360I-30000J0D01*
G01*
X14412400Y-8681360D02*
G75*
G02*
X14472400Y-8681360I30000J0D01*
G01*
X14472400Y-8726360D02*
X14472400Y-8636360D01*
X14412400Y-8636360D02*
G75*
G02*
X14472400Y-8636360I30000J0D01*
G01*
X14412400Y-8636360D02*
X14412400Y-8726360D01*
X14412400Y-8726360D02*
G75*
G03*
X14472400Y-8726360I30000J0D01*
G01*
X11427380Y-10775000D02*
X11427380Y-10855000D01*
X11387380Y-10815000D02*
X11467380Y-10815000D01*
X11362380Y-10855000D02*
X11492380Y-10855000D01*
X11492380Y-10775000D02*
G75*
G02*
X11492380Y-10855000I0J-40000D01*
G01*
X11492380Y-10775000D02*
X11362380Y-10775000D01*
X11362380Y-10775000D02*
G75*
G03*
X11362380Y-10855000I0J-40000D01*
G01*
X11427380Y-12064980D02*
X11427380Y-12144980D01*
X11387380Y-12104980D02*
X11467380Y-12104980D01*
X11362380Y-12144980D02*
X11492380Y-12144980D01*
X11492380Y-12064980D02*
G75*
G02*
X11492380Y-12144980I0J-40000D01*
G01*
X11492380Y-12064980D02*
X11362380Y-12064980D01*
X11362380Y-12064980D02*
G75*
G03*
X11362380Y-12144980I0J-40000D01*
G01*
X13609729Y-11142309D02*
X13609729Y-11077651D01*
X13545071Y-11077651D01*
X13545071Y-11142309D01*
X13609729Y-11142309D01*
X13609729Y-11392239D02*
X13609729Y-11327581D01*
X13545071Y-11327581D01*
X13545071Y-11392239D01*
X13609729Y-11392239D01*
X13609729Y-11592399D02*
X13609729Y-11527741D01*
X13545071Y-11527741D01*
X13545071Y-11592399D01*
X13609729Y-11592399D01*
X13609729Y-11842329D02*
X13609729Y-11777671D01*
X13545071Y-11777671D01*
X13545071Y-11842329D01*
X13609729Y-11842329D01*
X15109729Y-11142309D02*
X15109729Y-11077651D01*
X15045071Y-11077651D01*
X15045071Y-11142309D01*
X15109729Y-11142309D01*
X15109729Y-11392239D02*
X15109729Y-11327581D01*
X15045071Y-11327581D01*
X15045071Y-11392239D01*
X15109729Y-11392239D01*
X15109729Y-11592399D02*
X15109729Y-11527741D01*
X15045071Y-11527741D01*
X15045071Y-11592399D01*
X15109729Y-11592399D01*
X15109729Y-11842329D02*
X15109729Y-11777671D01*
X15045071Y-11777671D01*
X15045071Y-11842329D01*
X15109729Y-11842329D01*
X11577400Y-11159990D02*
X11627400Y-11109990D01*
X11577400Y-11059990D01*
X11527400Y-11109990D01*
X11577400Y-11159990D01*
X11577400Y-11410000D02*
X11627400Y-11360000D01*
X11577400Y-11310000D01*
X11527400Y-11360000D01*
X11577400Y-11410000D01*
X11577400Y-11610000D02*
X11627400Y-11560000D01*
X11577400Y-11510000D01*
X11527400Y-11560000D01*
X11577400Y-11610000D01*
X11577400Y-11859990D02*
X11627400Y-11809990D01*
X11577400Y-11759990D01*
X11527400Y-11809990D01*
X11577400Y-11859990D01*
X13327380Y-10852990D02*
X13377380Y-10802990D01*
X13327380Y-10752990D01*
X13277380Y-10802990D01*
X13327380Y-10852990D01*
X13397380Y-10752990D02*
X13257380Y-10752990D01*
X13257380Y-10852990D02*
G75*
G02*
X13257380Y-10752990I0J50000D01*
G01*
X13257380Y-10852990D02*
X13397380Y-10852990D01*
X13397380Y-10852990D02*
G75*
G03*
X13397380Y-10752990I0J50000D01*
G01*
X13327380Y-12166990D02*
X13377380Y-12116990D01*
X13327380Y-12066990D01*
X13277380Y-12116990D01*
X13327380Y-12166990D01*
X13257380Y-12166990D02*
X13397380Y-12166990D01*
X13397380Y-12066990D02*
G75*
G02*
X13397380Y-12166990I0J-50000D01*
G01*
X13397380Y-12066990D02*
X13257380Y-12066990D01*
X13257380Y-12066990D02*
G75*
G03*
X13257380Y-12166990I0J-50000D01*
G01*
X14827380Y-10852990D02*
X14877380Y-10802990D01*
X14827380Y-10752990D01*
X14777380Y-10802990D01*
X14827380Y-10852990D01*
X14897380Y-10752990D02*
X14757380Y-10752990D01*
X14757380Y-10852990D02*
G75*
G02*
X14757380Y-10752990I0J50000D01*
G01*
X14757380Y-10852990D02*
X14897380Y-10852990D01*
X14897380Y-10852990D02*
G75*
G03*
X14897380Y-10752990I0J50000D01*
G01*
X14827380Y-12166990D02*
X14877380Y-12116990D01*
X14827380Y-12066990D01*
X14777380Y-12116990D01*
X14827380Y-12166990D01*
X14757380Y-12166990D02*
X14897380Y-12166990D01*
X14897380Y-12066990D02*
G75*
G02*
X14897380Y-12166990I0J-50000D01*
G01*
X14897380Y-12066990D02*
X14757380Y-12066990D01*
X14757380Y-12066990D02*
G75*
G03*
X14757380Y-12166990I0J-50000D01*
G01*
X14842000Y-10470000D02*
X14892000Y-10420000D01*
X14842000Y-10370000D01*
X14792000Y-10420000D01*
X14842000Y-10470000D01*
X15096000Y-10470000D02*
X15146000Y-10420000D01*
X15096000Y-10370000D01*
X15046000Y-10420000D01*
X15096000Y-10470000D01*
X15350000Y-10470000D02*
X15400000Y-10420000D01*
X15350000Y-10370000D01*
X15300000Y-10420000D01*
X15350000Y-10470000D01*
X16380000Y-10998000D02*
X16430000Y-10948000D01*
X16380000Y-10898000D01*
X16330000Y-10948000D01*
X16380000Y-10998000D01*
X16380000Y-11252000D02*
X16430000Y-11202000D01*
X16380000Y-11152000D01*
X16330000Y-11202000D01*
X16380000Y-11252000D01*
X16380000Y-11506000D02*
X16430000Y-11456000D01*
X16380000Y-11406000D01*
X16330000Y-11456000D01*
X16380000Y-11506000D01*
X16380000Y-11760000D02*
X16430000Y-11710000D01*
X16380000Y-11660000D01*
X16330000Y-11710000D01*
X16380000Y-11760000D01*
X16380000Y-12014000D02*
X16430000Y-11964000D01*
X16380000Y-11914000D01*
X16330000Y-11964000D01*
X16380000Y-12014000D01*
X17177000Y-10265000D02*
X17227000Y-10215000D01*
X17177000Y-10165000D01*
X17127000Y-10215000D01*
X17177000Y-10265000D01*
X18377000Y-10265000D02*
X18427000Y-10215000D01*
X18377000Y-10165000D01*
X18327000Y-10215000D01*
X18377000Y-10265000D01*
D12*
X17112000Y-11370000D02*
X17242000Y-11500000D01*
X17242000Y-11370000D02*
X17112000Y-11500000D01*
X17242000Y-11435000D02*
G75*
G02*
X17112000Y-11435000I-65000J0D01*
G01*
X17112000Y-11435000D02*
G75*
G02*
X17242000Y-11435000I65000J0D01*
G01*
X17717000Y-9955000D02*
X17847000Y-10085000D01*
X17847000Y-9955000D02*
X17717000Y-10085000D01*
X17847000Y-10020000D02*
G75*
G02*
X17717000Y-10020000I-65000J0D01*
G01*
X17717000Y-10020000D02*
G75*
G02*
X17847000Y-10020000I65000J0D01*
G01*
X18317000Y-11375000D02*
X18447000Y-11505000D01*
X18447000Y-11375000D02*
X18317000Y-11505000D01*
X18447000Y-11440000D02*
G75*
G02*
X18317000Y-11440000I-65000J0D01*
G01*
X18317000Y-11440000D02*
G75*
G02*
X18447000Y-11440000I65000J0D01*
G01*
D13*
X17194000Y-12300000D02*
X17354000Y-12460000D01*
X17354000Y-12300000D02*
X17194000Y-12460000D01*
X17274000Y-12300000D02*
X17274000Y-12460000D01*
X17194000Y-12380000D02*
X17354000Y-12380000D01*
X17702000Y-12300000D02*
X17862000Y-12460000D01*
X17862000Y-12300000D02*
X17702000Y-12460000D01*
X17782000Y-12300000D02*
X17782000Y-12460000D01*
X17702000Y-12380000D02*
X17862000Y-12380000D01*
X18210000Y-12300000D02*
X18370000Y-12460000D01*
X18370000Y-12300000D02*
X18210000Y-12460000D01*
X18290000Y-12300000D02*
X18290000Y-12460000D01*
X18210000Y-12380000D02*
X18370000Y-12380000D01*
D10*
X11120777Y-13220484D02*
X11120777Y-13020484D01*
X11120777Y-13020484D02*
X11168396Y-13020484D01*
X11168396Y-13020484D02*
X11196967Y-13030008D01*
X11196967Y-13030008D02*
X11216015Y-13049055D01*
X11216015Y-13049055D02*
X11225539Y-13068103D01*
X11225539Y-13068103D02*
X11235062Y-13106198D01*
X11235062Y-13106198D02*
X11235062Y-13134769D01*
X11235062Y-13134769D02*
X11225539Y-13172865D01*
X11225539Y-13172865D02*
X11216015Y-13191912D01*
X11216015Y-13191912D02*
X11196967Y-13210960D01*
X11196967Y-13210960D02*
X11168396Y-13220484D01*
X11168396Y-13220484D02*
X11120777Y-13220484D01*
X11320777Y-13220484D02*
X11320777Y-13087150D01*
X11320777Y-13125246D02*
X11330301Y-13106198D01*
X11330301Y-13106198D02*
X11339824Y-13096674D01*
X11339824Y-13096674D02*
X11358872Y-13087150D01*
X11358872Y-13087150D02*
X11377920Y-13087150D01*
X11444586Y-13220484D02*
X11444586Y-13087150D01*
X11444586Y-13020484D02*
X11435062Y-13030008D01*
X11435062Y-13030008D02*
X11444586Y-13039531D01*
X11444586Y-13039531D02*
X11454110Y-13030008D01*
X11454110Y-13030008D02*
X11444586Y-13020484D01*
X11444586Y-13020484D02*
X11444586Y-13039531D01*
X11568396Y-13220484D02*
X11549348Y-13210960D01*
X11549348Y-13210960D02*
X11539824Y-13191912D01*
X11539824Y-13191912D02*
X11539824Y-13020484D01*
X11673158Y-13220484D02*
X11654110Y-13210960D01*
X11654110Y-13210960D02*
X11644586Y-13191912D01*
X11644586Y-13191912D02*
X11644586Y-13020484D01*
X11901729Y-13220484D02*
X11901729Y-13020484D01*
X11901729Y-13020484D02*
X11968396Y-13163341D01*
X11968396Y-13163341D02*
X12035062Y-13020484D01*
X12035062Y-13020484D02*
X12035062Y-13220484D01*
X12216015Y-13220484D02*
X12216015Y-13115722D01*
X12216015Y-13115722D02*
X12206491Y-13096674D01*
X12206491Y-13096674D02*
X12187443Y-13087150D01*
X12187443Y-13087150D02*
X12149348Y-13087150D01*
X12149348Y-13087150D02*
X12130301Y-13096674D01*
X12216015Y-13210960D02*
X12196967Y-13220484D01*
X12196967Y-13220484D02*
X12149348Y-13220484D01*
X12149348Y-13220484D02*
X12130301Y-13210960D01*
X12130301Y-13210960D02*
X12120777Y-13191912D01*
X12120777Y-13191912D02*
X12120777Y-13172865D01*
X12120777Y-13172865D02*
X12130301Y-13153817D01*
X12130301Y-13153817D02*
X12149348Y-13144293D01*
X12149348Y-13144293D02*
X12196967Y-13144293D01*
X12196967Y-13144293D02*
X12216015Y-13134769D01*
X12311253Y-13087150D02*
X12311253Y-13287150D01*
X12311253Y-13096674D02*
X12330301Y-13087150D01*
X12330301Y-13087150D02*
X12368396Y-13087150D01*
X12368396Y-13087150D02*
X12387443Y-13096674D01*
X12387443Y-13096674D02*
X12396967Y-13106198D01*
X12396967Y-13106198D02*
X12406491Y-13125246D01*
X12406491Y-13125246D02*
X12406491Y-13182388D01*
X12406491Y-13182388D02*
X12396967Y-13201436D01*
X12396967Y-13201436D02*
X12387443Y-13210960D01*
X12387443Y-13210960D02*
X12368396Y-13220484D01*
X12368396Y-13220484D02*
X12330301Y-13220484D01*
X12330301Y-13220484D02*
X12311253Y-13210960D01*
X12492205Y-13201436D02*
X12501729Y-13210960D01*
X12501729Y-13210960D02*
X12492205Y-13220484D01*
X12492205Y-13220484D02*
X12482682Y-13210960D01*
X12482682Y-13210960D02*
X12492205Y-13201436D01*
X12492205Y-13201436D02*
X12492205Y-13220484D01*
X12492205Y-13096674D02*
X12501729Y-13106198D01*
X12501729Y-13106198D02*
X12492205Y-13115722D01*
X12492205Y-13115722D02*
X12482682Y-13106198D01*
X12482682Y-13106198D02*
X12492205Y-13096674D01*
X12492205Y-13096674D02*
X12492205Y-13115722D01*
D11*
X10830000Y-13534000D02*
X10860000Y-13564000D01*
X10860000Y-13534000D02*
X10830000Y-13564000D01*
D10*
X11158872Y-13440484D02*
X11177920Y-13440484D01*
X11177920Y-13440484D02*
X11196967Y-13450008D01*
X11196967Y-13450008D02*
X11206491Y-13459531D01*
X11206491Y-13459531D02*
X11216015Y-13478579D01*
X11216015Y-13478579D02*
X11225539Y-13516674D01*
X11225539Y-13516674D02*
X11225539Y-13564293D01*
X11225539Y-13564293D02*
X11216015Y-13602388D01*
X11216015Y-13602388D02*
X11206491Y-13621436D01*
X11206491Y-13621436D02*
X11196967Y-13630960D01*
X11196967Y-13630960D02*
X11177920Y-13640484D01*
X11177920Y-13640484D02*
X11158872Y-13640484D01*
X11158872Y-13640484D02*
X11139824Y-13630960D01*
X11139824Y-13630960D02*
X11130301Y-13621436D01*
X11130301Y-13621436D02*
X11120777Y-13602388D01*
X11120777Y-13602388D02*
X11111253Y-13564293D01*
X11111253Y-13564293D02*
X11111253Y-13516674D01*
X11111253Y-13516674D02*
X11120777Y-13478579D01*
X11120777Y-13478579D02*
X11130301Y-13459531D01*
X11130301Y-13459531D02*
X11139824Y-13450008D01*
X11139824Y-13450008D02*
X11158872Y-13440484D01*
X11311253Y-13621436D02*
X11320777Y-13630960D01*
X11320777Y-13630960D02*
X11311253Y-13640484D01*
X11311253Y-13640484D02*
X11301729Y-13630960D01*
X11301729Y-13630960D02*
X11311253Y-13621436D01*
X11311253Y-13621436D02*
X11311253Y-13640484D01*
X11387443Y-13440484D02*
X11511253Y-13440484D01*
X11511253Y-13440484D02*
X11444586Y-13516674D01*
X11444586Y-13516674D02*
X11473158Y-13516674D01*
X11473158Y-13516674D02*
X11492205Y-13526198D01*
X11492205Y-13526198D02*
X11501729Y-13535722D01*
X11501729Y-13535722D02*
X11511253Y-13554769D01*
X11511253Y-13554769D02*
X11511253Y-13602388D01*
X11511253Y-13602388D02*
X11501729Y-13621436D01*
X11501729Y-13621436D02*
X11492205Y-13630960D01*
X11492205Y-13630960D02*
X11473158Y-13640484D01*
X11473158Y-13640484D02*
X11416015Y-13640484D01*
X11416015Y-13640484D02*
X11396967Y-13630960D01*
X11396967Y-13630960D02*
X11387443Y-13621436D01*
X11635062Y-13440484D02*
X11654110Y-13440484D01*
X11654110Y-13440484D02*
X11673158Y-13450008D01*
X11673158Y-13450008D02*
X11682682Y-13459531D01*
X11682682Y-13459531D02*
X11692205Y-13478579D01*
X11692205Y-13478579D02*
X11701729Y-13516674D01*
X11701729Y-13516674D02*
X11701729Y-13564293D01*
X11701729Y-13564293D02*
X11692205Y-13602388D01*
X11692205Y-13602388D02*
X11682682Y-13621436D01*
X11682682Y-13621436D02*
X11673158Y-13630960D01*
X11673158Y-13630960D02*
X11654110Y-13640484D01*
X11654110Y-13640484D02*
X11635062Y-13640484D01*
X11635062Y-13640484D02*
X11616015Y-13630960D01*
X11616015Y-13630960D02*
X11606491Y-13621436D01*
X11606491Y-13621436D02*
X11596967Y-13602388D01*
X11596967Y-13602388D02*
X11587443Y-13564293D01*
X11587443Y-13564293D02*
X11587443Y-13516674D01*
X11587443Y-13516674D02*
X11596967Y-13478579D01*
X11596967Y-13478579D02*
X11606491Y-13459531D01*
X11606491Y-13459531D02*
X11616015Y-13450008D01*
X11616015Y-13450008D02*
X11635062Y-13440484D01*
X11825539Y-13440484D02*
X11844586Y-13440484D01*
X11844586Y-13440484D02*
X11863634Y-13450008D01*
X11863634Y-13450008D02*
X11873158Y-13459531D01*
X11873158Y-13459531D02*
X11882682Y-13478579D01*
X11882682Y-13478579D02*
X11892205Y-13516674D01*
X11892205Y-13516674D02*
X11892205Y-13564293D01*
X11892205Y-13564293D02*
X11882682Y-13602388D01*
X11882682Y-13602388D02*
X11873158Y-13621436D01*
X11873158Y-13621436D02*
X11863634Y-13630960D01*
X11863634Y-13630960D02*
X11844586Y-13640484D01*
X11844586Y-13640484D02*
X11825539Y-13640484D01*
X11825539Y-13640484D02*
X11806491Y-13630960D01*
X11806491Y-13630960D02*
X11796967Y-13621436D01*
X11796967Y-13621436D02*
X11787443Y-13602388D01*
X11787443Y-13602388D02*
X11777920Y-13564293D01*
X11777920Y-13564293D02*
X11777920Y-13516674D01*
X11777920Y-13516674D02*
X11787443Y-13478579D01*
X11787443Y-13478579D02*
X11796967Y-13459531D01*
X11796967Y-13459531D02*
X11806491Y-13450008D01*
X11806491Y-13450008D02*
X11825539Y-13440484D01*
X11977920Y-13640484D02*
X11977920Y-13507150D01*
X11977920Y-13526198D02*
X11987443Y-13516674D01*
X11987443Y-13516674D02*
X12006491Y-13507150D01*
X12006491Y-13507150D02*
X12035063Y-13507150D01*
X12035063Y-13507150D02*
X12054110Y-13516674D01*
X12054110Y-13516674D02*
X12063634Y-13535722D01*
X12063634Y-13535722D02*
X12063634Y-13640484D01*
X12063634Y-13535722D02*
X12073158Y-13516674D01*
X12073158Y-13516674D02*
X12092205Y-13507150D01*
X12092205Y-13507150D02*
X12120777Y-13507150D01*
X12120777Y-13507150D02*
X12139824Y-13516674D01*
X12139824Y-13516674D02*
X12149348Y-13535722D01*
X12149348Y-13535722D02*
X12149348Y-13640484D01*
X12244586Y-13640484D02*
X12244586Y-13507150D01*
X12244586Y-13526198D02*
X12254110Y-13516674D01*
X12254110Y-13516674D02*
X12273158Y-13507150D01*
X12273158Y-13507150D02*
X12301729Y-13507150D01*
X12301729Y-13507150D02*
X12320777Y-13516674D01*
X12320777Y-13516674D02*
X12330301Y-13535722D01*
X12330301Y-13535722D02*
X12330301Y-13640484D01*
X12330301Y-13535722D02*
X12339824Y-13516674D01*
X12339824Y-13516674D02*
X12358872Y-13507150D01*
X12358872Y-13507150D02*
X12387443Y-13507150D01*
X12387443Y-13507150D02*
X12406491Y-13516674D01*
X12406491Y-13516674D02*
X12416015Y-13535722D01*
X12416015Y-13535722D02*
X12416015Y-13640484D01*
X12806491Y-13430960D02*
X12635063Y-13688103D01*
X13063634Y-13440484D02*
X13082682Y-13440484D01*
X13082682Y-13440484D02*
X13101729Y-13450008D01*
X13101729Y-13450008D02*
X13111253Y-13459531D01*
X13111253Y-13459531D02*
X13120777Y-13478579D01*
X13120777Y-13478579D02*
X13130301Y-13516674D01*
X13130301Y-13516674D02*
X13130301Y-13564293D01*
X13130301Y-13564293D02*
X13120777Y-13602388D01*
X13120777Y-13602388D02*
X13111253Y-13621436D01*
X13111253Y-13621436D02*
X13101729Y-13630960D01*
X13101729Y-13630960D02*
X13082682Y-13640484D01*
X13082682Y-13640484D02*
X13063634Y-13640484D01*
X13063634Y-13640484D02*
X13044586Y-13630960D01*
X13044586Y-13630960D02*
X13035063Y-13621436D01*
X13035063Y-13621436D02*
X13025539Y-13602388D01*
X13025539Y-13602388D02*
X13016015Y-13564293D01*
X13016015Y-13564293D02*
X13016015Y-13516674D01*
X13016015Y-13516674D02*
X13025539Y-13478579D01*
X13025539Y-13478579D02*
X13035063Y-13459531D01*
X13035063Y-13459531D02*
X13044586Y-13450008D01*
X13044586Y-13450008D02*
X13063634Y-13440484D01*
X13216015Y-13621436D02*
X13225539Y-13630960D01*
X13225539Y-13630960D02*
X13216015Y-13640484D01*
X13216015Y-13640484D02*
X13206491Y-13630960D01*
X13206491Y-13630960D02*
X13216015Y-13621436D01*
X13216015Y-13621436D02*
X13216015Y-13640484D01*
X13349348Y-13440484D02*
X13368396Y-13440484D01*
X13368396Y-13440484D02*
X13387444Y-13450008D01*
X13387444Y-13450008D02*
X13396967Y-13459531D01*
X13396967Y-13459531D02*
X13406491Y-13478579D01*
X13406491Y-13478579D02*
X13416015Y-13516674D01*
X13416015Y-13516674D02*
X13416015Y-13564293D01*
X13416015Y-13564293D02*
X13406491Y-13602388D01*
X13406491Y-13602388D02*
X13396967Y-13621436D01*
X13396967Y-13621436D02*
X13387444Y-13630960D01*
X13387444Y-13630960D02*
X13368396Y-13640484D01*
X13368396Y-13640484D02*
X13349348Y-13640484D01*
X13349348Y-13640484D02*
X13330301Y-13630960D01*
X13330301Y-13630960D02*
X13320777Y-13621436D01*
X13320777Y-13621436D02*
X13311253Y-13602388D01*
X13311253Y-13602388D02*
X13301729Y-13564293D01*
X13301729Y-13564293D02*
X13301729Y-13516674D01*
X13301729Y-13516674D02*
X13311253Y-13478579D01*
X13311253Y-13478579D02*
X13320777Y-13459531D01*
X13320777Y-13459531D02*
X13330301Y-13450008D01*
X13330301Y-13450008D02*
X13349348Y-13440484D01*
X13606491Y-13640484D02*
X13492206Y-13640484D01*
X13549348Y-13640484D02*
X13549348Y-13440484D01*
X13549348Y-13440484D02*
X13530301Y-13469055D01*
X13530301Y-13469055D02*
X13511253Y-13488103D01*
X13511253Y-13488103D02*
X13492206Y-13497627D01*
X13796967Y-13640484D02*
X13682682Y-13640484D01*
X13739825Y-13640484D02*
X13739825Y-13440484D01*
X13739825Y-13440484D02*
X13720777Y-13469055D01*
X13720777Y-13469055D02*
X13701729Y-13488103D01*
X13701729Y-13488103D02*
X13682682Y-13497627D01*
X13911253Y-13526198D02*
X13892206Y-13516674D01*
X13892206Y-13516674D02*
X13882682Y-13507150D01*
X13882682Y-13507150D02*
X13873158Y-13488103D01*
X13873158Y-13488103D02*
X13873158Y-13478579D01*
X13873158Y-13478579D02*
X13882682Y-13459531D01*
X13882682Y-13459531D02*
X13892206Y-13450008D01*
X13892206Y-13450008D02*
X13911253Y-13440484D01*
X13911253Y-13440484D02*
X13949348Y-13440484D01*
X13949348Y-13440484D02*
X13968396Y-13450008D01*
X13968396Y-13450008D02*
X13977920Y-13459531D01*
X13977920Y-13459531D02*
X13987444Y-13478579D01*
X13987444Y-13478579D02*
X13987444Y-13488103D01*
X13987444Y-13488103D02*
X13977920Y-13507150D01*
X13977920Y-13507150D02*
X13968396Y-13516674D01*
X13968396Y-13516674D02*
X13949348Y-13526198D01*
X13949348Y-13526198D02*
X13911253Y-13526198D01*
X13911253Y-13526198D02*
X13892206Y-13535722D01*
X13892206Y-13535722D02*
X13882682Y-13545246D01*
X13882682Y-13545246D02*
X13873158Y-13564293D01*
X13873158Y-13564293D02*
X13873158Y-13602388D01*
X13873158Y-13602388D02*
X13882682Y-13621436D01*
X13882682Y-13621436D02*
X13892206Y-13630960D01*
X13892206Y-13630960D02*
X13911253Y-13640484D01*
X13911253Y-13640484D02*
X13949348Y-13640484D01*
X13949348Y-13640484D02*
X13968396Y-13630960D01*
X13968396Y-13630960D02*
X13977920Y-13621436D01*
X13977920Y-13621436D02*
X13987444Y-13602388D01*
X13987444Y-13602388D02*
X13987444Y-13564293D01*
X13987444Y-13564293D02*
X13977920Y-13545246D01*
X13977920Y-13545246D02*
X13968396Y-13535722D01*
X13968396Y-13535722D02*
X13949348Y-13526198D01*
X14063634Y-13440484D02*
X14063634Y-13478579D01*
X14139825Y-13440484D02*
X14139825Y-13478579D01*
X14435063Y-13716674D02*
X14425539Y-13707150D01*
X14425539Y-13707150D02*
X14406491Y-13678579D01*
X14406491Y-13678579D02*
X14396968Y-13659531D01*
X14396968Y-13659531D02*
X14387444Y-13630960D01*
X14387444Y-13630960D02*
X14377920Y-13583341D01*
X14377920Y-13583341D02*
X14377920Y-13545246D01*
X14377920Y-13545246D02*
X14387444Y-13497627D01*
X14387444Y-13497627D02*
X14396968Y-13469055D01*
X14396968Y-13469055D02*
X14406491Y-13450008D01*
X14406491Y-13450008D02*
X14425539Y-13421436D01*
X14425539Y-13421436D02*
X14435063Y-13411912D01*
X14501729Y-13459531D02*
X14511253Y-13450008D01*
X14511253Y-13450008D02*
X14530301Y-13440484D01*
X14530301Y-13440484D02*
X14577920Y-13440484D01*
X14577920Y-13440484D02*
X14596968Y-13450008D01*
X14596968Y-13450008D02*
X14606491Y-13459531D01*
X14606491Y-13459531D02*
X14616015Y-13478579D01*
X14616015Y-13478579D02*
X14616015Y-13497627D01*
X14616015Y-13497627D02*
X14606491Y-13526198D01*
X14606491Y-13526198D02*
X14492206Y-13640484D01*
X14492206Y-13640484D02*
X14616015Y-13640484D01*
X14739825Y-13440484D02*
X14758872Y-13440484D01*
X14758872Y-13440484D02*
X14777920Y-13450008D01*
X14777920Y-13450008D02*
X14787444Y-13459531D01*
X14787444Y-13459531D02*
X14796968Y-13478579D01*
X14796968Y-13478579D02*
X14806491Y-13516674D01*
X14806491Y-13516674D02*
X14806491Y-13564293D01*
X14806491Y-13564293D02*
X14796968Y-13602388D01*
X14796968Y-13602388D02*
X14787444Y-13621436D01*
X14787444Y-13621436D02*
X14777920Y-13630960D01*
X14777920Y-13630960D02*
X14758872Y-13640484D01*
X14758872Y-13640484D02*
X14739825Y-13640484D01*
X14739825Y-13640484D02*
X14720777Y-13630960D01*
X14720777Y-13630960D02*
X14711253Y-13621436D01*
X14711253Y-13621436D02*
X14701729Y-13602388D01*
X14701729Y-13602388D02*
X14692206Y-13564293D01*
X14692206Y-13564293D02*
X14692206Y-13516674D01*
X14692206Y-13516674D02*
X14701729Y-13478579D01*
X14701729Y-13478579D02*
X14711253Y-13459531D01*
X14711253Y-13459531D02*
X14720777Y-13450008D01*
X14720777Y-13450008D02*
X14739825Y-13440484D01*
X14987444Y-13440484D02*
X14892206Y-13440484D01*
X14892206Y-13440484D02*
X14882682Y-13535722D01*
X14882682Y-13535722D02*
X14892206Y-13526198D01*
X14892206Y-13526198D02*
X14911253Y-13516674D01*
X14911253Y-13516674D02*
X14958872Y-13516674D01*
X14958872Y-13516674D02*
X14977920Y-13526198D01*
X14977920Y-13526198D02*
X14987444Y-13535722D01*
X14987444Y-13535722D02*
X14996968Y-13554769D01*
X14996968Y-13554769D02*
X14996968Y-13602388D01*
X14996968Y-13602388D02*
X14987444Y-13621436D01*
X14987444Y-13621436D02*
X14977920Y-13630960D01*
X14977920Y-13630960D02*
X14958872Y-13640484D01*
X14958872Y-13640484D02*
X14911253Y-13640484D01*
X14911253Y-13640484D02*
X14892206Y-13630960D01*
X14892206Y-13630960D02*
X14882682Y-13621436D01*
X15235063Y-13640484D02*
X15235063Y-13440484D01*
X15320777Y-13640484D02*
X15320777Y-13535722D01*
X15320777Y-13535722D02*
X15311253Y-13516674D01*
X15311253Y-13516674D02*
X15292206Y-13507150D01*
X15292206Y-13507150D02*
X15263634Y-13507150D01*
X15263634Y-13507150D02*
X15244587Y-13516674D01*
X15244587Y-13516674D02*
X15235063Y-13526198D01*
X15444587Y-13640484D02*
X15425539Y-13630960D01*
X15425539Y-13630960D02*
X15416015Y-13621436D01*
X15416015Y-13621436D02*
X15406491Y-13602388D01*
X15406491Y-13602388D02*
X15406491Y-13545246D01*
X15406491Y-13545246D02*
X15416015Y-13526198D01*
X15416015Y-13526198D02*
X15425539Y-13516674D01*
X15425539Y-13516674D02*
X15444587Y-13507150D01*
X15444587Y-13507150D02*
X15473158Y-13507150D01*
X15473158Y-13507150D02*
X15492206Y-13516674D01*
X15492206Y-13516674D02*
X15501730Y-13526198D01*
X15501730Y-13526198D02*
X15511253Y-13545246D01*
X15511253Y-13545246D02*
X15511253Y-13602388D01*
X15511253Y-13602388D02*
X15501730Y-13621436D01*
X15501730Y-13621436D02*
X15492206Y-13630960D01*
X15492206Y-13630960D02*
X15473158Y-13640484D01*
X15473158Y-13640484D02*
X15444587Y-13640484D01*
X15625539Y-13640484D02*
X15606491Y-13630960D01*
X15606491Y-13630960D02*
X15596968Y-13611912D01*
X15596968Y-13611912D02*
X15596968Y-13440484D01*
X15777920Y-13630960D02*
X15758872Y-13640484D01*
X15758872Y-13640484D02*
X15720777Y-13640484D01*
X15720777Y-13640484D02*
X15701730Y-13630960D01*
X15701730Y-13630960D02*
X15692206Y-13611912D01*
X15692206Y-13611912D02*
X15692206Y-13535722D01*
X15692206Y-13535722D02*
X15701730Y-13516674D01*
X15701730Y-13516674D02*
X15720777Y-13507150D01*
X15720777Y-13507150D02*
X15758872Y-13507150D01*
X15758872Y-13507150D02*
X15777920Y-13516674D01*
X15777920Y-13516674D02*
X15787444Y-13535722D01*
X15787444Y-13535722D02*
X15787444Y-13554769D01*
X15787444Y-13554769D02*
X15692206Y-13573817D01*
X15863634Y-13630960D02*
X15882682Y-13640484D01*
X15882682Y-13640484D02*
X15920777Y-13640484D01*
X15920777Y-13640484D02*
X15939825Y-13630960D01*
X15939825Y-13630960D02*
X15949349Y-13611912D01*
X15949349Y-13611912D02*
X15949349Y-13602388D01*
X15949349Y-13602388D02*
X15939825Y-13583341D01*
X15939825Y-13583341D02*
X15920777Y-13573817D01*
X15920777Y-13573817D02*
X15892206Y-13573817D01*
X15892206Y-13573817D02*
X15873158Y-13564293D01*
X15873158Y-13564293D02*
X15863634Y-13545246D01*
X15863634Y-13545246D02*
X15863634Y-13535722D01*
X15863634Y-13535722D02*
X15873158Y-13516674D01*
X15873158Y-13516674D02*
X15892206Y-13507150D01*
X15892206Y-13507150D02*
X15920777Y-13507150D01*
X15920777Y-13507150D02*
X15939825Y-13516674D01*
X16016015Y-13716674D02*
X16025539Y-13707150D01*
X16025539Y-13707150D02*
X16044587Y-13678579D01*
X16044587Y-13678579D02*
X16054111Y-13659531D01*
X16054111Y-13659531D02*
X16063634Y-13630960D01*
X16063634Y-13630960D02*
X16073158Y-13583341D01*
X16073158Y-13583341D02*
X16073158Y-13545246D01*
X16073158Y-13545246D02*
X16063634Y-13497627D01*
X16063634Y-13497627D02*
X16054111Y-13469055D01*
X16054111Y-13469055D02*
X16044587Y-13450008D01*
X16044587Y-13450008D02*
X16025539Y-13421436D01*
X16025539Y-13421436D02*
X16016015Y-13411912D01*
D11*
X10860000Y-13813000D02*
G75*
G02*
X10800000Y-13813000I-30000J0D01*
G01*
X10800000Y-13813000D02*
G75*
G02*
X10860000Y-13813000I30000J0D01*
G01*
D10*
X11158872Y-13704484D02*
X11177920Y-13704484D01*
X11177920Y-13704484D02*
X11196967Y-13714008D01*
X11196967Y-13714008D02*
X11206491Y-13723531D01*
X11206491Y-13723531D02*
X11216015Y-13742579D01*
X11216015Y-13742579D02*
X11225539Y-13780674D01*
X11225539Y-13780674D02*
X11225539Y-13828293D01*
X11225539Y-13828293D02*
X11216015Y-13866388D01*
X11216015Y-13866388D02*
X11206491Y-13885436D01*
X11206491Y-13885436D02*
X11196967Y-13894960D01*
X11196967Y-13894960D02*
X11177920Y-13904484D01*
X11177920Y-13904484D02*
X11158872Y-13904484D01*
X11158872Y-13904484D02*
X11139824Y-13894960D01*
X11139824Y-13894960D02*
X11130301Y-13885436D01*
X11130301Y-13885436D02*
X11120777Y-13866388D01*
X11120777Y-13866388D02*
X11111253Y-13828293D01*
X11111253Y-13828293D02*
X11111253Y-13780674D01*
X11111253Y-13780674D02*
X11120777Y-13742579D01*
X11120777Y-13742579D02*
X11130301Y-13723531D01*
X11130301Y-13723531D02*
X11139824Y-13714008D01*
X11139824Y-13714008D02*
X11158872Y-13704484D01*
X11311253Y-13885436D02*
X11320777Y-13894960D01*
X11320777Y-13894960D02*
X11311253Y-13904484D01*
X11311253Y-13904484D02*
X11301729Y-13894960D01*
X11301729Y-13894960D02*
X11311253Y-13885436D01*
X11311253Y-13885436D02*
X11311253Y-13904484D01*
X11492205Y-13704484D02*
X11454110Y-13704484D01*
X11454110Y-13704484D02*
X11435062Y-13714008D01*
X11435062Y-13714008D02*
X11425539Y-13723531D01*
X11425539Y-13723531D02*
X11406491Y-13752103D01*
X11406491Y-13752103D02*
X11396967Y-13790198D01*
X11396967Y-13790198D02*
X11396967Y-13866388D01*
X11396967Y-13866388D02*
X11406491Y-13885436D01*
X11406491Y-13885436D02*
X11416015Y-13894960D01*
X11416015Y-13894960D02*
X11435062Y-13904484D01*
X11435062Y-13904484D02*
X11473158Y-13904484D01*
X11473158Y-13904484D02*
X11492205Y-13894960D01*
X11492205Y-13894960D02*
X11501729Y-13885436D01*
X11501729Y-13885436D02*
X11511253Y-13866388D01*
X11511253Y-13866388D02*
X11511253Y-13818769D01*
X11511253Y-13818769D02*
X11501729Y-13799722D01*
X11501729Y-13799722D02*
X11492205Y-13790198D01*
X11492205Y-13790198D02*
X11473158Y-13780674D01*
X11473158Y-13780674D02*
X11435062Y-13780674D01*
X11435062Y-13780674D02*
X11416015Y-13790198D01*
X11416015Y-13790198D02*
X11406491Y-13799722D01*
X11406491Y-13799722D02*
X11396967Y-13818769D01*
X11635062Y-13704484D02*
X11654110Y-13704484D01*
X11654110Y-13704484D02*
X11673158Y-13714008D01*
X11673158Y-13714008D02*
X11682682Y-13723531D01*
X11682682Y-13723531D02*
X11692205Y-13742579D01*
X11692205Y-13742579D02*
X11701729Y-13780674D01*
X11701729Y-13780674D02*
X11701729Y-13828293D01*
X11701729Y-13828293D02*
X11692205Y-13866388D01*
X11692205Y-13866388D02*
X11682682Y-13885436D01*
X11682682Y-13885436D02*
X11673158Y-13894960D01*
X11673158Y-13894960D02*
X11654110Y-13904484D01*
X11654110Y-13904484D02*
X11635062Y-13904484D01*
X11635062Y-13904484D02*
X11616015Y-13894960D01*
X11616015Y-13894960D02*
X11606491Y-13885436D01*
X11606491Y-13885436D02*
X11596967Y-13866388D01*
X11596967Y-13866388D02*
X11587443Y-13828293D01*
X11587443Y-13828293D02*
X11587443Y-13780674D01*
X11587443Y-13780674D02*
X11596967Y-13742579D01*
X11596967Y-13742579D02*
X11606491Y-13723531D01*
X11606491Y-13723531D02*
X11616015Y-13714008D01*
X11616015Y-13714008D02*
X11635062Y-13704484D01*
X11825539Y-13704484D02*
X11844586Y-13704484D01*
X11844586Y-13704484D02*
X11863634Y-13714008D01*
X11863634Y-13714008D02*
X11873158Y-13723531D01*
X11873158Y-13723531D02*
X11882682Y-13742579D01*
X11882682Y-13742579D02*
X11892205Y-13780674D01*
X11892205Y-13780674D02*
X11892205Y-13828293D01*
X11892205Y-13828293D02*
X11882682Y-13866388D01*
X11882682Y-13866388D02*
X11873158Y-13885436D01*
X11873158Y-13885436D02*
X11863634Y-13894960D01*
X11863634Y-13894960D02*
X11844586Y-13904484D01*
X11844586Y-13904484D02*
X11825539Y-13904484D01*
X11825539Y-13904484D02*
X11806491Y-13894960D01*
X11806491Y-13894960D02*
X11796967Y-13885436D01*
X11796967Y-13885436D02*
X11787443Y-13866388D01*
X11787443Y-13866388D02*
X11777920Y-13828293D01*
X11777920Y-13828293D02*
X11777920Y-13780674D01*
X11777920Y-13780674D02*
X11787443Y-13742579D01*
X11787443Y-13742579D02*
X11796967Y-13723531D01*
X11796967Y-13723531D02*
X11806491Y-13714008D01*
X11806491Y-13714008D02*
X11825539Y-13704484D01*
X11977920Y-13904484D02*
X11977920Y-13771150D01*
X11977920Y-13790198D02*
X11987443Y-13780674D01*
X11987443Y-13780674D02*
X12006491Y-13771150D01*
X12006491Y-13771150D02*
X12035063Y-13771150D01*
X12035063Y-13771150D02*
X12054110Y-13780674D01*
X12054110Y-13780674D02*
X12063634Y-13799722D01*
X12063634Y-13799722D02*
X12063634Y-13904484D01*
X12063634Y-13799722D02*
X12073158Y-13780674D01*
X12073158Y-13780674D02*
X12092205Y-13771150D01*
X12092205Y-13771150D02*
X12120777Y-13771150D01*
X12120777Y-13771150D02*
X12139824Y-13780674D01*
X12139824Y-13780674D02*
X12149348Y-13799722D01*
X12149348Y-13799722D02*
X12149348Y-13904484D01*
X12244586Y-13904484D02*
X12244586Y-13771150D01*
X12244586Y-13790198D02*
X12254110Y-13780674D01*
X12254110Y-13780674D02*
X12273158Y-13771150D01*
X12273158Y-13771150D02*
X12301729Y-13771150D01*
X12301729Y-13771150D02*
X12320777Y-13780674D01*
X12320777Y-13780674D02*
X12330301Y-13799722D01*
X12330301Y-13799722D02*
X12330301Y-13904484D01*
X12330301Y-13799722D02*
X12339824Y-13780674D01*
X12339824Y-13780674D02*
X12358872Y-13771150D01*
X12358872Y-13771150D02*
X12387443Y-13771150D01*
X12387443Y-13771150D02*
X12406491Y-13780674D01*
X12406491Y-13780674D02*
X12416015Y-13799722D01*
X12416015Y-13799722D02*
X12416015Y-13904484D01*
X12806491Y-13694960D02*
X12635063Y-13952103D01*
X13063634Y-13704484D02*
X13082682Y-13704484D01*
X13082682Y-13704484D02*
X13101729Y-13714008D01*
X13101729Y-13714008D02*
X13111253Y-13723531D01*
X13111253Y-13723531D02*
X13120777Y-13742579D01*
X13120777Y-13742579D02*
X13130301Y-13780674D01*
X13130301Y-13780674D02*
X13130301Y-13828293D01*
X13130301Y-13828293D02*
X13120777Y-13866388D01*
X13120777Y-13866388D02*
X13111253Y-13885436D01*
X13111253Y-13885436D02*
X13101729Y-13894960D01*
X13101729Y-13894960D02*
X13082682Y-13904484D01*
X13082682Y-13904484D02*
X13063634Y-13904484D01*
X13063634Y-13904484D02*
X13044586Y-13894960D01*
X13044586Y-13894960D02*
X13035063Y-13885436D01*
X13035063Y-13885436D02*
X13025539Y-13866388D01*
X13025539Y-13866388D02*
X13016015Y-13828293D01*
X13016015Y-13828293D02*
X13016015Y-13780674D01*
X13016015Y-13780674D02*
X13025539Y-13742579D01*
X13025539Y-13742579D02*
X13035063Y-13723531D01*
X13035063Y-13723531D02*
X13044586Y-13714008D01*
X13044586Y-13714008D02*
X13063634Y-13704484D01*
X13216015Y-13885436D02*
X13225539Y-13894960D01*
X13225539Y-13894960D02*
X13216015Y-13904484D01*
X13216015Y-13904484D02*
X13206491Y-13894960D01*
X13206491Y-13894960D02*
X13216015Y-13885436D01*
X13216015Y-13885436D02*
X13216015Y-13904484D01*
X13349348Y-13704484D02*
X13368396Y-13704484D01*
X13368396Y-13704484D02*
X13387444Y-13714008D01*
X13387444Y-13714008D02*
X13396967Y-13723531D01*
X13396967Y-13723531D02*
X13406491Y-13742579D01*
X13406491Y-13742579D02*
X13416015Y-13780674D01*
X13416015Y-13780674D02*
X13416015Y-13828293D01*
X13416015Y-13828293D02*
X13406491Y-13866388D01*
X13406491Y-13866388D02*
X13396967Y-13885436D01*
X13396967Y-13885436D02*
X13387444Y-13894960D01*
X13387444Y-13894960D02*
X13368396Y-13904484D01*
X13368396Y-13904484D02*
X13349348Y-13904484D01*
X13349348Y-13904484D02*
X13330301Y-13894960D01*
X13330301Y-13894960D02*
X13320777Y-13885436D01*
X13320777Y-13885436D02*
X13311253Y-13866388D01*
X13311253Y-13866388D02*
X13301729Y-13828293D01*
X13301729Y-13828293D02*
X13301729Y-13780674D01*
X13301729Y-13780674D02*
X13311253Y-13742579D01*
X13311253Y-13742579D02*
X13320777Y-13723531D01*
X13320777Y-13723531D02*
X13330301Y-13714008D01*
X13330301Y-13714008D02*
X13349348Y-13704484D01*
X13492206Y-13723531D02*
X13501729Y-13714008D01*
X13501729Y-13714008D02*
X13520777Y-13704484D01*
X13520777Y-13704484D02*
X13568396Y-13704484D01*
X13568396Y-13704484D02*
X13587444Y-13714008D01*
X13587444Y-13714008D02*
X13596967Y-13723531D01*
X13596967Y-13723531D02*
X13606491Y-13742579D01*
X13606491Y-13742579D02*
X13606491Y-13761627D01*
X13606491Y-13761627D02*
X13596967Y-13790198D01*
X13596967Y-13790198D02*
X13482682Y-13904484D01*
X13482682Y-13904484D02*
X13606491Y-13904484D01*
X13673158Y-13704484D02*
X13796967Y-13704484D01*
X13796967Y-13704484D02*
X13730301Y-13780674D01*
X13730301Y-13780674D02*
X13758872Y-13780674D01*
X13758872Y-13780674D02*
X13777920Y-13790198D01*
X13777920Y-13790198D02*
X13787444Y-13799722D01*
X13787444Y-13799722D02*
X13796967Y-13818769D01*
X13796967Y-13818769D02*
X13796967Y-13866388D01*
X13796967Y-13866388D02*
X13787444Y-13885436D01*
X13787444Y-13885436D02*
X13777920Y-13894960D01*
X13777920Y-13894960D02*
X13758872Y-13904484D01*
X13758872Y-13904484D02*
X13701729Y-13904484D01*
X13701729Y-13904484D02*
X13682682Y-13894960D01*
X13682682Y-13894960D02*
X13673158Y-13885436D01*
X13968396Y-13704484D02*
X13930301Y-13704484D01*
X13930301Y-13704484D02*
X13911253Y-13714008D01*
X13911253Y-13714008D02*
X13901729Y-13723531D01*
X13901729Y-13723531D02*
X13882682Y-13752103D01*
X13882682Y-13752103D02*
X13873158Y-13790198D01*
X13873158Y-13790198D02*
X13873158Y-13866388D01*
X13873158Y-13866388D02*
X13882682Y-13885436D01*
X13882682Y-13885436D02*
X13892206Y-13894960D01*
X13892206Y-13894960D02*
X13911253Y-13904484D01*
X13911253Y-13904484D02*
X13949348Y-13904484D01*
X13949348Y-13904484D02*
X13968396Y-13894960D01*
X13968396Y-13894960D02*
X13977920Y-13885436D01*
X13977920Y-13885436D02*
X13987444Y-13866388D01*
X13987444Y-13866388D02*
X13987444Y-13818769D01*
X13987444Y-13818769D02*
X13977920Y-13799722D01*
X13977920Y-13799722D02*
X13968396Y-13790198D01*
X13968396Y-13790198D02*
X13949348Y-13780674D01*
X13949348Y-13780674D02*
X13911253Y-13780674D01*
X13911253Y-13780674D02*
X13892206Y-13790198D01*
X13892206Y-13790198D02*
X13882682Y-13799722D01*
X13882682Y-13799722D02*
X13873158Y-13818769D01*
X14063634Y-13704484D02*
X14063634Y-13742579D01*
X14139825Y-13704484D02*
X14139825Y-13742579D01*
X14435063Y-13980674D02*
X14425539Y-13971150D01*
X14425539Y-13971150D02*
X14406491Y-13942579D01*
X14406491Y-13942579D02*
X14396968Y-13923531D01*
X14396968Y-13923531D02*
X14387444Y-13894960D01*
X14387444Y-13894960D02*
X14377920Y-13847341D01*
X14377920Y-13847341D02*
X14377920Y-13809246D01*
X14377920Y-13809246D02*
X14387444Y-13761627D01*
X14387444Y-13761627D02*
X14396968Y-13733055D01*
X14396968Y-13733055D02*
X14406491Y-13714008D01*
X14406491Y-13714008D02*
X14425539Y-13685436D01*
X14425539Y-13685436D02*
X14435063Y-13675912D01*
X14549348Y-13704484D02*
X14568396Y-13704484D01*
X14568396Y-13704484D02*
X14587444Y-13714008D01*
X14587444Y-13714008D02*
X14596968Y-13723531D01*
X14596968Y-13723531D02*
X14606491Y-13742579D01*
X14606491Y-13742579D02*
X14616015Y-13780674D01*
X14616015Y-13780674D02*
X14616015Y-13828293D01*
X14616015Y-13828293D02*
X14606491Y-13866388D01*
X14606491Y-13866388D02*
X14596968Y-13885436D01*
X14596968Y-13885436D02*
X14587444Y-13894960D01*
X14587444Y-13894960D02*
X14568396Y-13904484D01*
X14568396Y-13904484D02*
X14549348Y-13904484D01*
X14549348Y-13904484D02*
X14530301Y-13894960D01*
X14530301Y-13894960D02*
X14520777Y-13885436D01*
X14520777Y-13885436D02*
X14511253Y-13866388D01*
X14511253Y-13866388D02*
X14501729Y-13828293D01*
X14501729Y-13828293D02*
X14501729Y-13780674D01*
X14501729Y-13780674D02*
X14511253Y-13742579D01*
X14511253Y-13742579D02*
X14520777Y-13723531D01*
X14520777Y-13723531D02*
X14530301Y-13714008D01*
X14530301Y-13714008D02*
X14549348Y-13704484D01*
X14854110Y-13904484D02*
X14854110Y-13704484D01*
X14939825Y-13904484D02*
X14939825Y-13799722D01*
X14939825Y-13799722D02*
X14930301Y-13780674D01*
X14930301Y-13780674D02*
X14911253Y-13771150D01*
X14911253Y-13771150D02*
X14882682Y-13771150D01*
X14882682Y-13771150D02*
X14863634Y-13780674D01*
X14863634Y-13780674D02*
X14854110Y-13790198D01*
X15063634Y-13904484D02*
X15044587Y-13894960D01*
X15044587Y-13894960D02*
X15035063Y-13885436D01*
X15035063Y-13885436D02*
X15025539Y-13866388D01*
X15025539Y-13866388D02*
X15025539Y-13809246D01*
X15025539Y-13809246D02*
X15035063Y-13790198D01*
X15035063Y-13790198D02*
X15044587Y-13780674D01*
X15044587Y-13780674D02*
X15063634Y-13771150D01*
X15063634Y-13771150D02*
X15092206Y-13771150D01*
X15092206Y-13771150D02*
X15111253Y-13780674D01*
X15111253Y-13780674D02*
X15120777Y-13790198D01*
X15120777Y-13790198D02*
X15130301Y-13809246D01*
X15130301Y-13809246D02*
X15130301Y-13866388D01*
X15130301Y-13866388D02*
X15120777Y-13885436D01*
X15120777Y-13885436D02*
X15111253Y-13894960D01*
X15111253Y-13894960D02*
X15092206Y-13904484D01*
X15092206Y-13904484D02*
X15063634Y-13904484D01*
X15244587Y-13904484D02*
X15225539Y-13894960D01*
X15225539Y-13894960D02*
X15216015Y-13875912D01*
X15216015Y-13875912D02*
X15216015Y-13704484D01*
X15396968Y-13894960D02*
X15377920Y-13904484D01*
X15377920Y-13904484D02*
X15339825Y-13904484D01*
X15339825Y-13904484D02*
X15320777Y-13894960D01*
X15320777Y-13894960D02*
X15311253Y-13875912D01*
X15311253Y-13875912D02*
X15311253Y-13799722D01*
X15311253Y-13799722D02*
X15320777Y-13780674D01*
X15320777Y-13780674D02*
X15339825Y-13771150D01*
X15339825Y-13771150D02*
X15377920Y-13771150D01*
X15377920Y-13771150D02*
X15396968Y-13780674D01*
X15396968Y-13780674D02*
X15406491Y-13799722D01*
X15406491Y-13799722D02*
X15406491Y-13818769D01*
X15406491Y-13818769D02*
X15311253Y-13837817D01*
X15482682Y-13894960D02*
X15501730Y-13904484D01*
X15501730Y-13904484D02*
X15539825Y-13904484D01*
X15539825Y-13904484D02*
X15558872Y-13894960D01*
X15558872Y-13894960D02*
X15568396Y-13875912D01*
X15568396Y-13875912D02*
X15568396Y-13866388D01*
X15568396Y-13866388D02*
X15558872Y-13847341D01*
X15558872Y-13847341D02*
X15539825Y-13837817D01*
X15539825Y-13837817D02*
X15511253Y-13837817D01*
X15511253Y-13837817D02*
X15492206Y-13828293D01*
X15492206Y-13828293D02*
X15482682Y-13809246D01*
X15482682Y-13809246D02*
X15482682Y-13799722D01*
X15482682Y-13799722D02*
X15492206Y-13780674D01*
X15492206Y-13780674D02*
X15511253Y-13771150D01*
X15511253Y-13771150D02*
X15539825Y-13771150D01*
X15539825Y-13771150D02*
X15558872Y-13780674D01*
X15806492Y-13828293D02*
X15958873Y-13828293D01*
X15882682Y-13904484D02*
X15882682Y-13752103D01*
X16235063Y-13790198D02*
X16216015Y-13780674D01*
X16216015Y-13780674D02*
X16206492Y-13771150D01*
X16206492Y-13771150D02*
X16196968Y-13752103D01*
X16196968Y-13752103D02*
X16196968Y-13742579D01*
X16196968Y-13742579D02*
X16206492Y-13723531D01*
X16206492Y-13723531D02*
X16216015Y-13714008D01*
X16216015Y-13714008D02*
X16235063Y-13704484D01*
X16235063Y-13704484D02*
X16273158Y-13704484D01*
X16273158Y-13704484D02*
X16292206Y-13714008D01*
X16292206Y-13714008D02*
X16301730Y-13723531D01*
X16301730Y-13723531D02*
X16311253Y-13742579D01*
X16311253Y-13742579D02*
X16311253Y-13752103D01*
X16311253Y-13752103D02*
X16301730Y-13771150D01*
X16301730Y-13771150D02*
X16292206Y-13780674D01*
X16292206Y-13780674D02*
X16273158Y-13790198D01*
X16273158Y-13790198D02*
X16235063Y-13790198D01*
X16235063Y-13790198D02*
X16216015Y-13799722D01*
X16216015Y-13799722D02*
X16206492Y-13809246D01*
X16206492Y-13809246D02*
X16196968Y-13828293D01*
X16196968Y-13828293D02*
X16196968Y-13866388D01*
X16196968Y-13866388D02*
X16206492Y-13885436D01*
X16206492Y-13885436D02*
X16216015Y-13894960D01*
X16216015Y-13894960D02*
X16235063Y-13904484D01*
X16235063Y-13904484D02*
X16273158Y-13904484D01*
X16273158Y-13904484D02*
X16292206Y-13894960D01*
X16292206Y-13894960D02*
X16301730Y-13885436D01*
X16301730Y-13885436D02*
X16311253Y-13866388D01*
X16311253Y-13866388D02*
X16311253Y-13828293D01*
X16311253Y-13828293D02*
X16301730Y-13809246D01*
X16301730Y-13809246D02*
X16292206Y-13799722D01*
X16292206Y-13799722D02*
X16273158Y-13790198D01*
X16539825Y-13894960D02*
X16558873Y-13904484D01*
X16558873Y-13904484D02*
X16596968Y-13904484D01*
X16596968Y-13904484D02*
X16616015Y-13894960D01*
X16616015Y-13894960D02*
X16625539Y-13875912D01*
X16625539Y-13875912D02*
X16625539Y-13866388D01*
X16625539Y-13866388D02*
X16616015Y-13847341D01*
X16616015Y-13847341D02*
X16596968Y-13837817D01*
X16596968Y-13837817D02*
X16568396Y-13837817D01*
X16568396Y-13837817D02*
X16549349Y-13828293D01*
X16549349Y-13828293D02*
X16539825Y-13809246D01*
X16539825Y-13809246D02*
X16539825Y-13799722D01*
X16539825Y-13799722D02*
X16549349Y-13780674D01*
X16549349Y-13780674D02*
X16568396Y-13771150D01*
X16568396Y-13771150D02*
X16596968Y-13771150D01*
X16596968Y-13771150D02*
X16616015Y-13780674D01*
X16739825Y-13904484D02*
X16720777Y-13894960D01*
X16720777Y-13894960D02*
X16711254Y-13875912D01*
X16711254Y-13875912D02*
X16711254Y-13704484D01*
X16844587Y-13904484D02*
X16825539Y-13894960D01*
X16825539Y-13894960D02*
X16816016Y-13885436D01*
X16816016Y-13885436D02*
X16806492Y-13866388D01*
X16806492Y-13866388D02*
X16806492Y-13809246D01*
X16806492Y-13809246D02*
X16816016Y-13790198D01*
X16816016Y-13790198D02*
X16825539Y-13780674D01*
X16825539Y-13780674D02*
X16844587Y-13771150D01*
X16844587Y-13771150D02*
X16873158Y-13771150D01*
X16873158Y-13771150D02*
X16892206Y-13780674D01*
X16892206Y-13780674D02*
X16901730Y-13790198D01*
X16901730Y-13790198D02*
X16911254Y-13809246D01*
X16911254Y-13809246D02*
X16911254Y-13866388D01*
X16911254Y-13866388D02*
X16901730Y-13885436D01*
X16901730Y-13885436D02*
X16892206Y-13894960D01*
X16892206Y-13894960D02*
X16873158Y-13904484D01*
X16873158Y-13904484D02*
X16844587Y-13904484D01*
X16968397Y-13771150D02*
X17044587Y-13771150D01*
X16996968Y-13704484D02*
X16996968Y-13875912D01*
X16996968Y-13875912D02*
X17006492Y-13894960D01*
X17006492Y-13894960D02*
X17025539Y-13904484D01*
X17025539Y-13904484D02*
X17044587Y-13904484D01*
X17101730Y-13894960D02*
X17120777Y-13904484D01*
X17120777Y-13904484D02*
X17158873Y-13904484D01*
X17158873Y-13904484D02*
X17177920Y-13894960D01*
X17177920Y-13894960D02*
X17187444Y-13875912D01*
X17187444Y-13875912D02*
X17187444Y-13866388D01*
X17187444Y-13866388D02*
X17177920Y-13847341D01*
X17177920Y-13847341D02*
X17158873Y-13837817D01*
X17158873Y-13837817D02*
X17130301Y-13837817D01*
X17130301Y-13837817D02*
X17111254Y-13828293D01*
X17111254Y-13828293D02*
X17101730Y-13809246D01*
X17101730Y-13809246D02*
X17101730Y-13799722D01*
X17101730Y-13799722D02*
X17111254Y-13780674D01*
X17111254Y-13780674D02*
X17130301Y-13771150D01*
X17130301Y-13771150D02*
X17158873Y-13771150D01*
X17158873Y-13771150D02*
X17177920Y-13780674D01*
X17254111Y-13980674D02*
X17263635Y-13971150D01*
X17263635Y-13971150D02*
X17282682Y-13942579D01*
X17282682Y-13942579D02*
X17292206Y-13923531D01*
X17292206Y-13923531D02*
X17301730Y-13894960D01*
X17301730Y-13894960D02*
X17311254Y-13847341D01*
X17311254Y-13847341D02*
X17311254Y-13809246D01*
X17311254Y-13809246D02*
X17301730Y-13761627D01*
X17301730Y-13761627D02*
X17292206Y-13733055D01*
X17292206Y-13733055D02*
X17282682Y-13714008D01*
X17282682Y-13714008D02*
X17263635Y-13685436D01*
X17263635Y-13685436D02*
X17254111Y-13675912D01*
D11*
X10820000Y-14037000D02*
X10820000Y-14117000D01*
X10780000Y-14077000D02*
X10860000Y-14077000D01*
D10*
X11158872Y-13968484D02*
X11177920Y-13968484D01*
X11177920Y-13968484D02*
X11196967Y-13978008D01*
X11196967Y-13978008D02*
X11206491Y-13987531D01*
X11206491Y-13987531D02*
X11216015Y-14006579D01*
X11216015Y-14006579D02*
X11225539Y-14044674D01*
X11225539Y-14044674D02*
X11225539Y-14092293D01*
X11225539Y-14092293D02*
X11216015Y-14130388D01*
X11216015Y-14130388D02*
X11206491Y-14149436D01*
X11206491Y-14149436D02*
X11196967Y-14158960D01*
X11196967Y-14158960D02*
X11177920Y-14168484D01*
X11177920Y-14168484D02*
X11158872Y-14168484D01*
X11158872Y-14168484D02*
X11139824Y-14158960D01*
X11139824Y-14158960D02*
X11130301Y-14149436D01*
X11130301Y-14149436D02*
X11120777Y-14130388D01*
X11120777Y-14130388D02*
X11111253Y-14092293D01*
X11111253Y-14092293D02*
X11111253Y-14044674D01*
X11111253Y-14044674D02*
X11120777Y-14006579D01*
X11120777Y-14006579D02*
X11130301Y-13987531D01*
X11130301Y-13987531D02*
X11139824Y-13978008D01*
X11139824Y-13978008D02*
X11158872Y-13968484D01*
X11311253Y-14149436D02*
X11320777Y-14158960D01*
X11320777Y-14158960D02*
X11311253Y-14168484D01*
X11311253Y-14168484D02*
X11301729Y-14158960D01*
X11301729Y-14158960D02*
X11311253Y-14149436D01*
X11311253Y-14149436D02*
X11311253Y-14168484D01*
X11435062Y-14054198D02*
X11416015Y-14044674D01*
X11416015Y-14044674D02*
X11406491Y-14035150D01*
X11406491Y-14035150D02*
X11396967Y-14016103D01*
X11396967Y-14016103D02*
X11396967Y-14006579D01*
X11396967Y-14006579D02*
X11406491Y-13987531D01*
X11406491Y-13987531D02*
X11416015Y-13978008D01*
X11416015Y-13978008D02*
X11435062Y-13968484D01*
X11435062Y-13968484D02*
X11473158Y-13968484D01*
X11473158Y-13968484D02*
X11492205Y-13978008D01*
X11492205Y-13978008D02*
X11501729Y-13987531D01*
X11501729Y-13987531D02*
X11511253Y-14006579D01*
X11511253Y-14006579D02*
X11511253Y-14016103D01*
X11511253Y-14016103D02*
X11501729Y-14035150D01*
X11501729Y-14035150D02*
X11492205Y-14044674D01*
X11492205Y-14044674D02*
X11473158Y-14054198D01*
X11473158Y-14054198D02*
X11435062Y-14054198D01*
X11435062Y-14054198D02*
X11416015Y-14063722D01*
X11416015Y-14063722D02*
X11406491Y-14073246D01*
X11406491Y-14073246D02*
X11396967Y-14092293D01*
X11396967Y-14092293D02*
X11396967Y-14130388D01*
X11396967Y-14130388D02*
X11406491Y-14149436D01*
X11406491Y-14149436D02*
X11416015Y-14158960D01*
X11416015Y-14158960D02*
X11435062Y-14168484D01*
X11435062Y-14168484D02*
X11473158Y-14168484D01*
X11473158Y-14168484D02*
X11492205Y-14158960D01*
X11492205Y-14158960D02*
X11501729Y-14149436D01*
X11501729Y-14149436D02*
X11511253Y-14130388D01*
X11511253Y-14130388D02*
X11511253Y-14092293D01*
X11511253Y-14092293D02*
X11501729Y-14073246D01*
X11501729Y-14073246D02*
X11492205Y-14063722D01*
X11492205Y-14063722D02*
X11473158Y-14054198D01*
X11635062Y-13968484D02*
X11654110Y-13968484D01*
X11654110Y-13968484D02*
X11673158Y-13978008D01*
X11673158Y-13978008D02*
X11682682Y-13987531D01*
X11682682Y-13987531D02*
X11692205Y-14006579D01*
X11692205Y-14006579D02*
X11701729Y-14044674D01*
X11701729Y-14044674D02*
X11701729Y-14092293D01*
X11701729Y-14092293D02*
X11692205Y-14130388D01*
X11692205Y-14130388D02*
X11682682Y-14149436D01*
X11682682Y-14149436D02*
X11673158Y-14158960D01*
X11673158Y-14158960D02*
X11654110Y-14168484D01*
X11654110Y-14168484D02*
X11635062Y-14168484D01*
X11635062Y-14168484D02*
X11616015Y-14158960D01*
X11616015Y-14158960D02*
X11606491Y-14149436D01*
X11606491Y-14149436D02*
X11596967Y-14130388D01*
X11596967Y-14130388D02*
X11587443Y-14092293D01*
X11587443Y-14092293D02*
X11587443Y-14044674D01*
X11587443Y-14044674D02*
X11596967Y-14006579D01*
X11596967Y-14006579D02*
X11606491Y-13987531D01*
X11606491Y-13987531D02*
X11616015Y-13978008D01*
X11616015Y-13978008D02*
X11635062Y-13968484D01*
X11825539Y-13968484D02*
X11844586Y-13968484D01*
X11844586Y-13968484D02*
X11863634Y-13978008D01*
X11863634Y-13978008D02*
X11873158Y-13987531D01*
X11873158Y-13987531D02*
X11882682Y-14006579D01*
X11882682Y-14006579D02*
X11892205Y-14044674D01*
X11892205Y-14044674D02*
X11892205Y-14092293D01*
X11892205Y-14092293D02*
X11882682Y-14130388D01*
X11882682Y-14130388D02*
X11873158Y-14149436D01*
X11873158Y-14149436D02*
X11863634Y-14158960D01*
X11863634Y-14158960D02*
X11844586Y-14168484D01*
X11844586Y-14168484D02*
X11825539Y-14168484D01*
X11825539Y-14168484D02*
X11806491Y-14158960D01*
X11806491Y-14158960D02*
X11796967Y-14149436D01*
X11796967Y-14149436D02*
X11787443Y-14130388D01*
X11787443Y-14130388D02*
X11777920Y-14092293D01*
X11777920Y-14092293D02*
X11777920Y-14044674D01*
X11777920Y-14044674D02*
X11787443Y-14006579D01*
X11787443Y-14006579D02*
X11796967Y-13987531D01*
X11796967Y-13987531D02*
X11806491Y-13978008D01*
X11806491Y-13978008D02*
X11825539Y-13968484D01*
X11977920Y-14168484D02*
X11977920Y-14035150D01*
X11977920Y-14054198D02*
X11987443Y-14044674D01*
X11987443Y-14044674D02*
X12006491Y-14035150D01*
X12006491Y-14035150D02*
X12035063Y-14035150D01*
X12035063Y-14035150D02*
X12054110Y-14044674D01*
X12054110Y-14044674D02*
X12063634Y-14063722D01*
X12063634Y-14063722D02*
X12063634Y-14168484D01*
X12063634Y-14063722D02*
X12073158Y-14044674D01*
X12073158Y-14044674D02*
X12092205Y-14035150D01*
X12092205Y-14035150D02*
X12120777Y-14035150D01*
X12120777Y-14035150D02*
X12139824Y-14044674D01*
X12139824Y-14044674D02*
X12149348Y-14063722D01*
X12149348Y-14063722D02*
X12149348Y-14168484D01*
X12244586Y-14168484D02*
X12244586Y-14035150D01*
X12244586Y-14054198D02*
X12254110Y-14044674D01*
X12254110Y-14044674D02*
X12273158Y-14035150D01*
X12273158Y-14035150D02*
X12301729Y-14035150D01*
X12301729Y-14035150D02*
X12320777Y-14044674D01*
X12320777Y-14044674D02*
X12330301Y-14063722D01*
X12330301Y-14063722D02*
X12330301Y-14168484D01*
X12330301Y-14063722D02*
X12339824Y-14044674D01*
X12339824Y-14044674D02*
X12358872Y-14035150D01*
X12358872Y-14035150D02*
X12387443Y-14035150D01*
X12387443Y-14035150D02*
X12406491Y-14044674D01*
X12406491Y-14044674D02*
X12416015Y-14063722D01*
X12416015Y-14063722D02*
X12416015Y-14168484D01*
X12806491Y-13958960D02*
X12635063Y-14216103D01*
X13063634Y-13968484D02*
X13082682Y-13968484D01*
X13082682Y-13968484D02*
X13101729Y-13978008D01*
X13101729Y-13978008D02*
X13111253Y-13987531D01*
X13111253Y-13987531D02*
X13120777Y-14006579D01*
X13120777Y-14006579D02*
X13130301Y-14044674D01*
X13130301Y-14044674D02*
X13130301Y-14092293D01*
X13130301Y-14092293D02*
X13120777Y-14130388D01*
X13120777Y-14130388D02*
X13111253Y-14149436D01*
X13111253Y-14149436D02*
X13101729Y-14158960D01*
X13101729Y-14158960D02*
X13082682Y-14168484D01*
X13082682Y-14168484D02*
X13063634Y-14168484D01*
X13063634Y-14168484D02*
X13044586Y-14158960D01*
X13044586Y-14158960D02*
X13035063Y-14149436D01*
X13035063Y-14149436D02*
X13025539Y-14130388D01*
X13025539Y-14130388D02*
X13016015Y-14092293D01*
X13016015Y-14092293D02*
X13016015Y-14044674D01*
X13016015Y-14044674D02*
X13025539Y-14006579D01*
X13025539Y-14006579D02*
X13035063Y-13987531D01*
X13035063Y-13987531D02*
X13044586Y-13978008D01*
X13044586Y-13978008D02*
X13063634Y-13968484D01*
X13216015Y-14149436D02*
X13225539Y-14158960D01*
X13225539Y-14158960D02*
X13216015Y-14168484D01*
X13216015Y-14168484D02*
X13206491Y-14158960D01*
X13206491Y-14158960D02*
X13216015Y-14149436D01*
X13216015Y-14149436D02*
X13216015Y-14168484D01*
X13349348Y-13968484D02*
X13368396Y-13968484D01*
X13368396Y-13968484D02*
X13387444Y-13978008D01*
X13387444Y-13978008D02*
X13396967Y-13987531D01*
X13396967Y-13987531D02*
X13406491Y-14006579D01*
X13406491Y-14006579D02*
X13416015Y-14044674D01*
X13416015Y-14044674D02*
X13416015Y-14092293D01*
X13416015Y-14092293D02*
X13406491Y-14130388D01*
X13406491Y-14130388D02*
X13396967Y-14149436D01*
X13396967Y-14149436D02*
X13387444Y-14158960D01*
X13387444Y-14158960D02*
X13368396Y-14168484D01*
X13368396Y-14168484D02*
X13349348Y-14168484D01*
X13349348Y-14168484D02*
X13330301Y-14158960D01*
X13330301Y-14158960D02*
X13320777Y-14149436D01*
X13320777Y-14149436D02*
X13311253Y-14130388D01*
X13311253Y-14130388D02*
X13301729Y-14092293D01*
X13301729Y-14092293D02*
X13301729Y-14044674D01*
X13301729Y-14044674D02*
X13311253Y-14006579D01*
X13311253Y-14006579D02*
X13320777Y-13987531D01*
X13320777Y-13987531D02*
X13330301Y-13978008D01*
X13330301Y-13978008D02*
X13349348Y-13968484D01*
X13482682Y-13968484D02*
X13606491Y-13968484D01*
X13606491Y-13968484D02*
X13539825Y-14044674D01*
X13539825Y-14044674D02*
X13568396Y-14044674D01*
X13568396Y-14044674D02*
X13587444Y-14054198D01*
X13587444Y-14054198D02*
X13596967Y-14063722D01*
X13596967Y-14063722D02*
X13606491Y-14082769D01*
X13606491Y-14082769D02*
X13606491Y-14130388D01*
X13606491Y-14130388D02*
X13596967Y-14149436D01*
X13596967Y-14149436D02*
X13587444Y-14158960D01*
X13587444Y-14158960D02*
X13568396Y-14168484D01*
X13568396Y-14168484D02*
X13511253Y-14168484D01*
X13511253Y-14168484D02*
X13492206Y-14158960D01*
X13492206Y-14158960D02*
X13482682Y-14149436D01*
X13796967Y-14168484D02*
X13682682Y-14168484D01*
X13739825Y-14168484D02*
X13739825Y-13968484D01*
X13739825Y-13968484D02*
X13720777Y-13997055D01*
X13720777Y-13997055D02*
X13701729Y-14016103D01*
X13701729Y-14016103D02*
X13682682Y-14025627D01*
X13977920Y-13968484D02*
X13882682Y-13968484D01*
X13882682Y-13968484D02*
X13873158Y-14063722D01*
X13873158Y-14063722D02*
X13882682Y-14054198D01*
X13882682Y-14054198D02*
X13901729Y-14044674D01*
X13901729Y-14044674D02*
X13949348Y-14044674D01*
X13949348Y-14044674D02*
X13968396Y-14054198D01*
X13968396Y-14054198D02*
X13977920Y-14063722D01*
X13977920Y-14063722D02*
X13987444Y-14082769D01*
X13987444Y-14082769D02*
X13987444Y-14130388D01*
X13987444Y-14130388D02*
X13977920Y-14149436D01*
X13977920Y-14149436D02*
X13968396Y-14158960D01*
X13968396Y-14158960D02*
X13949348Y-14168484D01*
X13949348Y-14168484D02*
X13901729Y-14168484D01*
X13901729Y-14168484D02*
X13882682Y-14158960D01*
X13882682Y-14158960D02*
X13873158Y-14149436D01*
X14063634Y-13968484D02*
X14063634Y-14006579D01*
X14139825Y-13968484D02*
X14139825Y-14006579D01*
X14435063Y-14244674D02*
X14425539Y-14235150D01*
X14425539Y-14235150D02*
X14406491Y-14206579D01*
X14406491Y-14206579D02*
X14396968Y-14187531D01*
X14396968Y-14187531D02*
X14387444Y-14158960D01*
X14387444Y-14158960D02*
X14377920Y-14111341D01*
X14377920Y-14111341D02*
X14377920Y-14073246D01*
X14377920Y-14073246D02*
X14387444Y-14025627D01*
X14387444Y-14025627D02*
X14396968Y-13997055D01*
X14396968Y-13997055D02*
X14406491Y-13978008D01*
X14406491Y-13978008D02*
X14425539Y-13949436D01*
X14425539Y-13949436D02*
X14435063Y-13939912D01*
X14549348Y-13968484D02*
X14568396Y-13968484D01*
X14568396Y-13968484D02*
X14587444Y-13978008D01*
X14587444Y-13978008D02*
X14596968Y-13987531D01*
X14596968Y-13987531D02*
X14606491Y-14006579D01*
X14606491Y-14006579D02*
X14616015Y-14044674D01*
X14616015Y-14044674D02*
X14616015Y-14092293D01*
X14616015Y-14092293D02*
X14606491Y-14130388D01*
X14606491Y-14130388D02*
X14596968Y-14149436D01*
X14596968Y-14149436D02*
X14587444Y-14158960D01*
X14587444Y-14158960D02*
X14568396Y-14168484D01*
X14568396Y-14168484D02*
X14549348Y-14168484D01*
X14549348Y-14168484D02*
X14530301Y-14158960D01*
X14530301Y-14158960D02*
X14520777Y-14149436D01*
X14520777Y-14149436D02*
X14511253Y-14130388D01*
X14511253Y-14130388D02*
X14501729Y-14092293D01*
X14501729Y-14092293D02*
X14501729Y-14044674D01*
X14501729Y-14044674D02*
X14511253Y-14006579D01*
X14511253Y-14006579D02*
X14520777Y-13987531D01*
X14520777Y-13987531D02*
X14530301Y-13978008D01*
X14530301Y-13978008D02*
X14549348Y-13968484D01*
X14854110Y-14168484D02*
X14854110Y-13968484D01*
X14939825Y-14168484D02*
X14939825Y-14063722D01*
X14939825Y-14063722D02*
X14930301Y-14044674D01*
X14930301Y-14044674D02*
X14911253Y-14035150D01*
X14911253Y-14035150D02*
X14882682Y-14035150D01*
X14882682Y-14035150D02*
X14863634Y-14044674D01*
X14863634Y-14044674D02*
X14854110Y-14054198D01*
X15063634Y-14168484D02*
X15044587Y-14158960D01*
X15044587Y-14158960D02*
X15035063Y-14149436D01*
X15035063Y-14149436D02*
X15025539Y-14130388D01*
X15025539Y-14130388D02*
X15025539Y-14073246D01*
X15025539Y-14073246D02*
X15035063Y-14054198D01*
X15035063Y-14054198D02*
X15044587Y-14044674D01*
X15044587Y-14044674D02*
X15063634Y-14035150D01*
X15063634Y-14035150D02*
X15092206Y-14035150D01*
X15092206Y-14035150D02*
X15111253Y-14044674D01*
X15111253Y-14044674D02*
X15120777Y-14054198D01*
X15120777Y-14054198D02*
X15130301Y-14073246D01*
X15130301Y-14073246D02*
X15130301Y-14130388D01*
X15130301Y-14130388D02*
X15120777Y-14149436D01*
X15120777Y-14149436D02*
X15111253Y-14158960D01*
X15111253Y-14158960D02*
X15092206Y-14168484D01*
X15092206Y-14168484D02*
X15063634Y-14168484D01*
X15244587Y-14168484D02*
X15225539Y-14158960D01*
X15225539Y-14158960D02*
X15216015Y-14139912D01*
X15216015Y-14139912D02*
X15216015Y-13968484D01*
X15396968Y-14158960D02*
X15377920Y-14168484D01*
X15377920Y-14168484D02*
X15339825Y-14168484D01*
X15339825Y-14168484D02*
X15320777Y-14158960D01*
X15320777Y-14158960D02*
X15311253Y-14139912D01*
X15311253Y-14139912D02*
X15311253Y-14063722D01*
X15311253Y-14063722D02*
X15320777Y-14044674D01*
X15320777Y-14044674D02*
X15339825Y-14035150D01*
X15339825Y-14035150D02*
X15377920Y-14035150D01*
X15377920Y-14035150D02*
X15396968Y-14044674D01*
X15396968Y-14044674D02*
X15406491Y-14063722D01*
X15406491Y-14063722D02*
X15406491Y-14082769D01*
X15406491Y-14082769D02*
X15311253Y-14101817D01*
X15482682Y-14158960D02*
X15501730Y-14168484D01*
X15501730Y-14168484D02*
X15539825Y-14168484D01*
X15539825Y-14168484D02*
X15558872Y-14158960D01*
X15558872Y-14158960D02*
X15568396Y-14139912D01*
X15568396Y-14139912D02*
X15568396Y-14130388D01*
X15568396Y-14130388D02*
X15558872Y-14111341D01*
X15558872Y-14111341D02*
X15539825Y-14101817D01*
X15539825Y-14101817D02*
X15511253Y-14101817D01*
X15511253Y-14101817D02*
X15492206Y-14092293D01*
X15492206Y-14092293D02*
X15482682Y-14073246D01*
X15482682Y-14073246D02*
X15482682Y-14063722D01*
X15482682Y-14063722D02*
X15492206Y-14044674D01*
X15492206Y-14044674D02*
X15511253Y-14035150D01*
X15511253Y-14035150D02*
X15539825Y-14035150D01*
X15539825Y-14035150D02*
X15558872Y-14044674D01*
X15806492Y-14092293D02*
X15958873Y-14092293D01*
X15882682Y-14168484D02*
X15882682Y-14016103D01*
X16196968Y-13987531D02*
X16206492Y-13978008D01*
X16206492Y-13978008D02*
X16225539Y-13968484D01*
X16225539Y-13968484D02*
X16273158Y-13968484D01*
X16273158Y-13968484D02*
X16292206Y-13978008D01*
X16292206Y-13978008D02*
X16301730Y-13987531D01*
X16301730Y-13987531D02*
X16311253Y-14006579D01*
X16311253Y-14006579D02*
X16311253Y-14025627D01*
X16311253Y-14025627D02*
X16301730Y-14054198D01*
X16301730Y-14054198D02*
X16187444Y-14168484D01*
X16187444Y-14168484D02*
X16311253Y-14168484D01*
X16539825Y-14158960D02*
X16558873Y-14168484D01*
X16558873Y-14168484D02*
X16596968Y-14168484D01*
X16596968Y-14168484D02*
X16616015Y-14158960D01*
X16616015Y-14158960D02*
X16625539Y-14139912D01*
X16625539Y-14139912D02*
X16625539Y-14130388D01*
X16625539Y-14130388D02*
X16616015Y-14111341D01*
X16616015Y-14111341D02*
X16596968Y-14101817D01*
X16596968Y-14101817D02*
X16568396Y-14101817D01*
X16568396Y-14101817D02*
X16549349Y-14092293D01*
X16549349Y-14092293D02*
X16539825Y-14073246D01*
X16539825Y-14073246D02*
X16539825Y-14063722D01*
X16539825Y-14063722D02*
X16549349Y-14044674D01*
X16549349Y-14044674D02*
X16568396Y-14035150D01*
X16568396Y-14035150D02*
X16596968Y-14035150D01*
X16596968Y-14035150D02*
X16616015Y-14044674D01*
X16739825Y-14168484D02*
X16720777Y-14158960D01*
X16720777Y-14158960D02*
X16711254Y-14139912D01*
X16711254Y-14139912D02*
X16711254Y-13968484D01*
X16844587Y-14168484D02*
X16825539Y-14158960D01*
X16825539Y-14158960D02*
X16816016Y-14149436D01*
X16816016Y-14149436D02*
X16806492Y-14130388D01*
X16806492Y-14130388D02*
X16806492Y-14073246D01*
X16806492Y-14073246D02*
X16816016Y-14054198D01*
X16816016Y-14054198D02*
X16825539Y-14044674D01*
X16825539Y-14044674D02*
X16844587Y-14035150D01*
X16844587Y-14035150D02*
X16873158Y-14035150D01*
X16873158Y-14035150D02*
X16892206Y-14044674D01*
X16892206Y-14044674D02*
X16901730Y-14054198D01*
X16901730Y-14054198D02*
X16911254Y-14073246D01*
X16911254Y-14073246D02*
X16911254Y-14130388D01*
X16911254Y-14130388D02*
X16901730Y-14149436D01*
X16901730Y-14149436D02*
X16892206Y-14158960D01*
X16892206Y-14158960D02*
X16873158Y-14168484D01*
X16873158Y-14168484D02*
X16844587Y-14168484D01*
X16968397Y-14035150D02*
X17044587Y-14035150D01*
X16996968Y-13968484D02*
X16996968Y-14139912D01*
X16996968Y-14139912D02*
X17006492Y-14158960D01*
X17006492Y-14158960D02*
X17025539Y-14168484D01*
X17025539Y-14168484D02*
X17044587Y-14168484D01*
X17101730Y-14158960D02*
X17120777Y-14168484D01*
X17120777Y-14168484D02*
X17158873Y-14168484D01*
X17158873Y-14168484D02*
X17177920Y-14158960D01*
X17177920Y-14158960D02*
X17187444Y-14139912D01*
X17187444Y-14139912D02*
X17187444Y-14130388D01*
X17187444Y-14130388D02*
X17177920Y-14111341D01*
X17177920Y-14111341D02*
X17158873Y-14101817D01*
X17158873Y-14101817D02*
X17130301Y-14101817D01*
X17130301Y-14101817D02*
X17111254Y-14092293D01*
X17111254Y-14092293D02*
X17101730Y-14073246D01*
X17101730Y-14073246D02*
X17101730Y-14063722D01*
X17101730Y-14063722D02*
X17111254Y-14044674D01*
X17111254Y-14044674D02*
X17130301Y-14035150D01*
X17130301Y-14035150D02*
X17158873Y-14035150D01*
X17158873Y-14035150D02*
X17177920Y-14044674D01*
X17254111Y-14244674D02*
X17263635Y-14235150D01*
X17263635Y-14235150D02*
X17282682Y-14206579D01*
X17282682Y-14206579D02*
X17292206Y-14187531D01*
X17292206Y-14187531D02*
X17301730Y-14158960D01*
X17301730Y-14158960D02*
X17311254Y-14111341D01*
X17311254Y-14111341D02*
X17311254Y-14073246D01*
X17311254Y-14073246D02*
X17301730Y-14025627D01*
X17301730Y-14025627D02*
X17292206Y-13997055D01*
X17292206Y-13997055D02*
X17282682Y-13978008D01*
X17282682Y-13978008D02*
X17263635Y-13949436D01*
X17263635Y-13949436D02*
X17254111Y-13939912D01*
D11*
X10846609Y-14373329D02*
X10846609Y-14308671D01*
X10781951Y-14308671D01*
X10781951Y-14373329D01*
X10846609Y-14373329D01*
D10*
X11158872Y-14232484D02*
X11177920Y-14232484D01*
X11177920Y-14232484D02*
X11196967Y-14242008D01*
X11196967Y-14242008D02*
X11206491Y-14251531D01*
X11206491Y-14251531D02*
X11216015Y-14270579D01*
X11216015Y-14270579D02*
X11225539Y-14308674D01*
X11225539Y-14308674D02*
X11225539Y-14356293D01*
X11225539Y-14356293D02*
X11216015Y-14394388D01*
X11216015Y-14394388D02*
X11206491Y-14413436D01*
X11206491Y-14413436D02*
X11196967Y-14422960D01*
X11196967Y-14422960D02*
X11177920Y-14432484D01*
X11177920Y-14432484D02*
X11158872Y-14432484D01*
X11158872Y-14432484D02*
X11139824Y-14422960D01*
X11139824Y-14422960D02*
X11130301Y-14413436D01*
X11130301Y-14413436D02*
X11120777Y-14394388D01*
X11120777Y-14394388D02*
X11111253Y-14356293D01*
X11111253Y-14356293D02*
X11111253Y-14308674D01*
X11111253Y-14308674D02*
X11120777Y-14270579D01*
X11120777Y-14270579D02*
X11130301Y-14251531D01*
X11130301Y-14251531D02*
X11139824Y-14242008D01*
X11139824Y-14242008D02*
X11158872Y-14232484D01*
X11311253Y-14413436D02*
X11320777Y-14422960D01*
X11320777Y-14422960D02*
X11311253Y-14432484D01*
X11311253Y-14432484D02*
X11301729Y-14422960D01*
X11301729Y-14422960D02*
X11311253Y-14413436D01*
X11311253Y-14413436D02*
X11311253Y-14432484D01*
X11416015Y-14432484D02*
X11454110Y-14432484D01*
X11454110Y-14432484D02*
X11473158Y-14422960D01*
X11473158Y-14422960D02*
X11482682Y-14413436D01*
X11482682Y-14413436D02*
X11501729Y-14384865D01*
X11501729Y-14384865D02*
X11511253Y-14346769D01*
X11511253Y-14346769D02*
X11511253Y-14270579D01*
X11511253Y-14270579D02*
X11501729Y-14251531D01*
X11501729Y-14251531D02*
X11492205Y-14242008D01*
X11492205Y-14242008D02*
X11473158Y-14232484D01*
X11473158Y-14232484D02*
X11435062Y-14232484D01*
X11435062Y-14232484D02*
X11416015Y-14242008D01*
X11416015Y-14242008D02*
X11406491Y-14251531D01*
X11406491Y-14251531D02*
X11396967Y-14270579D01*
X11396967Y-14270579D02*
X11396967Y-14318198D01*
X11396967Y-14318198D02*
X11406491Y-14337246D01*
X11406491Y-14337246D02*
X11416015Y-14346769D01*
X11416015Y-14346769D02*
X11435062Y-14356293D01*
X11435062Y-14356293D02*
X11473158Y-14356293D01*
X11473158Y-14356293D02*
X11492205Y-14346769D01*
X11492205Y-14346769D02*
X11501729Y-14337246D01*
X11501729Y-14337246D02*
X11511253Y-14318198D01*
X11701729Y-14432484D02*
X11587443Y-14432484D01*
X11644586Y-14432484D02*
X11644586Y-14232484D01*
X11644586Y-14232484D02*
X11625539Y-14261055D01*
X11625539Y-14261055D02*
X11606491Y-14280103D01*
X11606491Y-14280103D02*
X11587443Y-14289627D01*
X11873158Y-14299150D02*
X11873158Y-14432484D01*
X11825539Y-14222960D02*
X11777920Y-14365817D01*
X11777920Y-14365817D02*
X11901729Y-14365817D01*
X11977920Y-14432484D02*
X11977920Y-14299150D01*
X11977920Y-14318198D02*
X11987443Y-14308674D01*
X11987443Y-14308674D02*
X12006491Y-14299150D01*
X12006491Y-14299150D02*
X12035063Y-14299150D01*
X12035063Y-14299150D02*
X12054110Y-14308674D01*
X12054110Y-14308674D02*
X12063634Y-14327722D01*
X12063634Y-14327722D02*
X12063634Y-14432484D01*
X12063634Y-14327722D02*
X12073158Y-14308674D01*
X12073158Y-14308674D02*
X12092205Y-14299150D01*
X12092205Y-14299150D02*
X12120777Y-14299150D01*
X12120777Y-14299150D02*
X12139824Y-14308674D01*
X12139824Y-14308674D02*
X12149348Y-14327722D01*
X12149348Y-14327722D02*
X12149348Y-14432484D01*
X12244586Y-14432484D02*
X12244586Y-14299150D01*
X12244586Y-14318198D02*
X12254110Y-14308674D01*
X12254110Y-14308674D02*
X12273158Y-14299150D01*
X12273158Y-14299150D02*
X12301729Y-14299150D01*
X12301729Y-14299150D02*
X12320777Y-14308674D01*
X12320777Y-14308674D02*
X12330301Y-14327722D01*
X12330301Y-14327722D02*
X12330301Y-14432484D01*
X12330301Y-14327722D02*
X12339824Y-14308674D01*
X12339824Y-14308674D02*
X12358872Y-14299150D01*
X12358872Y-14299150D02*
X12387443Y-14299150D01*
X12387443Y-14299150D02*
X12406491Y-14308674D01*
X12406491Y-14308674D02*
X12416015Y-14327722D01*
X12416015Y-14327722D02*
X12416015Y-14432484D01*
X12806491Y-14222960D02*
X12635063Y-14480103D01*
X13063634Y-14232484D02*
X13082682Y-14232484D01*
X13082682Y-14232484D02*
X13101729Y-14242008D01*
X13101729Y-14242008D02*
X13111253Y-14251531D01*
X13111253Y-14251531D02*
X13120777Y-14270579D01*
X13120777Y-14270579D02*
X13130301Y-14308674D01*
X13130301Y-14308674D02*
X13130301Y-14356293D01*
X13130301Y-14356293D02*
X13120777Y-14394388D01*
X13120777Y-14394388D02*
X13111253Y-14413436D01*
X13111253Y-14413436D02*
X13101729Y-14422960D01*
X13101729Y-14422960D02*
X13082682Y-14432484D01*
X13082682Y-14432484D02*
X13063634Y-14432484D01*
X13063634Y-14432484D02*
X13044586Y-14422960D01*
X13044586Y-14422960D02*
X13035063Y-14413436D01*
X13035063Y-14413436D02*
X13025539Y-14394388D01*
X13025539Y-14394388D02*
X13016015Y-14356293D01*
X13016015Y-14356293D02*
X13016015Y-14308674D01*
X13016015Y-14308674D02*
X13025539Y-14270579D01*
X13025539Y-14270579D02*
X13035063Y-14251531D01*
X13035063Y-14251531D02*
X13044586Y-14242008D01*
X13044586Y-14242008D02*
X13063634Y-14232484D01*
X13216015Y-14413436D02*
X13225539Y-14422960D01*
X13225539Y-14422960D02*
X13216015Y-14432484D01*
X13216015Y-14432484D02*
X13206491Y-14422960D01*
X13206491Y-14422960D02*
X13216015Y-14413436D01*
X13216015Y-14413436D02*
X13216015Y-14432484D01*
X13349348Y-14232484D02*
X13368396Y-14232484D01*
X13368396Y-14232484D02*
X13387444Y-14242008D01*
X13387444Y-14242008D02*
X13396967Y-14251531D01*
X13396967Y-14251531D02*
X13406491Y-14270579D01*
X13406491Y-14270579D02*
X13416015Y-14308674D01*
X13416015Y-14308674D02*
X13416015Y-14356293D01*
X13416015Y-14356293D02*
X13406491Y-14394388D01*
X13406491Y-14394388D02*
X13396967Y-14413436D01*
X13396967Y-14413436D02*
X13387444Y-14422960D01*
X13387444Y-14422960D02*
X13368396Y-14432484D01*
X13368396Y-14432484D02*
X13349348Y-14432484D01*
X13349348Y-14432484D02*
X13330301Y-14422960D01*
X13330301Y-14422960D02*
X13320777Y-14413436D01*
X13320777Y-14413436D02*
X13311253Y-14394388D01*
X13311253Y-14394388D02*
X13301729Y-14356293D01*
X13301729Y-14356293D02*
X13301729Y-14308674D01*
X13301729Y-14308674D02*
X13311253Y-14270579D01*
X13311253Y-14270579D02*
X13320777Y-14251531D01*
X13320777Y-14251531D02*
X13330301Y-14242008D01*
X13330301Y-14242008D02*
X13349348Y-14232484D01*
X13482682Y-14232484D02*
X13606491Y-14232484D01*
X13606491Y-14232484D02*
X13539825Y-14308674D01*
X13539825Y-14308674D02*
X13568396Y-14308674D01*
X13568396Y-14308674D02*
X13587444Y-14318198D01*
X13587444Y-14318198D02*
X13596967Y-14327722D01*
X13596967Y-14327722D02*
X13606491Y-14346769D01*
X13606491Y-14346769D02*
X13606491Y-14394388D01*
X13606491Y-14394388D02*
X13596967Y-14413436D01*
X13596967Y-14413436D02*
X13587444Y-14422960D01*
X13587444Y-14422960D02*
X13568396Y-14432484D01*
X13568396Y-14432484D02*
X13511253Y-14432484D01*
X13511253Y-14432484D02*
X13492206Y-14422960D01*
X13492206Y-14422960D02*
X13482682Y-14413436D01*
X13777920Y-14232484D02*
X13739825Y-14232484D01*
X13739825Y-14232484D02*
X13720777Y-14242008D01*
X13720777Y-14242008D02*
X13711253Y-14251531D01*
X13711253Y-14251531D02*
X13692206Y-14280103D01*
X13692206Y-14280103D02*
X13682682Y-14318198D01*
X13682682Y-14318198D02*
X13682682Y-14394388D01*
X13682682Y-14394388D02*
X13692206Y-14413436D01*
X13692206Y-14413436D02*
X13701729Y-14422960D01*
X13701729Y-14422960D02*
X13720777Y-14432484D01*
X13720777Y-14432484D02*
X13758872Y-14432484D01*
X13758872Y-14432484D02*
X13777920Y-14422960D01*
X13777920Y-14422960D02*
X13787444Y-14413436D01*
X13787444Y-14413436D02*
X13796967Y-14394388D01*
X13796967Y-14394388D02*
X13796967Y-14346769D01*
X13796967Y-14346769D02*
X13787444Y-14327722D01*
X13787444Y-14327722D02*
X13777920Y-14318198D01*
X13777920Y-14318198D02*
X13758872Y-14308674D01*
X13758872Y-14308674D02*
X13720777Y-14308674D01*
X13720777Y-14308674D02*
X13701729Y-14318198D01*
X13701729Y-14318198D02*
X13692206Y-14327722D01*
X13692206Y-14327722D02*
X13682682Y-14346769D01*
X13920777Y-14232484D02*
X13939825Y-14232484D01*
X13939825Y-14232484D02*
X13958872Y-14242008D01*
X13958872Y-14242008D02*
X13968396Y-14251531D01*
X13968396Y-14251531D02*
X13977920Y-14270579D01*
X13977920Y-14270579D02*
X13987444Y-14308674D01*
X13987444Y-14308674D02*
X13987444Y-14356293D01*
X13987444Y-14356293D02*
X13977920Y-14394388D01*
X13977920Y-14394388D02*
X13968396Y-14413436D01*
X13968396Y-14413436D02*
X13958872Y-14422960D01*
X13958872Y-14422960D02*
X13939825Y-14432484D01*
X13939825Y-14432484D02*
X13920777Y-14432484D01*
X13920777Y-14432484D02*
X13901729Y-14422960D01*
X13901729Y-14422960D02*
X13892206Y-14413436D01*
X13892206Y-14413436D02*
X13882682Y-14394388D01*
X13882682Y-14394388D02*
X13873158Y-14356293D01*
X13873158Y-14356293D02*
X13873158Y-14308674D01*
X13873158Y-14308674D02*
X13882682Y-14270579D01*
X13882682Y-14270579D02*
X13892206Y-14251531D01*
X13892206Y-14251531D02*
X13901729Y-14242008D01*
X13901729Y-14242008D02*
X13920777Y-14232484D01*
X14063634Y-14232484D02*
X14063634Y-14270579D01*
X14139825Y-14232484D02*
X14139825Y-14270579D01*
X14435063Y-14508674D02*
X14425539Y-14499150D01*
X14425539Y-14499150D02*
X14406491Y-14470579D01*
X14406491Y-14470579D02*
X14396968Y-14451531D01*
X14396968Y-14451531D02*
X14387444Y-14422960D01*
X14387444Y-14422960D02*
X14377920Y-14375341D01*
X14377920Y-14375341D02*
X14377920Y-14337246D01*
X14377920Y-14337246D02*
X14387444Y-14289627D01*
X14387444Y-14289627D02*
X14396968Y-14261055D01*
X14396968Y-14261055D02*
X14406491Y-14242008D01*
X14406491Y-14242008D02*
X14425539Y-14213436D01*
X14425539Y-14213436D02*
X14435063Y-14203912D01*
X14539825Y-14318198D02*
X14520777Y-14308674D01*
X14520777Y-14308674D02*
X14511253Y-14299150D01*
X14511253Y-14299150D02*
X14501729Y-14280103D01*
X14501729Y-14280103D02*
X14501729Y-14270579D01*
X14501729Y-14270579D02*
X14511253Y-14251531D01*
X14511253Y-14251531D02*
X14520777Y-14242008D01*
X14520777Y-14242008D02*
X14539825Y-14232484D01*
X14539825Y-14232484D02*
X14577920Y-14232484D01*
X14577920Y-14232484D02*
X14596968Y-14242008D01*
X14596968Y-14242008D02*
X14606491Y-14251531D01*
X14606491Y-14251531D02*
X14616015Y-14270579D01*
X14616015Y-14270579D02*
X14616015Y-14280103D01*
X14616015Y-14280103D02*
X14606491Y-14299150D01*
X14606491Y-14299150D02*
X14596968Y-14308674D01*
X14596968Y-14308674D02*
X14577920Y-14318198D01*
X14577920Y-14318198D02*
X14539825Y-14318198D01*
X14539825Y-14318198D02*
X14520777Y-14327722D01*
X14520777Y-14327722D02*
X14511253Y-14337246D01*
X14511253Y-14337246D02*
X14501729Y-14356293D01*
X14501729Y-14356293D02*
X14501729Y-14394388D01*
X14501729Y-14394388D02*
X14511253Y-14413436D01*
X14511253Y-14413436D02*
X14520777Y-14422960D01*
X14520777Y-14422960D02*
X14539825Y-14432484D01*
X14539825Y-14432484D02*
X14577920Y-14432484D01*
X14577920Y-14432484D02*
X14596968Y-14422960D01*
X14596968Y-14422960D02*
X14606491Y-14413436D01*
X14606491Y-14413436D02*
X14616015Y-14394388D01*
X14616015Y-14394388D02*
X14616015Y-14356293D01*
X14616015Y-14356293D02*
X14606491Y-14337246D01*
X14606491Y-14337246D02*
X14596968Y-14327722D01*
X14596968Y-14327722D02*
X14577920Y-14318198D01*
X14854110Y-14432484D02*
X14854110Y-14232484D01*
X14939825Y-14432484D02*
X14939825Y-14327722D01*
X14939825Y-14327722D02*
X14930301Y-14308674D01*
X14930301Y-14308674D02*
X14911253Y-14299150D01*
X14911253Y-14299150D02*
X14882682Y-14299150D01*
X14882682Y-14299150D02*
X14863634Y-14308674D01*
X14863634Y-14308674D02*
X14854110Y-14318198D01*
X15063634Y-14432484D02*
X15044587Y-14422960D01*
X15044587Y-14422960D02*
X15035063Y-14413436D01*
X15035063Y-14413436D02*
X15025539Y-14394388D01*
X15025539Y-14394388D02*
X15025539Y-14337246D01*
X15025539Y-14337246D02*
X15035063Y-14318198D01*
X15035063Y-14318198D02*
X15044587Y-14308674D01*
X15044587Y-14308674D02*
X15063634Y-14299150D01*
X15063634Y-14299150D02*
X15092206Y-14299150D01*
X15092206Y-14299150D02*
X15111253Y-14308674D01*
X15111253Y-14308674D02*
X15120777Y-14318198D01*
X15120777Y-14318198D02*
X15130301Y-14337246D01*
X15130301Y-14337246D02*
X15130301Y-14394388D01*
X15130301Y-14394388D02*
X15120777Y-14413436D01*
X15120777Y-14413436D02*
X15111253Y-14422960D01*
X15111253Y-14422960D02*
X15092206Y-14432484D01*
X15092206Y-14432484D02*
X15063634Y-14432484D01*
X15244587Y-14432484D02*
X15225539Y-14422960D01*
X15225539Y-14422960D02*
X15216015Y-14403912D01*
X15216015Y-14403912D02*
X15216015Y-14232484D01*
X15396968Y-14422960D02*
X15377920Y-14432484D01*
X15377920Y-14432484D02*
X15339825Y-14432484D01*
X15339825Y-14432484D02*
X15320777Y-14422960D01*
X15320777Y-14422960D02*
X15311253Y-14403912D01*
X15311253Y-14403912D02*
X15311253Y-14327722D01*
X15311253Y-14327722D02*
X15320777Y-14308674D01*
X15320777Y-14308674D02*
X15339825Y-14299150D01*
X15339825Y-14299150D02*
X15377920Y-14299150D01*
X15377920Y-14299150D02*
X15396968Y-14308674D01*
X15396968Y-14308674D02*
X15406491Y-14327722D01*
X15406491Y-14327722D02*
X15406491Y-14346769D01*
X15406491Y-14346769D02*
X15311253Y-14365817D01*
X15482682Y-14422960D02*
X15501730Y-14432484D01*
X15501730Y-14432484D02*
X15539825Y-14432484D01*
X15539825Y-14432484D02*
X15558872Y-14422960D01*
X15558872Y-14422960D02*
X15568396Y-14403912D01*
X15568396Y-14403912D02*
X15568396Y-14394388D01*
X15568396Y-14394388D02*
X15558872Y-14375341D01*
X15558872Y-14375341D02*
X15539825Y-14365817D01*
X15539825Y-14365817D02*
X15511253Y-14365817D01*
X15511253Y-14365817D02*
X15492206Y-14356293D01*
X15492206Y-14356293D02*
X15482682Y-14337246D01*
X15482682Y-14337246D02*
X15482682Y-14327722D01*
X15482682Y-14327722D02*
X15492206Y-14308674D01*
X15492206Y-14308674D02*
X15511253Y-14299150D01*
X15511253Y-14299150D02*
X15539825Y-14299150D01*
X15539825Y-14299150D02*
X15558872Y-14308674D01*
X15635063Y-14508674D02*
X15644587Y-14499150D01*
X15644587Y-14499150D02*
X15663634Y-14470579D01*
X15663634Y-14470579D02*
X15673158Y-14451531D01*
X15673158Y-14451531D02*
X15682682Y-14422960D01*
X15682682Y-14422960D02*
X15692206Y-14375341D01*
X15692206Y-14375341D02*
X15692206Y-14337246D01*
X15692206Y-14337246D02*
X15682682Y-14289627D01*
X15682682Y-14289627D02*
X15673158Y-14261055D01*
X15673158Y-14261055D02*
X15663634Y-14242008D01*
X15663634Y-14242008D02*
X15644587Y-14213436D01*
X15644587Y-14213436D02*
X15635063Y-14203912D01*
D11*
X10810000Y-14655000D02*
X10860000Y-14605000D01*
X10810000Y-14555000D01*
X10760000Y-14605000D01*
X10810000Y-14655000D01*
D10*
X11225539Y-14696484D02*
X11111253Y-14696484D01*
X11168396Y-14696484D02*
X11168396Y-14496484D01*
X11168396Y-14496484D02*
X11149348Y-14525055D01*
X11149348Y-14525055D02*
X11130301Y-14544103D01*
X11130301Y-14544103D02*
X11111253Y-14553627D01*
X11311253Y-14677436D02*
X11320777Y-14686960D01*
X11320777Y-14686960D02*
X11311253Y-14696484D01*
X11311253Y-14696484D02*
X11301729Y-14686960D01*
X11301729Y-14686960D02*
X11311253Y-14677436D01*
X11311253Y-14677436D02*
X11311253Y-14696484D01*
X11444586Y-14496484D02*
X11463634Y-14496484D01*
X11463634Y-14496484D02*
X11482682Y-14506008D01*
X11482682Y-14506008D02*
X11492205Y-14515531D01*
X11492205Y-14515531D02*
X11501729Y-14534579D01*
X11501729Y-14534579D02*
X11511253Y-14572674D01*
X11511253Y-14572674D02*
X11511253Y-14620293D01*
X11511253Y-14620293D02*
X11501729Y-14658388D01*
X11501729Y-14658388D02*
X11492205Y-14677436D01*
X11492205Y-14677436D02*
X11482682Y-14686960D01*
X11482682Y-14686960D02*
X11463634Y-14696484D01*
X11463634Y-14696484D02*
X11444586Y-14696484D01*
X11444586Y-14696484D02*
X11425539Y-14686960D01*
X11425539Y-14686960D02*
X11416015Y-14677436D01*
X11416015Y-14677436D02*
X11406491Y-14658388D01*
X11406491Y-14658388D02*
X11396967Y-14620293D01*
X11396967Y-14620293D02*
X11396967Y-14572674D01*
X11396967Y-14572674D02*
X11406491Y-14534579D01*
X11406491Y-14534579D02*
X11416015Y-14515531D01*
X11416015Y-14515531D02*
X11425539Y-14506008D01*
X11425539Y-14506008D02*
X11444586Y-14496484D01*
X11635062Y-14496484D02*
X11654110Y-14496484D01*
X11654110Y-14496484D02*
X11673158Y-14506008D01*
X11673158Y-14506008D02*
X11682682Y-14515531D01*
X11682682Y-14515531D02*
X11692205Y-14534579D01*
X11692205Y-14534579D02*
X11701729Y-14572674D01*
X11701729Y-14572674D02*
X11701729Y-14620293D01*
X11701729Y-14620293D02*
X11692205Y-14658388D01*
X11692205Y-14658388D02*
X11682682Y-14677436D01*
X11682682Y-14677436D02*
X11673158Y-14686960D01*
X11673158Y-14686960D02*
X11654110Y-14696484D01*
X11654110Y-14696484D02*
X11635062Y-14696484D01*
X11635062Y-14696484D02*
X11616015Y-14686960D01*
X11616015Y-14686960D02*
X11606491Y-14677436D01*
X11606491Y-14677436D02*
X11596967Y-14658388D01*
X11596967Y-14658388D02*
X11587443Y-14620293D01*
X11587443Y-14620293D02*
X11587443Y-14572674D01*
X11587443Y-14572674D02*
X11596967Y-14534579D01*
X11596967Y-14534579D02*
X11606491Y-14515531D01*
X11606491Y-14515531D02*
X11616015Y-14506008D01*
X11616015Y-14506008D02*
X11635062Y-14496484D01*
X11825539Y-14496484D02*
X11844586Y-14496484D01*
X11844586Y-14496484D02*
X11863634Y-14506008D01*
X11863634Y-14506008D02*
X11873158Y-14515531D01*
X11873158Y-14515531D02*
X11882682Y-14534579D01*
X11882682Y-14534579D02*
X11892205Y-14572674D01*
X11892205Y-14572674D02*
X11892205Y-14620293D01*
X11892205Y-14620293D02*
X11882682Y-14658388D01*
X11882682Y-14658388D02*
X11873158Y-14677436D01*
X11873158Y-14677436D02*
X11863634Y-14686960D01*
X11863634Y-14686960D02*
X11844586Y-14696484D01*
X11844586Y-14696484D02*
X11825539Y-14696484D01*
X11825539Y-14696484D02*
X11806491Y-14686960D01*
X11806491Y-14686960D02*
X11796967Y-14677436D01*
X11796967Y-14677436D02*
X11787443Y-14658388D01*
X11787443Y-14658388D02*
X11777920Y-14620293D01*
X11777920Y-14620293D02*
X11777920Y-14572674D01*
X11777920Y-14572674D02*
X11787443Y-14534579D01*
X11787443Y-14534579D02*
X11796967Y-14515531D01*
X11796967Y-14515531D02*
X11806491Y-14506008D01*
X11806491Y-14506008D02*
X11825539Y-14496484D01*
X11977920Y-14696484D02*
X11977920Y-14563150D01*
X11977920Y-14582198D02*
X11987443Y-14572674D01*
X11987443Y-14572674D02*
X12006491Y-14563150D01*
X12006491Y-14563150D02*
X12035063Y-14563150D01*
X12035063Y-14563150D02*
X12054110Y-14572674D01*
X12054110Y-14572674D02*
X12063634Y-14591722D01*
X12063634Y-14591722D02*
X12063634Y-14696484D01*
X12063634Y-14591722D02*
X12073158Y-14572674D01*
X12073158Y-14572674D02*
X12092205Y-14563150D01*
X12092205Y-14563150D02*
X12120777Y-14563150D01*
X12120777Y-14563150D02*
X12139824Y-14572674D01*
X12139824Y-14572674D02*
X12149348Y-14591722D01*
X12149348Y-14591722D02*
X12149348Y-14696484D01*
X12244586Y-14696484D02*
X12244586Y-14563150D01*
X12244586Y-14582198D02*
X12254110Y-14572674D01*
X12254110Y-14572674D02*
X12273158Y-14563150D01*
X12273158Y-14563150D02*
X12301729Y-14563150D01*
X12301729Y-14563150D02*
X12320777Y-14572674D01*
X12320777Y-14572674D02*
X12330301Y-14591722D01*
X12330301Y-14591722D02*
X12330301Y-14696484D01*
X12330301Y-14591722D02*
X12339824Y-14572674D01*
X12339824Y-14572674D02*
X12358872Y-14563150D01*
X12358872Y-14563150D02*
X12387443Y-14563150D01*
X12387443Y-14563150D02*
X12406491Y-14572674D01*
X12406491Y-14572674D02*
X12416015Y-14591722D01*
X12416015Y-14591722D02*
X12416015Y-14696484D01*
X12806491Y-14486960D02*
X12635063Y-14744103D01*
X13063634Y-14496484D02*
X13082682Y-14496484D01*
X13082682Y-14496484D02*
X13101729Y-14506008D01*
X13101729Y-14506008D02*
X13111253Y-14515531D01*
X13111253Y-14515531D02*
X13120777Y-14534579D01*
X13120777Y-14534579D02*
X13130301Y-14572674D01*
X13130301Y-14572674D02*
X13130301Y-14620293D01*
X13130301Y-14620293D02*
X13120777Y-14658388D01*
X13120777Y-14658388D02*
X13111253Y-14677436D01*
X13111253Y-14677436D02*
X13101729Y-14686960D01*
X13101729Y-14686960D02*
X13082682Y-14696484D01*
X13082682Y-14696484D02*
X13063634Y-14696484D01*
X13063634Y-14696484D02*
X13044586Y-14686960D01*
X13044586Y-14686960D02*
X13035063Y-14677436D01*
X13035063Y-14677436D02*
X13025539Y-14658388D01*
X13025539Y-14658388D02*
X13016015Y-14620293D01*
X13016015Y-14620293D02*
X13016015Y-14572674D01*
X13016015Y-14572674D02*
X13025539Y-14534579D01*
X13025539Y-14534579D02*
X13035063Y-14515531D01*
X13035063Y-14515531D02*
X13044586Y-14506008D01*
X13044586Y-14506008D02*
X13063634Y-14496484D01*
X13216015Y-14677436D02*
X13225539Y-14686960D01*
X13225539Y-14686960D02*
X13216015Y-14696484D01*
X13216015Y-14696484D02*
X13206491Y-14686960D01*
X13206491Y-14686960D02*
X13216015Y-14677436D01*
X13216015Y-14677436D02*
X13216015Y-14696484D01*
X13349348Y-14496484D02*
X13368396Y-14496484D01*
X13368396Y-14496484D02*
X13387444Y-14506008D01*
X13387444Y-14506008D02*
X13396967Y-14515531D01*
X13396967Y-14515531D02*
X13406491Y-14534579D01*
X13406491Y-14534579D02*
X13416015Y-14572674D01*
X13416015Y-14572674D02*
X13416015Y-14620293D01*
X13416015Y-14620293D02*
X13406491Y-14658388D01*
X13406491Y-14658388D02*
X13396967Y-14677436D01*
X13396967Y-14677436D02*
X13387444Y-14686960D01*
X13387444Y-14686960D02*
X13368396Y-14696484D01*
X13368396Y-14696484D02*
X13349348Y-14696484D01*
X13349348Y-14696484D02*
X13330301Y-14686960D01*
X13330301Y-14686960D02*
X13320777Y-14677436D01*
X13320777Y-14677436D02*
X13311253Y-14658388D01*
X13311253Y-14658388D02*
X13301729Y-14620293D01*
X13301729Y-14620293D02*
X13301729Y-14572674D01*
X13301729Y-14572674D02*
X13311253Y-14534579D01*
X13311253Y-14534579D02*
X13320777Y-14515531D01*
X13320777Y-14515531D02*
X13330301Y-14506008D01*
X13330301Y-14506008D02*
X13349348Y-14496484D01*
X13482682Y-14496484D02*
X13606491Y-14496484D01*
X13606491Y-14496484D02*
X13539825Y-14572674D01*
X13539825Y-14572674D02*
X13568396Y-14572674D01*
X13568396Y-14572674D02*
X13587444Y-14582198D01*
X13587444Y-14582198D02*
X13596967Y-14591722D01*
X13596967Y-14591722D02*
X13606491Y-14610769D01*
X13606491Y-14610769D02*
X13606491Y-14658388D01*
X13606491Y-14658388D02*
X13596967Y-14677436D01*
X13596967Y-14677436D02*
X13587444Y-14686960D01*
X13587444Y-14686960D02*
X13568396Y-14696484D01*
X13568396Y-14696484D02*
X13511253Y-14696484D01*
X13511253Y-14696484D02*
X13492206Y-14686960D01*
X13492206Y-14686960D02*
X13482682Y-14677436D01*
X13701729Y-14696484D02*
X13739825Y-14696484D01*
X13739825Y-14696484D02*
X13758872Y-14686960D01*
X13758872Y-14686960D02*
X13768396Y-14677436D01*
X13768396Y-14677436D02*
X13787444Y-14648865D01*
X13787444Y-14648865D02*
X13796967Y-14610769D01*
X13796967Y-14610769D02*
X13796967Y-14534579D01*
X13796967Y-14534579D02*
X13787444Y-14515531D01*
X13787444Y-14515531D02*
X13777920Y-14506008D01*
X13777920Y-14506008D02*
X13758872Y-14496484D01*
X13758872Y-14496484D02*
X13720777Y-14496484D01*
X13720777Y-14496484D02*
X13701729Y-14506008D01*
X13701729Y-14506008D02*
X13692206Y-14515531D01*
X13692206Y-14515531D02*
X13682682Y-14534579D01*
X13682682Y-14534579D02*
X13682682Y-14582198D01*
X13682682Y-14582198D02*
X13692206Y-14601246D01*
X13692206Y-14601246D02*
X13701729Y-14610769D01*
X13701729Y-14610769D02*
X13720777Y-14620293D01*
X13720777Y-14620293D02*
X13758872Y-14620293D01*
X13758872Y-14620293D02*
X13777920Y-14610769D01*
X13777920Y-14610769D02*
X13787444Y-14601246D01*
X13787444Y-14601246D02*
X13796967Y-14582198D01*
X13968396Y-14563150D02*
X13968396Y-14696484D01*
X13920777Y-14486960D02*
X13873158Y-14629817D01*
X13873158Y-14629817D02*
X13996967Y-14629817D01*
X14063634Y-14496484D02*
X14063634Y-14534579D01*
X14139825Y-14496484D02*
X14139825Y-14534579D01*
X14435063Y-14772674D02*
X14425539Y-14763150D01*
X14425539Y-14763150D02*
X14406491Y-14734579D01*
X14406491Y-14734579D02*
X14396968Y-14715531D01*
X14396968Y-14715531D02*
X14387444Y-14686960D01*
X14387444Y-14686960D02*
X14377920Y-14639341D01*
X14377920Y-14639341D02*
X14377920Y-14601246D01*
X14377920Y-14601246D02*
X14387444Y-14553627D01*
X14387444Y-14553627D02*
X14396968Y-14525055D01*
X14396968Y-14525055D02*
X14406491Y-14506008D01*
X14406491Y-14506008D02*
X14425539Y-14477436D01*
X14425539Y-14477436D02*
X14435063Y-14467912D01*
X14616015Y-14696484D02*
X14501729Y-14696484D01*
X14558872Y-14696484D02*
X14558872Y-14496484D01*
X14558872Y-14496484D02*
X14539825Y-14525055D01*
X14539825Y-14525055D02*
X14520777Y-14544103D01*
X14520777Y-14544103D02*
X14501729Y-14553627D01*
X14787444Y-14563150D02*
X14787444Y-14696484D01*
X14739825Y-14486960D02*
X14692206Y-14629817D01*
X14692206Y-14629817D02*
X14816015Y-14629817D01*
X15044587Y-14696484D02*
X15044587Y-14496484D01*
X15130301Y-14696484D02*
X15130301Y-14591722D01*
X15130301Y-14591722D02*
X15120777Y-14572674D01*
X15120777Y-14572674D02*
X15101730Y-14563150D01*
X15101730Y-14563150D02*
X15073158Y-14563150D01*
X15073158Y-14563150D02*
X15054110Y-14572674D01*
X15054110Y-14572674D02*
X15044587Y-14582198D01*
X15254110Y-14696484D02*
X15235063Y-14686960D01*
X15235063Y-14686960D02*
X15225539Y-14677436D01*
X15225539Y-14677436D02*
X15216015Y-14658388D01*
X15216015Y-14658388D02*
X15216015Y-14601246D01*
X15216015Y-14601246D02*
X15225539Y-14582198D01*
X15225539Y-14582198D02*
X15235063Y-14572674D01*
X15235063Y-14572674D02*
X15254110Y-14563150D01*
X15254110Y-14563150D02*
X15282682Y-14563150D01*
X15282682Y-14563150D02*
X15301730Y-14572674D01*
X15301730Y-14572674D02*
X15311253Y-14582198D01*
X15311253Y-14582198D02*
X15320777Y-14601246D01*
X15320777Y-14601246D02*
X15320777Y-14658388D01*
X15320777Y-14658388D02*
X15311253Y-14677436D01*
X15311253Y-14677436D02*
X15301730Y-14686960D01*
X15301730Y-14686960D02*
X15282682Y-14696484D01*
X15282682Y-14696484D02*
X15254110Y-14696484D01*
X15435063Y-14696484D02*
X15416015Y-14686960D01*
X15416015Y-14686960D02*
X15406491Y-14667912D01*
X15406491Y-14667912D02*
X15406491Y-14496484D01*
X15587444Y-14686960D02*
X15568396Y-14696484D01*
X15568396Y-14696484D02*
X15530301Y-14696484D01*
X15530301Y-14696484D02*
X15511253Y-14686960D01*
X15511253Y-14686960D02*
X15501730Y-14667912D01*
X15501730Y-14667912D02*
X15501730Y-14591722D01*
X15501730Y-14591722D02*
X15511253Y-14572674D01*
X15511253Y-14572674D02*
X15530301Y-14563150D01*
X15530301Y-14563150D02*
X15568396Y-14563150D01*
X15568396Y-14563150D02*
X15587444Y-14572674D01*
X15587444Y-14572674D02*
X15596968Y-14591722D01*
X15596968Y-14591722D02*
X15596968Y-14610769D01*
X15596968Y-14610769D02*
X15501730Y-14629817D01*
X15673158Y-14686960D02*
X15692206Y-14696484D01*
X15692206Y-14696484D02*
X15730301Y-14696484D01*
X15730301Y-14696484D02*
X15749349Y-14686960D01*
X15749349Y-14686960D02*
X15758872Y-14667912D01*
X15758872Y-14667912D02*
X15758872Y-14658388D01*
X15758872Y-14658388D02*
X15749349Y-14639341D01*
X15749349Y-14639341D02*
X15730301Y-14629817D01*
X15730301Y-14629817D02*
X15701730Y-14629817D01*
X15701730Y-14629817D02*
X15682682Y-14620293D01*
X15682682Y-14620293D02*
X15673158Y-14601246D01*
X15673158Y-14601246D02*
X15673158Y-14591722D01*
X15673158Y-14591722D02*
X15682682Y-14572674D01*
X15682682Y-14572674D02*
X15701730Y-14563150D01*
X15701730Y-14563150D02*
X15730301Y-14563150D01*
X15730301Y-14563150D02*
X15749349Y-14572674D01*
X15996968Y-14620293D02*
X16149349Y-14620293D01*
X16073158Y-14696484D02*
X16073158Y-14544103D01*
X16482682Y-14563150D02*
X16482682Y-14696484D01*
X16435063Y-14486960D02*
X16387444Y-14629817D01*
X16387444Y-14629817D02*
X16511253Y-14629817D01*
X16730301Y-14686960D02*
X16749349Y-14696484D01*
X16749349Y-14696484D02*
X16787444Y-14696484D01*
X16787444Y-14696484D02*
X16806492Y-14686960D01*
X16806492Y-14686960D02*
X16816016Y-14667912D01*
X16816016Y-14667912D02*
X16816016Y-14658388D01*
X16816016Y-14658388D02*
X16806492Y-14639341D01*
X16806492Y-14639341D02*
X16787444Y-14629817D01*
X16787444Y-14629817D02*
X16758873Y-14629817D01*
X16758873Y-14629817D02*
X16739825Y-14620293D01*
X16739825Y-14620293D02*
X16730301Y-14601246D01*
X16730301Y-14601246D02*
X16730301Y-14591722D01*
X16730301Y-14591722D02*
X16739825Y-14572674D01*
X16739825Y-14572674D02*
X16758873Y-14563150D01*
X16758873Y-14563150D02*
X16787444Y-14563150D01*
X16787444Y-14563150D02*
X16806492Y-14572674D01*
X16930301Y-14696484D02*
X16911254Y-14686960D01*
X16911254Y-14686960D02*
X16901730Y-14667912D01*
X16901730Y-14667912D02*
X16901730Y-14496484D01*
X17035063Y-14696484D02*
X17016016Y-14686960D01*
X17016016Y-14686960D02*
X17006492Y-14677436D01*
X17006492Y-14677436D02*
X16996968Y-14658388D01*
X16996968Y-14658388D02*
X16996968Y-14601246D01*
X16996968Y-14601246D02*
X17006492Y-14582198D01*
X17006492Y-14582198D02*
X17016016Y-14572674D01*
X17016016Y-14572674D02*
X17035063Y-14563150D01*
X17035063Y-14563150D02*
X17063635Y-14563150D01*
X17063635Y-14563150D02*
X17082682Y-14572674D01*
X17082682Y-14572674D02*
X17092206Y-14582198D01*
X17092206Y-14582198D02*
X17101730Y-14601246D01*
X17101730Y-14601246D02*
X17101730Y-14658388D01*
X17101730Y-14658388D02*
X17092206Y-14677436D01*
X17092206Y-14677436D02*
X17082682Y-14686960D01*
X17082682Y-14686960D02*
X17063635Y-14696484D01*
X17063635Y-14696484D02*
X17035063Y-14696484D01*
X17158873Y-14563150D02*
X17235063Y-14563150D01*
X17187444Y-14496484D02*
X17187444Y-14667912D01*
X17187444Y-14667912D02*
X17196968Y-14686960D01*
X17196968Y-14686960D02*
X17216016Y-14696484D01*
X17216016Y-14696484D02*
X17235063Y-14696484D01*
X17292206Y-14686960D02*
X17311254Y-14696484D01*
X17311254Y-14696484D02*
X17349349Y-14696484D01*
X17349349Y-14696484D02*
X17368397Y-14686960D01*
X17368397Y-14686960D02*
X17377920Y-14667912D01*
X17377920Y-14667912D02*
X17377920Y-14658388D01*
X17377920Y-14658388D02*
X17368397Y-14639341D01*
X17368397Y-14639341D02*
X17349349Y-14629817D01*
X17349349Y-14629817D02*
X17320777Y-14629817D01*
X17320777Y-14629817D02*
X17301730Y-14620293D01*
X17301730Y-14620293D02*
X17292206Y-14601246D01*
X17292206Y-14601246D02*
X17292206Y-14591722D01*
X17292206Y-14591722D02*
X17301730Y-14572674D01*
X17301730Y-14572674D02*
X17320777Y-14563150D01*
X17320777Y-14563150D02*
X17349349Y-14563150D01*
X17349349Y-14563150D02*
X17368397Y-14572674D01*
X17444587Y-14772674D02*
X17454111Y-14763150D01*
X17454111Y-14763150D02*
X17473158Y-14734579D01*
X17473158Y-14734579D02*
X17482682Y-14715531D01*
X17482682Y-14715531D02*
X17492206Y-14686960D01*
X17492206Y-14686960D02*
X17501730Y-14639341D01*
X17501730Y-14639341D02*
X17501730Y-14601246D01*
X17501730Y-14601246D02*
X17492206Y-14553627D01*
X17492206Y-14553627D02*
X17482682Y-14525055D01*
X17482682Y-14525055D02*
X17473158Y-14506008D01*
X17473158Y-14506008D02*
X17454111Y-14477436D01*
X17454111Y-14477436D02*
X17444587Y-14467912D01*
D12*
X10730000Y-14804000D02*
X10860000Y-14934000D01*
X10860000Y-14804000D02*
X10730000Y-14934000D01*
X10860000Y-14869000D02*
G75*
G02*
X10730000Y-14869000I-65000J0D01*
G01*
X10730000Y-14869000D02*
G75*
G02*
X10860000Y-14869000I65000J0D01*
G01*
D10*
X11225539Y-14960484D02*
X11111253Y-14960484D01*
X11168396Y-14960484D02*
X11168396Y-14760484D01*
X11168396Y-14760484D02*
X11149348Y-14789055D01*
X11149348Y-14789055D02*
X11130301Y-14808103D01*
X11130301Y-14808103D02*
X11111253Y-14817627D01*
X11311253Y-14941436D02*
X11320777Y-14950960D01*
X11320777Y-14950960D02*
X11311253Y-14960484D01*
X11311253Y-14960484D02*
X11301729Y-14950960D01*
X11301729Y-14950960D02*
X11311253Y-14941436D01*
X11311253Y-14941436D02*
X11311253Y-14960484D01*
X11387443Y-14760484D02*
X11511253Y-14760484D01*
X11511253Y-14760484D02*
X11444586Y-14836674D01*
X11444586Y-14836674D02*
X11473158Y-14836674D01*
X11473158Y-14836674D02*
X11492205Y-14846198D01*
X11492205Y-14846198D02*
X11501729Y-14855722D01*
X11501729Y-14855722D02*
X11511253Y-14874769D01*
X11511253Y-14874769D02*
X11511253Y-14922388D01*
X11511253Y-14922388D02*
X11501729Y-14941436D01*
X11501729Y-14941436D02*
X11492205Y-14950960D01*
X11492205Y-14950960D02*
X11473158Y-14960484D01*
X11473158Y-14960484D02*
X11416015Y-14960484D01*
X11416015Y-14960484D02*
X11396967Y-14950960D01*
X11396967Y-14950960D02*
X11387443Y-14941436D01*
X11635062Y-14760484D02*
X11654110Y-14760484D01*
X11654110Y-14760484D02*
X11673158Y-14770008D01*
X11673158Y-14770008D02*
X11682682Y-14779531D01*
X11682682Y-14779531D02*
X11692205Y-14798579D01*
X11692205Y-14798579D02*
X11701729Y-14836674D01*
X11701729Y-14836674D02*
X11701729Y-14884293D01*
X11701729Y-14884293D02*
X11692205Y-14922388D01*
X11692205Y-14922388D02*
X11682682Y-14941436D01*
X11682682Y-14941436D02*
X11673158Y-14950960D01*
X11673158Y-14950960D02*
X11654110Y-14960484D01*
X11654110Y-14960484D02*
X11635062Y-14960484D01*
X11635062Y-14960484D02*
X11616015Y-14950960D01*
X11616015Y-14950960D02*
X11606491Y-14941436D01*
X11606491Y-14941436D02*
X11596967Y-14922388D01*
X11596967Y-14922388D02*
X11587443Y-14884293D01*
X11587443Y-14884293D02*
X11587443Y-14836674D01*
X11587443Y-14836674D02*
X11596967Y-14798579D01*
X11596967Y-14798579D02*
X11606491Y-14779531D01*
X11606491Y-14779531D02*
X11616015Y-14770008D01*
X11616015Y-14770008D02*
X11635062Y-14760484D01*
X11825539Y-14760484D02*
X11844586Y-14760484D01*
X11844586Y-14760484D02*
X11863634Y-14770008D01*
X11863634Y-14770008D02*
X11873158Y-14779531D01*
X11873158Y-14779531D02*
X11882682Y-14798579D01*
X11882682Y-14798579D02*
X11892205Y-14836674D01*
X11892205Y-14836674D02*
X11892205Y-14884293D01*
X11892205Y-14884293D02*
X11882682Y-14922388D01*
X11882682Y-14922388D02*
X11873158Y-14941436D01*
X11873158Y-14941436D02*
X11863634Y-14950960D01*
X11863634Y-14950960D02*
X11844586Y-14960484D01*
X11844586Y-14960484D02*
X11825539Y-14960484D01*
X11825539Y-14960484D02*
X11806491Y-14950960D01*
X11806491Y-14950960D02*
X11796967Y-14941436D01*
X11796967Y-14941436D02*
X11787443Y-14922388D01*
X11787443Y-14922388D02*
X11777920Y-14884293D01*
X11777920Y-14884293D02*
X11777920Y-14836674D01*
X11777920Y-14836674D02*
X11787443Y-14798579D01*
X11787443Y-14798579D02*
X11796967Y-14779531D01*
X11796967Y-14779531D02*
X11806491Y-14770008D01*
X11806491Y-14770008D02*
X11825539Y-14760484D01*
X11977920Y-14960484D02*
X11977920Y-14827150D01*
X11977920Y-14846198D02*
X11987443Y-14836674D01*
X11987443Y-14836674D02*
X12006491Y-14827150D01*
X12006491Y-14827150D02*
X12035063Y-14827150D01*
X12035063Y-14827150D02*
X12054110Y-14836674D01*
X12054110Y-14836674D02*
X12063634Y-14855722D01*
X12063634Y-14855722D02*
X12063634Y-14960484D01*
X12063634Y-14855722D02*
X12073158Y-14836674D01*
X12073158Y-14836674D02*
X12092205Y-14827150D01*
X12092205Y-14827150D02*
X12120777Y-14827150D01*
X12120777Y-14827150D02*
X12139824Y-14836674D01*
X12139824Y-14836674D02*
X12149348Y-14855722D01*
X12149348Y-14855722D02*
X12149348Y-14960484D01*
X12244586Y-14960484D02*
X12244586Y-14827150D01*
X12244586Y-14846198D02*
X12254110Y-14836674D01*
X12254110Y-14836674D02*
X12273158Y-14827150D01*
X12273158Y-14827150D02*
X12301729Y-14827150D01*
X12301729Y-14827150D02*
X12320777Y-14836674D01*
X12320777Y-14836674D02*
X12330301Y-14855722D01*
X12330301Y-14855722D02*
X12330301Y-14960484D01*
X12330301Y-14855722D02*
X12339824Y-14836674D01*
X12339824Y-14836674D02*
X12358872Y-14827150D01*
X12358872Y-14827150D02*
X12387443Y-14827150D01*
X12387443Y-14827150D02*
X12406491Y-14836674D01*
X12406491Y-14836674D02*
X12416015Y-14855722D01*
X12416015Y-14855722D02*
X12416015Y-14960484D01*
X12806491Y-14750960D02*
X12635063Y-15008103D01*
X13063634Y-14760484D02*
X13082682Y-14760484D01*
X13082682Y-14760484D02*
X13101729Y-14770008D01*
X13101729Y-14770008D02*
X13111253Y-14779531D01*
X13111253Y-14779531D02*
X13120777Y-14798579D01*
X13120777Y-14798579D02*
X13130301Y-14836674D01*
X13130301Y-14836674D02*
X13130301Y-14884293D01*
X13130301Y-14884293D02*
X13120777Y-14922388D01*
X13120777Y-14922388D02*
X13111253Y-14941436D01*
X13111253Y-14941436D02*
X13101729Y-14950960D01*
X13101729Y-14950960D02*
X13082682Y-14960484D01*
X13082682Y-14960484D02*
X13063634Y-14960484D01*
X13063634Y-14960484D02*
X13044586Y-14950960D01*
X13044586Y-14950960D02*
X13035063Y-14941436D01*
X13035063Y-14941436D02*
X13025539Y-14922388D01*
X13025539Y-14922388D02*
X13016015Y-14884293D01*
X13016015Y-14884293D02*
X13016015Y-14836674D01*
X13016015Y-14836674D02*
X13025539Y-14798579D01*
X13025539Y-14798579D02*
X13035063Y-14779531D01*
X13035063Y-14779531D02*
X13044586Y-14770008D01*
X13044586Y-14770008D02*
X13063634Y-14760484D01*
X13216015Y-14941436D02*
X13225539Y-14950960D01*
X13225539Y-14950960D02*
X13216015Y-14960484D01*
X13216015Y-14960484D02*
X13206491Y-14950960D01*
X13206491Y-14950960D02*
X13216015Y-14941436D01*
X13216015Y-14941436D02*
X13216015Y-14960484D01*
X13349348Y-14760484D02*
X13368396Y-14760484D01*
X13368396Y-14760484D02*
X13387444Y-14770008D01*
X13387444Y-14770008D02*
X13396967Y-14779531D01*
X13396967Y-14779531D02*
X13406491Y-14798579D01*
X13406491Y-14798579D02*
X13416015Y-14836674D01*
X13416015Y-14836674D02*
X13416015Y-14884293D01*
X13416015Y-14884293D02*
X13406491Y-14922388D01*
X13406491Y-14922388D02*
X13396967Y-14941436D01*
X13396967Y-14941436D02*
X13387444Y-14950960D01*
X13387444Y-14950960D02*
X13368396Y-14960484D01*
X13368396Y-14960484D02*
X13349348Y-14960484D01*
X13349348Y-14960484D02*
X13330301Y-14950960D01*
X13330301Y-14950960D02*
X13320777Y-14941436D01*
X13320777Y-14941436D02*
X13311253Y-14922388D01*
X13311253Y-14922388D02*
X13301729Y-14884293D01*
X13301729Y-14884293D02*
X13301729Y-14836674D01*
X13301729Y-14836674D02*
X13311253Y-14798579D01*
X13311253Y-14798579D02*
X13320777Y-14779531D01*
X13320777Y-14779531D02*
X13330301Y-14770008D01*
X13330301Y-14770008D02*
X13349348Y-14760484D01*
X13596967Y-14760484D02*
X13501729Y-14760484D01*
X13501729Y-14760484D02*
X13492206Y-14855722D01*
X13492206Y-14855722D02*
X13501729Y-14846198D01*
X13501729Y-14846198D02*
X13520777Y-14836674D01*
X13520777Y-14836674D02*
X13568396Y-14836674D01*
X13568396Y-14836674D02*
X13587444Y-14846198D01*
X13587444Y-14846198D02*
X13596967Y-14855722D01*
X13596967Y-14855722D02*
X13606491Y-14874769D01*
X13606491Y-14874769D02*
X13606491Y-14922388D01*
X13606491Y-14922388D02*
X13596967Y-14941436D01*
X13596967Y-14941436D02*
X13587444Y-14950960D01*
X13587444Y-14950960D02*
X13568396Y-14960484D01*
X13568396Y-14960484D02*
X13520777Y-14960484D01*
X13520777Y-14960484D02*
X13501729Y-14950960D01*
X13501729Y-14950960D02*
X13492206Y-14941436D01*
X13796967Y-14960484D02*
X13682682Y-14960484D01*
X13739825Y-14960484D02*
X13739825Y-14760484D01*
X13739825Y-14760484D02*
X13720777Y-14789055D01*
X13720777Y-14789055D02*
X13701729Y-14808103D01*
X13701729Y-14808103D02*
X13682682Y-14817627D01*
X13873158Y-14779531D02*
X13882682Y-14770008D01*
X13882682Y-14770008D02*
X13901729Y-14760484D01*
X13901729Y-14760484D02*
X13949348Y-14760484D01*
X13949348Y-14760484D02*
X13968396Y-14770008D01*
X13968396Y-14770008D02*
X13977920Y-14779531D01*
X13977920Y-14779531D02*
X13987444Y-14798579D01*
X13987444Y-14798579D02*
X13987444Y-14817627D01*
X13987444Y-14817627D02*
X13977920Y-14846198D01*
X13977920Y-14846198D02*
X13863634Y-14960484D01*
X13863634Y-14960484D02*
X13987444Y-14960484D01*
X14063634Y-14760484D02*
X14063634Y-14798579D01*
X14139825Y-14760484D02*
X14139825Y-14798579D01*
X14435063Y-15036674D02*
X14425539Y-15027150D01*
X14425539Y-15027150D02*
X14406491Y-14998579D01*
X14406491Y-14998579D02*
X14396968Y-14979531D01*
X14396968Y-14979531D02*
X14387444Y-14950960D01*
X14387444Y-14950960D02*
X14377920Y-14903341D01*
X14377920Y-14903341D02*
X14377920Y-14865246D01*
X14377920Y-14865246D02*
X14387444Y-14817627D01*
X14387444Y-14817627D02*
X14396968Y-14789055D01*
X14396968Y-14789055D02*
X14406491Y-14770008D01*
X14406491Y-14770008D02*
X14425539Y-14741436D01*
X14425539Y-14741436D02*
X14435063Y-14731912D01*
X14492206Y-14760484D02*
X14616015Y-14760484D01*
X14616015Y-14760484D02*
X14549348Y-14836674D01*
X14549348Y-14836674D02*
X14577920Y-14836674D01*
X14577920Y-14836674D02*
X14596968Y-14846198D01*
X14596968Y-14846198D02*
X14606491Y-14855722D01*
X14606491Y-14855722D02*
X14616015Y-14874769D01*
X14616015Y-14874769D02*
X14616015Y-14922388D01*
X14616015Y-14922388D02*
X14606491Y-14941436D01*
X14606491Y-14941436D02*
X14596968Y-14950960D01*
X14596968Y-14950960D02*
X14577920Y-14960484D01*
X14577920Y-14960484D02*
X14520777Y-14960484D01*
X14520777Y-14960484D02*
X14501729Y-14950960D01*
X14501729Y-14950960D02*
X14492206Y-14941436D01*
X14854110Y-14960484D02*
X14854110Y-14760484D01*
X14939825Y-14960484D02*
X14939825Y-14855722D01*
X14939825Y-14855722D02*
X14930301Y-14836674D01*
X14930301Y-14836674D02*
X14911253Y-14827150D01*
X14911253Y-14827150D02*
X14882682Y-14827150D01*
X14882682Y-14827150D02*
X14863634Y-14836674D01*
X14863634Y-14836674D02*
X14854110Y-14846198D01*
X15063634Y-14960484D02*
X15044587Y-14950960D01*
X15044587Y-14950960D02*
X15035063Y-14941436D01*
X15035063Y-14941436D02*
X15025539Y-14922388D01*
X15025539Y-14922388D02*
X15025539Y-14865246D01*
X15025539Y-14865246D02*
X15035063Y-14846198D01*
X15035063Y-14846198D02*
X15044587Y-14836674D01*
X15044587Y-14836674D02*
X15063634Y-14827150D01*
X15063634Y-14827150D02*
X15092206Y-14827150D01*
X15092206Y-14827150D02*
X15111253Y-14836674D01*
X15111253Y-14836674D02*
X15120777Y-14846198D01*
X15120777Y-14846198D02*
X15130301Y-14865246D01*
X15130301Y-14865246D02*
X15130301Y-14922388D01*
X15130301Y-14922388D02*
X15120777Y-14941436D01*
X15120777Y-14941436D02*
X15111253Y-14950960D01*
X15111253Y-14950960D02*
X15092206Y-14960484D01*
X15092206Y-14960484D02*
X15063634Y-14960484D01*
X15244587Y-14960484D02*
X15225539Y-14950960D01*
X15225539Y-14950960D02*
X15216015Y-14931912D01*
X15216015Y-14931912D02*
X15216015Y-14760484D01*
X15396968Y-14950960D02*
X15377920Y-14960484D01*
X15377920Y-14960484D02*
X15339825Y-14960484D01*
X15339825Y-14960484D02*
X15320777Y-14950960D01*
X15320777Y-14950960D02*
X15311253Y-14931912D01*
X15311253Y-14931912D02*
X15311253Y-14855722D01*
X15311253Y-14855722D02*
X15320777Y-14836674D01*
X15320777Y-14836674D02*
X15339825Y-14827150D01*
X15339825Y-14827150D02*
X15377920Y-14827150D01*
X15377920Y-14827150D02*
X15396968Y-14836674D01*
X15396968Y-14836674D02*
X15406491Y-14855722D01*
X15406491Y-14855722D02*
X15406491Y-14874769D01*
X15406491Y-14874769D02*
X15311253Y-14893817D01*
X15482682Y-14950960D02*
X15501730Y-14960484D01*
X15501730Y-14960484D02*
X15539825Y-14960484D01*
X15539825Y-14960484D02*
X15558872Y-14950960D01*
X15558872Y-14950960D02*
X15568396Y-14931912D01*
X15568396Y-14931912D02*
X15568396Y-14922388D01*
X15568396Y-14922388D02*
X15558872Y-14903341D01*
X15558872Y-14903341D02*
X15539825Y-14893817D01*
X15539825Y-14893817D02*
X15511253Y-14893817D01*
X15511253Y-14893817D02*
X15492206Y-14884293D01*
X15492206Y-14884293D02*
X15482682Y-14865246D01*
X15482682Y-14865246D02*
X15482682Y-14855722D01*
X15482682Y-14855722D02*
X15492206Y-14836674D01*
X15492206Y-14836674D02*
X15511253Y-14827150D01*
X15511253Y-14827150D02*
X15539825Y-14827150D01*
X15539825Y-14827150D02*
X15558872Y-14836674D01*
X15635063Y-15036674D02*
X15644587Y-15027150D01*
X15644587Y-15027150D02*
X15663634Y-14998579D01*
X15663634Y-14998579D02*
X15673158Y-14979531D01*
X15673158Y-14979531D02*
X15682682Y-14950960D01*
X15682682Y-14950960D02*
X15692206Y-14903341D01*
X15692206Y-14903341D02*
X15692206Y-14865246D01*
X15692206Y-14865246D02*
X15682682Y-14817627D01*
X15682682Y-14817627D02*
X15673158Y-14789055D01*
X15673158Y-14789055D02*
X15663634Y-14770008D01*
X15663634Y-14770008D02*
X15644587Y-14741436D01*
X15644587Y-14741436D02*
X15635063Y-14731912D01*
D13*
X10700000Y-15053000D02*
X10860000Y-15213000D01*
X10860000Y-15053000D02*
X10700000Y-15213000D01*
X10780000Y-15053000D02*
X10780000Y-15213000D01*
X10700000Y-15133000D02*
X10860000Y-15133000D01*
D10*
X11225539Y-15224484D02*
X11111253Y-15224484D01*
X11168396Y-15224484D02*
X11168396Y-15024484D01*
X11168396Y-15024484D02*
X11149348Y-15053055D01*
X11149348Y-15053055D02*
X11130301Y-15072103D01*
X11130301Y-15072103D02*
X11111253Y-15081627D01*
X11311253Y-15205436D02*
X11320777Y-15214960D01*
X11320777Y-15214960D02*
X11311253Y-15224484D01*
X11311253Y-15224484D02*
X11301729Y-15214960D01*
X11301729Y-15214960D02*
X11311253Y-15205436D01*
X11311253Y-15205436D02*
X11311253Y-15224484D01*
X11492205Y-15024484D02*
X11454110Y-15024484D01*
X11454110Y-15024484D02*
X11435062Y-15034008D01*
X11435062Y-15034008D02*
X11425539Y-15043531D01*
X11425539Y-15043531D02*
X11406491Y-15072103D01*
X11406491Y-15072103D02*
X11396967Y-15110198D01*
X11396967Y-15110198D02*
X11396967Y-15186388D01*
X11396967Y-15186388D02*
X11406491Y-15205436D01*
X11406491Y-15205436D02*
X11416015Y-15214960D01*
X11416015Y-15214960D02*
X11435062Y-15224484D01*
X11435062Y-15224484D02*
X11473158Y-15224484D01*
X11473158Y-15224484D02*
X11492205Y-15214960D01*
X11492205Y-15214960D02*
X11501729Y-15205436D01*
X11501729Y-15205436D02*
X11511253Y-15186388D01*
X11511253Y-15186388D02*
X11511253Y-15138769D01*
X11511253Y-15138769D02*
X11501729Y-15119722D01*
X11501729Y-15119722D02*
X11492205Y-15110198D01*
X11492205Y-15110198D02*
X11473158Y-15100674D01*
X11473158Y-15100674D02*
X11435062Y-15100674D01*
X11435062Y-15100674D02*
X11416015Y-15110198D01*
X11416015Y-15110198D02*
X11406491Y-15119722D01*
X11406491Y-15119722D02*
X11396967Y-15138769D01*
X11635062Y-15024484D02*
X11654110Y-15024484D01*
X11654110Y-15024484D02*
X11673158Y-15034008D01*
X11673158Y-15034008D02*
X11682682Y-15043531D01*
X11682682Y-15043531D02*
X11692205Y-15062579D01*
X11692205Y-15062579D02*
X11701729Y-15100674D01*
X11701729Y-15100674D02*
X11701729Y-15148293D01*
X11701729Y-15148293D02*
X11692205Y-15186388D01*
X11692205Y-15186388D02*
X11682682Y-15205436D01*
X11682682Y-15205436D02*
X11673158Y-15214960D01*
X11673158Y-15214960D02*
X11654110Y-15224484D01*
X11654110Y-15224484D02*
X11635062Y-15224484D01*
X11635062Y-15224484D02*
X11616015Y-15214960D01*
X11616015Y-15214960D02*
X11606491Y-15205436D01*
X11606491Y-15205436D02*
X11596967Y-15186388D01*
X11596967Y-15186388D02*
X11587443Y-15148293D01*
X11587443Y-15148293D02*
X11587443Y-15100674D01*
X11587443Y-15100674D02*
X11596967Y-15062579D01*
X11596967Y-15062579D02*
X11606491Y-15043531D01*
X11606491Y-15043531D02*
X11616015Y-15034008D01*
X11616015Y-15034008D02*
X11635062Y-15024484D01*
X11825539Y-15024484D02*
X11844586Y-15024484D01*
X11844586Y-15024484D02*
X11863634Y-15034008D01*
X11863634Y-15034008D02*
X11873158Y-15043531D01*
X11873158Y-15043531D02*
X11882682Y-15062579D01*
X11882682Y-15062579D02*
X11892205Y-15100674D01*
X11892205Y-15100674D02*
X11892205Y-15148293D01*
X11892205Y-15148293D02*
X11882682Y-15186388D01*
X11882682Y-15186388D02*
X11873158Y-15205436D01*
X11873158Y-15205436D02*
X11863634Y-15214960D01*
X11863634Y-15214960D02*
X11844586Y-15224484D01*
X11844586Y-15224484D02*
X11825539Y-15224484D01*
X11825539Y-15224484D02*
X11806491Y-15214960D01*
X11806491Y-15214960D02*
X11796967Y-15205436D01*
X11796967Y-15205436D02*
X11787443Y-15186388D01*
X11787443Y-15186388D02*
X11777920Y-15148293D01*
X11777920Y-15148293D02*
X11777920Y-15100674D01*
X11777920Y-15100674D02*
X11787443Y-15062579D01*
X11787443Y-15062579D02*
X11796967Y-15043531D01*
X11796967Y-15043531D02*
X11806491Y-15034008D01*
X11806491Y-15034008D02*
X11825539Y-15024484D01*
X11977920Y-15224484D02*
X11977920Y-15091150D01*
X11977920Y-15110198D02*
X11987443Y-15100674D01*
X11987443Y-15100674D02*
X12006491Y-15091150D01*
X12006491Y-15091150D02*
X12035063Y-15091150D01*
X12035063Y-15091150D02*
X12054110Y-15100674D01*
X12054110Y-15100674D02*
X12063634Y-15119722D01*
X12063634Y-15119722D02*
X12063634Y-15224484D01*
X12063634Y-15119722D02*
X12073158Y-15100674D01*
X12073158Y-15100674D02*
X12092205Y-15091150D01*
X12092205Y-15091150D02*
X12120777Y-15091150D01*
X12120777Y-15091150D02*
X12139824Y-15100674D01*
X12139824Y-15100674D02*
X12149348Y-15119722D01*
X12149348Y-15119722D02*
X12149348Y-15224484D01*
X12244586Y-15224484D02*
X12244586Y-15091150D01*
X12244586Y-15110198D02*
X12254110Y-15100674D01*
X12254110Y-15100674D02*
X12273158Y-15091150D01*
X12273158Y-15091150D02*
X12301729Y-15091150D01*
X12301729Y-15091150D02*
X12320777Y-15100674D01*
X12320777Y-15100674D02*
X12330301Y-15119722D01*
X12330301Y-15119722D02*
X12330301Y-15224484D01*
X12330301Y-15119722D02*
X12339824Y-15100674D01*
X12339824Y-15100674D02*
X12358872Y-15091150D01*
X12358872Y-15091150D02*
X12387443Y-15091150D01*
X12387443Y-15091150D02*
X12406491Y-15100674D01*
X12406491Y-15100674D02*
X12416015Y-15119722D01*
X12416015Y-15119722D02*
X12416015Y-15224484D01*
X12806491Y-15014960D02*
X12635063Y-15272103D01*
X13063634Y-15024484D02*
X13082682Y-15024484D01*
X13082682Y-15024484D02*
X13101729Y-15034008D01*
X13101729Y-15034008D02*
X13111253Y-15043531D01*
X13111253Y-15043531D02*
X13120777Y-15062579D01*
X13120777Y-15062579D02*
X13130301Y-15100674D01*
X13130301Y-15100674D02*
X13130301Y-15148293D01*
X13130301Y-15148293D02*
X13120777Y-15186388D01*
X13120777Y-15186388D02*
X13111253Y-15205436D01*
X13111253Y-15205436D02*
X13101729Y-15214960D01*
X13101729Y-15214960D02*
X13082682Y-15224484D01*
X13082682Y-15224484D02*
X13063634Y-15224484D01*
X13063634Y-15224484D02*
X13044586Y-15214960D01*
X13044586Y-15214960D02*
X13035063Y-15205436D01*
X13035063Y-15205436D02*
X13025539Y-15186388D01*
X13025539Y-15186388D02*
X13016015Y-15148293D01*
X13016015Y-15148293D02*
X13016015Y-15100674D01*
X13016015Y-15100674D02*
X13025539Y-15062579D01*
X13025539Y-15062579D02*
X13035063Y-15043531D01*
X13035063Y-15043531D02*
X13044586Y-15034008D01*
X13044586Y-15034008D02*
X13063634Y-15024484D01*
X13216015Y-15205436D02*
X13225539Y-15214960D01*
X13225539Y-15214960D02*
X13216015Y-15224484D01*
X13216015Y-15224484D02*
X13206491Y-15214960D01*
X13206491Y-15214960D02*
X13216015Y-15205436D01*
X13216015Y-15205436D02*
X13216015Y-15224484D01*
X13349348Y-15024484D02*
X13368396Y-15024484D01*
X13368396Y-15024484D02*
X13387444Y-15034008D01*
X13387444Y-15034008D02*
X13396967Y-15043531D01*
X13396967Y-15043531D02*
X13406491Y-15062579D01*
X13406491Y-15062579D02*
X13416015Y-15100674D01*
X13416015Y-15100674D02*
X13416015Y-15148293D01*
X13416015Y-15148293D02*
X13406491Y-15186388D01*
X13406491Y-15186388D02*
X13396967Y-15205436D01*
X13396967Y-15205436D02*
X13387444Y-15214960D01*
X13387444Y-15214960D02*
X13368396Y-15224484D01*
X13368396Y-15224484D02*
X13349348Y-15224484D01*
X13349348Y-15224484D02*
X13330301Y-15214960D01*
X13330301Y-15214960D02*
X13320777Y-15205436D01*
X13320777Y-15205436D02*
X13311253Y-15186388D01*
X13311253Y-15186388D02*
X13301729Y-15148293D01*
X13301729Y-15148293D02*
X13301729Y-15100674D01*
X13301729Y-15100674D02*
X13311253Y-15062579D01*
X13311253Y-15062579D02*
X13320777Y-15043531D01*
X13320777Y-15043531D02*
X13330301Y-15034008D01*
X13330301Y-15034008D02*
X13349348Y-15024484D01*
X13587444Y-15024484D02*
X13549348Y-15024484D01*
X13549348Y-15024484D02*
X13530301Y-15034008D01*
X13530301Y-15034008D02*
X13520777Y-15043531D01*
X13520777Y-15043531D02*
X13501729Y-15072103D01*
X13501729Y-15072103D02*
X13492206Y-15110198D01*
X13492206Y-15110198D02*
X13492206Y-15186388D01*
X13492206Y-15186388D02*
X13501729Y-15205436D01*
X13501729Y-15205436D02*
X13511253Y-15214960D01*
X13511253Y-15214960D02*
X13530301Y-15224484D01*
X13530301Y-15224484D02*
X13568396Y-15224484D01*
X13568396Y-15224484D02*
X13587444Y-15214960D01*
X13587444Y-15214960D02*
X13596967Y-15205436D01*
X13596967Y-15205436D02*
X13606491Y-15186388D01*
X13606491Y-15186388D02*
X13606491Y-15138769D01*
X13606491Y-15138769D02*
X13596967Y-15119722D01*
X13596967Y-15119722D02*
X13587444Y-15110198D01*
X13587444Y-15110198D02*
X13568396Y-15100674D01*
X13568396Y-15100674D02*
X13530301Y-15100674D01*
X13530301Y-15100674D02*
X13511253Y-15110198D01*
X13511253Y-15110198D02*
X13501729Y-15119722D01*
X13501729Y-15119722D02*
X13492206Y-15138769D01*
X13673158Y-15024484D02*
X13796967Y-15024484D01*
X13796967Y-15024484D02*
X13730301Y-15100674D01*
X13730301Y-15100674D02*
X13758872Y-15100674D01*
X13758872Y-15100674D02*
X13777920Y-15110198D01*
X13777920Y-15110198D02*
X13787444Y-15119722D01*
X13787444Y-15119722D02*
X13796967Y-15138769D01*
X13796967Y-15138769D02*
X13796967Y-15186388D01*
X13796967Y-15186388D02*
X13787444Y-15205436D01*
X13787444Y-15205436D02*
X13777920Y-15214960D01*
X13777920Y-15214960D02*
X13758872Y-15224484D01*
X13758872Y-15224484D02*
X13701729Y-15224484D01*
X13701729Y-15224484D02*
X13682682Y-15214960D01*
X13682682Y-15214960D02*
X13673158Y-15205436D01*
X13920777Y-15024484D02*
X13939825Y-15024484D01*
X13939825Y-15024484D02*
X13958872Y-15034008D01*
X13958872Y-15034008D02*
X13968396Y-15043531D01*
X13968396Y-15043531D02*
X13977920Y-15062579D01*
X13977920Y-15062579D02*
X13987444Y-15100674D01*
X13987444Y-15100674D02*
X13987444Y-15148293D01*
X13987444Y-15148293D02*
X13977920Y-15186388D01*
X13977920Y-15186388D02*
X13968396Y-15205436D01*
X13968396Y-15205436D02*
X13958872Y-15214960D01*
X13958872Y-15214960D02*
X13939825Y-15224484D01*
X13939825Y-15224484D02*
X13920777Y-15224484D01*
X13920777Y-15224484D02*
X13901729Y-15214960D01*
X13901729Y-15214960D02*
X13892206Y-15205436D01*
X13892206Y-15205436D02*
X13882682Y-15186388D01*
X13882682Y-15186388D02*
X13873158Y-15148293D01*
X13873158Y-15148293D02*
X13873158Y-15100674D01*
X13873158Y-15100674D02*
X13882682Y-15062579D01*
X13882682Y-15062579D02*
X13892206Y-15043531D01*
X13892206Y-15043531D02*
X13901729Y-15034008D01*
X13901729Y-15034008D02*
X13920777Y-15024484D01*
X14063634Y-15024484D02*
X14063634Y-15062579D01*
X14139825Y-15024484D02*
X14139825Y-15062579D01*
X14435063Y-15300674D02*
X14425539Y-15291150D01*
X14425539Y-15291150D02*
X14406491Y-15262579D01*
X14406491Y-15262579D02*
X14396968Y-15243531D01*
X14396968Y-15243531D02*
X14387444Y-15214960D01*
X14387444Y-15214960D02*
X14377920Y-15167341D01*
X14377920Y-15167341D02*
X14377920Y-15129246D01*
X14377920Y-15129246D02*
X14387444Y-15081627D01*
X14387444Y-15081627D02*
X14396968Y-15053055D01*
X14396968Y-15053055D02*
X14406491Y-15034008D01*
X14406491Y-15034008D02*
X14425539Y-15005436D01*
X14425539Y-15005436D02*
X14435063Y-14995912D01*
X14492206Y-15024484D02*
X14616015Y-15024484D01*
X14616015Y-15024484D02*
X14549348Y-15100674D01*
X14549348Y-15100674D02*
X14577920Y-15100674D01*
X14577920Y-15100674D02*
X14596968Y-15110198D01*
X14596968Y-15110198D02*
X14606491Y-15119722D01*
X14606491Y-15119722D02*
X14616015Y-15138769D01*
X14616015Y-15138769D02*
X14616015Y-15186388D01*
X14616015Y-15186388D02*
X14606491Y-15205436D01*
X14606491Y-15205436D02*
X14596968Y-15214960D01*
X14596968Y-15214960D02*
X14577920Y-15224484D01*
X14577920Y-15224484D02*
X14520777Y-15224484D01*
X14520777Y-15224484D02*
X14501729Y-15214960D01*
X14501729Y-15214960D02*
X14492206Y-15205436D01*
X14854110Y-15224484D02*
X14854110Y-15024484D01*
X14939825Y-15224484D02*
X14939825Y-15119722D01*
X14939825Y-15119722D02*
X14930301Y-15100674D01*
X14930301Y-15100674D02*
X14911253Y-15091150D01*
X14911253Y-15091150D02*
X14882682Y-15091150D01*
X14882682Y-15091150D02*
X14863634Y-15100674D01*
X14863634Y-15100674D02*
X14854110Y-15110198D01*
X15063634Y-15224484D02*
X15044587Y-15214960D01*
X15044587Y-15214960D02*
X15035063Y-15205436D01*
X15035063Y-15205436D02*
X15025539Y-15186388D01*
X15025539Y-15186388D02*
X15025539Y-15129246D01*
X15025539Y-15129246D02*
X15035063Y-15110198D01*
X15035063Y-15110198D02*
X15044587Y-15100674D01*
X15044587Y-15100674D02*
X15063634Y-15091150D01*
X15063634Y-15091150D02*
X15092206Y-15091150D01*
X15092206Y-15091150D02*
X15111253Y-15100674D01*
X15111253Y-15100674D02*
X15120777Y-15110198D01*
X15120777Y-15110198D02*
X15130301Y-15129246D01*
X15130301Y-15129246D02*
X15130301Y-15186388D01*
X15130301Y-15186388D02*
X15120777Y-15205436D01*
X15120777Y-15205436D02*
X15111253Y-15214960D01*
X15111253Y-15214960D02*
X15092206Y-15224484D01*
X15092206Y-15224484D02*
X15063634Y-15224484D01*
X15244587Y-15224484D02*
X15225539Y-15214960D01*
X15225539Y-15214960D02*
X15216015Y-15195912D01*
X15216015Y-15195912D02*
X15216015Y-15024484D01*
X15396968Y-15214960D02*
X15377920Y-15224484D01*
X15377920Y-15224484D02*
X15339825Y-15224484D01*
X15339825Y-15224484D02*
X15320777Y-15214960D01*
X15320777Y-15214960D02*
X15311253Y-15195912D01*
X15311253Y-15195912D02*
X15311253Y-15119722D01*
X15311253Y-15119722D02*
X15320777Y-15100674D01*
X15320777Y-15100674D02*
X15339825Y-15091150D01*
X15339825Y-15091150D02*
X15377920Y-15091150D01*
X15377920Y-15091150D02*
X15396968Y-15100674D01*
X15396968Y-15100674D02*
X15406491Y-15119722D01*
X15406491Y-15119722D02*
X15406491Y-15138769D01*
X15406491Y-15138769D02*
X15311253Y-15157817D01*
X15482682Y-15214960D02*
X15501730Y-15224484D01*
X15501730Y-15224484D02*
X15539825Y-15224484D01*
X15539825Y-15224484D02*
X15558872Y-15214960D01*
X15558872Y-15214960D02*
X15568396Y-15195912D01*
X15568396Y-15195912D02*
X15568396Y-15186388D01*
X15568396Y-15186388D02*
X15558872Y-15167341D01*
X15558872Y-15167341D02*
X15539825Y-15157817D01*
X15539825Y-15157817D02*
X15511253Y-15157817D01*
X15511253Y-15157817D02*
X15492206Y-15148293D01*
X15492206Y-15148293D02*
X15482682Y-15129246D01*
X15482682Y-15129246D02*
X15482682Y-15119722D01*
X15482682Y-15119722D02*
X15492206Y-15100674D01*
X15492206Y-15100674D02*
X15511253Y-15091150D01*
X15511253Y-15091150D02*
X15539825Y-15091150D01*
X15539825Y-15091150D02*
X15558872Y-15100674D01*
X15635063Y-15300674D02*
X15644587Y-15291150D01*
X15644587Y-15291150D02*
X15663634Y-15262579D01*
X15663634Y-15262579D02*
X15673158Y-15243531D01*
X15673158Y-15243531D02*
X15682682Y-15214960D01*
X15682682Y-15214960D02*
X15692206Y-15167341D01*
X15692206Y-15167341D02*
X15692206Y-15129246D01*
X15692206Y-15129246D02*
X15682682Y-15081627D01*
X15682682Y-15081627D02*
X15673158Y-15053055D01*
X15673158Y-15053055D02*
X15663634Y-15034008D01*
X15663634Y-15034008D02*
X15644587Y-15005436D01*
X15644587Y-15005436D02*
X15635063Y-14995912D01*
M02*
