G04 #@! TF.GenerationSoftware,KiCad,Pcbnew,8.0.2*
G04 #@! TF.CreationDate,2024-06-10T19:24:07+08:00*
G04 #@! TF.ProjectId,pppc_usb_hub,70707063-5f75-4736-925f-6875622e6b69,Rev3*
G04 #@! TF.SameCoordinates,Original*
G04 #@! TF.FileFunction,Soldermask,Top*
G04 #@! TF.FilePolarity,Negative*
%FSLAX46Y46*%
G04 Gerber Fmt 4.6, Leading zero omitted, Abs format (unit mm)*
G04 Created by KiCad (PCBNEW 8.0.2) date 2024-06-10 19:24:07*
%MOMM*%
%LPD*%
G01*
G04 APERTURE LIST*
G04 Aperture macros list*
%AMRoundRect*
0 Rectangle with rounded corners*
0 $1 Rounding radius*
0 $2 $3 $4 $5 $6 $7 $8 $9 X,Y pos of 4 corners*
0 Add a 4 corners polygon primitive as box body*
4,1,4,$2,$3,$4,$5,$6,$7,$8,$9,$2,$3,0*
0 Add four circle primitives for the rounded corners*
1,1,$1+$1,$2,$3*
1,1,$1+$1,$4,$5*
1,1,$1+$1,$6,$7*
1,1,$1+$1,$8,$9*
0 Add four rect primitives between the rounded corners*
20,1,$1+$1,$2,$3,$4,$5,0*
20,1,$1+$1,$4,$5,$6,$7,0*
20,1,$1+$1,$6,$7,$8,$9,0*
20,1,$1+$1,$8,$9,$2,$3,0*%
G04 Aperture macros list end*
%ADD10RoundRect,0.225000X0.225000X0.250000X-0.225000X0.250000X-0.225000X-0.250000X0.225000X-0.250000X0*%
%ADD11RoundRect,0.200000X0.200000X0.275000X-0.200000X0.275000X-0.200000X-0.275000X0.200000X-0.275000X0*%
%ADD12RoundRect,0.050000X-0.125000X0.600000X-0.125000X-0.600000X0.125000X-0.600000X0.125000X0.600000X0*%
%ADD13RoundRect,0.225000X0.250000X-0.225000X0.250000X0.225000X-0.250000X0.225000X-0.250000X-0.225000X0*%
%ADD14RoundRect,0.050800X-0.300000X0.550000X-0.300000X-0.550000X0.300000X-0.550000X0.300000X0.550000X0*%
%ADD15RoundRect,0.250000X0.300000X0.300000X-0.300000X0.300000X-0.300000X-0.300000X0.300000X-0.300000X0*%
%ADD16RoundRect,0.200000X0.275000X-0.200000X0.275000X0.200000X-0.275000X0.200000X-0.275000X-0.200000X0*%
%ADD17RoundRect,0.200000X-0.275000X0.200000X-0.275000X-0.200000X0.275000X-0.200000X0.275000X0.200000X0*%
%ADD18C,0.700000*%
%ADD19RoundRect,0.050000X0.275000X0.550000X-0.275000X0.550000X-0.275000X-0.550000X0.275000X-0.550000X0*%
%ADD20RoundRect,0.050000X0.150000X0.550000X-0.150000X0.550000X-0.150000X-0.550000X0.150000X-0.550000X0*%
%ADD21O,1.200000X2.100000*%
%ADD22O,1.300000X1.900000*%
%ADD23C,0.900000*%
%ADD24RoundRect,0.050800X-0.350000X-0.600000X0.350000X-0.600000X0.350000X0.600000X-0.350000X0.600000X0*%
%ADD25RoundRect,0.050800X-0.750000X-0.500000X0.750000X-0.500000X0.750000X0.500000X-0.750000X0.500000X0*%
%ADD26RoundRect,0.050800X-0.550000X-0.350000X0.550000X-0.350000X0.550000X0.350000X-0.550000X0.350000X0*%
%ADD27RoundRect,0.218750X-0.218750X-0.256250X0.218750X-0.256250X0.218750X0.256250X-0.218750X0.256250X0*%
%ADD28RoundRect,0.225000X-0.250000X0.225000X-0.250000X-0.225000X0.250000X-0.225000X0.250000X0.225000X0*%
%ADD29RoundRect,0.050000X0.800000X-0.800000X0.800000X0.800000X-0.800000X0.800000X-0.800000X-0.800000X0*%
%ADD30O,1.700000X1.700000*%
%ADD31O,2.900000X1.400000*%
%ADD32RoundRect,0.200000X-0.200000X-0.275000X0.200000X-0.275000X0.200000X0.275000X-0.200000X0.275000X0*%
%ADD33RoundRect,0.050800X-0.600000X0.700000X-0.600000X-0.700000X0.600000X-0.700000X0.600000X0.700000X0*%
%ADD34RoundRect,0.150000X-0.150000X0.587500X-0.150000X-0.587500X0.150000X-0.587500X0.150000X0.587500X0*%
%ADD35RoundRect,0.225000X-0.225000X-0.250000X0.225000X-0.250000X0.225000X0.250000X-0.225000X0.250000X0*%
%ADD36RoundRect,0.150000X-0.512500X-0.150000X0.512500X-0.150000X0.512500X0.150000X-0.512500X0.150000X0*%
%ADD37R,1.700000X1.700000*%
%ADD38RoundRect,0.375000X-0.375000X0.625000X-0.375000X-0.625000X0.375000X-0.625000X0.375000X0.625000X0*%
%ADD39RoundRect,0.500000X-1.400000X0.500000X-1.400000X-0.500000X1.400000X-0.500000X1.400000X0.500000X0*%
%ADD40RoundRect,0.050800X0.950000X0.750000X-0.950000X0.750000X-0.950000X-0.750000X0.950000X-0.750000X0*%
%ADD41C,2.500000*%
%ADD42C,3.000000*%
%ADD43O,3.301600X2.101600*%
%ADD44O,1.625600X1.625600*%
%ADD45RoundRect,0.250000X-1.500000X-0.550000X1.500000X-0.550000X1.500000X0.550000X-1.500000X0.550000X0*%
%ADD46RoundRect,0.150000X-0.587500X-0.150000X0.587500X-0.150000X0.587500X0.150000X-0.587500X0.150000X0*%
%ADD47RoundRect,0.100000X0.637500X0.100000X-0.637500X0.100000X-0.637500X-0.100000X0.637500X-0.100000X0*%
%ADD48RoundRect,0.250000X-0.550000X1.500000X-0.550000X-1.500000X0.550000X-1.500000X0.550000X1.500000X0*%
%ADD49O,2.501600X2.501600*%
%ADD50RoundRect,0.218750X0.218750X0.256250X-0.218750X0.256250X-0.218750X-0.256250X0.218750X-0.256250X0*%
%ADD51RoundRect,0.050800X0.700000X0.600000X-0.700000X0.600000X-0.700000X-0.600000X0.700000X-0.600000X0*%
%ADD52RoundRect,0.250000X0.425000X-0.450000X0.425000X0.450000X-0.425000X0.450000X-0.425000X-0.450000X0*%
%ADD53RoundRect,0.243750X-0.456250X0.243750X-0.456250X-0.243750X0.456250X-0.243750X0.456250X0.243750X0*%
%ADD54RoundRect,0.250000X-0.250000X-0.475000X0.250000X-0.475000X0.250000X0.475000X-0.250000X0.475000X0*%
%ADD55RoundRect,0.050800X0.350000X0.600000X-0.350000X0.600000X-0.350000X-0.600000X0.350000X-0.600000X0*%
%ADD56RoundRect,0.050800X0.750000X0.500000X-0.750000X0.500000X-0.750000X-0.500000X0.750000X-0.500000X0*%
%ADD57RoundRect,0.050800X0.550000X0.350000X-0.550000X0.350000X-0.550000X-0.350000X0.550000X-0.350000X0*%
G04 APERTURE END LIST*
D10*
X173850000Y-83963500D03*
X172300000Y-83963500D03*
D11*
X137725000Y-123900000D03*
X136075000Y-123900000D03*
D12*
X121955000Y-98099900D03*
X121424900Y-98099900D03*
X120895000Y-98099900D03*
X120364900Y-98099900D03*
X119835100Y-98099900D03*
X119305000Y-98099900D03*
X118774900Y-98099900D03*
X118245000Y-98099900D03*
X118245000Y-101700100D03*
X118774900Y-101700100D03*
X119305000Y-101700100D03*
X119835100Y-101700100D03*
X120364900Y-101700100D03*
X120895000Y-101700100D03*
X121424900Y-101700100D03*
X121955000Y-101700100D03*
D13*
X138200000Y-98675000D03*
X138200000Y-97125000D03*
D11*
X132574000Y-83300000D03*
X130924000Y-83300000D03*
D14*
X140488000Y-112399900D03*
X141438000Y-112399900D03*
X142388000Y-112399900D03*
X142388000Y-109799700D03*
X140488000Y-109799700D03*
D11*
X152850000Y-123900000D03*
X151200000Y-123900000D03*
D13*
X136600000Y-98675000D03*
X136600000Y-97125000D03*
D15*
X179197500Y-94200000D03*
X176397500Y-94200000D03*
D10*
X163525000Y-89600000D03*
X161975000Y-89600000D03*
D16*
X125800000Y-112399900D03*
X125800000Y-110749900D03*
D17*
X140600000Y-105325000D03*
X140600000Y-103675000D03*
D11*
X124135500Y-108100000D03*
X122485500Y-108100000D03*
D10*
X116375000Y-104800000D03*
X114825000Y-104800000D03*
D18*
X122988900Y-86293400D03*
X117208900Y-86293400D03*
D19*
X123299000Y-87363500D03*
X122498900Y-87363500D03*
D20*
X121848900Y-87363500D03*
X121348800Y-87363500D03*
X120848900Y-87363500D03*
X120349100Y-87363500D03*
X119848900Y-87363500D03*
X119349100Y-87363500D03*
X118848900Y-87363500D03*
X118348800Y-87363500D03*
D19*
X117698800Y-87363500D03*
X116899000Y-87363500D03*
D21*
X124424000Y-86813600D03*
D22*
X124424000Y-82613500D03*
D21*
X115774000Y-86813600D03*
D22*
X115774000Y-82613500D03*
D11*
X132574000Y-85000000D03*
X130924000Y-85000000D03*
D14*
X122474500Y-112399900D03*
X123424500Y-112399900D03*
X124374500Y-112399900D03*
X124374500Y-109799700D03*
X122474500Y-109799700D03*
D23*
X116100000Y-127275000D03*
D18*
X117400000Y-127275000D03*
X119100000Y-127275000D03*
D23*
X120400000Y-127275000D03*
D24*
X116549900Y-125975000D03*
X119949900Y-125975000D03*
D25*
X118249900Y-125675000D03*
D26*
X116149800Y-128225000D03*
X120350000Y-128225000D03*
D27*
X117482400Y-123900000D03*
X119057400Y-123900000D03*
D17*
X124200000Y-89175000D03*
X124200000Y-90825000D03*
D28*
X154000000Y-109799700D03*
X154000000Y-111349700D03*
D14*
X155488000Y-112399900D03*
X156438000Y-112399900D03*
X157388000Y-112399900D03*
X157388000Y-109799700D03*
X155488000Y-109799700D03*
D29*
X115774000Y-111099900D03*
D30*
X115774000Y-113600000D03*
X115774000Y-115600000D03*
X115774000Y-118099900D03*
D31*
X114273800Y-108150000D03*
X114273800Y-121049800D03*
D32*
X127624000Y-83300000D03*
X129274000Y-83300000D03*
D33*
X114732784Y-98926800D03*
X114732784Y-101127000D03*
X116482784Y-101127000D03*
X116482784Y-98926800D03*
D17*
X139000000Y-105325000D03*
X139000000Y-103675000D03*
D34*
X173450000Y-92125000D03*
X171550000Y-92125000D03*
X172500000Y-94000000D03*
D11*
X112937500Y-83800000D03*
X111287500Y-83800000D03*
D16*
X175300000Y-91425000D03*
X175300000Y-89775000D03*
D35*
X149125000Y-92000000D03*
X150675000Y-92000000D03*
D11*
X122225000Y-123900000D03*
X120575000Y-123900000D03*
D16*
X143800000Y-112399900D03*
X143800000Y-110749900D03*
D36*
X126162500Y-88250000D03*
X126162500Y-89200000D03*
X126162500Y-90150000D03*
X128437500Y-90150000D03*
X128437500Y-89200000D03*
X128437500Y-88250000D03*
D10*
X116375000Y-103000000D03*
X114825000Y-103000000D03*
D28*
X145100000Y-126225000D03*
X145100000Y-127775000D03*
D37*
X163800000Y-109480000D03*
D30*
X163800000Y-112020000D03*
X163800000Y-114560000D03*
X163800000Y-117100000D03*
X163800000Y-119640000D03*
D38*
X153800000Y-94500000D03*
X151500000Y-94500000D03*
D39*
X151500000Y-100800000D03*
D38*
X149200000Y-94500000D03*
D40*
X166750000Y-86550000D03*
X158750000Y-86550000D03*
D41*
X183770000Y-102150000D03*
D42*
X183820000Y-114400000D03*
X171770000Y-114350000D03*
D41*
X171770000Y-102150000D03*
D42*
X177820000Y-100200000D03*
D43*
X134273800Y-108029900D03*
X134273800Y-121169900D03*
D44*
X131773600Y-111099800D03*
X131773600Y-113599100D03*
X131773600Y-115600700D03*
X131773600Y-118100000D03*
D45*
X148600000Y-86600000D03*
X154000000Y-86600000D03*
D46*
X132162500Y-88250000D03*
X132162500Y-90150000D03*
X134037500Y-89200000D03*
D28*
X121000000Y-109799700D03*
X121000000Y-111349700D03*
X130100000Y-126225000D03*
X130100000Y-127775000D03*
D13*
X127300000Y-105375000D03*
X127300000Y-103825000D03*
D27*
X133056500Y-123900000D03*
X134631500Y-123900000D03*
D28*
X133200000Y-103825000D03*
X133200000Y-105375000D03*
D47*
X133062500Y-101725000D03*
X133062500Y-101075000D03*
X133062500Y-100425000D03*
X133062500Y-99775000D03*
X133062500Y-99125000D03*
X133062500Y-98475000D03*
X133062500Y-97825000D03*
X133062500Y-97175000D03*
X133062500Y-96525000D03*
X133062500Y-95875000D03*
X127337500Y-95875000D03*
X127337500Y-96525000D03*
X127337500Y-97175000D03*
X127337500Y-97825000D03*
X127337500Y-98475000D03*
X127337500Y-99125000D03*
X127337500Y-99775000D03*
X127337500Y-100425000D03*
X127337500Y-101075000D03*
X127337500Y-101725000D03*
D28*
X139000000Y-109799700D03*
X139000000Y-111349700D03*
D48*
X156324000Y-115699900D03*
X156324000Y-121099900D03*
D49*
X172740000Y-123800000D03*
X177820000Y-123800000D03*
X182900000Y-123800000D03*
D35*
X114825000Y-97000000D03*
X116375000Y-97000000D03*
D11*
X142125000Y-108100000D03*
X140475000Y-108100000D03*
D44*
X146773600Y-118100000D03*
X146773600Y-115600700D03*
X146773600Y-113599100D03*
X146773600Y-111099800D03*
D43*
X149273800Y-121169900D03*
X149273800Y-108029900D03*
D11*
X157125000Y-108100000D03*
X155475000Y-108100000D03*
X178645000Y-89700000D03*
X176995000Y-89700000D03*
D50*
X112887500Y-85600000D03*
X111312500Y-85600000D03*
D13*
X125400000Y-98675000D03*
X125400000Y-97125000D03*
D23*
X146674100Y-127275000D03*
D18*
X147974100Y-127275000D03*
X149674100Y-127275000D03*
D23*
X150974100Y-127275000D03*
D24*
X147124000Y-125975000D03*
X150524000Y-125975000D03*
D25*
X148824000Y-125675000D03*
D26*
X146723900Y-128225000D03*
X150924100Y-128225000D03*
D51*
X131360700Y-103700000D03*
X129160500Y-103700000D03*
X129160500Y-105450000D03*
X131360700Y-105450000D03*
D52*
X146400000Y-97050000D03*
X146400000Y-94350000D03*
D16*
X130265000Y-89325000D03*
X130265000Y-87675000D03*
D32*
X127624000Y-85000000D03*
X129274000Y-85000000D03*
D48*
X123310500Y-115699900D03*
X123310500Y-121099900D03*
D50*
X178587500Y-91400000D03*
X177012500Y-91400000D03*
D27*
X148056500Y-123900000D03*
X149631500Y-123900000D03*
D18*
X142988900Y-86293400D03*
X137208900Y-86293400D03*
D19*
X143299000Y-87363500D03*
X142498900Y-87363500D03*
D20*
X141848900Y-87363500D03*
X141348800Y-87363500D03*
X140848900Y-87363500D03*
X140349100Y-87363500D03*
X139848900Y-87363500D03*
X139349100Y-87363500D03*
X138848900Y-87363500D03*
X138348800Y-87363500D03*
D19*
X137698800Y-87363500D03*
X136899000Y-87363500D03*
D21*
X144424000Y-86813600D03*
D22*
X144424000Y-82613500D03*
D21*
X135774000Y-86813600D03*
D22*
X135774000Y-82613500D03*
D53*
X117100000Y-89162500D03*
X117100000Y-91037500D03*
D54*
X140250000Y-91037500D03*
X142150000Y-91037500D03*
D11*
X178625000Y-86100000D03*
X176975000Y-86100000D03*
D28*
X118200000Y-103325000D03*
X118200000Y-104875000D03*
D13*
X135000000Y-98675000D03*
X135000000Y-97125000D03*
D37*
X148420000Y-104200000D03*
D30*
X150960000Y-104200000D03*
X153500000Y-104200000D03*
D23*
X179949900Y-82663500D03*
D18*
X178649900Y-82663500D03*
X176949900Y-82663500D03*
D23*
X175649900Y-82663500D03*
D55*
X179500000Y-83963500D03*
X176100000Y-83963500D03*
D56*
X177800000Y-84263500D03*
D57*
X179900100Y-81713500D03*
X175699900Y-81713500D03*
D16*
X158800000Y-112399900D03*
X158800000Y-110749900D03*
D35*
X116525000Y-122300000D03*
X118075000Y-122300000D03*
D13*
X123800000Y-98675000D03*
X123800000Y-97125000D03*
D48*
X141324000Y-115699900D03*
X141324000Y-121099900D03*
D17*
X137400000Y-105325000D03*
X137400000Y-103675000D03*
D53*
X137600000Y-89162500D03*
X137600000Y-91037500D03*
D13*
X118000000Y-96475000D03*
X118000000Y-94925000D03*
D23*
X131674100Y-127275000D03*
D18*
X132974100Y-127275000D03*
X134674100Y-127275000D03*
D23*
X135974100Y-127275000D03*
D24*
X132124000Y-125975000D03*
X135524000Y-125975000D03*
D25*
X133824000Y-125675000D03*
D26*
X131723900Y-128225000D03*
X135924100Y-128225000D03*
M02*
