M48
; DRILL file {KiCad 8.0.2} date 2024-06-10T19:24:11+0800
; FORMAT={-:-/ absolute / metric / decimal}
; #@! TF.CreationDate,2024-06-10T19:24:11+08:00
; #@! TF.GenerationSoftware,Kicad,Pcbnew,8.0.2
; #@! TF.FileFunction,NonPlated,1,4,NPTH
FMAT,2
METRIC
; #@! TA.AperFunction,NonPlated,NPTH,ComponentDrill
T1C0.700
; #@! TA.AperFunction,NonPlated,NPTH,ComponentDrill
T2C0.900
%
G90
G05
T1
X117.209Y-86.293
X117.4Y-127.275
X119.1Y-127.275
X122.989Y-86.293
X132.974Y-127.275
X134.674Y-127.275
X137.209Y-86.293
X142.989Y-86.293
X147.974Y-127.275
X149.674Y-127.275
X176.95Y-82.663
X178.65Y-82.663
T2
X116.1Y-127.275
X120.4Y-127.275
X131.674Y-127.275
X135.974Y-127.275
X146.674Y-127.275
X150.974Y-127.275
X175.65Y-82.663
X179.95Y-82.663
M30
