G04 #@! TF.GenerationSoftware,KiCad,Pcbnew,8.0.2*
G04 #@! TF.CreationDate,2024-06-10T19:24:07+08:00*
G04 #@! TF.ProjectId,pppc_usb_hub,70707063-5f75-4736-925f-6875622e6b69,Rev3*
G04 #@! TF.SameCoordinates,Original*
G04 #@! TF.FileFunction,Legend,Top*
G04 #@! TF.FilePolarity,Positive*
%FSLAX46Y46*%
G04 Gerber Fmt 4.6, Leading zero omitted, Abs format (unit mm)*
G04 Created by KiCad (PCBNEW 8.0.2) date 2024-06-10 19:24:07*
%MOMM*%
%LPD*%
G01*
G04 APERTURE LIST*
G04 Aperture macros list*
%AMRoundRect*
0 Rectangle with rounded corners*
0 $1 Rounding radius*
0 $2 $3 $4 $5 $6 $7 $8 $9 X,Y pos of 4 corners*
0 Add a 4 corners polygon primitive as box body*
4,1,4,$2,$3,$4,$5,$6,$7,$8,$9,$2,$3,0*
0 Add four circle primitives for the rounded corners*
1,1,$1+$1,$2,$3*
1,1,$1+$1,$4,$5*
1,1,$1+$1,$6,$7*
1,1,$1+$1,$8,$9*
0 Add four rect primitives between the rounded corners*
20,1,$1+$1,$2,$3,$4,$5,0*
20,1,$1+$1,$4,$5,$6,$7,0*
20,1,$1+$1,$6,$7,$8,$9,0*
20,1,$1+$1,$8,$9,$2,$3,0*%
G04 Aperture macros list end*
%ADD10C,0.100000*%
%ADD11C,0.150000*%
%ADD12C,0.152400*%
%ADD13C,0.158750*%
%ADD14C,0.300000*%
%ADD15C,0.120000*%
%ADD16C,0.254000*%
%ADD17C,0.152000*%
%ADD18C,0.000000*%
%ADD19RoundRect,0.225000X0.225000X0.250000X-0.225000X0.250000X-0.225000X-0.250000X0.225000X-0.250000X0*%
%ADD20RoundRect,0.200000X0.200000X0.275000X-0.200000X0.275000X-0.200000X-0.275000X0.200000X-0.275000X0*%
%ADD21RoundRect,0.050000X-0.125000X0.600000X-0.125000X-0.600000X0.125000X-0.600000X0.125000X0.600000X0*%
%ADD22RoundRect,0.225000X0.250000X-0.225000X0.250000X0.225000X-0.250000X0.225000X-0.250000X-0.225000X0*%
%ADD23RoundRect,0.050800X-0.300000X0.550000X-0.300000X-0.550000X0.300000X-0.550000X0.300000X0.550000X0*%
%ADD24RoundRect,0.250000X0.300000X0.300000X-0.300000X0.300000X-0.300000X-0.300000X0.300000X-0.300000X0*%
%ADD25RoundRect,0.200000X0.275000X-0.200000X0.275000X0.200000X-0.275000X0.200000X-0.275000X-0.200000X0*%
%ADD26RoundRect,0.200000X-0.275000X0.200000X-0.275000X-0.200000X0.275000X-0.200000X0.275000X0.200000X0*%
%ADD27C,0.700000*%
%ADD28RoundRect,0.050000X0.275000X0.550000X-0.275000X0.550000X-0.275000X-0.550000X0.275000X-0.550000X0*%
%ADD29RoundRect,0.050000X0.150000X0.550000X-0.150000X0.550000X-0.150000X-0.550000X0.150000X-0.550000X0*%
%ADD30O,1.200000X2.100000*%
%ADD31O,1.300000X1.900000*%
%ADD32C,0.900000*%
%ADD33RoundRect,0.050800X-0.350000X-0.600000X0.350000X-0.600000X0.350000X0.600000X-0.350000X0.600000X0*%
%ADD34RoundRect,0.050800X-0.750000X-0.500000X0.750000X-0.500000X0.750000X0.500000X-0.750000X0.500000X0*%
%ADD35RoundRect,0.050800X-0.550000X-0.350000X0.550000X-0.350000X0.550000X0.350000X-0.550000X0.350000X0*%
%ADD36RoundRect,0.218750X-0.218750X-0.256250X0.218750X-0.256250X0.218750X0.256250X-0.218750X0.256250X0*%
%ADD37RoundRect,0.225000X-0.250000X0.225000X-0.250000X-0.225000X0.250000X-0.225000X0.250000X0.225000X0*%
%ADD38RoundRect,0.050000X0.800000X-0.800000X0.800000X0.800000X-0.800000X0.800000X-0.800000X-0.800000X0*%
%ADD39O,1.700000X1.700000*%
%ADD40O,2.900000X1.400000*%
%ADD41RoundRect,0.200000X-0.200000X-0.275000X0.200000X-0.275000X0.200000X0.275000X-0.200000X0.275000X0*%
%ADD42RoundRect,0.050800X-0.600000X0.700000X-0.600000X-0.700000X0.600000X-0.700000X0.600000X0.700000X0*%
%ADD43RoundRect,0.150000X-0.150000X0.587500X-0.150000X-0.587500X0.150000X-0.587500X0.150000X0.587500X0*%
%ADD44RoundRect,0.225000X-0.225000X-0.250000X0.225000X-0.250000X0.225000X0.250000X-0.225000X0.250000X0*%
%ADD45RoundRect,0.150000X-0.512500X-0.150000X0.512500X-0.150000X0.512500X0.150000X-0.512500X0.150000X0*%
%ADD46R,1.700000X1.700000*%
%ADD47RoundRect,0.375000X-0.375000X0.625000X-0.375000X-0.625000X0.375000X-0.625000X0.375000X0.625000X0*%
%ADD48RoundRect,0.500000X-1.400000X0.500000X-1.400000X-0.500000X1.400000X-0.500000X1.400000X0.500000X0*%
%ADD49RoundRect,0.050800X0.950000X0.750000X-0.950000X0.750000X-0.950000X-0.750000X0.950000X-0.750000X0*%
%ADD50C,2.500000*%
%ADD51C,3.000000*%
%ADD52O,3.301600X2.101600*%
%ADD53O,1.625600X1.625600*%
%ADD54RoundRect,0.250000X-1.500000X-0.550000X1.500000X-0.550000X1.500000X0.550000X-1.500000X0.550000X0*%
%ADD55RoundRect,0.150000X-0.587500X-0.150000X0.587500X-0.150000X0.587500X0.150000X-0.587500X0.150000X0*%
%ADD56RoundRect,0.100000X0.637500X0.100000X-0.637500X0.100000X-0.637500X-0.100000X0.637500X-0.100000X0*%
%ADD57RoundRect,0.250000X-0.550000X1.500000X-0.550000X-1.500000X0.550000X-1.500000X0.550000X1.500000X0*%
%ADD58O,2.501600X2.501600*%
%ADD59RoundRect,0.218750X0.218750X0.256250X-0.218750X0.256250X-0.218750X-0.256250X0.218750X-0.256250X0*%
%ADD60RoundRect,0.050800X0.700000X0.600000X-0.700000X0.600000X-0.700000X-0.600000X0.700000X-0.600000X0*%
%ADD61RoundRect,0.250000X0.425000X-0.450000X0.425000X0.450000X-0.425000X0.450000X-0.425000X-0.450000X0*%
%ADD62RoundRect,0.243750X-0.456250X0.243750X-0.456250X-0.243750X0.456250X-0.243750X0.456250X0.243750X0*%
%ADD63RoundRect,0.250000X-0.250000X-0.475000X0.250000X-0.475000X0.250000X0.475000X-0.250000X0.475000X0*%
%ADD64RoundRect,0.050800X0.350000X0.600000X-0.350000X0.600000X-0.350000X-0.600000X0.350000X-0.600000X0*%
%ADD65RoundRect,0.050800X0.750000X0.500000X-0.750000X0.500000X-0.750000X-0.500000X0.750000X-0.500000X0*%
%ADD66RoundRect,0.050800X0.550000X0.350000X-0.550000X0.350000X-0.550000X-0.350000X0.550000X-0.350000X0*%
G04 APERTURE END LIST*
D10*
X136500000Y-102900000D02*
X141500000Y-102900000D01*
X141500000Y-106100000D01*
X136500000Y-106100000D01*
X136500000Y-102900000D01*
X187650000Y-84000000D02*
G75*
G02*
X182950000Y-84000000I-2350000J0D01*
G01*
X182950000Y-84000000D02*
G75*
G02*
X187650000Y-84000000I2350000J0D01*
G01*
X114050000Y-126000000D02*
G75*
G02*
X109350000Y-126000000I-2350000J0D01*
G01*
X109350000Y-126000000D02*
G75*
G02*
X114050000Y-126000000I2350000J0D01*
G01*
X114050000Y-91000000D02*
G75*
G02*
X109350000Y-91000000I-2350000J0D01*
G01*
X109350000Y-91000000D02*
G75*
G02*
X114050000Y-91000000I2350000J0D01*
G01*
X167650000Y-126000000D02*
G75*
G02*
X162950000Y-126000000I-2350000J0D01*
G01*
X162950000Y-126000000D02*
G75*
G02*
X167650000Y-126000000I2350000J0D01*
G01*
X136403884Y-102572419D02*
X136403884Y-101572419D01*
X136403884Y-101572419D02*
X136975312Y-102572419D01*
X136975312Y-102572419D02*
X136975312Y-101572419D01*
X137641979Y-101572419D02*
X137832455Y-101572419D01*
X137832455Y-101572419D02*
X137927693Y-101620038D01*
X137927693Y-101620038D02*
X138022931Y-101715276D01*
X138022931Y-101715276D02*
X138070550Y-101905752D01*
X138070550Y-101905752D02*
X138070550Y-102239085D01*
X138070550Y-102239085D02*
X138022931Y-102429561D01*
X138022931Y-102429561D02*
X137927693Y-102524800D01*
X137927693Y-102524800D02*
X137832455Y-102572419D01*
X137832455Y-102572419D02*
X137641979Y-102572419D01*
X137641979Y-102572419D02*
X137546741Y-102524800D01*
X137546741Y-102524800D02*
X137451503Y-102429561D01*
X137451503Y-102429561D02*
X137403884Y-102239085D01*
X137403884Y-102239085D02*
X137403884Y-101905752D01*
X137403884Y-101905752D02*
X137451503Y-101715276D01*
X137451503Y-101715276D02*
X137546741Y-101620038D01*
X137546741Y-101620038D02*
X137641979Y-101572419D01*
X138261027Y-102667657D02*
X139022931Y-102667657D01*
X139261027Y-102572419D02*
X139261027Y-101572419D01*
X139261027Y-101572419D02*
X139594360Y-102286704D01*
X139594360Y-102286704D02*
X139927693Y-101572419D01*
X139927693Y-101572419D02*
X139927693Y-102572419D01*
X140975312Y-102477180D02*
X140927693Y-102524800D01*
X140927693Y-102524800D02*
X140784836Y-102572419D01*
X140784836Y-102572419D02*
X140689598Y-102572419D01*
X140689598Y-102572419D02*
X140546741Y-102524800D01*
X140546741Y-102524800D02*
X140451503Y-102429561D01*
X140451503Y-102429561D02*
X140403884Y-102334323D01*
X140403884Y-102334323D02*
X140356265Y-102143847D01*
X140356265Y-102143847D02*
X140356265Y-102000990D01*
X140356265Y-102000990D02*
X140403884Y-101810514D01*
X140403884Y-101810514D02*
X140451503Y-101715276D01*
X140451503Y-101715276D02*
X140546741Y-101620038D01*
X140546741Y-101620038D02*
X140689598Y-101572419D01*
X140689598Y-101572419D02*
X140784836Y-101572419D01*
X140784836Y-101572419D02*
X140927693Y-101620038D01*
X140927693Y-101620038D02*
X140975312Y-101667657D01*
X141403884Y-101572419D02*
X141403884Y-102381942D01*
X141403884Y-102381942D02*
X141451503Y-102477180D01*
X141451503Y-102477180D02*
X141499122Y-102524800D01*
X141499122Y-102524800D02*
X141594360Y-102572419D01*
X141594360Y-102572419D02*
X141784836Y-102572419D01*
X141784836Y-102572419D02*
X141880074Y-102524800D01*
X141880074Y-102524800D02*
X141927693Y-102477180D01*
X141927693Y-102477180D02*
X141975312Y-102381942D01*
X141975312Y-102381942D02*
X141975312Y-101572419D01*
D11*
X110855704Y-110072493D02*
X110284276Y-110072493D01*
X110284276Y-110072493D02*
X110169990Y-110024874D01*
X110169990Y-110024874D02*
X110093800Y-109929636D01*
X110093800Y-109929636D02*
X110055704Y-109786779D01*
X110055704Y-109786779D02*
X110055704Y-109691541D01*
X110055704Y-111024874D02*
X110055704Y-110548684D01*
X110055704Y-110548684D02*
X110855704Y-110548684D01*
X110131895Y-111929636D02*
X110093800Y-111882017D01*
X110093800Y-111882017D02*
X110055704Y-111739160D01*
X110055704Y-111739160D02*
X110055704Y-111643922D01*
X110055704Y-111643922D02*
X110093800Y-111501065D01*
X110093800Y-111501065D02*
X110169990Y-111405827D01*
X110169990Y-111405827D02*
X110246180Y-111358208D01*
X110246180Y-111358208D02*
X110398561Y-111310589D01*
X110398561Y-111310589D02*
X110512847Y-111310589D01*
X110512847Y-111310589D02*
X110665228Y-111358208D01*
X110665228Y-111358208D02*
X110741419Y-111405827D01*
X110741419Y-111405827D02*
X110817609Y-111501065D01*
X110817609Y-111501065D02*
X110855704Y-111643922D01*
X110855704Y-111643922D02*
X110855704Y-111739160D01*
X110855704Y-111739160D02*
X110817609Y-111882017D01*
X110817609Y-111882017D02*
X110779514Y-111929636D01*
X110855704Y-112643922D02*
X110284276Y-112643922D01*
X110284276Y-112643922D02*
X110169990Y-112596303D01*
X110169990Y-112596303D02*
X110093800Y-112501065D01*
X110093800Y-112501065D02*
X110055704Y-112358208D01*
X110055704Y-112358208D02*
X110055704Y-112262970D01*
X110055704Y-113596303D02*
X110055704Y-113120113D01*
X110055704Y-113120113D02*
X110855704Y-113120113D01*
X110131895Y-114501065D02*
X110093800Y-114453446D01*
X110093800Y-114453446D02*
X110055704Y-114310589D01*
X110055704Y-114310589D02*
X110055704Y-114215351D01*
X110055704Y-114215351D02*
X110093800Y-114072494D01*
X110093800Y-114072494D02*
X110169990Y-113977256D01*
X110169990Y-113977256D02*
X110246180Y-113929637D01*
X110246180Y-113929637D02*
X110398561Y-113882018D01*
X110398561Y-113882018D02*
X110512847Y-113882018D01*
X110512847Y-113882018D02*
X110665228Y-113929637D01*
X110665228Y-113929637D02*
X110741419Y-113977256D01*
X110741419Y-113977256D02*
X110817609Y-114072494D01*
X110817609Y-114072494D02*
X110855704Y-114215351D01*
X110855704Y-114215351D02*
X110855704Y-114310589D01*
X110855704Y-114310589D02*
X110817609Y-114453446D01*
X110817609Y-114453446D02*
X110779514Y-114501065D01*
X110855704Y-115215351D02*
X110284276Y-115215351D01*
X110284276Y-115215351D02*
X110169990Y-115167732D01*
X110169990Y-115167732D02*
X110093800Y-115072494D01*
X110093800Y-115072494D02*
X110055704Y-114929637D01*
X110055704Y-114929637D02*
X110055704Y-114834399D01*
X110055704Y-116167732D02*
X110055704Y-115691542D01*
X110055704Y-115691542D02*
X110855704Y-115691542D01*
X110131895Y-117072494D02*
X110093800Y-117024875D01*
X110093800Y-117024875D02*
X110055704Y-116882018D01*
X110055704Y-116882018D02*
X110055704Y-116786780D01*
X110055704Y-116786780D02*
X110093800Y-116643923D01*
X110093800Y-116643923D02*
X110169990Y-116548685D01*
X110169990Y-116548685D02*
X110246180Y-116501066D01*
X110246180Y-116501066D02*
X110398561Y-116453447D01*
X110398561Y-116453447D02*
X110512847Y-116453447D01*
X110512847Y-116453447D02*
X110665228Y-116501066D01*
X110665228Y-116501066D02*
X110741419Y-116548685D01*
X110741419Y-116548685D02*
X110817609Y-116643923D01*
X110817609Y-116643923D02*
X110855704Y-116786780D01*
X110855704Y-116786780D02*
X110855704Y-116882018D01*
X110855704Y-116882018D02*
X110817609Y-117024875D01*
X110817609Y-117024875D02*
X110779514Y-117072494D01*
X110855704Y-117786780D02*
X110284276Y-117786780D01*
X110284276Y-117786780D02*
X110169990Y-117739161D01*
X110169990Y-117739161D02*
X110093800Y-117643923D01*
X110093800Y-117643923D02*
X110055704Y-117501066D01*
X110055704Y-117501066D02*
X110055704Y-117405828D01*
X110055704Y-118739161D02*
X110055704Y-118262971D01*
X110055704Y-118262971D02*
X110855704Y-118262971D01*
X110131895Y-119643923D02*
X110093800Y-119596304D01*
X110093800Y-119596304D02*
X110055704Y-119453447D01*
X110055704Y-119453447D02*
X110055704Y-119358209D01*
X110055704Y-119358209D02*
X110093800Y-119215352D01*
X110093800Y-119215352D02*
X110169990Y-119120114D01*
X110169990Y-119120114D02*
X110246180Y-119072495D01*
X110246180Y-119072495D02*
X110398561Y-119024876D01*
X110398561Y-119024876D02*
X110512847Y-119024876D01*
X110512847Y-119024876D02*
X110665228Y-119072495D01*
X110665228Y-119072495D02*
X110741419Y-119120114D01*
X110741419Y-119120114D02*
X110817609Y-119215352D01*
X110817609Y-119215352D02*
X110855704Y-119358209D01*
X110855704Y-119358209D02*
X110855704Y-119453447D01*
X110855704Y-119453447D02*
X110817609Y-119596304D01*
X110817609Y-119596304D02*
X110779514Y-119643923D01*
X172182142Y-85926330D02*
X172134523Y-85973950D01*
X172134523Y-85973950D02*
X171991666Y-86021569D01*
X171991666Y-86021569D02*
X171896428Y-86021569D01*
X171896428Y-86021569D02*
X171753571Y-85973950D01*
X171753571Y-85973950D02*
X171658333Y-85878711D01*
X171658333Y-85878711D02*
X171610714Y-85783473D01*
X171610714Y-85783473D02*
X171563095Y-85592997D01*
X171563095Y-85592997D02*
X171563095Y-85450140D01*
X171563095Y-85450140D02*
X171610714Y-85259664D01*
X171610714Y-85259664D02*
X171658333Y-85164426D01*
X171658333Y-85164426D02*
X171753571Y-85069188D01*
X171753571Y-85069188D02*
X171896428Y-85021569D01*
X171896428Y-85021569D02*
X171991666Y-85021569D01*
X171991666Y-85021569D02*
X172134523Y-85069188D01*
X172134523Y-85069188D02*
X172182142Y-85116807D01*
X172563095Y-85116807D02*
X172610714Y-85069188D01*
X172610714Y-85069188D02*
X172705952Y-85021569D01*
X172705952Y-85021569D02*
X172944047Y-85021569D01*
X172944047Y-85021569D02*
X173039285Y-85069188D01*
X173039285Y-85069188D02*
X173086904Y-85116807D01*
X173086904Y-85116807D02*
X173134523Y-85212045D01*
X173134523Y-85212045D02*
X173134523Y-85307283D01*
X173134523Y-85307283D02*
X173086904Y-85450140D01*
X173086904Y-85450140D02*
X172515476Y-86021569D01*
X172515476Y-86021569D02*
X173134523Y-86021569D01*
X173467857Y-85021569D02*
X174086904Y-85021569D01*
X174086904Y-85021569D02*
X173753571Y-85402521D01*
X173753571Y-85402521D02*
X173896428Y-85402521D01*
X173896428Y-85402521D02*
X173991666Y-85450140D01*
X173991666Y-85450140D02*
X174039285Y-85497759D01*
X174039285Y-85497759D02*
X174086904Y-85592997D01*
X174086904Y-85592997D02*
X174086904Y-85831092D01*
X174086904Y-85831092D02*
X174039285Y-85926330D01*
X174039285Y-85926330D02*
X173991666Y-85973950D01*
X173991666Y-85973950D02*
X173896428Y-86021569D01*
X173896428Y-86021569D02*
X173610714Y-86021569D01*
X173610714Y-86021569D02*
X173515476Y-85973950D01*
X173515476Y-85973950D02*
X173467857Y-85926330D01*
X136257142Y-125958069D02*
X135923809Y-125481878D01*
X135685714Y-125958069D02*
X135685714Y-124958069D01*
X135685714Y-124958069D02*
X136066666Y-124958069D01*
X136066666Y-124958069D02*
X136161904Y-125005688D01*
X136161904Y-125005688D02*
X136209523Y-125053307D01*
X136209523Y-125053307D02*
X136257142Y-125148545D01*
X136257142Y-125148545D02*
X136257142Y-125291402D01*
X136257142Y-125291402D02*
X136209523Y-125386640D01*
X136209523Y-125386640D02*
X136161904Y-125434259D01*
X136161904Y-125434259D02*
X136066666Y-125481878D01*
X136066666Y-125481878D02*
X135685714Y-125481878D01*
X137209523Y-125958069D02*
X136638095Y-125958069D01*
X136923809Y-125958069D02*
X136923809Y-124958069D01*
X136923809Y-124958069D02*
X136828571Y-125100926D01*
X136828571Y-125100926D02*
X136733333Y-125196164D01*
X136733333Y-125196164D02*
X136638095Y-125243783D01*
X138066666Y-124958069D02*
X137876190Y-124958069D01*
X137876190Y-124958069D02*
X137780952Y-125005688D01*
X137780952Y-125005688D02*
X137733333Y-125053307D01*
X137733333Y-125053307D02*
X137638095Y-125196164D01*
X137638095Y-125196164D02*
X137590476Y-125386640D01*
X137590476Y-125386640D02*
X137590476Y-125767592D01*
X137590476Y-125767592D02*
X137638095Y-125862830D01*
X137638095Y-125862830D02*
X137685714Y-125910450D01*
X137685714Y-125910450D02*
X137780952Y-125958069D01*
X137780952Y-125958069D02*
X137971428Y-125958069D01*
X137971428Y-125958069D02*
X138066666Y-125910450D01*
X138066666Y-125910450D02*
X138114285Y-125862830D01*
X138114285Y-125862830D02*
X138161904Y-125767592D01*
X138161904Y-125767592D02*
X138161904Y-125529497D01*
X138161904Y-125529497D02*
X138114285Y-125434259D01*
X138114285Y-125434259D02*
X138066666Y-125386640D01*
X138066666Y-125386640D02*
X137971428Y-125339021D01*
X137971428Y-125339021D02*
X137780952Y-125339021D01*
X137780952Y-125339021D02*
X137685714Y-125386640D01*
X137685714Y-125386640D02*
X137638095Y-125434259D01*
X137638095Y-125434259D02*
X137590476Y-125529497D01*
D12*
X120894285Y-103601792D02*
X120894285Y-102861563D01*
X120894285Y-102861563D02*
X120850742Y-102774477D01*
X120850742Y-102774477D02*
X120807200Y-102730935D01*
X120807200Y-102730935D02*
X120720114Y-102687392D01*
X120720114Y-102687392D02*
X120545942Y-102687392D01*
X120545942Y-102687392D02*
X120458857Y-102730935D01*
X120458857Y-102730935D02*
X120415314Y-102774477D01*
X120415314Y-102774477D02*
X120371771Y-102861563D01*
X120371771Y-102861563D02*
X120371771Y-103601792D01*
X119544457Y-103296992D02*
X119544457Y-102687392D01*
X119762171Y-103645335D02*
X119979885Y-102992192D01*
X119979885Y-102992192D02*
X119413828Y-102992192D01*
D11*
X140162830Y-98542857D02*
X140210450Y-98590476D01*
X140210450Y-98590476D02*
X140258069Y-98733333D01*
X140258069Y-98733333D02*
X140258069Y-98828571D01*
X140258069Y-98828571D02*
X140210450Y-98971428D01*
X140210450Y-98971428D02*
X140115211Y-99066666D01*
X140115211Y-99066666D02*
X140019973Y-99114285D01*
X140019973Y-99114285D02*
X139829497Y-99161904D01*
X139829497Y-99161904D02*
X139686640Y-99161904D01*
X139686640Y-99161904D02*
X139496164Y-99114285D01*
X139496164Y-99114285D02*
X139400926Y-99066666D01*
X139400926Y-99066666D02*
X139305688Y-98971428D01*
X139305688Y-98971428D02*
X139258069Y-98828571D01*
X139258069Y-98828571D02*
X139258069Y-98733333D01*
X139258069Y-98733333D02*
X139305688Y-98590476D01*
X139305688Y-98590476D02*
X139353307Y-98542857D01*
X140258069Y-97590476D02*
X140258069Y-98161904D01*
X140258069Y-97876190D02*
X139258069Y-97876190D01*
X139258069Y-97876190D02*
X139400926Y-97971428D01*
X139400926Y-97971428D02*
X139496164Y-98066666D01*
X139496164Y-98066666D02*
X139543783Y-98161904D01*
X140258069Y-97114285D02*
X140258069Y-96923809D01*
X140258069Y-96923809D02*
X140210450Y-96828571D01*
X140210450Y-96828571D02*
X140162830Y-96780952D01*
X140162830Y-96780952D02*
X140019973Y-96685714D01*
X140019973Y-96685714D02*
X139829497Y-96638095D01*
X139829497Y-96638095D02*
X139448545Y-96638095D01*
X139448545Y-96638095D02*
X139353307Y-96685714D01*
X139353307Y-96685714D02*
X139305688Y-96733333D01*
X139305688Y-96733333D02*
X139258069Y-96828571D01*
X139258069Y-96828571D02*
X139258069Y-97019047D01*
X139258069Y-97019047D02*
X139305688Y-97114285D01*
X139305688Y-97114285D02*
X139353307Y-97161904D01*
X139353307Y-97161904D02*
X139448545Y-97209523D01*
X139448545Y-97209523D02*
X139686640Y-97209523D01*
X139686640Y-97209523D02*
X139781878Y-97161904D01*
X139781878Y-97161904D02*
X139829497Y-97114285D01*
X139829497Y-97114285D02*
X139877116Y-97019047D01*
X139877116Y-97019047D02*
X139877116Y-96828571D01*
X139877116Y-96828571D02*
X139829497Y-96733333D01*
X139829497Y-96733333D02*
X139781878Y-96685714D01*
X139781878Y-96685714D02*
X139686640Y-96638095D01*
X134688523Y-85004819D02*
X134355190Y-84528628D01*
X134117095Y-85004819D02*
X134117095Y-84004819D01*
X134117095Y-84004819D02*
X134498047Y-84004819D01*
X134498047Y-84004819D02*
X134593285Y-84052438D01*
X134593285Y-84052438D02*
X134640904Y-84100057D01*
X134640904Y-84100057D02*
X134688523Y-84195295D01*
X134688523Y-84195295D02*
X134688523Y-84338152D01*
X134688523Y-84338152D02*
X134640904Y-84433390D01*
X134640904Y-84433390D02*
X134593285Y-84481009D01*
X134593285Y-84481009D02*
X134498047Y-84528628D01*
X134498047Y-84528628D02*
X134117095Y-84528628D01*
X135593285Y-84004819D02*
X135117095Y-84004819D01*
X135117095Y-84004819D02*
X135069476Y-84481009D01*
X135069476Y-84481009D02*
X135117095Y-84433390D01*
X135117095Y-84433390D02*
X135212333Y-84385771D01*
X135212333Y-84385771D02*
X135450428Y-84385771D01*
X135450428Y-84385771D02*
X135545666Y-84433390D01*
X135545666Y-84433390D02*
X135593285Y-84481009D01*
X135593285Y-84481009D02*
X135640904Y-84576247D01*
X135640904Y-84576247D02*
X135640904Y-84814342D01*
X135640904Y-84814342D02*
X135593285Y-84909580D01*
X135593285Y-84909580D02*
X135545666Y-84957200D01*
X135545666Y-84957200D02*
X135450428Y-85004819D01*
X135450428Y-85004819D02*
X135212333Y-85004819D01*
X135212333Y-85004819D02*
X135117095Y-84957200D01*
X135117095Y-84957200D02*
X135069476Y-84909580D01*
D13*
X138779171Y-112382180D02*
X137751076Y-112382180D01*
X137751076Y-112382180D02*
X137630124Y-112442657D01*
X137630124Y-112442657D02*
X137569648Y-112503133D01*
X137569648Y-112503133D02*
X137509171Y-112624085D01*
X137509171Y-112624085D02*
X137509171Y-112865990D01*
X137509171Y-112865990D02*
X137569648Y-112986942D01*
X137569648Y-112986942D02*
X137630124Y-113047419D01*
X137630124Y-113047419D02*
X137751076Y-113107895D01*
X137751076Y-113107895D02*
X138779171Y-113107895D01*
X138658219Y-113652180D02*
X138718695Y-113712656D01*
X138718695Y-113712656D02*
X138779171Y-113833609D01*
X138779171Y-113833609D02*
X138779171Y-114135990D01*
X138779171Y-114135990D02*
X138718695Y-114256942D01*
X138718695Y-114256942D02*
X138658219Y-114317418D01*
X138658219Y-114317418D02*
X138537267Y-114377895D01*
X138537267Y-114377895D02*
X138416314Y-114377895D01*
X138416314Y-114377895D02*
X138234886Y-114317418D01*
X138234886Y-114317418D02*
X137509171Y-113591704D01*
X137509171Y-113591704D02*
X137509171Y-114377895D01*
D11*
X151382142Y-125958069D02*
X151048809Y-125481878D01*
X150810714Y-125958069D02*
X150810714Y-124958069D01*
X150810714Y-124958069D02*
X151191666Y-124958069D01*
X151191666Y-124958069D02*
X151286904Y-125005688D01*
X151286904Y-125005688D02*
X151334523Y-125053307D01*
X151334523Y-125053307D02*
X151382142Y-125148545D01*
X151382142Y-125148545D02*
X151382142Y-125291402D01*
X151382142Y-125291402D02*
X151334523Y-125386640D01*
X151334523Y-125386640D02*
X151286904Y-125434259D01*
X151286904Y-125434259D02*
X151191666Y-125481878D01*
X151191666Y-125481878D02*
X150810714Y-125481878D01*
X152334523Y-125958069D02*
X151763095Y-125958069D01*
X152048809Y-125958069D02*
X152048809Y-124958069D01*
X152048809Y-124958069D02*
X151953571Y-125100926D01*
X151953571Y-125100926D02*
X151858333Y-125196164D01*
X151858333Y-125196164D02*
X151763095Y-125243783D01*
X152667857Y-124958069D02*
X153334523Y-124958069D01*
X153334523Y-124958069D02*
X152905952Y-125958069D01*
X135959580Y-101875238D02*
X136007200Y-101922857D01*
X136007200Y-101922857D02*
X136054819Y-102065714D01*
X136054819Y-102065714D02*
X136054819Y-102160952D01*
X136054819Y-102160952D02*
X136007200Y-102303809D01*
X136007200Y-102303809D02*
X135911961Y-102399047D01*
X135911961Y-102399047D02*
X135816723Y-102446666D01*
X135816723Y-102446666D02*
X135626247Y-102494285D01*
X135626247Y-102494285D02*
X135483390Y-102494285D01*
X135483390Y-102494285D02*
X135292914Y-102446666D01*
X135292914Y-102446666D02*
X135197676Y-102399047D01*
X135197676Y-102399047D02*
X135102438Y-102303809D01*
X135102438Y-102303809D02*
X135054819Y-102160952D01*
X135054819Y-102160952D02*
X135054819Y-102065714D01*
X135054819Y-102065714D02*
X135102438Y-101922857D01*
X135102438Y-101922857D02*
X135150057Y-101875238D01*
X136054819Y-100922857D02*
X136054819Y-101494285D01*
X136054819Y-101208571D02*
X135054819Y-101208571D01*
X135054819Y-101208571D02*
X135197676Y-101303809D01*
X135197676Y-101303809D02*
X135292914Y-101399047D01*
X135292914Y-101399047D02*
X135340533Y-101494285D01*
X135054819Y-100589523D02*
X135054819Y-99922857D01*
X135054819Y-99922857D02*
X136054819Y-100351428D01*
X177081905Y-96678069D02*
X177081905Y-95678069D01*
X177081905Y-95678069D02*
X177320000Y-95678069D01*
X177320000Y-95678069D02*
X177462857Y-95725688D01*
X177462857Y-95725688D02*
X177558095Y-95820926D01*
X177558095Y-95820926D02*
X177605714Y-95916164D01*
X177605714Y-95916164D02*
X177653333Y-96106640D01*
X177653333Y-96106640D02*
X177653333Y-96249497D01*
X177653333Y-96249497D02*
X177605714Y-96439973D01*
X177605714Y-96439973D02*
X177558095Y-96535211D01*
X177558095Y-96535211D02*
X177462857Y-96630450D01*
X177462857Y-96630450D02*
X177320000Y-96678069D01*
X177320000Y-96678069D02*
X177081905Y-96678069D01*
X178605714Y-96678069D02*
X178034286Y-96678069D01*
X178320000Y-96678069D02*
X178320000Y-95678069D01*
X178320000Y-95678069D02*
X178224762Y-95820926D01*
X178224762Y-95820926D02*
X178129524Y-95916164D01*
X178129524Y-95916164D02*
X178034286Y-95963783D01*
X162057142Y-91509580D02*
X162009523Y-91557200D01*
X162009523Y-91557200D02*
X161866666Y-91604819D01*
X161866666Y-91604819D02*
X161771428Y-91604819D01*
X161771428Y-91604819D02*
X161628571Y-91557200D01*
X161628571Y-91557200D02*
X161533333Y-91461961D01*
X161533333Y-91461961D02*
X161485714Y-91366723D01*
X161485714Y-91366723D02*
X161438095Y-91176247D01*
X161438095Y-91176247D02*
X161438095Y-91033390D01*
X161438095Y-91033390D02*
X161485714Y-90842914D01*
X161485714Y-90842914D02*
X161533333Y-90747676D01*
X161533333Y-90747676D02*
X161628571Y-90652438D01*
X161628571Y-90652438D02*
X161771428Y-90604819D01*
X161771428Y-90604819D02*
X161866666Y-90604819D01*
X161866666Y-90604819D02*
X162009523Y-90652438D01*
X162009523Y-90652438D02*
X162057142Y-90700057D01*
X162438095Y-90700057D02*
X162485714Y-90652438D01*
X162485714Y-90652438D02*
X162580952Y-90604819D01*
X162580952Y-90604819D02*
X162819047Y-90604819D01*
X162819047Y-90604819D02*
X162914285Y-90652438D01*
X162914285Y-90652438D02*
X162961904Y-90700057D01*
X162961904Y-90700057D02*
X163009523Y-90795295D01*
X163009523Y-90795295D02*
X163009523Y-90890533D01*
X163009523Y-90890533D02*
X162961904Y-91033390D01*
X162961904Y-91033390D02*
X162390476Y-91604819D01*
X162390476Y-91604819D02*
X163009523Y-91604819D01*
X163866666Y-90604819D02*
X163676190Y-90604819D01*
X163676190Y-90604819D02*
X163580952Y-90652438D01*
X163580952Y-90652438D02*
X163533333Y-90700057D01*
X163533333Y-90700057D02*
X163438095Y-90842914D01*
X163438095Y-90842914D02*
X163390476Y-91033390D01*
X163390476Y-91033390D02*
X163390476Y-91414342D01*
X163390476Y-91414342D02*
X163438095Y-91509580D01*
X163438095Y-91509580D02*
X163485714Y-91557200D01*
X163485714Y-91557200D02*
X163580952Y-91604819D01*
X163580952Y-91604819D02*
X163771428Y-91604819D01*
X163771428Y-91604819D02*
X163866666Y-91557200D01*
X163866666Y-91557200D02*
X163914285Y-91509580D01*
X163914285Y-91509580D02*
X163961904Y-91414342D01*
X163961904Y-91414342D02*
X163961904Y-91176247D01*
X163961904Y-91176247D02*
X163914285Y-91081009D01*
X163914285Y-91081009D02*
X163866666Y-91033390D01*
X163866666Y-91033390D02*
X163771428Y-90985771D01*
X163771428Y-90985771D02*
X163580952Y-90985771D01*
X163580952Y-90985771D02*
X163485714Y-91033390D01*
X163485714Y-91033390D02*
X163438095Y-91081009D01*
X163438095Y-91081009D02*
X163390476Y-91176247D01*
X126254819Y-109135375D02*
X125778628Y-109468708D01*
X126254819Y-109706803D02*
X125254819Y-109706803D01*
X125254819Y-109706803D02*
X125254819Y-109325851D01*
X125254819Y-109325851D02*
X125302438Y-109230613D01*
X125302438Y-109230613D02*
X125350057Y-109182994D01*
X125350057Y-109182994D02*
X125445295Y-109135375D01*
X125445295Y-109135375D02*
X125588152Y-109135375D01*
X125588152Y-109135375D02*
X125683390Y-109182994D01*
X125683390Y-109182994D02*
X125731009Y-109230613D01*
X125731009Y-109230613D02*
X125778628Y-109325851D01*
X125778628Y-109325851D02*
X125778628Y-109706803D01*
X126254819Y-108182994D02*
X126254819Y-108754422D01*
X126254819Y-108468708D02*
X125254819Y-108468708D01*
X125254819Y-108468708D02*
X125397676Y-108563946D01*
X125397676Y-108563946D02*
X125492914Y-108659184D01*
X125492914Y-108659184D02*
X125540533Y-108754422D01*
X142658069Y-104642857D02*
X142181878Y-104976190D01*
X142658069Y-105214285D02*
X141658069Y-105214285D01*
X141658069Y-105214285D02*
X141658069Y-104833333D01*
X141658069Y-104833333D02*
X141705688Y-104738095D01*
X141705688Y-104738095D02*
X141753307Y-104690476D01*
X141753307Y-104690476D02*
X141848545Y-104642857D01*
X141848545Y-104642857D02*
X141991402Y-104642857D01*
X141991402Y-104642857D02*
X142086640Y-104690476D01*
X142086640Y-104690476D02*
X142134259Y-104738095D01*
X142134259Y-104738095D02*
X142181878Y-104833333D01*
X142181878Y-104833333D02*
X142181878Y-105214285D01*
X142658069Y-103690476D02*
X142658069Y-104261904D01*
X142658069Y-103976190D02*
X141658069Y-103976190D01*
X141658069Y-103976190D02*
X141800926Y-104071428D01*
X141800926Y-104071428D02*
X141896164Y-104166666D01*
X141896164Y-104166666D02*
X141943783Y-104261904D01*
X142658069Y-102738095D02*
X142658069Y-103309523D01*
X142658069Y-103023809D02*
X141658069Y-103023809D01*
X141658069Y-103023809D02*
X141800926Y-103119047D01*
X141800926Y-103119047D02*
X141896164Y-103214285D01*
X141896164Y-103214285D02*
X141943783Y-103309523D01*
X123143833Y-106951569D02*
X122810500Y-106475378D01*
X122572405Y-106951569D02*
X122572405Y-105951569D01*
X122572405Y-105951569D02*
X122953357Y-105951569D01*
X122953357Y-105951569D02*
X123048595Y-105999188D01*
X123048595Y-105999188D02*
X123096214Y-106046807D01*
X123096214Y-106046807D02*
X123143833Y-106142045D01*
X123143833Y-106142045D02*
X123143833Y-106284902D01*
X123143833Y-106284902D02*
X123096214Y-106380140D01*
X123096214Y-106380140D02*
X123048595Y-106427759D01*
X123048595Y-106427759D02*
X122953357Y-106475378D01*
X122953357Y-106475378D02*
X122572405Y-106475378D01*
X124000976Y-105951569D02*
X123810500Y-105951569D01*
X123810500Y-105951569D02*
X123715262Y-105999188D01*
X123715262Y-105999188D02*
X123667643Y-106046807D01*
X123667643Y-106046807D02*
X123572405Y-106189664D01*
X123572405Y-106189664D02*
X123524786Y-106380140D01*
X123524786Y-106380140D02*
X123524786Y-106761092D01*
X123524786Y-106761092D02*
X123572405Y-106856330D01*
X123572405Y-106856330D02*
X123620024Y-106903950D01*
X123620024Y-106903950D02*
X123715262Y-106951569D01*
X123715262Y-106951569D02*
X123905738Y-106951569D01*
X123905738Y-106951569D02*
X124000976Y-106903950D01*
X124000976Y-106903950D02*
X124048595Y-106856330D01*
X124048595Y-106856330D02*
X124096214Y-106761092D01*
X124096214Y-106761092D02*
X124096214Y-106522997D01*
X124096214Y-106522997D02*
X124048595Y-106427759D01*
X124048595Y-106427759D02*
X124000976Y-106380140D01*
X124000976Y-106380140D02*
X123905738Y-106332521D01*
X123905738Y-106332521D02*
X123715262Y-106332521D01*
X123715262Y-106332521D02*
X123620024Y-106380140D01*
X123620024Y-106380140D02*
X123572405Y-106427759D01*
X123572405Y-106427759D02*
X123524786Y-106522997D01*
X115433333Y-106762830D02*
X115385714Y-106810450D01*
X115385714Y-106810450D02*
X115242857Y-106858069D01*
X115242857Y-106858069D02*
X115147619Y-106858069D01*
X115147619Y-106858069D02*
X115004762Y-106810450D01*
X115004762Y-106810450D02*
X114909524Y-106715211D01*
X114909524Y-106715211D02*
X114861905Y-106619973D01*
X114861905Y-106619973D02*
X114814286Y-106429497D01*
X114814286Y-106429497D02*
X114814286Y-106286640D01*
X114814286Y-106286640D02*
X114861905Y-106096164D01*
X114861905Y-106096164D02*
X114909524Y-106000926D01*
X114909524Y-106000926D02*
X115004762Y-105905688D01*
X115004762Y-105905688D02*
X115147619Y-105858069D01*
X115147619Y-105858069D02*
X115242857Y-105858069D01*
X115242857Y-105858069D02*
X115385714Y-105905688D01*
X115385714Y-105905688D02*
X115433333Y-105953307D01*
X115909524Y-106858069D02*
X116100000Y-106858069D01*
X116100000Y-106858069D02*
X116195238Y-106810450D01*
X116195238Y-106810450D02*
X116242857Y-106762830D01*
X116242857Y-106762830D02*
X116338095Y-106619973D01*
X116338095Y-106619973D02*
X116385714Y-106429497D01*
X116385714Y-106429497D02*
X116385714Y-106048545D01*
X116385714Y-106048545D02*
X116338095Y-105953307D01*
X116338095Y-105953307D02*
X116290476Y-105905688D01*
X116290476Y-105905688D02*
X116195238Y-105858069D01*
X116195238Y-105858069D02*
X116004762Y-105858069D01*
X116004762Y-105858069D02*
X115909524Y-105905688D01*
X115909524Y-105905688D02*
X115861905Y-105953307D01*
X115861905Y-105953307D02*
X115814286Y-106048545D01*
X115814286Y-106048545D02*
X115814286Y-106286640D01*
X115814286Y-106286640D02*
X115861905Y-106381878D01*
X115861905Y-106381878D02*
X115909524Y-106429497D01*
X115909524Y-106429497D02*
X116004762Y-106477116D01*
X116004762Y-106477116D02*
X116195238Y-106477116D01*
X116195238Y-106477116D02*
X116290476Y-106429497D01*
X116290476Y-106429497D02*
X116338095Y-106381878D01*
X116338095Y-106381878D02*
X116385714Y-106286640D01*
D13*
X120522332Y-89625784D02*
X120522332Y-88718641D01*
X120522332Y-88718641D02*
X120582809Y-88537213D01*
X120582809Y-88537213D02*
X120703761Y-88416261D01*
X120703761Y-88416261D02*
X120885190Y-88355784D01*
X120885190Y-88355784D02*
X121006142Y-88355784D01*
X119252332Y-88355784D02*
X119978047Y-88355784D01*
X119615190Y-88355784D02*
X119615190Y-89625784D01*
X119615190Y-89625784D02*
X119736142Y-89444356D01*
X119736142Y-89444356D02*
X119857094Y-89323403D01*
X119857094Y-89323403D02*
X119978047Y-89262927D01*
D11*
X131856142Y-87058069D02*
X131522809Y-86581878D01*
X131284714Y-87058069D02*
X131284714Y-86058069D01*
X131284714Y-86058069D02*
X131665666Y-86058069D01*
X131665666Y-86058069D02*
X131760904Y-86105688D01*
X131760904Y-86105688D02*
X131808523Y-86153307D01*
X131808523Y-86153307D02*
X131856142Y-86248545D01*
X131856142Y-86248545D02*
X131856142Y-86391402D01*
X131856142Y-86391402D02*
X131808523Y-86486640D01*
X131808523Y-86486640D02*
X131760904Y-86534259D01*
X131760904Y-86534259D02*
X131665666Y-86581878D01*
X131665666Y-86581878D02*
X131284714Y-86581878D01*
X132808523Y-87058069D02*
X132237095Y-87058069D01*
X132522809Y-87058069D02*
X132522809Y-86058069D01*
X132522809Y-86058069D02*
X132427571Y-86200926D01*
X132427571Y-86200926D02*
X132332333Y-86296164D01*
X132332333Y-86296164D02*
X132237095Y-86343783D01*
X133141857Y-86058069D02*
X133760904Y-86058069D01*
X133760904Y-86058069D02*
X133427571Y-86439021D01*
X133427571Y-86439021D02*
X133570428Y-86439021D01*
X133570428Y-86439021D02*
X133665666Y-86486640D01*
X133665666Y-86486640D02*
X133713285Y-86534259D01*
X133713285Y-86534259D02*
X133760904Y-86629497D01*
X133760904Y-86629497D02*
X133760904Y-86867592D01*
X133760904Y-86867592D02*
X133713285Y-86962830D01*
X133713285Y-86962830D02*
X133665666Y-87010450D01*
X133665666Y-87010450D02*
X133570428Y-87058069D01*
X133570428Y-87058069D02*
X133284714Y-87058069D01*
X133284714Y-87058069D02*
X133189476Y-87010450D01*
X133189476Y-87010450D02*
X133141857Y-86962830D01*
D13*
X120765671Y-112382180D02*
X119737576Y-112382180D01*
X119737576Y-112382180D02*
X119616624Y-112442657D01*
X119616624Y-112442657D02*
X119556148Y-112503133D01*
X119556148Y-112503133D02*
X119495671Y-112624085D01*
X119495671Y-112624085D02*
X119495671Y-112865990D01*
X119495671Y-112865990D02*
X119556148Y-112986942D01*
X119556148Y-112986942D02*
X119616624Y-113047419D01*
X119616624Y-113047419D02*
X119737576Y-113107895D01*
X119737576Y-113107895D02*
X120765671Y-113107895D01*
X119495671Y-114377895D02*
X119495671Y-113652180D01*
X119495671Y-114015037D02*
X120765671Y-114015037D01*
X120765671Y-114015037D02*
X120584243Y-113894085D01*
X120584243Y-113894085D02*
X120463290Y-113773133D01*
X120463290Y-113773133D02*
X120402814Y-113652180D01*
X121269929Y-128057295D02*
X121451358Y-128117771D01*
X121451358Y-128117771D02*
X121753739Y-128117771D01*
X121753739Y-128117771D02*
X121874691Y-128057295D01*
X121874691Y-128057295D02*
X121935167Y-127996818D01*
X121935167Y-127996818D02*
X121995644Y-127875866D01*
X121995644Y-127875866D02*
X121995644Y-127754914D01*
X121995644Y-127754914D02*
X121935167Y-127633961D01*
X121935167Y-127633961D02*
X121874691Y-127573485D01*
X121874691Y-127573485D02*
X121753739Y-127513009D01*
X121753739Y-127513009D02*
X121511834Y-127452533D01*
X121511834Y-127452533D02*
X121390882Y-127392056D01*
X121390882Y-127392056D02*
X121330405Y-127331580D01*
X121330405Y-127331580D02*
X121269929Y-127210628D01*
X121269929Y-127210628D02*
X121269929Y-127089675D01*
X121269929Y-127089675D02*
X121330405Y-126968723D01*
X121330405Y-126968723D02*
X121390882Y-126908247D01*
X121390882Y-126908247D02*
X121511834Y-126847771D01*
X121511834Y-126847771D02*
X121814215Y-126847771D01*
X121814215Y-126847771D02*
X121995644Y-126908247D01*
X122418977Y-126847771D02*
X122721358Y-128117771D01*
X122721358Y-128117771D02*
X122963263Y-127210628D01*
X122963263Y-127210628D02*
X123205168Y-128117771D01*
X123205168Y-128117771D02*
X123507549Y-126847771D01*
X124656597Y-128117771D02*
X123930882Y-128117771D01*
X124293739Y-128117771D02*
X124293739Y-126847771D01*
X124293739Y-126847771D02*
X124172787Y-127029199D01*
X124172787Y-127029199D02*
X124051835Y-127150152D01*
X124051835Y-127150152D02*
X123930882Y-127210628D01*
D11*
X114561905Y-125054819D02*
X114561905Y-124054819D01*
X114561905Y-124054819D02*
X114800000Y-124054819D01*
X114800000Y-124054819D02*
X114942857Y-124102438D01*
X114942857Y-124102438D02*
X115038095Y-124197676D01*
X115038095Y-124197676D02*
X115085714Y-124292914D01*
X115085714Y-124292914D02*
X115133333Y-124483390D01*
X115133333Y-124483390D02*
X115133333Y-124626247D01*
X115133333Y-124626247D02*
X115085714Y-124816723D01*
X115085714Y-124816723D02*
X115038095Y-124911961D01*
X115038095Y-124911961D02*
X114942857Y-125007200D01*
X114942857Y-125007200D02*
X114800000Y-125054819D01*
X114800000Y-125054819D02*
X114561905Y-125054819D01*
X115466667Y-124054819D02*
X116085714Y-124054819D01*
X116085714Y-124054819D02*
X115752381Y-124435771D01*
X115752381Y-124435771D02*
X115895238Y-124435771D01*
X115895238Y-124435771D02*
X115990476Y-124483390D01*
X115990476Y-124483390D02*
X116038095Y-124531009D01*
X116038095Y-124531009D02*
X116085714Y-124626247D01*
X116085714Y-124626247D02*
X116085714Y-124864342D01*
X116085714Y-124864342D02*
X116038095Y-124959580D01*
X116038095Y-124959580D02*
X115990476Y-125007200D01*
X115990476Y-125007200D02*
X115895238Y-125054819D01*
X115895238Y-125054819D02*
X115609524Y-125054819D01*
X115609524Y-125054819D02*
X115514286Y-125007200D01*
X115514286Y-125007200D02*
X115466667Y-124959580D01*
X124654819Y-93725238D02*
X124178628Y-94058571D01*
X124654819Y-94296666D02*
X123654819Y-94296666D01*
X123654819Y-94296666D02*
X123654819Y-93915714D01*
X123654819Y-93915714D02*
X123702438Y-93820476D01*
X123702438Y-93820476D02*
X123750057Y-93772857D01*
X123750057Y-93772857D02*
X123845295Y-93725238D01*
X123845295Y-93725238D02*
X123988152Y-93725238D01*
X123988152Y-93725238D02*
X124083390Y-93772857D01*
X124083390Y-93772857D02*
X124131009Y-93820476D01*
X124131009Y-93820476D02*
X124178628Y-93915714D01*
X124178628Y-93915714D02*
X124178628Y-94296666D01*
X123750057Y-93344285D02*
X123702438Y-93296666D01*
X123702438Y-93296666D02*
X123654819Y-93201428D01*
X123654819Y-93201428D02*
X123654819Y-92963333D01*
X123654819Y-92963333D02*
X123702438Y-92868095D01*
X123702438Y-92868095D02*
X123750057Y-92820476D01*
X123750057Y-92820476D02*
X123845295Y-92772857D01*
X123845295Y-92772857D02*
X123940533Y-92772857D01*
X123940533Y-92772857D02*
X124083390Y-92820476D01*
X124083390Y-92820476D02*
X124654819Y-93391904D01*
X124654819Y-93391904D02*
X124654819Y-92772857D01*
X123654819Y-92153809D02*
X123654819Y-92058571D01*
X123654819Y-92058571D02*
X123702438Y-91963333D01*
X123702438Y-91963333D02*
X123750057Y-91915714D01*
X123750057Y-91915714D02*
X123845295Y-91868095D01*
X123845295Y-91868095D02*
X124035771Y-91820476D01*
X124035771Y-91820476D02*
X124273866Y-91820476D01*
X124273866Y-91820476D02*
X124464342Y-91868095D01*
X124464342Y-91868095D02*
X124559580Y-91915714D01*
X124559580Y-91915714D02*
X124607200Y-91963333D01*
X124607200Y-91963333D02*
X124654819Y-92058571D01*
X124654819Y-92058571D02*
X124654819Y-92153809D01*
X124654819Y-92153809D02*
X124607200Y-92249047D01*
X124607200Y-92249047D02*
X124559580Y-92296666D01*
X124559580Y-92296666D02*
X124464342Y-92344285D01*
X124464342Y-92344285D02*
X124273866Y-92391904D01*
X124273866Y-92391904D02*
X124035771Y-92391904D01*
X124035771Y-92391904D02*
X123845295Y-92344285D01*
X123845295Y-92344285D02*
X123750057Y-92296666D01*
X123750057Y-92296666D02*
X123702438Y-92249047D01*
X123702438Y-92249047D02*
X123654819Y-92153809D01*
X154359580Y-108135175D02*
X154407200Y-108182794D01*
X154407200Y-108182794D02*
X154454819Y-108325651D01*
X154454819Y-108325651D02*
X154454819Y-108420889D01*
X154454819Y-108420889D02*
X154407200Y-108563746D01*
X154407200Y-108563746D02*
X154311961Y-108658984D01*
X154311961Y-108658984D02*
X154216723Y-108706603D01*
X154216723Y-108706603D02*
X154026247Y-108754222D01*
X154026247Y-108754222D02*
X153883390Y-108754222D01*
X153883390Y-108754222D02*
X153692914Y-108706603D01*
X153692914Y-108706603D02*
X153597676Y-108658984D01*
X153597676Y-108658984D02*
X153502438Y-108563746D01*
X153502438Y-108563746D02*
X153454819Y-108420889D01*
X153454819Y-108420889D02*
X153454819Y-108325651D01*
X153454819Y-108325651D02*
X153502438Y-108182794D01*
X153502438Y-108182794D02*
X153550057Y-108135175D01*
X153454819Y-107801841D02*
X153454819Y-107182794D01*
X153454819Y-107182794D02*
X153835771Y-107516127D01*
X153835771Y-107516127D02*
X153835771Y-107373270D01*
X153835771Y-107373270D02*
X153883390Y-107278032D01*
X153883390Y-107278032D02*
X153931009Y-107230413D01*
X153931009Y-107230413D02*
X154026247Y-107182794D01*
X154026247Y-107182794D02*
X154264342Y-107182794D01*
X154264342Y-107182794D02*
X154359580Y-107230413D01*
X154359580Y-107230413D02*
X154407200Y-107278032D01*
X154407200Y-107278032D02*
X154454819Y-107373270D01*
X154454819Y-107373270D02*
X154454819Y-107658984D01*
X154454819Y-107658984D02*
X154407200Y-107754222D01*
X154407200Y-107754222D02*
X154359580Y-107801841D01*
D13*
X153779171Y-112382180D02*
X152751076Y-112382180D01*
X152751076Y-112382180D02*
X152630124Y-112442657D01*
X152630124Y-112442657D02*
X152569648Y-112503133D01*
X152569648Y-112503133D02*
X152509171Y-112624085D01*
X152509171Y-112624085D02*
X152509171Y-112865990D01*
X152509171Y-112865990D02*
X152569648Y-112986942D01*
X152569648Y-112986942D02*
X152630124Y-113047419D01*
X152630124Y-113047419D02*
X152751076Y-113107895D01*
X152751076Y-113107895D02*
X153779171Y-113107895D01*
X153779171Y-113591704D02*
X153779171Y-114377895D01*
X153779171Y-114377895D02*
X153295362Y-113954561D01*
X153295362Y-113954561D02*
X153295362Y-114135990D01*
X153295362Y-114135990D02*
X153234886Y-114256942D01*
X153234886Y-114256942D02*
X153174409Y-114317418D01*
X153174409Y-114317418D02*
X153053457Y-114377895D01*
X153053457Y-114377895D02*
X152751076Y-114377895D01*
X152751076Y-114377895D02*
X152630124Y-114317418D01*
X152630124Y-114317418D02*
X152569648Y-114256942D01*
X152569648Y-114256942D02*
X152509171Y-114135990D01*
X152509171Y-114135990D02*
X152509171Y-113773133D01*
X152509171Y-113773133D02*
X152569648Y-113652180D01*
X152569648Y-113652180D02*
X152630124Y-113591704D01*
X111790728Y-105876970D02*
X110883585Y-105876970D01*
X110883585Y-105876970D02*
X110702157Y-105816493D01*
X110702157Y-105816493D02*
X110581205Y-105695541D01*
X110581205Y-105695541D02*
X110520728Y-105514112D01*
X110520728Y-105514112D02*
X110520728Y-105393160D01*
X111790728Y-106360779D02*
X111790728Y-107146970D01*
X111790728Y-107146970D02*
X111306919Y-106723636D01*
X111306919Y-106723636D02*
X111306919Y-106905065D01*
X111306919Y-106905065D02*
X111246443Y-107026017D01*
X111246443Y-107026017D02*
X111185966Y-107086493D01*
X111185966Y-107086493D02*
X111065014Y-107146970D01*
X111065014Y-107146970D02*
X110762633Y-107146970D01*
X110762633Y-107146970D02*
X110641681Y-107086493D01*
X110641681Y-107086493D02*
X110581205Y-107026017D01*
X110581205Y-107026017D02*
X110520728Y-106905065D01*
X110520728Y-106905065D02*
X110520728Y-106542208D01*
X110520728Y-106542208D02*
X110581205Y-106421255D01*
X110581205Y-106421255D02*
X110641681Y-106360779D01*
D11*
X124223761Y-85004819D02*
X123890428Y-84528628D01*
X123652333Y-85004819D02*
X123652333Y-84004819D01*
X123652333Y-84004819D02*
X124033285Y-84004819D01*
X124033285Y-84004819D02*
X124128523Y-84052438D01*
X124128523Y-84052438D02*
X124176142Y-84100057D01*
X124176142Y-84100057D02*
X124223761Y-84195295D01*
X124223761Y-84195295D02*
X124223761Y-84338152D01*
X124223761Y-84338152D02*
X124176142Y-84433390D01*
X124176142Y-84433390D02*
X124128523Y-84481009D01*
X124128523Y-84481009D02*
X124033285Y-84528628D01*
X124033285Y-84528628D02*
X123652333Y-84528628D01*
X125176142Y-85004819D02*
X124604714Y-85004819D01*
X124890428Y-85004819D02*
X124890428Y-84004819D01*
X124890428Y-84004819D02*
X124795190Y-84147676D01*
X124795190Y-84147676D02*
X124699952Y-84242914D01*
X124699952Y-84242914D02*
X124604714Y-84290533D01*
X125557095Y-84100057D02*
X125604714Y-84052438D01*
X125604714Y-84052438D02*
X125699952Y-84004819D01*
X125699952Y-84004819D02*
X125938047Y-84004819D01*
X125938047Y-84004819D02*
X126033285Y-84052438D01*
X126033285Y-84052438D02*
X126080904Y-84100057D01*
X126080904Y-84100057D02*
X126128523Y-84195295D01*
X126128523Y-84195295D02*
X126128523Y-84290533D01*
X126128523Y-84290533D02*
X126080904Y-84433390D01*
X126080904Y-84433390D02*
X125509476Y-85004819D01*
X125509476Y-85004819D02*
X126128523Y-85004819D01*
D13*
X113296055Y-97329762D02*
X112026055Y-98176429D01*
X113296055Y-98176429D02*
X112026055Y-97329762D01*
X113296055Y-98478810D02*
X113296055Y-99204524D01*
X112026055Y-98841667D02*
X113296055Y-98841667D01*
X112388912Y-99567381D02*
X112388912Y-100172143D01*
X112026055Y-99446429D02*
X113296055Y-99869762D01*
X113296055Y-99869762D02*
X112026055Y-100293096D01*
X112026055Y-101321190D02*
X112026055Y-100716428D01*
X112026055Y-100716428D02*
X113296055Y-100716428D01*
X112026055Y-102409762D02*
X112026055Y-101684047D01*
X112026055Y-102046904D02*
X113296055Y-102046904D01*
X113296055Y-102046904D02*
X113114627Y-101925952D01*
X113114627Y-101925952D02*
X112993674Y-101805000D01*
X112993674Y-101805000D02*
X112933198Y-101684047D01*
D11*
X139454819Y-100810475D02*
X138978628Y-101143808D01*
X139454819Y-101381903D02*
X138454819Y-101381903D01*
X138454819Y-101381903D02*
X138454819Y-101000951D01*
X138454819Y-101000951D02*
X138502438Y-100905713D01*
X138502438Y-100905713D02*
X138550057Y-100858094D01*
X138550057Y-100858094D02*
X138645295Y-100810475D01*
X138645295Y-100810475D02*
X138788152Y-100810475D01*
X138788152Y-100810475D02*
X138883390Y-100858094D01*
X138883390Y-100858094D02*
X138931009Y-100905713D01*
X138931009Y-100905713D02*
X138978628Y-101000951D01*
X138978628Y-101000951D02*
X138978628Y-101381903D01*
X139454819Y-100334284D02*
X139454819Y-100143808D01*
X139454819Y-100143808D02*
X139407200Y-100048570D01*
X139407200Y-100048570D02*
X139359580Y-100000951D01*
X139359580Y-100000951D02*
X139216723Y-99905713D01*
X139216723Y-99905713D02*
X139026247Y-99858094D01*
X139026247Y-99858094D02*
X138645295Y-99858094D01*
X138645295Y-99858094D02*
X138550057Y-99905713D01*
X138550057Y-99905713D02*
X138502438Y-99953332D01*
X138502438Y-99953332D02*
X138454819Y-100048570D01*
X138454819Y-100048570D02*
X138454819Y-100239046D01*
X138454819Y-100239046D02*
X138502438Y-100334284D01*
X138502438Y-100334284D02*
X138550057Y-100381903D01*
X138550057Y-100381903D02*
X138645295Y-100429522D01*
X138645295Y-100429522D02*
X138883390Y-100429522D01*
X138883390Y-100429522D02*
X138978628Y-100381903D01*
X138978628Y-100381903D02*
X139026247Y-100334284D01*
X139026247Y-100334284D02*
X139073866Y-100239046D01*
X139073866Y-100239046D02*
X139073866Y-100048570D01*
X139073866Y-100048570D02*
X139026247Y-99953332D01*
X139026247Y-99953332D02*
X138978628Y-99905713D01*
X138978628Y-99905713D02*
X138883390Y-99858094D01*
X173137557Y-90087738D02*
X173089938Y-90182976D01*
X173089938Y-90182976D02*
X172994700Y-90278214D01*
X172994700Y-90278214D02*
X172851842Y-90421071D01*
X172851842Y-90421071D02*
X172804223Y-90516309D01*
X172804223Y-90516309D02*
X172804223Y-90611547D01*
X173042319Y-90563928D02*
X172994700Y-90659166D01*
X172994700Y-90659166D02*
X172899461Y-90754404D01*
X172899461Y-90754404D02*
X172708985Y-90802023D01*
X172708985Y-90802023D02*
X172375652Y-90802023D01*
X172375652Y-90802023D02*
X172185176Y-90754404D01*
X172185176Y-90754404D02*
X172089938Y-90659166D01*
X172089938Y-90659166D02*
X172042319Y-90563928D01*
X172042319Y-90563928D02*
X172042319Y-90373452D01*
X172042319Y-90373452D02*
X172089938Y-90278214D01*
X172089938Y-90278214D02*
X172185176Y-90182976D01*
X172185176Y-90182976D02*
X172375652Y-90135357D01*
X172375652Y-90135357D02*
X172708985Y-90135357D01*
X172708985Y-90135357D02*
X172899461Y-90182976D01*
X172899461Y-90182976D02*
X172994700Y-90278214D01*
X172994700Y-90278214D02*
X173042319Y-90373452D01*
X173042319Y-90373452D02*
X173042319Y-90563928D01*
X172042319Y-89802023D02*
X172042319Y-89182976D01*
X172042319Y-89182976D02*
X172423271Y-89516309D01*
X172423271Y-89516309D02*
X172423271Y-89373452D01*
X172423271Y-89373452D02*
X172470890Y-89278214D01*
X172470890Y-89278214D02*
X172518509Y-89230595D01*
X172518509Y-89230595D02*
X172613747Y-89182976D01*
X172613747Y-89182976D02*
X172851842Y-89182976D01*
X172851842Y-89182976D02*
X172947080Y-89230595D01*
X172947080Y-89230595D02*
X172994700Y-89278214D01*
X172994700Y-89278214D02*
X173042319Y-89373452D01*
X173042319Y-89373452D02*
X173042319Y-89659166D01*
X173042319Y-89659166D02*
X172994700Y-89754404D01*
X172994700Y-89754404D02*
X172947080Y-89802023D01*
X111469642Y-82651569D02*
X111136309Y-82175378D01*
X110898214Y-82651569D02*
X110898214Y-81651569D01*
X110898214Y-81651569D02*
X111279166Y-81651569D01*
X111279166Y-81651569D02*
X111374404Y-81699188D01*
X111374404Y-81699188D02*
X111422023Y-81746807D01*
X111422023Y-81746807D02*
X111469642Y-81842045D01*
X111469642Y-81842045D02*
X111469642Y-81984902D01*
X111469642Y-81984902D02*
X111422023Y-82080140D01*
X111422023Y-82080140D02*
X111374404Y-82127759D01*
X111374404Y-82127759D02*
X111279166Y-82175378D01*
X111279166Y-82175378D02*
X110898214Y-82175378D01*
X112422023Y-82651569D02*
X111850595Y-82651569D01*
X112136309Y-82651569D02*
X112136309Y-81651569D01*
X112136309Y-81651569D02*
X112041071Y-81794426D01*
X112041071Y-81794426D02*
X111945833Y-81889664D01*
X111945833Y-81889664D02*
X111850595Y-81937283D01*
X113279166Y-81984902D02*
X113279166Y-82651569D01*
X113041071Y-81603950D02*
X112802976Y-82318235D01*
X112802976Y-82318235D02*
X113422023Y-82318235D01*
X175754819Y-88160476D02*
X175278628Y-88493809D01*
X175754819Y-88731904D02*
X174754819Y-88731904D01*
X174754819Y-88731904D02*
X174754819Y-88350952D01*
X174754819Y-88350952D02*
X174802438Y-88255714D01*
X174802438Y-88255714D02*
X174850057Y-88208095D01*
X174850057Y-88208095D02*
X174945295Y-88160476D01*
X174945295Y-88160476D02*
X175088152Y-88160476D01*
X175088152Y-88160476D02*
X175183390Y-88208095D01*
X175183390Y-88208095D02*
X175231009Y-88255714D01*
X175231009Y-88255714D02*
X175278628Y-88350952D01*
X175278628Y-88350952D02*
X175278628Y-88731904D01*
X175754819Y-87208095D02*
X175754819Y-87779523D01*
X175754819Y-87493809D02*
X174754819Y-87493809D01*
X174754819Y-87493809D02*
X174897676Y-87589047D01*
X174897676Y-87589047D02*
X174992914Y-87684285D01*
X174992914Y-87684285D02*
X175040533Y-87779523D01*
X175754819Y-86731904D02*
X175754819Y-86541428D01*
X175754819Y-86541428D02*
X175707200Y-86446190D01*
X175707200Y-86446190D02*
X175659580Y-86398571D01*
X175659580Y-86398571D02*
X175516723Y-86303333D01*
X175516723Y-86303333D02*
X175326247Y-86255714D01*
X175326247Y-86255714D02*
X174945295Y-86255714D01*
X174945295Y-86255714D02*
X174850057Y-86303333D01*
X174850057Y-86303333D02*
X174802438Y-86350952D01*
X174802438Y-86350952D02*
X174754819Y-86446190D01*
X174754819Y-86446190D02*
X174754819Y-86636666D01*
X174754819Y-86636666D02*
X174802438Y-86731904D01*
X174802438Y-86731904D02*
X174850057Y-86779523D01*
X174850057Y-86779523D02*
X174945295Y-86827142D01*
X174945295Y-86827142D02*
X175183390Y-86827142D01*
X175183390Y-86827142D02*
X175278628Y-86779523D01*
X175278628Y-86779523D02*
X175326247Y-86731904D01*
X175326247Y-86731904D02*
X175373866Y-86636666D01*
X175373866Y-86636666D02*
X175373866Y-86446190D01*
X175373866Y-86446190D02*
X175326247Y-86350952D01*
X175326247Y-86350952D02*
X175278628Y-86303333D01*
X175278628Y-86303333D02*
X175183390Y-86255714D01*
X146174761Y-92359580D02*
X146127142Y-92407200D01*
X146127142Y-92407200D02*
X145984285Y-92454819D01*
X145984285Y-92454819D02*
X145889047Y-92454819D01*
X145889047Y-92454819D02*
X145746190Y-92407200D01*
X145746190Y-92407200D02*
X145650952Y-92311961D01*
X145650952Y-92311961D02*
X145603333Y-92216723D01*
X145603333Y-92216723D02*
X145555714Y-92026247D01*
X145555714Y-92026247D02*
X145555714Y-91883390D01*
X145555714Y-91883390D02*
X145603333Y-91692914D01*
X145603333Y-91692914D02*
X145650952Y-91597676D01*
X145650952Y-91597676D02*
X145746190Y-91502438D01*
X145746190Y-91502438D02*
X145889047Y-91454819D01*
X145889047Y-91454819D02*
X145984285Y-91454819D01*
X145984285Y-91454819D02*
X146127142Y-91502438D01*
X146127142Y-91502438D02*
X146174761Y-91550057D01*
X146555714Y-91550057D02*
X146603333Y-91502438D01*
X146603333Y-91502438D02*
X146698571Y-91454819D01*
X146698571Y-91454819D02*
X146936666Y-91454819D01*
X146936666Y-91454819D02*
X147031904Y-91502438D01*
X147031904Y-91502438D02*
X147079523Y-91550057D01*
X147079523Y-91550057D02*
X147127142Y-91645295D01*
X147127142Y-91645295D02*
X147127142Y-91740533D01*
X147127142Y-91740533D02*
X147079523Y-91883390D01*
X147079523Y-91883390D02*
X146508095Y-92454819D01*
X146508095Y-92454819D02*
X147127142Y-92454819D01*
X147746190Y-91454819D02*
X147841428Y-91454819D01*
X147841428Y-91454819D02*
X147936666Y-91502438D01*
X147936666Y-91502438D02*
X147984285Y-91550057D01*
X147984285Y-91550057D02*
X148031904Y-91645295D01*
X148031904Y-91645295D02*
X148079523Y-91835771D01*
X148079523Y-91835771D02*
X148079523Y-92073866D01*
X148079523Y-92073866D02*
X148031904Y-92264342D01*
X148031904Y-92264342D02*
X147984285Y-92359580D01*
X147984285Y-92359580D02*
X147936666Y-92407200D01*
X147936666Y-92407200D02*
X147841428Y-92454819D01*
X147841428Y-92454819D02*
X147746190Y-92454819D01*
X147746190Y-92454819D02*
X147650952Y-92407200D01*
X147650952Y-92407200D02*
X147603333Y-92359580D01*
X147603333Y-92359580D02*
X147555714Y-92264342D01*
X147555714Y-92264342D02*
X147508095Y-92073866D01*
X147508095Y-92073866D02*
X147508095Y-91835771D01*
X147508095Y-91835771D02*
X147555714Y-91645295D01*
X147555714Y-91645295D02*
X147603333Y-91550057D01*
X147603333Y-91550057D02*
X147650952Y-91502438D01*
X147650952Y-91502438D02*
X147746190Y-91454819D01*
X120757142Y-125958069D02*
X120423809Y-125481878D01*
X120185714Y-125958069D02*
X120185714Y-124958069D01*
X120185714Y-124958069D02*
X120566666Y-124958069D01*
X120566666Y-124958069D02*
X120661904Y-125005688D01*
X120661904Y-125005688D02*
X120709523Y-125053307D01*
X120709523Y-125053307D02*
X120757142Y-125148545D01*
X120757142Y-125148545D02*
X120757142Y-125291402D01*
X120757142Y-125291402D02*
X120709523Y-125386640D01*
X120709523Y-125386640D02*
X120661904Y-125434259D01*
X120661904Y-125434259D02*
X120566666Y-125481878D01*
X120566666Y-125481878D02*
X120185714Y-125481878D01*
X121709523Y-125958069D02*
X121138095Y-125958069D01*
X121423809Y-125958069D02*
X121423809Y-124958069D01*
X121423809Y-124958069D02*
X121328571Y-125100926D01*
X121328571Y-125100926D02*
X121233333Y-125196164D01*
X121233333Y-125196164D02*
X121138095Y-125243783D01*
X122614285Y-124958069D02*
X122138095Y-124958069D01*
X122138095Y-124958069D02*
X122090476Y-125434259D01*
X122090476Y-125434259D02*
X122138095Y-125386640D01*
X122138095Y-125386640D02*
X122233333Y-125339021D01*
X122233333Y-125339021D02*
X122471428Y-125339021D01*
X122471428Y-125339021D02*
X122566666Y-125386640D01*
X122566666Y-125386640D02*
X122614285Y-125434259D01*
X122614285Y-125434259D02*
X122661904Y-125529497D01*
X122661904Y-125529497D02*
X122661904Y-125767592D01*
X122661904Y-125767592D02*
X122614285Y-125862830D01*
X122614285Y-125862830D02*
X122566666Y-125910450D01*
X122566666Y-125910450D02*
X122471428Y-125958069D01*
X122471428Y-125958069D02*
X122233333Y-125958069D01*
X122233333Y-125958069D02*
X122138095Y-125910450D01*
X122138095Y-125910450D02*
X122090476Y-125862830D01*
D14*
X165160959Y-91514100D02*
X165089530Y-91656958D01*
X165089530Y-91656958D02*
X165089530Y-91871243D01*
X165089530Y-91871243D02*
X165160959Y-92085529D01*
X165160959Y-92085529D02*
X165303816Y-92228386D01*
X165303816Y-92228386D02*
X165446673Y-92299815D01*
X165446673Y-92299815D02*
X165732387Y-92371243D01*
X165732387Y-92371243D02*
X165946673Y-92371243D01*
X165946673Y-92371243D02*
X166232387Y-92299815D01*
X166232387Y-92299815D02*
X166375244Y-92228386D01*
X166375244Y-92228386D02*
X166518102Y-92085529D01*
X166518102Y-92085529D02*
X166589530Y-91871243D01*
X166589530Y-91871243D02*
X166589530Y-91728386D01*
X166589530Y-91728386D02*
X166518102Y-91514100D01*
X166518102Y-91514100D02*
X166446673Y-91442672D01*
X166446673Y-91442672D02*
X165946673Y-91442672D01*
X165946673Y-91442672D02*
X165946673Y-91728386D01*
X165089530Y-90585529D02*
X165446673Y-90585529D01*
X165303816Y-90942672D02*
X165446673Y-90585529D01*
X165446673Y-90585529D02*
X165303816Y-90228386D01*
X165732387Y-90799815D02*
X165446673Y-90585529D01*
X165446673Y-90585529D02*
X165732387Y-90371243D01*
X165089530Y-89442672D02*
X165446673Y-89442672D01*
X165303816Y-89799815D02*
X165446673Y-89442672D01*
X165446673Y-89442672D02*
X165303816Y-89085529D01*
X165732387Y-89656958D02*
X165446673Y-89442672D01*
X165446673Y-89442672D02*
X165732387Y-89228386D01*
X165089530Y-88299815D02*
X165446673Y-88299815D01*
X165303816Y-88656958D02*
X165446673Y-88299815D01*
X165446673Y-88299815D02*
X165303816Y-87942672D01*
X165732387Y-88514101D02*
X165446673Y-88299815D01*
X165446673Y-88299815D02*
X165732387Y-88085529D01*
D11*
X144254819Y-109135375D02*
X143778628Y-109468708D01*
X144254819Y-109706803D02*
X143254819Y-109706803D01*
X143254819Y-109706803D02*
X143254819Y-109325851D01*
X143254819Y-109325851D02*
X143302438Y-109230613D01*
X143302438Y-109230613D02*
X143350057Y-109182994D01*
X143350057Y-109182994D02*
X143445295Y-109135375D01*
X143445295Y-109135375D02*
X143588152Y-109135375D01*
X143588152Y-109135375D02*
X143683390Y-109182994D01*
X143683390Y-109182994D02*
X143731009Y-109230613D01*
X143731009Y-109230613D02*
X143778628Y-109325851D01*
X143778628Y-109325851D02*
X143778628Y-109706803D01*
X143350057Y-108754422D02*
X143302438Y-108706803D01*
X143302438Y-108706803D02*
X143254819Y-108611565D01*
X143254819Y-108611565D02*
X143254819Y-108373470D01*
X143254819Y-108373470D02*
X143302438Y-108278232D01*
X143302438Y-108278232D02*
X143350057Y-108230613D01*
X143350057Y-108230613D02*
X143445295Y-108182994D01*
X143445295Y-108182994D02*
X143540533Y-108182994D01*
X143540533Y-108182994D02*
X143683390Y-108230613D01*
X143683390Y-108230613D02*
X144254819Y-108802041D01*
X144254819Y-108802041D02*
X144254819Y-108182994D01*
X127204761Y-92323307D02*
X127109523Y-92275688D01*
X127109523Y-92275688D02*
X127014285Y-92180450D01*
X127014285Y-92180450D02*
X126871428Y-92037592D01*
X126871428Y-92037592D02*
X126776190Y-91989973D01*
X126776190Y-91989973D02*
X126680952Y-91989973D01*
X126728571Y-92228069D02*
X126633333Y-92180450D01*
X126633333Y-92180450D02*
X126538095Y-92085211D01*
X126538095Y-92085211D02*
X126490476Y-91894735D01*
X126490476Y-91894735D02*
X126490476Y-91561402D01*
X126490476Y-91561402D02*
X126538095Y-91370926D01*
X126538095Y-91370926D02*
X126633333Y-91275688D01*
X126633333Y-91275688D02*
X126728571Y-91228069D01*
X126728571Y-91228069D02*
X126919047Y-91228069D01*
X126919047Y-91228069D02*
X127014285Y-91275688D01*
X127014285Y-91275688D02*
X127109523Y-91370926D01*
X127109523Y-91370926D02*
X127157142Y-91561402D01*
X127157142Y-91561402D02*
X127157142Y-91894735D01*
X127157142Y-91894735D02*
X127109523Y-92085211D01*
X127109523Y-92085211D02*
X127014285Y-92180450D01*
X127014285Y-92180450D02*
X126919047Y-92228069D01*
X126919047Y-92228069D02*
X126728571Y-92228069D01*
X127538095Y-91323307D02*
X127585714Y-91275688D01*
X127585714Y-91275688D02*
X127680952Y-91228069D01*
X127680952Y-91228069D02*
X127919047Y-91228069D01*
X127919047Y-91228069D02*
X128014285Y-91275688D01*
X128014285Y-91275688D02*
X128061904Y-91323307D01*
X128061904Y-91323307D02*
X128109523Y-91418545D01*
X128109523Y-91418545D02*
X128109523Y-91513783D01*
X128109523Y-91513783D02*
X128061904Y-91656640D01*
X128061904Y-91656640D02*
X127490476Y-92228069D01*
X127490476Y-92228069D02*
X128109523Y-92228069D01*
X115433333Y-101756330D02*
X115385714Y-101803950D01*
X115385714Y-101803950D02*
X115242857Y-101851569D01*
X115242857Y-101851569D02*
X115147619Y-101851569D01*
X115147619Y-101851569D02*
X115004762Y-101803950D01*
X115004762Y-101803950D02*
X114909524Y-101708711D01*
X114909524Y-101708711D02*
X114861905Y-101613473D01*
X114861905Y-101613473D02*
X114814286Y-101422997D01*
X114814286Y-101422997D02*
X114814286Y-101280140D01*
X114814286Y-101280140D02*
X114861905Y-101089664D01*
X114861905Y-101089664D02*
X114909524Y-100994426D01*
X114909524Y-100994426D02*
X115004762Y-100899188D01*
X115004762Y-100899188D02*
X115147619Y-100851569D01*
X115147619Y-100851569D02*
X115242857Y-100851569D01*
X115242857Y-100851569D02*
X115385714Y-100899188D01*
X115385714Y-100899188D02*
X115433333Y-100946807D01*
X115766667Y-100851569D02*
X116433333Y-100851569D01*
X116433333Y-100851569D02*
X116004762Y-101851569D01*
X143859580Y-127642857D02*
X143907200Y-127690476D01*
X143907200Y-127690476D02*
X143954819Y-127833333D01*
X143954819Y-127833333D02*
X143954819Y-127928571D01*
X143954819Y-127928571D02*
X143907200Y-128071428D01*
X143907200Y-128071428D02*
X143811961Y-128166666D01*
X143811961Y-128166666D02*
X143716723Y-128214285D01*
X143716723Y-128214285D02*
X143526247Y-128261904D01*
X143526247Y-128261904D02*
X143383390Y-128261904D01*
X143383390Y-128261904D02*
X143192914Y-128214285D01*
X143192914Y-128214285D02*
X143097676Y-128166666D01*
X143097676Y-128166666D02*
X143002438Y-128071428D01*
X143002438Y-128071428D02*
X142954819Y-127928571D01*
X142954819Y-127928571D02*
X142954819Y-127833333D01*
X142954819Y-127833333D02*
X143002438Y-127690476D01*
X143002438Y-127690476D02*
X143050057Y-127642857D01*
X143954819Y-126690476D02*
X143954819Y-127261904D01*
X143954819Y-126976190D02*
X142954819Y-126976190D01*
X142954819Y-126976190D02*
X143097676Y-127071428D01*
X143097676Y-127071428D02*
X143192914Y-127166666D01*
X143192914Y-127166666D02*
X143240533Y-127261904D01*
X143954819Y-125738095D02*
X143954819Y-126309523D01*
X143954819Y-126023809D02*
X142954819Y-126023809D01*
X142954819Y-126023809D02*
X143097676Y-126119047D01*
X143097676Y-126119047D02*
X143192914Y-126214285D01*
X143192914Y-126214285D02*
X143240533Y-126309523D01*
X163466666Y-106261569D02*
X163466666Y-106975854D01*
X163466666Y-106975854D02*
X163419047Y-107118711D01*
X163419047Y-107118711D02*
X163323809Y-107213950D01*
X163323809Y-107213950D02*
X163180952Y-107261569D01*
X163180952Y-107261569D02*
X163085714Y-107261569D01*
X163847619Y-106261569D02*
X164514285Y-106261569D01*
X164514285Y-106261569D02*
X164085714Y-107261569D01*
X151492319Y-92861904D02*
X152301842Y-92861904D01*
X152301842Y-92861904D02*
X152397080Y-92814285D01*
X152397080Y-92814285D02*
X152444700Y-92766666D01*
X152444700Y-92766666D02*
X152492319Y-92671428D01*
X152492319Y-92671428D02*
X152492319Y-92480952D01*
X152492319Y-92480952D02*
X152444700Y-92385714D01*
X152444700Y-92385714D02*
X152397080Y-92338095D01*
X152397080Y-92338095D02*
X152301842Y-92290476D01*
X152301842Y-92290476D02*
X151492319Y-92290476D01*
X151492319Y-91338095D02*
X151492319Y-91814285D01*
X151492319Y-91814285D02*
X151968509Y-91861904D01*
X151968509Y-91861904D02*
X151920890Y-91814285D01*
X151920890Y-91814285D02*
X151873271Y-91719047D01*
X151873271Y-91719047D02*
X151873271Y-91480952D01*
X151873271Y-91480952D02*
X151920890Y-91385714D01*
X151920890Y-91385714D02*
X151968509Y-91338095D01*
X151968509Y-91338095D02*
X152063747Y-91290476D01*
X152063747Y-91290476D02*
X152301842Y-91290476D01*
X152301842Y-91290476D02*
X152397080Y-91338095D01*
X152397080Y-91338095D02*
X152444700Y-91385714D01*
X152444700Y-91385714D02*
X152492319Y-91480952D01*
X152492319Y-91480952D02*
X152492319Y-91719047D01*
X152492319Y-91719047D02*
X152444700Y-91814285D01*
X152444700Y-91814285D02*
X152397080Y-91861904D01*
D13*
X164443333Y-83214848D02*
X164261904Y-83154371D01*
X164261904Y-83154371D02*
X163959523Y-83154371D01*
X163959523Y-83154371D02*
X163838571Y-83214848D01*
X163838571Y-83214848D02*
X163778095Y-83275324D01*
X163778095Y-83275324D02*
X163717618Y-83396276D01*
X163717618Y-83396276D02*
X163717618Y-83517228D01*
X163717618Y-83517228D02*
X163778095Y-83638181D01*
X163778095Y-83638181D02*
X163838571Y-83698657D01*
X163838571Y-83698657D02*
X163959523Y-83759133D01*
X163959523Y-83759133D02*
X164201428Y-83819609D01*
X164201428Y-83819609D02*
X164322380Y-83880086D01*
X164322380Y-83880086D02*
X164382857Y-83940562D01*
X164382857Y-83940562D02*
X164443333Y-84061514D01*
X164443333Y-84061514D02*
X164443333Y-84182467D01*
X164443333Y-84182467D02*
X164382857Y-84303419D01*
X164382857Y-84303419D02*
X164322380Y-84363895D01*
X164322380Y-84363895D02*
X164201428Y-84424371D01*
X164201428Y-84424371D02*
X163899047Y-84424371D01*
X163899047Y-84424371D02*
X163717618Y-84363895D01*
X163294285Y-84424371D02*
X162991904Y-83154371D01*
X162991904Y-83154371D02*
X162749999Y-84061514D01*
X162749999Y-84061514D02*
X162508094Y-83154371D01*
X162508094Y-83154371D02*
X162205714Y-84424371D01*
X161117142Y-84424371D02*
X161721904Y-84424371D01*
X161721904Y-84424371D02*
X161782380Y-83819609D01*
X161782380Y-83819609D02*
X161721904Y-83880086D01*
X161721904Y-83880086D02*
X161600951Y-83940562D01*
X161600951Y-83940562D02*
X161298570Y-83940562D01*
X161298570Y-83940562D02*
X161177618Y-83880086D01*
X161177618Y-83880086D02*
X161117142Y-83819609D01*
X161117142Y-83819609D02*
X161056665Y-83698657D01*
X161056665Y-83698657D02*
X161056665Y-83396276D01*
X161056665Y-83396276D02*
X161117142Y-83275324D01*
X161117142Y-83275324D02*
X161177618Y-83214848D01*
X161177618Y-83214848D02*
X161298570Y-83154371D01*
X161298570Y-83154371D02*
X161600951Y-83154371D01*
X161600951Y-83154371D02*
X161721904Y-83214848D01*
X161721904Y-83214848D02*
X161782380Y-83275324D01*
D11*
X178274819Y-120614284D02*
X177274819Y-120614284D01*
X178274819Y-120042856D02*
X177703390Y-120471427D01*
X177274819Y-120042856D02*
X177846247Y-120614284D01*
X178274819Y-119090475D02*
X178274819Y-119661903D01*
X178274819Y-119376189D02*
X177274819Y-119376189D01*
X177274819Y-119376189D02*
X177417676Y-119471427D01*
X177417676Y-119471427D02*
X177512914Y-119566665D01*
X177512914Y-119566665D02*
X177560533Y-119661903D01*
D13*
X134282871Y-106253535D02*
X135190014Y-106253535D01*
X135190014Y-106253535D02*
X135371442Y-106314012D01*
X135371442Y-106314012D02*
X135492395Y-106434964D01*
X135492395Y-106434964D02*
X135552871Y-106616393D01*
X135552871Y-106616393D02*
X135552871Y-106737345D01*
X134706204Y-105104488D02*
X135552871Y-105104488D01*
X134222395Y-105406869D02*
X135129537Y-105709250D01*
X135129537Y-105709250D02*
X135129537Y-104923059D01*
D11*
X150657142Y-82536330D02*
X150609523Y-82583950D01*
X150609523Y-82583950D02*
X150466666Y-82631569D01*
X150466666Y-82631569D02*
X150371428Y-82631569D01*
X150371428Y-82631569D02*
X150228571Y-82583950D01*
X150228571Y-82583950D02*
X150133333Y-82488711D01*
X150133333Y-82488711D02*
X150085714Y-82393473D01*
X150085714Y-82393473D02*
X150038095Y-82202997D01*
X150038095Y-82202997D02*
X150038095Y-82060140D01*
X150038095Y-82060140D02*
X150085714Y-81869664D01*
X150085714Y-81869664D02*
X150133333Y-81774426D01*
X150133333Y-81774426D02*
X150228571Y-81679188D01*
X150228571Y-81679188D02*
X150371428Y-81631569D01*
X150371428Y-81631569D02*
X150466666Y-81631569D01*
X150466666Y-81631569D02*
X150609523Y-81679188D01*
X150609523Y-81679188D02*
X150657142Y-81726807D01*
X151038095Y-81726807D02*
X151085714Y-81679188D01*
X151085714Y-81679188D02*
X151180952Y-81631569D01*
X151180952Y-81631569D02*
X151419047Y-81631569D01*
X151419047Y-81631569D02*
X151514285Y-81679188D01*
X151514285Y-81679188D02*
X151561904Y-81726807D01*
X151561904Y-81726807D02*
X151609523Y-81822045D01*
X151609523Y-81822045D02*
X151609523Y-81917283D01*
X151609523Y-81917283D02*
X151561904Y-82060140D01*
X151561904Y-82060140D02*
X150990476Y-82631569D01*
X150990476Y-82631569D02*
X151609523Y-82631569D01*
X151990476Y-81726807D02*
X152038095Y-81679188D01*
X152038095Y-81679188D02*
X152133333Y-81631569D01*
X152133333Y-81631569D02*
X152371428Y-81631569D01*
X152371428Y-81631569D02*
X152466666Y-81679188D01*
X152466666Y-81679188D02*
X152514285Y-81726807D01*
X152514285Y-81726807D02*
X152561904Y-81822045D01*
X152561904Y-81822045D02*
X152561904Y-81917283D01*
X152561904Y-81917283D02*
X152514285Y-82060140D01*
X152514285Y-82060140D02*
X151942857Y-82631569D01*
X151942857Y-82631569D02*
X152561904Y-82631569D01*
X133004761Y-92323307D02*
X132909523Y-92275688D01*
X132909523Y-92275688D02*
X132814285Y-92180450D01*
X132814285Y-92180450D02*
X132671428Y-92037592D01*
X132671428Y-92037592D02*
X132576190Y-91989973D01*
X132576190Y-91989973D02*
X132480952Y-91989973D01*
X132528571Y-92228069D02*
X132433333Y-92180450D01*
X132433333Y-92180450D02*
X132338095Y-92085211D01*
X132338095Y-92085211D02*
X132290476Y-91894735D01*
X132290476Y-91894735D02*
X132290476Y-91561402D01*
X132290476Y-91561402D02*
X132338095Y-91370926D01*
X132338095Y-91370926D02*
X132433333Y-91275688D01*
X132433333Y-91275688D02*
X132528571Y-91228069D01*
X132528571Y-91228069D02*
X132719047Y-91228069D01*
X132719047Y-91228069D02*
X132814285Y-91275688D01*
X132814285Y-91275688D02*
X132909523Y-91370926D01*
X132909523Y-91370926D02*
X132957142Y-91561402D01*
X132957142Y-91561402D02*
X132957142Y-91894735D01*
X132957142Y-91894735D02*
X132909523Y-92085211D01*
X132909523Y-92085211D02*
X132814285Y-92180450D01*
X132814285Y-92180450D02*
X132719047Y-92228069D01*
X132719047Y-92228069D02*
X132528571Y-92228069D01*
X133909523Y-92228069D02*
X133338095Y-92228069D01*
X133623809Y-92228069D02*
X133623809Y-91228069D01*
X133623809Y-91228069D02*
X133528571Y-91370926D01*
X133528571Y-91370926D02*
X133433333Y-91466164D01*
X133433333Y-91466164D02*
X133338095Y-91513783D01*
X121359580Y-108135175D02*
X121407200Y-108182794D01*
X121407200Y-108182794D02*
X121454819Y-108325651D01*
X121454819Y-108325651D02*
X121454819Y-108420889D01*
X121454819Y-108420889D02*
X121407200Y-108563746D01*
X121407200Y-108563746D02*
X121311961Y-108658984D01*
X121311961Y-108658984D02*
X121216723Y-108706603D01*
X121216723Y-108706603D02*
X121026247Y-108754222D01*
X121026247Y-108754222D02*
X120883390Y-108754222D01*
X120883390Y-108754222D02*
X120692914Y-108706603D01*
X120692914Y-108706603D02*
X120597676Y-108658984D01*
X120597676Y-108658984D02*
X120502438Y-108563746D01*
X120502438Y-108563746D02*
X120454819Y-108420889D01*
X120454819Y-108420889D02*
X120454819Y-108325651D01*
X120454819Y-108325651D02*
X120502438Y-108182794D01*
X120502438Y-108182794D02*
X120550057Y-108135175D01*
X121454819Y-107182794D02*
X121454819Y-107754222D01*
X121454819Y-107468508D02*
X120454819Y-107468508D01*
X120454819Y-107468508D02*
X120597676Y-107563746D01*
X120597676Y-107563746D02*
X120692914Y-107658984D01*
X120692914Y-107658984D02*
X120740533Y-107754222D01*
X130459580Y-124560475D02*
X130507200Y-124608094D01*
X130507200Y-124608094D02*
X130554819Y-124750951D01*
X130554819Y-124750951D02*
X130554819Y-124846189D01*
X130554819Y-124846189D02*
X130507200Y-124989046D01*
X130507200Y-124989046D02*
X130411961Y-125084284D01*
X130411961Y-125084284D02*
X130316723Y-125131903D01*
X130316723Y-125131903D02*
X130126247Y-125179522D01*
X130126247Y-125179522D02*
X129983390Y-125179522D01*
X129983390Y-125179522D02*
X129792914Y-125131903D01*
X129792914Y-125131903D02*
X129697676Y-125084284D01*
X129697676Y-125084284D02*
X129602438Y-124989046D01*
X129602438Y-124989046D02*
X129554819Y-124846189D01*
X129554819Y-124846189D02*
X129554819Y-124750951D01*
X129554819Y-124750951D02*
X129602438Y-124608094D01*
X129602438Y-124608094D02*
X129650057Y-124560475D01*
X129554819Y-123655713D02*
X129554819Y-124131903D01*
X129554819Y-124131903D02*
X130031009Y-124179522D01*
X130031009Y-124179522D02*
X129983390Y-124131903D01*
X129983390Y-124131903D02*
X129935771Y-124036665D01*
X129935771Y-124036665D02*
X129935771Y-123798570D01*
X129935771Y-123798570D02*
X129983390Y-123703332D01*
X129983390Y-123703332D02*
X130031009Y-123655713D01*
X130031009Y-123655713D02*
X130126247Y-123608094D01*
X130126247Y-123608094D02*
X130364342Y-123608094D01*
X130364342Y-123608094D02*
X130459580Y-123655713D01*
X130459580Y-123655713D02*
X130507200Y-123703332D01*
X130507200Y-123703332D02*
X130554819Y-123798570D01*
X130554819Y-123798570D02*
X130554819Y-124036665D01*
X130554819Y-124036665D02*
X130507200Y-124131903D01*
X130507200Y-124131903D02*
X130459580Y-124179522D01*
X126056330Y-105242857D02*
X126103950Y-105290476D01*
X126103950Y-105290476D02*
X126151569Y-105433333D01*
X126151569Y-105433333D02*
X126151569Y-105528571D01*
X126151569Y-105528571D02*
X126103950Y-105671428D01*
X126103950Y-105671428D02*
X126008711Y-105766666D01*
X126008711Y-105766666D02*
X125913473Y-105814285D01*
X125913473Y-105814285D02*
X125722997Y-105861904D01*
X125722997Y-105861904D02*
X125580140Y-105861904D01*
X125580140Y-105861904D02*
X125389664Y-105814285D01*
X125389664Y-105814285D02*
X125294426Y-105766666D01*
X125294426Y-105766666D02*
X125199188Y-105671428D01*
X125199188Y-105671428D02*
X125151569Y-105528571D01*
X125151569Y-105528571D02*
X125151569Y-105433333D01*
X125151569Y-105433333D02*
X125199188Y-105290476D01*
X125199188Y-105290476D02*
X125246807Y-105242857D01*
X125246807Y-104861904D02*
X125199188Y-104814285D01*
X125199188Y-104814285D02*
X125151569Y-104719047D01*
X125151569Y-104719047D02*
X125151569Y-104480952D01*
X125151569Y-104480952D02*
X125199188Y-104385714D01*
X125199188Y-104385714D02*
X125246807Y-104338095D01*
X125246807Y-104338095D02*
X125342045Y-104290476D01*
X125342045Y-104290476D02*
X125437283Y-104290476D01*
X125437283Y-104290476D02*
X125580140Y-104338095D01*
X125580140Y-104338095D02*
X126151569Y-104909523D01*
X126151569Y-104909523D02*
X126151569Y-104290476D01*
X125151569Y-103385714D02*
X125151569Y-103861904D01*
X125151569Y-103861904D02*
X125627759Y-103909523D01*
X125627759Y-103909523D02*
X125580140Y-103861904D01*
X125580140Y-103861904D02*
X125532521Y-103766666D01*
X125532521Y-103766666D02*
X125532521Y-103528571D01*
X125532521Y-103528571D02*
X125580140Y-103433333D01*
X125580140Y-103433333D02*
X125627759Y-103385714D01*
X125627759Y-103385714D02*
X125722997Y-103338095D01*
X125722997Y-103338095D02*
X125961092Y-103338095D01*
X125961092Y-103338095D02*
X126056330Y-103385714D01*
X126056330Y-103385714D02*
X126103950Y-103433333D01*
X126103950Y-103433333D02*
X126151569Y-103528571D01*
X126151569Y-103528571D02*
X126151569Y-103766666D01*
X126151569Y-103766666D02*
X126103950Y-103861904D01*
X126103950Y-103861904D02*
X126056330Y-103909523D01*
X130561905Y-123404819D02*
X130561905Y-122404819D01*
X130561905Y-122404819D02*
X130800000Y-122404819D01*
X130800000Y-122404819D02*
X130942857Y-122452438D01*
X130942857Y-122452438D02*
X131038095Y-122547676D01*
X131038095Y-122547676D02*
X131085714Y-122642914D01*
X131085714Y-122642914D02*
X131133333Y-122833390D01*
X131133333Y-122833390D02*
X131133333Y-122976247D01*
X131133333Y-122976247D02*
X131085714Y-123166723D01*
X131085714Y-123166723D02*
X131038095Y-123261961D01*
X131038095Y-123261961D02*
X130942857Y-123357200D01*
X130942857Y-123357200D02*
X130800000Y-123404819D01*
X130800000Y-123404819D02*
X130561905Y-123404819D01*
X131990476Y-122738152D02*
X131990476Y-123404819D01*
X131752381Y-122357200D02*
X131514286Y-123071485D01*
X131514286Y-123071485D02*
X132133333Y-123071485D01*
X131956330Y-105242857D02*
X132003950Y-105290476D01*
X132003950Y-105290476D02*
X132051569Y-105433333D01*
X132051569Y-105433333D02*
X132051569Y-105528571D01*
X132051569Y-105528571D02*
X132003950Y-105671428D01*
X132003950Y-105671428D02*
X131908711Y-105766666D01*
X131908711Y-105766666D02*
X131813473Y-105814285D01*
X131813473Y-105814285D02*
X131622997Y-105861904D01*
X131622997Y-105861904D02*
X131480140Y-105861904D01*
X131480140Y-105861904D02*
X131289664Y-105814285D01*
X131289664Y-105814285D02*
X131194426Y-105766666D01*
X131194426Y-105766666D02*
X131099188Y-105671428D01*
X131099188Y-105671428D02*
X131051569Y-105528571D01*
X131051569Y-105528571D02*
X131051569Y-105433333D01*
X131051569Y-105433333D02*
X131099188Y-105290476D01*
X131099188Y-105290476D02*
X131146807Y-105242857D01*
X131146807Y-104861904D02*
X131099188Y-104814285D01*
X131099188Y-104814285D02*
X131051569Y-104719047D01*
X131051569Y-104719047D02*
X131051569Y-104480952D01*
X131051569Y-104480952D02*
X131099188Y-104385714D01*
X131099188Y-104385714D02*
X131146807Y-104338095D01*
X131146807Y-104338095D02*
X131242045Y-104290476D01*
X131242045Y-104290476D02*
X131337283Y-104290476D01*
X131337283Y-104290476D02*
X131480140Y-104338095D01*
X131480140Y-104338095D02*
X132051569Y-104909523D01*
X132051569Y-104909523D02*
X132051569Y-104290476D01*
X131384902Y-103433333D02*
X132051569Y-103433333D01*
X131003950Y-103671428D02*
X131718235Y-103909523D01*
X131718235Y-103909523D02*
X131718235Y-103290476D01*
X129625595Y-93881569D02*
X129625595Y-94691092D01*
X129625595Y-94691092D02*
X129673214Y-94786330D01*
X129673214Y-94786330D02*
X129720833Y-94833950D01*
X129720833Y-94833950D02*
X129816071Y-94881569D01*
X129816071Y-94881569D02*
X130006547Y-94881569D01*
X130006547Y-94881569D02*
X130101785Y-94833950D01*
X130101785Y-94833950D02*
X130149404Y-94786330D01*
X130149404Y-94786330D02*
X130197023Y-94691092D01*
X130197023Y-94691092D02*
X130197023Y-93881569D01*
X131101785Y-93881569D02*
X130911309Y-93881569D01*
X130911309Y-93881569D02*
X130816071Y-93929188D01*
X130816071Y-93929188D02*
X130768452Y-93976807D01*
X130768452Y-93976807D02*
X130673214Y-94119664D01*
X130673214Y-94119664D02*
X130625595Y-94310140D01*
X130625595Y-94310140D02*
X130625595Y-94691092D01*
X130625595Y-94691092D02*
X130673214Y-94786330D01*
X130673214Y-94786330D02*
X130720833Y-94833950D01*
X130720833Y-94833950D02*
X130816071Y-94881569D01*
X130816071Y-94881569D02*
X131006547Y-94881569D01*
X131006547Y-94881569D02*
X131101785Y-94833950D01*
X131101785Y-94833950D02*
X131149404Y-94786330D01*
X131149404Y-94786330D02*
X131197023Y-94691092D01*
X131197023Y-94691092D02*
X131197023Y-94452997D01*
X131197023Y-94452997D02*
X131149404Y-94357759D01*
X131149404Y-94357759D02*
X131101785Y-94310140D01*
X131101785Y-94310140D02*
X131006547Y-94262521D01*
X131006547Y-94262521D02*
X130816071Y-94262521D01*
X130816071Y-94262521D02*
X130720833Y-94310140D01*
X130720833Y-94310140D02*
X130673214Y-94357759D01*
X130673214Y-94357759D02*
X130625595Y-94452997D01*
X136977142Y-110934280D02*
X136929523Y-110981900D01*
X136929523Y-110981900D02*
X136786666Y-111029519D01*
X136786666Y-111029519D02*
X136691428Y-111029519D01*
X136691428Y-111029519D02*
X136548571Y-110981900D01*
X136548571Y-110981900D02*
X136453333Y-110886661D01*
X136453333Y-110886661D02*
X136405714Y-110791423D01*
X136405714Y-110791423D02*
X136358095Y-110600947D01*
X136358095Y-110600947D02*
X136358095Y-110458090D01*
X136358095Y-110458090D02*
X136405714Y-110267614D01*
X136405714Y-110267614D02*
X136453333Y-110172376D01*
X136453333Y-110172376D02*
X136548571Y-110077138D01*
X136548571Y-110077138D02*
X136691428Y-110029519D01*
X136691428Y-110029519D02*
X136786666Y-110029519D01*
X136786666Y-110029519D02*
X136929523Y-110077138D01*
X136929523Y-110077138D02*
X136977142Y-110124757D01*
X137358095Y-110124757D02*
X137405714Y-110077138D01*
X137405714Y-110077138D02*
X137500952Y-110029519D01*
X137500952Y-110029519D02*
X137739047Y-110029519D01*
X137739047Y-110029519D02*
X137834285Y-110077138D01*
X137834285Y-110077138D02*
X137881904Y-110124757D01*
X137881904Y-110124757D02*
X137929523Y-110219995D01*
X137929523Y-110219995D02*
X137929523Y-110315233D01*
X137929523Y-110315233D02*
X137881904Y-110458090D01*
X137881904Y-110458090D02*
X137310476Y-111029519D01*
X137310476Y-111029519D02*
X137929523Y-111029519D01*
X156683580Y-112740376D02*
X156731200Y-112787995D01*
X156731200Y-112787995D02*
X156778819Y-112930852D01*
X156778819Y-112930852D02*
X156778819Y-113026090D01*
X156778819Y-113026090D02*
X156731200Y-113168947D01*
X156731200Y-113168947D02*
X156635961Y-113264185D01*
X156635961Y-113264185D02*
X156540723Y-113311804D01*
X156540723Y-113311804D02*
X156350247Y-113359423D01*
X156350247Y-113359423D02*
X156207390Y-113359423D01*
X156207390Y-113359423D02*
X156016914Y-113311804D01*
X156016914Y-113311804D02*
X155921676Y-113264185D01*
X155921676Y-113264185D02*
X155826438Y-113168947D01*
X155826438Y-113168947D02*
X155778819Y-113026090D01*
X155778819Y-113026090D02*
X155778819Y-112930852D01*
X155778819Y-112930852D02*
X155826438Y-112787995D01*
X155826438Y-112787995D02*
X155874057Y-112740376D01*
X156778819Y-111787995D02*
X156778819Y-112359423D01*
X156778819Y-112073709D02*
X155778819Y-112073709D01*
X155778819Y-112073709D02*
X155921676Y-112168947D01*
X155921676Y-112168947D02*
X156016914Y-112264185D01*
X156016914Y-112264185D02*
X156064533Y-112359423D01*
X156112152Y-110930852D02*
X156778819Y-110930852D01*
X155731200Y-111168947D02*
X156445485Y-111407042D01*
X156445485Y-111407042D02*
X156445485Y-110787995D01*
D13*
X167881970Y-123239321D02*
X167881970Y-124146464D01*
X167881970Y-124146464D02*
X167821493Y-124327892D01*
X167821493Y-124327892D02*
X167700541Y-124448845D01*
X167700541Y-124448845D02*
X167519112Y-124509321D01*
X167519112Y-124509321D02*
X167398160Y-124509321D01*
X169031017Y-123239321D02*
X168789112Y-123239321D01*
X168789112Y-123239321D02*
X168668160Y-123299797D01*
X168668160Y-123299797D02*
X168607684Y-123360273D01*
X168607684Y-123360273D02*
X168486731Y-123541702D01*
X168486731Y-123541702D02*
X168426255Y-123783606D01*
X168426255Y-123783606D02*
X168426255Y-124267416D01*
X168426255Y-124267416D02*
X168486731Y-124388368D01*
X168486731Y-124388368D02*
X168547208Y-124448845D01*
X168547208Y-124448845D02*
X168668160Y-124509321D01*
X168668160Y-124509321D02*
X168910065Y-124509321D01*
X168910065Y-124509321D02*
X169031017Y-124448845D01*
X169031017Y-124448845D02*
X169091493Y-124388368D01*
X169091493Y-124388368D02*
X169151970Y-124267416D01*
X169151970Y-124267416D02*
X169151970Y-123965035D01*
X169151970Y-123965035D02*
X169091493Y-123844083D01*
X169091493Y-123844083D02*
X169031017Y-123783606D01*
X169031017Y-123783606D02*
X168910065Y-123723130D01*
X168910065Y-123723130D02*
X168668160Y-123723130D01*
X168668160Y-123723130D02*
X168547208Y-123783606D01*
X168547208Y-123783606D02*
X168486731Y-123844083D01*
X168486731Y-123844083D02*
X168426255Y-123965035D01*
D11*
X115433333Y-95756330D02*
X115385714Y-95803950D01*
X115385714Y-95803950D02*
X115242857Y-95851569D01*
X115242857Y-95851569D02*
X115147619Y-95851569D01*
X115147619Y-95851569D02*
X115004762Y-95803950D01*
X115004762Y-95803950D02*
X114909524Y-95708711D01*
X114909524Y-95708711D02*
X114861905Y-95613473D01*
X114861905Y-95613473D02*
X114814286Y-95422997D01*
X114814286Y-95422997D02*
X114814286Y-95280140D01*
X114814286Y-95280140D02*
X114861905Y-95089664D01*
X114861905Y-95089664D02*
X114909524Y-94994426D01*
X114909524Y-94994426D02*
X115004762Y-94899188D01*
X115004762Y-94899188D02*
X115147619Y-94851569D01*
X115147619Y-94851569D02*
X115242857Y-94851569D01*
X115242857Y-94851569D02*
X115385714Y-94899188D01*
X115385714Y-94899188D02*
X115433333Y-94946807D01*
X116290476Y-94851569D02*
X116100000Y-94851569D01*
X116100000Y-94851569D02*
X116004762Y-94899188D01*
X116004762Y-94899188D02*
X115957143Y-94946807D01*
X115957143Y-94946807D02*
X115861905Y-95089664D01*
X115861905Y-95089664D02*
X115814286Y-95280140D01*
X115814286Y-95280140D02*
X115814286Y-95661092D01*
X115814286Y-95661092D02*
X115861905Y-95756330D01*
X115861905Y-95756330D02*
X115909524Y-95803950D01*
X115909524Y-95803950D02*
X116004762Y-95851569D01*
X116004762Y-95851569D02*
X116195238Y-95851569D01*
X116195238Y-95851569D02*
X116290476Y-95803950D01*
X116290476Y-95803950D02*
X116338095Y-95756330D01*
X116338095Y-95756330D02*
X116385714Y-95661092D01*
X116385714Y-95661092D02*
X116385714Y-95422997D01*
X116385714Y-95422997D02*
X116338095Y-95327759D01*
X116338095Y-95327759D02*
X116290476Y-95280140D01*
X116290476Y-95280140D02*
X116195238Y-95232521D01*
X116195238Y-95232521D02*
X116004762Y-95232521D01*
X116004762Y-95232521D02*
X115909524Y-95280140D01*
X115909524Y-95280140D02*
X115861905Y-95327759D01*
X115861905Y-95327759D02*
X115814286Y-95422997D01*
X142383333Y-106951569D02*
X142050000Y-106475378D01*
X141811905Y-106951569D02*
X141811905Y-105951569D01*
X141811905Y-105951569D02*
X142192857Y-105951569D01*
X142192857Y-105951569D02*
X142288095Y-105999188D01*
X142288095Y-105999188D02*
X142335714Y-106046807D01*
X142335714Y-106046807D02*
X142383333Y-106142045D01*
X142383333Y-106142045D02*
X142383333Y-106284902D01*
X142383333Y-106284902D02*
X142335714Y-106380140D01*
X142335714Y-106380140D02*
X142288095Y-106427759D01*
X142288095Y-106427759D02*
X142192857Y-106475378D01*
X142192857Y-106475378D02*
X141811905Y-106475378D01*
X142716667Y-105951569D02*
X143383333Y-105951569D01*
X143383333Y-105951569D02*
X142954762Y-106951569D01*
D13*
X145032871Y-106253535D02*
X145940014Y-106253535D01*
X145940014Y-106253535D02*
X146121442Y-106314012D01*
X146121442Y-106314012D02*
X146242395Y-106434964D01*
X146242395Y-106434964D02*
X146302871Y-106616393D01*
X146302871Y-106616393D02*
X146302871Y-106737345D01*
X145032871Y-105044012D02*
X145032871Y-105648774D01*
X145032871Y-105648774D02*
X145637633Y-105709250D01*
X145637633Y-105709250D02*
X145577156Y-105648774D01*
X145577156Y-105648774D02*
X145516680Y-105527821D01*
X145516680Y-105527821D02*
X145516680Y-105225440D01*
X145516680Y-105225440D02*
X145577156Y-105104488D01*
X145577156Y-105104488D02*
X145637633Y-105044012D01*
X145637633Y-105044012D02*
X145758585Y-104983535D01*
X145758585Y-104983535D02*
X146060966Y-104983535D01*
X146060966Y-104983535D02*
X146181918Y-105044012D01*
X146181918Y-105044012D02*
X146242395Y-105104488D01*
X146242395Y-105104488D02*
X146302871Y-105225440D01*
X146302871Y-105225440D02*
X146302871Y-105527821D01*
X146302871Y-105527821D02*
X146242395Y-105648774D01*
X146242395Y-105648774D02*
X146181918Y-105709250D01*
D11*
X156133333Y-106951569D02*
X155800000Y-106475378D01*
X155561905Y-106951569D02*
X155561905Y-105951569D01*
X155561905Y-105951569D02*
X155942857Y-105951569D01*
X155942857Y-105951569D02*
X156038095Y-105999188D01*
X156038095Y-105999188D02*
X156085714Y-106046807D01*
X156085714Y-106046807D02*
X156133333Y-106142045D01*
X156133333Y-106142045D02*
X156133333Y-106284902D01*
X156133333Y-106284902D02*
X156085714Y-106380140D01*
X156085714Y-106380140D02*
X156038095Y-106427759D01*
X156038095Y-106427759D02*
X155942857Y-106475378D01*
X155942857Y-106475378D02*
X155561905Y-106475378D01*
X156704762Y-106380140D02*
X156609524Y-106332521D01*
X156609524Y-106332521D02*
X156561905Y-106284902D01*
X156561905Y-106284902D02*
X156514286Y-106189664D01*
X156514286Y-106189664D02*
X156514286Y-106142045D01*
X156514286Y-106142045D02*
X156561905Y-106046807D01*
X156561905Y-106046807D02*
X156609524Y-105999188D01*
X156609524Y-105999188D02*
X156704762Y-105951569D01*
X156704762Y-105951569D02*
X156895238Y-105951569D01*
X156895238Y-105951569D02*
X156990476Y-105999188D01*
X156990476Y-105999188D02*
X157038095Y-106046807D01*
X157038095Y-106046807D02*
X157085714Y-106142045D01*
X157085714Y-106142045D02*
X157085714Y-106189664D01*
X157085714Y-106189664D02*
X157038095Y-106284902D01*
X157038095Y-106284902D02*
X156990476Y-106332521D01*
X156990476Y-106332521D02*
X156895238Y-106380140D01*
X156895238Y-106380140D02*
X156704762Y-106380140D01*
X156704762Y-106380140D02*
X156609524Y-106427759D01*
X156609524Y-106427759D02*
X156561905Y-106475378D01*
X156561905Y-106475378D02*
X156514286Y-106570616D01*
X156514286Y-106570616D02*
X156514286Y-106761092D01*
X156514286Y-106761092D02*
X156561905Y-106856330D01*
X156561905Y-106856330D02*
X156609524Y-106903950D01*
X156609524Y-106903950D02*
X156704762Y-106951569D01*
X156704762Y-106951569D02*
X156895238Y-106951569D01*
X156895238Y-106951569D02*
X156990476Y-106903950D01*
X156990476Y-106903950D02*
X157038095Y-106856330D01*
X157038095Y-106856330D02*
X157085714Y-106761092D01*
X157085714Y-106761092D02*
X157085714Y-106570616D01*
X157085714Y-106570616D02*
X157038095Y-106475378D01*
X157038095Y-106475378D02*
X156990476Y-106427759D01*
X156990476Y-106427759D02*
X156895238Y-106380140D01*
X177177142Y-88551569D02*
X176843809Y-88075378D01*
X176605714Y-88551569D02*
X176605714Y-87551569D01*
X176605714Y-87551569D02*
X176986666Y-87551569D01*
X176986666Y-87551569D02*
X177081904Y-87599188D01*
X177081904Y-87599188D02*
X177129523Y-87646807D01*
X177129523Y-87646807D02*
X177177142Y-87742045D01*
X177177142Y-87742045D02*
X177177142Y-87884902D01*
X177177142Y-87884902D02*
X177129523Y-87980140D01*
X177129523Y-87980140D02*
X177081904Y-88027759D01*
X177081904Y-88027759D02*
X176986666Y-88075378D01*
X176986666Y-88075378D02*
X176605714Y-88075378D01*
X178129523Y-88551569D02*
X177558095Y-88551569D01*
X177843809Y-88551569D02*
X177843809Y-87551569D01*
X177843809Y-87551569D02*
X177748571Y-87694426D01*
X177748571Y-87694426D02*
X177653333Y-87789664D01*
X177653333Y-87789664D02*
X177558095Y-87837283D01*
X178700952Y-87980140D02*
X178605714Y-87932521D01*
X178605714Y-87932521D02*
X178558095Y-87884902D01*
X178558095Y-87884902D02*
X178510476Y-87789664D01*
X178510476Y-87789664D02*
X178510476Y-87742045D01*
X178510476Y-87742045D02*
X178558095Y-87646807D01*
X178558095Y-87646807D02*
X178605714Y-87599188D01*
X178605714Y-87599188D02*
X178700952Y-87551569D01*
X178700952Y-87551569D02*
X178891428Y-87551569D01*
X178891428Y-87551569D02*
X178986666Y-87599188D01*
X178986666Y-87599188D02*
X179034285Y-87646807D01*
X179034285Y-87646807D02*
X179081904Y-87742045D01*
X179081904Y-87742045D02*
X179081904Y-87789664D01*
X179081904Y-87789664D02*
X179034285Y-87884902D01*
X179034285Y-87884902D02*
X178986666Y-87932521D01*
X178986666Y-87932521D02*
X178891428Y-87980140D01*
X178891428Y-87980140D02*
X178700952Y-87980140D01*
X178700952Y-87980140D02*
X178605714Y-88027759D01*
X178605714Y-88027759D02*
X178558095Y-88075378D01*
X178558095Y-88075378D02*
X178510476Y-88170616D01*
X178510476Y-88170616D02*
X178510476Y-88361092D01*
X178510476Y-88361092D02*
X178558095Y-88456330D01*
X178558095Y-88456330D02*
X178605714Y-88503950D01*
X178605714Y-88503950D02*
X178700952Y-88551569D01*
X178700952Y-88551569D02*
X178891428Y-88551569D01*
X178891428Y-88551569D02*
X178986666Y-88503950D01*
X178986666Y-88503950D02*
X179034285Y-88456330D01*
X179034285Y-88456330D02*
X179081904Y-88361092D01*
X179081904Y-88361092D02*
X179081904Y-88170616D01*
X179081904Y-88170616D02*
X179034285Y-88075378D01*
X179034285Y-88075378D02*
X178986666Y-88027759D01*
X178986666Y-88027759D02*
X178891428Y-87980140D01*
X111381905Y-87698069D02*
X111381905Y-86698069D01*
X111381905Y-86698069D02*
X111620000Y-86698069D01*
X111620000Y-86698069D02*
X111762857Y-86745688D01*
X111762857Y-86745688D02*
X111858095Y-86840926D01*
X111858095Y-86840926D02*
X111905714Y-86936164D01*
X111905714Y-86936164D02*
X111953333Y-87126640D01*
X111953333Y-87126640D02*
X111953333Y-87269497D01*
X111953333Y-87269497D02*
X111905714Y-87459973D01*
X111905714Y-87459973D02*
X111858095Y-87555211D01*
X111858095Y-87555211D02*
X111762857Y-87650450D01*
X111762857Y-87650450D02*
X111620000Y-87698069D01*
X111620000Y-87698069D02*
X111381905Y-87698069D01*
X112334286Y-86793307D02*
X112381905Y-86745688D01*
X112381905Y-86745688D02*
X112477143Y-86698069D01*
X112477143Y-86698069D02*
X112715238Y-86698069D01*
X112715238Y-86698069D02*
X112810476Y-86745688D01*
X112810476Y-86745688D02*
X112858095Y-86793307D01*
X112858095Y-86793307D02*
X112905714Y-86888545D01*
X112905714Y-86888545D02*
X112905714Y-86983783D01*
X112905714Y-86983783D02*
X112858095Y-87126640D01*
X112858095Y-87126640D02*
X112286667Y-87698069D01*
X112286667Y-87698069D02*
X112905714Y-87698069D01*
X125759580Y-101625238D02*
X125807200Y-101672857D01*
X125807200Y-101672857D02*
X125854819Y-101815714D01*
X125854819Y-101815714D02*
X125854819Y-101910952D01*
X125854819Y-101910952D02*
X125807200Y-102053809D01*
X125807200Y-102053809D02*
X125711961Y-102149047D01*
X125711961Y-102149047D02*
X125616723Y-102196666D01*
X125616723Y-102196666D02*
X125426247Y-102244285D01*
X125426247Y-102244285D02*
X125283390Y-102244285D01*
X125283390Y-102244285D02*
X125092914Y-102196666D01*
X125092914Y-102196666D02*
X124997676Y-102149047D01*
X124997676Y-102149047D02*
X124902438Y-102053809D01*
X124902438Y-102053809D02*
X124854819Y-101910952D01*
X124854819Y-101910952D02*
X124854819Y-101815714D01*
X124854819Y-101815714D02*
X124902438Y-101672857D01*
X124902438Y-101672857D02*
X124950057Y-101625238D01*
X125854819Y-100672857D02*
X125854819Y-101244285D01*
X125854819Y-100958571D02*
X124854819Y-100958571D01*
X124854819Y-100958571D02*
X124997676Y-101053809D01*
X124997676Y-101053809D02*
X125092914Y-101149047D01*
X125092914Y-101149047D02*
X125140533Y-101244285D01*
X124854819Y-99815714D02*
X124854819Y-100006190D01*
X124854819Y-100006190D02*
X124902438Y-100101428D01*
X124902438Y-100101428D02*
X124950057Y-100149047D01*
X124950057Y-100149047D02*
X125092914Y-100244285D01*
X125092914Y-100244285D02*
X125283390Y-100291904D01*
X125283390Y-100291904D02*
X125664342Y-100291904D01*
X125664342Y-100291904D02*
X125759580Y-100244285D01*
X125759580Y-100244285D02*
X125807200Y-100196666D01*
X125807200Y-100196666D02*
X125854819Y-100101428D01*
X125854819Y-100101428D02*
X125854819Y-99910952D01*
X125854819Y-99910952D02*
X125807200Y-99815714D01*
X125807200Y-99815714D02*
X125759580Y-99768095D01*
X125759580Y-99768095D02*
X125664342Y-99720476D01*
X125664342Y-99720476D02*
X125426247Y-99720476D01*
X125426247Y-99720476D02*
X125331009Y-99768095D01*
X125331009Y-99768095D02*
X125283390Y-99815714D01*
X125283390Y-99815714D02*
X125235771Y-99910952D01*
X125235771Y-99910952D02*
X125235771Y-100101428D01*
X125235771Y-100101428D02*
X125283390Y-100196666D01*
X125283390Y-100196666D02*
X125331009Y-100244285D01*
X125331009Y-100244285D02*
X125426247Y-100291904D01*
D13*
X151844029Y-128057295D02*
X152025458Y-128117771D01*
X152025458Y-128117771D02*
X152327839Y-128117771D01*
X152327839Y-128117771D02*
X152448791Y-128057295D01*
X152448791Y-128057295D02*
X152509267Y-127996818D01*
X152509267Y-127996818D02*
X152569744Y-127875866D01*
X152569744Y-127875866D02*
X152569744Y-127754914D01*
X152569744Y-127754914D02*
X152509267Y-127633961D01*
X152509267Y-127633961D02*
X152448791Y-127573485D01*
X152448791Y-127573485D02*
X152327839Y-127513009D01*
X152327839Y-127513009D02*
X152085934Y-127452533D01*
X152085934Y-127452533D02*
X151964982Y-127392056D01*
X151964982Y-127392056D02*
X151904505Y-127331580D01*
X151904505Y-127331580D02*
X151844029Y-127210628D01*
X151844029Y-127210628D02*
X151844029Y-127089675D01*
X151844029Y-127089675D02*
X151904505Y-126968723D01*
X151904505Y-126968723D02*
X151964982Y-126908247D01*
X151964982Y-126908247D02*
X152085934Y-126847771D01*
X152085934Y-126847771D02*
X152388315Y-126847771D01*
X152388315Y-126847771D02*
X152569744Y-126908247D01*
X152993077Y-126847771D02*
X153295458Y-128117771D01*
X153295458Y-128117771D02*
X153537363Y-127210628D01*
X153537363Y-127210628D02*
X153779268Y-128117771D01*
X153779268Y-128117771D02*
X154081649Y-126847771D01*
X154444506Y-126847771D02*
X155230697Y-126847771D01*
X155230697Y-126847771D02*
X154807363Y-127331580D01*
X154807363Y-127331580D02*
X154988792Y-127331580D01*
X154988792Y-127331580D02*
X155109744Y-127392056D01*
X155109744Y-127392056D02*
X155170220Y-127452533D01*
X155170220Y-127452533D02*
X155230697Y-127573485D01*
X155230697Y-127573485D02*
X155230697Y-127875866D01*
X155230697Y-127875866D02*
X155170220Y-127996818D01*
X155170220Y-127996818D02*
X155109744Y-128057295D01*
X155109744Y-128057295D02*
X154988792Y-128117771D01*
X154988792Y-128117771D02*
X154625935Y-128117771D01*
X154625935Y-128117771D02*
X154504982Y-128057295D01*
X154504982Y-128057295D02*
X154444506Y-127996818D01*
X132207737Y-108014784D02*
X131361070Y-106744784D01*
X131361070Y-108014784D02*
X132207737Y-106744784D01*
X131058689Y-108014784D02*
X130332975Y-108014784D01*
X130695832Y-106744784D02*
X130695832Y-108014784D01*
X129970118Y-107107641D02*
X129365356Y-107107641D01*
X130091070Y-106744784D02*
X129667737Y-108014784D01*
X129667737Y-108014784D02*
X129244403Y-106744784D01*
X128216309Y-106744784D02*
X128821071Y-106744784D01*
X128821071Y-106744784D02*
X128821071Y-108014784D01*
X127853452Y-107893832D02*
X127792976Y-107954308D01*
X127792976Y-107954308D02*
X127672023Y-108014784D01*
X127672023Y-108014784D02*
X127369642Y-108014784D01*
X127369642Y-108014784D02*
X127248690Y-107954308D01*
X127248690Y-107954308D02*
X127188214Y-107893832D01*
X127188214Y-107893832D02*
X127127737Y-107772880D01*
X127127737Y-107772880D02*
X127127737Y-107651927D01*
X127127737Y-107651927D02*
X127188214Y-107470499D01*
X127188214Y-107470499D02*
X127913928Y-106744784D01*
X127913928Y-106744784D02*
X127127737Y-106744784D01*
D11*
X146759580Y-100290238D02*
X146807200Y-100337857D01*
X146807200Y-100337857D02*
X146854819Y-100480714D01*
X146854819Y-100480714D02*
X146854819Y-100575952D01*
X146854819Y-100575952D02*
X146807200Y-100718809D01*
X146807200Y-100718809D02*
X146711961Y-100814047D01*
X146711961Y-100814047D02*
X146616723Y-100861666D01*
X146616723Y-100861666D02*
X146426247Y-100909285D01*
X146426247Y-100909285D02*
X146283390Y-100909285D01*
X146283390Y-100909285D02*
X146092914Y-100861666D01*
X146092914Y-100861666D02*
X145997676Y-100814047D01*
X145997676Y-100814047D02*
X145902438Y-100718809D01*
X145902438Y-100718809D02*
X145854819Y-100575952D01*
X145854819Y-100575952D02*
X145854819Y-100480714D01*
X145854819Y-100480714D02*
X145902438Y-100337857D01*
X145902438Y-100337857D02*
X145950057Y-100290238D01*
X145950057Y-99909285D02*
X145902438Y-99861666D01*
X145902438Y-99861666D02*
X145854819Y-99766428D01*
X145854819Y-99766428D02*
X145854819Y-99528333D01*
X145854819Y-99528333D02*
X145902438Y-99433095D01*
X145902438Y-99433095D02*
X145950057Y-99385476D01*
X145950057Y-99385476D02*
X146045295Y-99337857D01*
X146045295Y-99337857D02*
X146140533Y-99337857D01*
X146140533Y-99337857D02*
X146283390Y-99385476D01*
X146283390Y-99385476D02*
X146854819Y-99956904D01*
X146854819Y-99956904D02*
X146854819Y-99337857D01*
X146854819Y-98385476D02*
X146854819Y-98956904D01*
X146854819Y-98671190D02*
X145854819Y-98671190D01*
X145854819Y-98671190D02*
X145997676Y-98766428D01*
X145997676Y-98766428D02*
X146092914Y-98861666D01*
X146092914Y-98861666D02*
X146140533Y-98956904D01*
X130719819Y-92225238D02*
X130243628Y-92558571D01*
X130719819Y-92796666D02*
X129719819Y-92796666D01*
X129719819Y-92796666D02*
X129719819Y-92415714D01*
X129719819Y-92415714D02*
X129767438Y-92320476D01*
X129767438Y-92320476D02*
X129815057Y-92272857D01*
X129815057Y-92272857D02*
X129910295Y-92225238D01*
X129910295Y-92225238D02*
X130053152Y-92225238D01*
X130053152Y-92225238D02*
X130148390Y-92272857D01*
X130148390Y-92272857D02*
X130196009Y-92320476D01*
X130196009Y-92320476D02*
X130243628Y-92415714D01*
X130243628Y-92415714D02*
X130243628Y-92796666D01*
X129815057Y-91844285D02*
X129767438Y-91796666D01*
X129767438Y-91796666D02*
X129719819Y-91701428D01*
X129719819Y-91701428D02*
X129719819Y-91463333D01*
X129719819Y-91463333D02*
X129767438Y-91368095D01*
X129767438Y-91368095D02*
X129815057Y-91320476D01*
X129815057Y-91320476D02*
X129910295Y-91272857D01*
X129910295Y-91272857D02*
X130005533Y-91272857D01*
X130005533Y-91272857D02*
X130148390Y-91320476D01*
X130148390Y-91320476D02*
X130719819Y-91891904D01*
X130719819Y-91891904D02*
X130719819Y-91272857D01*
X130719819Y-90320476D02*
X130719819Y-90891904D01*
X130719819Y-90606190D02*
X129719819Y-90606190D01*
X129719819Y-90606190D02*
X129862676Y-90701428D01*
X129862676Y-90701428D02*
X129957914Y-90796666D01*
X129957914Y-90796666D02*
X130005533Y-90891904D01*
X128282333Y-87058069D02*
X127949000Y-86581878D01*
X127710905Y-87058069D02*
X127710905Y-86058069D01*
X127710905Y-86058069D02*
X128091857Y-86058069D01*
X128091857Y-86058069D02*
X128187095Y-86105688D01*
X128187095Y-86105688D02*
X128234714Y-86153307D01*
X128234714Y-86153307D02*
X128282333Y-86248545D01*
X128282333Y-86248545D02*
X128282333Y-86391402D01*
X128282333Y-86391402D02*
X128234714Y-86486640D01*
X128234714Y-86486640D02*
X128187095Y-86534259D01*
X128187095Y-86534259D02*
X128091857Y-86581878D01*
X128091857Y-86581878D02*
X127710905Y-86581878D01*
X129139476Y-86391402D02*
X129139476Y-87058069D01*
X128901381Y-86010450D02*
X128663286Y-86724735D01*
X128663286Y-86724735D02*
X129282333Y-86724735D01*
X123670080Y-112740376D02*
X123717700Y-112787995D01*
X123717700Y-112787995D02*
X123765319Y-112930852D01*
X123765319Y-112930852D02*
X123765319Y-113026090D01*
X123765319Y-113026090D02*
X123717700Y-113168947D01*
X123717700Y-113168947D02*
X123622461Y-113264185D01*
X123622461Y-113264185D02*
X123527223Y-113311804D01*
X123527223Y-113311804D02*
X123336747Y-113359423D01*
X123336747Y-113359423D02*
X123193890Y-113359423D01*
X123193890Y-113359423D02*
X123003414Y-113311804D01*
X123003414Y-113311804D02*
X122908176Y-113264185D01*
X122908176Y-113264185D02*
X122812938Y-113168947D01*
X122812938Y-113168947D02*
X122765319Y-113026090D01*
X122765319Y-113026090D02*
X122765319Y-112930852D01*
X122765319Y-112930852D02*
X122812938Y-112787995D01*
X122812938Y-112787995D02*
X122860557Y-112740376D01*
X123765319Y-111787995D02*
X123765319Y-112359423D01*
X123765319Y-112073709D02*
X122765319Y-112073709D01*
X122765319Y-112073709D02*
X122908176Y-112168947D01*
X122908176Y-112168947D02*
X123003414Y-112264185D01*
X123003414Y-112264185D02*
X123051033Y-112359423D01*
X122860557Y-111407042D02*
X122812938Y-111359423D01*
X122812938Y-111359423D02*
X122765319Y-111264185D01*
X122765319Y-111264185D02*
X122765319Y-111026090D01*
X122765319Y-111026090D02*
X122812938Y-110930852D01*
X122812938Y-110930852D02*
X122860557Y-110883233D01*
X122860557Y-110883233D02*
X122955795Y-110835614D01*
X122955795Y-110835614D02*
X123051033Y-110835614D01*
X123051033Y-110835614D02*
X123193890Y-110883233D01*
X123193890Y-110883233D02*
X123765319Y-111454661D01*
X123765319Y-111454661D02*
X123765319Y-110835614D01*
X179708095Y-91854819D02*
X179708095Y-90854819D01*
X179708095Y-90854819D02*
X179946190Y-90854819D01*
X179946190Y-90854819D02*
X180089047Y-90902438D01*
X180089047Y-90902438D02*
X180184285Y-90997676D01*
X180184285Y-90997676D02*
X180231904Y-91092914D01*
X180231904Y-91092914D02*
X180279523Y-91283390D01*
X180279523Y-91283390D02*
X180279523Y-91426247D01*
X180279523Y-91426247D02*
X180231904Y-91616723D01*
X180231904Y-91616723D02*
X180184285Y-91711961D01*
X180184285Y-91711961D02*
X180089047Y-91807200D01*
X180089047Y-91807200D02*
X179946190Y-91854819D01*
X179946190Y-91854819D02*
X179708095Y-91854819D01*
X181136666Y-90854819D02*
X180946190Y-90854819D01*
X180946190Y-90854819D02*
X180850952Y-90902438D01*
X180850952Y-90902438D02*
X180803333Y-90950057D01*
X180803333Y-90950057D02*
X180708095Y-91092914D01*
X180708095Y-91092914D02*
X180660476Y-91283390D01*
X180660476Y-91283390D02*
X180660476Y-91664342D01*
X180660476Y-91664342D02*
X180708095Y-91759580D01*
X180708095Y-91759580D02*
X180755714Y-91807200D01*
X180755714Y-91807200D02*
X180850952Y-91854819D01*
X180850952Y-91854819D02*
X181041428Y-91854819D01*
X181041428Y-91854819D02*
X181136666Y-91807200D01*
X181136666Y-91807200D02*
X181184285Y-91759580D01*
X181184285Y-91759580D02*
X181231904Y-91664342D01*
X181231904Y-91664342D02*
X181231904Y-91426247D01*
X181231904Y-91426247D02*
X181184285Y-91331009D01*
X181184285Y-91331009D02*
X181136666Y-91283390D01*
X181136666Y-91283390D02*
X181041428Y-91235771D01*
X181041428Y-91235771D02*
X180850952Y-91235771D01*
X180850952Y-91235771D02*
X180755714Y-91283390D01*
X180755714Y-91283390D02*
X180708095Y-91331009D01*
X180708095Y-91331009D02*
X180660476Y-91426247D01*
X144811905Y-124254819D02*
X144811905Y-123254819D01*
X144811905Y-123254819D02*
X145050000Y-123254819D01*
X145050000Y-123254819D02*
X145192857Y-123302438D01*
X145192857Y-123302438D02*
X145288095Y-123397676D01*
X145288095Y-123397676D02*
X145335714Y-123492914D01*
X145335714Y-123492914D02*
X145383333Y-123683390D01*
X145383333Y-123683390D02*
X145383333Y-123826247D01*
X145383333Y-123826247D02*
X145335714Y-124016723D01*
X145335714Y-124016723D02*
X145288095Y-124111961D01*
X145288095Y-124111961D02*
X145192857Y-124207200D01*
X145192857Y-124207200D02*
X145050000Y-124254819D01*
X145050000Y-124254819D02*
X144811905Y-124254819D01*
X146288095Y-123254819D02*
X145811905Y-123254819D01*
X145811905Y-123254819D02*
X145764286Y-123731009D01*
X145764286Y-123731009D02*
X145811905Y-123683390D01*
X145811905Y-123683390D02*
X145907143Y-123635771D01*
X145907143Y-123635771D02*
X146145238Y-123635771D01*
X146145238Y-123635771D02*
X146240476Y-123683390D01*
X146240476Y-123683390D02*
X146288095Y-123731009D01*
X146288095Y-123731009D02*
X146335714Y-123826247D01*
X146335714Y-123826247D02*
X146335714Y-124064342D01*
X146335714Y-124064342D02*
X146288095Y-124159580D01*
X146288095Y-124159580D02*
X146240476Y-124207200D01*
X146240476Y-124207200D02*
X146145238Y-124254819D01*
X146145238Y-124254819D02*
X145907143Y-124254819D01*
X145907143Y-124254819D02*
X145811905Y-124207200D01*
X145811905Y-124207200D02*
X145764286Y-124159580D01*
D13*
X144022332Y-89625784D02*
X144022332Y-88718641D01*
X144022332Y-88718641D02*
X144082809Y-88537213D01*
X144082809Y-88537213D02*
X144203761Y-88416261D01*
X144203761Y-88416261D02*
X144385190Y-88355784D01*
X144385190Y-88355784D02*
X144506142Y-88355784D01*
X143478047Y-89504832D02*
X143417571Y-89565308D01*
X143417571Y-89565308D02*
X143296618Y-89625784D01*
X143296618Y-89625784D02*
X142994237Y-89625784D01*
X142994237Y-89625784D02*
X142873285Y-89565308D01*
X142873285Y-89565308D02*
X142812809Y-89504832D01*
X142812809Y-89504832D02*
X142752332Y-89383880D01*
X142752332Y-89383880D02*
X142752332Y-89262927D01*
X142752332Y-89262927D02*
X142812809Y-89081499D01*
X142812809Y-89081499D02*
X143538523Y-88355784D01*
X143538523Y-88355784D02*
X142752332Y-88355784D01*
D11*
X115207759Y-90933333D02*
X115207759Y-91266666D01*
X115731569Y-91266666D02*
X114731569Y-91266666D01*
X114731569Y-91266666D02*
X114731569Y-90790476D01*
X115207759Y-90076190D02*
X115255378Y-89933333D01*
X115255378Y-89933333D02*
X115302997Y-89885714D01*
X115302997Y-89885714D02*
X115398235Y-89838095D01*
X115398235Y-89838095D02*
X115541092Y-89838095D01*
X115541092Y-89838095D02*
X115636330Y-89885714D01*
X115636330Y-89885714D02*
X115683950Y-89933333D01*
X115683950Y-89933333D02*
X115731569Y-90028571D01*
X115731569Y-90028571D02*
X115731569Y-90409523D01*
X115731569Y-90409523D02*
X114731569Y-90409523D01*
X114731569Y-90409523D02*
X114731569Y-90076190D01*
X114731569Y-90076190D02*
X114779188Y-89980952D01*
X114779188Y-89980952D02*
X114826807Y-89933333D01*
X114826807Y-89933333D02*
X114922045Y-89885714D01*
X114922045Y-89885714D02*
X115017283Y-89885714D01*
X115017283Y-89885714D02*
X115112521Y-89933333D01*
X115112521Y-89933333D02*
X115160140Y-89980952D01*
X115160140Y-89980952D02*
X115207759Y-90076190D01*
X115207759Y-90076190D02*
X115207759Y-90409523D01*
X115731569Y-88885714D02*
X115731569Y-89457142D01*
X115731569Y-89171428D02*
X114731569Y-89171428D01*
X114731569Y-89171428D02*
X114874426Y-89266666D01*
X114874426Y-89266666D02*
X114969664Y-89361904D01*
X114969664Y-89361904D02*
X115017283Y-89457142D01*
X140866666Y-89115259D02*
X140533333Y-89115259D01*
X140533333Y-89639069D02*
X140533333Y-88639069D01*
X140533333Y-88639069D02*
X141009523Y-88639069D01*
X141914285Y-89639069D02*
X141342857Y-89639069D01*
X141628571Y-89639069D02*
X141628571Y-88639069D01*
X141628571Y-88639069D02*
X141533333Y-88781926D01*
X141533333Y-88781926D02*
X141438095Y-88877164D01*
X141438095Y-88877164D02*
X141342857Y-88924783D01*
X177157142Y-84951569D02*
X176823809Y-84475378D01*
X176585714Y-84951569D02*
X176585714Y-83951569D01*
X176585714Y-83951569D02*
X176966666Y-83951569D01*
X176966666Y-83951569D02*
X177061904Y-83999188D01*
X177061904Y-83999188D02*
X177109523Y-84046807D01*
X177109523Y-84046807D02*
X177157142Y-84142045D01*
X177157142Y-84142045D02*
X177157142Y-84284902D01*
X177157142Y-84284902D02*
X177109523Y-84380140D01*
X177109523Y-84380140D02*
X177061904Y-84427759D01*
X177061904Y-84427759D02*
X176966666Y-84475378D01*
X176966666Y-84475378D02*
X176585714Y-84475378D01*
X177538095Y-84046807D02*
X177585714Y-83999188D01*
X177585714Y-83999188D02*
X177680952Y-83951569D01*
X177680952Y-83951569D02*
X177919047Y-83951569D01*
X177919047Y-83951569D02*
X178014285Y-83999188D01*
X178014285Y-83999188D02*
X178061904Y-84046807D01*
X178061904Y-84046807D02*
X178109523Y-84142045D01*
X178109523Y-84142045D02*
X178109523Y-84237283D01*
X178109523Y-84237283D02*
X178061904Y-84380140D01*
X178061904Y-84380140D02*
X177490476Y-84951569D01*
X177490476Y-84951569D02*
X178109523Y-84951569D01*
X178490476Y-84046807D02*
X178538095Y-83999188D01*
X178538095Y-83999188D02*
X178633333Y-83951569D01*
X178633333Y-83951569D02*
X178871428Y-83951569D01*
X178871428Y-83951569D02*
X178966666Y-83999188D01*
X178966666Y-83999188D02*
X179014285Y-84046807D01*
X179014285Y-84046807D02*
X179061904Y-84142045D01*
X179061904Y-84142045D02*
X179061904Y-84237283D01*
X179061904Y-84237283D02*
X179014285Y-84380140D01*
X179014285Y-84380140D02*
X178442857Y-84951569D01*
X178442857Y-84951569D02*
X179061904Y-84951569D01*
X118559580Y-101660476D02*
X118607200Y-101708095D01*
X118607200Y-101708095D02*
X118654819Y-101850952D01*
X118654819Y-101850952D02*
X118654819Y-101946190D01*
X118654819Y-101946190D02*
X118607200Y-102089047D01*
X118607200Y-102089047D02*
X118511961Y-102184285D01*
X118511961Y-102184285D02*
X118416723Y-102231904D01*
X118416723Y-102231904D02*
X118226247Y-102279523D01*
X118226247Y-102279523D02*
X118083390Y-102279523D01*
X118083390Y-102279523D02*
X117892914Y-102231904D01*
X117892914Y-102231904D02*
X117797676Y-102184285D01*
X117797676Y-102184285D02*
X117702438Y-102089047D01*
X117702438Y-102089047D02*
X117654819Y-101946190D01*
X117654819Y-101946190D02*
X117654819Y-101850952D01*
X117654819Y-101850952D02*
X117702438Y-101708095D01*
X117702438Y-101708095D02*
X117750057Y-101660476D01*
X118654819Y-100708095D02*
X118654819Y-101279523D01*
X118654819Y-100993809D02*
X117654819Y-100993809D01*
X117654819Y-100993809D02*
X117797676Y-101089047D01*
X117797676Y-101089047D02*
X117892914Y-101184285D01*
X117892914Y-101184285D02*
X117940533Y-101279523D01*
X117654819Y-100089047D02*
X117654819Y-99993809D01*
X117654819Y-99993809D02*
X117702438Y-99898571D01*
X117702438Y-99898571D02*
X117750057Y-99850952D01*
X117750057Y-99850952D02*
X117845295Y-99803333D01*
X117845295Y-99803333D02*
X118035771Y-99755714D01*
X118035771Y-99755714D02*
X118273866Y-99755714D01*
X118273866Y-99755714D02*
X118464342Y-99803333D01*
X118464342Y-99803333D02*
X118559580Y-99850952D01*
X118559580Y-99850952D02*
X118607200Y-99898571D01*
X118607200Y-99898571D02*
X118654819Y-99993809D01*
X118654819Y-99993809D02*
X118654819Y-100089047D01*
X118654819Y-100089047D02*
X118607200Y-100184285D01*
X118607200Y-100184285D02*
X118559580Y-100231904D01*
X118559580Y-100231904D02*
X118464342Y-100279523D01*
X118464342Y-100279523D02*
X118273866Y-100327142D01*
X118273866Y-100327142D02*
X118035771Y-100327142D01*
X118035771Y-100327142D02*
X117845295Y-100279523D01*
X117845295Y-100279523D02*
X117750057Y-100231904D01*
X117750057Y-100231904D02*
X117702438Y-100184285D01*
X117702438Y-100184285D02*
X117654819Y-100089047D01*
X135359580Y-95460476D02*
X135407200Y-95508095D01*
X135407200Y-95508095D02*
X135454819Y-95650952D01*
X135454819Y-95650952D02*
X135454819Y-95746190D01*
X135454819Y-95746190D02*
X135407200Y-95889047D01*
X135407200Y-95889047D02*
X135311961Y-95984285D01*
X135311961Y-95984285D02*
X135216723Y-96031904D01*
X135216723Y-96031904D02*
X135026247Y-96079523D01*
X135026247Y-96079523D02*
X134883390Y-96079523D01*
X134883390Y-96079523D02*
X134692914Y-96031904D01*
X134692914Y-96031904D02*
X134597676Y-95984285D01*
X134597676Y-95984285D02*
X134502438Y-95889047D01*
X134502438Y-95889047D02*
X134454819Y-95746190D01*
X134454819Y-95746190D02*
X134454819Y-95650952D01*
X134454819Y-95650952D02*
X134502438Y-95508095D01*
X134502438Y-95508095D02*
X134550057Y-95460476D01*
X135454819Y-94508095D02*
X135454819Y-95079523D01*
X135454819Y-94793809D02*
X134454819Y-94793809D01*
X134454819Y-94793809D02*
X134597676Y-94889047D01*
X134597676Y-94889047D02*
X134692914Y-94984285D01*
X134692914Y-94984285D02*
X134740533Y-95079523D01*
X134883390Y-93936666D02*
X134835771Y-94031904D01*
X134835771Y-94031904D02*
X134788152Y-94079523D01*
X134788152Y-94079523D02*
X134692914Y-94127142D01*
X134692914Y-94127142D02*
X134645295Y-94127142D01*
X134645295Y-94127142D02*
X134550057Y-94079523D01*
X134550057Y-94079523D02*
X134502438Y-94031904D01*
X134502438Y-94031904D02*
X134454819Y-93936666D01*
X134454819Y-93936666D02*
X134454819Y-93746190D01*
X134454819Y-93746190D02*
X134502438Y-93650952D01*
X134502438Y-93650952D02*
X134550057Y-93603333D01*
X134550057Y-93603333D02*
X134645295Y-93555714D01*
X134645295Y-93555714D02*
X134692914Y-93555714D01*
X134692914Y-93555714D02*
X134788152Y-93603333D01*
X134788152Y-93603333D02*
X134835771Y-93650952D01*
X134835771Y-93650952D02*
X134883390Y-93746190D01*
X134883390Y-93746190D02*
X134883390Y-93936666D01*
X134883390Y-93936666D02*
X134931009Y-94031904D01*
X134931009Y-94031904D02*
X134978628Y-94079523D01*
X134978628Y-94079523D02*
X135073866Y-94127142D01*
X135073866Y-94127142D02*
X135264342Y-94127142D01*
X135264342Y-94127142D02*
X135359580Y-94079523D01*
X135359580Y-94079523D02*
X135407200Y-94031904D01*
X135407200Y-94031904D02*
X135454819Y-93936666D01*
X135454819Y-93936666D02*
X135454819Y-93746190D01*
X135454819Y-93746190D02*
X135407200Y-93650952D01*
X135407200Y-93650952D02*
X135359580Y-93603333D01*
X135359580Y-93603333D02*
X135264342Y-93555714D01*
X135264342Y-93555714D02*
X135073866Y-93555714D01*
X135073866Y-93555714D02*
X134978628Y-93603333D01*
X134978628Y-93603333D02*
X134931009Y-93650952D01*
X134931009Y-93650952D02*
X134883390Y-93746190D01*
X151611666Y-106328069D02*
X151611666Y-107042354D01*
X151611666Y-107042354D02*
X151564047Y-107185211D01*
X151564047Y-107185211D02*
X151468809Y-107280450D01*
X151468809Y-107280450D02*
X151325952Y-107328069D01*
X151325952Y-107328069D02*
X151230714Y-107328069D01*
X152230714Y-106756640D02*
X152135476Y-106709021D01*
X152135476Y-106709021D02*
X152087857Y-106661402D01*
X152087857Y-106661402D02*
X152040238Y-106566164D01*
X152040238Y-106566164D02*
X152040238Y-106518545D01*
X152040238Y-106518545D02*
X152087857Y-106423307D01*
X152087857Y-106423307D02*
X152135476Y-106375688D01*
X152135476Y-106375688D02*
X152230714Y-106328069D01*
X152230714Y-106328069D02*
X152421190Y-106328069D01*
X152421190Y-106328069D02*
X152516428Y-106375688D01*
X152516428Y-106375688D02*
X152564047Y-106423307D01*
X152564047Y-106423307D02*
X152611666Y-106518545D01*
X152611666Y-106518545D02*
X152611666Y-106566164D01*
X152611666Y-106566164D02*
X152564047Y-106661402D01*
X152564047Y-106661402D02*
X152516428Y-106709021D01*
X152516428Y-106709021D02*
X152421190Y-106756640D01*
X152421190Y-106756640D02*
X152230714Y-106756640D01*
X152230714Y-106756640D02*
X152135476Y-106804259D01*
X152135476Y-106804259D02*
X152087857Y-106851878D01*
X152087857Y-106851878D02*
X152040238Y-106947116D01*
X152040238Y-106947116D02*
X152040238Y-107137592D01*
X152040238Y-107137592D02*
X152087857Y-107232830D01*
X152087857Y-107232830D02*
X152135476Y-107280450D01*
X152135476Y-107280450D02*
X152230714Y-107328069D01*
X152230714Y-107328069D02*
X152421190Y-107328069D01*
X152421190Y-107328069D02*
X152516428Y-107280450D01*
X152516428Y-107280450D02*
X152564047Y-107232830D01*
X152564047Y-107232830D02*
X152611666Y-107137592D01*
X152611666Y-107137592D02*
X152611666Y-106947116D01*
X152611666Y-106947116D02*
X152564047Y-106851878D01*
X152564047Y-106851878D02*
X152516428Y-106804259D01*
X152516428Y-106804259D02*
X152421190Y-106756640D01*
D13*
X174779969Y-81881205D02*
X174598540Y-81820728D01*
X174598540Y-81820728D02*
X174296159Y-81820728D01*
X174296159Y-81820728D02*
X174175207Y-81881205D01*
X174175207Y-81881205D02*
X174114731Y-81941681D01*
X174114731Y-81941681D02*
X174054254Y-82062633D01*
X174054254Y-82062633D02*
X174054254Y-82183585D01*
X174054254Y-82183585D02*
X174114731Y-82304538D01*
X174114731Y-82304538D02*
X174175207Y-82365014D01*
X174175207Y-82365014D02*
X174296159Y-82425490D01*
X174296159Y-82425490D02*
X174538064Y-82485966D01*
X174538064Y-82485966D02*
X174659016Y-82546443D01*
X174659016Y-82546443D02*
X174719493Y-82606919D01*
X174719493Y-82606919D02*
X174779969Y-82727871D01*
X174779969Y-82727871D02*
X174779969Y-82848824D01*
X174779969Y-82848824D02*
X174719493Y-82969776D01*
X174719493Y-82969776D02*
X174659016Y-83030252D01*
X174659016Y-83030252D02*
X174538064Y-83090728D01*
X174538064Y-83090728D02*
X174235683Y-83090728D01*
X174235683Y-83090728D02*
X174054254Y-83030252D01*
X173630921Y-83090728D02*
X173328540Y-81820728D01*
X173328540Y-81820728D02*
X173086635Y-82727871D01*
X173086635Y-82727871D02*
X172844730Y-81820728D01*
X172844730Y-81820728D02*
X172542350Y-83090728D01*
X171514254Y-82667395D02*
X171514254Y-81820728D01*
X171816635Y-83151205D02*
X172119016Y-82244062D01*
X172119016Y-82244062D02*
X171332825Y-82244062D01*
D11*
X159254819Y-109135375D02*
X158778628Y-109468708D01*
X159254819Y-109706803D02*
X158254819Y-109706803D01*
X158254819Y-109706803D02*
X158254819Y-109325851D01*
X158254819Y-109325851D02*
X158302438Y-109230613D01*
X158302438Y-109230613D02*
X158350057Y-109182994D01*
X158350057Y-109182994D02*
X158445295Y-109135375D01*
X158445295Y-109135375D02*
X158588152Y-109135375D01*
X158588152Y-109135375D02*
X158683390Y-109182994D01*
X158683390Y-109182994D02*
X158731009Y-109230613D01*
X158731009Y-109230613D02*
X158778628Y-109325851D01*
X158778628Y-109325851D02*
X158778628Y-109706803D01*
X158254819Y-108802041D02*
X158254819Y-108182994D01*
X158254819Y-108182994D02*
X158635771Y-108516327D01*
X158635771Y-108516327D02*
X158635771Y-108373470D01*
X158635771Y-108373470D02*
X158683390Y-108278232D01*
X158683390Y-108278232D02*
X158731009Y-108230613D01*
X158731009Y-108230613D02*
X158826247Y-108182994D01*
X158826247Y-108182994D02*
X159064342Y-108182994D01*
X159064342Y-108182994D02*
X159159580Y-108230613D01*
X159159580Y-108230613D02*
X159207200Y-108278232D01*
X159207200Y-108278232D02*
X159254819Y-108373470D01*
X159254819Y-108373470D02*
X159254819Y-108659184D01*
X159254819Y-108659184D02*
X159207200Y-108754422D01*
X159207200Y-108754422D02*
X159159580Y-108802041D01*
X117133333Y-121056330D02*
X117085714Y-121103950D01*
X117085714Y-121103950D02*
X116942857Y-121151569D01*
X116942857Y-121151569D02*
X116847619Y-121151569D01*
X116847619Y-121151569D02*
X116704762Y-121103950D01*
X116704762Y-121103950D02*
X116609524Y-121008711D01*
X116609524Y-121008711D02*
X116561905Y-120913473D01*
X116561905Y-120913473D02*
X116514286Y-120722997D01*
X116514286Y-120722997D02*
X116514286Y-120580140D01*
X116514286Y-120580140D02*
X116561905Y-120389664D01*
X116561905Y-120389664D02*
X116609524Y-120294426D01*
X116609524Y-120294426D02*
X116704762Y-120199188D01*
X116704762Y-120199188D02*
X116847619Y-120151569D01*
X116847619Y-120151569D02*
X116942857Y-120151569D01*
X116942857Y-120151569D02*
X117085714Y-120199188D01*
X117085714Y-120199188D02*
X117133333Y-120246807D01*
X117990476Y-120484902D02*
X117990476Y-121151569D01*
X117752381Y-120103950D02*
X117514286Y-120818235D01*
X117514286Y-120818235D02*
X118133333Y-120818235D01*
X123909580Y-101625238D02*
X123957200Y-101672857D01*
X123957200Y-101672857D02*
X124004819Y-101815714D01*
X124004819Y-101815714D02*
X124004819Y-101910952D01*
X124004819Y-101910952D02*
X123957200Y-102053809D01*
X123957200Y-102053809D02*
X123861961Y-102149047D01*
X123861961Y-102149047D02*
X123766723Y-102196666D01*
X123766723Y-102196666D02*
X123576247Y-102244285D01*
X123576247Y-102244285D02*
X123433390Y-102244285D01*
X123433390Y-102244285D02*
X123242914Y-102196666D01*
X123242914Y-102196666D02*
X123147676Y-102149047D01*
X123147676Y-102149047D02*
X123052438Y-102053809D01*
X123052438Y-102053809D02*
X123004819Y-101910952D01*
X123004819Y-101910952D02*
X123004819Y-101815714D01*
X123004819Y-101815714D02*
X123052438Y-101672857D01*
X123052438Y-101672857D02*
X123100057Y-101625238D01*
X124004819Y-100672857D02*
X124004819Y-101244285D01*
X124004819Y-100958571D02*
X123004819Y-100958571D01*
X123004819Y-100958571D02*
X123147676Y-101053809D01*
X123147676Y-101053809D02*
X123242914Y-101149047D01*
X123242914Y-101149047D02*
X123290533Y-101244285D01*
X123004819Y-99768095D02*
X123004819Y-100244285D01*
X123004819Y-100244285D02*
X123481009Y-100291904D01*
X123481009Y-100291904D02*
X123433390Y-100244285D01*
X123433390Y-100244285D02*
X123385771Y-100149047D01*
X123385771Y-100149047D02*
X123385771Y-99910952D01*
X123385771Y-99910952D02*
X123433390Y-99815714D01*
X123433390Y-99815714D02*
X123481009Y-99768095D01*
X123481009Y-99768095D02*
X123576247Y-99720476D01*
X123576247Y-99720476D02*
X123814342Y-99720476D01*
X123814342Y-99720476D02*
X123909580Y-99768095D01*
X123909580Y-99768095D02*
X123957200Y-99815714D01*
X123957200Y-99815714D02*
X124004819Y-99910952D01*
X124004819Y-99910952D02*
X124004819Y-100149047D01*
X124004819Y-100149047D02*
X123957200Y-100244285D01*
X123957200Y-100244285D02*
X123909580Y-100291904D01*
X141683580Y-112740376D02*
X141731200Y-112787995D01*
X141731200Y-112787995D02*
X141778819Y-112930852D01*
X141778819Y-112930852D02*
X141778819Y-113026090D01*
X141778819Y-113026090D02*
X141731200Y-113168947D01*
X141731200Y-113168947D02*
X141635961Y-113264185D01*
X141635961Y-113264185D02*
X141540723Y-113311804D01*
X141540723Y-113311804D02*
X141350247Y-113359423D01*
X141350247Y-113359423D02*
X141207390Y-113359423D01*
X141207390Y-113359423D02*
X141016914Y-113311804D01*
X141016914Y-113311804D02*
X140921676Y-113264185D01*
X140921676Y-113264185D02*
X140826438Y-113168947D01*
X140826438Y-113168947D02*
X140778819Y-113026090D01*
X140778819Y-113026090D02*
X140778819Y-112930852D01*
X140778819Y-112930852D02*
X140826438Y-112787995D01*
X140826438Y-112787995D02*
X140874057Y-112740376D01*
X141778819Y-111787995D02*
X141778819Y-112359423D01*
X141778819Y-112073709D02*
X140778819Y-112073709D01*
X140778819Y-112073709D02*
X140921676Y-112168947D01*
X140921676Y-112168947D02*
X141016914Y-112264185D01*
X141016914Y-112264185D02*
X141064533Y-112359423D01*
X140778819Y-111454661D02*
X140778819Y-110835614D01*
X140778819Y-110835614D02*
X141159771Y-111168947D01*
X141159771Y-111168947D02*
X141159771Y-111026090D01*
X141159771Y-111026090D02*
X141207390Y-110930852D01*
X141207390Y-110930852D02*
X141255009Y-110883233D01*
X141255009Y-110883233D02*
X141350247Y-110835614D01*
X141350247Y-110835614D02*
X141588342Y-110835614D01*
X141588342Y-110835614D02*
X141683580Y-110883233D01*
X141683580Y-110883233D02*
X141731200Y-110930852D01*
X141731200Y-110930852D02*
X141778819Y-111026090D01*
X141778819Y-111026090D02*
X141778819Y-111311804D01*
X141778819Y-111311804D02*
X141731200Y-111407042D01*
X141731200Y-111407042D02*
X141683580Y-111454661D01*
X137854819Y-108225238D02*
X137378628Y-108558571D01*
X137854819Y-108796666D02*
X136854819Y-108796666D01*
X136854819Y-108796666D02*
X136854819Y-108415714D01*
X136854819Y-108415714D02*
X136902438Y-108320476D01*
X136902438Y-108320476D02*
X136950057Y-108272857D01*
X136950057Y-108272857D02*
X137045295Y-108225238D01*
X137045295Y-108225238D02*
X137188152Y-108225238D01*
X137188152Y-108225238D02*
X137283390Y-108272857D01*
X137283390Y-108272857D02*
X137331009Y-108320476D01*
X137331009Y-108320476D02*
X137378628Y-108415714D01*
X137378628Y-108415714D02*
X137378628Y-108796666D01*
X137854819Y-107272857D02*
X137854819Y-107844285D01*
X137854819Y-107558571D02*
X136854819Y-107558571D01*
X136854819Y-107558571D02*
X136997676Y-107653809D01*
X136997676Y-107653809D02*
X137092914Y-107749047D01*
X137092914Y-107749047D02*
X137140533Y-107844285D01*
X136854819Y-106653809D02*
X136854819Y-106558571D01*
X136854819Y-106558571D02*
X136902438Y-106463333D01*
X136902438Y-106463333D02*
X136950057Y-106415714D01*
X136950057Y-106415714D02*
X137045295Y-106368095D01*
X137045295Y-106368095D02*
X137235771Y-106320476D01*
X137235771Y-106320476D02*
X137473866Y-106320476D01*
X137473866Y-106320476D02*
X137664342Y-106368095D01*
X137664342Y-106368095D02*
X137759580Y-106415714D01*
X137759580Y-106415714D02*
X137807200Y-106463333D01*
X137807200Y-106463333D02*
X137854819Y-106558571D01*
X137854819Y-106558571D02*
X137854819Y-106653809D01*
X137854819Y-106653809D02*
X137807200Y-106749047D01*
X137807200Y-106749047D02*
X137759580Y-106796666D01*
X137759580Y-106796666D02*
X137664342Y-106844285D01*
X137664342Y-106844285D02*
X137473866Y-106891904D01*
X137473866Y-106891904D02*
X137235771Y-106891904D01*
X137235771Y-106891904D02*
X137045295Y-106844285D01*
X137045295Y-106844285D02*
X136950057Y-106796666D01*
X136950057Y-106796666D02*
X136902438Y-106749047D01*
X136902438Y-106749047D02*
X136854819Y-106653809D01*
X137531009Y-94168095D02*
X137531009Y-94501428D01*
X138054819Y-94501428D02*
X137054819Y-94501428D01*
X137054819Y-94501428D02*
X137054819Y-94025238D01*
X137531009Y-93310952D02*
X137578628Y-93168095D01*
X137578628Y-93168095D02*
X137626247Y-93120476D01*
X137626247Y-93120476D02*
X137721485Y-93072857D01*
X137721485Y-93072857D02*
X137864342Y-93072857D01*
X137864342Y-93072857D02*
X137959580Y-93120476D01*
X137959580Y-93120476D02*
X138007200Y-93168095D01*
X138007200Y-93168095D02*
X138054819Y-93263333D01*
X138054819Y-93263333D02*
X138054819Y-93644285D01*
X138054819Y-93644285D02*
X137054819Y-93644285D01*
X137054819Y-93644285D02*
X137054819Y-93310952D01*
X137054819Y-93310952D02*
X137102438Y-93215714D01*
X137102438Y-93215714D02*
X137150057Y-93168095D01*
X137150057Y-93168095D02*
X137245295Y-93120476D01*
X137245295Y-93120476D02*
X137340533Y-93120476D01*
X137340533Y-93120476D02*
X137435771Y-93168095D01*
X137435771Y-93168095D02*
X137483390Y-93215714D01*
X137483390Y-93215714D02*
X137531009Y-93310952D01*
X137531009Y-93310952D02*
X137531009Y-93644285D01*
X137150057Y-92691904D02*
X137102438Y-92644285D01*
X137102438Y-92644285D02*
X137054819Y-92549047D01*
X137054819Y-92549047D02*
X137054819Y-92310952D01*
X137054819Y-92310952D02*
X137102438Y-92215714D01*
X137102438Y-92215714D02*
X137150057Y-92168095D01*
X137150057Y-92168095D02*
X137245295Y-92120476D01*
X137245295Y-92120476D02*
X137340533Y-92120476D01*
X137340533Y-92120476D02*
X137483390Y-92168095D01*
X137483390Y-92168095D02*
X138054819Y-92739523D01*
X138054819Y-92739523D02*
X138054819Y-92120476D01*
X118359580Y-93260475D02*
X118407200Y-93308094D01*
X118407200Y-93308094D02*
X118454819Y-93450951D01*
X118454819Y-93450951D02*
X118454819Y-93546189D01*
X118454819Y-93546189D02*
X118407200Y-93689046D01*
X118407200Y-93689046D02*
X118311961Y-93784284D01*
X118311961Y-93784284D02*
X118216723Y-93831903D01*
X118216723Y-93831903D02*
X118026247Y-93879522D01*
X118026247Y-93879522D02*
X117883390Y-93879522D01*
X117883390Y-93879522D02*
X117692914Y-93831903D01*
X117692914Y-93831903D02*
X117597676Y-93784284D01*
X117597676Y-93784284D02*
X117502438Y-93689046D01*
X117502438Y-93689046D02*
X117454819Y-93546189D01*
X117454819Y-93546189D02*
X117454819Y-93450951D01*
X117454819Y-93450951D02*
X117502438Y-93308094D01*
X117502438Y-93308094D02*
X117550057Y-93260475D01*
X117883390Y-92689046D02*
X117835771Y-92784284D01*
X117835771Y-92784284D02*
X117788152Y-92831903D01*
X117788152Y-92831903D02*
X117692914Y-92879522D01*
X117692914Y-92879522D02*
X117645295Y-92879522D01*
X117645295Y-92879522D02*
X117550057Y-92831903D01*
X117550057Y-92831903D02*
X117502438Y-92784284D01*
X117502438Y-92784284D02*
X117454819Y-92689046D01*
X117454819Y-92689046D02*
X117454819Y-92498570D01*
X117454819Y-92498570D02*
X117502438Y-92403332D01*
X117502438Y-92403332D02*
X117550057Y-92355713D01*
X117550057Y-92355713D02*
X117645295Y-92308094D01*
X117645295Y-92308094D02*
X117692914Y-92308094D01*
X117692914Y-92308094D02*
X117788152Y-92355713D01*
X117788152Y-92355713D02*
X117835771Y-92403332D01*
X117835771Y-92403332D02*
X117883390Y-92498570D01*
X117883390Y-92498570D02*
X117883390Y-92689046D01*
X117883390Y-92689046D02*
X117931009Y-92784284D01*
X117931009Y-92784284D02*
X117978628Y-92831903D01*
X117978628Y-92831903D02*
X118073866Y-92879522D01*
X118073866Y-92879522D02*
X118264342Y-92879522D01*
X118264342Y-92879522D02*
X118359580Y-92831903D01*
X118359580Y-92831903D02*
X118407200Y-92784284D01*
X118407200Y-92784284D02*
X118454819Y-92689046D01*
X118454819Y-92689046D02*
X118454819Y-92498570D01*
X118454819Y-92498570D02*
X118407200Y-92403332D01*
X118407200Y-92403332D02*
X118359580Y-92355713D01*
X118359580Y-92355713D02*
X118264342Y-92308094D01*
X118264342Y-92308094D02*
X118073866Y-92308094D01*
X118073866Y-92308094D02*
X117978628Y-92355713D01*
X117978628Y-92355713D02*
X117931009Y-92403332D01*
X117931009Y-92403332D02*
X117883390Y-92498570D01*
D13*
X136844029Y-128057295D02*
X137025458Y-128117771D01*
X137025458Y-128117771D02*
X137327839Y-128117771D01*
X137327839Y-128117771D02*
X137448791Y-128057295D01*
X137448791Y-128057295D02*
X137509267Y-127996818D01*
X137509267Y-127996818D02*
X137569744Y-127875866D01*
X137569744Y-127875866D02*
X137569744Y-127754914D01*
X137569744Y-127754914D02*
X137509267Y-127633961D01*
X137509267Y-127633961D02*
X137448791Y-127573485D01*
X137448791Y-127573485D02*
X137327839Y-127513009D01*
X137327839Y-127513009D02*
X137085934Y-127452533D01*
X137085934Y-127452533D02*
X136964982Y-127392056D01*
X136964982Y-127392056D02*
X136904505Y-127331580D01*
X136904505Y-127331580D02*
X136844029Y-127210628D01*
X136844029Y-127210628D02*
X136844029Y-127089675D01*
X136844029Y-127089675D02*
X136904505Y-126968723D01*
X136904505Y-126968723D02*
X136964982Y-126908247D01*
X136964982Y-126908247D02*
X137085934Y-126847771D01*
X137085934Y-126847771D02*
X137388315Y-126847771D01*
X137388315Y-126847771D02*
X137569744Y-126908247D01*
X137993077Y-126847771D02*
X138295458Y-128117771D01*
X138295458Y-128117771D02*
X138537363Y-127210628D01*
X138537363Y-127210628D02*
X138779268Y-128117771D01*
X138779268Y-128117771D02*
X139081649Y-126847771D01*
X139504982Y-126968723D02*
X139565458Y-126908247D01*
X139565458Y-126908247D02*
X139686411Y-126847771D01*
X139686411Y-126847771D02*
X139988792Y-126847771D01*
X139988792Y-126847771D02*
X140109744Y-126908247D01*
X140109744Y-126908247D02*
X140170220Y-126968723D01*
X140170220Y-126968723D02*
X140230697Y-127089675D01*
X140230697Y-127089675D02*
X140230697Y-127210628D01*
X140230697Y-127210628D02*
X140170220Y-127392056D01*
X140170220Y-127392056D02*
X139444506Y-128117771D01*
X139444506Y-128117771D02*
X140230697Y-128117771D01*
D15*
X173215580Y-84473500D02*
X172934420Y-84473500D01*
X173215580Y-83453500D02*
X172934420Y-83453500D01*
X137137258Y-123377500D02*
X136662742Y-123377500D01*
X137137258Y-124422500D02*
X136662742Y-124422500D01*
D16*
X117850000Y-98600000D02*
X117888900Y-98600000D01*
X117850000Y-101200000D02*
X117850000Y-98600000D01*
X117888900Y-101200000D02*
X117850000Y-101200000D01*
X122350000Y-98600000D02*
X122311100Y-98600000D01*
X122350000Y-98600000D02*
X122350000Y-99400000D01*
X122350000Y-101200000D02*
X122311100Y-101200000D01*
X122350000Y-101200000D02*
X122350000Y-100400000D01*
X122350400Y-100400400D02*
G75*
G02*
X122350000Y-99400001I3401J500201D01*
G01*
X122545200Y-98040000D02*
G75*
G02*
X122294800Y-98040000I-125200J0D01*
G01*
X122294800Y-98040000D02*
G75*
G02*
X122545200Y-98040000I125200J0D01*
G01*
D15*
X137690000Y-98040580D02*
X137690000Y-97759420D01*
X138710000Y-98040580D02*
X138710000Y-97759420D01*
X131986258Y-82777500D02*
X131511742Y-82777500D01*
X131986258Y-83822500D02*
X131511742Y-83822500D01*
D10*
X139887900Y-110199800D02*
X139887900Y-111999800D01*
X140033900Y-110199800D02*
X139887900Y-110199800D01*
X140033900Y-111999800D02*
X139887900Y-111999800D01*
X140983900Y-111999800D02*
X140942200Y-111999800D01*
X141933800Y-110199800D02*
X140942200Y-110199800D01*
X141933800Y-111999800D02*
X141892200Y-111999800D01*
X142988000Y-110199800D02*
X142842100Y-110199800D01*
X142988000Y-110199800D02*
X142988000Y-111999800D01*
X142988000Y-111999800D02*
X142842100Y-111999800D01*
X139914000Y-112623700D02*
G75*
G02*
X139660000Y-112623700I-127000J0D01*
G01*
X139660000Y-112623700D02*
G75*
G02*
X139914000Y-112623700I127000J0D01*
G01*
D15*
X152262258Y-123377500D02*
X151787742Y-123377500D01*
X152262258Y-124422500D02*
X151787742Y-124422500D01*
X136090000Y-98040580D02*
X136090000Y-97759420D01*
X137110000Y-98040580D02*
X137110000Y-97759420D01*
X180007500Y-93200000D02*
X176147500Y-93200000D01*
X180007500Y-95200000D02*
X176147500Y-95200000D01*
X180007500Y-95200000D02*
X180007500Y-93200000D01*
X162890580Y-89090000D02*
X162609420Y-89090000D01*
X162890580Y-90110000D02*
X162609420Y-90110000D01*
X125277500Y-111812158D02*
X125277500Y-111337642D01*
X126322500Y-111812158D02*
X126322500Y-111337642D01*
X141122500Y-104262742D02*
X141122500Y-104737258D01*
X140077500Y-104262742D02*
X140077500Y-104737258D01*
X123547758Y-107577500D02*
X123073242Y-107577500D01*
X123547758Y-108622500D02*
X123073242Y-108622500D01*
X115740580Y-104290000D02*
X115459420Y-104290000D01*
X115740580Y-105310000D02*
X115459420Y-105310000D01*
D16*
X115526900Y-80162500D02*
X115526900Y-81635500D01*
X115526900Y-83591600D02*
X115526900Y-85585500D01*
X115598900Y-80013500D02*
X124598900Y-80013500D01*
X124598900Y-80013500D02*
X124598900Y-81632400D01*
X124598900Y-83594700D02*
X124598900Y-85582400D01*
D15*
X131986258Y-84477500D02*
X131511742Y-84477500D01*
X131986258Y-85522500D02*
X131511742Y-85522500D01*
D10*
X121874400Y-110199800D02*
X121874400Y-111999800D01*
X122020400Y-110199800D02*
X121874400Y-110199800D01*
X122020400Y-111999800D02*
X121874400Y-111999800D01*
X122970400Y-111999800D02*
X122928700Y-111999800D01*
X123920300Y-110199800D02*
X122928700Y-110199800D01*
X123920300Y-111999800D02*
X123878700Y-111999800D01*
X124974500Y-110199800D02*
X124828600Y-110199800D01*
X124974500Y-110199800D02*
X124974500Y-111999800D01*
X124974500Y-111999800D02*
X124828600Y-111999800D01*
X121900500Y-112623700D02*
G75*
G02*
X121646500Y-112623700I-127000J0D01*
G01*
X121646500Y-112623700D02*
G75*
G02*
X121900500Y-112623700I127000J0D01*
G01*
D16*
X115709900Y-125680000D02*
X115709900Y-126764400D01*
X115968800Y-125680000D02*
X115709900Y-125680000D01*
X117249900Y-129775000D02*
X117249900Y-128601000D01*
X117268800Y-125680000D02*
X117131100Y-125680000D01*
X119249900Y-129775000D02*
X117249900Y-129775000D01*
X119249900Y-129775000D02*
X119249900Y-128601000D01*
X119368700Y-125680000D02*
X119231100Y-125680000D01*
X119570200Y-128601000D02*
X116929600Y-128601000D01*
X120531000Y-125680000D02*
X120789900Y-125680000D01*
X120789900Y-125680000D02*
X120789900Y-126764400D01*
D15*
X116784900Y-123165000D02*
X116784900Y-124635000D01*
X116784900Y-124635000D02*
X119069900Y-124635000D01*
X119069900Y-123165000D02*
X116784900Y-123165000D01*
X123677500Y-89762742D02*
X123677500Y-90237258D01*
X124722500Y-89762742D02*
X124722500Y-90237258D01*
X153490000Y-110434120D02*
X153490000Y-110715280D01*
X154510000Y-110434120D02*
X154510000Y-110715280D01*
D10*
X154887900Y-110199800D02*
X154887900Y-111999800D01*
X155033900Y-110199800D02*
X154887900Y-110199800D01*
X155033900Y-111999800D02*
X154887900Y-111999800D01*
X155983900Y-111999800D02*
X155942200Y-111999800D01*
X156933800Y-110199800D02*
X155942200Y-110199800D01*
X156933800Y-111999800D02*
X156892200Y-111999800D01*
X157988000Y-110199800D02*
X157842100Y-110199800D01*
X157988000Y-110199800D02*
X157988000Y-111999800D01*
X157988000Y-111999800D02*
X157842100Y-111999800D01*
X154914000Y-112623700D02*
G75*
G02*
X154660000Y-112623700I-127000J0D01*
G01*
X154660000Y-112623700D02*
G75*
G02*
X154914000Y-112623700I127000J0D01*
G01*
D16*
X105753000Y-107995900D02*
X112656400Y-107995900D01*
X105753000Y-121203900D02*
X105753000Y-107995900D01*
X112656400Y-121203900D02*
X105753000Y-121203900D01*
X115891500Y-107995900D02*
X116040000Y-107995900D01*
X116040000Y-107995900D02*
X116040000Y-110068700D01*
X116040000Y-112131000D02*
X116040000Y-112603700D01*
X116040000Y-114596100D02*
X116040000Y-114603700D01*
X116040000Y-116596100D02*
X116040000Y-117103700D01*
X116040000Y-119096100D02*
X116040000Y-121203900D01*
X116040000Y-121203900D02*
X115891500Y-121203900D01*
D15*
X128211742Y-82777500D02*
X128686258Y-82777500D01*
X128211742Y-83822500D02*
X128686258Y-83822500D01*
D17*
X113702884Y-97740900D02*
X113702884Y-98248900D01*
D12*
X113929084Y-97997400D02*
X117259084Y-97997400D01*
X113956884Y-102058900D02*
X113929084Y-97997400D01*
X113956884Y-102058900D02*
X113956884Y-102058900D01*
D17*
X114210884Y-97740900D02*
X113702884Y-97740900D01*
D12*
X115607884Y-102058900D02*
X113956884Y-102058900D01*
X117258884Y-102058900D02*
X115607884Y-102058900D01*
X117259084Y-97997400D02*
X117258884Y-102058900D01*
D15*
X139522500Y-104262742D02*
X139522500Y-104737258D01*
X138477500Y-104262742D02*
X138477500Y-104737258D01*
X170940000Y-93062500D02*
X170940000Y-92412500D01*
X170940000Y-93062500D02*
X170940000Y-93712500D01*
X174060000Y-93062500D02*
X174060000Y-92412500D01*
X174060000Y-93062500D02*
X174060000Y-93712500D01*
X174340000Y-92140000D02*
X174010000Y-91900000D01*
X174340000Y-91660000D01*
X174340000Y-92140000D01*
G36*
X174340000Y-92140000D02*
G01*
X174010000Y-91900000D01*
X174340000Y-91660000D01*
X174340000Y-92140000D01*
G37*
X112349758Y-83277500D02*
X111875242Y-83277500D01*
X112349758Y-84322500D02*
X111875242Y-84322500D01*
X174777500Y-90837258D02*
X174777500Y-90362742D01*
X175822500Y-90837258D02*
X175822500Y-90362742D01*
X149759420Y-91490000D02*
X150040580Y-91490000D01*
X149759420Y-92510000D02*
X150040580Y-92510000D01*
X121637258Y-123377500D02*
X121162742Y-123377500D01*
X121637258Y-124422500D02*
X121162742Y-124422500D01*
D18*
G36*
X161175960Y-92983267D02*
G01*
X161260965Y-93035131D01*
X161419510Y-93186457D01*
X161576787Y-93384511D01*
X161704238Y-93587462D01*
X161773308Y-93753477D01*
X161778421Y-93793151D01*
X161841411Y-94078369D01*
X162022241Y-94312099D01*
X162135038Y-94392769D01*
X162239215Y-94445229D01*
X162361272Y-94479803D01*
X162528105Y-94499133D01*
X162766611Y-94505862D01*
X163103686Y-94502630D01*
X163227915Y-94500116D01*
X163594156Y-94493903D01*
X163861212Y-94496704D01*
X164063503Y-94512906D01*
X164235447Y-94546897D01*
X164411465Y-94603062D01*
X164598178Y-94674757D01*
X164948111Y-94801557D01*
X165335022Y-94922272D01*
X165730015Y-95029922D01*
X166104194Y-95117527D01*
X166428663Y-95178109D01*
X166674525Y-95204689D01*
X166776210Y-95200808D01*
X167027250Y-95125841D01*
X167162102Y-94997127D01*
X167192632Y-94855799D01*
X167228294Y-94702722D01*
X167314526Y-94557568D01*
X167420198Y-94459517D01*
X167514178Y-94447743D01*
X167516017Y-94448836D01*
X167567987Y-94547939D01*
X167591574Y-94733957D01*
X167588165Y-94963474D01*
X167559145Y-95193079D01*
X167505899Y-95379356D01*
X167484986Y-95421017D01*
X167324612Y-95606172D01*
X167074764Y-95797973D01*
X166775567Y-95970270D01*
X166467144Y-96096911D01*
X166431053Y-96107904D01*
X166247281Y-96167358D01*
X166173804Y-96213815D01*
X166190633Y-96264243D01*
X166217756Y-96288982D01*
X166347788Y-96350638D01*
X166546723Y-96399771D01*
X166623201Y-96410707D01*
X166926930Y-96398938D01*
X167148222Y-96289721D01*
X167278293Y-96087843D01*
X167290059Y-96047238D01*
X167382236Y-95816017D01*
X167509667Y-95702404D01*
X167568448Y-95692105D01*
X167619931Y-95728070D01*
X167649096Y-95849945D01*
X167660117Y-96078699D01*
X167660527Y-96154533D01*
X167654754Y-96404161D01*
X167639639Y-96609959D01*
X167619042Y-96725067D01*
X167541352Y-96820339D01*
X167377423Y-96962250D01*
X167156248Y-97129666D01*
X166906818Y-97301454D01*
X166658126Y-97456478D01*
X166486941Y-97550338D01*
X166215724Y-97686962D01*
X166137057Y-98444139D01*
X166109186Y-98775372D01*
X166096157Y-99071978D01*
X166098895Y-99298473D01*
X166112078Y-99401842D01*
X166208932Y-99586402D01*
X166372881Y-99741440D01*
X166569670Y-99850369D01*
X166765038Y-99896599D01*
X166924728Y-99863544D01*
X166974864Y-99819605D01*
X167017583Y-99709944D01*
X167057511Y-99516384D01*
X167077706Y-99359231D01*
X167122334Y-99091436D01*
X167194742Y-98849179D01*
X167281883Y-98665078D01*
X167370710Y-98571746D01*
X167394875Y-98566315D01*
X167426738Y-98627901D01*
X167449773Y-98791794D01*
X167459856Y-99026701D01*
X167460000Y-99060480D01*
X167466048Y-99328142D01*
X167487881Y-99489880D01*
X167531036Y-99573061D01*
X167568391Y-99596238D01*
X167631657Y-99686171D01*
X167663448Y-99873331D01*
X167666137Y-100125613D01*
X167642098Y-100410916D01*
X167593703Y-100697137D01*
X167523326Y-100952174D01*
X167456868Y-101104904D01*
X167264966Y-101367019D01*
X167016151Y-101591426D01*
X166771665Y-101728458D01*
X166764347Y-101789276D01*
X166850475Y-101918421D01*
X166938481Y-102017039D01*
X167228328Y-102411430D01*
X167445100Y-102903459D01*
X167580521Y-103473837D01*
X167589235Y-103534178D01*
X167629619Y-103857843D01*
X167647359Y-104107602D01*
X167642729Y-104341257D01*
X167616001Y-104616608D01*
X167595133Y-104782631D01*
X167541684Y-105119222D01*
X167483912Y-105331191D01*
X167418690Y-105427595D01*
X167370776Y-105432562D01*
X167312322Y-105362880D01*
X167221129Y-105197952D01*
X167112713Y-104967202D01*
X167058948Y-104841304D01*
X166873592Y-104418743D01*
X166704974Y-104096868D01*
X166535455Y-103847176D01*
X166347399Y-103641165D01*
X166275851Y-103575786D01*
X166097828Y-103434927D01*
X165903171Y-103318935D01*
X165662838Y-103215170D01*
X165347785Y-103110994D01*
X164953421Y-103000293D01*
X164332442Y-102805813D01*
X163821119Y-102580402D01*
X163396888Y-102312842D01*
X163148820Y-102103163D01*
X162753678Y-101641312D01*
X162472989Y-101115466D01*
X162308211Y-100533071D01*
X162260805Y-99901573D01*
X162332229Y-99228420D01*
X162475376Y-98666579D01*
X162597778Y-98216064D01*
X162645095Y-97859009D01*
X162617176Y-97578170D01*
X162513874Y-97356301D01*
X162463553Y-97293461D01*
X162356311Y-97192095D01*
X162222332Y-97112033D01*
X162031082Y-97040367D01*
X161898863Y-97004274D01*
X161752029Y-96964191D01*
X161594722Y-96926193D01*
X161157963Y-96813490D01*
X160823723Y-96700735D01*
X160561666Y-96573031D01*
X160462949Y-96502404D01*
X160341453Y-96415479D01*
X160132748Y-96213182D01*
X160124436Y-96204195D01*
X159851767Y-95812723D01*
X159780586Y-95610907D01*
X160166150Y-95610907D01*
X160199120Y-95750141D01*
X160307116Y-95853471D01*
X160462949Y-95886166D01*
X160545747Y-95866961D01*
X160639227Y-95798881D01*
X160621758Y-95738819D01*
X160512826Y-95724085D01*
X160475000Y-95731499D01*
X160437634Y-95735815D01*
X160355246Y-95745332D01*
X160312362Y-95679278D01*
X160307895Y-95585720D01*
X160293738Y-95462628D01*
X160246809Y-95460027D01*
X160235394Y-95470501D01*
X160166150Y-95610907D01*
X159780586Y-95610907D01*
X159693356Y-95363588D01*
X159656267Y-94879007D01*
X159665953Y-94762101D01*
X159707090Y-94557285D01*
X159745048Y-94433031D01*
X160677072Y-94433031D01*
X160678200Y-94929495D01*
X160779495Y-95337489D01*
X160981056Y-95657187D01*
X161282980Y-95888761D01*
X161565787Y-96001966D01*
X161898863Y-96066123D01*
X162234922Y-96056339D01*
X162607689Y-95968213D01*
X163015000Y-95812893D01*
X163416396Y-95672046D01*
X163817435Y-95585772D01*
X163917369Y-95574447D01*
X164351842Y-95537194D01*
X164117895Y-95452629D01*
X163898802Y-95391884D01*
X163690586Y-95361248D01*
X163683421Y-95360947D01*
X163551079Y-95345169D01*
X163529659Y-95316347D01*
X163597910Y-95281492D01*
X163734585Y-95247619D01*
X163918434Y-95221739D01*
X164128207Y-95210866D01*
X164138244Y-95210842D01*
X164357065Y-95208596D01*
X164459810Y-95197522D01*
X164464067Y-95171118D01*
X164387424Y-95122882D01*
X164382893Y-95120389D01*
X164223527Y-95054118D01*
X163995801Y-94983407D01*
X163850527Y-94946928D01*
X163646291Y-94899398D01*
X163561060Y-94870750D01*
X163583386Y-94850661D01*
X163701817Y-94828809D01*
X163716842Y-94826396D01*
X163878916Y-94791031D01*
X163922602Y-94759194D01*
X163863191Y-94733350D01*
X163715974Y-94715964D01*
X163496244Y-94709501D01*
X163219291Y-94716427D01*
X163083665Y-94724322D01*
X162747485Y-94743049D01*
X162511859Y-94743654D01*
X162344615Y-94723990D01*
X162213581Y-94681912D01*
X162174652Y-94663665D01*
X162001612Y-94581815D01*
X161930985Y-94568488D01*
X161947500Y-94628796D01*
X162004681Y-94720543D01*
X162094616Y-94876076D01*
X162099479Y-94933807D01*
X162021295Y-94890039D01*
X161947466Y-94824980D01*
X161806155Y-94647044D01*
X161704456Y-94403347D01*
X161631199Y-94064470D01*
X161614063Y-93947045D01*
X161521578Y-93630884D01*
X161368922Y-93362177D01*
X161225031Y-93195290D01*
X161101600Y-93100808D01*
X161018704Y-93086578D01*
X160996419Y-93160450D01*
X161010755Y-93222155D01*
X161013219Y-93355989D01*
X160958962Y-93472840D01*
X160876135Y-93525778D01*
X160835058Y-93515056D01*
X160782594Y-93521665D01*
X160780837Y-93619973D01*
X160824630Y-93780226D01*
X160908813Y-93972672D01*
X160917167Y-93988621D01*
X161058545Y-94255000D01*
X160889991Y-94098820D01*
X160721438Y-93942641D01*
X160677072Y-94433031D01*
X159745048Y-94433031D01*
X159782230Y-94311318D01*
X159790825Y-94288421D01*
X160408158Y-94288421D01*
X160413458Y-94350015D01*
X160437634Y-94355263D01*
X160505701Y-94306741D01*
X160508421Y-94288421D01*
X160485616Y-94223316D01*
X160478945Y-94221579D01*
X160421877Y-94268417D01*
X160408158Y-94288421D01*
X159790825Y-94288421D01*
X159877958Y-94056313D01*
X159980862Y-93824381D01*
X160077529Y-93647635D01*
X160154545Y-93558187D01*
X160170926Y-93553158D01*
X160243715Y-93509529D01*
X160379112Y-93395700D01*
X160531213Y-93252368D01*
X160779301Y-93045245D01*
X160989465Y-92956959D01*
X161175960Y-92983267D01*
G37*
D15*
X143277500Y-111812158D02*
X143277500Y-111337642D01*
X144322500Y-111812158D02*
X144322500Y-111337642D01*
X127300000Y-87640000D02*
X126500000Y-87640000D01*
X127300000Y-87640000D02*
X128100000Y-87640000D01*
X127300000Y-90760000D02*
X126500000Y-90760000D01*
X127300000Y-90760000D02*
X128100000Y-90760000D01*
X126000000Y-87690000D02*
X125760000Y-87360000D01*
X126240000Y-87360000D01*
X126000000Y-87690000D01*
G36*
X126000000Y-87690000D02*
G01*
X125760000Y-87360000D01*
X126240000Y-87360000D01*
X126000000Y-87690000D01*
G37*
X115740580Y-102490000D02*
X115459420Y-102490000D01*
X115740580Y-103510000D02*
X115459420Y-103510000D01*
X144590000Y-126859420D02*
X144590000Y-127140580D01*
X145610000Y-126859420D02*
X145610000Y-127140580D01*
X162470000Y-108150000D02*
X163800000Y-108150000D01*
X162470000Y-109480000D02*
X162470000Y-108150000D01*
X162470000Y-110750000D02*
X162470000Y-120970000D01*
X162470000Y-110750000D02*
X165130000Y-110750000D01*
X162470000Y-120970000D02*
X165130000Y-120970000D01*
X165130000Y-110750000D02*
X165130000Y-120970000D01*
X148090000Y-95800000D02*
X148090000Y-99560000D01*
X148090000Y-99560000D02*
X149350000Y-99560000D01*
X154910000Y-95800000D02*
X154910000Y-99560000D01*
X154910000Y-99560000D02*
X153650000Y-99560000D01*
X155140000Y-94760000D02*
X154810000Y-94520000D01*
X155140000Y-94280000D01*
X155140000Y-94760000D01*
G36*
X155140000Y-94760000D02*
G01*
X154810000Y-94520000D01*
X155140000Y-94280000D01*
X155140000Y-94760000D01*
G37*
D16*
X159887200Y-84882200D02*
X159887200Y-85614600D01*
X159887200Y-84882200D02*
X165887200Y-84882200D01*
X159887200Y-87485400D02*
X159887200Y-88182200D01*
X161871200Y-85770200D02*
X163903200Y-85770200D01*
X161871200Y-87294200D02*
X161871200Y-85770200D01*
X163903200Y-85770200D02*
X163903200Y-87294200D01*
X163903200Y-87294200D02*
X161871200Y-87294200D01*
X165887200Y-85568900D02*
X165887200Y-84882200D01*
X165887200Y-88182200D02*
X159887200Y-88182200D01*
X165887200Y-88182200D02*
X165887200Y-87531100D01*
D15*
X185620000Y-118600000D02*
X170020000Y-118600000D01*
X185620000Y-98800000D02*
X185620000Y-118600000D01*
X185620000Y-98800000D02*
X179020000Y-98800000D01*
X183770000Y-106250000D02*
X183770000Y-103750000D01*
X183770000Y-106250000D02*
X179570000Y-106250000D01*
X182020000Y-114350000D02*
X179520000Y-114350000D01*
X179570000Y-108250000D02*
X175970000Y-108250000D01*
X179570000Y-104250000D02*
X179570000Y-108250000D01*
X177770000Y-111150000D02*
X180270000Y-115750000D01*
X177770000Y-109650000D02*
X177770000Y-111150000D01*
X177770000Y-109650000D02*
X174170000Y-109650000D01*
X177770000Y-102850000D02*
X177770000Y-102050000D01*
X177770000Y-102850000D02*
X174170000Y-102850000D01*
X176620000Y-98800000D02*
X170020000Y-98800000D01*
X175970000Y-108250000D02*
X179570000Y-104250000D01*
X175970000Y-108250000D02*
X175970000Y-104250000D01*
X175970000Y-106250000D02*
X171770000Y-106250000D01*
X175970000Y-104250000D02*
X179570000Y-104250000D01*
X174170000Y-109650000D02*
X174170000Y-102850000D01*
X173620000Y-114350000D02*
X176070000Y-114350000D01*
X171770000Y-103750000D02*
X171770000Y-106250000D01*
X170020000Y-118600000D02*
X170020000Y-98800000D01*
D16*
X130073600Y-120549900D02*
X130073600Y-108649900D01*
X130973500Y-108649900D02*
X130073600Y-108649900D01*
X130983700Y-108350000D02*
X135983700Y-108350000D01*
X130983700Y-120549900D02*
X130083800Y-120549900D01*
X130983700Y-120849800D02*
X130983700Y-108350000D01*
X130983700Y-120849800D02*
X135983700Y-120849800D01*
X131473700Y-107439900D02*
X135473700Y-107439900D01*
X131473700Y-108339800D02*
X131473700Y-107439900D01*
X131473700Y-121749700D02*
X131473700Y-120849800D01*
X131473700Y-121750000D02*
X135473700Y-121750000D01*
X131633700Y-109999800D02*
X131633700Y-119019800D01*
X131633700Y-119019800D02*
X133293500Y-119019800D01*
X131963600Y-110389700D02*
X131963600Y-118659700D01*
X131963600Y-118659700D02*
X132963600Y-118659700D01*
X132963600Y-110389700D02*
X131963600Y-110389700D01*
X132963600Y-118569700D02*
X132963600Y-110389700D01*
X132963600Y-118659700D02*
X132963600Y-118579900D01*
X133303500Y-109999800D02*
X131633700Y-109999800D01*
X133303500Y-110039900D02*
X133303500Y-109999800D01*
X133303500Y-119019800D02*
X133303500Y-110039900D01*
X133303700Y-111499900D02*
X134323800Y-111499900D01*
X133304700Y-118578100D02*
X134324800Y-118578100D01*
X133307000Y-116040400D02*
X134327100Y-116040400D01*
X133336700Y-114149600D02*
X134356800Y-114149600D01*
X134323800Y-110549400D02*
X133313900Y-110549900D01*
X134323800Y-111499900D02*
X134323800Y-110549400D01*
X134324800Y-117628200D02*
X133314900Y-117628200D01*
X134324800Y-118578100D02*
X134324800Y-117628200D01*
X134327100Y-115090500D02*
X133317200Y-115090500D01*
X134327100Y-116040400D02*
X134327100Y-115090500D01*
X134356800Y-113199700D02*
X133346900Y-113199700D01*
X134356800Y-114149600D02*
X134356800Y-113199700D01*
X135473700Y-120849800D02*
X135473700Y-121749700D01*
X135483600Y-108349700D02*
X135483600Y-107449800D01*
X135953600Y-120149900D02*
X137373600Y-120149900D01*
X135983700Y-120849800D02*
X135983700Y-108350000D01*
X137373600Y-109039900D02*
X135983700Y-109039900D01*
X137373600Y-120149900D02*
X137373600Y-109039900D01*
D15*
X146862500Y-84752500D02*
X147650000Y-84752500D01*
X147256250Y-84358750D02*
X147256250Y-85146250D01*
X147890000Y-84254437D02*
X147890000Y-85540000D01*
X147890000Y-84254437D02*
X148954437Y-83190000D01*
X147890000Y-88945563D02*
X147890000Y-87660000D01*
X147890000Y-88945563D02*
X148954437Y-90010000D01*
X148954437Y-83190000D02*
X154710000Y-83190000D01*
X148954437Y-90010000D02*
X154710000Y-90010000D01*
X154710000Y-83190000D02*
X154710000Y-85540000D01*
X154710000Y-90010000D02*
X154710000Y-87660000D01*
X133100000Y-87640000D02*
X132450000Y-87640000D01*
X133100000Y-87640000D02*
X133750000Y-87640000D01*
X133100000Y-90760000D02*
X132450000Y-90760000D01*
X133100000Y-90760000D02*
X133750000Y-90760000D01*
X131937500Y-87690000D02*
X131697500Y-87360000D01*
X132177500Y-87360000D01*
X131937500Y-87690000D01*
G36*
X131937500Y-87690000D02*
G01*
X131697500Y-87360000D01*
X132177500Y-87360000D01*
X131937500Y-87690000D01*
G37*
X120490000Y-110434120D02*
X120490000Y-110715280D01*
X121510000Y-110434120D02*
X121510000Y-110715280D01*
X129590000Y-126859420D02*
X129590000Y-127140580D01*
X130610000Y-126859420D02*
X130610000Y-127140580D01*
X126790000Y-104740580D02*
X126790000Y-104459420D01*
X127810000Y-104740580D02*
X127810000Y-104459420D01*
X132359000Y-123165000D02*
X132359000Y-124635000D01*
X132359000Y-124635000D02*
X134644000Y-124635000D01*
X134644000Y-123165000D02*
X132359000Y-123165000D01*
X132690000Y-104459420D02*
X132690000Y-104740580D01*
X133710000Y-104459420D02*
X133710000Y-104740580D01*
X130200000Y-95415000D02*
X128000000Y-95415000D01*
X130200000Y-95415000D02*
X132400000Y-95415000D01*
X130200000Y-102185000D02*
X128000000Y-102185000D01*
X130200000Y-102185000D02*
X132400000Y-102185000D01*
X134390000Y-101965000D02*
X134060000Y-101725000D01*
X134390000Y-101485000D01*
X134390000Y-101965000D01*
G36*
X134390000Y-101965000D02*
G01*
X134060000Y-101725000D01*
X134390000Y-101485000D01*
X134390000Y-101965000D01*
G37*
X138490000Y-110434120D02*
X138490000Y-110715280D01*
X139510000Y-110434120D02*
X139510000Y-110715280D01*
X152914000Y-116054337D02*
X152914000Y-121809900D01*
X152914000Y-121809900D02*
X155264000Y-121809900D01*
X153978437Y-114989900D02*
X152914000Y-116054337D01*
X153978437Y-114989900D02*
X155264000Y-114989900D01*
X158171500Y-113962400D02*
X158171500Y-114749900D01*
X158565250Y-114356150D02*
X157777750Y-114356150D01*
X158669563Y-114989900D02*
X157384000Y-114989900D01*
X158669563Y-114989900D02*
X159734000Y-116054337D01*
X159734000Y-116054337D02*
X159734000Y-121809900D01*
X159734000Y-121809900D02*
X157384000Y-121809900D01*
D16*
X169692000Y-119607700D02*
X170292000Y-119607700D01*
X169692000Y-120796800D02*
X169692000Y-119607700D01*
X169692000Y-127227700D02*
X170292000Y-127227700D01*
X169692000Y-128372000D02*
X169692000Y-127227700D01*
X170290000Y-118900000D02*
X170290000Y-128900000D01*
X170290000Y-118900000D02*
X185350000Y-118900000D01*
X170290000Y-120071100D02*
X185350000Y-120071100D01*
X170290000Y-121260000D02*
X185350000Y-121260000D01*
X170290000Y-126268700D02*
X170323900Y-126302600D01*
X170292000Y-120796800D02*
X169692000Y-120796800D01*
X170292000Y-128372000D02*
X169692000Y-128372000D01*
X170320000Y-128900000D02*
X185320000Y-128900000D01*
X170323900Y-126302600D02*
X185350000Y-126302600D01*
X171003200Y-127666200D02*
X171003200Y-127638100D01*
X172197000Y-128860000D02*
X171003200Y-127666200D01*
X173187600Y-128857300D02*
X173187600Y-128860000D01*
X174406800Y-127638100D02*
X173187600Y-128857300D01*
X175877300Y-127638100D02*
X175753000Y-127638100D01*
X177099200Y-128860000D02*
X175877300Y-127638100D01*
X177243500Y-118900000D02*
X178488100Y-118900000D01*
X178343800Y-128761700D02*
X178343800Y-128860000D01*
X179467300Y-127638100D02*
X178343800Y-128761700D01*
X181010800Y-127638100D02*
X182232700Y-128860000D01*
X182232700Y-128860000D02*
X182331600Y-128860000D01*
X183500000Y-128860000D02*
X184693800Y-127666200D01*
X184693800Y-127666200D02*
X184693800Y-127638100D01*
X185297400Y-127638100D02*
X170367300Y-127638100D01*
X185350000Y-118900000D02*
X185350000Y-128900000D01*
D15*
X115459420Y-96490000D02*
X115740580Y-96490000D01*
X115459420Y-97510000D02*
X115740580Y-97510000D01*
X141537258Y-107577500D02*
X141062742Y-107577500D01*
X141537258Y-108622500D02*
X141062742Y-108622500D01*
D16*
X152373600Y-120149900D02*
X152373600Y-109039900D01*
X152373600Y-109039900D02*
X150983700Y-109039900D01*
X150983700Y-120849800D02*
X150983700Y-108350000D01*
X150953600Y-120149900D02*
X152373600Y-120149900D01*
X150483600Y-108349700D02*
X150483600Y-107449800D01*
X150473700Y-120849800D02*
X150473700Y-121749700D01*
X149356800Y-114149600D02*
X149356800Y-113199700D01*
X149356800Y-113199700D02*
X148346900Y-113199700D01*
X149327100Y-116040400D02*
X149327100Y-115090500D01*
X149327100Y-115090500D02*
X148317200Y-115090500D01*
X149324800Y-118578100D02*
X149324800Y-117628200D01*
X149324800Y-117628200D02*
X148314900Y-117628200D01*
X149323800Y-111499900D02*
X149323800Y-110549400D01*
X149323800Y-110549400D02*
X148313900Y-110549900D01*
X148336700Y-114149600D02*
X149356800Y-114149600D01*
X148307000Y-116040400D02*
X149327100Y-116040400D01*
X148304700Y-118578100D02*
X149324800Y-118578100D01*
X148303700Y-111499900D02*
X149323800Y-111499900D01*
X148303500Y-119019800D02*
X148303500Y-110039900D01*
X148303500Y-110039900D02*
X148303500Y-109999800D01*
X148303500Y-109999800D02*
X146633700Y-109999800D01*
X147963600Y-118659700D02*
X147963600Y-118579900D01*
X147963600Y-118569700D02*
X147963600Y-110389700D01*
X147963600Y-110389700D02*
X146963600Y-110389700D01*
X146963600Y-118659700D02*
X147963600Y-118659700D01*
X146963600Y-110389700D02*
X146963600Y-118659700D01*
X146633700Y-119019800D02*
X148293500Y-119019800D01*
X146633700Y-109999800D02*
X146633700Y-119019800D01*
X146473700Y-121750000D02*
X150473700Y-121750000D01*
X146473700Y-121749700D02*
X146473700Y-120849800D01*
X146473700Y-108339800D02*
X146473700Y-107439900D01*
X146473700Y-107439900D02*
X150473700Y-107439900D01*
X145983700Y-120849800D02*
X150983700Y-120849800D01*
X145983700Y-120849800D02*
X145983700Y-108350000D01*
X145983700Y-120549900D02*
X145083800Y-120549900D01*
X145983700Y-108350000D02*
X150983700Y-108350000D01*
X145973500Y-108649900D02*
X145073600Y-108649900D01*
X145073600Y-120549900D02*
X145073600Y-108649900D01*
D15*
X156537258Y-107577500D02*
X156062742Y-107577500D01*
X156537258Y-108622500D02*
X156062742Y-108622500D01*
X178057258Y-89177500D02*
X177582742Y-89177500D01*
X178057258Y-90222500D02*
X177582742Y-90222500D01*
X111300000Y-86335000D02*
X113585000Y-86335000D01*
X113585000Y-84865000D02*
X111300000Y-84865000D01*
X113585000Y-86335000D02*
X113585000Y-84865000D01*
X124890000Y-98040580D02*
X124890000Y-97759420D01*
X125910000Y-98040580D02*
X125910000Y-97759420D01*
D16*
X146284000Y-125680000D02*
X146284000Y-126764400D01*
X146542900Y-125680000D02*
X146284000Y-125680000D01*
X147824000Y-129775000D02*
X147824000Y-128601000D01*
X147842900Y-125680000D02*
X147705200Y-125680000D01*
X149824000Y-129775000D02*
X147824000Y-129775000D01*
X149824000Y-129775000D02*
X149824000Y-128601000D01*
X149942800Y-125680000D02*
X149805200Y-125680000D01*
X150144300Y-128601000D02*
X147503700Y-128601000D01*
X151105100Y-125680000D02*
X151364000Y-125680000D01*
X151364000Y-125680000D02*
X151364000Y-126764400D01*
D12*
X128228600Y-102924100D02*
X128228600Y-102924100D01*
X128228600Y-102924100D02*
X132290100Y-102896300D01*
X128228600Y-104575100D02*
X128228600Y-102924100D01*
X128228600Y-106226100D02*
X128228600Y-104575100D01*
X132290100Y-102896300D02*
X132290100Y-106226300D01*
X132290100Y-106226300D02*
X128228600Y-106226100D01*
D17*
X132546600Y-102670100D02*
X132038600Y-102670100D01*
X132546600Y-103178100D02*
X132546600Y-102670100D01*
D15*
X145465000Y-94100000D02*
X145465000Y-98010000D01*
X145465000Y-98010000D02*
X147335000Y-98010000D01*
X147335000Y-98010000D02*
X147335000Y-94100000D01*
X129742500Y-88737258D02*
X129742500Y-88262742D01*
X130787500Y-88737258D02*
X130787500Y-88262742D01*
X128211742Y-84477500D02*
X128686258Y-84477500D01*
X128211742Y-85522500D02*
X128686258Y-85522500D01*
X119900500Y-116054337D02*
X119900500Y-121809900D01*
X119900500Y-121809900D02*
X122250500Y-121809900D01*
X120964937Y-114989900D02*
X119900500Y-116054337D01*
X120964937Y-114989900D02*
X122250500Y-114989900D01*
X125158000Y-113962400D02*
X125158000Y-114749900D01*
X125551750Y-114356150D02*
X124764250Y-114356150D01*
X125656063Y-114989900D02*
X124370500Y-114989900D01*
X125656063Y-114989900D02*
X126720500Y-116054337D01*
X126720500Y-116054337D02*
X126720500Y-121809900D01*
X126720500Y-121809900D02*
X124370500Y-121809900D01*
X177000000Y-92135000D02*
X179285000Y-92135000D01*
X179285000Y-90665000D02*
X177000000Y-90665000D01*
X179285000Y-92135000D02*
X179285000Y-90665000D01*
X147359000Y-123165000D02*
X147359000Y-124635000D01*
X147359000Y-124635000D02*
X149644000Y-124635000D01*
X149644000Y-123165000D02*
X147359000Y-123165000D01*
D16*
X135526900Y-80162500D02*
X135526900Y-81635500D01*
X135526900Y-83591600D02*
X135526900Y-85585500D01*
X135598900Y-80013500D02*
X144598900Y-80013500D01*
X144598900Y-80013500D02*
X144598900Y-81632400D01*
X144598900Y-83594700D02*
X144598900Y-85582400D01*
D15*
X116390000Y-89841422D02*
X116390000Y-90358578D01*
X117810000Y-89841422D02*
X117810000Y-90358578D01*
X140938748Y-90302500D02*
X141461252Y-90302500D01*
X140938748Y-91772500D02*
X141461252Y-91772500D01*
X178037258Y-85577500D02*
X177562742Y-85577500D01*
X178037258Y-86622500D02*
X177562742Y-86622500D01*
X117690000Y-103959420D02*
X117690000Y-104240580D01*
X118710000Y-103959420D02*
X118710000Y-104240580D01*
X134490000Y-98040580D02*
X134490000Y-97759420D01*
X135510000Y-98040580D02*
X135510000Y-97759420D01*
X147090000Y-105530000D02*
X147090000Y-104200000D01*
X148420000Y-105530000D02*
X147090000Y-105530000D01*
X149690000Y-102870000D02*
X154830000Y-102870000D01*
X149690000Y-105530000D02*
X149690000Y-102870000D01*
X149690000Y-105530000D02*
X154830000Y-105530000D01*
X154830000Y-105530000D02*
X154830000Y-102870000D01*
D16*
X175260000Y-84258500D02*
X175260000Y-83174100D01*
X175518900Y-84258500D02*
X175260000Y-84258500D01*
X176479700Y-81337500D02*
X179120300Y-81337500D01*
X176681200Y-84258500D02*
X176818800Y-84258500D01*
X176800000Y-80163500D02*
X176800000Y-81337500D01*
X176800000Y-80163500D02*
X178800000Y-80163500D01*
X178781100Y-84258500D02*
X178918800Y-84258500D01*
X178800000Y-80163500D02*
X178800000Y-81337500D01*
X180081100Y-84258500D02*
X180340000Y-84258500D01*
X180340000Y-84258500D02*
X180340000Y-83174100D01*
D15*
X158277500Y-111812158D02*
X158277500Y-111337642D01*
X159322500Y-111812158D02*
X159322500Y-111337642D01*
X117159420Y-121790000D02*
X117440580Y-121790000D01*
X117159420Y-122810000D02*
X117440580Y-122810000D01*
X123290000Y-98040580D02*
X123290000Y-97759420D01*
X124310000Y-98040580D02*
X124310000Y-97759420D01*
X137914000Y-116054337D02*
X137914000Y-121809900D01*
X137914000Y-121809900D02*
X140264000Y-121809900D01*
X138978437Y-114989900D02*
X137914000Y-116054337D01*
X138978437Y-114989900D02*
X140264000Y-114989900D01*
X143171500Y-113962400D02*
X143171500Y-114749900D01*
X143565250Y-114356150D02*
X142777750Y-114356150D01*
X143669563Y-114989900D02*
X142384000Y-114989900D01*
X143669563Y-114989900D02*
X144734000Y-116054337D01*
X144734000Y-116054337D02*
X144734000Y-121809900D01*
X144734000Y-121809900D02*
X142384000Y-121809900D01*
X137922500Y-104262742D02*
X137922500Y-104737258D01*
X136877500Y-104262742D02*
X136877500Y-104737258D01*
X136890000Y-89841422D02*
X136890000Y-90358578D01*
X138310000Y-89841422D02*
X138310000Y-90358578D01*
X117490000Y-95840580D02*
X117490000Y-95559420D01*
X118510000Y-95840580D02*
X118510000Y-95559420D01*
D16*
X131284000Y-125680000D02*
X131284000Y-126764400D01*
X131542900Y-125680000D02*
X131284000Y-125680000D01*
X132824000Y-129775000D02*
X132824000Y-128601000D01*
X132842900Y-125680000D02*
X132705200Y-125680000D01*
X134824000Y-129775000D02*
X132824000Y-129775000D01*
X134824000Y-129775000D02*
X134824000Y-128601000D01*
X134942800Y-125680000D02*
X134805200Y-125680000D01*
X135144300Y-128601000D02*
X132503700Y-128601000D01*
X136105100Y-125680000D02*
X136364000Y-125680000D01*
X136364000Y-125680000D02*
X136364000Y-126764400D01*
%LPC*%
D19*
X173850000Y-83963500D03*
X172300000Y-83963500D03*
D20*
X137725000Y-123900000D03*
X136075000Y-123900000D03*
D21*
X121955000Y-98099900D03*
X121424900Y-98099900D03*
X120895000Y-98099900D03*
X120364900Y-98099900D03*
X119835100Y-98099900D03*
X119305000Y-98099900D03*
X118774900Y-98099900D03*
X118245000Y-98099900D03*
X118245000Y-101700100D03*
X118774900Y-101700100D03*
X119305000Y-101700100D03*
X119835100Y-101700100D03*
X120364900Y-101700100D03*
X120895000Y-101700100D03*
X121424900Y-101700100D03*
X121955000Y-101700100D03*
D22*
X138200000Y-98675000D03*
X138200000Y-97125000D03*
D20*
X132574000Y-83300000D03*
X130924000Y-83300000D03*
D23*
X140488000Y-112399900D03*
X141438000Y-112399900D03*
X142388000Y-112399900D03*
X142388000Y-109799700D03*
X140488000Y-109799700D03*
D20*
X152850000Y-123900000D03*
X151200000Y-123900000D03*
D22*
X136600000Y-98675000D03*
X136600000Y-97125000D03*
D24*
X179197500Y-94200000D03*
X176397500Y-94200000D03*
D19*
X163525000Y-89600000D03*
X161975000Y-89600000D03*
D25*
X125800000Y-112399900D03*
X125800000Y-110749900D03*
D26*
X140600000Y-105325000D03*
X140600000Y-103675000D03*
D20*
X124135500Y-108100000D03*
X122485500Y-108100000D03*
D19*
X116375000Y-104800000D03*
X114825000Y-104800000D03*
D27*
X122988900Y-86293400D03*
X117208900Y-86293400D03*
D28*
X123299000Y-87363500D03*
X122498900Y-87363500D03*
D29*
X121848900Y-87363500D03*
X121348800Y-87363500D03*
X120848900Y-87363500D03*
X120349100Y-87363500D03*
X119848900Y-87363500D03*
X119349100Y-87363500D03*
X118848900Y-87363500D03*
X118348800Y-87363500D03*
D28*
X117698800Y-87363500D03*
X116899000Y-87363500D03*
D30*
X124424000Y-86813600D03*
D31*
X124424000Y-82613500D03*
D30*
X115774000Y-86813600D03*
D31*
X115774000Y-82613500D03*
D20*
X132574000Y-85000000D03*
X130924000Y-85000000D03*
D23*
X122474500Y-112399900D03*
X123424500Y-112399900D03*
X124374500Y-112399900D03*
X124374500Y-109799700D03*
X122474500Y-109799700D03*
D32*
X116100000Y-127275000D03*
D27*
X117400000Y-127275000D03*
X119100000Y-127275000D03*
D32*
X120400000Y-127275000D03*
D33*
X116549900Y-125975000D03*
X119949900Y-125975000D03*
D34*
X118249900Y-125675000D03*
D35*
X116149800Y-128225000D03*
X120350000Y-128225000D03*
D36*
X117482400Y-123900000D03*
X119057400Y-123900000D03*
D26*
X124200000Y-89175000D03*
X124200000Y-90825000D03*
D37*
X154000000Y-109799700D03*
X154000000Y-111349700D03*
D23*
X155488000Y-112399900D03*
X156438000Y-112399900D03*
X157388000Y-112399900D03*
X157388000Y-109799700D03*
X155488000Y-109799700D03*
D38*
X115774000Y-111099900D03*
D39*
X115774000Y-113600000D03*
X115774000Y-115600000D03*
X115774000Y-118099900D03*
D40*
X114273800Y-108150000D03*
X114273800Y-121049800D03*
D41*
X127624000Y-83300000D03*
X129274000Y-83300000D03*
D42*
X114732784Y-98926800D03*
X114732784Y-101127000D03*
X116482784Y-101127000D03*
X116482784Y-98926800D03*
D26*
X139000000Y-105325000D03*
X139000000Y-103675000D03*
D43*
X173450000Y-92125000D03*
X171550000Y-92125000D03*
X172500000Y-94000000D03*
D20*
X112937500Y-83800000D03*
X111287500Y-83800000D03*
D25*
X175300000Y-91425000D03*
X175300000Y-89775000D03*
D44*
X149125000Y-92000000D03*
X150675000Y-92000000D03*
D20*
X122225000Y-123900000D03*
X120575000Y-123900000D03*
D25*
X143800000Y-112399900D03*
X143800000Y-110749900D03*
D45*
X126162500Y-88250000D03*
X126162500Y-89200000D03*
X126162500Y-90150000D03*
X128437500Y-90150000D03*
X128437500Y-89200000D03*
X128437500Y-88250000D03*
D19*
X116375000Y-103000000D03*
X114825000Y-103000000D03*
D37*
X145100000Y-126225000D03*
X145100000Y-127775000D03*
D46*
X163800000Y-109480000D03*
D39*
X163800000Y-112020000D03*
X163800000Y-114560000D03*
X163800000Y-117100000D03*
X163800000Y-119640000D03*
D47*
X153800000Y-94500000D03*
X151500000Y-94500000D03*
D48*
X151500000Y-100800000D03*
D47*
X149200000Y-94500000D03*
D49*
X166750000Y-86550000D03*
X158750000Y-86550000D03*
D50*
X183770000Y-102150000D03*
D51*
X183820000Y-114400000D03*
X171770000Y-114350000D03*
D50*
X171770000Y-102150000D03*
D51*
X177820000Y-100200000D03*
D52*
X134273800Y-108029900D03*
X134273800Y-121169900D03*
D53*
X131773600Y-111099800D03*
X131773600Y-113599100D03*
X131773600Y-115600700D03*
X131773600Y-118100000D03*
D54*
X148600000Y-86600000D03*
X154000000Y-86600000D03*
D55*
X132162500Y-88250000D03*
X132162500Y-90150000D03*
X134037500Y-89200000D03*
D37*
X121000000Y-109799700D03*
X121000000Y-111349700D03*
X130100000Y-126225000D03*
X130100000Y-127775000D03*
D22*
X127300000Y-105375000D03*
X127300000Y-103825000D03*
D36*
X133056500Y-123900000D03*
X134631500Y-123900000D03*
D37*
X133200000Y-103825000D03*
X133200000Y-105375000D03*
D56*
X133062500Y-101725000D03*
X133062500Y-101075000D03*
X133062500Y-100425000D03*
X133062500Y-99775000D03*
X133062500Y-99125000D03*
X133062500Y-98475000D03*
X133062500Y-97825000D03*
X133062500Y-97175000D03*
X133062500Y-96525000D03*
X133062500Y-95875000D03*
X127337500Y-95875000D03*
X127337500Y-96525000D03*
X127337500Y-97175000D03*
X127337500Y-97825000D03*
X127337500Y-98475000D03*
X127337500Y-99125000D03*
X127337500Y-99775000D03*
X127337500Y-100425000D03*
X127337500Y-101075000D03*
X127337500Y-101725000D03*
D37*
X139000000Y-109799700D03*
X139000000Y-111349700D03*
D57*
X156324000Y-115699900D03*
X156324000Y-121099900D03*
D58*
X172740000Y-123800000D03*
X177820000Y-123800000D03*
X182900000Y-123800000D03*
D44*
X114825000Y-97000000D03*
X116375000Y-97000000D03*
D20*
X142125000Y-108100000D03*
X140475000Y-108100000D03*
D53*
X146773600Y-118100000D03*
X146773600Y-115600700D03*
X146773600Y-113599100D03*
X146773600Y-111099800D03*
D52*
X149273800Y-121169900D03*
X149273800Y-108029900D03*
D20*
X157125000Y-108100000D03*
X155475000Y-108100000D03*
X178645000Y-89700000D03*
X176995000Y-89700000D03*
D59*
X112887500Y-85600000D03*
X111312500Y-85600000D03*
D22*
X125400000Y-98675000D03*
X125400000Y-97125000D03*
D32*
X146674100Y-127275000D03*
D27*
X147974100Y-127275000D03*
X149674100Y-127275000D03*
D32*
X150974100Y-127275000D03*
D33*
X147124000Y-125975000D03*
X150524000Y-125975000D03*
D34*
X148824000Y-125675000D03*
D35*
X146723900Y-128225000D03*
X150924100Y-128225000D03*
D60*
X131360700Y-103700000D03*
X129160500Y-103700000D03*
X129160500Y-105450000D03*
X131360700Y-105450000D03*
D61*
X146400000Y-97050000D03*
X146400000Y-94350000D03*
D25*
X130265000Y-89325000D03*
X130265000Y-87675000D03*
D41*
X127624000Y-85000000D03*
X129274000Y-85000000D03*
D57*
X123310500Y-115699900D03*
X123310500Y-121099900D03*
D59*
X178587500Y-91400000D03*
X177012500Y-91400000D03*
D36*
X148056500Y-123900000D03*
X149631500Y-123900000D03*
D27*
X142988900Y-86293400D03*
X137208900Y-86293400D03*
D28*
X143299000Y-87363500D03*
X142498900Y-87363500D03*
D29*
X141848900Y-87363500D03*
X141348800Y-87363500D03*
X140848900Y-87363500D03*
X140349100Y-87363500D03*
X139848900Y-87363500D03*
X139349100Y-87363500D03*
X138848900Y-87363500D03*
X138348800Y-87363500D03*
D28*
X137698800Y-87363500D03*
X136899000Y-87363500D03*
D30*
X144424000Y-86813600D03*
D31*
X144424000Y-82613500D03*
D30*
X135774000Y-86813600D03*
D31*
X135774000Y-82613500D03*
D62*
X117100000Y-89162500D03*
X117100000Y-91037500D03*
D63*
X140250000Y-91037500D03*
X142150000Y-91037500D03*
D20*
X178625000Y-86100000D03*
X176975000Y-86100000D03*
D37*
X118200000Y-103325000D03*
X118200000Y-104875000D03*
D22*
X135000000Y-98675000D03*
X135000000Y-97125000D03*
D46*
X148420000Y-104200000D03*
D39*
X150960000Y-104200000D03*
X153500000Y-104200000D03*
D32*
X179949900Y-82663500D03*
D27*
X178649900Y-82663500D03*
X176949900Y-82663500D03*
D32*
X175649900Y-82663500D03*
D64*
X179500000Y-83963500D03*
X176100000Y-83963500D03*
D65*
X177800000Y-84263500D03*
D66*
X179900100Y-81713500D03*
X175699900Y-81713500D03*
D25*
X158800000Y-112399900D03*
X158800000Y-110749900D03*
D44*
X116525000Y-122300000D03*
X118075000Y-122300000D03*
D22*
X123800000Y-98675000D03*
X123800000Y-97125000D03*
D57*
X141324000Y-115699900D03*
X141324000Y-121099900D03*
D26*
X137400000Y-105325000D03*
X137400000Y-103675000D03*
D62*
X137600000Y-89162500D03*
X137600000Y-91037500D03*
D22*
X118000000Y-96475000D03*
X118000000Y-94925000D03*
D32*
X131674100Y-127275000D03*
D27*
X132974100Y-127275000D03*
X134674100Y-127275000D03*
D32*
X135974100Y-127275000D03*
D33*
X132124000Y-125975000D03*
X135524000Y-125975000D03*
D34*
X133824000Y-125675000D03*
D35*
X131723900Y-128225000D03*
X135924100Y-128225000D03*
%LPD*%
M02*
