<?xml version="1.0" standalone="no"?>
 <!DOCTYPE svg PUBLIC "-//W3C//DTD SVG 1.1//EN" 
 "http://www.w3.org/Graphics/SVG/1.1/DTD/svg11.dtd"> 
<svg
  xmlns:svg="http://www.w3.org/2000/svg"
  xmlns="http://www.w3.org/2000/svg"
  xmlns:xlink="http://www.w3.org/1999/xlink"
  version="1.1"
  width="85.6488mm" height="52.1208mm" viewBox="0.0000 0.0000 85.6488 52.1208">
<title>SVG Image created as pppc_usb_hub-Edge_Cuts.svg date 2024/06/23 18:06:52 </title>
  <desc>Image generated by PCBNEW </desc>
<g style="fill:#000000; fill-opacity:1.0000;stroke:#000000; stroke-opacity:1.0000;
stroke-linecap:round; stroke-linejoin:round;"
 transform="translate(0 0) scale(1 1)">
</g>
<g style="fill:none; 
stroke:#000000; stroke-width:0.0500; stroke-opacity:1; 
stroke-linecap:round; stroke-linejoin:round;">
<path d="M77.2083 32.1000
L77.2083 45.6000
" />
<path d="M65.8083 45.6000 A0.5000 0.5000 0.0 0 0 66.8083 45.6000" />
</g>
<g style="fill:none; 
stroke:#000000; stroke-width:0.2000; stroke-opacity:1; 
stroke-linecap:round; stroke-linejoin:round;">
<path d="M8.9583 1.2100
L82.5583 1.2100
" />
</g>
<g style="fill:none; 
stroke:#000000; stroke-width:0.0500; stroke-opacity:1; 
stroke-linecap:round; stroke-linejoin:round;">
<path d="M72.9083 20.4000
L72.9083 24.9000
" />
</g>
<g style="fill:none; 
stroke:#000000; stroke-width:0.2000; stroke-opacity:1; 
stroke-linecap:round; stroke-linejoin:round;">
<circle cx="82.5583" cy="4.2100" r="1.3500" /> 
</g>
<g style="fill:none; 
stroke:#000000; stroke-width:0.0500; stroke-opacity:1; 
stroke-linecap:round; stroke-linejoin:round;">
<path d="M78.2083 32.1000
L78.2083 45.6000
" />
<path d="M78.2083 20.4000 A3.1500 3.1500 0.0 0 0 71.9083 20.4000" />
<path d="M71.9083 32.1000
L71.9083 45.6000
" />
<path d="M65.8083 45.6000
L65.8083 32.1000
" />
</g>
<g style="fill:none; 
stroke:#000000; stroke-width:0.2000; stroke-opacity:1; 
stroke-linecap:round; stroke-linejoin:round;">
<path d="M82.5583 49.1900
L8.9583 49.1900
" />
</g>
<g style="fill:none; 
stroke:#000000; stroke-width:0.0500; stroke-opacity:1; 
stroke-linecap:round; stroke-linejoin:round;">
<path d="M77.2083 24.9000 A0.5000 0.5000 0.0 0 0 78.2083 24.9000" />
<path d="M66.8083 32.1000 A0.5000 0.5000 0.0 0 0 65.8083 32.1000" />
<path d="M72.9083 32.1000
L72.9083 45.6000
" />
<path d="M78.2083 24.9000
L78.2083 20.4000
" />
<path d="M78.2083 32.1000 A0.5000 0.5000 0.0 0 0 77.2083 32.1000" />
</g>
<g style="fill:none; 
stroke:#000000; stroke-width:0.2000; stroke-opacity:1; 
stroke-linecap:round; stroke-linejoin:round;">
<path d="M5.9583 46.1900
L5.9583 4.2100
" />
</g>
<g style="fill:none; 
stroke:#000000; stroke-width:0.0500; stroke-opacity:1; 
stroke-linecap:round; stroke-linejoin:round;">
<path d="M71.9083 24.9000
L71.9083 20.4000
" />
<path d="M71.9083 24.9000 A0.5000 0.5000 0.0 0 0 72.9083 24.9000" />
</g>
<g style="fill:none; 
stroke:#000000; stroke-width:0.2000; stroke-opacity:1; 
stroke-linecap:round; stroke-linejoin:round;">
<path d="M5.9583 46.1900 A3.0000 3.0000 0.0 0 0 8.9583 49.1900" />
<circle cx="8.9583" cy="11.2100" r="1.3500" /> 
<path d="M82.5583 49.1900 A3.0000 3.0000 0.0 0 0 85.5583 46.1900" />
</g>
<g style="fill:none; 
stroke:#000000; stroke-width:0.0500; stroke-opacity:1; 
stroke-linecap:round; stroke-linejoin:round;">
<path d="M66.8083 32.1000
L66.8083 45.6000
" />
</g>
<g style="fill:none; 
stroke:#000000; stroke-width:0.2000; stroke-opacity:1; 
stroke-linecap:round; stroke-linejoin:round;">
<circle cx="8.9583" cy="46.1900" r="1.3500" /> 
</g>
<g style="fill:none; 
stroke:#000000; stroke-width:0.0500; stroke-opacity:1; 
stroke-linecap:round; stroke-linejoin:round;">
<path d="M77.2083 20.4000 A2.1500 2.1500 0.0 0 0 72.9083 20.4000" />
<path d="M71.9083 45.6000 A0.5000 0.5000 0.0 0 0 72.9083 45.6000" />
<path d="M77.2083 20.4000
L77.2083 24.9000
" />
</g>
<g style="fill:none; 
stroke:#000000; stroke-width:0.2000; stroke-opacity:1; 
stroke-linecap:round; stroke-linejoin:round;">
<path d="M8.9583 1.2100 A3.0000 3.0000 0.0 0 0 5.9583 4.2100" />
<path d="M85.5583 4.2100 A3.0000 3.0000 0.0 0 0 82.5583 1.2100" />
<circle cx="62.5583" cy="46.1900" r="1.3500" /> 
</g>
<g style="fill:none; 
stroke:#000000; stroke-width:0.0500; stroke-opacity:1; 
stroke-linecap:round; stroke-linejoin:round;">
<path d="M77.2083 45.6000 A0.5000 0.5000 0.0 0 0 78.2083 45.6000" />
<path d="M72.9083 32.1000 A0.5000 0.5000 0.0 0 0 71.9083 32.1000" />
</g>
<g style="fill:none; 
stroke:#000000; stroke-width:0.2000; stroke-opacity:1; 
stroke-linecap:round; stroke-linejoin:round;">
<path d="M85.5583 4.2100
L85.5583 46.1900
" />
</g>
<g style="fill:none; 
stroke:#000000; stroke-width:0.0500; stroke-opacity:1; 
stroke-linecap:round; stroke-linejoin:round;">
<path d="M77.2083 32.1000
L77.2083 45.6000
" />
<path d="M65.8083 45.6000 A0.5000 0.5000 0.0 0 0 66.8083 45.6000" />
</g>
<g style="fill:none; 
stroke:#000000; stroke-width:0.2000; stroke-opacity:1; 
stroke-linecap:round; stroke-linejoin:round;">
<path d="M8.9583 1.2100
L82.5583 1.2100
" />
</g>
<g style="fill:none; 
stroke:#000000; stroke-width:0.0500; stroke-opacity:1; 
stroke-linecap:round; stroke-linejoin:round;">
<path d="M72.9083 20.4000
L72.9083 24.9000
" />
</g>
<g style="fill:none; 
stroke:#000000; stroke-width:0.2000; stroke-opacity:1; 
stroke-linecap:round; stroke-linejoin:round;">
<circle cx="82.5583" cy="4.2100" r="1.3500" /> 
</g>
<g style="fill:none; 
stroke:#000000; stroke-width:0.0500; stroke-opacity:1; 
stroke-linecap:round; stroke-linejoin:round;">
<path d="M78.2083 32.1000
L78.2083 45.6000
" />
<path d="M78.2083 20.4000 A3.1500 3.1500 0.0 0 0 71.9083 20.4000" />
<path d="M71.9083 32.1000
L71.9083 45.6000
" />
<path d="M65.8083 45.6000
L65.8083 32.1000
" />
</g>
<g style="fill:none; 
stroke:#000000; stroke-width:0.2000; stroke-opacity:1; 
stroke-linecap:round; stroke-linejoin:round;">
<path d="M82.5583 49.1900
L8.9583 49.1900
" />
</g>
<g style="fill:none; 
stroke:#000000; stroke-width:0.0500; stroke-opacity:1; 
stroke-linecap:round; stroke-linejoin:round;">
<path d="M77.2083 24.9000 A0.5000 0.5000 0.0 0 0 78.2083 24.9000" />
<path d="M66.8083 32.1000 A0.5000 0.5000 0.0 0 0 65.8083 32.1000" />
<path d="M72.9083 32.1000
L72.9083 45.6000
" />
<path d="M78.2083 24.9000
L78.2083 20.4000
" />
<path d="M78.2083 32.1000 A0.5000 0.5000 0.0 0 0 77.2083 32.1000" />
</g>
<g style="fill:none; 
stroke:#000000; stroke-width:0.2000; stroke-opacity:1; 
stroke-linecap:round; stroke-linejoin:round;">
<path d="M5.9583 46.1900
L5.9583 4.2100
" />
</g>
<g style="fill:none; 
stroke:#000000; stroke-width:0.0500; stroke-opacity:1; 
stroke-linecap:round; stroke-linejoin:round;">
<path d="M71.9083 24.9000
L71.9083 20.4000
" />
<path d="M71.9083 24.9000 A0.5000 0.5000 0.0 0 0 72.9083 24.9000" />
</g>
<g style="fill:none; 
stroke:#000000; stroke-width:0.2000; stroke-opacity:1; 
stroke-linecap:round; stroke-linejoin:round;">
<path d="M5.9583 46.1900 A3.0000 3.0000 0.0 0 0 8.9583 49.1900" />
<circle cx="8.9583" cy="11.2100" r="1.3500" /> 
<path d="M82.5583 49.1900 A3.0000 3.0000 0.0 0 0 85.5583 46.1900" />
</g>
<g style="fill:none; 
stroke:#000000; stroke-width:0.0500; stroke-opacity:1; 
stroke-linecap:round; stroke-linejoin:round;">
<path d="M66.8083 32.1000
L66.8083 45.6000
" />
</g>
<g style="fill:none; 
stroke:#000000; stroke-width:0.2000; stroke-opacity:1; 
stroke-linecap:round; stroke-linejoin:round;">
<circle cx="8.9583" cy="46.1900" r="1.3500" /> 
</g>
<g style="fill:none; 
stroke:#000000; stroke-width:0.0500; stroke-opacity:1; 
stroke-linecap:round; stroke-linejoin:round;">
<path d="M77.2083 20.4000 A2.1500 2.1500 0.0 0 0 72.9083 20.4000" />
<path d="M71.9083 45.6000 A0.5000 0.5000 0.0 0 0 72.9083 45.6000" />
<path d="M77.2083 20.4000
L77.2083 24.9000
" />
</g>
<g style="fill:none; 
stroke:#000000; stroke-width:0.2000; stroke-opacity:1; 
stroke-linecap:round; stroke-linejoin:round;">
<path d="M8.9583 1.2100 A3.0000 3.0000 0.0 0 0 5.9583 4.2100" />
<path d="M85.5583 4.2100 A3.0000 3.0000 0.0 0 0 82.5583 1.2100" />
<circle cx="62.5583" cy="46.1900" r="1.3500" /> 
</g>
<g style="fill:none; 
stroke:#000000; stroke-width:0.0500; stroke-opacity:1; 
stroke-linecap:round; stroke-linejoin:round;">
<path d="M77.2083 45.6000 A0.5000 0.5000 0.0 0 0 78.2083 45.6000" />
<path d="M72.9083 32.1000 A0.5000 0.5000 0.0 0 0 71.9083 32.1000" />
</g>
<g style="fill:none; 
stroke:#000000; stroke-width:0.2000; stroke-opacity:1; 
stroke-linecap:round; stroke-linejoin:round;">
<path d="M85.5583 4.2100
L85.5583 46.1900
" />
</g> 
</svg>
