<?xml version="1.0" standalone="no"?>
 <!DOCTYPE svg PUBLIC "-//W3C//DTD SVG 1.1//EN" 
 "http://www.w3.org/Graphics/SVG/1.1/DTD/svg11.dtd"> 
<svg
  xmlns:svg="http://www.w3.org/2000/svg"
  xmlns="http://www.w3.org/2000/svg"
  xmlns:xlink="http://www.w3.org/1999/xlink"
  version="1.1"
  width="85.6488mm" height="52.1208mm" viewBox="0.0000 0.0000 85.6488 52.1208">
<title>SVG Image created as pppc_usb_hub-F_Paste.svg date 2024/06/11 19:47:13 </title>
  <desc>Image generated by PCBNEW </desc>
<g style="fill:#000000; fill-opacity:1.0000;stroke:#000000; stroke-opacity:1.0000;
stroke-linecap:round; stroke-linejoin:round;"
 transform="translate(0 0) scale(1 1)">
<path style="fill:#000000; fill-opacity:1.0000; stroke:none;fill-rule:evenodd;"
d="M 35.3833,44.3750
35.3681,44.4515
35.3248,44.5164
35.2599,44.5598
35.1833,44.5750
34.7833,44.5750
34.7068,44.5598
34.6419,44.5164
34.5986,44.4515
34.5833,44.3750
34.5833,43.8250
34.5986,43.7485
34.6419,43.6836
34.7068,43.6402
34.7833,43.6250
35.1833,43.6250
35.2599,43.6402
35.3248,43.6836
35.3681,43.7485
35.3833,43.8250
Z" /> 
<path style="fill:#000000; fill-opacity:1.0000; stroke:none;fill-rule:evenodd;"
d="M 33.7333,44.3750
33.7181,44.4515
33.6748,44.5164
33.6099,44.5598
33.5333,44.5750
33.1333,44.5750
33.0568,44.5598
32.9919,44.5164
32.9486,44.4515
32.9333,44.3750
32.9333,43.8250
32.9486,43.7485
32.9919,43.6836
33.0568,43.6402
33.1333,43.6250
33.5333,43.6250
33.6099,43.6402
33.6748,43.6836
33.7181,43.7485
33.7333,43.8250
Z" /> 
<path style="fill:#000000; fill-opacity:1.0000; stroke:none;fill-rule:evenodd;"
d="M 19.0883,17.6999
19.3383,17.6999
19.3383,18.8999
19.0883,18.8999
Z" /> 
<path style="fill:#000000; fill-opacity:1.0000; stroke:none;fill-rule:evenodd;"
d="M 18.5582,17.6999
18.8082,17.6999
18.8082,18.8999
18.5582,18.8999
Z" /> 
<path style="fill:#000000; fill-opacity:1.0000; stroke:none;fill-rule:evenodd;"
d="M 18.0283,17.6999
18.2783,17.6999
18.2783,18.8999
18.0283,18.8999
Z" /> 
<path style="fill:#000000; fill-opacity:1.0000; stroke:none;fill-rule:evenodd;"
d="M 17.4982,17.6999
17.7482,17.6999
17.7482,18.8999
17.4982,18.8999
Z" /> 
<path style="fill:#000000; fill-opacity:1.0000; stroke:none;fill-rule:evenodd;"
d="M 16.9684,17.6999
17.2184,17.6999
17.2184,18.8999
16.9684,18.8999
Z" /> 
<path style="fill:#000000; fill-opacity:1.0000; stroke:none;fill-rule:evenodd;"
d="M 16.4383,17.6999
16.6883,17.6999
16.6883,18.8999
16.4383,18.8999
Z" /> 
<path style="fill:#000000; fill-opacity:1.0000; stroke:none;fill-rule:evenodd;"
d="M 15.9082,17.6999
16.1582,17.6999
16.1582,18.8999
15.9082,18.8999
Z" /> 
<path style="fill:#000000; fill-opacity:1.0000; stroke:none;fill-rule:evenodd;"
d="M 15.3783,17.6999
15.6283,17.6999
15.6283,18.8999
15.3783,18.8999
Z" /> 
<path style="fill:#000000; fill-opacity:1.0000; stroke:none;fill-rule:evenodd;"
d="M 15.3783,21.3001
15.6283,21.3001
15.6283,22.5001
15.3783,22.5001
Z" /> 
<path style="fill:#000000; fill-opacity:1.0000; stroke:none;fill-rule:evenodd;"
d="M 15.9082,21.3001
16.1582,21.3001
16.1582,22.5001
15.9082,22.5001
Z" /> 
<path style="fill:#000000; fill-opacity:1.0000; stroke:none;fill-rule:evenodd;"
d="M 16.4383,21.3001
16.6883,21.3001
16.6883,22.5001
16.4383,22.5001
Z" /> 
<path style="fill:#000000; fill-opacity:1.0000; stroke:none;fill-rule:evenodd;"
d="M 16.9684,21.3001
17.2184,21.3001
17.2184,22.5001
16.9684,22.5001
Z" /> 
<path style="fill:#000000; fill-opacity:1.0000; stroke:none;fill-rule:evenodd;"
d="M 17.4982,21.3001
17.7482,21.3001
17.7482,22.5001
17.4982,22.5001
Z" /> 
<path style="fill:#000000; fill-opacity:1.0000; stroke:none;fill-rule:evenodd;"
d="M 18.0283,21.3001
18.2783,21.3001
18.2783,22.5001
18.0283,22.5001
Z" /> 
<path style="fill:#000000; fill-opacity:1.0000; stroke:none;fill-rule:evenodd;"
d="M 18.5582,21.3001
18.8082,21.3001
18.8082,22.5001
18.5582,22.5001
Z" /> 
<path style="fill:#000000; fill-opacity:1.0000; stroke:none;fill-rule:evenodd;"
d="M 19.0883,21.3001
19.3383,21.3001
19.3383,22.5001
19.0883,22.5001
Z" /> 
<path style="fill:#000000; fill-opacity:1.0000; stroke:none;fill-rule:evenodd;"
d="M 35.2083,19.3250
35.1222,19.3079
35.0492,19.2591
35.0005,19.1861
34.9833,19.1000
34.9833,18.6500
35.0005,18.5639
35.0492,18.4909
35.1222,18.4421
35.2083,18.4250
35.7083,18.4250
35.7944,18.4421
35.8674,18.4909
35.9162,18.5639
35.9333,18.6500
35.9333,19.1000
35.9162,19.1861
35.8674,19.2591
35.7944,19.3079
35.7083,19.3250
Z" /> 
<path style="fill:#000000; fill-opacity:1.0000; stroke:none;fill-rule:evenodd;"
d="M 35.2083,17.7750
35.1222,17.7579
35.0492,17.7091
35.0005,17.6361
34.9833,17.5500
34.9833,17.1000
35.0005,17.0139
35.0492,16.9409
35.1222,16.8921
35.2083,16.8750
35.7083,16.8750
35.7944,16.8921
35.8674,16.9409
35.9162,17.0139
35.9333,17.1000
35.9333,17.5500
35.9162,17.6361
35.8674,17.7091
35.7944,17.7579
35.7083,17.7750
Z" /> 
<path style="fill:#000000; fill-opacity:1.0000; stroke:none;fill-rule:evenodd;"
d="M 30.2323,3.7750
30.2171,3.8515
30.1738,3.9164
30.1089,3.9598
30.0323,3.9750
29.6323,3.9750
29.5558,3.9598
29.4909,3.9164
29.4476,3.8515
29.4323,3.7750
29.4323,3.2250
29.4476,3.1485
29.4909,3.0836
29.5558,3.0402
29.6323,3.0250
30.0323,3.0250
30.1089,3.0402
30.1738,3.0836
30.2171,3.1485
30.2323,3.2250
Z" /> 
<path style="fill:#000000; fill-opacity:1.0000; stroke:none;fill-rule:evenodd;"
d="M 28.5823,3.7750
28.5671,3.8515
28.5238,3.9164
28.4589,3.9598
28.3823,3.9750
27.9823,3.9750
27.9058,3.9598
27.8409,3.9164
27.7976,3.8515
27.7823,3.7750
27.7823,3.2250
27.7976,3.1485
27.8409,3.0836
27.9058,3.0402
27.9823,3.0250
28.3823,3.0250
28.4589,3.0402
28.5238,3.0836
28.5671,3.1485
28.5823,3.2250
Z" /> 
<path style="fill:#000000; fill-opacity:1.0000; stroke:none;fill-rule:evenodd;"
d="M 37.4463,32.0499
38.0463,32.0499
38.0463,33.1499
37.4463,33.1499
Z" /> 
<path style="fill:#000000; fill-opacity:1.0000; stroke:none;fill-rule:evenodd;"
d="M 38.3963,32.0499
38.9963,32.0499
38.9963,33.1499
38.3963,33.1499
Z" /> 
<path style="fill:#000000; fill-opacity:1.0000; stroke:none;fill-rule:evenodd;"
d="M 39.3463,32.0499
39.9463,32.0499
39.9463,33.1499
39.3463,33.1499
Z" /> 
<path style="fill:#000000; fill-opacity:1.0000; stroke:none;fill-rule:evenodd;"
d="M 39.3463,29.4497
39.9463,29.4497
39.9463,30.5497
39.3463,30.5497
Z" /> 
<path style="fill:#000000; fill-opacity:1.0000; stroke:none;fill-rule:evenodd;"
d="M 37.4463,29.4497
38.0463,29.4497
38.0463,30.5497
37.4463,30.5497
Z" /> 
<path style="fill:#000000; fill-opacity:1.0000; stroke:none;fill-rule:evenodd;"
d="M 50.5083,44.3750
50.4931,44.4515
50.4498,44.5164
50.3849,44.5598
50.3083,44.5750
49.9083,44.5750
49.8318,44.5598
49.7669,44.5164
49.7236,44.4515
49.7083,44.3750
49.7083,43.8250
49.7236,43.7485
49.7669,43.6836
49.8318,43.6402
49.9083,43.6250
50.3083,43.6250
50.3849,43.6402
50.4498,43.6836
50.4931,43.7485
50.5083,43.8250
Z" /> 
<path style="fill:#000000; fill-opacity:1.0000; stroke:none;fill-rule:evenodd;"
d="M 48.8583,44.3750
48.8431,44.4515
48.7998,44.5164
48.7349,44.5598
48.6583,44.5750
48.2583,44.5750
48.1818,44.5598
48.1169,44.5164
48.0736,44.4515
48.0583,44.3750
48.0583,43.8250
48.0736,43.7485
48.1169,43.6836
48.1818,43.6402
48.2583,43.6250
48.6583,43.6250
48.7349,43.6402
48.7998,43.6836
48.8431,43.7485
48.8583,43.8250
Z" /> 
<path style="fill:#000000; fill-opacity:1.0000; stroke:none;fill-rule:evenodd;"
d="M 33.6083,19.3250
33.5222,19.3079
33.4492,19.2591
33.4005,19.1861
33.3833,19.1000
33.3833,18.6500
33.4005,18.5639
33.4492,18.4909
33.5222,18.4421
33.6083,18.4250
34.1083,18.4250
34.1944,18.4421
34.2674,18.4909
34.3162,18.5639
34.3333,18.6500
34.3333,19.1000
34.3162,19.1861
34.2674,19.2591
34.1944,19.3079
34.1083,19.3250
Z" /> 
<path style="fill:#000000; fill-opacity:1.0000; stroke:none;fill-rule:evenodd;"
d="M 33.6083,17.7750
33.5222,17.7579
33.4492,17.7091
33.4005,17.6361
33.3833,17.5500
33.3833,17.1000
33.4005,17.0139
33.4492,16.9409
33.5222,16.8921
33.6083,16.8750
34.1083,16.8750
34.1944,16.8921
34.2674,16.9409
34.3162,17.0139
34.3333,17.1000
34.3333,17.5500
34.3162,17.6361
34.2674,17.7091
34.1944,17.7579
34.1083,17.7750
Z" /> 
<path style="fill:#000000; fill-opacity:1.0000; stroke:none;fill-rule:evenodd;"
d="M 77.0058,14.7000
76.9868,14.7957
76.9326,14.8768
76.8515,14.9310
76.7558,14.9500
76.1558,14.9500
76.0602,14.9310
75.9791,14.8768
75.9249,14.7957
75.9058,14.7000
75.9058,14.1000
75.9249,14.0043
75.9791,13.9232
76.0602,13.8690
76.1558,13.8500
76.7558,13.8500
76.8515,13.8690
76.9326,13.9232
76.9868,14.0043
77.0058,14.1000
Z" /> 
<path style="fill:#000000; fill-opacity:1.0000; stroke:none;fill-rule:evenodd;"
d="M 74.2058,14.7000
74.1868,14.7957
74.1326,14.8768
74.0515,14.9310
73.9558,14.9500
73.3558,14.9500
73.2602,14.9310
73.1791,14.8768
73.1249,14.7957
73.1058,14.7000
73.1058,14.1000
73.1249,14.0043
73.1791,13.9232
73.2602,13.8690
73.3558,13.8500
73.9558,13.8500
74.0515,13.8690
74.1326,13.9232
74.1868,14.0043
74.2058,14.1000
Z" /> 
<path style="fill:#000000; fill-opacity:1.0000; stroke:none;fill-rule:evenodd;"
d="M 61.2333,10.0500
61.2162,10.1361
61.1674,10.2091
61.0944,10.2579
61.0083,10.2750
60.5583,10.2750
60.4722,10.2579
60.3992,10.2091
60.3505,10.1361
60.3333,10.0500
60.3333,9.5500
60.3505,9.4639
60.3992,9.3909
60.4722,9.3421
60.5583,9.3250
61.0083,9.3250
61.0944,9.3421
61.1674,9.3909
61.2162,9.4639
61.2333,9.5500
Z" /> 
<path style="fill:#000000; fill-opacity:1.0000; stroke:none;fill-rule:evenodd;"
d="M 59.6833,10.0500
59.6662,10.1361
59.6174,10.2091
59.5444,10.2579
59.4583,10.2750
59.0083,10.2750
58.9222,10.2579
58.8492,10.2091
58.8005,10.1361
58.7833,10.0500
58.7833,9.5500
58.8005,9.4639
58.8492,9.3909
58.9222,9.3421
59.0083,9.3250
59.4583,9.3250
59.5444,9.3421
59.6174,9.3909
59.6662,9.4639
59.6833,9.5500
Z" /> 
<path style="fill:#000000; fill-opacity:1.0000; stroke:none;fill-rule:evenodd;"
d="M 22.7833,32.9999
22.7068,32.9847
22.6419,32.9413
22.5986,32.8764
22.5833,32.7999
22.5833,32.3999
22.5986,32.3234
22.6419,32.2585
22.7068,32.2151
22.7833,32.1999
23.3333,32.1999
23.4099,32.2151
23.4748,32.2585
23.5181,32.3234
23.5333,32.3999
23.5333,32.7999
23.5181,32.8764
23.4748,32.9413
23.4099,32.9847
23.3333,32.9999
Z" /> 
<path style="fill:#000000; fill-opacity:1.0000; stroke:none;fill-rule:evenodd;"
d="M 22.7833,31.3499
22.7068,31.3347
22.6419,31.2913
22.5986,31.2264
22.5833,31.1499
22.5833,30.7499
22.5986,30.6734
22.6419,30.6085
22.7068,30.5651
22.7833,30.5499
23.3333,30.5499
23.4099,30.5651
23.4748,30.6085
23.5181,30.6734
23.5333,30.7499
23.5333,31.1499
23.5181,31.2264
23.4748,31.2913
23.4099,31.3347
23.3333,31.3499
Z" /> 
<path style="fill:#000000; fill-opacity:1.0000; stroke:none;fill-rule:evenodd;"
d="M 38.1333,23.4750
38.2099,23.4902
38.2748,23.5336
38.3181,23.5985
38.3333,23.6750
38.3333,24.0750
38.3181,24.1515
38.2748,24.2164
38.2099,24.2598
38.1333,24.2750
37.5833,24.2750
37.5068,24.2598
37.4419,24.2164
37.3986,24.1515
37.3833,24.0750
37.3833,23.6750
37.3986,23.5985
37.4419,23.5336
37.5068,23.4902
37.5833,23.4750
Z" /> 
<path style="fill:#000000; fill-opacity:1.0000; stroke:none;fill-rule:evenodd;"
d="M 38.1333,25.1250
38.2099,25.1402
38.2748,25.1836
38.3181,25.2485
38.3333,25.3250
38.3333,25.7250
38.3181,25.8015
38.2748,25.8664
38.2099,25.9098
38.1333,25.9250
37.5833,25.9250
37.5068,25.9098
37.4419,25.8664
37.3986,25.8015
37.3833,25.7250
37.3833,25.3250
37.3986,25.2485
37.4419,25.1836
37.5068,25.1402
37.5833,25.1250
Z" /> 
<path style="fill:#000000; fill-opacity:1.0000; stroke:none;fill-rule:evenodd;"
d="M 21.7938,28.5750
21.7786,28.6515
21.7353,28.7164
21.6704,28.7598
21.5938,28.7750
21.1938,28.7750
21.1173,28.7598
21.0524,28.7164
21.0091,28.6515
20.9938,28.5750
20.9938,28.0250
21.0091,27.9485
21.0524,27.8836
21.1173,27.8402
21.1938,27.8250
21.5938,27.8250
21.6704,27.8402
21.7353,27.8836
21.7786,27.9485
21.7938,28.0250
Z" /> 
<path style="fill:#000000; fill-opacity:1.0000; stroke:none;fill-rule:evenodd;"
d="M 20.1438,28.5750
20.1286,28.6515
20.0853,28.7164
20.0204,28.7598
19.9438,28.7750
19.5438,28.7750
19.4673,28.7598
19.4024,28.7164
19.3591,28.6515
19.3438,28.5750
19.3438,28.0250
19.3591,27.9485
19.4024,27.8836
19.4673,27.8402
19.5438,27.8250
19.9438,27.8250
20.0204,27.8402
20.0853,27.8836
20.1286,27.9485
20.1438,28.0250
Z" /> 
<path style="fill:#000000; fill-opacity:1.0000; stroke:none;fill-rule:evenodd;"
d="M 14.0833,25.2500
14.0662,25.3361
14.0174,25.4091
13.9444,25.4579
13.8583,25.4750
13.4083,25.4750
13.3222,25.4579
13.2492,25.4091
13.2005,25.3361
13.1833,25.2500
13.1833,24.7500
13.2005,24.6639
13.2492,24.5909
13.3222,24.5421
13.4083,24.5250
13.8583,24.5250
13.9444,24.5421
14.0174,24.5909
14.0662,24.6639
14.0833,24.7500
Z" /> 
<path style="fill:#000000; fill-opacity:1.0000; stroke:none;fill-rule:evenodd;"
d="M 12.5333,25.2500
12.5162,25.3361
12.4674,25.4091
12.3944,25.4579
12.3083,25.4750
11.8583,25.4750
11.7722,25.4579
11.6992,25.4091
11.6505,25.3361
11.6333,25.2500
11.6333,24.7500
11.6505,24.6639
11.6992,24.5909
11.7722,24.5421
11.8583,24.5250
12.3083,24.5250
12.3944,24.5421
12.4674,24.5909
12.5162,24.6639
12.5333,24.7500
Z" /> 
<path style="fill:#000000; fill-opacity:1.0000; stroke:none;fill-rule:evenodd;"
d="M 30.2323,5.4750
30.2171,5.5515
30.1738,5.6164
30.1089,5.6598
30.0323,5.6750
29.6323,5.6750
29.5558,5.6598
29.4909,5.6164
29.4476,5.5515
29.4323,5.4750
29.4323,4.9250
29.4476,4.8485
29.4909,4.7836
29.5558,4.7402
29.6323,4.7250
30.0323,4.7250
30.1089,4.7402
30.1738,4.7836
30.2171,4.8485
30.2323,4.9250
Z" /> 
<path style="fill:#000000; fill-opacity:1.0000; stroke:none;fill-rule:evenodd;"
d="M 28.5823,5.4750
28.5671,5.5515
28.5238,5.6164
28.4589,5.6598
28.3823,5.6750
27.9823,5.6750
27.9058,5.6598
27.8409,5.6164
27.7976,5.5515
27.7823,5.4750
27.7823,4.9250
27.7976,4.8485
27.8409,4.7836
27.9058,4.7402
27.9823,4.7250
28.3823,4.7250
28.4589,4.7402
28.5238,4.7836
28.5671,4.8485
28.5823,4.9250
Z" /> 
<path style="fill:#000000; fill-opacity:1.0000; stroke:none;fill-rule:evenodd;"
d="M 19.4328,32.0499
20.0328,32.0499
20.0328,33.1499
19.4328,33.1499
Z" /> 
<path style="fill:#000000; fill-opacity:1.0000; stroke:none;fill-rule:evenodd;"
d="M 20.3828,32.0499
20.9828,32.0499
20.9828,33.1499
20.3828,33.1499
Z" /> 
<path style="fill:#000000; fill-opacity:1.0000; stroke:none;fill-rule:evenodd;"
d="M 21.3328,32.0499
21.9328,32.0499
21.9328,33.1499
21.3328,33.1499
Z" /> 
<path style="fill:#000000; fill-opacity:1.0000; stroke:none;fill-rule:evenodd;"
d="M 21.3328,29.4497
21.9328,29.4497
21.9328,30.5497
21.3328,30.5497
Z" /> 
<path style="fill:#000000; fill-opacity:1.0000; stroke:none;fill-rule:evenodd;"
d="M 19.4328,29.4497
20.0328,29.4497
20.0328,30.5497
19.4328,30.5497
Z" /> 
<path style="fill:#000000; fill-opacity:1.0000; stroke:none;fill-rule:evenodd;"
d="M 13.4582,46.7750
13.4582,45.5750
14.1582,45.5750
14.1582,46.7750
Z" /> 
<path style="fill:#000000; fill-opacity:1.0000; stroke:none;fill-rule:evenodd;"
d="M 16.8582,46.7750
16.8582,45.5750
17.5582,45.5750
17.5582,46.7750
Z" /> 
<path style="fill:#000000; fill-opacity:1.0000; stroke:none;fill-rule:evenodd;"
d="M 14.7582,46.3750
14.7582,45.3750
16.2582,45.3750
16.2582,46.3750
Z" /> 
<path style="fill:#000000; fill-opacity:1.0000; stroke:none;fill-rule:evenodd;"
d="M 12.8581,48.7750
12.8581,48.0750
13.9581,48.0750
13.9581,48.7750
Z" /> 
<path style="fill:#000000; fill-opacity:1.0000; stroke:none;fill-rule:evenodd;"
d="M 17.0583,48.7750
17.0583,48.0750
18.1583,48.0750
18.1583,48.7750
Z" /> 
<path style="fill:#000000; fill-opacity:1.0000; stroke:none;fill-rule:evenodd;"
d="M 14.3032,43.8438
14.3199,43.7600
14.3673,43.6891
14.4383,43.6417
14.5220,43.6250
14.9595,43.6250
15.0432,43.6417
15.1142,43.6891
15.1616,43.7600
15.1782,43.8438
15.1782,44.3562
15.1616,44.4400
15.1142,44.5109
15.0432,44.5583
14.9595,44.5750
14.5220,44.5750
14.4383,44.5583
14.3673,44.5109
14.3199,44.4400
14.3032,44.3562
Z" /> 
<path style="fill:#000000; fill-opacity:1.0000; stroke:none;fill-rule:evenodd;"
d="M 15.8782,43.8438
15.8949,43.7600
15.9423,43.6891
16.0133,43.6417
16.0970,43.6250
16.5345,43.6250
16.6182,43.6417
16.6892,43.6891
16.7366,43.7600
16.7532,43.8438
16.7532,44.3562
16.7366,44.4400
16.6892,44.5109
16.6182,44.5583
16.5345,44.5750
16.0970,44.5750
16.0133,44.5583
15.9423,44.5109
15.8949,44.4400
15.8782,44.3562
Z" /> 
<path style="fill:#000000; fill-opacity:1.0000; stroke:none;fill-rule:evenodd;"
d="M 21.7333,8.9750
21.8099,8.9902
21.8748,9.0336
21.9181,9.0985
21.9333,9.1750
21.9333,9.5750
21.9181,9.6515
21.8748,9.7164
21.8099,9.7598
21.7333,9.7750
21.1833,9.7750
21.1068,9.7598
21.0419,9.7164
20.9986,9.6515
20.9833,9.5750
20.9833,9.1750
20.9986,9.0985
21.0419,9.0336
21.1068,8.9902
21.1833,8.9750
Z" /> 
<path style="fill:#000000; fill-opacity:1.0000; stroke:none;fill-rule:evenodd;"
d="M 21.7333,10.6250
21.8099,10.6402
21.8748,10.6836
21.9181,10.7485
21.9333,10.8250
21.9333,11.2250
21.9181,11.3015
21.8748,11.3664
21.8099,11.4098
21.7333,11.4250
21.1833,11.4250
21.1068,11.4098
21.0419,11.3664
20.9986,11.3015
20.9833,11.2250
20.9833,10.8250
20.9986,10.7485
21.0419,10.6836
21.1068,10.6402
21.1833,10.6250
Z" /> 
<path style="fill:#000000; fill-opacity:1.0000; stroke:none;fill-rule:evenodd;"
d="M 51.5083,29.5497
51.5944,29.5668
51.6674,29.6156
51.7162,29.6886
51.7333,29.7747
51.7333,30.2247
51.7162,30.3108
51.6674,30.3838
51.5944,30.4326
51.5083,30.4497
51.0083,30.4497
50.9222,30.4326
50.8492,30.3838
50.8005,30.3108
50.7833,30.2247
50.7833,29.7747
50.8005,29.6886
50.8492,29.6156
50.9222,29.5668
51.0083,29.5497
Z" /> 
<path style="fill:#000000; fill-opacity:1.0000; stroke:none;fill-rule:evenodd;"
d="M 51.5083,31.0997
51.5944,31.1168
51.6674,31.1656
51.7162,31.2386
51.7333,31.3247
51.7333,31.7747
51.7162,31.8608
51.6674,31.9338
51.5944,31.9826
51.5083,31.9997
51.0083,31.9997
50.9222,31.9826
50.8492,31.9338
50.8005,31.8608
50.7833,31.7747
50.7833,31.3247
50.8005,31.2386
50.8492,31.1656
50.9222,31.1168
51.0083,31.0997
Z" /> 
<path style="fill:#000000; fill-opacity:1.0000; stroke:none;fill-rule:evenodd;"
d="M 52.4463,32.0499
53.0463,32.0499
53.0463,33.1499
52.4463,33.1499
Z" /> 
<path style="fill:#000000; fill-opacity:1.0000; stroke:none;fill-rule:evenodd;"
d="M 53.3963,32.0499
53.9963,32.0499
53.9963,33.1499
53.3963,33.1499
Z" /> 
<path style="fill:#000000; fill-opacity:1.0000; stroke:none;fill-rule:evenodd;"
d="M 54.3463,32.0499
54.9463,32.0499
54.9463,33.1499
54.3463,33.1499
Z" /> 
<path style="fill:#000000; fill-opacity:1.0000; stroke:none;fill-rule:evenodd;"
d="M 54.3463,29.4497
54.9463,29.4497
54.9463,30.5497
54.3463,30.5497
Z" /> 
<path style="fill:#000000; fill-opacity:1.0000; stroke:none;fill-rule:evenodd;"
d="M 52.4463,29.4497
53.0463,29.4497
53.0463,30.5497
52.4463,30.5497
Z" /> 
<path style="fill:#000000; fill-opacity:1.0000; stroke:none;fill-rule:evenodd;"
d="M 29.0323,46.7750
29.0323,45.5750
29.7323,45.5750
29.7323,46.7750
Z" /> 
<path style="fill:#000000; fill-opacity:1.0000; stroke:none;fill-rule:evenodd;"
d="M 32.4323,46.7750
32.4323,45.5750
33.1323,45.5750
33.1323,46.7750
Z" /> 
<path style="fill:#000000; fill-opacity:1.0000; stroke:none;fill-rule:evenodd;"
d="M 30.3323,46.3750
30.3323,45.3750
31.8323,45.3750
31.8323,46.3750
Z" /> 
<path style="fill:#000000; fill-opacity:1.0000; stroke:none;fill-rule:evenodd;"
d="M 28.4322,48.7750
28.4322,48.0750
29.5322,48.0750
29.5322,48.7750
Z" /> 
<path style="fill:#000000; fill-opacity:1.0000; stroke:none;fill-rule:evenodd;"
d="M 32.6324,48.7750
32.6324,48.0750
33.7324,48.0750
33.7324,48.7750
Z" /> 
<path style="fill:#000000; fill-opacity:1.0000; stroke:none;fill-rule:evenodd;"
d="M 24.4823,3.2250
24.4976,3.1485
24.5409,3.0836
24.6058,3.0402
24.6823,3.0250
25.0823,3.0250
25.1589,3.0402
25.2238,3.0836
25.2671,3.1485
25.2823,3.2250
25.2823,3.7750
25.2671,3.8515
25.2238,3.9164
25.1589,3.9598
25.0823,3.9750
24.6823,3.9750
24.6058,3.9598
24.5409,3.9164
24.4976,3.8515
24.4823,3.7750
Z" /> 
<path style="fill:#000000; fill-opacity:1.0000; stroke:none;fill-rule:evenodd;"
d="M 26.1323,3.2250
26.1476,3.1485
26.1909,3.0836
26.2558,3.0402
26.3323,3.0250
26.7323,3.0250
26.8089,3.0402
26.8738,3.0836
26.9171,3.1485
26.9323,3.2250
26.9323,3.7750
26.9171,3.8515
26.8738,3.9164
26.8089,3.9598
26.7323,3.9750
26.3323,3.9750
26.2558,3.9598
26.1909,3.9164
26.1476,3.8515
26.1323,3.7750
Z" /> 
<path style="fill:#000000; fill-opacity:1.0000; stroke:none;fill-rule:evenodd;"
d="M 11.3911,18.4268
12.5911,18.4268
12.5911,19.8268
11.3911,19.8268
Z" /> 
<path style="fill:#000000; fill-opacity:1.0000; stroke:none;fill-rule:evenodd;"
d="M 11.3911,20.6270
12.5911,20.6270
12.5911,22.0270
11.3911,22.0270
Z" /> 
<path style="fill:#000000; fill-opacity:1.0000; stroke:none;fill-rule:evenodd;"
d="M 13.1411,20.6270
14.3411,20.6270
14.3411,22.0270
13.1411,22.0270
Z" /> 
<path style="fill:#000000; fill-opacity:1.0000; stroke:none;fill-rule:evenodd;"
d="M 13.1411,18.4268
14.3411,18.4268
14.3411,19.8268
13.1411,19.8268
Z" /> 
<path style="fill:#000000; fill-opacity:1.0000; stroke:none;fill-rule:evenodd;"
d="M 36.5333,23.4750
36.6099,23.4902
36.6748,23.5336
36.7181,23.5985
36.7333,23.6750
36.7333,24.0750
36.7181,24.1515
36.6748,24.2164
36.6099,24.2598
36.5333,24.2750
35.9833,24.2750
35.9068,24.2598
35.8419,24.2164
35.7986,24.1515
35.7833,24.0750
35.7833,23.6750
35.7986,23.5985
35.8419,23.5336
35.9068,23.4902
35.9833,23.4750
Z" /> 
<path style="fill:#000000; fill-opacity:1.0000; stroke:none;fill-rule:evenodd;"
d="M 36.5333,25.1250
36.6099,25.1402
36.6748,25.1836
36.7181,25.2485
36.7333,25.3250
36.7333,25.7250
36.7181,25.8015
36.6748,25.8664
36.6099,25.9098
36.5333,25.9250
35.9833,25.9250
35.9068,25.9098
35.8419,25.8664
35.7986,25.8015
35.7833,25.7250
35.7833,25.3250
35.7986,25.2485
35.8419,25.1836
35.9068,25.1402
35.9833,25.1250
Z" /> 
<path style="fill:#000000; fill-opacity:1.0000; stroke:none;fill-rule:evenodd;"
d="M 70.8583,11.5875
70.9157,11.5989
70.9644,11.6314
70.9969,11.6801
71.0083,11.7375
71.0083,12.9125
70.9969,12.9699
70.9644,13.0186
70.9157,13.0511
70.8583,13.0625
70.5583,13.0625
70.5009,13.0511
70.4523,13.0186
70.4198,12.9699
70.4083,12.9125
70.4083,11.7375
70.4198,11.6801
70.4523,11.6314
70.5009,11.5989
70.5583,11.5875
Z" /> 
<path style="fill:#000000; fill-opacity:1.0000; stroke:none;fill-rule:evenodd;"
d="M 68.9583,11.5875
69.0157,11.5989
69.0644,11.6314
69.0969,11.6801
69.1083,11.7375
69.1083,12.9125
69.0969,12.9699
69.0644,13.0186
69.0157,13.0511
68.9583,13.0625
68.6583,13.0625
68.6009,13.0511
68.5523,13.0186
68.5198,12.9699
68.5083,12.9125
68.5083,11.7375
68.5198,11.6801
68.5523,11.6314
68.6009,11.5989
68.6583,11.5875
Z" /> 
<path style="fill:#000000; fill-opacity:1.0000; stroke:none;fill-rule:evenodd;"
d="M 69.9083,13.4625
69.9657,13.4739
70.0144,13.5064
70.0469,13.5551
70.0583,13.6125
70.0583,14.7875
70.0469,14.8449
70.0144,14.8936
69.9657,14.9261
69.9083,14.9375
69.6083,14.9375
69.5509,14.9261
69.5023,14.8936
69.4698,14.8449
69.4583,14.7875
69.4583,13.6125
69.4698,13.5551
69.5023,13.5064
69.5509,13.4739
69.6083,13.4625
Z" /> 
<path style="fill:#000000; fill-opacity:1.0000; stroke:none;fill-rule:evenodd;"
d="M 10.5958,4.2750
10.5806,4.3515
10.5373,4.4164
10.4724,4.4598
10.3958,4.4750
9.9958,4.4750
9.9193,4.4598
9.8544,4.4164
9.8111,4.3515
9.7958,4.2750
9.7958,3.7250
9.8111,3.6485
9.8544,3.5836
9.9193,3.5402
9.9958,3.5250
10.3958,3.5250
10.4724,3.5402
10.5373,3.5836
10.5806,3.6485
10.5958,3.7250
Z" /> 
<path style="fill:#000000; fill-opacity:1.0000; stroke:none;fill-rule:evenodd;"
d="M 8.9458,4.2750
8.9306,4.3515
8.8873,4.4164
8.8224,4.4598
8.7458,4.4750
8.3458,4.4750
8.2693,4.4598
8.2044,4.4164
8.1611,4.3515
8.1458,4.2750
8.1458,3.7250
8.1611,3.6485
8.2044,3.5836
8.2693,3.5402
8.3458,3.5250
8.7458,3.5250
8.8224,3.5402
8.8873,3.5836
8.9306,3.6485
8.9458,3.7250
Z" /> 
<path style="fill:#000000; fill-opacity:1.0000; stroke:none;fill-rule:evenodd;"
d="M 72.2833,12.0250
72.2068,12.0098
72.1419,11.9664
72.0986,11.9015
72.0833,11.8250
72.0833,11.4250
72.0986,11.3485
72.1419,11.2836
72.2068,11.2402
72.2833,11.2250
72.8333,11.2250
72.9099,11.2402
72.9748,11.2836
73.0181,11.3485
73.0333,11.4250
73.0333,11.8250
73.0181,11.9015
72.9748,11.9664
72.9099,12.0098
72.8333,12.0250
Z" /> 
<path style="fill:#000000; fill-opacity:1.0000; stroke:none;fill-rule:evenodd;"
d="M 72.2833,10.3750
72.2068,10.3598
72.1419,10.3164
72.0986,10.2515
72.0833,10.1750
72.0833,9.7750
72.0986,9.6985
72.1419,9.6336
72.2068,9.5902
72.2833,9.5750
72.8333,9.5750
72.9099,9.5902
72.9748,9.6336
73.0181,9.6985
73.0333,9.7750
73.0333,10.1750
73.0181,10.2515
72.9748,10.3164
72.9099,10.3598
72.8333,10.3750
Z" /> 
<path style="fill:#000000; fill-opacity:1.0000; stroke:none;fill-rule:evenodd;"
d="M 45.9333,11.9500
45.9505,11.8639
45.9992,11.7909
46.0722,11.7421
46.1583,11.7250
46.6083,11.7250
46.6944,11.7421
46.7674,11.7909
46.8162,11.8639
46.8333,11.9500
46.8333,12.4500
46.8162,12.5361
46.7674,12.6091
46.6944,12.6579
46.6083,12.6750
46.1583,12.6750
46.0722,12.6579
45.9992,12.6091
45.9505,12.5361
45.9333,12.4500
Z" /> 
<path style="fill:#000000; fill-opacity:1.0000; stroke:none;fill-rule:evenodd;"
d="M 47.4833,11.9500
47.5005,11.8639
47.5492,11.7909
47.6222,11.7421
47.7083,11.7250
48.1583,11.7250
48.2444,11.7421
48.3174,11.7909
48.3662,11.8639
48.3833,11.9500
48.3833,12.4500
48.3662,12.5361
48.3174,12.6091
48.2444,12.6579
48.1583,12.6750
47.7083,12.6750
47.6222,12.6579
47.5492,12.6091
47.5005,12.5361
47.4833,12.4500
Z" /> 
<path style="fill:#000000; fill-opacity:1.0000; stroke:none;fill-rule:evenodd;"
d="M 19.8833,44.3750
19.8681,44.4515
19.8248,44.5164
19.7599,44.5598
19.6833,44.5750
19.2833,44.5750
19.2068,44.5598
19.1419,44.5164
19.0986,44.4515
19.0833,44.3750
19.0833,43.8250
19.0986,43.7485
19.1419,43.6836
19.2068,43.6402
19.2833,43.6250
19.6833,43.6250
19.7599,43.6402
19.8248,43.6836
19.8681,43.7485
19.8833,43.8250
Z" /> 
<path style="fill:#000000; fill-opacity:1.0000; stroke:none;fill-rule:evenodd;"
d="M 18.2333,44.3750
18.2181,44.4515
18.1748,44.5164
18.1099,44.5598
18.0333,44.5750
17.6333,44.5750
17.5568,44.5598
17.4919,44.5164
17.4486,44.4515
17.4333,44.3750
17.4333,43.8250
17.4486,43.7485
17.4919,43.6836
17.5568,43.6402
17.6333,43.6250
18.0333,43.6250
18.1099,43.6402
18.1748,43.6836
18.2181,43.7485
18.2333,43.8250
Z" /> 
<path style="fill:#000000; fill-opacity:1.0000; stroke:none;fill-rule:evenodd;"
d="M 71.5583,4.4135
71.5412,4.4996
71.4924,4.5726
71.4194,4.6214
71.3333,4.6385
70.8833,4.6385
70.7972,4.6214
70.7242,4.5726
70.6755,4.4996
70.6583,4.4135
70.6583,3.9135
70.6755,3.8274
70.7242,3.7544
70.7972,3.7056
70.8833,3.6885
71.3333,3.6885
71.4194,3.7056
71.4924,3.7544
71.5412,3.8274
71.5583,3.9135
Z" /> 
<path style="fill:#000000; fill-opacity:1.0000; stroke:none;fill-rule:evenodd;"
d="M 70.0083,4.4135
69.9912,4.4996
69.9424,4.5726
69.8694,4.6214
69.7833,4.6385
69.3333,4.6385
69.2472,4.6214
69.1742,4.5726
69.1255,4.4996
69.1083,4.4135
69.1083,3.9135
69.1255,3.8274
69.1742,3.7544
69.2472,3.7056
69.3333,3.6885
69.7833,3.6885
69.8694,3.7056
69.9424,3.7544
69.9912,3.8274
70.0083,3.9135
Z" /> 
<path style="fill:#000000; fill-opacity:1.0000; stroke:none;fill-rule:evenodd;"
d="M 40.7833,32.9999
40.7068,32.9847
40.6419,32.9413
40.5986,32.8764
40.5833,32.7999
40.5833,32.3999
40.5986,32.3234
40.6419,32.2585
40.7068,32.2151
40.7833,32.1999
41.3333,32.1999
41.4099,32.2151
41.4748,32.2585
41.5181,32.3234
41.5333,32.3999
41.5333,32.7999
41.5181,32.8764
41.4748,32.9413
41.4099,32.9847
41.3333,32.9999
Z" /> 
<path style="fill:#000000; fill-opacity:1.0000; stroke:none;fill-rule:evenodd;"
d="M 40.7833,31.3499
40.7068,31.3347
40.6419,31.2913
40.5986,31.2264
40.5833,31.1499
40.5833,30.7499
40.5986,30.6734
40.6419,30.6085
40.7068,30.5651
40.7833,30.5499
41.3333,30.5499
41.4099,30.5651
41.4748,30.6085
41.5181,30.6734
41.5333,30.7499
41.5333,31.1499
41.5181,31.2264
41.4748,31.2913
41.4099,31.3347
41.3333,31.3499
Z" /> 
<path style="fill:#000000; fill-opacity:1.0000; stroke:none;fill-rule:evenodd;"
d="M 22.7583,8.3000
22.7698,8.2426
22.8023,8.1939
22.8509,8.1614
22.9083,8.1500
23.9333,8.1500
23.9907,8.1614
24.0394,8.1939
24.0719,8.2426
24.0833,8.3000
24.0833,8.6000
24.0719,8.6574
24.0394,8.7061
23.9907,8.7386
23.9333,8.7500
22.9083,8.7500
22.8509,8.7386
22.8023,8.7061
22.7698,8.6574
22.7583,8.6000
Z" /> 
<path style="fill:#000000; fill-opacity:1.0000; stroke:none;fill-rule:evenodd;"
d="M 22.7583,9.2500
22.7698,9.1926
22.8023,9.1439
22.8509,9.1114
22.9083,9.1000
23.9333,9.1000
23.9907,9.1114
24.0394,9.1439
24.0719,9.1926
24.0833,9.2500
24.0833,9.5500
24.0719,9.6074
24.0394,9.6561
23.9907,9.6886
23.9333,9.7000
22.9083,9.7000
22.8509,9.6886
22.8023,9.6561
22.7698,9.6074
22.7583,9.5500
Z" /> 
<path style="fill:#000000; fill-opacity:1.0000; stroke:none;fill-rule:evenodd;"
d="M 22.7583,10.2000
22.7698,10.1426
22.8023,10.0939
22.8509,10.0614
22.9083,10.0500
23.9333,10.0500
23.9907,10.0614
24.0394,10.0939
24.0719,10.1426
24.0833,10.2000
24.0833,10.5000
24.0719,10.5574
24.0394,10.6061
23.9907,10.6386
23.9333,10.6500
22.9083,10.6500
22.8509,10.6386
22.8023,10.6061
22.7698,10.5574
22.7583,10.5000
Z" /> 
<path style="fill:#000000; fill-opacity:1.0000; stroke:none;fill-rule:evenodd;"
d="M 25.0333,10.2000
25.0448,10.1426
25.0773,10.0939
25.1259,10.0614
25.1833,10.0500
26.2083,10.0500
26.2657,10.0614
26.3144,10.0939
26.3469,10.1426
26.3583,10.2000
26.3583,10.5000
26.3469,10.5574
26.3144,10.6061
26.2657,10.6386
26.2083,10.6500
25.1833,10.6500
25.1259,10.6386
25.0773,10.6061
25.0448,10.5574
25.0333,10.5000
Z" /> 
<path style="fill:#000000; fill-opacity:1.0000; stroke:none;fill-rule:evenodd;"
d="M 25.0333,9.2500
25.0448,9.1926
25.0773,9.1439
25.1259,9.1114
25.1833,9.1000
26.2083,9.1000
26.2657,9.1114
26.3144,9.1439
26.3469,9.1926
26.3583,9.2500
26.3583,9.5500
26.3469,9.6074
26.3144,9.6561
26.2657,9.6886
26.2083,9.7000
25.1833,9.7000
25.1259,9.6886
25.0773,9.6561
25.0448,9.6074
25.0333,9.5500
Z" /> 
<path style="fill:#000000; fill-opacity:1.0000; stroke:none;fill-rule:evenodd;"
d="M 25.0333,8.3000
25.0448,8.2426
25.0773,8.1939
25.1259,8.1614
25.1833,8.1500
26.2083,8.1500
26.2657,8.1614
26.3144,8.1939
26.3469,8.2426
26.3583,8.3000
26.3583,8.6000
26.3469,8.6574
26.3144,8.7061
26.2657,8.7386
26.2083,8.7500
25.1833,8.7500
25.1259,8.7386
25.0773,8.7061
25.0448,8.6574
25.0333,8.6000
Z" /> 
<path style="fill:#000000; fill-opacity:1.0000; stroke:none;fill-rule:evenodd;"
d="M 14.0833,23.4500
14.0662,23.5361
14.0174,23.6091
13.9444,23.6579
13.8583,23.6750
13.4083,23.6750
13.3222,23.6579
13.2492,23.6091
13.2005,23.5361
13.1833,23.4500
13.1833,22.9500
13.2005,22.8639
13.2492,22.7909
13.3222,22.7421
13.4083,22.7250
13.8583,22.7250
13.9444,22.7421
14.0174,22.7909
14.0662,22.8639
14.0833,22.9500
Z" /> 
<path style="fill:#000000; fill-opacity:1.0000; stroke:none;fill-rule:evenodd;"
d="M 12.5333,23.4500
12.5162,23.5361
12.4674,23.6091
12.3944,23.6579
12.3083,23.6750
11.8583,23.6750
11.7722,23.6579
11.6992,23.6091
11.6505,23.5361
11.6333,23.4500
11.6333,22.9500
11.6505,22.8639
11.6992,22.7909
11.7722,22.7421
11.8583,22.7250
12.3083,22.7250
12.3944,22.7421
12.4674,22.7909
12.5162,22.8639
12.5333,22.9500
Z" /> 
<path style="fill:#000000; fill-opacity:1.0000; stroke:none;fill-rule:evenodd;"
d="M 42.6083,45.9750
42.6944,45.9921
42.7674,46.0409
42.8162,46.1139
42.8333,46.2000
42.8333,46.6500
42.8162,46.7361
42.7674,46.8091
42.6944,46.8579
42.6083,46.8750
42.1083,46.8750
42.0222,46.8579
41.9492,46.8091
41.9005,46.7361
41.8833,46.6500
41.8833,46.2000
41.9005,46.1139
41.9492,46.0409
42.0222,45.9921
42.1083,45.9750
Z" /> 
<path style="fill:#000000; fill-opacity:1.0000; stroke:none;fill-rule:evenodd;"
d="M 42.6083,47.5250
42.6944,47.5421
42.7674,47.5909
42.8162,47.6639
42.8333,47.7500
42.8333,48.2000
42.8162,48.2861
42.7674,48.3591
42.6944,48.4079
42.6083,48.4250
42.1083,48.4250
42.0222,48.4079
41.9492,48.3591
41.9005,48.2861
41.8833,48.2000
41.8833,47.7500
41.9005,47.6639
41.9492,47.5909
42.0222,47.5421
42.1083,47.5250
Z" /> 
<path style="fill:#000000; fill-opacity:1.0000; stroke:none;fill-rule:evenodd;"
d="M 51.4333,13.7000
51.5403,13.7156
51.6512,13.7698
51.7385,13.8571
51.7927,13.9680
51.8083,14.0750
51.8083,15.3250
51.7927,15.4320
51.7385,15.5429
51.6512,15.6302
51.5403,15.6844
51.4333,15.7000
50.6833,15.7000
50.5763,15.6844
50.4654,15.6302
50.3781,15.5429
50.3239,15.4320
50.3083,15.3250
50.3083,14.0750
50.3239,13.9680
50.3781,13.8571
50.4654,13.7698
50.5763,13.7156
50.6833,13.7000
Z" /> 
<path style="fill:#000000; fill-opacity:1.0000; stroke:none;fill-rule:evenodd;"
d="M 49.1333,13.7000
49.2403,13.7156
49.3512,13.7698
49.4385,13.8571
49.4927,13.9680
49.5083,14.0750
49.5083,15.3250
49.4927,15.4320
49.4385,15.5429
49.3512,15.6302
49.2403,15.6844
49.1333,15.7000
48.3833,15.7000
48.2763,15.6844
48.1654,15.6302
48.0781,15.5429
48.0239,15.4320
48.0083,15.3250
48.0083,14.0750
48.0239,13.9680
48.0781,13.8571
48.1654,13.7698
48.2763,13.7156
48.3833,13.7000
Z" /> 
<path style="fill:#000000; fill-opacity:1.0000; stroke:none;fill-rule:evenodd;"
d="M 50.1583,20.0000
50.2646,20.0114
50.3980,20.0612
50.5119,20.1464
50.5972,20.2604
50.6469,20.3937
50.6583,20.5000
50.6583,21.5000
50.6469,21.6063
50.5972,21.7396
50.5119,21.8536
50.3980,21.9388
50.2646,21.9886
50.1583,22.0000
47.3583,22.0000
47.2520,21.9886
47.1187,21.9388
47.0048,21.8536
46.9195,21.7396
46.8698,21.6063
46.8583,21.5000
46.8583,20.5000
46.8698,20.3937
46.9195,20.2604
47.0048,20.1464
47.1187,20.0612
47.2520,20.0114
47.3583,20.0000
Z" /> 
<path style="fill:#000000; fill-opacity:1.0000; stroke:none;fill-rule:evenodd;"
d="M 46.8333,13.7000
46.9403,13.7156
47.0512,13.7698
47.1385,13.8571
47.1927,13.9680
47.2083,14.0750
47.2083,15.3250
47.1927,15.4320
47.1385,15.5429
47.0512,15.6302
46.9403,15.6844
46.8333,15.7000
46.0833,15.7000
45.9763,15.6844
45.8654,15.6302
45.7781,15.5429
45.7239,15.4320
45.7083,15.3250
45.7083,14.0750
45.7239,13.9680
45.7781,13.8571
45.8654,13.7698
45.9763,13.7156
46.0833,13.7000
Z" /> 
<path style="fill:#000000; fill-opacity:1.0000; stroke:none;fill-rule:evenodd;"
d="M 64.9583,6.0000
64.9583,7.5000
63.0583,7.5000
63.0583,6.0000
Z" /> 
<path style="fill:#000000; fill-opacity:1.0000; stroke:none;fill-rule:evenodd;"
d="M 56.9583,6.0000
56.9583,7.5000
55.0583,7.5000
55.0583,6.0000
Z" /> 
<path style="fill:#000000; fill-opacity:1.0000; stroke:none;fill-rule:evenodd;"
d="M 44.1083,6.2500
44.1274,6.1543
44.1816,6.0732
44.2627,6.0190
44.3583,6.0000
47.3583,6.0000
47.4540,6.0190
47.5351,6.0732
47.5893,6.1543
47.6083,6.2500
47.6083,7.3500
47.5893,7.4457
47.5351,7.5268
47.4540,7.5810
47.3583,7.6000
44.3583,7.6000
44.2627,7.5810
44.1816,7.5268
44.1274,7.4457
44.1083,7.3500
Z" /> 
<path style="fill:#000000; fill-opacity:1.0000; stroke:none;fill-rule:evenodd;"
d="M 49.5083,6.2500
49.5274,6.1543
49.5816,6.0732
49.6627,6.0190
49.7583,6.0000
52.7583,6.0000
52.8540,6.0190
52.9351,6.0732
52.9893,6.1543
53.0083,6.2500
53.0083,7.3500
52.9893,7.4457
52.9351,7.5268
52.8540,7.5810
52.7583,7.6000
49.7583,7.6000
49.6627,7.5810
49.5816,7.5268
49.5274,7.4457
49.5083,7.3500
Z" /> 
<path style="fill:#000000; fill-opacity:1.0000; stroke:none;fill-rule:evenodd;"
d="M 28.6833,8.3000
28.6948,8.2426
28.7273,8.1939
28.7759,8.1614
28.8333,8.1500
30.0083,8.1500
30.0657,8.1614
30.1144,8.1939
30.1469,8.2426
30.1583,8.3000
30.1583,8.6000
30.1469,8.6574
30.1144,8.7061
30.0657,8.7386
30.0083,8.7500
28.8333,8.7500
28.7759,8.7386
28.7273,8.7061
28.6948,8.6574
28.6833,8.6000
Z" /> 
<path style="fill:#000000; fill-opacity:1.0000; stroke:none;fill-rule:evenodd;"
d="M 28.6833,10.2000
28.6948,10.1426
28.7273,10.0939
28.7759,10.0614
28.8333,10.0500
30.0083,10.0500
30.0657,10.0614
30.1144,10.0939
30.1469,10.1426
30.1583,10.2000
30.1583,10.5000
30.1469,10.5574
30.1144,10.6061
30.0657,10.6386
30.0083,10.6500
28.8333,10.6500
28.7759,10.6386
28.7273,10.6061
28.6948,10.5574
28.6833,10.5000
Z" /> 
<path style="fill:#000000; fill-opacity:1.0000; stroke:none;fill-rule:evenodd;"
d="M 30.5583,9.2500
30.5698,9.1926
30.6023,9.1439
30.6509,9.1114
30.7083,9.1000
31.8833,9.1000
31.9407,9.1114
31.9894,9.1439
32.0219,9.1926
32.0333,9.2500
32.0333,9.5500
32.0219,9.6074
31.9894,9.6561
31.9407,9.6886
31.8833,9.7000
30.7083,9.7000
30.6509,9.6886
30.6023,9.6561
30.5698,9.6074
30.5583,9.5500
Z" /> 
<path style="fill:#000000; fill-opacity:1.0000; stroke:none;fill-rule:evenodd;"
d="M 18.5083,29.5497
18.5944,29.5668
18.6674,29.6156
18.7162,29.6886
18.7333,29.7747
18.7333,30.2247
18.7162,30.3108
18.6674,30.3838
18.5944,30.4326
18.5083,30.4497
18.0083,30.4497
17.9222,30.4326
17.8492,30.3838
17.8005,30.3108
17.7833,30.2247
17.7833,29.7747
17.8005,29.6886
17.8492,29.6156
17.9222,29.5668
18.0083,29.5497
Z" /> 
<path style="fill:#000000; fill-opacity:1.0000; stroke:none;fill-rule:evenodd;"
d="M 18.5083,31.0997
18.5944,31.1168
18.6674,31.1656
18.7162,31.2386
18.7333,31.3247
18.7333,31.7747
18.7162,31.8608
18.6674,31.9338
18.5944,31.9826
18.5083,31.9997
18.0083,31.9997
17.9222,31.9826
17.8492,31.9338
17.8005,31.8608
17.7833,31.7747
17.7833,31.3247
17.8005,31.2386
17.8492,31.1656
17.9222,31.1168
18.0083,31.0997
Z" /> 
<path style="fill:#000000; fill-opacity:1.0000; stroke:none;fill-rule:evenodd;"
d="M 27.6083,45.9750
27.6944,45.9921
27.7674,46.0409
27.8162,46.1139
27.8333,46.2000
27.8333,46.6500
27.8162,46.7361
27.7674,46.8091
27.6944,46.8579
27.6083,46.8750
27.1083,46.8750
27.0222,46.8579
26.9492,46.8091
26.9005,46.7361
26.8833,46.6500
26.8833,46.2000
26.9005,46.1139
26.9492,46.0409
27.0222,45.9921
27.1083,45.9750
Z" /> 
<path style="fill:#000000; fill-opacity:1.0000; stroke:none;fill-rule:evenodd;"
d="M 27.6083,47.5250
27.6944,47.5421
27.7674,47.5909
27.8162,47.6639
27.8333,47.7500
27.8333,48.2000
27.8162,48.2861
27.7674,48.3591
27.6944,48.4079
27.6083,48.4250
27.1083,48.4250
27.0222,48.4079
26.9492,48.3591
26.9005,48.2861
26.8833,48.2000
26.8833,47.7500
26.9005,47.6639
26.9492,47.5909
27.0222,47.5421
27.1083,47.5250
Z" /> 
<path style="fill:#000000; fill-opacity:1.0000; stroke:none;fill-rule:evenodd;"
d="M 24.3083,26.0250
24.2222,26.0079
24.1492,25.9591
24.1005,25.8861
24.0833,25.8000
24.0833,25.3500
24.1005,25.2639
24.1492,25.1909
24.2222,25.1421
24.3083,25.1250
24.8083,25.1250
24.8944,25.1421
24.9674,25.1909
25.0162,25.2639
25.0333,25.3500
25.0333,25.8000
25.0162,25.8861
24.9674,25.9591
24.8944,26.0079
24.8083,26.0250
Z" /> 
<path style="fill:#000000; fill-opacity:1.0000; stroke:none;fill-rule:evenodd;"
d="M 24.3083,24.4750
24.2222,24.4579
24.1492,24.4091
24.1005,24.3361
24.0833,24.2500
24.0833,23.8000
24.1005,23.7139
24.1492,23.6409
24.2222,23.5921
24.3083,23.5750
24.8083,23.5750
24.8944,23.5921
24.9674,23.6409
25.0162,23.7139
25.0333,23.8000
25.0333,24.2500
25.0162,24.3361
24.9674,24.4091
24.8944,24.4579
24.8083,24.4750
Z" /> 
<path style="fill:#000000; fill-opacity:1.0000; stroke:none;fill-rule:evenodd;"
d="M 29.8773,43.8438
29.8940,43.7600
29.9414,43.6891
30.0124,43.6417
30.0961,43.6250
30.5336,43.6250
30.6173,43.6417
30.6883,43.6891
30.7357,43.7600
30.7523,43.8438
30.7523,44.3562
30.7357,44.4400
30.6883,44.5109
30.6173,44.5583
30.5336,44.5750
30.0961,44.5750
30.0124,44.5583
29.9414,44.5109
29.8940,44.4400
29.8773,44.3562
Z" /> 
<path style="fill:#000000; fill-opacity:1.0000; stroke:none;fill-rule:evenodd;"
d="M 31.4523,43.8438
31.4690,43.7600
31.5164,43.6891
31.5874,43.6417
31.6711,43.6250
32.1086,43.6250
32.1923,43.6417
32.2633,43.6891
32.3107,43.7600
32.3273,43.8438
32.3273,44.3562
32.3107,44.4400
32.2633,44.5109
32.1923,44.5583
32.1086,44.5750
31.6711,44.5750
31.5874,44.5583
31.5164,44.5109
31.4690,44.4400
31.4523,44.3562
Z" /> 
<path style="fill:#000000; fill-opacity:1.0000; stroke:none;fill-rule:evenodd;"
d="M 30.7083,23.5750
30.7944,23.5921
30.8674,23.6409
30.9162,23.7139
30.9333,23.8000
30.9333,24.2500
30.9162,24.3361
30.8674,24.4091
30.7944,24.4579
30.7083,24.4750
30.2083,24.4750
30.1222,24.4579
30.0492,24.4091
30.0005,24.3361
29.9833,24.2500
29.9833,23.8000
30.0005,23.7139
30.0492,23.6409
30.1222,23.5921
30.2083,23.5750
Z" /> 
<path style="fill:#000000; fill-opacity:1.0000; stroke:none;fill-rule:evenodd;"
d="M 30.7083,25.1250
30.7944,25.1421
30.8674,25.1909
30.9162,25.2639
30.9333,25.3500
30.9333,25.8000
30.9162,25.8861
30.8674,25.9591
30.7944,26.0079
30.7083,26.0250
30.2083,26.0250
30.1222,26.0079
30.0492,25.9591
30.0005,25.8861
29.9833,25.8000
29.9833,25.3500
30.0005,25.2639
30.0492,25.1909
30.1222,25.1421
30.2083,25.1250
Z" /> 
<path style="fill:#000000; fill-opacity:1.0000; stroke:none;fill-rule:evenodd;"
d="M 31.0583,22.0250
31.0507,22.0633
31.0290,22.0957
30.9966,22.1174
30.9583,22.1250
29.6833,22.1250
29.6451,22.1174
29.6126,22.0957
29.5909,22.0633
29.5833,22.0250
29.5833,21.8250
29.5909,21.7867
29.6126,21.7543
29.6451,21.7326
29.6833,21.7250
30.9583,21.7250
30.9966,21.7326
31.0290,21.7543
31.0507,21.7867
31.0583,21.8250
Z" /> 
<path style="fill:#000000; fill-opacity:1.0000; stroke:none;fill-rule:evenodd;"
d="M 31.0583,21.3750
31.0507,21.4133
31.0290,21.4457
30.9966,21.4674
30.9583,21.4750
29.6833,21.4750
29.6451,21.4674
29.6126,21.4457
29.5909,21.4133
29.5833,21.3750
29.5833,21.1750
29.5909,21.1367
29.6126,21.1043
29.6451,21.0826
29.6833,21.0750
30.9583,21.0750
30.9966,21.0826
31.0290,21.1043
31.0507,21.1367
31.0583,21.1750
Z" /> 
<path style="fill:#000000; fill-opacity:1.0000; stroke:none;fill-rule:evenodd;"
d="M 31.0583,20.7250
31.0507,20.7633
31.0290,20.7957
30.9966,20.8174
30.9583,20.8250
29.6833,20.8250
29.6451,20.8174
29.6126,20.7957
29.5909,20.7633
29.5833,20.7250
29.5833,20.5250
29.5909,20.4867
29.6126,20.4543
29.6451,20.4326
29.6833,20.4250
30.9583,20.4250
30.9966,20.4326
31.0290,20.4543
31.0507,20.4867
31.0583,20.5250
Z" /> 
<path style="fill:#000000; fill-opacity:1.0000; stroke:none;fill-rule:evenodd;"
d="M 31.0583,20.0750
31.0507,20.1133
31.0290,20.1457
30.9966,20.1674
30.9583,20.1750
29.6833,20.1750
29.6451,20.1674
29.6126,20.1457
29.5909,20.1133
29.5833,20.0750
29.5833,19.8750
29.5909,19.8367
29.6126,19.8043
29.6451,19.7826
29.6833,19.7750
30.9583,19.7750
30.9966,19.7826
31.0290,19.8043
31.0507,19.8367
31.0583,19.8750
Z" /> 
<path style="fill:#000000; fill-opacity:1.0000; stroke:none;fill-rule:evenodd;"
d="M 31.0583,19.4250
31.0507,19.4633
31.0290,19.4957
30.9966,19.5174
30.9583,19.5250
29.6833,19.5250
29.6451,19.5174
29.6126,19.4957
29.5909,19.4633
29.5833,19.4250
29.5833,19.2250
29.5909,19.1867
29.6126,19.1543
29.6451,19.1326
29.6833,19.1250
30.9583,19.1250
30.9966,19.1326
31.0290,19.1543
31.0507,19.1867
31.0583,19.2250
Z" /> 
<path style="fill:#000000; fill-opacity:1.0000; stroke:none;fill-rule:evenodd;"
d="M 31.0583,18.7750
31.0507,18.8133
31.0290,18.8457
30.9966,18.8674
30.9583,18.8750
29.6833,18.8750
29.6451,18.8674
29.6126,18.8457
29.5909,18.8133
29.5833,18.7750
29.5833,18.5750
29.5909,18.5367
29.6126,18.5043
29.6451,18.4826
29.6833,18.4750
30.9583,18.4750
30.9966,18.4826
31.0290,18.5043
31.0507,18.5367
31.0583,18.5750
Z" /> 
<path style="fill:#000000; fill-opacity:1.0000; stroke:none;fill-rule:evenodd;"
d="M 31.0583,18.1250
31.0507,18.1633
31.0290,18.1957
30.9966,18.2174
30.9583,18.2250
29.6833,18.2250
29.6451,18.2174
29.6126,18.1957
29.5909,18.1633
29.5833,18.1250
29.5833,17.9250
29.5909,17.8867
29.6126,17.8543
29.6451,17.8326
29.6833,17.8250
30.9583,17.8250
30.9966,17.8326
31.0290,17.8543
31.0507,17.8867
31.0583,17.9250
Z" /> 
<path style="fill:#000000; fill-opacity:1.0000; stroke:none;fill-rule:evenodd;"
d="M 31.0583,17.4750
31.0507,17.5133
31.0290,17.5457
30.9966,17.5674
30.9583,17.5750
29.6833,17.5750
29.6451,17.5674
29.6126,17.5457
29.5909,17.5133
29.5833,17.4750
29.5833,17.2750
29.5909,17.2367
29.6126,17.2043
29.6451,17.1826
29.6833,17.1750
30.9583,17.1750
30.9966,17.1826
31.0290,17.2043
31.0507,17.2367
31.0583,17.2750
Z" /> 
<path style="fill:#000000; fill-opacity:1.0000; stroke:none;fill-rule:evenodd;"
d="M 31.0583,16.8250
31.0507,16.8633
31.0290,16.8957
30.9966,16.9174
30.9583,16.9250
29.6833,16.9250
29.6451,16.9174
29.6126,16.8957
29.5909,16.8633
29.5833,16.8250
29.5833,16.6250
29.5909,16.5867
29.6126,16.5543
29.6451,16.5326
29.6833,16.5250
30.9583,16.5250
30.9966,16.5326
31.0290,16.5543
31.0507,16.5867
31.0583,16.6250
Z" /> 
<path style="fill:#000000; fill-opacity:1.0000; stroke:none;fill-rule:evenodd;"
d="M 31.0583,16.1750
31.0507,16.2133
31.0290,16.2457
30.9966,16.2674
30.9583,16.2750
29.6833,16.2750
29.6451,16.2674
29.6126,16.2457
29.5909,16.2133
29.5833,16.1750
29.5833,15.9750
29.5909,15.9367
29.6126,15.9043
29.6451,15.8826
29.6833,15.8750
30.9583,15.8750
30.9966,15.8826
31.0290,15.9043
31.0507,15.9367
31.0583,15.9750
Z" /> 
<path style="fill:#000000; fill-opacity:1.0000; stroke:none;fill-rule:evenodd;"
d="M 25.3333,16.1750
25.3257,16.2133
25.3040,16.2457
25.2716,16.2674
25.2333,16.2750
23.9583,16.2750
23.9201,16.2674
23.8876,16.2457
23.8659,16.2133
23.8583,16.1750
23.8583,15.9750
23.8659,15.9367
23.8876,15.9043
23.9201,15.8826
23.9583,15.8750
25.2333,15.8750
25.2716,15.8826
25.3040,15.9043
25.3257,15.9367
25.3333,15.9750
Z" /> 
<path style="fill:#000000; fill-opacity:1.0000; stroke:none;fill-rule:evenodd;"
d="M 25.3333,16.8250
25.3257,16.8633
25.3040,16.8957
25.2716,16.9174
25.2333,16.9250
23.9583,16.9250
23.9201,16.9174
23.8876,16.8957
23.8659,16.8633
23.8583,16.8250
23.8583,16.6250
23.8659,16.5867
23.8876,16.5543
23.9201,16.5326
23.9583,16.5250
25.2333,16.5250
25.2716,16.5326
25.3040,16.5543
25.3257,16.5867
25.3333,16.6250
Z" /> 
<path style="fill:#000000; fill-opacity:1.0000; stroke:none;fill-rule:evenodd;"
d="M 25.3333,17.4750
25.3257,17.5133
25.3040,17.5457
25.2716,17.5674
25.2333,17.5750
23.9583,17.5750
23.9201,17.5674
23.8876,17.5457
23.8659,17.5133
23.8583,17.4750
23.8583,17.2750
23.8659,17.2367
23.8876,17.2043
23.9201,17.1826
23.9583,17.1750
25.2333,17.1750
25.2716,17.1826
25.3040,17.2043
25.3257,17.2367
25.3333,17.2750
Z" /> 
<path style="fill:#000000; fill-opacity:1.0000; stroke:none;fill-rule:evenodd;"
d="M 25.3333,18.1250
25.3257,18.1633
25.3040,18.1957
25.2716,18.2174
25.2333,18.2250
23.9583,18.2250
23.9201,18.2174
23.8876,18.1957
23.8659,18.1633
23.8583,18.1250
23.8583,17.9250
23.8659,17.8867
23.8876,17.8543
23.9201,17.8326
23.9583,17.8250
25.2333,17.8250
25.2716,17.8326
25.3040,17.8543
25.3257,17.8867
25.3333,17.9250
Z" /> 
<path style="fill:#000000; fill-opacity:1.0000; stroke:none;fill-rule:evenodd;"
d="M 25.3333,18.7750
25.3257,18.8133
25.3040,18.8457
25.2716,18.8674
25.2333,18.8750
23.9583,18.8750
23.9201,18.8674
23.8876,18.8457
23.8659,18.8133
23.8583,18.7750
23.8583,18.5750
23.8659,18.5367
23.8876,18.5043
23.9201,18.4826
23.9583,18.4750
25.2333,18.4750
25.2716,18.4826
25.3040,18.5043
25.3257,18.5367
25.3333,18.5750
Z" /> 
<path style="fill:#000000; fill-opacity:1.0000; stroke:none;fill-rule:evenodd;"
d="M 25.3333,19.4250
25.3257,19.4633
25.3040,19.4957
25.2716,19.5174
25.2333,19.5250
23.9583,19.5250
23.9201,19.5174
23.8876,19.4957
23.8659,19.4633
23.8583,19.4250
23.8583,19.2250
23.8659,19.1867
23.8876,19.1543
23.9201,19.1326
23.9583,19.1250
25.2333,19.1250
25.2716,19.1326
25.3040,19.1543
25.3257,19.1867
25.3333,19.2250
Z" /> 
<path style="fill:#000000; fill-opacity:1.0000; stroke:none;fill-rule:evenodd;"
d="M 25.3333,20.0750
25.3257,20.1133
25.3040,20.1457
25.2716,20.1674
25.2333,20.1750
23.9583,20.1750
23.9201,20.1674
23.8876,20.1457
23.8659,20.1133
23.8583,20.0750
23.8583,19.8750
23.8659,19.8367
23.8876,19.8043
23.9201,19.7826
23.9583,19.7750
25.2333,19.7750
25.2716,19.7826
25.3040,19.8043
25.3257,19.8367
25.3333,19.8750
Z" /> 
<path style="fill:#000000; fill-opacity:1.0000; stroke:none;fill-rule:evenodd;"
d="M 25.3333,20.7250
25.3257,20.7633
25.3040,20.7957
25.2716,20.8174
25.2333,20.8250
23.9583,20.8250
23.9201,20.8174
23.8876,20.7957
23.8659,20.7633
23.8583,20.7250
23.8583,20.5250
23.8659,20.4867
23.8876,20.4543
23.9201,20.4326
23.9583,20.4250
25.2333,20.4250
25.2716,20.4326
25.3040,20.4543
25.3257,20.4867
25.3333,20.5250
Z" /> 
<path style="fill:#000000; fill-opacity:1.0000; stroke:none;fill-rule:evenodd;"
d="M 25.3333,21.3750
25.3257,21.4133
25.3040,21.4457
25.2716,21.4674
25.2333,21.4750
23.9583,21.4750
23.9201,21.4674
23.8876,21.4457
23.8659,21.4133
23.8583,21.3750
23.8583,21.1750
23.8659,21.1367
23.8876,21.1043
23.9201,21.0826
23.9583,21.0750
25.2333,21.0750
25.2716,21.0826
25.3040,21.1043
25.3257,21.1367
25.3333,21.1750
Z" /> 
<path style="fill:#000000; fill-opacity:1.0000; stroke:none;fill-rule:evenodd;"
d="M 25.3333,22.0250
25.3257,22.0633
25.3040,22.0957
25.2716,22.1174
25.2333,22.1250
23.9583,22.1250
23.9201,22.1174
23.8876,22.0957
23.8659,22.0633
23.8583,22.0250
23.8583,21.8250
23.8659,21.7867
23.8876,21.7543
23.9201,21.7326
23.9583,21.7250
25.2333,21.7250
25.2716,21.7326
25.3040,21.7543
25.3257,21.7867
25.3333,21.8250
Z" /> 
<path style="fill:#000000; fill-opacity:1.0000; stroke:none;fill-rule:evenodd;"
d="M 36.5083,29.5497
36.5944,29.5668
36.6674,29.6156
36.7162,29.6886
36.7333,29.7747
36.7333,30.2247
36.7162,30.3108
36.6674,30.3838
36.5944,30.4326
36.5083,30.4497
36.0083,30.4497
35.9222,30.4326
35.8492,30.3838
35.8005,30.3108
35.7833,30.2247
35.7833,29.7747
35.8005,29.6886
35.8492,29.6156
35.9222,29.5668
36.0083,29.5497
Z" /> 
<path style="fill:#000000; fill-opacity:1.0000; stroke:none;fill-rule:evenodd;"
d="M 36.5083,31.0997
36.5944,31.1168
36.6674,31.1656
36.7162,31.2386
36.7333,31.3247
36.7333,31.7747
36.7162,31.8608
36.6674,31.9338
36.5944,31.9826
36.5083,31.9997
36.0083,31.9997
35.9222,31.9826
35.8492,31.9338
35.8005,31.8608
35.7833,31.7747
35.7833,31.3247
35.8005,31.2386
35.8492,31.1656
35.9222,31.1168
36.0083,31.0997
Z" /> 
<path style="fill:#000000; fill-opacity:1.0000; stroke:none;fill-rule:evenodd;"
d="M 54.1323,34.1499
54.2280,34.1689
54.3091,34.2231
54.3633,34.3042
54.3823,34.3999
54.3823,37.3999
54.3633,37.4956
54.3091,37.5767
54.2280,37.6309
54.1323,37.6499
53.0323,37.6499
52.9367,37.6309
52.8556,37.5767
52.8014,37.4956
52.7823,37.3999
52.7823,34.3999
52.8014,34.3042
52.8556,34.2231
52.9367,34.1689
53.0323,34.1499
Z" /> 
<path style="fill:#000000; fill-opacity:1.0000; stroke:none;fill-rule:evenodd;"
d="M 54.1323,39.5499
54.2280,39.5689
54.3091,39.6231
54.3633,39.7042
54.3823,39.7999
54.3823,42.7999
54.3633,42.8956
54.3091,42.9767
54.2280,43.0309
54.1323,43.0499
53.0323,43.0499
52.9367,43.0309
52.8556,42.9767
52.8014,42.8956
52.7823,42.7999
52.7823,39.7999
52.8014,39.7042
52.8556,39.6231
52.9367,39.5689
53.0323,39.5499
Z" /> 
<path style="fill:#000000; fill-opacity:1.0000; stroke:none;fill-rule:evenodd;"
d="M 11.6333,16.9500
11.6505,16.8639
11.6992,16.7909
11.7722,16.7421
11.8583,16.7250
12.3083,16.7250
12.3944,16.7421
12.4674,16.7909
12.5162,16.8639
12.5333,16.9500
12.5333,17.4500
12.5162,17.5361
12.4674,17.6091
12.3944,17.6579
12.3083,17.6750
11.8583,17.6750
11.7722,17.6579
11.6992,17.6091
11.6505,17.5361
11.6333,17.4500
Z" /> 
<path style="fill:#000000; fill-opacity:1.0000; stroke:none;fill-rule:evenodd;"
d="M 13.1833,16.9500
13.2005,16.8639
13.2492,16.7909
13.3222,16.7421
13.4083,16.7250
13.8583,16.7250
13.9444,16.7421
14.0174,16.7909
14.0662,16.8639
14.0833,16.9500
14.0833,17.4500
14.0662,17.5361
14.0174,17.6091
13.9444,17.6579
13.8583,17.6750
13.4083,17.6750
13.3222,17.6579
13.2492,17.6091
13.2005,17.5361
13.1833,17.4500
Z" /> 
<path style="fill:#000000; fill-opacity:1.0000; stroke:none;fill-rule:evenodd;"
d="M 39.7833,28.5750
39.7681,28.6515
39.7248,28.7164
39.6599,28.7598
39.5833,28.7750
39.1833,28.7750
39.1068,28.7598
39.0419,28.7164
38.9986,28.6515
38.9833,28.5750
38.9833,28.0250
38.9986,27.9485
39.0419,27.8836
39.1068,27.8402
39.1833,27.8250
39.5833,27.8250
39.6599,27.8402
39.7248,27.8836
39.7681,27.9485
39.7833,28.0250
Z" /> 
<path style="fill:#000000; fill-opacity:1.0000; stroke:none;fill-rule:evenodd;"
d="M 38.1333,28.5750
38.1181,28.6515
38.0748,28.7164
38.0099,28.7598
37.9333,28.7750
37.5333,28.7750
37.4568,28.7598
37.3919,28.7164
37.3486,28.6515
37.3333,28.5750
37.3333,28.0250
37.3486,27.9485
37.3919,27.8836
37.4568,27.8402
37.5333,27.8250
37.9333,27.8250
38.0099,27.8402
38.0748,27.8836
38.1181,27.9485
38.1333,28.0250
Z" /> 
<path style="fill:#000000; fill-opacity:1.0000; stroke:none;fill-rule:evenodd;"
d="M 54.7833,28.5750
54.7681,28.6515
54.7248,28.7164
54.6599,28.7598
54.5833,28.7750
54.1833,28.7750
54.1068,28.7598
54.0419,28.7164
53.9986,28.6515
53.9833,28.5750
53.9833,28.0250
53.9986,27.9485
54.0419,27.8836
54.1068,27.8402
54.1833,27.8250
54.5833,27.8250
54.6599,27.8402
54.7248,27.8836
54.7681,27.9485
54.7833,28.0250
Z" /> 
<path style="fill:#000000; fill-opacity:1.0000; stroke:none;fill-rule:evenodd;"
d="M 53.1333,28.5750
53.1181,28.6515
53.0748,28.7164
53.0099,28.7598
52.9333,28.7750
52.5333,28.7750
52.4568,28.7598
52.3919,28.7164
52.3486,28.6515
52.3333,28.5750
52.3333,28.0250
52.3486,27.9485
52.3919,27.8836
52.4568,27.8402
52.5333,27.8250
52.9333,27.8250
53.0099,27.8402
53.0748,27.8836
53.1181,27.9485
53.1333,28.0250
Z" /> 
<path style="fill:#000000; fill-opacity:1.0000; stroke:none;fill-rule:evenodd;"
d="M 76.3033,10.1750
76.2881,10.2515
76.2448,10.3164
76.1799,10.3598
76.1033,10.3750
75.7033,10.3750
75.6268,10.3598
75.5619,10.3164
75.5186,10.2515
75.5033,10.1750
75.5033,9.6250
75.5186,9.5485
75.5619,9.4836
75.6268,9.4402
75.7033,9.4250
76.1033,9.4250
76.1799,9.4402
76.2448,9.4836
76.2881,9.5485
76.3033,9.6250
Z" /> 
<path style="fill:#000000; fill-opacity:1.0000; stroke:none;fill-rule:evenodd;"
d="M 74.6533,10.1750
74.6381,10.2515
74.5948,10.3164
74.5299,10.3598
74.4533,10.3750
74.0533,10.3750
73.9768,10.3598
73.9119,10.3164
73.8686,10.2515
73.8533,10.1750
73.8533,9.6250
73.8686,9.5485
73.9119,9.4836
73.9768,9.4402
74.0533,9.4250
74.4533,9.4250
74.5299,9.4402
74.5948,9.4836
74.6381,9.5485
74.6533,9.6250
Z" /> 
<path style="fill:#000000; fill-opacity:1.0000; stroke:none;fill-rule:evenodd;"
d="M 10.5833,6.0562
10.5667,6.1400
10.5193,6.2109
10.4483,6.2583
10.3646,6.2750
9.9271,6.2750
9.8434,6.2583
9.7724,6.2109
9.7250,6.1400
9.7083,6.0562
9.7083,5.5438
9.7250,5.4600
9.7724,5.3891
9.8434,5.3417
9.9271,5.3250
10.3646,5.3250
10.4483,5.3417
10.5193,5.3891
10.5667,5.4600
10.5833,5.5438
Z" /> 
<path style="fill:#000000; fill-opacity:1.0000; stroke:none;fill-rule:evenodd;"
d="M 9.0083,6.0562
8.9917,6.1400
8.9443,6.2109
8.8733,6.2583
8.7896,6.2750
8.3521,6.2750
8.2684,6.2583
8.1974,6.2109
8.1500,6.1400
8.1333,6.0562
8.1333,5.5438
8.1500,5.4600
8.1974,5.3891
8.2684,5.3417
8.3521,5.3250
8.7896,5.3250
8.8733,5.3417
8.9443,5.3891
8.9917,5.4600
9.0083,5.5438
Z" /> 
<path style="fill:#000000; fill-opacity:1.0000; stroke:none;fill-rule:evenodd;"
d="M 22.4083,19.3250
22.3222,19.3079
22.2492,19.2591
22.2005,19.1861
22.1833,19.1000
22.1833,18.6500
22.2005,18.5639
22.2492,18.4909
22.3222,18.4421
22.4083,18.4250
22.9083,18.4250
22.9944,18.4421
23.0674,18.4909
23.1162,18.5639
23.1333,18.6500
23.1333,19.1000
23.1162,19.1861
23.0674,19.2591
22.9944,19.3079
22.9083,19.3250
Z" /> 
<path style="fill:#000000; fill-opacity:1.0000; stroke:none;fill-rule:evenodd;"
d="M 22.4083,17.7750
22.3222,17.7579
22.2492,17.7091
22.2005,17.6361
22.1833,17.5500
22.1833,17.1000
22.2005,17.0139
22.2492,16.9409
22.3222,16.8921
22.4083,16.8750
22.9083,16.8750
22.9944,16.8921
23.0674,16.9409
23.1162,17.0139
23.1333,17.1000
23.1333,17.5500
23.1162,17.6361
23.0674,17.7091
22.9944,17.7579
22.9083,17.7750
Z" /> 
<path style="fill:#000000; fill-opacity:1.0000; stroke:none;fill-rule:evenodd;"
d="M 44.0323,46.7750
44.0323,45.5750
44.7323,45.5750
44.7323,46.7750
Z" /> 
<path style="fill:#000000; fill-opacity:1.0000; stroke:none;fill-rule:evenodd;"
d="M 47.4323,46.7750
47.4323,45.5750
48.1323,45.5750
48.1323,46.7750
Z" /> 
<path style="fill:#000000; fill-opacity:1.0000; stroke:none;fill-rule:evenodd;"
d="M 45.3323,46.3750
45.3323,45.3750
46.8323,45.3750
46.8323,46.3750
Z" /> 
<path style="fill:#000000; fill-opacity:1.0000; stroke:none;fill-rule:evenodd;"
d="M 43.4322,48.7750
43.4322,48.0750
44.5322,48.0750
44.5322,48.7750
Z" /> 
<path style="fill:#000000; fill-opacity:1.0000; stroke:none;fill-rule:evenodd;"
d="M 47.6324,48.7750
47.6324,48.0750
48.7324,48.0750
48.7324,48.7750
Z" /> 
<path style="fill:#000000; fill-opacity:1.0000; stroke:none;fill-rule:evenodd;"
d="M 29.3190,23.3000
29.3190,24.5000
27.9190,24.5000
27.9190,23.3000
Z" /> 
<path style="fill:#000000; fill-opacity:1.0000; stroke:none;fill-rule:evenodd;"
d="M 27.1188,23.3000
27.1188,24.5000
25.7188,24.5000
25.7188,23.3000
Z" /> 
<path style="fill:#000000; fill-opacity:1.0000; stroke:none;fill-rule:evenodd;"
d="M 27.1188,25.0500
27.1188,26.2500
25.7188,26.2500
25.7188,25.0500
Z" /> 
<path style="fill:#000000; fill-opacity:1.0000; stroke:none;fill-rule:evenodd;"
d="M 29.3190,25.0500
29.3190,26.2500
27.9190,26.2500
27.9190,25.0500
Z" /> 
<path style="fill:#000000; fill-opacity:1.0000; stroke:none;fill-rule:evenodd;"
d="M 43.2333,17.9500
43.1377,17.9310
43.0566,17.8768
43.0024,17.7957
42.9833,17.7000
42.9833,16.8000
43.0024,16.7043
43.0566,16.6232
43.1377,16.5690
43.2333,16.5500
44.0833,16.5500
44.1790,16.5690
44.2601,16.6232
44.3143,16.7043
44.3333,16.8000
44.3333,17.7000
44.3143,17.7957
44.2601,17.8768
44.1790,17.9310
44.0833,17.9500
Z" /> 
<path style="fill:#000000; fill-opacity:1.0000; stroke:none;fill-rule:evenodd;"
d="M 43.2333,15.2500
43.1377,15.2310
43.0566,15.1768
43.0024,15.0957
42.9833,15.0000
42.9833,14.1000
43.0024,14.0043
43.0566,13.9232
43.1377,13.8690
43.2333,13.8500
44.0833,13.8500
44.1790,13.8690
44.2601,13.9232
44.3143,14.0043
44.3333,14.1000
44.3333,15.0000
44.3143,15.0957
44.2601,15.1768
44.1790,15.2310
44.0833,15.2500
Z" /> 
<path style="fill:#000000; fill-opacity:1.0000; stroke:none;fill-rule:evenodd;"
d="M 27.2483,9.9250
27.1718,9.9098
27.1069,9.8664
27.0636,9.8015
27.0483,9.7250
27.0483,9.3250
27.0636,9.2485
27.1069,9.1836
27.1718,9.1402
27.2483,9.1250
27.7983,9.1250
27.8749,9.1402
27.9398,9.1836
27.9831,9.2485
27.9983,9.3250
27.9983,9.7250
27.9831,9.8015
27.9398,9.8664
27.8749,9.9098
27.7983,9.9250
Z" /> 
<path style="fill:#000000; fill-opacity:1.0000; stroke:none;fill-rule:evenodd;"
d="M 27.2483,8.2750
27.1718,8.2598
27.1069,8.2164
27.0636,8.1515
27.0483,8.0750
27.0483,7.6750
27.0636,7.5985
27.1069,7.5336
27.1718,7.4902
27.2483,7.4750
27.7983,7.4750
27.8749,7.4902
27.9398,7.5336
27.9831,7.5985
27.9983,7.6750
27.9983,8.0750
27.9831,8.1515
27.9398,8.2164
27.8749,8.2598
27.7983,8.2750
Z" /> 
<path style="fill:#000000; fill-opacity:1.0000; stroke:none;fill-rule:evenodd;"
d="M 24.4823,4.9250
24.4976,4.8485
24.5409,4.7836
24.6058,4.7402
24.6823,4.7250
25.0823,4.7250
25.1589,4.7402
25.2238,4.7836
25.2671,4.8485
25.2823,4.9250
25.2823,5.4750
25.2671,5.5515
25.2238,5.6164
25.1589,5.6598
25.0823,5.6750
24.6823,5.6750
24.6058,5.6598
24.5409,5.6164
24.4976,5.5515
24.4823,5.4750
Z" /> 
<path style="fill:#000000; fill-opacity:1.0000; stroke:none;fill-rule:evenodd;"
d="M 26.1323,4.9250
26.1476,4.8485
26.1909,4.7836
26.2558,4.7402
26.3323,4.7250
26.7323,4.7250
26.8089,4.7402
26.8738,4.7836
26.9171,4.8485
26.9323,4.9250
26.9323,5.4750
26.9171,5.5515
26.8738,5.6164
26.8089,5.6598
26.7323,5.6750
26.3323,5.6750
26.2558,5.6598
26.1909,5.6164
26.1476,5.5515
26.1323,5.4750
Z" /> 
<path style="fill:#000000; fill-opacity:1.0000; stroke:none;fill-rule:evenodd;"
d="M 21.1188,34.1499
21.2145,34.1689
21.2956,34.2231
21.3498,34.3042
21.3688,34.3999
21.3688,37.3999
21.3498,37.4956
21.2956,37.5767
21.2145,37.6309
21.1188,37.6499
20.0188,37.6499
19.9232,37.6309
19.8421,37.5767
19.7879,37.4956
19.7688,37.3999
19.7688,34.3999
19.7879,34.3042
19.8421,34.2231
19.9232,34.1689
20.0188,34.1499
Z" /> 
<path style="fill:#000000; fill-opacity:1.0000; stroke:none;fill-rule:evenodd;"
d="M 21.1188,39.5499
21.2145,39.5689
21.2956,39.6231
21.3498,39.7042
21.3688,39.7999
21.3688,42.7999
21.3498,42.8956
21.2956,42.9767
21.2145,43.0309
21.1188,43.0499
20.0188,43.0499
19.9232,43.0309
19.8421,42.9767
19.7879,42.8956
19.7688,42.7999
19.7688,39.7999
19.7879,39.7042
19.8421,39.6231
19.9232,39.5689
20.0188,39.5499
Z" /> 
<path style="fill:#000000; fill-opacity:1.0000; stroke:none;fill-rule:evenodd;"
d="M 76.2833,11.8562
76.2667,11.9400
76.2193,12.0109
76.1483,12.0583
76.0646,12.0750
75.6271,12.0750
75.5434,12.0583
75.4724,12.0109
75.4250,11.9400
75.4083,11.8562
75.4083,11.3438
75.4250,11.2600
75.4724,11.1891
75.5434,11.1417
75.6271,11.1250
76.0646,11.1250
76.1483,11.1417
76.2193,11.1891
76.2667,11.2600
76.2833,11.3438
Z" /> 
<path style="fill:#000000; fill-opacity:1.0000; stroke:none;fill-rule:evenodd;"
d="M 74.7083,11.8562
74.6917,11.9400
74.6443,12.0109
74.5733,12.0583
74.4896,12.0750
74.0521,12.0750
73.9684,12.0583
73.8974,12.0109
73.8500,11.9400
73.8333,11.8562
73.8333,11.3438
73.8500,11.2600
73.8974,11.1891
73.9684,11.1417
74.0521,11.1250
74.4896,11.1250
74.5733,11.1417
74.6443,11.1891
74.6917,11.2600
74.7083,11.3438
Z" /> 
<path style="fill:#000000; fill-opacity:1.0000; stroke:none;fill-rule:evenodd;"
d="M 44.8773,43.8438
44.8940,43.7600
44.9414,43.6891
45.0124,43.6417
45.0961,43.6250
45.5336,43.6250
45.6173,43.6417
45.6883,43.6891
45.7357,43.7600
45.7523,43.8438
45.7523,44.3562
45.7357,44.4400
45.6883,44.5109
45.6173,44.5583
45.5336,44.5750
45.0961,44.5750
45.0124,44.5583
44.9414,44.5109
44.8940,44.4400
44.8773,44.3562
Z" /> 
<path style="fill:#000000; fill-opacity:1.0000; stroke:none;fill-rule:evenodd;"
d="M 46.4523,43.8438
46.4690,43.7600
46.5164,43.6891
46.5874,43.6417
46.6711,43.6250
47.1086,43.6250
47.1923,43.6417
47.2633,43.6891
47.3107,43.7600
47.3273,43.8438
47.3273,44.3562
47.3107,44.4400
47.2633,44.5109
47.1923,44.5583
47.1086,44.5750
46.6711,44.5750
46.5874,44.5583
46.5164,44.5109
46.4690,44.4400
46.4523,44.3562
Z" /> 
<path style="fill:#000000; fill-opacity:1.0000; stroke:none;fill-rule:evenodd;"
d="M 14.8146,8.8750
14.9079,8.8936
14.9869,8.9464
15.0398,9.0255
15.0583,9.1188
15.0583,9.6062
15.0398,9.6995
14.9869,9.7786
14.9079,9.8314
14.8146,9.8500
13.9021,9.8500
13.8088,9.8314
13.7297,9.7786
13.6769,9.6995
13.6583,9.6062
13.6583,9.1188
13.6769,9.0255
13.7297,8.9464
13.8088,8.8936
13.9021,8.8750
Z" /> 
<path style="fill:#000000; fill-opacity:1.0000; stroke:none;fill-rule:evenodd;"
d="M 14.8146,10.7500
14.9079,10.7686
14.9869,10.8214
15.0398,10.9005
15.0583,10.9938
15.0583,11.4812
15.0398,11.5745
14.9869,11.6536
14.9079,11.7064
14.8146,11.7250
13.9021,11.7250
13.8088,11.7064
13.7297,11.6536
13.6769,11.5745
13.6583,11.4812
13.6583,10.9938
13.6769,10.9005
13.7297,10.8214
13.8088,10.7686
13.9021,10.7500
Z" /> 
<path style="fill:#000000; fill-opacity:1.0000; stroke:none;fill-rule:evenodd;"
d="M 37.0083,10.7625
37.0274,10.6668
37.0816,10.5857
37.1627,10.5315
37.2583,10.5125
37.7583,10.5125
37.8540,10.5315
37.9351,10.5857
37.9893,10.6668
38.0083,10.7625
38.0083,11.7125
37.9893,11.8082
37.9351,11.8893
37.8540,11.9435
37.7583,11.9625
37.2583,11.9625
37.1627,11.9435
37.0816,11.8893
37.0274,11.8082
37.0083,11.7125
Z" /> 
<path style="fill:#000000; fill-opacity:1.0000; stroke:none;fill-rule:evenodd;"
d="M 38.9083,10.7625
38.9274,10.6668
38.9816,10.5857
39.0627,10.5315
39.1583,10.5125
39.6583,10.5125
39.7540,10.5315
39.8351,10.5857
39.8893,10.6668
39.9083,10.7625
39.9083,11.7125
39.8893,11.8082
39.8351,11.8893
39.7540,11.9435
39.6583,11.9625
39.1583,11.9625
39.0627,11.9435
38.9816,11.8893
38.9274,11.8082
38.9083,11.7125
Z" /> 
<path style="fill:#000000; fill-opacity:1.0000; stroke:none;fill-rule:evenodd;"
d="M 76.2833,6.5750
76.2681,6.6515
76.2248,6.7164
76.1599,6.7598
76.0833,6.7750
75.6833,6.7750
75.6068,6.7598
75.5419,6.7164
75.4986,6.6515
75.4833,6.5750
75.4833,6.0250
75.4986,5.9485
75.5419,5.8836
75.6068,5.8402
75.6833,5.8250
76.0833,5.8250
76.1599,5.8402
76.2248,5.8836
76.2681,5.9485
76.2833,6.0250
Z" /> 
<path style="fill:#000000; fill-opacity:1.0000; stroke:none;fill-rule:evenodd;"
d="M 74.6333,6.5750
74.6181,6.6515
74.5748,6.7164
74.5099,6.7598
74.4333,6.7750
74.0333,6.7750
73.9568,6.7598
73.8919,6.7164
73.8486,6.6515
73.8333,6.5750
73.8333,6.0250
73.8486,5.9485
73.8919,5.8836
73.9568,5.8402
74.0333,5.8250
74.4333,5.8250
74.5099,5.8402
74.5748,5.8836
74.6181,5.9485
74.6333,6.0250
Z" /> 
<path style="fill:#000000; fill-opacity:1.0000; stroke:none;fill-rule:evenodd;"
d="M 15.7083,23.0750
15.7944,23.0921
15.8674,23.1409
15.9162,23.2139
15.9333,23.3000
15.9333,23.7500
15.9162,23.8361
15.8674,23.9091
15.7944,23.9579
15.7083,23.9750
15.2083,23.9750
15.1222,23.9579
15.0492,23.9091
15.0005,23.8361
14.9833,23.7500
14.9833,23.3000
15.0005,23.2139
15.0492,23.1409
15.1222,23.0921
15.2083,23.0750
Z" /> 
<path style="fill:#000000; fill-opacity:1.0000; stroke:none;fill-rule:evenodd;"
d="M 15.7083,24.6250
15.7944,24.6421
15.8674,24.6909
15.9162,24.7639
15.9333,24.8500
15.9333,25.3000
15.9162,25.3861
15.8674,25.4591
15.7944,25.5079
15.7083,25.5250
15.2083,25.5250
15.1222,25.5079
15.0492,25.4591
15.0005,25.3861
14.9833,25.3000
14.9833,24.8500
15.0005,24.7639
15.0492,24.6909
15.1222,24.6421
15.2083,24.6250
Z" /> 
<path style="fill:#000000; fill-opacity:1.0000; stroke:none;fill-rule:evenodd;"
d="M 32.0083,19.3250
31.9222,19.3079
31.8492,19.2591
31.8005,19.1861
31.7833,19.1000
31.7833,18.6500
31.8005,18.5639
31.8492,18.4909
31.9222,18.4421
32.0083,18.4250
32.5083,18.4250
32.5944,18.4421
32.6674,18.4909
32.7162,18.5639
32.7333,18.6500
32.7333,19.1000
32.7162,19.1861
32.6674,19.2591
32.5944,19.3079
32.5083,19.3250
Z" /> 
<path style="fill:#000000; fill-opacity:1.0000; stroke:none;fill-rule:evenodd;"
d="M 32.0083,17.7750
31.9222,17.7579
31.8492,17.7091
31.8005,17.6361
31.7833,17.5500
31.7833,17.1000
31.8005,17.0139
31.8492,16.9409
31.9222,16.8921
32.0083,16.8750
32.5083,16.8750
32.5944,16.8921
32.6674,16.9409
32.7162,17.0139
32.7333,17.1000
32.7333,17.5500
32.7162,17.6361
32.6674,17.7091
32.5944,17.7579
32.5083,17.7750
Z" /> 
<path style="fill:#000000; fill-opacity:1.0000; stroke:none;fill-rule:evenodd;"
d="M 77.1083,3.5635
77.1083,4.7635
76.4083,4.7635
76.4083,3.5635
Z" /> 
<path style="fill:#000000; fill-opacity:1.0000; stroke:none;fill-rule:evenodd;"
d="M 73.7083,3.5635
73.7083,4.7635
73.0083,4.7635
73.0083,3.5635
Z" /> 
<path style="fill:#000000; fill-opacity:1.0000; stroke:none;fill-rule:evenodd;"
d="M 75.8083,3.9635
75.8083,4.9635
74.3083,4.9635
74.3083,3.9635
Z" /> 
<path style="fill:#000000; fill-opacity:1.0000; stroke:none;fill-rule:evenodd;"
d="M 77.7084,1.5635
77.7084,2.2635
76.6084,2.2635
76.6084,1.5635
Z" /> 
<path style="fill:#000000; fill-opacity:1.0000; stroke:none;fill-rule:evenodd;"
d="M 73.5082,1.5635
73.5082,2.2635
72.4082,2.2635
72.4082,1.5635
Z" /> 
<path style="fill:#000000; fill-opacity:1.0000; stroke:none;fill-rule:evenodd;"
d="M 55.7833,32.9999
55.7068,32.9847
55.6419,32.9413
55.5986,32.8764
55.5833,32.7999
55.5833,32.3999
55.5986,32.3234
55.6419,32.2585
55.7068,32.2151
55.7833,32.1999
56.3333,32.1999
56.4099,32.2151
56.4748,32.2585
56.5181,32.3234
56.5333,32.3999
56.5333,32.7999
56.5181,32.8764
56.4748,32.9413
56.4099,32.9847
56.3333,32.9999
Z" /> 
<path style="fill:#000000; fill-opacity:1.0000; stroke:none;fill-rule:evenodd;"
d="M 55.7833,31.3499
55.7068,31.3347
55.6419,31.2913
55.5986,31.2264
55.5833,31.1499
55.5833,30.7499
55.5986,30.6734
55.6419,30.6085
55.7068,30.5651
55.7833,30.5499
56.3333,30.5499
56.4099,30.5651
56.4748,30.6085
56.5181,30.6734
56.5333,30.7499
56.5333,31.1499
56.5181,31.2264
56.4748,31.2913
56.4099,31.3347
56.3333,31.3499
Z" /> 
<path style="fill:#000000; fill-opacity:1.0000; stroke:none;fill-rule:evenodd;"
d="M 13.3333,42.2500
13.3505,42.1639
13.3992,42.0909
13.4722,42.0421
13.5583,42.0250
14.0083,42.0250
14.0944,42.0421
14.1674,42.0909
14.2162,42.1639
14.2333,42.2500
14.2333,42.7500
14.2162,42.8361
14.1674,42.9091
14.0944,42.9579
14.0083,42.9750
13.5583,42.9750
13.4722,42.9579
13.3992,42.9091
13.3505,42.8361
13.3333,42.7500
Z" /> 
<path style="fill:#000000; fill-opacity:1.0000; stroke:none;fill-rule:evenodd;"
d="M 14.8833,42.2500
14.9005,42.1639
14.9492,42.0909
15.0222,42.0421
15.1083,42.0250
15.5583,42.0250
15.6444,42.0421
15.7174,42.0909
15.7662,42.1639
15.7833,42.2500
15.7833,42.7500
15.7662,42.8361
15.7174,42.9091
15.6444,42.9579
15.5583,42.9750
15.1083,42.9750
15.0222,42.9579
14.9492,42.9091
14.9005,42.8361
14.8833,42.7500
Z" /> 
<path style="fill:#000000; fill-opacity:1.0000; stroke:none;fill-rule:evenodd;"
d="M 20.8083,19.3250
20.7222,19.3079
20.6492,19.2591
20.6005,19.1861
20.5833,19.1000
20.5833,18.6500
20.6005,18.5639
20.6492,18.4909
20.7222,18.4421
20.8083,18.4250
21.3083,18.4250
21.3944,18.4421
21.4674,18.4909
21.5162,18.5639
21.5333,18.6500
21.5333,19.1000
21.5162,19.1861
21.4674,19.2591
21.3944,19.3079
21.3083,19.3250
Z" /> 
<path style="fill:#000000; fill-opacity:1.0000; stroke:none;fill-rule:evenodd;"
d="M 20.8083,17.7750
20.7222,17.7579
20.6492,17.7091
20.6005,17.6361
20.5833,17.5500
20.5833,17.1000
20.6005,17.0139
20.6492,16.9409
20.7222,16.8921
20.8083,16.8750
21.3083,16.8750
21.3944,16.8921
21.4674,16.9409
21.5162,17.0139
21.5333,17.1000
21.5333,17.5500
21.5162,17.6361
21.4674,17.7091
21.3944,17.7579
21.3083,17.7750
Z" /> 
<path style="fill:#000000; fill-opacity:1.0000; stroke:none;fill-rule:evenodd;"
d="M 39.1323,34.1499
39.2280,34.1689
39.3091,34.2231
39.3633,34.3042
39.3823,34.3999
39.3823,37.3999
39.3633,37.4956
39.3091,37.5767
39.2280,37.6309
39.1323,37.6499
38.0323,37.6499
37.9367,37.6309
37.8556,37.5767
37.8014,37.4956
37.7823,37.3999
37.7823,34.3999
37.8014,34.3042
37.8556,34.2231
37.9367,34.1689
38.0323,34.1499
Z" /> 
<path style="fill:#000000; fill-opacity:1.0000; stroke:none;fill-rule:evenodd;"
d="M 39.1323,39.5499
39.2280,39.5689
39.3091,39.6231
39.3633,39.7042
39.3823,39.7999
39.3823,42.7999
39.3633,42.8956
39.3091,42.9767
39.2280,43.0309
39.1323,43.0499
38.0323,43.0499
37.9367,43.0309
37.8556,42.9767
37.8014,42.8956
37.7823,42.7999
37.7823,39.7999
37.8014,39.7042
37.8556,39.6231
37.9367,39.5689
38.0323,39.5499
Z" /> 
<path style="fill:#000000; fill-opacity:1.0000; stroke:none;fill-rule:evenodd;"
d="M 34.9333,23.4750
35.0099,23.4902
35.0748,23.5336
35.1181,23.5985
35.1333,23.6750
35.1333,24.0750
35.1181,24.1515
35.0748,24.2164
35.0099,24.2598
34.9333,24.2750
34.3833,24.2750
34.3068,24.2598
34.2419,24.2164
34.1986,24.1515
34.1833,24.0750
34.1833,23.6750
34.1986,23.5985
34.2419,23.5336
34.3068,23.4902
34.3833,23.4750
Z" /> 
<path style="fill:#000000; fill-opacity:1.0000; stroke:none;fill-rule:evenodd;"
d="M 34.9333,25.1250
35.0099,25.1402
35.0748,25.1836
35.1181,25.2485
35.1333,25.3250
35.1333,25.7250
35.1181,25.8015
35.0748,25.8664
35.0099,25.9098
34.9333,25.9250
34.3833,25.9250
34.3068,25.9098
34.2419,25.8664
34.1986,25.8015
34.1833,25.7250
34.1833,25.3250
34.1986,25.2485
34.2419,25.1836
34.3068,25.1402
34.3833,25.1250
Z" /> 
<path style="fill:#000000; fill-opacity:1.0000; stroke:none;fill-rule:evenodd;"
d="M 35.3146,8.8750
35.4079,8.8936
35.4869,8.9464
35.5398,9.0255
35.5583,9.1188
35.5583,9.6062
35.5398,9.6995
35.4869,9.7786
35.4079,9.8314
35.3146,9.8500
34.4021,9.8500
34.3088,9.8314
34.2297,9.7786
34.1769,9.6995
34.1583,9.6062
34.1583,9.1188
34.1769,9.0255
34.2297,8.9464
34.3088,8.8936
34.4021,8.8750
Z" /> 
<path style="fill:#000000; fill-opacity:1.0000; stroke:none;fill-rule:evenodd;"
d="M 35.3146,10.7500
35.4079,10.7686
35.4869,10.8214
35.5398,10.9005
35.5583,10.9938
35.5583,11.4812
35.5398,11.5745
35.4869,11.6536
35.4079,11.7064
35.3146,11.7250
34.4021,11.7250
34.3088,11.7064
34.2297,11.6536
34.1769,11.5745
34.1583,11.4812
34.1583,10.9938
34.1769,10.9005
34.2297,10.8214
34.3088,10.7686
34.4021,10.7500
Z" /> 
<path style="fill:#000000; fill-opacity:1.0000; stroke:none;fill-rule:evenodd;"
d="M 15.0083,17.1250
14.9222,17.1079
14.8492,17.0591
14.8005,16.9861
14.7833,16.9000
14.7833,16.4500
14.8005,16.3639
14.8492,16.2909
14.9222,16.2421
15.0083,16.2250
15.5083,16.2250
15.5944,16.2421
15.6674,16.2909
15.7162,16.3639
15.7333,16.4500
15.7333,16.9000
15.7162,16.9861
15.6674,17.0591
15.5944,17.1079
15.5083,17.1250
Z" /> 
<path style="fill:#000000; fill-opacity:1.0000; stroke:none;fill-rule:evenodd;"
d="M 15.0083,15.5750
14.9222,15.5579
14.8492,15.5091
14.8005,15.4361
14.7833,15.3500
14.7833,14.9000
14.8005,14.8139
14.8492,14.7409
14.9222,14.6921
15.0083,14.6750
15.5083,14.6750
15.5944,14.6921
15.6674,14.7409
15.7162,14.8139
15.7333,14.9000
15.7333,15.3500
15.7162,15.4361
15.6674,15.5091
15.5944,15.5579
15.5083,15.5750
Z" /> 
</g>
<g style="fill:none; 
stroke:#000000; stroke-width:0.0500; stroke-opacity:1; 
stroke-linecap:round; stroke-linejoin:round;">
<path d="M77.2083 32.1000
L77.2083 45.6000
" />
<path d="M65.8083 45.6000 A0.5000 0.5000 0.0 0 0 66.8083 45.6000" />
</g>
<g style="fill:none; 
stroke:#000000; stroke-width:0.2000; stroke-opacity:1; 
stroke-linecap:round; stroke-linejoin:round;">
<path d="M8.9583 1.2100
L82.5583 1.2100
" />
</g>
<g style="fill:none; 
stroke:#000000; stroke-width:0.0500; stroke-opacity:1; 
stroke-linecap:round; stroke-linejoin:round;">
<path d="M72.9083 20.4000
L72.9083 24.9000
" />
</g>
<g style="fill:none; 
stroke:#000000; stroke-width:0.2000; stroke-opacity:1; 
stroke-linecap:round; stroke-linejoin:round;">
<circle cx="82.5583" cy="4.2100" r="1.3500" /> 
</g>
<g style="fill:none; 
stroke:#000000; stroke-width:0.0500; stroke-opacity:1; 
stroke-linecap:round; stroke-linejoin:round;">
<path d="M78.2083 32.1000
L78.2083 45.6000
" />
<path d="M78.2083 20.4000 A3.1500 3.1500 0.0 0 0 71.9083 20.4000" />
<path d="M71.9083 32.1000
L71.9083 45.6000
" />
<path d="M65.8083 45.6000
L65.8083 32.1000
" />
</g>
<g style="fill:none; 
stroke:#000000; stroke-width:0.2000; stroke-opacity:1; 
stroke-linecap:round; stroke-linejoin:round;">
<path d="M82.5583 49.1900
L8.9583 49.1900
" />
</g>
<g style="fill:none; 
stroke:#000000; stroke-width:0.0500; stroke-opacity:1; 
stroke-linecap:round; stroke-linejoin:round;">
<path d="M77.2083 24.9000 A0.5000 0.5000 0.0 0 0 78.2083 24.9000" />
<path d="M66.8083 32.1000 A0.5000 0.5000 0.0 0 0 65.8083 32.1000" />
<path d="M72.9083 32.1000
L72.9083 45.6000
" />
<path d="M78.2083 24.9000
L78.2083 20.4000
" />
<path d="M78.2083 32.1000 A0.5000 0.5000 0.0 0 0 77.2083 32.1000" />
</g>
<g style="fill:none; 
stroke:#000000; stroke-width:0.2000; stroke-opacity:1; 
stroke-linecap:round; stroke-linejoin:round;">
<path d="M5.9583 46.1900
L5.9583 4.2100
" />
</g>
<g style="fill:none; 
stroke:#000000; stroke-width:0.0500; stroke-opacity:1; 
stroke-linecap:round; stroke-linejoin:round;">
<path d="M71.9083 24.9000
L71.9083 20.4000
" />
<path d="M71.9083 24.9000 A0.5000 0.5000 0.0 0 0 72.9083 24.9000" />
</g>
<g style="fill:none; 
stroke:#000000; stroke-width:0.2000; stroke-opacity:1; 
stroke-linecap:round; stroke-linejoin:round;">
<path d="M5.9583 46.1900 A3.0000 3.0000 0.0 0 0 8.9583 49.1900" />
<circle cx="8.9583" cy="11.2100" r="1.3500" /> 
<path d="M82.5583 49.1900 A3.0000 3.0000 0.0 0 0 85.5583 46.1900" />
</g>
<g style="fill:none; 
stroke:#000000; stroke-width:0.0500; stroke-opacity:1; 
stroke-linecap:round; stroke-linejoin:round;">
<path d="M66.8083 32.1000
L66.8083 45.6000
" />
</g>
<g style="fill:none; 
stroke:#000000; stroke-width:0.2000; stroke-opacity:1; 
stroke-linecap:round; stroke-linejoin:round;">
<circle cx="8.9583" cy="46.1900" r="1.3500" /> 
</g>
<g style="fill:none; 
stroke:#000000; stroke-width:0.0500; stroke-opacity:1; 
stroke-linecap:round; stroke-linejoin:round;">
<path d="M77.2083 20.4000 A2.1500 2.1500 0.0 0 0 72.9083 20.4000" />
<path d="M71.9083 45.6000 A0.5000 0.5000 0.0 0 0 72.9083 45.6000" />
<path d="M77.2083 20.4000
L77.2083 24.9000
" />
</g>
<g style="fill:none; 
stroke:#000000; stroke-width:0.2000; stroke-opacity:1; 
stroke-linecap:round; stroke-linejoin:round;">
<path d="M8.9583 1.2100 A3.0000 3.0000 0.0 0 0 5.9583 4.2100" />
<path d="M85.5583 4.2100 A3.0000 3.0000 0.0 0 0 82.5583 1.2100" />
<circle cx="62.5583" cy="46.1900" r="1.3500" /> 
</g>
<g style="fill:none; 
stroke:#000000; stroke-width:0.0500; stroke-opacity:1; 
stroke-linecap:round; stroke-linejoin:round;">
<path d="M77.2083 45.6000 A0.5000 0.5000 0.0 0 0 78.2083 45.6000" />
<path d="M72.9083 32.1000 A0.5000 0.5000 0.0 0 0 71.9083 32.1000" />
</g>
<g style="fill:none; 
stroke:#000000; stroke-width:0.2000; stroke-opacity:1; 
stroke-linecap:round; stroke-linejoin:round;">
<path d="M85.5583 4.2100
L85.5583 46.1900
" />
</g> 
</svg>
