%TF.GenerationSoftware,KiCad,Pcbnew,8.0.2*%
%TF.CreationDate,2024-05-22T22:07:16+08:00*%
%TF.ProjectId,pppc_usb_hub,70707063-5f75-4736-925f-6875622e6b69,rev?*%
%TF.SameCoordinates,Original*%
%TF.FileFunction,Drillmap*%
%TF.FilePolarity,Positive*%
%FSLAX45Y45*%
G04 Gerber Fmt 4.5, Leading zero omitted, Abs format (unit mm)*
G04 Created by KiCad (PCBNEW 8.0.2) date 2024-05-22 22:07:16*
%MOMM*%
%LPD*%
G01*
G04 APERTURE LIST*
%ADD10C,0.050000*%
%ADD11C,0.200000*%
%ADD12C,0.100000*%
G04 APERTURE END LIST*
D10*
X14903579Y-10370000D02*
G75*
G02*
X14703579Y-10569999I-199999J0D01*
G01*
X12630000Y-10460000D02*
X12630000Y-10570000D01*
X8140000Y-10570000D02*
G75*
G02*
X7940000Y-10370000I0J200000D01*
G01*
X8050000Y-6700000D02*
X7940000Y-6700000D01*
X7940000Y-6700000D02*
X7940000Y-5970000D01*
X7940000Y-10370000D02*
X7940000Y-6920000D01*
X12630000Y-10460000D02*
G75*
G02*
X12850000Y-10460000I110000J0D01*
G01*
X14903579Y-10370000D02*
X14903579Y-5970000D01*
X14703579Y-5770000D02*
G75*
G02*
X14903580Y-5970000I1J-200000D01*
G01*
X12850000Y-10570000D02*
X14590000Y-10570000D01*
X8140000Y-5770000D02*
X14703579Y-5770000D01*
X8050000Y-6920000D02*
X7940000Y-6920000D01*
X12850000Y-10460000D02*
X12850000Y-10570000D01*
X14590000Y-10570000D02*
X14703579Y-10570000D01*
X8050000Y-6700000D02*
G75*
G02*
X8050000Y-6920000I0J-110000D01*
G01*
X12630000Y-10570000D02*
X8140000Y-10570000D01*
X7940000Y-5970000D02*
G75*
G02*
X8140000Y-5770000I200000J0D01*
G01*
D11*
D12*
X8345990Y-6254340D02*
X8415990Y-6324340D01*
X8415990Y-6254340D02*
X8345990Y-6324340D01*
X8872410Y-10355000D02*
X8942410Y-10425000D01*
X8942410Y-10355000D02*
X8872410Y-10425000D01*
X8923990Y-6254340D02*
X8993990Y-6324340D01*
X8993990Y-6254340D02*
X8923990Y-6324340D01*
X9042410Y-10355000D02*
X9112410Y-10425000D01*
X9112410Y-10355000D02*
X9042410Y-10425000D01*
X10372410Y-10355000D02*
X10442410Y-10425000D01*
X10442410Y-10355000D02*
X10372410Y-10425000D01*
X10525990Y-6254340D02*
X10595990Y-6324340D01*
X10595990Y-6254340D02*
X10525990Y-6324340D01*
X10542410Y-10355000D02*
X10612410Y-10425000D01*
X10612410Y-10355000D02*
X10542410Y-10425000D01*
X11103990Y-6254340D02*
X11173990Y-6324340D01*
X11173990Y-6254340D02*
X11103990Y-6324340D01*
X11872410Y-10355000D02*
X11942410Y-10425000D01*
X11942410Y-10355000D02*
X11872410Y-10425000D01*
X12042410Y-10355000D02*
X12112410Y-10425000D01*
X12112410Y-10355000D02*
X12042410Y-10425000D01*
X8822410Y-10390000D02*
G75*
G02*
X8732410Y-10390000I-45000J0D01*
G01*
X8732410Y-10390000D02*
G75*
G02*
X8822410Y-10390000I45000J0D01*
G01*
X9252410Y-10390000D02*
G75*
G02*
X9162410Y-10390000I-45000J0D01*
G01*
X9162410Y-10390000D02*
G75*
G02*
X9252410Y-10390000I45000J0D01*
G01*
X10322410Y-10390000D02*
G75*
G02*
X10232410Y-10390000I-45000J0D01*
G01*
X10232410Y-10390000D02*
G75*
G02*
X10322410Y-10390000I45000J0D01*
G01*
X10752410Y-10390000D02*
G75*
G02*
X10662410Y-10390000I-45000J0D01*
G01*
X10662410Y-10390000D02*
G75*
G02*
X10752410Y-10390000I45000J0D01*
G01*
X11822410Y-10390000D02*
G75*
G02*
X11732410Y-10390000I-45000J0D01*
G01*
X11732410Y-10390000D02*
G75*
G02*
X11822410Y-10390000I45000J0D01*
G01*
X12252410Y-10390000D02*
G75*
G02*
X12162410Y-10390000I-45000J0D01*
G01*
X12162410Y-10390000D02*
G75*
G02*
X12252410Y-10390000I45000J0D01*
G01*
D11*
X8198277Y-10883984D02*
X8198277Y-10683984D01*
X8198277Y-10683984D02*
X8245896Y-10683984D01*
X8245896Y-10683984D02*
X8274467Y-10693508D01*
X8274467Y-10693508D02*
X8293515Y-10712555D01*
X8293515Y-10712555D02*
X8303039Y-10731603D01*
X8303039Y-10731603D02*
X8312562Y-10769698D01*
X8312562Y-10769698D02*
X8312562Y-10798270D01*
X8312562Y-10798270D02*
X8303039Y-10836365D01*
X8303039Y-10836365D02*
X8293515Y-10855412D01*
X8293515Y-10855412D02*
X8274467Y-10874460D01*
X8274467Y-10874460D02*
X8245896Y-10883984D01*
X8245896Y-10883984D02*
X8198277Y-10883984D01*
X8398277Y-10883984D02*
X8398277Y-10750650D01*
X8398277Y-10788746D02*
X8407801Y-10769698D01*
X8407801Y-10769698D02*
X8417324Y-10760174D01*
X8417324Y-10760174D02*
X8436372Y-10750650D01*
X8436372Y-10750650D02*
X8455420Y-10750650D01*
X8522086Y-10883984D02*
X8522086Y-10750650D01*
X8522086Y-10683984D02*
X8512563Y-10693508D01*
X8512563Y-10693508D02*
X8522086Y-10703031D01*
X8522086Y-10703031D02*
X8531610Y-10693508D01*
X8531610Y-10693508D02*
X8522086Y-10683984D01*
X8522086Y-10683984D02*
X8522086Y-10703031D01*
X8645896Y-10883984D02*
X8626848Y-10874460D01*
X8626848Y-10874460D02*
X8617324Y-10855412D01*
X8617324Y-10855412D02*
X8617324Y-10683984D01*
X8750658Y-10883984D02*
X8731610Y-10874460D01*
X8731610Y-10874460D02*
X8722086Y-10855412D01*
X8722086Y-10855412D02*
X8722086Y-10683984D01*
X8979229Y-10883984D02*
X8979229Y-10683984D01*
X8979229Y-10683984D02*
X9045896Y-10826841D01*
X9045896Y-10826841D02*
X9112563Y-10683984D01*
X9112563Y-10683984D02*
X9112563Y-10883984D01*
X9293515Y-10883984D02*
X9293515Y-10779222D01*
X9293515Y-10779222D02*
X9283991Y-10760174D01*
X9283991Y-10760174D02*
X9264944Y-10750650D01*
X9264944Y-10750650D02*
X9226848Y-10750650D01*
X9226848Y-10750650D02*
X9207801Y-10760174D01*
X9293515Y-10874460D02*
X9274467Y-10883984D01*
X9274467Y-10883984D02*
X9226848Y-10883984D01*
X9226848Y-10883984D02*
X9207801Y-10874460D01*
X9207801Y-10874460D02*
X9198277Y-10855412D01*
X9198277Y-10855412D02*
X9198277Y-10836365D01*
X9198277Y-10836365D02*
X9207801Y-10817317D01*
X9207801Y-10817317D02*
X9226848Y-10807793D01*
X9226848Y-10807793D02*
X9274467Y-10807793D01*
X9274467Y-10807793D02*
X9293515Y-10798270D01*
X9388753Y-10750650D02*
X9388753Y-10950650D01*
X9388753Y-10760174D02*
X9407801Y-10750650D01*
X9407801Y-10750650D02*
X9445896Y-10750650D01*
X9445896Y-10750650D02*
X9464944Y-10760174D01*
X9464944Y-10760174D02*
X9474467Y-10769698D01*
X9474467Y-10769698D02*
X9483991Y-10788746D01*
X9483991Y-10788746D02*
X9483991Y-10845889D01*
X9483991Y-10845889D02*
X9474467Y-10864936D01*
X9474467Y-10864936D02*
X9464944Y-10874460D01*
X9464944Y-10874460D02*
X9445896Y-10883984D01*
X9445896Y-10883984D02*
X9407801Y-10883984D01*
X9407801Y-10883984D02*
X9388753Y-10874460D01*
X9569705Y-10864936D02*
X9579229Y-10874460D01*
X9579229Y-10874460D02*
X9569705Y-10883984D01*
X9569705Y-10883984D02*
X9560182Y-10874460D01*
X9560182Y-10874460D02*
X9569705Y-10864936D01*
X9569705Y-10864936D02*
X9569705Y-10883984D01*
X9569705Y-10760174D02*
X9579229Y-10769698D01*
X9579229Y-10769698D02*
X9569705Y-10779222D01*
X9569705Y-10779222D02*
X9560182Y-10769698D01*
X9560182Y-10769698D02*
X9569705Y-10760174D01*
X9569705Y-10760174D02*
X9569705Y-10779222D01*
D12*
X7867500Y-11177500D02*
X7937500Y-11247500D01*
X7937500Y-11177500D02*
X7867500Y-11247500D01*
D11*
X8236372Y-11103984D02*
X8255420Y-11103984D01*
X8255420Y-11103984D02*
X8274467Y-11113508D01*
X8274467Y-11113508D02*
X8283991Y-11123031D01*
X8283991Y-11123031D02*
X8293515Y-11142079D01*
X8293515Y-11142079D02*
X8303039Y-11180174D01*
X8303039Y-11180174D02*
X8303039Y-11227793D01*
X8303039Y-11227793D02*
X8293515Y-11265888D01*
X8293515Y-11265888D02*
X8283991Y-11284936D01*
X8283991Y-11284936D02*
X8274467Y-11294460D01*
X8274467Y-11294460D02*
X8255420Y-11303984D01*
X8255420Y-11303984D02*
X8236372Y-11303984D01*
X8236372Y-11303984D02*
X8217324Y-11294460D01*
X8217324Y-11294460D02*
X8207801Y-11284936D01*
X8207801Y-11284936D02*
X8198277Y-11265888D01*
X8198277Y-11265888D02*
X8188753Y-11227793D01*
X8188753Y-11227793D02*
X8188753Y-11180174D01*
X8188753Y-11180174D02*
X8198277Y-11142079D01*
X8198277Y-11142079D02*
X8207801Y-11123031D01*
X8207801Y-11123031D02*
X8217324Y-11113508D01*
X8217324Y-11113508D02*
X8236372Y-11103984D01*
X8388753Y-11284936D02*
X8398277Y-11294460D01*
X8398277Y-11294460D02*
X8388753Y-11303984D01*
X8388753Y-11303984D02*
X8379229Y-11294460D01*
X8379229Y-11294460D02*
X8388753Y-11284936D01*
X8388753Y-11284936D02*
X8388753Y-11303984D01*
X8464944Y-11103984D02*
X8598277Y-11103984D01*
X8598277Y-11103984D02*
X8512563Y-11303984D01*
X8712563Y-11103984D02*
X8731610Y-11103984D01*
X8731610Y-11103984D02*
X8750658Y-11113508D01*
X8750658Y-11113508D02*
X8760182Y-11123031D01*
X8760182Y-11123031D02*
X8769705Y-11142079D01*
X8769705Y-11142079D02*
X8779229Y-11180174D01*
X8779229Y-11180174D02*
X8779229Y-11227793D01*
X8779229Y-11227793D02*
X8769705Y-11265888D01*
X8769705Y-11265888D02*
X8760182Y-11284936D01*
X8760182Y-11284936D02*
X8750658Y-11294460D01*
X8750658Y-11294460D02*
X8731610Y-11303984D01*
X8731610Y-11303984D02*
X8712563Y-11303984D01*
X8712563Y-11303984D02*
X8693515Y-11294460D01*
X8693515Y-11294460D02*
X8683991Y-11284936D01*
X8683991Y-11284936D02*
X8674467Y-11265888D01*
X8674467Y-11265888D02*
X8664944Y-11227793D01*
X8664944Y-11227793D02*
X8664944Y-11180174D01*
X8664944Y-11180174D02*
X8674467Y-11142079D01*
X8674467Y-11142079D02*
X8683991Y-11123031D01*
X8683991Y-11123031D02*
X8693515Y-11113508D01*
X8693515Y-11113508D02*
X8712563Y-11103984D01*
X8903039Y-11103984D02*
X8922086Y-11103984D01*
X8922086Y-11103984D02*
X8941134Y-11113508D01*
X8941134Y-11113508D02*
X8950658Y-11123031D01*
X8950658Y-11123031D02*
X8960182Y-11142079D01*
X8960182Y-11142079D02*
X8969705Y-11180174D01*
X8969705Y-11180174D02*
X8969705Y-11227793D01*
X8969705Y-11227793D02*
X8960182Y-11265888D01*
X8960182Y-11265888D02*
X8950658Y-11284936D01*
X8950658Y-11284936D02*
X8941134Y-11294460D01*
X8941134Y-11294460D02*
X8922086Y-11303984D01*
X8922086Y-11303984D02*
X8903039Y-11303984D01*
X8903039Y-11303984D02*
X8883991Y-11294460D01*
X8883991Y-11294460D02*
X8874467Y-11284936D01*
X8874467Y-11284936D02*
X8864944Y-11265888D01*
X8864944Y-11265888D02*
X8855420Y-11227793D01*
X8855420Y-11227793D02*
X8855420Y-11180174D01*
X8855420Y-11180174D02*
X8864944Y-11142079D01*
X8864944Y-11142079D02*
X8874467Y-11123031D01*
X8874467Y-11123031D02*
X8883991Y-11113508D01*
X8883991Y-11113508D02*
X8903039Y-11103984D01*
X9055420Y-11303984D02*
X9055420Y-11170650D01*
X9055420Y-11189698D02*
X9064944Y-11180174D01*
X9064944Y-11180174D02*
X9083991Y-11170650D01*
X9083991Y-11170650D02*
X9112563Y-11170650D01*
X9112563Y-11170650D02*
X9131610Y-11180174D01*
X9131610Y-11180174D02*
X9141134Y-11199222D01*
X9141134Y-11199222D02*
X9141134Y-11303984D01*
X9141134Y-11199222D02*
X9150658Y-11180174D01*
X9150658Y-11180174D02*
X9169705Y-11170650D01*
X9169705Y-11170650D02*
X9198277Y-11170650D01*
X9198277Y-11170650D02*
X9217325Y-11180174D01*
X9217325Y-11180174D02*
X9226848Y-11199222D01*
X9226848Y-11199222D02*
X9226848Y-11303984D01*
X9322086Y-11303984D02*
X9322086Y-11170650D01*
X9322086Y-11189698D02*
X9331610Y-11180174D01*
X9331610Y-11180174D02*
X9350658Y-11170650D01*
X9350658Y-11170650D02*
X9379229Y-11170650D01*
X9379229Y-11170650D02*
X9398277Y-11180174D01*
X9398277Y-11180174D02*
X9407801Y-11199222D01*
X9407801Y-11199222D02*
X9407801Y-11303984D01*
X9407801Y-11199222D02*
X9417325Y-11180174D01*
X9417325Y-11180174D02*
X9436372Y-11170650D01*
X9436372Y-11170650D02*
X9464944Y-11170650D01*
X9464944Y-11170650D02*
X9483991Y-11180174D01*
X9483991Y-11180174D02*
X9493515Y-11199222D01*
X9493515Y-11199222D02*
X9493515Y-11303984D01*
X9883991Y-11094460D02*
X9712563Y-11351603D01*
X10141134Y-11103984D02*
X10160182Y-11103984D01*
X10160182Y-11103984D02*
X10179229Y-11113508D01*
X10179229Y-11113508D02*
X10188753Y-11123031D01*
X10188753Y-11123031D02*
X10198277Y-11142079D01*
X10198277Y-11142079D02*
X10207801Y-11180174D01*
X10207801Y-11180174D02*
X10207801Y-11227793D01*
X10207801Y-11227793D02*
X10198277Y-11265888D01*
X10198277Y-11265888D02*
X10188753Y-11284936D01*
X10188753Y-11284936D02*
X10179229Y-11294460D01*
X10179229Y-11294460D02*
X10160182Y-11303984D01*
X10160182Y-11303984D02*
X10141134Y-11303984D01*
X10141134Y-11303984D02*
X10122087Y-11294460D01*
X10122087Y-11294460D02*
X10112563Y-11284936D01*
X10112563Y-11284936D02*
X10103039Y-11265888D01*
X10103039Y-11265888D02*
X10093515Y-11227793D01*
X10093515Y-11227793D02*
X10093515Y-11180174D01*
X10093515Y-11180174D02*
X10103039Y-11142079D01*
X10103039Y-11142079D02*
X10112563Y-11123031D01*
X10112563Y-11123031D02*
X10122087Y-11113508D01*
X10122087Y-11113508D02*
X10141134Y-11103984D01*
X10293515Y-11284936D02*
X10303039Y-11294460D01*
X10303039Y-11294460D02*
X10293515Y-11303984D01*
X10293515Y-11303984D02*
X10283991Y-11294460D01*
X10283991Y-11294460D02*
X10293515Y-11284936D01*
X10293515Y-11284936D02*
X10293515Y-11303984D01*
X10426848Y-11103984D02*
X10445896Y-11103984D01*
X10445896Y-11103984D02*
X10464944Y-11113508D01*
X10464944Y-11113508D02*
X10474468Y-11123031D01*
X10474468Y-11123031D02*
X10483991Y-11142079D01*
X10483991Y-11142079D02*
X10493515Y-11180174D01*
X10493515Y-11180174D02*
X10493515Y-11227793D01*
X10493515Y-11227793D02*
X10483991Y-11265888D01*
X10483991Y-11265888D02*
X10474468Y-11284936D01*
X10474468Y-11284936D02*
X10464944Y-11294460D01*
X10464944Y-11294460D02*
X10445896Y-11303984D01*
X10445896Y-11303984D02*
X10426848Y-11303984D01*
X10426848Y-11303984D02*
X10407801Y-11294460D01*
X10407801Y-11294460D02*
X10398277Y-11284936D01*
X10398277Y-11284936D02*
X10388753Y-11265888D01*
X10388753Y-11265888D02*
X10379229Y-11227793D01*
X10379229Y-11227793D02*
X10379229Y-11180174D01*
X10379229Y-11180174D02*
X10388753Y-11142079D01*
X10388753Y-11142079D02*
X10398277Y-11123031D01*
X10398277Y-11123031D02*
X10407801Y-11113508D01*
X10407801Y-11113508D02*
X10426848Y-11103984D01*
X10569706Y-11123031D02*
X10579229Y-11113508D01*
X10579229Y-11113508D02*
X10598277Y-11103984D01*
X10598277Y-11103984D02*
X10645896Y-11103984D01*
X10645896Y-11103984D02*
X10664944Y-11113508D01*
X10664944Y-11113508D02*
X10674468Y-11123031D01*
X10674468Y-11123031D02*
X10683991Y-11142079D01*
X10683991Y-11142079D02*
X10683991Y-11161127D01*
X10683991Y-11161127D02*
X10674468Y-11189698D01*
X10674468Y-11189698D02*
X10560182Y-11303984D01*
X10560182Y-11303984D02*
X10683991Y-11303984D01*
X10750658Y-11103984D02*
X10883991Y-11103984D01*
X10883991Y-11103984D02*
X10798277Y-11303984D01*
X11045896Y-11103984D02*
X11007801Y-11103984D01*
X11007801Y-11103984D02*
X10988753Y-11113508D01*
X10988753Y-11113508D02*
X10979229Y-11123031D01*
X10979229Y-11123031D02*
X10960182Y-11151603D01*
X10960182Y-11151603D02*
X10950658Y-11189698D01*
X10950658Y-11189698D02*
X10950658Y-11265888D01*
X10950658Y-11265888D02*
X10960182Y-11284936D01*
X10960182Y-11284936D02*
X10969706Y-11294460D01*
X10969706Y-11294460D02*
X10988753Y-11303984D01*
X10988753Y-11303984D02*
X11026849Y-11303984D01*
X11026849Y-11303984D02*
X11045896Y-11294460D01*
X11045896Y-11294460D02*
X11055420Y-11284936D01*
X11055420Y-11284936D02*
X11064944Y-11265888D01*
X11064944Y-11265888D02*
X11064944Y-11218269D01*
X11064944Y-11218269D02*
X11055420Y-11199222D01*
X11055420Y-11199222D02*
X11045896Y-11189698D01*
X11045896Y-11189698D02*
X11026849Y-11180174D01*
X11026849Y-11180174D02*
X10988753Y-11180174D01*
X10988753Y-11180174D02*
X10969706Y-11189698D01*
X10969706Y-11189698D02*
X10960182Y-11199222D01*
X10960182Y-11199222D02*
X10950658Y-11218269D01*
X11141134Y-11103984D02*
X11141134Y-11142079D01*
X11217325Y-11103984D02*
X11217325Y-11142079D01*
X11512563Y-11380174D02*
X11503039Y-11370650D01*
X11503039Y-11370650D02*
X11483991Y-11342079D01*
X11483991Y-11342079D02*
X11474468Y-11323031D01*
X11474468Y-11323031D02*
X11464944Y-11294460D01*
X11464944Y-11294460D02*
X11455420Y-11246841D01*
X11455420Y-11246841D02*
X11455420Y-11208746D01*
X11455420Y-11208746D02*
X11464944Y-11161127D01*
X11464944Y-11161127D02*
X11474468Y-11132555D01*
X11474468Y-11132555D02*
X11483991Y-11113508D01*
X11483991Y-11113508D02*
X11503039Y-11084936D01*
X11503039Y-11084936D02*
X11512563Y-11075412D01*
X11693515Y-11303984D02*
X11579229Y-11303984D01*
X11636372Y-11303984D02*
X11636372Y-11103984D01*
X11636372Y-11103984D02*
X11617325Y-11132555D01*
X11617325Y-11132555D02*
X11598277Y-11151603D01*
X11598277Y-11151603D02*
X11579229Y-11161127D01*
X11817325Y-11103984D02*
X11836372Y-11103984D01*
X11836372Y-11103984D02*
X11855420Y-11113508D01*
X11855420Y-11113508D02*
X11864944Y-11123031D01*
X11864944Y-11123031D02*
X11874468Y-11142079D01*
X11874468Y-11142079D02*
X11883991Y-11180174D01*
X11883991Y-11180174D02*
X11883991Y-11227793D01*
X11883991Y-11227793D02*
X11874468Y-11265888D01*
X11874468Y-11265888D02*
X11864944Y-11284936D01*
X11864944Y-11284936D02*
X11855420Y-11294460D01*
X11855420Y-11294460D02*
X11836372Y-11303984D01*
X11836372Y-11303984D02*
X11817325Y-11303984D01*
X11817325Y-11303984D02*
X11798277Y-11294460D01*
X11798277Y-11294460D02*
X11788753Y-11284936D01*
X11788753Y-11284936D02*
X11779229Y-11265888D01*
X11779229Y-11265888D02*
X11769706Y-11227793D01*
X11769706Y-11227793D02*
X11769706Y-11180174D01*
X11769706Y-11180174D02*
X11779229Y-11142079D01*
X11779229Y-11142079D02*
X11788753Y-11123031D01*
X11788753Y-11123031D02*
X11798277Y-11113508D01*
X11798277Y-11113508D02*
X11817325Y-11103984D01*
X12122087Y-11303984D02*
X12122087Y-11103984D01*
X12207801Y-11303984D02*
X12207801Y-11199222D01*
X12207801Y-11199222D02*
X12198277Y-11180174D01*
X12198277Y-11180174D02*
X12179230Y-11170650D01*
X12179230Y-11170650D02*
X12150658Y-11170650D01*
X12150658Y-11170650D02*
X12131610Y-11180174D01*
X12131610Y-11180174D02*
X12122087Y-11189698D01*
X12331610Y-11303984D02*
X12312563Y-11294460D01*
X12312563Y-11294460D02*
X12303039Y-11284936D01*
X12303039Y-11284936D02*
X12293515Y-11265888D01*
X12293515Y-11265888D02*
X12293515Y-11208746D01*
X12293515Y-11208746D02*
X12303039Y-11189698D01*
X12303039Y-11189698D02*
X12312563Y-11180174D01*
X12312563Y-11180174D02*
X12331610Y-11170650D01*
X12331610Y-11170650D02*
X12360182Y-11170650D01*
X12360182Y-11170650D02*
X12379230Y-11180174D01*
X12379230Y-11180174D02*
X12388753Y-11189698D01*
X12388753Y-11189698D02*
X12398277Y-11208746D01*
X12398277Y-11208746D02*
X12398277Y-11265888D01*
X12398277Y-11265888D02*
X12388753Y-11284936D01*
X12388753Y-11284936D02*
X12379230Y-11294460D01*
X12379230Y-11294460D02*
X12360182Y-11303984D01*
X12360182Y-11303984D02*
X12331610Y-11303984D01*
X12512563Y-11303984D02*
X12493515Y-11294460D01*
X12493515Y-11294460D02*
X12483991Y-11275412D01*
X12483991Y-11275412D02*
X12483991Y-11103984D01*
X12664944Y-11294460D02*
X12645896Y-11303984D01*
X12645896Y-11303984D02*
X12607801Y-11303984D01*
X12607801Y-11303984D02*
X12588753Y-11294460D01*
X12588753Y-11294460D02*
X12579230Y-11275412D01*
X12579230Y-11275412D02*
X12579230Y-11199222D01*
X12579230Y-11199222D02*
X12588753Y-11180174D01*
X12588753Y-11180174D02*
X12607801Y-11170650D01*
X12607801Y-11170650D02*
X12645896Y-11170650D01*
X12645896Y-11170650D02*
X12664944Y-11180174D01*
X12664944Y-11180174D02*
X12674468Y-11199222D01*
X12674468Y-11199222D02*
X12674468Y-11218269D01*
X12674468Y-11218269D02*
X12579230Y-11237317D01*
X12750658Y-11294460D02*
X12769706Y-11303984D01*
X12769706Y-11303984D02*
X12807801Y-11303984D01*
X12807801Y-11303984D02*
X12826849Y-11294460D01*
X12826849Y-11294460D02*
X12836372Y-11275412D01*
X12836372Y-11275412D02*
X12836372Y-11265888D01*
X12836372Y-11265888D02*
X12826849Y-11246841D01*
X12826849Y-11246841D02*
X12807801Y-11237317D01*
X12807801Y-11237317D02*
X12779230Y-11237317D01*
X12779230Y-11237317D02*
X12760182Y-11227793D01*
X12760182Y-11227793D02*
X12750658Y-11208746D01*
X12750658Y-11208746D02*
X12750658Y-11199222D01*
X12750658Y-11199222D02*
X12760182Y-11180174D01*
X12760182Y-11180174D02*
X12779230Y-11170650D01*
X12779230Y-11170650D02*
X12807801Y-11170650D01*
X12807801Y-11170650D02*
X12826849Y-11180174D01*
X12903039Y-11380174D02*
X12912563Y-11370650D01*
X12912563Y-11370650D02*
X12931611Y-11342079D01*
X12931611Y-11342079D02*
X12941134Y-11323031D01*
X12941134Y-11323031D02*
X12950658Y-11294460D01*
X12950658Y-11294460D02*
X12960182Y-11246841D01*
X12960182Y-11246841D02*
X12960182Y-11208746D01*
X12960182Y-11208746D02*
X12950658Y-11161127D01*
X12950658Y-11161127D02*
X12941134Y-11132555D01*
X12941134Y-11132555D02*
X12931611Y-11113508D01*
X12931611Y-11113508D02*
X12912563Y-11084936D01*
X12912563Y-11084936D02*
X12903039Y-11075412D01*
X13264944Y-11380174D02*
X13255420Y-11370650D01*
X13255420Y-11370650D02*
X13236372Y-11342079D01*
X13236372Y-11342079D02*
X13226849Y-11323031D01*
X13226849Y-11323031D02*
X13217325Y-11294460D01*
X13217325Y-11294460D02*
X13207801Y-11246841D01*
X13207801Y-11246841D02*
X13207801Y-11208746D01*
X13207801Y-11208746D02*
X13217325Y-11161127D01*
X13217325Y-11161127D02*
X13226849Y-11132555D01*
X13226849Y-11132555D02*
X13236372Y-11113508D01*
X13236372Y-11113508D02*
X13255420Y-11084936D01*
X13255420Y-11084936D02*
X13264944Y-11075412D01*
X13341134Y-11170650D02*
X13341134Y-11303984D01*
X13341134Y-11189698D02*
X13350658Y-11180174D01*
X13350658Y-11180174D02*
X13369706Y-11170650D01*
X13369706Y-11170650D02*
X13398277Y-11170650D01*
X13398277Y-11170650D02*
X13417325Y-11180174D01*
X13417325Y-11180174D02*
X13426849Y-11199222D01*
X13426849Y-11199222D02*
X13426849Y-11303984D01*
X13550658Y-11303984D02*
X13531611Y-11294460D01*
X13531611Y-11294460D02*
X13522087Y-11284936D01*
X13522087Y-11284936D02*
X13512563Y-11265888D01*
X13512563Y-11265888D02*
X13512563Y-11208746D01*
X13512563Y-11208746D02*
X13522087Y-11189698D01*
X13522087Y-11189698D02*
X13531611Y-11180174D01*
X13531611Y-11180174D02*
X13550658Y-11170650D01*
X13550658Y-11170650D02*
X13579230Y-11170650D01*
X13579230Y-11170650D02*
X13598277Y-11180174D01*
X13598277Y-11180174D02*
X13607801Y-11189698D01*
X13607801Y-11189698D02*
X13617325Y-11208746D01*
X13617325Y-11208746D02*
X13617325Y-11265888D01*
X13617325Y-11265888D02*
X13607801Y-11284936D01*
X13607801Y-11284936D02*
X13598277Y-11294460D01*
X13598277Y-11294460D02*
X13579230Y-11303984D01*
X13579230Y-11303984D02*
X13550658Y-11303984D01*
X13674468Y-11170650D02*
X13750658Y-11170650D01*
X13703039Y-11103984D02*
X13703039Y-11275412D01*
X13703039Y-11275412D02*
X13712563Y-11294460D01*
X13712563Y-11294460D02*
X13731611Y-11303984D01*
X13731611Y-11303984D02*
X13750658Y-11303984D01*
X13969706Y-11170650D02*
X13969706Y-11370650D01*
X13969706Y-11180174D02*
X13988753Y-11170650D01*
X13988753Y-11170650D02*
X14026849Y-11170650D01*
X14026849Y-11170650D02*
X14045896Y-11180174D01*
X14045896Y-11180174D02*
X14055420Y-11189698D01*
X14055420Y-11189698D02*
X14064944Y-11208746D01*
X14064944Y-11208746D02*
X14064944Y-11265888D01*
X14064944Y-11265888D02*
X14055420Y-11284936D01*
X14055420Y-11284936D02*
X14045896Y-11294460D01*
X14045896Y-11294460D02*
X14026849Y-11303984D01*
X14026849Y-11303984D02*
X13988753Y-11303984D01*
X13988753Y-11303984D02*
X13969706Y-11294460D01*
X14179230Y-11303984D02*
X14160182Y-11294460D01*
X14160182Y-11294460D02*
X14150658Y-11275412D01*
X14150658Y-11275412D02*
X14150658Y-11103984D01*
X14341134Y-11303984D02*
X14341134Y-11199222D01*
X14341134Y-11199222D02*
X14331611Y-11180174D01*
X14331611Y-11180174D02*
X14312563Y-11170650D01*
X14312563Y-11170650D02*
X14274468Y-11170650D01*
X14274468Y-11170650D02*
X14255420Y-11180174D01*
X14341134Y-11294460D02*
X14322087Y-11303984D01*
X14322087Y-11303984D02*
X14274468Y-11303984D01*
X14274468Y-11303984D02*
X14255420Y-11294460D01*
X14255420Y-11294460D02*
X14245896Y-11275412D01*
X14245896Y-11275412D02*
X14245896Y-11256365D01*
X14245896Y-11256365D02*
X14255420Y-11237317D01*
X14255420Y-11237317D02*
X14274468Y-11227793D01*
X14274468Y-11227793D02*
X14322087Y-11227793D01*
X14322087Y-11227793D02*
X14341134Y-11218269D01*
X14407801Y-11170650D02*
X14483992Y-11170650D01*
X14436373Y-11103984D02*
X14436373Y-11275412D01*
X14436373Y-11275412D02*
X14445896Y-11294460D01*
X14445896Y-11294460D02*
X14464944Y-11303984D01*
X14464944Y-11303984D02*
X14483992Y-11303984D01*
X14626849Y-11294460D02*
X14607801Y-11303984D01*
X14607801Y-11303984D02*
X14569706Y-11303984D01*
X14569706Y-11303984D02*
X14550658Y-11294460D01*
X14550658Y-11294460D02*
X14541134Y-11275412D01*
X14541134Y-11275412D02*
X14541134Y-11199222D01*
X14541134Y-11199222D02*
X14550658Y-11180174D01*
X14550658Y-11180174D02*
X14569706Y-11170650D01*
X14569706Y-11170650D02*
X14607801Y-11170650D01*
X14607801Y-11170650D02*
X14626849Y-11180174D01*
X14626849Y-11180174D02*
X14636373Y-11199222D01*
X14636373Y-11199222D02*
X14636373Y-11218269D01*
X14636373Y-11218269D02*
X14541134Y-11237317D01*
X14807801Y-11303984D02*
X14807801Y-11103984D01*
X14807801Y-11294460D02*
X14788754Y-11303984D01*
X14788754Y-11303984D02*
X14750658Y-11303984D01*
X14750658Y-11303984D02*
X14731611Y-11294460D01*
X14731611Y-11294460D02*
X14722087Y-11284936D01*
X14722087Y-11284936D02*
X14712563Y-11265888D01*
X14712563Y-11265888D02*
X14712563Y-11208746D01*
X14712563Y-11208746D02*
X14722087Y-11189698D01*
X14722087Y-11189698D02*
X14731611Y-11180174D01*
X14731611Y-11180174D02*
X14750658Y-11170650D01*
X14750658Y-11170650D02*
X14788754Y-11170650D01*
X14788754Y-11170650D02*
X14807801Y-11180174D01*
X14883992Y-11380174D02*
X14893515Y-11370650D01*
X14893515Y-11370650D02*
X14912563Y-11342079D01*
X14912563Y-11342079D02*
X14922087Y-11323031D01*
X14922087Y-11323031D02*
X14931611Y-11294460D01*
X14931611Y-11294460D02*
X14941134Y-11246841D01*
X14941134Y-11246841D02*
X14941134Y-11208746D01*
X14941134Y-11208746D02*
X14931611Y-11161127D01*
X14931611Y-11161127D02*
X14922087Y-11132555D01*
X14922087Y-11132555D02*
X14912563Y-11113508D01*
X14912563Y-11113508D02*
X14893515Y-11084936D01*
X14893515Y-11084936D02*
X14883992Y-11075412D01*
D12*
X7937500Y-11476500D02*
G75*
G02*
X7847500Y-11476500I-45000J0D01*
G01*
X7847500Y-11476500D02*
G75*
G02*
X7937500Y-11476500I45000J0D01*
G01*
D11*
X8236372Y-11367984D02*
X8255420Y-11367984D01*
X8255420Y-11367984D02*
X8274467Y-11377508D01*
X8274467Y-11377508D02*
X8283991Y-11387031D01*
X8283991Y-11387031D02*
X8293515Y-11406079D01*
X8293515Y-11406079D02*
X8303039Y-11444174D01*
X8303039Y-11444174D02*
X8303039Y-11491793D01*
X8303039Y-11491793D02*
X8293515Y-11529888D01*
X8293515Y-11529888D02*
X8283991Y-11548936D01*
X8283991Y-11548936D02*
X8274467Y-11558460D01*
X8274467Y-11558460D02*
X8255420Y-11567984D01*
X8255420Y-11567984D02*
X8236372Y-11567984D01*
X8236372Y-11567984D02*
X8217324Y-11558460D01*
X8217324Y-11558460D02*
X8207801Y-11548936D01*
X8207801Y-11548936D02*
X8198277Y-11529888D01*
X8198277Y-11529888D02*
X8188753Y-11491793D01*
X8188753Y-11491793D02*
X8188753Y-11444174D01*
X8188753Y-11444174D02*
X8198277Y-11406079D01*
X8198277Y-11406079D02*
X8207801Y-11387031D01*
X8207801Y-11387031D02*
X8217324Y-11377508D01*
X8217324Y-11377508D02*
X8236372Y-11367984D01*
X8388753Y-11548936D02*
X8398277Y-11558460D01*
X8398277Y-11558460D02*
X8388753Y-11567984D01*
X8388753Y-11567984D02*
X8379229Y-11558460D01*
X8379229Y-11558460D02*
X8388753Y-11548936D01*
X8388753Y-11548936D02*
X8388753Y-11567984D01*
X8493515Y-11567984D02*
X8531610Y-11567984D01*
X8531610Y-11567984D02*
X8550658Y-11558460D01*
X8550658Y-11558460D02*
X8560182Y-11548936D01*
X8560182Y-11548936D02*
X8579229Y-11520365D01*
X8579229Y-11520365D02*
X8588753Y-11482269D01*
X8588753Y-11482269D02*
X8588753Y-11406079D01*
X8588753Y-11406079D02*
X8579229Y-11387031D01*
X8579229Y-11387031D02*
X8569705Y-11377508D01*
X8569705Y-11377508D02*
X8550658Y-11367984D01*
X8550658Y-11367984D02*
X8512563Y-11367984D01*
X8512563Y-11367984D02*
X8493515Y-11377508D01*
X8493515Y-11377508D02*
X8483991Y-11387031D01*
X8483991Y-11387031D02*
X8474467Y-11406079D01*
X8474467Y-11406079D02*
X8474467Y-11453698D01*
X8474467Y-11453698D02*
X8483991Y-11472746D01*
X8483991Y-11472746D02*
X8493515Y-11482269D01*
X8493515Y-11482269D02*
X8512563Y-11491793D01*
X8512563Y-11491793D02*
X8550658Y-11491793D01*
X8550658Y-11491793D02*
X8569705Y-11482269D01*
X8569705Y-11482269D02*
X8579229Y-11472746D01*
X8579229Y-11472746D02*
X8588753Y-11453698D01*
X8712563Y-11367984D02*
X8731610Y-11367984D01*
X8731610Y-11367984D02*
X8750658Y-11377508D01*
X8750658Y-11377508D02*
X8760182Y-11387031D01*
X8760182Y-11387031D02*
X8769705Y-11406079D01*
X8769705Y-11406079D02*
X8779229Y-11444174D01*
X8779229Y-11444174D02*
X8779229Y-11491793D01*
X8779229Y-11491793D02*
X8769705Y-11529888D01*
X8769705Y-11529888D02*
X8760182Y-11548936D01*
X8760182Y-11548936D02*
X8750658Y-11558460D01*
X8750658Y-11558460D02*
X8731610Y-11567984D01*
X8731610Y-11567984D02*
X8712563Y-11567984D01*
X8712563Y-11567984D02*
X8693515Y-11558460D01*
X8693515Y-11558460D02*
X8683991Y-11548936D01*
X8683991Y-11548936D02*
X8674467Y-11529888D01*
X8674467Y-11529888D02*
X8664944Y-11491793D01*
X8664944Y-11491793D02*
X8664944Y-11444174D01*
X8664944Y-11444174D02*
X8674467Y-11406079D01*
X8674467Y-11406079D02*
X8683991Y-11387031D01*
X8683991Y-11387031D02*
X8693515Y-11377508D01*
X8693515Y-11377508D02*
X8712563Y-11367984D01*
X8903039Y-11367984D02*
X8922086Y-11367984D01*
X8922086Y-11367984D02*
X8941134Y-11377508D01*
X8941134Y-11377508D02*
X8950658Y-11387031D01*
X8950658Y-11387031D02*
X8960182Y-11406079D01*
X8960182Y-11406079D02*
X8969705Y-11444174D01*
X8969705Y-11444174D02*
X8969705Y-11491793D01*
X8969705Y-11491793D02*
X8960182Y-11529888D01*
X8960182Y-11529888D02*
X8950658Y-11548936D01*
X8950658Y-11548936D02*
X8941134Y-11558460D01*
X8941134Y-11558460D02*
X8922086Y-11567984D01*
X8922086Y-11567984D02*
X8903039Y-11567984D01*
X8903039Y-11567984D02*
X8883991Y-11558460D01*
X8883991Y-11558460D02*
X8874467Y-11548936D01*
X8874467Y-11548936D02*
X8864944Y-11529888D01*
X8864944Y-11529888D02*
X8855420Y-11491793D01*
X8855420Y-11491793D02*
X8855420Y-11444174D01*
X8855420Y-11444174D02*
X8864944Y-11406079D01*
X8864944Y-11406079D02*
X8874467Y-11387031D01*
X8874467Y-11387031D02*
X8883991Y-11377508D01*
X8883991Y-11377508D02*
X8903039Y-11367984D01*
X9055420Y-11567984D02*
X9055420Y-11434650D01*
X9055420Y-11453698D02*
X9064944Y-11444174D01*
X9064944Y-11444174D02*
X9083991Y-11434650D01*
X9083991Y-11434650D02*
X9112563Y-11434650D01*
X9112563Y-11434650D02*
X9131610Y-11444174D01*
X9131610Y-11444174D02*
X9141134Y-11463222D01*
X9141134Y-11463222D02*
X9141134Y-11567984D01*
X9141134Y-11463222D02*
X9150658Y-11444174D01*
X9150658Y-11444174D02*
X9169705Y-11434650D01*
X9169705Y-11434650D02*
X9198277Y-11434650D01*
X9198277Y-11434650D02*
X9217325Y-11444174D01*
X9217325Y-11444174D02*
X9226848Y-11463222D01*
X9226848Y-11463222D02*
X9226848Y-11567984D01*
X9322086Y-11567984D02*
X9322086Y-11434650D01*
X9322086Y-11453698D02*
X9331610Y-11444174D01*
X9331610Y-11444174D02*
X9350658Y-11434650D01*
X9350658Y-11434650D02*
X9379229Y-11434650D01*
X9379229Y-11434650D02*
X9398277Y-11444174D01*
X9398277Y-11444174D02*
X9407801Y-11463222D01*
X9407801Y-11463222D02*
X9407801Y-11567984D01*
X9407801Y-11463222D02*
X9417325Y-11444174D01*
X9417325Y-11444174D02*
X9436372Y-11434650D01*
X9436372Y-11434650D02*
X9464944Y-11434650D01*
X9464944Y-11434650D02*
X9483991Y-11444174D01*
X9483991Y-11444174D02*
X9493515Y-11463222D01*
X9493515Y-11463222D02*
X9493515Y-11567984D01*
X9883991Y-11358460D02*
X9712563Y-11615603D01*
X10141134Y-11367984D02*
X10160182Y-11367984D01*
X10160182Y-11367984D02*
X10179229Y-11377508D01*
X10179229Y-11377508D02*
X10188753Y-11387031D01*
X10188753Y-11387031D02*
X10198277Y-11406079D01*
X10198277Y-11406079D02*
X10207801Y-11444174D01*
X10207801Y-11444174D02*
X10207801Y-11491793D01*
X10207801Y-11491793D02*
X10198277Y-11529888D01*
X10198277Y-11529888D02*
X10188753Y-11548936D01*
X10188753Y-11548936D02*
X10179229Y-11558460D01*
X10179229Y-11558460D02*
X10160182Y-11567984D01*
X10160182Y-11567984D02*
X10141134Y-11567984D01*
X10141134Y-11567984D02*
X10122087Y-11558460D01*
X10122087Y-11558460D02*
X10112563Y-11548936D01*
X10112563Y-11548936D02*
X10103039Y-11529888D01*
X10103039Y-11529888D02*
X10093515Y-11491793D01*
X10093515Y-11491793D02*
X10093515Y-11444174D01*
X10093515Y-11444174D02*
X10103039Y-11406079D01*
X10103039Y-11406079D02*
X10112563Y-11387031D01*
X10112563Y-11387031D02*
X10122087Y-11377508D01*
X10122087Y-11377508D02*
X10141134Y-11367984D01*
X10293515Y-11548936D02*
X10303039Y-11558460D01*
X10303039Y-11558460D02*
X10293515Y-11567984D01*
X10293515Y-11567984D02*
X10283991Y-11558460D01*
X10283991Y-11558460D02*
X10293515Y-11548936D01*
X10293515Y-11548936D02*
X10293515Y-11567984D01*
X10426848Y-11367984D02*
X10445896Y-11367984D01*
X10445896Y-11367984D02*
X10464944Y-11377508D01*
X10464944Y-11377508D02*
X10474468Y-11387031D01*
X10474468Y-11387031D02*
X10483991Y-11406079D01*
X10483991Y-11406079D02*
X10493515Y-11444174D01*
X10493515Y-11444174D02*
X10493515Y-11491793D01*
X10493515Y-11491793D02*
X10483991Y-11529888D01*
X10483991Y-11529888D02*
X10474468Y-11548936D01*
X10474468Y-11548936D02*
X10464944Y-11558460D01*
X10464944Y-11558460D02*
X10445896Y-11567984D01*
X10445896Y-11567984D02*
X10426848Y-11567984D01*
X10426848Y-11567984D02*
X10407801Y-11558460D01*
X10407801Y-11558460D02*
X10398277Y-11548936D01*
X10398277Y-11548936D02*
X10388753Y-11529888D01*
X10388753Y-11529888D02*
X10379229Y-11491793D01*
X10379229Y-11491793D02*
X10379229Y-11444174D01*
X10379229Y-11444174D02*
X10388753Y-11406079D01*
X10388753Y-11406079D02*
X10398277Y-11387031D01*
X10398277Y-11387031D02*
X10407801Y-11377508D01*
X10407801Y-11377508D02*
X10426848Y-11367984D01*
X10560182Y-11367984D02*
X10683991Y-11367984D01*
X10683991Y-11367984D02*
X10617325Y-11444174D01*
X10617325Y-11444174D02*
X10645896Y-11444174D01*
X10645896Y-11444174D02*
X10664944Y-11453698D01*
X10664944Y-11453698D02*
X10674468Y-11463222D01*
X10674468Y-11463222D02*
X10683991Y-11482269D01*
X10683991Y-11482269D02*
X10683991Y-11529888D01*
X10683991Y-11529888D02*
X10674468Y-11548936D01*
X10674468Y-11548936D02*
X10664944Y-11558460D01*
X10664944Y-11558460D02*
X10645896Y-11567984D01*
X10645896Y-11567984D02*
X10588753Y-11567984D01*
X10588753Y-11567984D02*
X10569706Y-11558460D01*
X10569706Y-11558460D02*
X10560182Y-11548936D01*
X10864944Y-11367984D02*
X10769706Y-11367984D01*
X10769706Y-11367984D02*
X10760182Y-11463222D01*
X10760182Y-11463222D02*
X10769706Y-11453698D01*
X10769706Y-11453698D02*
X10788753Y-11444174D01*
X10788753Y-11444174D02*
X10836372Y-11444174D01*
X10836372Y-11444174D02*
X10855420Y-11453698D01*
X10855420Y-11453698D02*
X10864944Y-11463222D01*
X10864944Y-11463222D02*
X10874468Y-11482269D01*
X10874468Y-11482269D02*
X10874468Y-11529888D01*
X10874468Y-11529888D02*
X10864944Y-11548936D01*
X10864944Y-11548936D02*
X10855420Y-11558460D01*
X10855420Y-11558460D02*
X10836372Y-11567984D01*
X10836372Y-11567984D02*
X10788753Y-11567984D01*
X10788753Y-11567984D02*
X10769706Y-11558460D01*
X10769706Y-11558460D02*
X10760182Y-11548936D01*
X11045896Y-11434650D02*
X11045896Y-11567984D01*
X10998277Y-11358460D02*
X10950658Y-11501317D01*
X10950658Y-11501317D02*
X11074468Y-11501317D01*
X11141134Y-11367984D02*
X11141134Y-11406079D01*
X11217325Y-11367984D02*
X11217325Y-11406079D01*
X11512563Y-11644174D02*
X11503039Y-11634650D01*
X11503039Y-11634650D02*
X11483991Y-11606079D01*
X11483991Y-11606079D02*
X11474468Y-11587031D01*
X11474468Y-11587031D02*
X11464944Y-11558460D01*
X11464944Y-11558460D02*
X11455420Y-11510841D01*
X11455420Y-11510841D02*
X11455420Y-11472746D01*
X11455420Y-11472746D02*
X11464944Y-11425127D01*
X11464944Y-11425127D02*
X11474468Y-11396555D01*
X11474468Y-11396555D02*
X11483991Y-11377508D01*
X11483991Y-11377508D02*
X11503039Y-11348936D01*
X11503039Y-11348936D02*
X11512563Y-11339412D01*
X11674468Y-11367984D02*
X11636372Y-11367984D01*
X11636372Y-11367984D02*
X11617325Y-11377508D01*
X11617325Y-11377508D02*
X11607801Y-11387031D01*
X11607801Y-11387031D02*
X11588753Y-11415603D01*
X11588753Y-11415603D02*
X11579229Y-11453698D01*
X11579229Y-11453698D02*
X11579229Y-11529888D01*
X11579229Y-11529888D02*
X11588753Y-11548936D01*
X11588753Y-11548936D02*
X11598277Y-11558460D01*
X11598277Y-11558460D02*
X11617325Y-11567984D01*
X11617325Y-11567984D02*
X11655420Y-11567984D01*
X11655420Y-11567984D02*
X11674468Y-11558460D01*
X11674468Y-11558460D02*
X11683991Y-11548936D01*
X11683991Y-11548936D02*
X11693515Y-11529888D01*
X11693515Y-11529888D02*
X11693515Y-11482269D01*
X11693515Y-11482269D02*
X11683991Y-11463222D01*
X11683991Y-11463222D02*
X11674468Y-11453698D01*
X11674468Y-11453698D02*
X11655420Y-11444174D01*
X11655420Y-11444174D02*
X11617325Y-11444174D01*
X11617325Y-11444174D02*
X11598277Y-11453698D01*
X11598277Y-11453698D02*
X11588753Y-11463222D01*
X11588753Y-11463222D02*
X11579229Y-11482269D01*
X11931610Y-11567984D02*
X11931610Y-11367984D01*
X12017325Y-11567984D02*
X12017325Y-11463222D01*
X12017325Y-11463222D02*
X12007801Y-11444174D01*
X12007801Y-11444174D02*
X11988753Y-11434650D01*
X11988753Y-11434650D02*
X11960182Y-11434650D01*
X11960182Y-11434650D02*
X11941134Y-11444174D01*
X11941134Y-11444174D02*
X11931610Y-11453698D01*
X12141134Y-11567984D02*
X12122087Y-11558460D01*
X12122087Y-11558460D02*
X12112563Y-11548936D01*
X12112563Y-11548936D02*
X12103039Y-11529888D01*
X12103039Y-11529888D02*
X12103039Y-11472746D01*
X12103039Y-11472746D02*
X12112563Y-11453698D01*
X12112563Y-11453698D02*
X12122087Y-11444174D01*
X12122087Y-11444174D02*
X12141134Y-11434650D01*
X12141134Y-11434650D02*
X12169706Y-11434650D01*
X12169706Y-11434650D02*
X12188753Y-11444174D01*
X12188753Y-11444174D02*
X12198277Y-11453698D01*
X12198277Y-11453698D02*
X12207801Y-11472746D01*
X12207801Y-11472746D02*
X12207801Y-11529888D01*
X12207801Y-11529888D02*
X12198277Y-11548936D01*
X12198277Y-11548936D02*
X12188753Y-11558460D01*
X12188753Y-11558460D02*
X12169706Y-11567984D01*
X12169706Y-11567984D02*
X12141134Y-11567984D01*
X12322087Y-11567984D02*
X12303039Y-11558460D01*
X12303039Y-11558460D02*
X12293515Y-11539412D01*
X12293515Y-11539412D02*
X12293515Y-11367984D01*
X12474468Y-11558460D02*
X12455420Y-11567984D01*
X12455420Y-11567984D02*
X12417325Y-11567984D01*
X12417325Y-11567984D02*
X12398277Y-11558460D01*
X12398277Y-11558460D02*
X12388753Y-11539412D01*
X12388753Y-11539412D02*
X12388753Y-11463222D01*
X12388753Y-11463222D02*
X12398277Y-11444174D01*
X12398277Y-11444174D02*
X12417325Y-11434650D01*
X12417325Y-11434650D02*
X12455420Y-11434650D01*
X12455420Y-11434650D02*
X12474468Y-11444174D01*
X12474468Y-11444174D02*
X12483991Y-11463222D01*
X12483991Y-11463222D02*
X12483991Y-11482269D01*
X12483991Y-11482269D02*
X12388753Y-11501317D01*
X12560182Y-11558460D02*
X12579230Y-11567984D01*
X12579230Y-11567984D02*
X12617325Y-11567984D01*
X12617325Y-11567984D02*
X12636372Y-11558460D01*
X12636372Y-11558460D02*
X12645896Y-11539412D01*
X12645896Y-11539412D02*
X12645896Y-11529888D01*
X12645896Y-11529888D02*
X12636372Y-11510841D01*
X12636372Y-11510841D02*
X12617325Y-11501317D01*
X12617325Y-11501317D02*
X12588753Y-11501317D01*
X12588753Y-11501317D02*
X12569706Y-11491793D01*
X12569706Y-11491793D02*
X12560182Y-11472746D01*
X12560182Y-11472746D02*
X12560182Y-11463222D01*
X12560182Y-11463222D02*
X12569706Y-11444174D01*
X12569706Y-11444174D02*
X12588753Y-11434650D01*
X12588753Y-11434650D02*
X12617325Y-11434650D01*
X12617325Y-11434650D02*
X12636372Y-11444174D01*
X12712563Y-11644174D02*
X12722087Y-11634650D01*
X12722087Y-11634650D02*
X12741134Y-11606079D01*
X12741134Y-11606079D02*
X12750658Y-11587031D01*
X12750658Y-11587031D02*
X12760182Y-11558460D01*
X12760182Y-11558460D02*
X12769706Y-11510841D01*
X12769706Y-11510841D02*
X12769706Y-11472746D01*
X12769706Y-11472746D02*
X12760182Y-11425127D01*
X12760182Y-11425127D02*
X12750658Y-11396555D01*
X12750658Y-11396555D02*
X12741134Y-11377508D01*
X12741134Y-11377508D02*
X12722087Y-11348936D01*
X12722087Y-11348936D02*
X12712563Y-11339412D01*
X13074468Y-11644174D02*
X13064944Y-11634650D01*
X13064944Y-11634650D02*
X13045896Y-11606079D01*
X13045896Y-11606079D02*
X13036372Y-11587031D01*
X13036372Y-11587031D02*
X13026849Y-11558460D01*
X13026849Y-11558460D02*
X13017325Y-11510841D01*
X13017325Y-11510841D02*
X13017325Y-11472746D01*
X13017325Y-11472746D02*
X13026849Y-11425127D01*
X13026849Y-11425127D02*
X13036372Y-11396555D01*
X13036372Y-11396555D02*
X13045896Y-11377508D01*
X13045896Y-11377508D02*
X13064944Y-11348936D01*
X13064944Y-11348936D02*
X13074468Y-11339412D01*
X13150658Y-11434650D02*
X13150658Y-11567984D01*
X13150658Y-11453698D02*
X13160182Y-11444174D01*
X13160182Y-11444174D02*
X13179230Y-11434650D01*
X13179230Y-11434650D02*
X13207801Y-11434650D01*
X13207801Y-11434650D02*
X13226849Y-11444174D01*
X13226849Y-11444174D02*
X13236372Y-11463222D01*
X13236372Y-11463222D02*
X13236372Y-11567984D01*
X13360182Y-11567984D02*
X13341134Y-11558460D01*
X13341134Y-11558460D02*
X13331611Y-11548936D01*
X13331611Y-11548936D02*
X13322087Y-11529888D01*
X13322087Y-11529888D02*
X13322087Y-11472746D01*
X13322087Y-11472746D02*
X13331611Y-11453698D01*
X13331611Y-11453698D02*
X13341134Y-11444174D01*
X13341134Y-11444174D02*
X13360182Y-11434650D01*
X13360182Y-11434650D02*
X13388753Y-11434650D01*
X13388753Y-11434650D02*
X13407801Y-11444174D01*
X13407801Y-11444174D02*
X13417325Y-11453698D01*
X13417325Y-11453698D02*
X13426849Y-11472746D01*
X13426849Y-11472746D02*
X13426849Y-11529888D01*
X13426849Y-11529888D02*
X13417325Y-11548936D01*
X13417325Y-11548936D02*
X13407801Y-11558460D01*
X13407801Y-11558460D02*
X13388753Y-11567984D01*
X13388753Y-11567984D02*
X13360182Y-11567984D01*
X13483992Y-11434650D02*
X13560182Y-11434650D01*
X13512563Y-11367984D02*
X13512563Y-11539412D01*
X13512563Y-11539412D02*
X13522087Y-11558460D01*
X13522087Y-11558460D02*
X13541134Y-11567984D01*
X13541134Y-11567984D02*
X13560182Y-11567984D01*
X13779230Y-11434650D02*
X13779230Y-11634650D01*
X13779230Y-11444174D02*
X13798277Y-11434650D01*
X13798277Y-11434650D02*
X13836373Y-11434650D01*
X13836373Y-11434650D02*
X13855420Y-11444174D01*
X13855420Y-11444174D02*
X13864944Y-11453698D01*
X13864944Y-11453698D02*
X13874468Y-11472746D01*
X13874468Y-11472746D02*
X13874468Y-11529888D01*
X13874468Y-11529888D02*
X13864944Y-11548936D01*
X13864944Y-11548936D02*
X13855420Y-11558460D01*
X13855420Y-11558460D02*
X13836373Y-11567984D01*
X13836373Y-11567984D02*
X13798277Y-11567984D01*
X13798277Y-11567984D02*
X13779230Y-11558460D01*
X13988753Y-11567984D02*
X13969706Y-11558460D01*
X13969706Y-11558460D02*
X13960182Y-11539412D01*
X13960182Y-11539412D02*
X13960182Y-11367984D01*
X14150658Y-11567984D02*
X14150658Y-11463222D01*
X14150658Y-11463222D02*
X14141134Y-11444174D01*
X14141134Y-11444174D02*
X14122087Y-11434650D01*
X14122087Y-11434650D02*
X14083992Y-11434650D01*
X14083992Y-11434650D02*
X14064944Y-11444174D01*
X14150658Y-11558460D02*
X14131611Y-11567984D01*
X14131611Y-11567984D02*
X14083992Y-11567984D01*
X14083992Y-11567984D02*
X14064944Y-11558460D01*
X14064944Y-11558460D02*
X14055420Y-11539412D01*
X14055420Y-11539412D02*
X14055420Y-11520365D01*
X14055420Y-11520365D02*
X14064944Y-11501317D01*
X14064944Y-11501317D02*
X14083992Y-11491793D01*
X14083992Y-11491793D02*
X14131611Y-11491793D01*
X14131611Y-11491793D02*
X14150658Y-11482269D01*
X14217325Y-11434650D02*
X14293515Y-11434650D01*
X14245896Y-11367984D02*
X14245896Y-11539412D01*
X14245896Y-11539412D02*
X14255420Y-11558460D01*
X14255420Y-11558460D02*
X14274468Y-11567984D01*
X14274468Y-11567984D02*
X14293515Y-11567984D01*
X14436373Y-11558460D02*
X14417325Y-11567984D01*
X14417325Y-11567984D02*
X14379230Y-11567984D01*
X14379230Y-11567984D02*
X14360182Y-11558460D01*
X14360182Y-11558460D02*
X14350658Y-11539412D01*
X14350658Y-11539412D02*
X14350658Y-11463222D01*
X14350658Y-11463222D02*
X14360182Y-11444174D01*
X14360182Y-11444174D02*
X14379230Y-11434650D01*
X14379230Y-11434650D02*
X14417325Y-11434650D01*
X14417325Y-11434650D02*
X14436373Y-11444174D01*
X14436373Y-11444174D02*
X14445896Y-11463222D01*
X14445896Y-11463222D02*
X14445896Y-11482269D01*
X14445896Y-11482269D02*
X14350658Y-11501317D01*
X14617325Y-11567984D02*
X14617325Y-11367984D01*
X14617325Y-11558460D02*
X14598277Y-11567984D01*
X14598277Y-11567984D02*
X14560182Y-11567984D01*
X14560182Y-11567984D02*
X14541134Y-11558460D01*
X14541134Y-11558460D02*
X14531611Y-11548936D01*
X14531611Y-11548936D02*
X14522087Y-11529888D01*
X14522087Y-11529888D02*
X14522087Y-11472746D01*
X14522087Y-11472746D02*
X14531611Y-11453698D01*
X14531611Y-11453698D02*
X14541134Y-11444174D01*
X14541134Y-11444174D02*
X14560182Y-11434650D01*
X14560182Y-11434650D02*
X14598277Y-11434650D01*
X14598277Y-11434650D02*
X14617325Y-11444174D01*
X14693515Y-11644174D02*
X14703039Y-11634650D01*
X14703039Y-11634650D02*
X14722087Y-11606079D01*
X14722087Y-11606079D02*
X14731611Y-11587031D01*
X14731611Y-11587031D02*
X14741134Y-11558460D01*
X14741134Y-11558460D02*
X14750658Y-11510841D01*
X14750658Y-11510841D02*
X14750658Y-11472746D01*
X14750658Y-11472746D02*
X14741134Y-11425127D01*
X14741134Y-11425127D02*
X14731611Y-11396555D01*
X14731611Y-11396555D02*
X14722087Y-11377508D01*
X14722087Y-11377508D02*
X14703039Y-11348936D01*
X14703039Y-11348936D02*
X14693515Y-11339412D01*
M02*
