G04 #@! TF.GenerationSoftware,KiCad,Pcbnew,8.0.2*
G04 #@! TF.CreationDate,2024-05-22T22:05:32+08:00*
G04 #@! TF.ProjectId,pppc_usb_hub,70707063-5f75-4736-925f-6875622e6b69,rev?*
G04 #@! TF.SameCoordinates,Original*
G04 #@! TF.FileFunction,Copper,L2,Bot*
G04 #@! TF.FilePolarity,Positive*
%FSLAX46Y46*%
G04 Gerber Fmt 4.6, Leading zero omitted, Abs format (unit mm)*
G04 Created by KiCad (PCBNEW 8.0.2) date 2024-05-22 22:05:32*
%MOMM*%
%LPD*%
G01*
G04 APERTURE LIST*
G04 #@! TA.AperFunction,ComponentPad*
%ADD10R,1.700000X1.700000*%
G04 #@! TD*
G04 #@! TA.AperFunction,ComponentPad*
%ADD11O,1.700000X1.700000*%
G04 #@! TD*
G04 #@! TA.AperFunction,ComponentPad*
%ADD12C,3.000000*%
G04 #@! TD*
G04 #@! TA.AperFunction,ComponentPad*
%ADD13C,2.500000*%
G04 #@! TD*
G04 #@! TA.AperFunction,ComponentPad*
%ADD14O,1.524000X1.524000*%
G04 #@! TD*
G04 #@! TA.AperFunction,ComponentPad*
%ADD15O,3.200000X2.000000*%
G04 #@! TD*
G04 #@! TA.AperFunction,ComponentPad*
%ADD16R,1.600000X1.600000*%
G04 #@! TD*
G04 #@! TA.AperFunction,ComponentPad*
%ADD17O,1.600000X1.600000*%
G04 #@! TD*
G04 #@! TA.AperFunction,ComponentPad*
%ADD18O,2.800000X1.300000*%
G04 #@! TD*
G04 #@! TA.AperFunction,ComponentPad*
%ADD19O,1.100000X2.000000*%
G04 #@! TD*
G04 #@! TA.AperFunction,ComponentPad*
%ADD20O,1.200000X1.800000*%
G04 #@! TD*
G04 #@! TA.AperFunction,ComponentPad*
%ADD21O,2.400000X2.400000*%
G04 #@! TD*
G04 #@! TA.AperFunction,ComponentPad*
%ADD22C,3.500000*%
G04 #@! TD*
G04 #@! TA.AperFunction,ViaPad*
%ADD23C,0.600000*%
G04 #@! TD*
G04 #@! TA.AperFunction,Conductor*
%ADD24C,0.700000*%
G04 #@! TD*
G04 #@! TA.AperFunction,Conductor*
%ADD25C,0.200000*%
G04 #@! TD*
G04 #@! TA.AperFunction,Conductor*
%ADD26C,0.600000*%
G04 #@! TD*
G04 #@! TA.AperFunction,Conductor*
%ADD27C,0.643000*%
G04 #@! TD*
G04 APERTURE END LIST*
D10*
X131180000Y-59700000D03*
D11*
X128640000Y-59700000D03*
X126100000Y-59700000D03*
X123560000Y-59700000D03*
X121020000Y-59700000D03*
D12*
X139370000Y-76748012D03*
D13*
X133320000Y-78698012D03*
D12*
X133320000Y-90898012D03*
X145370000Y-90948012D03*
D13*
X145320000Y-78698012D03*
D10*
X140080000Y-59700000D03*
D11*
X137540000Y-59700000D03*
X135000000Y-59700000D03*
D14*
X121874000Y-90100000D03*
X121874000Y-92599300D03*
X121874000Y-94600900D03*
X121874000Y-97100200D03*
D15*
X119373800Y-87030100D03*
X119373800Y-100170100D03*
D14*
X106874000Y-90100000D03*
X106874000Y-92599300D03*
X106874000Y-94600900D03*
X106874000Y-97100200D03*
D15*
X104373800Y-87030100D03*
X104373800Y-100170100D03*
D16*
X91374000Y-90100100D03*
D17*
X91374000Y-92600200D03*
X91374000Y-94600200D03*
X91374000Y-97100100D03*
D18*
X89873800Y-87150200D03*
X89873800Y-100050000D03*
D19*
X91025000Y-63413600D03*
D20*
X91025000Y-59213500D03*
D19*
X82375000Y-63413600D03*
D20*
X82375000Y-59213500D03*
D21*
X134290000Y-100450000D03*
X139370000Y-100450000D03*
X144450000Y-100450000D03*
D19*
X112825000Y-63413600D03*
D20*
X112825000Y-59213500D03*
D19*
X104175000Y-63413600D03*
D20*
X104175000Y-59213500D03*
D22*
X82000000Y-103100000D03*
X146500000Y-60100000D03*
D23*
X92800000Y-58900000D03*
X101900000Y-58800000D03*
X107300000Y-62300000D03*
X104000000Y-66700000D03*
X107900000Y-69600000D03*
X110900000Y-73000000D03*
X112700000Y-77600000D03*
X115400000Y-78900000D03*
X103800000Y-96400000D03*
X119500000Y-91900000D03*
X119300000Y-96200000D03*
X92400000Y-83100000D03*
X90400000Y-85100000D03*
X95100000Y-76100000D03*
X111300000Y-67900000D03*
X106900000Y-67200000D03*
X104100000Y-69800000D03*
X102200000Y-69600000D03*
X101600000Y-66500000D03*
X80700000Y-59600000D03*
X84600000Y-66100000D03*
X108800000Y-65600000D03*
X110800000Y-74500000D03*
X108500000Y-78300000D03*
X108292553Y-79993485D03*
X85000000Y-83900000D03*
X90400000Y-65000000D03*
X91300000Y-65100000D03*
X87100000Y-62600000D03*
X84900000Y-62000000D03*
X89000000Y-59300000D03*
X85200000Y-59300000D03*
X112200000Y-61400000D03*
X106900000Y-59400000D03*
X109600000Y-60200000D03*
X119700000Y-64600000D03*
X121600000Y-65000000D03*
X124200000Y-64000000D03*
X121500000Y-62300000D03*
X141100000Y-65000000D03*
X146300000Y-66900000D03*
X146700000Y-71300000D03*
X144700000Y-67700000D03*
X135800000Y-69000000D03*
X136200000Y-66900000D03*
X129700000Y-68600000D03*
X125800000Y-74500000D03*
X128400000Y-72600000D03*
X130000000Y-75500000D03*
X123100000Y-78900000D03*
X117300000Y-80900000D03*
X119200000Y-79300000D03*
X122000000Y-80300000D03*
X124400000Y-83000000D03*
X130100000Y-85900000D03*
X125500000Y-86000000D03*
X125700000Y-88200000D03*
X130000000Y-88000000D03*
X129700000Y-92400000D03*
X125100000Y-95800000D03*
X125200000Y-93700000D03*
X130100000Y-95000000D03*
X129900000Y-99600000D03*
X125600000Y-99100000D03*
X113400000Y-103100000D03*
X114200000Y-93800000D03*
X110200000Y-94000000D03*
X110100000Y-100200000D03*
X110600000Y-104100000D03*
X98100000Y-104100000D03*
X95100000Y-104100000D03*
X97000000Y-100800000D03*
X99100000Y-99700000D03*
X99400000Y-94500000D03*
X95100000Y-92700000D03*
X93000000Y-95300000D03*
X94900000Y-99800000D03*
X88500000Y-95700000D03*
X89400000Y-88600000D03*
X86700000Y-89300000D03*
X88900000Y-93100000D03*
X86900000Y-96900000D03*
X80600000Y-90400000D03*
X80600000Y-95400000D03*
X80400000Y-74900000D03*
X82500000Y-75200000D03*
X83200000Y-72900000D03*
X82500000Y-73900000D03*
X87100000Y-77400000D03*
X82200000Y-79100000D03*
X83700000Y-80600000D03*
X88100000Y-80500000D03*
X97600000Y-70500000D03*
X99500000Y-70900000D03*
X103200000Y-72000000D03*
X106600000Y-71700000D03*
X112500000Y-76400000D03*
X116400000Y-76600000D03*
X122400000Y-75900000D03*
X126800000Y-63400000D03*
X124600000Y-62600000D03*
X123500000Y-68900000D03*
X116100000Y-74900000D03*
X139200000Y-70200000D03*
X143400000Y-74000000D03*
X136100000Y-74200000D03*
X96300000Y-61050000D03*
X87200000Y-102900000D03*
X100758350Y-101350703D03*
X84900000Y-69900000D03*
X102500000Y-78200000D03*
X134100000Y-66300000D03*
X132200000Y-62200000D03*
X117900000Y-59200000D03*
X115200000Y-60000000D03*
X115100000Y-65800000D03*
X114500000Y-69200000D03*
X114400000Y-73000000D03*
X116400000Y-71900000D03*
X89600000Y-67800000D03*
X95700000Y-69600000D03*
X95600000Y-71700000D03*
X96900000Y-78700000D03*
X89900000Y-76700000D03*
X80800000Y-85700000D03*
X80400000Y-71300000D03*
X143500000Y-59000000D03*
X143600000Y-60400000D03*
X144100000Y-62000000D03*
X145900000Y-62800000D03*
X147800000Y-62700000D03*
X80800000Y-100500000D03*
X82100000Y-100300000D03*
X83600000Y-100900000D03*
X84500000Y-103500000D03*
X84500000Y-104700000D03*
X130700000Y-104400000D03*
X129700000Y-102000000D03*
X125100000Y-102000000D03*
X124100000Y-104100000D03*
X127500000Y-101400000D03*
X117300000Y-102900000D03*
X85200000Y-86050000D03*
X112750000Y-65850000D03*
X81575000Y-72025000D03*
X125800000Y-66550000D03*
X117700000Y-95700000D03*
X105100000Y-90950000D03*
X129850000Y-64000000D03*
X99500000Y-80750000D03*
X99500000Y-85550000D03*
X102250000Y-75300000D03*
X99450000Y-92750000D03*
X101450000Y-92850000D03*
X105400000Y-77100000D03*
X109950000Y-85050000D03*
X107400000Y-80100000D03*
X105550000Y-81250000D03*
X108150000Y-87950000D03*
X114550000Y-84800000D03*
X114350000Y-75100000D03*
X114550000Y-83100000D03*
X105350000Y-75100000D03*
X104650000Y-88700000D03*
X100250000Y-91800000D03*
X115303126Y-91096874D03*
X99250000Y-73438649D03*
X109850000Y-76400000D03*
X115900000Y-77800000D03*
X110850000Y-76950000D03*
X84300000Y-65000000D03*
X89100000Y-65000000D03*
X86100000Y-69800000D03*
X87400000Y-65600000D03*
X88300000Y-65600000D03*
X87300000Y-69800000D03*
X88484983Y-72740509D03*
X87642966Y-72957034D03*
X96355527Y-81900000D03*
X96557034Y-81042966D03*
X108300000Y-74500000D03*
X115200000Y-70300000D03*
X105600000Y-79450000D03*
X105550735Y-80299265D03*
X129350000Y-65050000D03*
X104300000Y-74050000D03*
X95500000Y-86950000D03*
X97450000Y-73700000D03*
X103750000Y-77200000D03*
X102800000Y-81900100D03*
X104550000Y-78200000D03*
X103700000Y-81900000D03*
X105300000Y-74050000D03*
X102950000Y-64100000D03*
D24*
X96300000Y-61050000D02*
X107900000Y-61050000D01*
X81400000Y-61050000D02*
X96300000Y-61050000D01*
X102050000Y-102350000D02*
X111050000Y-102350000D01*
X111050000Y-102350000D02*
X117700000Y-95700000D01*
X102050000Y-94000000D02*
X105100000Y-90950000D01*
X85200000Y-86050000D02*
X81250000Y-82100000D01*
X80850781Y-64800000D02*
X80850781Y-61599219D01*
X92950000Y-102350000D02*
X102050000Y-102350000D01*
X82286196Y-65336196D02*
X81386977Y-65336196D01*
D25*
X129850000Y-64000000D02*
X128350000Y-64000000D01*
D24*
X81386977Y-65336196D02*
X80850781Y-64800000D01*
X81575000Y-72025000D02*
X84100000Y-69500000D01*
X102050000Y-102350000D02*
X102050000Y-94000000D01*
X84100000Y-67150000D02*
X82286196Y-65336196D01*
X81250000Y-72350000D02*
X81575000Y-72025000D01*
X81250000Y-82100000D02*
X81250000Y-72350000D01*
X85200000Y-98682397D02*
X88867603Y-102350000D01*
X88867603Y-102350000D02*
X92950000Y-102350000D01*
D25*
X128350000Y-64000000D02*
X125800000Y-66550000D01*
D24*
X107900000Y-61050000D02*
X112700000Y-65850000D01*
X84100000Y-69500000D02*
X84100000Y-67150000D01*
X80850781Y-61599219D02*
X81400000Y-61050000D01*
X85200000Y-86050000D02*
X85200000Y-98682397D01*
X112700000Y-65850000D02*
X112750000Y-65850000D01*
D25*
X102250000Y-75300000D02*
X102250000Y-74650000D01*
X99450000Y-92750000D02*
X99450000Y-85600000D01*
X98650000Y-79900000D02*
X99500000Y-80750000D01*
X99150000Y-72500000D02*
X98650000Y-73000000D01*
X100100000Y-72500000D02*
X99150000Y-72500000D01*
X102250000Y-74650000D02*
X100100000Y-72500000D01*
X99450000Y-85600000D02*
X99500000Y-85550000D01*
X98650000Y-73000000D02*
X98650000Y-79900000D01*
X105700000Y-81250000D02*
X105550000Y-81250000D01*
X109950000Y-85050000D02*
X109500000Y-85050000D01*
X105750000Y-88550000D02*
X107550000Y-88550000D01*
X107000000Y-82550000D02*
X105700000Y-81250000D01*
X109500000Y-85050000D02*
X107000000Y-82550000D01*
X107400000Y-80100000D02*
X107400000Y-79100000D01*
X107400000Y-79100000D02*
X105400000Y-77100000D01*
X101450000Y-92850000D02*
X105750000Y-88550000D01*
X107550000Y-88550000D02*
X108150000Y-87950000D01*
X114550000Y-84800000D02*
X114550000Y-83100000D01*
X114350000Y-75100000D02*
X105350000Y-75100000D01*
X100250000Y-91800000D02*
X103350000Y-88700000D01*
X103350000Y-88700000D02*
X104650000Y-88700000D01*
X116300000Y-90100000D02*
X121874000Y-90100000D01*
X115303126Y-91096874D02*
X116300000Y-90100000D01*
X115350000Y-77250000D02*
X115050000Y-76950000D01*
X115050000Y-76950000D02*
X110850000Y-76950000D01*
X115900000Y-77800000D02*
X115350000Y-77250000D01*
D26*
X84300000Y-64850000D02*
X85150000Y-64000000D01*
X84300000Y-65000000D02*
X84300000Y-64850000D01*
X88100000Y-64000000D02*
X89100000Y-65000000D01*
X85150000Y-64000000D02*
X88100000Y-64000000D01*
D27*
X87400000Y-65600000D02*
X87464999Y-65664999D01*
X87464999Y-68435001D02*
X86100000Y-69800000D01*
X87464999Y-65664999D02*
X87464999Y-68435001D01*
X88300000Y-65600000D02*
X88235001Y-65664999D01*
X88235001Y-68753944D02*
X87300000Y-69688945D01*
X87300000Y-69688945D02*
X87300000Y-69800000D01*
X88235001Y-65664999D02*
X88235001Y-68753944D01*
X94185000Y-91789200D02*
X91374000Y-94600200D01*
X94185000Y-75940526D02*
X94185000Y-91789200D01*
X90984983Y-72740509D02*
X94185000Y-75940526D01*
X88484983Y-72740509D02*
X90984983Y-72740509D01*
X87827763Y-73172236D02*
X87642966Y-72987439D01*
X90666035Y-73510509D02*
X88166035Y-73510509D01*
X93415000Y-76259474D02*
X90666035Y-73510509D01*
X87642966Y-72987439D02*
X87642966Y-72957034D01*
X93415000Y-91470255D02*
X93415000Y-76259474D01*
X92285055Y-92600200D02*
X93415000Y-91470255D01*
X91374000Y-92600200D02*
X92285055Y-92600200D01*
X88166035Y-73510509D02*
X87827763Y-73172237D01*
X87827763Y-73172237D02*
X87827763Y-73172236D01*
X121258201Y-93985101D02*
X121874000Y-94600900D01*
X98640527Y-84185000D02*
X106140526Y-84185000D01*
X106140526Y-84185000D02*
X115940627Y-93985101D01*
X115940627Y-93985101D02*
X121258201Y-93985101D01*
X96355527Y-81900000D02*
X98640527Y-84185000D01*
X109827986Y-86783512D02*
X109708769Y-86664295D01*
X121258201Y-93215099D02*
X116259573Y-93215099D01*
X106459474Y-83415000D02*
X98959473Y-83415000D01*
X96587439Y-81042966D02*
X96557034Y-81042966D01*
X116259573Y-93215099D02*
X110900952Y-87856478D01*
X111131185Y-86672498D02*
X111011966Y-86553279D01*
X98959473Y-83415000D02*
X96587439Y-81042966D01*
X121874000Y-92599300D02*
X121258201Y-93215099D01*
X109708769Y-86664295D02*
X109155333Y-86110859D01*
X109155333Y-86110859D02*
X106459474Y-83415000D01*
X110535093Y-86553279D02*
X110304859Y-86783512D01*
X110900952Y-87379605D02*
X111131185Y-87149371D01*
X111011966Y-86553279D02*
G75*
G03*
X110535094Y-86553279I-238436J-238435D01*
G01*
X111131185Y-87149371D02*
G75*
G03*
X111131220Y-86672464I-238485J238471D01*
G01*
X110304859Y-86783512D02*
G75*
G02*
X109827987Y-86783512I-238436J238435D01*
G01*
X110900952Y-87856478D02*
G75*
G02*
X110900910Y-87379564I238448J238478D01*
G01*
D25*
X109000000Y-71200000D02*
X114600000Y-71200000D01*
X108300000Y-74500000D02*
X108300000Y-71900000D01*
X108300000Y-71900000D02*
G75*
G02*
X109000000Y-71200000I700000J0D01*
G01*
X114600000Y-71200000D02*
G75*
G03*
X126100000Y-59700000I0J11500000D01*
G01*
X123560000Y-61940000D02*
X123560000Y-59700000D01*
X115200000Y-70300000D02*
G75*
G03*
X123560000Y-61940000I0J8360000D01*
G01*
X105600000Y-79450000D02*
X105600000Y-79500000D01*
X112900000Y-82750000D02*
X133950000Y-61700000D01*
X105600000Y-79500000D02*
X108850000Y-82750000D01*
X135540000Y-61700000D02*
X137540000Y-59700000D01*
X108850000Y-82750000D02*
X112900000Y-82750000D01*
X133950000Y-61700000D02*
X135540000Y-61700000D01*
X140080000Y-60620000D02*
X140080000Y-59700000D01*
X105599265Y-80299265D02*
X108650000Y-83350000D01*
X113150000Y-83350000D02*
X134250000Y-62250000D01*
X134250000Y-62250000D02*
X138450000Y-62250000D01*
X138450000Y-62250000D02*
X140080000Y-60620000D01*
X108650000Y-83350000D02*
X113150000Y-83350000D01*
X105550735Y-80299265D02*
X105599265Y-80299265D01*
X118600000Y-75800000D02*
X105201471Y-75800000D01*
X105201471Y-75800000D02*
X104300000Y-74898529D01*
X104300000Y-74898529D02*
X104300000Y-74050000D01*
X129350000Y-65050000D02*
X118600000Y-75800000D01*
X97450000Y-74800000D02*
X97450000Y-73700000D01*
X95550000Y-86900000D02*
X95550000Y-76700000D01*
X95550000Y-76700000D02*
X97450000Y-74800000D01*
X95500000Y-86950000D02*
X95550000Y-86900000D01*
X103800000Y-80900100D02*
X102800000Y-81900100D01*
X103750000Y-77200000D02*
X103800000Y-77250000D01*
X103800000Y-77250000D02*
X103800000Y-80900100D01*
X104550000Y-78200000D02*
X104550000Y-81050000D01*
X104550000Y-81050000D02*
X103700000Y-81900000D01*
X105300000Y-74050000D02*
X105300000Y-73300000D01*
X105300000Y-73300000D02*
X102950000Y-70950000D01*
X102950000Y-70950000D02*
X102950000Y-64100000D01*
X99250000Y-73438649D02*
X99250000Y-75700000D01*
X99250000Y-75700000D02*
X99950000Y-76400000D01*
X99950000Y-76400000D02*
X109850000Y-76400000D01*
G04 #@! TA.AperFunction,Conductor*
G36*
X81826836Y-58220185D02*
G01*
X81872591Y-58272989D01*
X81882535Y-58342147D01*
X81853510Y-58405703D01*
X81847478Y-58412181D01*
X81809916Y-58449742D01*
X81809913Y-58449746D01*
X81730301Y-58568893D01*
X81730296Y-58568903D01*
X81675457Y-58701295D01*
X81675455Y-58701303D01*
X81647500Y-58841843D01*
X81647500Y-59585156D01*
X81675455Y-59725696D01*
X81675457Y-59725704D01*
X81730296Y-59858096D01*
X81730301Y-59858106D01*
X81809913Y-59977253D01*
X81809916Y-59977257D01*
X81911242Y-60078583D01*
X81911246Y-60078586D01*
X82030393Y-60158198D01*
X82030397Y-60158200D01*
X82030400Y-60158202D01*
X82162796Y-60213043D01*
X82303343Y-60240999D01*
X82303347Y-60241000D01*
X82303348Y-60241000D01*
X82446653Y-60241000D01*
X82446654Y-60240999D01*
X82587204Y-60213043D01*
X82719600Y-60158202D01*
X82838754Y-60078586D01*
X82940086Y-59977254D01*
X83019702Y-59858100D01*
X83074543Y-59725704D01*
X83102500Y-59585152D01*
X83102500Y-58841848D01*
X83074543Y-58701296D01*
X83019702Y-58568900D01*
X83019700Y-58568897D01*
X83019698Y-58568893D01*
X82940086Y-58449746D01*
X82940083Y-58449742D01*
X82902522Y-58412181D01*
X82869037Y-58350858D01*
X82874021Y-58281166D01*
X82915893Y-58225233D01*
X82981357Y-58200816D01*
X82990203Y-58200500D01*
X90409797Y-58200500D01*
X90476836Y-58220185D01*
X90522591Y-58272989D01*
X90532535Y-58342147D01*
X90503510Y-58405703D01*
X90497478Y-58412181D01*
X90459916Y-58449742D01*
X90459913Y-58449746D01*
X90380301Y-58568893D01*
X90380296Y-58568903D01*
X90325457Y-58701295D01*
X90325455Y-58701303D01*
X90297500Y-58841843D01*
X90297500Y-59585156D01*
X90325455Y-59725696D01*
X90325457Y-59725704D01*
X90380296Y-59858096D01*
X90380301Y-59858106D01*
X90459913Y-59977253D01*
X90459916Y-59977257D01*
X90561242Y-60078583D01*
X90561246Y-60078586D01*
X90680393Y-60158198D01*
X90680397Y-60158200D01*
X90680400Y-60158202D01*
X90812796Y-60213043D01*
X90953343Y-60240999D01*
X90953347Y-60241000D01*
X90953348Y-60241000D01*
X91096653Y-60241000D01*
X91096654Y-60240999D01*
X91237204Y-60213043D01*
X91369600Y-60158202D01*
X91488754Y-60078586D01*
X91590086Y-59977254D01*
X91669702Y-59858100D01*
X91724543Y-59725704D01*
X91752500Y-59585152D01*
X91752500Y-58841848D01*
X91724543Y-58701296D01*
X91669702Y-58568900D01*
X91669700Y-58568897D01*
X91669698Y-58568893D01*
X91590086Y-58449746D01*
X91590083Y-58449742D01*
X91552522Y-58412181D01*
X91519037Y-58350858D01*
X91524021Y-58281166D01*
X91565893Y-58225233D01*
X91631357Y-58200816D01*
X91640203Y-58200500D01*
X103559797Y-58200500D01*
X103626836Y-58220185D01*
X103672591Y-58272989D01*
X103682535Y-58342147D01*
X103653510Y-58405703D01*
X103647478Y-58412181D01*
X103609916Y-58449742D01*
X103609913Y-58449746D01*
X103530301Y-58568893D01*
X103530296Y-58568903D01*
X103475457Y-58701295D01*
X103475455Y-58701303D01*
X103447500Y-58841843D01*
X103447500Y-59585156D01*
X103475455Y-59725696D01*
X103475457Y-59725704D01*
X103530296Y-59858096D01*
X103530301Y-59858106D01*
X103609913Y-59977253D01*
X103609916Y-59977257D01*
X103711242Y-60078583D01*
X103711246Y-60078586D01*
X103830393Y-60158198D01*
X103830397Y-60158200D01*
X103830400Y-60158202D01*
X103962796Y-60213043D01*
X104103343Y-60240999D01*
X104103347Y-60241000D01*
X104103348Y-60241000D01*
X104246653Y-60241000D01*
X104246654Y-60240999D01*
X104387204Y-60213043D01*
X104519600Y-60158202D01*
X104638754Y-60078586D01*
X104740086Y-59977254D01*
X104819702Y-59858100D01*
X104874543Y-59725704D01*
X104902500Y-59585152D01*
X104902500Y-58841848D01*
X104874543Y-58701296D01*
X104819702Y-58568900D01*
X104819700Y-58568897D01*
X104819698Y-58568893D01*
X104740086Y-58449746D01*
X104740083Y-58449742D01*
X104702522Y-58412181D01*
X104669037Y-58350858D01*
X104674021Y-58281166D01*
X104715893Y-58225233D01*
X104781357Y-58200816D01*
X104790203Y-58200500D01*
X112209797Y-58200500D01*
X112276836Y-58220185D01*
X112322591Y-58272989D01*
X112332535Y-58342147D01*
X112303510Y-58405703D01*
X112297478Y-58412181D01*
X112259916Y-58449742D01*
X112259913Y-58449746D01*
X112180301Y-58568893D01*
X112180296Y-58568903D01*
X112125457Y-58701295D01*
X112125455Y-58701303D01*
X112097500Y-58841843D01*
X112097500Y-59585156D01*
X112125455Y-59725696D01*
X112125457Y-59725704D01*
X112180296Y-59858096D01*
X112180301Y-59858106D01*
X112259913Y-59977253D01*
X112259916Y-59977257D01*
X112361242Y-60078583D01*
X112361246Y-60078586D01*
X112480393Y-60158198D01*
X112480397Y-60158200D01*
X112480400Y-60158202D01*
X112612796Y-60213043D01*
X112753343Y-60240999D01*
X112753347Y-60241000D01*
X112753348Y-60241000D01*
X112896653Y-60241000D01*
X112896654Y-60240999D01*
X113037204Y-60213043D01*
X113169600Y-60158202D01*
X113288754Y-60078586D01*
X113390086Y-59977254D01*
X113469702Y-59858100D01*
X113524543Y-59725704D01*
X113552500Y-59585152D01*
X113552500Y-58841848D01*
X113524543Y-58701296D01*
X113469702Y-58568900D01*
X113469700Y-58568897D01*
X113469698Y-58568893D01*
X113390086Y-58449746D01*
X113390083Y-58449742D01*
X113352522Y-58412181D01*
X113319037Y-58350858D01*
X113324021Y-58281166D01*
X113365893Y-58225233D01*
X113431357Y-58200816D01*
X113440203Y-58200500D01*
X120481988Y-58200500D01*
X120549027Y-58220185D01*
X120594782Y-58272989D01*
X120604726Y-58342147D01*
X120575701Y-58405703D01*
X120534393Y-58436882D01*
X120342422Y-58526399D01*
X120342420Y-58526400D01*
X120148926Y-58661886D01*
X120148920Y-58661891D01*
X119981891Y-58828920D01*
X119981886Y-58828926D01*
X119846400Y-59022420D01*
X119846399Y-59022422D01*
X119746570Y-59236507D01*
X119746567Y-59236513D01*
X119689364Y-59449999D01*
X119689364Y-59450000D01*
X120586988Y-59450000D01*
X120554075Y-59507007D01*
X120520000Y-59634174D01*
X120520000Y-59765826D01*
X120554075Y-59892993D01*
X120586988Y-59950000D01*
X119689364Y-59950000D01*
X119746567Y-60163486D01*
X119746570Y-60163492D01*
X119846399Y-60377578D01*
X119981894Y-60571082D01*
X120148917Y-60738105D01*
X120342421Y-60873600D01*
X120556507Y-60973429D01*
X120556516Y-60973433D01*
X120770000Y-61030634D01*
X120770000Y-60133012D01*
X120827007Y-60165925D01*
X120954174Y-60200000D01*
X121085826Y-60200000D01*
X121212993Y-60165925D01*
X121270000Y-60133012D01*
X121270000Y-61030633D01*
X121483483Y-60973433D01*
X121483492Y-60973429D01*
X121697578Y-60873600D01*
X121891082Y-60738105D01*
X122058105Y-60571082D01*
X122193600Y-60377578D01*
X122293429Y-60163492D01*
X122293433Y-60163483D01*
X122354567Y-59935326D01*
X122354569Y-59935315D01*
X122355800Y-59921249D01*
X122381252Y-59856180D01*
X122437842Y-59815201D01*
X122507604Y-59811322D01*
X122568389Y-59845775D01*
X122597988Y-59896059D01*
X122652538Y-60075884D01*
X122743302Y-60245692D01*
X122743306Y-60245699D01*
X122865458Y-60394541D01*
X123014300Y-60516693D01*
X123014307Y-60516697D01*
X123184112Y-60607460D01*
X123184114Y-60607460D01*
X123184117Y-60607462D01*
X123244496Y-60625778D01*
X123302934Y-60664075D01*
X123331390Y-60727887D01*
X123332500Y-60744438D01*
X123332500Y-61937873D01*
X123332428Y-61942107D01*
X123313685Y-62490750D01*
X123313107Y-62499197D01*
X123257186Y-63043162D01*
X123256033Y-63051550D01*
X123163119Y-63590436D01*
X123161396Y-63598726D01*
X123031929Y-64130001D01*
X123029645Y-64138154D01*
X122864219Y-64659365D01*
X122861384Y-64667343D01*
X122660771Y-65176065D01*
X122657397Y-65183831D01*
X122422549Y-65677647D01*
X122418654Y-65685165D01*
X122150642Y-66161822D01*
X122146243Y-66169056D01*
X121846328Y-66626315D01*
X121841445Y-66633232D01*
X121511028Y-67068952D01*
X121505684Y-67075520D01*
X121146308Y-67487668D01*
X121140529Y-67493856D01*
X120753856Y-67880529D01*
X120747668Y-67886308D01*
X120335520Y-68245684D01*
X120328952Y-68251028D01*
X119893232Y-68581445D01*
X119886315Y-68586328D01*
X119429056Y-68886243D01*
X119421822Y-68890642D01*
X118945165Y-69158654D01*
X118937647Y-69162549D01*
X118443831Y-69397397D01*
X118436065Y-69400771D01*
X117927343Y-69601384D01*
X117919365Y-69604219D01*
X117398154Y-69769645D01*
X117390001Y-69771929D01*
X116858726Y-69901396D01*
X116850436Y-69903119D01*
X116311550Y-69996033D01*
X116303162Y-69997186D01*
X115759197Y-70053107D01*
X115750749Y-70053685D01*
X115617110Y-70058250D01*
X115549438Y-70040865D01*
X115519165Y-70015526D01*
X115482832Y-69973595D01*
X115379416Y-69907134D01*
X115261465Y-69872500D01*
X115138535Y-69872500D01*
X115020584Y-69907134D01*
X115020582Y-69907134D01*
X115020582Y-69907135D01*
X114917169Y-69973594D01*
X114836667Y-70066497D01*
X114836665Y-70066500D01*
X114785599Y-70178317D01*
X114785598Y-70178321D01*
X114768104Y-70300000D01*
X114785598Y-70421678D01*
X114785599Y-70421682D01*
X114829604Y-70518038D01*
X114836666Y-70533501D01*
X114917168Y-70626405D01*
X115020584Y-70692866D01*
X115099235Y-70715960D01*
X115158013Y-70753735D01*
X115187038Y-70817291D01*
X115177094Y-70886449D01*
X115131339Y-70939253D01*
X115067907Y-70958885D01*
X114623316Y-70971821D01*
X114601786Y-70972448D01*
X114598181Y-70972500D01*
X108918853Y-70972500D01*
X108759025Y-71000682D01*
X108606529Y-71056186D01*
X108606519Y-71056190D01*
X108465977Y-71137333D01*
X108465974Y-71137335D01*
X108341652Y-71241652D01*
X108237335Y-71365974D01*
X108237333Y-71365977D01*
X108156190Y-71506519D01*
X108156186Y-71506529D01*
X108100682Y-71659025D01*
X108072500Y-71818853D01*
X108072500Y-74070326D01*
X108052815Y-74137365D01*
X108023184Y-74166999D01*
X108023869Y-74167790D01*
X108017166Y-74173597D01*
X107936667Y-74266497D01*
X107936665Y-74266500D01*
X107885599Y-74378317D01*
X107885598Y-74378321D01*
X107868104Y-74500000D01*
X107885598Y-74621678D01*
X107885600Y-74621685D01*
X107919991Y-74696989D01*
X107929935Y-74766147D01*
X107900910Y-74829703D01*
X107842132Y-74867477D01*
X107807197Y-74872500D01*
X105775162Y-74872500D01*
X105708123Y-74852815D01*
X105681452Y-74829706D01*
X105632832Y-74773595D01*
X105529416Y-74707134D01*
X105459605Y-74686635D01*
X105400828Y-74648861D01*
X105371804Y-74585305D01*
X105381748Y-74516147D01*
X105427503Y-74463343D01*
X105459603Y-74448683D01*
X105479416Y-74442866D01*
X105582832Y-74376405D01*
X105663334Y-74283501D01*
X105699676Y-74203922D01*
X105714400Y-74171682D01*
X105714401Y-74171678D01*
X105719238Y-74138035D01*
X105731896Y-74050000D01*
X105714401Y-73928321D01*
X105714400Y-73928317D01*
X105665701Y-73821682D01*
X105663334Y-73816499D01*
X105582832Y-73723595D01*
X105582826Y-73723591D01*
X105576131Y-73717790D01*
X105577325Y-73716411D01*
X105538699Y-73671824D01*
X105527500Y-73620326D01*
X105527500Y-73254748D01*
X105527500Y-73254747D01*
X105509441Y-73211149D01*
X105492866Y-73171132D01*
X103213819Y-70892085D01*
X103180334Y-70830762D01*
X103177500Y-70804404D01*
X103177500Y-64529673D01*
X103197185Y-64462634D01*
X103226817Y-64433003D01*
X103226131Y-64432211D01*
X103232826Y-64426408D01*
X103232832Y-64426405D01*
X103313334Y-64333501D01*
X103359003Y-64233499D01*
X103367457Y-64214988D01*
X103413211Y-64162184D01*
X103480251Y-64142499D01*
X103547290Y-64162183D01*
X103583353Y-64197608D01*
X103648750Y-64295480D01*
X103648753Y-64295484D01*
X103743115Y-64389846D01*
X103743119Y-64389849D01*
X103854079Y-64463991D01*
X103854081Y-64463991D01*
X103854083Y-64463993D01*
X103977381Y-64515064D01*
X103977384Y-64515064D01*
X103977389Y-64515066D01*
X104108267Y-64541099D01*
X104108270Y-64541100D01*
X104108272Y-64541100D01*
X104241730Y-64541100D01*
X104241731Y-64541099D01*
X104306312Y-64528253D01*
X104372610Y-64515066D01*
X104372612Y-64515065D01*
X104372619Y-64515064D01*
X104495917Y-64463993D01*
X104606881Y-64389849D01*
X104701249Y-64295481D01*
X104775393Y-64184517D01*
X104826464Y-64061219D01*
X104852500Y-63930328D01*
X104852500Y-63135584D01*
X104872185Y-63068545D01*
X104924989Y-63022790D01*
X104994147Y-63012846D01*
X105057703Y-63041871D01*
X105095477Y-63100649D01*
X105096275Y-63103492D01*
X105096916Y-63105886D01*
X105096917Y-63105888D01*
X105169388Y-63231411D01*
X105169390Y-63231413D01*
X105169391Y-63231415D01*
X105271885Y-63333909D01*
X105271886Y-63333910D01*
X105271888Y-63333911D01*
X105397411Y-63406382D01*
X105397412Y-63406382D01*
X105397415Y-63406384D01*
X105537425Y-63443900D01*
X105537428Y-63443900D01*
X105682372Y-63443900D01*
X105682375Y-63443900D01*
X105822385Y-63406384D01*
X105947915Y-63333909D01*
X106050409Y-63231415D01*
X106122884Y-63105885D01*
X106160400Y-62965875D01*
X106160400Y-62820925D01*
X106122884Y-62680915D01*
X106100808Y-62642679D01*
X106050411Y-62555388D01*
X106050406Y-62555382D01*
X105947917Y-62452893D01*
X105947911Y-62452888D01*
X105822388Y-62380417D01*
X105822389Y-62380417D01*
X105810906Y-62377340D01*
X105682375Y-62342900D01*
X105537425Y-62342900D01*
X105408893Y-62377340D01*
X105397411Y-62380417D01*
X105271888Y-62452888D01*
X105271882Y-62452893D01*
X105169393Y-62555382D01*
X105169388Y-62555388D01*
X105096917Y-62680911D01*
X105096916Y-62680915D01*
X105071742Y-62774867D01*
X105069624Y-62782770D01*
X105033258Y-62842430D01*
X104970411Y-62872959D01*
X104901036Y-62864664D01*
X104847158Y-62820178D01*
X104828232Y-62774867D01*
X104826466Y-62765988D01*
X104826463Y-62765979D01*
X104791229Y-62680915D01*
X104775393Y-62642683D01*
X104775391Y-62642681D01*
X104775391Y-62642679D01*
X104701249Y-62531719D01*
X104701246Y-62531715D01*
X104606884Y-62437353D01*
X104606880Y-62437350D01*
X104495920Y-62363208D01*
X104495917Y-62363207D01*
X104372620Y-62312136D01*
X104372610Y-62312133D01*
X104241731Y-62286100D01*
X104241728Y-62286100D01*
X104108272Y-62286100D01*
X104108269Y-62286100D01*
X103977389Y-62312133D01*
X103977379Y-62312136D01*
X103854082Y-62363207D01*
X103854079Y-62363208D01*
X103743119Y-62437350D01*
X103743115Y-62437353D01*
X103648753Y-62531715D01*
X103648750Y-62531719D01*
X103574608Y-62642679D01*
X103574607Y-62642682D01*
X103523536Y-62765979D01*
X103523533Y-62765989D01*
X103497500Y-62896867D01*
X103497500Y-63746581D01*
X103477815Y-63813620D01*
X103425011Y-63859375D01*
X103355853Y-63869319D01*
X103292297Y-63840294D01*
X103279788Y-63827784D01*
X103232834Y-63773597D01*
X103232833Y-63773596D01*
X103232832Y-63773595D01*
X103129416Y-63707134D01*
X103011465Y-63672500D01*
X102888535Y-63672500D01*
X102770584Y-63707134D01*
X102770582Y-63707134D01*
X102770582Y-63707135D01*
X102667169Y-63773594D01*
X102586667Y-63866497D01*
X102586665Y-63866500D01*
X102535599Y-63978317D01*
X102535598Y-63978321D01*
X102518104Y-64100000D01*
X102535598Y-64221678D01*
X102535599Y-64221682D01*
X102586665Y-64333499D01*
X102586667Y-64333502D01*
X102667166Y-64426403D01*
X102673869Y-64432211D01*
X102672671Y-64433592D01*
X102711288Y-64478148D01*
X102722500Y-64529673D01*
X102722500Y-70904747D01*
X102722500Y-70995253D01*
X102747740Y-71056188D01*
X102757136Y-71078870D01*
X105036181Y-73357914D01*
X105069666Y-73419237D01*
X105072500Y-73445595D01*
X105072500Y-73620326D01*
X105052815Y-73687365D01*
X105023184Y-73716999D01*
X105023869Y-73717790D01*
X105017166Y-73723597D01*
X104936667Y-73816497D01*
X104936665Y-73816500D01*
X104912794Y-73868771D01*
X104867039Y-73921575D01*
X104799999Y-73941259D01*
X104732960Y-73921574D01*
X104687206Y-73868771D01*
X104665701Y-73821682D01*
X104663334Y-73816499D01*
X104582832Y-73723595D01*
X104479416Y-73657134D01*
X104361465Y-73622500D01*
X104238535Y-73622500D01*
X104120584Y-73657134D01*
X104120582Y-73657134D01*
X104120582Y-73657135D01*
X104017169Y-73723594D01*
X103936667Y-73816497D01*
X103936665Y-73816500D01*
X103885599Y-73928317D01*
X103885598Y-73928321D01*
X103868104Y-74050000D01*
X103885598Y-74171678D01*
X103885599Y-74171682D01*
X103936665Y-74283499D01*
X103936667Y-74283502D01*
X104017166Y-74376403D01*
X104023869Y-74382211D01*
X104022671Y-74383592D01*
X104061288Y-74428148D01*
X104072500Y-74479673D01*
X104072500Y-74853276D01*
X104072500Y-74943782D01*
X104107135Y-75027397D01*
X104107136Y-75027398D01*
X105040556Y-75960819D01*
X105074041Y-76022142D01*
X105069057Y-76091834D01*
X105027185Y-76147767D01*
X104961721Y-76172184D01*
X104952875Y-76172500D01*
X100095595Y-76172500D01*
X100028556Y-76152815D01*
X100007914Y-76136181D01*
X99513819Y-75642086D01*
X99480334Y-75580763D01*
X99477500Y-75554405D01*
X99477500Y-73868322D01*
X99497185Y-73801283D01*
X99526817Y-73771652D01*
X99526131Y-73770860D01*
X99532826Y-73765057D01*
X99532832Y-73765054D01*
X99613334Y-73672150D01*
X99664401Y-73560328D01*
X99681896Y-73438649D01*
X99664401Y-73316970D01*
X99664400Y-73316966D01*
X99631505Y-73244937D01*
X99613334Y-73205148D01*
X99532832Y-73112244D01*
X99429416Y-73045783D01*
X99311465Y-73011149D01*
X99259947Y-73011149D01*
X99192908Y-72991464D01*
X99147153Y-72938660D01*
X99137209Y-72869502D01*
X99166234Y-72805946D01*
X99172266Y-72799468D01*
X99207915Y-72763819D01*
X99269238Y-72730334D01*
X99295596Y-72727500D01*
X99954405Y-72727500D01*
X100021444Y-72747185D01*
X100042086Y-72763819D01*
X101986181Y-74707914D01*
X102019666Y-74769237D01*
X102022500Y-74795595D01*
X102022500Y-74870326D01*
X102002815Y-74937365D01*
X101973184Y-74966999D01*
X101973869Y-74967790D01*
X101967166Y-74973597D01*
X101886667Y-75066497D01*
X101886665Y-75066500D01*
X101835599Y-75178317D01*
X101835598Y-75178321D01*
X101818104Y-75300000D01*
X101835598Y-75421678D01*
X101835599Y-75421682D01*
X101883925Y-75527500D01*
X101886666Y-75533501D01*
X101967168Y-75626405D01*
X102070584Y-75692866D01*
X102188535Y-75727500D01*
X102311465Y-75727500D01*
X102429416Y-75692866D01*
X102532832Y-75626405D01*
X102613334Y-75533501D01*
X102649676Y-75453922D01*
X102664400Y-75421682D01*
X102664401Y-75421678D01*
X102672220Y-75367297D01*
X102681896Y-75300000D01*
X102664401Y-75178321D01*
X102664400Y-75178317D01*
X102613334Y-75066500D01*
X102613334Y-75066499D01*
X102532832Y-74973595D01*
X102532826Y-74973591D01*
X102526131Y-74967790D01*
X102527325Y-74966411D01*
X102488699Y-74921824D01*
X102477500Y-74870326D01*
X102477500Y-74604748D01*
X102477500Y-74604747D01*
X102442865Y-74521132D01*
X102378868Y-74457135D01*
X101315966Y-73394233D01*
X100228870Y-72307136D01*
X100228865Y-72307134D01*
X100145253Y-72272500D01*
X99195253Y-72272500D01*
X99104747Y-72272500D01*
X99104745Y-72272500D01*
X99104743Y-72272501D01*
X99021134Y-72307131D01*
X99021132Y-72307133D01*
X98600767Y-72727500D01*
X98521132Y-72807135D01*
X98457135Y-72871132D01*
X98446038Y-72897922D01*
X98422500Y-72954746D01*
X98422500Y-79945253D01*
X98457136Y-80028870D01*
X99038061Y-80609794D01*
X99071546Y-80671117D01*
X99073118Y-80715120D01*
X99068104Y-80749997D01*
X99068104Y-80749999D01*
X99085598Y-80871678D01*
X99085599Y-80871682D01*
X99130428Y-80969842D01*
X99136666Y-80983501D01*
X99217168Y-81076405D01*
X99320584Y-81142866D01*
X99438535Y-81177500D01*
X99561465Y-81177500D01*
X99679416Y-81142866D01*
X99782832Y-81076405D01*
X99863334Y-80983501D01*
X99914401Y-80871679D01*
X99931896Y-80750000D01*
X99914401Y-80628321D01*
X99914400Y-80628317D01*
X99863334Y-80516500D01*
X99863334Y-80516499D01*
X99782832Y-80423595D01*
X99679416Y-80357134D01*
X99561465Y-80322500D01*
X99445596Y-80322500D01*
X99378557Y-80302815D01*
X99357915Y-80286181D01*
X98913819Y-79842085D01*
X98880334Y-79780762D01*
X98877500Y-79754404D01*
X98877500Y-75948595D01*
X98897185Y-75881556D01*
X98949989Y-75835801D01*
X99019147Y-75825857D01*
X99082703Y-75854882D01*
X99089181Y-75860914D01*
X99757135Y-76528868D01*
X99821132Y-76592865D01*
X99904747Y-76627500D01*
X103427794Y-76627500D01*
X103494833Y-76647185D01*
X103540588Y-76699989D01*
X103550532Y-76769147D01*
X103521507Y-76832703D01*
X103494833Y-76855816D01*
X103467169Y-76873594D01*
X103386667Y-76966497D01*
X103386665Y-76966500D01*
X103335599Y-77078317D01*
X103335598Y-77078321D01*
X103318104Y-77200000D01*
X103335598Y-77321678D01*
X103335599Y-77321682D01*
X103374625Y-77407135D01*
X103386666Y-77433501D01*
X103438105Y-77492864D01*
X103467169Y-77526406D01*
X103467170Y-77526407D01*
X103515538Y-77557490D01*
X103561294Y-77610293D01*
X103572500Y-77661806D01*
X103572500Y-80754504D01*
X103552815Y-80821543D01*
X103536181Y-80842185D01*
X102942085Y-81436281D01*
X102880762Y-81469766D01*
X102854404Y-81472600D01*
X102738535Y-81472600D01*
X102620584Y-81507234D01*
X102620582Y-81507234D01*
X102620582Y-81507235D01*
X102517169Y-81573694D01*
X102436667Y-81666597D01*
X102436665Y-81666600D01*
X102385599Y-81778417D01*
X102385598Y-81778421D01*
X102368104Y-81900100D01*
X102385598Y-82021778D01*
X102385599Y-82021782D01*
X102409131Y-82073308D01*
X102436666Y-82133601D01*
X102517168Y-82226505D01*
X102620584Y-82292966D01*
X102738535Y-82327600D01*
X102861465Y-82327600D01*
X102979416Y-82292966D01*
X103082832Y-82226505D01*
X103156332Y-82141681D01*
X103215108Y-82103909D01*
X103284978Y-82103909D01*
X103343755Y-82141682D01*
X103417168Y-82226405D01*
X103520584Y-82292866D01*
X103638535Y-82327500D01*
X103761465Y-82327500D01*
X103879416Y-82292866D01*
X103982832Y-82226405D01*
X104063334Y-82133501D01*
X104114354Y-82021782D01*
X104114400Y-82021682D01*
X104114401Y-82021678D01*
X104131896Y-81900000D01*
X104126881Y-81865122D01*
X104136824Y-81795964D01*
X104161938Y-81759794D01*
X104267608Y-81654124D01*
X104742866Y-81178868D01*
X104777500Y-81095252D01*
X104777500Y-81004747D01*
X104777500Y-78629673D01*
X104797185Y-78562634D01*
X104826817Y-78533003D01*
X104826131Y-78532211D01*
X104832826Y-78526408D01*
X104832832Y-78526405D01*
X104913334Y-78433501D01*
X104964401Y-78321679D01*
X104981896Y-78200000D01*
X104964401Y-78078321D01*
X104964400Y-78078317D01*
X104913334Y-77966500D01*
X104913334Y-77966499D01*
X104832832Y-77873595D01*
X104729416Y-77807134D01*
X104611465Y-77772500D01*
X104488535Y-77772500D01*
X104370584Y-77807134D01*
X104370582Y-77807134D01*
X104370582Y-77807135D01*
X104267168Y-77873595D01*
X104267164Y-77873597D01*
X104245211Y-77898933D01*
X104186433Y-77936707D01*
X104116563Y-77936705D01*
X104057786Y-77898930D01*
X104028762Y-77835374D01*
X104027500Y-77817729D01*
X104027500Y-77578807D01*
X104047185Y-77511768D01*
X104057780Y-77497612D01*
X104113334Y-77433501D01*
X104164401Y-77321679D01*
X104181896Y-77200000D01*
X104164401Y-77078321D01*
X104164400Y-77078317D01*
X104113334Y-76966500D01*
X104113334Y-76966499D01*
X104032832Y-76873595D01*
X104005166Y-76855815D01*
X103959412Y-76803012D01*
X103949468Y-76733853D01*
X103978493Y-76670297D01*
X104037271Y-76632523D01*
X104072206Y-76627500D01*
X104972238Y-76627500D01*
X105039277Y-76647185D01*
X105085032Y-76699989D01*
X105094976Y-76769147D01*
X105065951Y-76832701D01*
X105065950Y-76832703D01*
X105036670Y-76866493D01*
X105036665Y-76866500D01*
X104985599Y-76978317D01*
X104985598Y-76978321D01*
X104968104Y-77100000D01*
X104985598Y-77221678D01*
X104985599Y-77221682D01*
X105031267Y-77321679D01*
X105036666Y-77333501D01*
X105117168Y-77426405D01*
X105220584Y-77492866D01*
X105338535Y-77527500D01*
X105454405Y-77527500D01*
X105521444Y-77547185D01*
X105542086Y-77563819D01*
X107136181Y-79157914D01*
X107169666Y-79219237D01*
X107172500Y-79245595D01*
X107172500Y-79670326D01*
X107152815Y-79737365D01*
X107123184Y-79766999D01*
X107123869Y-79767790D01*
X107117166Y-79773597D01*
X107036667Y-79866497D01*
X107036665Y-79866500D01*
X106985599Y-79978317D01*
X106985598Y-79978321D01*
X106968104Y-80100000D01*
X106985598Y-80221678D01*
X106985600Y-80221682D01*
X106987716Y-80226316D01*
X106997659Y-80295475D01*
X106968633Y-80359030D01*
X106909854Y-80396804D01*
X106839984Y-80396803D01*
X106787240Y-80365507D01*
X106055652Y-79633919D01*
X106022167Y-79572596D01*
X106020595Y-79528597D01*
X106031896Y-79450000D01*
X106014401Y-79328321D01*
X106014400Y-79328317D01*
X105981505Y-79256288D01*
X105963334Y-79216499D01*
X105882832Y-79123595D01*
X105779416Y-79057134D01*
X105661465Y-79022500D01*
X105538535Y-79022500D01*
X105420584Y-79057134D01*
X105420582Y-79057134D01*
X105420582Y-79057135D01*
X105317169Y-79123594D01*
X105236667Y-79216497D01*
X105236665Y-79216500D01*
X105185599Y-79328317D01*
X105185598Y-79328321D01*
X105168104Y-79450000D01*
X105185598Y-79571678D01*
X105185599Y-79571682D01*
X105230649Y-79670326D01*
X105236666Y-79683501D01*
X105315174Y-79774104D01*
X105344199Y-79837658D01*
X105334256Y-79906817D01*
X105288504Y-79959619D01*
X105267906Y-79972857D01*
X105267904Y-79972858D01*
X105187402Y-80065762D01*
X105187400Y-80065765D01*
X105136334Y-80177582D01*
X105136333Y-80177586D01*
X105118839Y-80299265D01*
X105136333Y-80420943D01*
X105136334Y-80420947D01*
X105182601Y-80522256D01*
X105187401Y-80532766D01*
X105267903Y-80625670D01*
X105337007Y-80670080D01*
X105382762Y-80722884D01*
X105392706Y-80792043D01*
X105363681Y-80855598D01*
X105337008Y-80878711D01*
X105267169Y-80923593D01*
X105186667Y-81016497D01*
X105186665Y-81016500D01*
X105135599Y-81128317D01*
X105135598Y-81128321D01*
X105118104Y-81250000D01*
X105135598Y-81371678D01*
X105135599Y-81371682D01*
X105180393Y-81469766D01*
X105186666Y-81483501D01*
X105267168Y-81576405D01*
X105370584Y-81642866D01*
X105488535Y-81677500D01*
X105611465Y-81677500D01*
X105691071Y-81654124D01*
X105760939Y-81654124D01*
X105813687Y-81685421D01*
X106888568Y-82760302D01*
X106888574Y-82760307D01*
X109371132Y-85242866D01*
X109371134Y-85242868D01*
X109435801Y-85269652D01*
X109454747Y-85277500D01*
X109524838Y-85277500D01*
X109591877Y-85297185D01*
X109618547Y-85320293D01*
X109667168Y-85376405D01*
X109770584Y-85442866D01*
X109888535Y-85477500D01*
X110011465Y-85477500D01*
X110129416Y-85442866D01*
X110232832Y-85376405D01*
X110313334Y-85283501D01*
X110364401Y-85171679D01*
X110381896Y-85050000D01*
X110364401Y-84928321D01*
X110364400Y-84928317D01*
X110313334Y-84816500D01*
X110313334Y-84816499D01*
X110232832Y-84723595D01*
X110129416Y-84657134D01*
X110011465Y-84622500D01*
X109888535Y-84622500D01*
X109770584Y-84657134D01*
X109770582Y-84657134D01*
X109770582Y-84657135D01*
X109667163Y-84723597D01*
X109662346Y-84727772D01*
X109598788Y-84756793D01*
X109529630Y-84746845D01*
X109493471Y-84721737D01*
X108560915Y-83789181D01*
X108527430Y-83727858D01*
X108532414Y-83658166D01*
X108574286Y-83602233D01*
X108639750Y-83577816D01*
X108648596Y-83577500D01*
X113195252Y-83577500D01*
X113195253Y-83577500D01*
X113278868Y-83542865D01*
X113921223Y-82900510D01*
X113982546Y-82867025D01*
X114052237Y-82872009D01*
X114108171Y-82913880D01*
X114132588Y-82979345D01*
X114131642Y-83005837D01*
X114118104Y-83099999D01*
X114135598Y-83221678D01*
X114135599Y-83221682D01*
X114186665Y-83333499D01*
X114186667Y-83333502D01*
X114267166Y-83426403D01*
X114273869Y-83432211D01*
X114272671Y-83433592D01*
X114311288Y-83478148D01*
X114322500Y-83529673D01*
X114322500Y-84370326D01*
X114302815Y-84437365D01*
X114273184Y-84466999D01*
X114273869Y-84467790D01*
X114267166Y-84473597D01*
X114186667Y-84566497D01*
X114186665Y-84566500D01*
X114135599Y-84678317D01*
X114135598Y-84678321D01*
X114118104Y-84800000D01*
X114135598Y-84921678D01*
X114135599Y-84921682D01*
X114186665Y-85033499D01*
X114186666Y-85033501D01*
X114267168Y-85126405D01*
X114370584Y-85192866D01*
X114488535Y-85227500D01*
X114611465Y-85227500D01*
X114729416Y-85192866D01*
X114832832Y-85126405D01*
X114913334Y-85033501D01*
X114964401Y-84921679D01*
X114981896Y-84800000D01*
X114964401Y-84678321D01*
X114964400Y-84678317D01*
X114913334Y-84566500D01*
X114913334Y-84566499D01*
X114832832Y-84473595D01*
X114832826Y-84473591D01*
X114826131Y-84467790D01*
X114827325Y-84466411D01*
X114788699Y-84421824D01*
X114777500Y-84370326D01*
X114777500Y-83529673D01*
X114797185Y-83462634D01*
X114826817Y-83433003D01*
X114826131Y-83432211D01*
X114832826Y-83426408D01*
X114832832Y-83426405D01*
X114913334Y-83333501D01*
X114964401Y-83221679D01*
X114981896Y-83100000D01*
X114964401Y-82978321D01*
X114964400Y-82978317D01*
X114928866Y-82900510D01*
X114913334Y-82866499D01*
X114832832Y-82773595D01*
X114729416Y-82707134D01*
X114611465Y-82672500D01*
X114488535Y-82672500D01*
X114488533Y-82672500D01*
X114474337Y-82676668D01*
X114404468Y-82676666D01*
X114345690Y-82638891D01*
X114316667Y-82575335D01*
X114326612Y-82506176D01*
X114351724Y-82470009D01*
X134307914Y-62513819D01*
X134369237Y-62480334D01*
X134395595Y-62477500D01*
X138495252Y-62477500D01*
X138495253Y-62477500D01*
X138578868Y-62442865D01*
X138578870Y-62442863D01*
X138578871Y-62442863D01*
X140272863Y-60748871D01*
X140279648Y-60738716D01*
X140281875Y-60740204D01*
X140314555Y-60699647D01*
X140380848Y-60677579D01*
X140385280Y-60677500D01*
X140942559Y-60677500D01*
X140949957Y-60676028D01*
X140979748Y-60670102D01*
X141021922Y-60641922D01*
X141050102Y-60599748D01*
X141057500Y-60562558D01*
X141057500Y-58837442D01*
X141050102Y-58800252D01*
X141044948Y-58792538D01*
X141021922Y-58758077D01*
X140979749Y-58729898D01*
X140942559Y-58722500D01*
X140942558Y-58722500D01*
X139217442Y-58722500D01*
X139217441Y-58722500D01*
X139180250Y-58729898D01*
X139138077Y-58758077D01*
X139109898Y-58800250D01*
X139102500Y-58837441D01*
X139102500Y-60562558D01*
X139109898Y-60599749D01*
X139138077Y-60641922D01*
X139180250Y-60670101D01*
X139180252Y-60670102D01*
X139208205Y-60675662D01*
X139217441Y-60677500D01*
X139217442Y-60677500D01*
X139401405Y-60677500D01*
X139468444Y-60697185D01*
X139514199Y-60749989D01*
X139524143Y-60819147D01*
X139495118Y-60882703D01*
X139489086Y-60889181D01*
X138392086Y-61986181D01*
X138330763Y-62019666D01*
X138304405Y-62022500D01*
X135838596Y-62022500D01*
X135771557Y-62002815D01*
X135725802Y-61950011D01*
X135715858Y-61880853D01*
X135744883Y-61817297D01*
X135750915Y-61810819D01*
X136754902Y-60806830D01*
X136962338Y-60599393D01*
X137023659Y-60565910D01*
X137093350Y-60570894D01*
X137108461Y-60577713D01*
X137164117Y-60607462D01*
X137348376Y-60663357D01*
X137540000Y-60682230D01*
X137731624Y-60663357D01*
X137915883Y-60607462D01*
X138085698Y-60516694D01*
X138234541Y-60394541D01*
X138356694Y-60245698D01*
X138447462Y-60075883D01*
X138503357Y-59891624D01*
X138522230Y-59700000D01*
X138503357Y-59508376D01*
X138447462Y-59324117D01*
X138444227Y-59318064D01*
X138356697Y-59154307D01*
X138356693Y-59154300D01*
X138234541Y-59005458D01*
X138085699Y-58883306D01*
X138085692Y-58883302D01*
X137915884Y-58792538D01*
X137731626Y-58736643D01*
X137540000Y-58717770D01*
X137348373Y-58736643D01*
X137164115Y-58792538D01*
X136994307Y-58883302D01*
X136994300Y-58883306D01*
X136845458Y-59005458D01*
X136723306Y-59154300D01*
X136723302Y-59154307D01*
X136632538Y-59324115D01*
X136577988Y-59503940D01*
X136539691Y-59562378D01*
X136475878Y-59590835D01*
X136406811Y-59580274D01*
X136354418Y-59534049D01*
X136335800Y-59478751D01*
X136334569Y-59464684D01*
X136334567Y-59464673D01*
X136273433Y-59236516D01*
X136273429Y-59236507D01*
X136173600Y-59022422D01*
X136173599Y-59022420D01*
X136038113Y-58828926D01*
X136038108Y-58828920D01*
X135871082Y-58661894D01*
X135677578Y-58526399D01*
X135485607Y-58436882D01*
X135433168Y-58390710D01*
X135414016Y-58323516D01*
X135434232Y-58256635D01*
X135487397Y-58211300D01*
X135538012Y-58200500D01*
X145575258Y-58200500D01*
X145642297Y-58220185D01*
X145688052Y-58272989D01*
X145697996Y-58342147D01*
X145668971Y-58405703D01*
X145634685Y-58433332D01*
X145482359Y-58516508D01*
X145482351Y-58516513D01*
X145267365Y-58677449D01*
X145267347Y-58677465D01*
X145077465Y-58867347D01*
X145077449Y-58867365D01*
X144916513Y-59082351D01*
X144916508Y-59082359D01*
X144787805Y-59318060D01*
X144787803Y-59318064D01*
X144722143Y-59494107D01*
X144696680Y-59562378D01*
X144693948Y-59569702D01*
X144636863Y-59832115D01*
X144617704Y-60099998D01*
X144617704Y-60100001D01*
X144636863Y-60367884D01*
X144688981Y-60607462D01*
X144693950Y-60630304D01*
X144719814Y-60699647D01*
X144787803Y-60881935D01*
X144787805Y-60881939D01*
X144916508Y-61117640D01*
X144916513Y-61117648D01*
X145077449Y-61332634D01*
X145077465Y-61332652D01*
X145267347Y-61522534D01*
X145267365Y-61522550D01*
X145482351Y-61683486D01*
X145482359Y-61683491D01*
X145718060Y-61812194D01*
X145718064Y-61812196D01*
X145718066Y-61812197D01*
X145969696Y-61906050D01*
X146100908Y-61934593D01*
X146232115Y-61963136D01*
X146232117Y-61963136D01*
X146232121Y-61963137D01*
X146470174Y-61980162D01*
X146499999Y-61982296D01*
X146500000Y-61982296D01*
X146500001Y-61982296D01*
X146526837Y-61980376D01*
X146767879Y-61963137D01*
X147030304Y-61906050D01*
X147281934Y-61812197D01*
X147517646Y-61683488D01*
X147732642Y-61522544D01*
X147922544Y-61332642D01*
X148083488Y-61117646D01*
X148212197Y-60881934D01*
X148295105Y-60659648D01*
X148336975Y-60603716D01*
X148402440Y-60579299D01*
X148470713Y-60594151D01*
X148520118Y-60643556D01*
X148535286Y-60702983D01*
X148535286Y-74776000D01*
X148515601Y-74843039D01*
X148462797Y-74888794D01*
X148411286Y-74900000D01*
X131300000Y-74900000D01*
X131300000Y-105075500D01*
X131280315Y-105142539D01*
X131227511Y-105188294D01*
X131176000Y-105199500D01*
X130032021Y-105199500D01*
X129964982Y-105179815D01*
X129919227Y-105127011D01*
X129909283Y-105057853D01*
X129910217Y-105052265D01*
X129910813Y-105049142D01*
X129935392Y-104920294D01*
X129936288Y-104906050D01*
X129955543Y-104600005D01*
X129955543Y-104599994D01*
X129935393Y-104279716D01*
X129935392Y-104279709D01*
X129935392Y-104279706D01*
X129875256Y-103964462D01*
X129776084Y-103659242D01*
X129768039Y-103642145D01*
X129639441Y-103368861D01*
X129639437Y-103368855D01*
X129467479Y-103097891D01*
X129467477Y-103097888D01*
X129262912Y-102850611D01*
X129028965Y-102630921D01*
X129028955Y-102630913D01*
X128769339Y-102442291D01*
X128769321Y-102442280D01*
X128488096Y-102287675D01*
X128488093Y-102287674D01*
X128189703Y-102169533D01*
X128189706Y-102169533D01*
X127878864Y-102089723D01*
X127878851Y-102089721D01*
X127560475Y-102049500D01*
X127560464Y-102049500D01*
X127239536Y-102049500D01*
X127239524Y-102049500D01*
X126921148Y-102089721D01*
X126921135Y-102089723D01*
X126610294Y-102169533D01*
X126311906Y-102287674D01*
X126311903Y-102287675D01*
X126030678Y-102442280D01*
X126030660Y-102442291D01*
X125771044Y-102630913D01*
X125771034Y-102630921D01*
X125537087Y-102850611D01*
X125332522Y-103097888D01*
X125332520Y-103097891D01*
X125160562Y-103368855D01*
X125160558Y-103368861D01*
X125023918Y-103659235D01*
X125023916Y-103659240D01*
X124924745Y-103964457D01*
X124864607Y-104279709D01*
X124864606Y-104279716D01*
X124844457Y-104599994D01*
X124844457Y-104600005D01*
X124864606Y-104920283D01*
X124864607Y-104920290D01*
X124889783Y-105052265D01*
X124883009Y-105121805D01*
X124839714Y-105176644D01*
X124773643Y-105199371D01*
X124767979Y-105199500D01*
X82334707Y-105199500D01*
X82267668Y-105179815D01*
X82221913Y-105127011D01*
X82211969Y-105057853D01*
X82240994Y-104994297D01*
X82299772Y-104956523D01*
X82308349Y-104954334D01*
X82464825Y-104920294D01*
X82530304Y-104906050D01*
X82781934Y-104812197D01*
X83017646Y-104683488D01*
X83232642Y-104522544D01*
X83422544Y-104332642D01*
X83583488Y-104117646D01*
X83667347Y-103964071D01*
X87123599Y-103964071D01*
X87148597Y-104089738D01*
X87148599Y-104089744D01*
X87197633Y-104208124D01*
X87197638Y-104208133D01*
X87268823Y-104314668D01*
X87268826Y-104314672D01*
X87359427Y-104405273D01*
X87359431Y-104405276D01*
X87465966Y-104476461D01*
X87465972Y-104476464D01*
X87465973Y-104476465D01*
X87584356Y-104525501D01*
X87584360Y-104525501D01*
X87584361Y-104525502D01*
X87710028Y-104550500D01*
X87710031Y-104550500D01*
X87838171Y-104550500D01*
X87922715Y-104533682D01*
X87963844Y-104525501D01*
X88082227Y-104476465D01*
X88188769Y-104405276D01*
X88279376Y-104314669D01*
X88350565Y-104208127D01*
X88365363Y-104172402D01*
X88409201Y-104118000D01*
X88475495Y-104095934D01*
X88543194Y-104113212D01*
X88587309Y-104157853D01*
X88633591Y-104238015D01*
X88736085Y-104340509D01*
X88736086Y-104340510D01*
X88736088Y-104340511D01*
X88861611Y-104412982D01*
X88861612Y-104412982D01*
X88861615Y-104412984D01*
X89001625Y-104450500D01*
X89001628Y-104450500D01*
X89146572Y-104450500D01*
X89146575Y-104450500D01*
X89286585Y-104412984D01*
X89412115Y-104340509D01*
X89514609Y-104238015D01*
X89587084Y-104112485D01*
X89624600Y-103972475D01*
X89624600Y-103827525D01*
X90223600Y-103827525D01*
X90223600Y-103972475D01*
X90259545Y-104106621D01*
X90261117Y-104112488D01*
X90333588Y-104238011D01*
X90333590Y-104238013D01*
X90333591Y-104238015D01*
X90436085Y-104340509D01*
X90436086Y-104340510D01*
X90436088Y-104340511D01*
X90561611Y-104412982D01*
X90561612Y-104412982D01*
X90561615Y-104412984D01*
X90701625Y-104450500D01*
X90701628Y-104450500D01*
X90846572Y-104450500D01*
X90846575Y-104450500D01*
X90986585Y-104412984D01*
X91112115Y-104340509D01*
X91214609Y-104238015D01*
X91260890Y-104157853D01*
X91311456Y-104109640D01*
X91380063Y-104096416D01*
X91444927Y-104122384D01*
X91482837Y-104172402D01*
X91497633Y-104208123D01*
X91497638Y-104208133D01*
X91568823Y-104314668D01*
X91568826Y-104314672D01*
X91659427Y-104405273D01*
X91659431Y-104405276D01*
X91765966Y-104476461D01*
X91765972Y-104476464D01*
X91765973Y-104476465D01*
X91884356Y-104525501D01*
X91884360Y-104525501D01*
X91884361Y-104525502D01*
X92010028Y-104550500D01*
X92010031Y-104550500D01*
X92138171Y-104550500D01*
X92222715Y-104533682D01*
X92263844Y-104525501D01*
X92382227Y-104476465D01*
X92488769Y-104405276D01*
X92579376Y-104314669D01*
X92650565Y-104208127D01*
X92699601Y-104089744D01*
X92722928Y-103972475D01*
X92724600Y-103964071D01*
X102123599Y-103964071D01*
X102148597Y-104089738D01*
X102148599Y-104089744D01*
X102197633Y-104208124D01*
X102197638Y-104208133D01*
X102268823Y-104314668D01*
X102268826Y-104314672D01*
X102359427Y-104405273D01*
X102359431Y-104405276D01*
X102465966Y-104476461D01*
X102465972Y-104476464D01*
X102465973Y-104476465D01*
X102584356Y-104525501D01*
X102584360Y-104525501D01*
X102584361Y-104525502D01*
X102710028Y-104550500D01*
X102710031Y-104550500D01*
X102838171Y-104550500D01*
X102922715Y-104533682D01*
X102963844Y-104525501D01*
X103082227Y-104476465D01*
X103188769Y-104405276D01*
X103279376Y-104314669D01*
X103350565Y-104208127D01*
X103365363Y-104172402D01*
X103409201Y-104118000D01*
X103475495Y-104095934D01*
X103543194Y-104113212D01*
X103587309Y-104157853D01*
X103633591Y-104238015D01*
X103736085Y-104340509D01*
X103736086Y-104340510D01*
X103736088Y-104340511D01*
X103861611Y-104412982D01*
X103861612Y-104412982D01*
X103861615Y-104412984D01*
X104001625Y-104450500D01*
X104001628Y-104450500D01*
X104146572Y-104450500D01*
X104146575Y-104450500D01*
X104286585Y-104412984D01*
X104412115Y-104340509D01*
X104514609Y-104238015D01*
X104587084Y-104112485D01*
X104624600Y-103972475D01*
X104624600Y-103827525D01*
X105223600Y-103827525D01*
X105223600Y-103972475D01*
X105259545Y-104106621D01*
X105261117Y-104112488D01*
X105333588Y-104238011D01*
X105333590Y-104238013D01*
X105333591Y-104238015D01*
X105436085Y-104340509D01*
X105436086Y-104340510D01*
X105436088Y-104340511D01*
X105561611Y-104412982D01*
X105561612Y-104412982D01*
X105561615Y-104412984D01*
X105701625Y-104450500D01*
X105701628Y-104450500D01*
X105846572Y-104450500D01*
X105846575Y-104450500D01*
X105986585Y-104412984D01*
X106112115Y-104340509D01*
X106214609Y-104238015D01*
X106260890Y-104157853D01*
X106311456Y-104109640D01*
X106380063Y-104096416D01*
X106444927Y-104122384D01*
X106482837Y-104172402D01*
X106497633Y-104208123D01*
X106497638Y-104208133D01*
X106568823Y-104314668D01*
X106568826Y-104314672D01*
X106659427Y-104405273D01*
X106659431Y-104405276D01*
X106765966Y-104476461D01*
X106765972Y-104476464D01*
X106765973Y-104476465D01*
X106884356Y-104525501D01*
X106884360Y-104525501D01*
X106884361Y-104525502D01*
X107010028Y-104550500D01*
X107010031Y-104550500D01*
X107138171Y-104550500D01*
X107222715Y-104533682D01*
X107263844Y-104525501D01*
X107382227Y-104476465D01*
X107488769Y-104405276D01*
X107579376Y-104314669D01*
X107650565Y-104208127D01*
X107699601Y-104089744D01*
X107722928Y-103972475D01*
X107724600Y-103964071D01*
X117123599Y-103964071D01*
X117148597Y-104089738D01*
X117148599Y-104089744D01*
X117197633Y-104208124D01*
X117197638Y-104208133D01*
X117268823Y-104314668D01*
X117268826Y-104314672D01*
X117359427Y-104405273D01*
X117359431Y-104405276D01*
X117465966Y-104476461D01*
X117465972Y-104476464D01*
X117465973Y-104476465D01*
X117584356Y-104525501D01*
X117584360Y-104525501D01*
X117584361Y-104525502D01*
X117710028Y-104550500D01*
X117710031Y-104550500D01*
X117838171Y-104550500D01*
X117922715Y-104533682D01*
X117963844Y-104525501D01*
X118082227Y-104476465D01*
X118188769Y-104405276D01*
X118279376Y-104314669D01*
X118350565Y-104208127D01*
X118365363Y-104172402D01*
X118409201Y-104118000D01*
X118475495Y-104095934D01*
X118543194Y-104113212D01*
X118587309Y-104157853D01*
X118633591Y-104238015D01*
X118736085Y-104340509D01*
X118736086Y-104340510D01*
X118736088Y-104340511D01*
X118861611Y-104412982D01*
X118861612Y-104412982D01*
X118861615Y-104412984D01*
X119001625Y-104450500D01*
X119001628Y-104450500D01*
X119146572Y-104450500D01*
X119146575Y-104450500D01*
X119286585Y-104412984D01*
X119412115Y-104340509D01*
X119514609Y-104238015D01*
X119587084Y-104112485D01*
X119624600Y-103972475D01*
X119624600Y-103827525D01*
X120223600Y-103827525D01*
X120223600Y-103972475D01*
X120259545Y-104106621D01*
X120261117Y-104112488D01*
X120333588Y-104238011D01*
X120333590Y-104238013D01*
X120333591Y-104238015D01*
X120436085Y-104340509D01*
X120436086Y-104340510D01*
X120436088Y-104340511D01*
X120561611Y-104412982D01*
X120561612Y-104412982D01*
X120561615Y-104412984D01*
X120701625Y-104450500D01*
X120701628Y-104450500D01*
X120846572Y-104450500D01*
X120846575Y-104450500D01*
X120986585Y-104412984D01*
X121112115Y-104340509D01*
X121214609Y-104238015D01*
X121260890Y-104157853D01*
X121311456Y-104109640D01*
X121380063Y-104096416D01*
X121444927Y-104122384D01*
X121482837Y-104172402D01*
X121497633Y-104208123D01*
X121497638Y-104208133D01*
X121568823Y-104314668D01*
X121568826Y-104314672D01*
X121659427Y-104405273D01*
X121659431Y-104405276D01*
X121765966Y-104476461D01*
X121765972Y-104476464D01*
X121765973Y-104476465D01*
X121884356Y-104525501D01*
X121884360Y-104525501D01*
X121884361Y-104525502D01*
X122010028Y-104550500D01*
X122010031Y-104550500D01*
X122138171Y-104550500D01*
X122222715Y-104533682D01*
X122263844Y-104525501D01*
X122382227Y-104476465D01*
X122488769Y-104405276D01*
X122579376Y-104314669D01*
X122650565Y-104208127D01*
X122699601Y-104089744D01*
X122722928Y-103972475D01*
X122724600Y-103964071D01*
X122724600Y-103835928D01*
X122699602Y-103710261D01*
X122699601Y-103710260D01*
X122699601Y-103710256D01*
X122650565Y-103591873D01*
X122650564Y-103591872D01*
X122650561Y-103591866D01*
X122579376Y-103485331D01*
X122579373Y-103485327D01*
X122488772Y-103394726D01*
X122488768Y-103394723D01*
X122382233Y-103323538D01*
X122382224Y-103323533D01*
X122263844Y-103274499D01*
X122263838Y-103274497D01*
X122138171Y-103249500D01*
X122138169Y-103249500D01*
X122010031Y-103249500D01*
X122010029Y-103249500D01*
X121884361Y-103274497D01*
X121884355Y-103274499D01*
X121765975Y-103323533D01*
X121765966Y-103323538D01*
X121659431Y-103394723D01*
X121659427Y-103394726D01*
X121568826Y-103485327D01*
X121568823Y-103485331D01*
X121497638Y-103591866D01*
X121497635Y-103591873D01*
X121482837Y-103627598D01*
X121438995Y-103682001D01*
X121372701Y-103704065D01*
X121305002Y-103686785D01*
X121260889Y-103642144D01*
X121231866Y-103591875D01*
X121214609Y-103561985D01*
X121112115Y-103459491D01*
X121112113Y-103459490D01*
X121112111Y-103459488D01*
X120986588Y-103387017D01*
X120986589Y-103387017D01*
X120975106Y-103383940D01*
X120846575Y-103349500D01*
X120701625Y-103349500D01*
X120573093Y-103383940D01*
X120561611Y-103387017D01*
X120436088Y-103459488D01*
X120436082Y-103459493D01*
X120333593Y-103561982D01*
X120333588Y-103561988D01*
X120261117Y-103687511D01*
X120261116Y-103687515D01*
X120223600Y-103827525D01*
X119624600Y-103827525D01*
X119587084Y-103687515D01*
X119583900Y-103682001D01*
X119514611Y-103561988D01*
X119514606Y-103561982D01*
X119412117Y-103459493D01*
X119412111Y-103459488D01*
X119286588Y-103387017D01*
X119286589Y-103387017D01*
X119275106Y-103383940D01*
X119146575Y-103349500D01*
X119001625Y-103349500D01*
X118873093Y-103383940D01*
X118861611Y-103387017D01*
X118736088Y-103459488D01*
X118736082Y-103459493D01*
X118633593Y-103561982D01*
X118633591Y-103561985D01*
X118587310Y-103642145D01*
X118536742Y-103690360D01*
X118468135Y-103703582D01*
X118403270Y-103677614D01*
X118365362Y-103627596D01*
X118350565Y-103591873D01*
X118350561Y-103591866D01*
X118279376Y-103485331D01*
X118279373Y-103485327D01*
X118188772Y-103394726D01*
X118188768Y-103394723D01*
X118082233Y-103323538D01*
X118082224Y-103323533D01*
X117963844Y-103274499D01*
X117963838Y-103274497D01*
X117838171Y-103249500D01*
X117838169Y-103249500D01*
X117710031Y-103249500D01*
X117710029Y-103249500D01*
X117584361Y-103274497D01*
X117584355Y-103274499D01*
X117465975Y-103323533D01*
X117465966Y-103323538D01*
X117359431Y-103394723D01*
X117359427Y-103394726D01*
X117268826Y-103485327D01*
X117268823Y-103485331D01*
X117197638Y-103591866D01*
X117197633Y-103591875D01*
X117148599Y-103710255D01*
X117148597Y-103710261D01*
X117123600Y-103835928D01*
X117123600Y-103835931D01*
X117123600Y-103964069D01*
X117123600Y-103964071D01*
X117123599Y-103964071D01*
X107724600Y-103964071D01*
X107724600Y-103835928D01*
X107699602Y-103710261D01*
X107699601Y-103710260D01*
X107699601Y-103710256D01*
X107650565Y-103591873D01*
X107650564Y-103591872D01*
X107650561Y-103591866D01*
X107579376Y-103485331D01*
X107579373Y-103485327D01*
X107488772Y-103394726D01*
X107488768Y-103394723D01*
X107382233Y-103323538D01*
X107382224Y-103323533D01*
X107263844Y-103274499D01*
X107263838Y-103274497D01*
X107138171Y-103249500D01*
X107138169Y-103249500D01*
X107010031Y-103249500D01*
X107010029Y-103249500D01*
X106884361Y-103274497D01*
X106884355Y-103274499D01*
X106765975Y-103323533D01*
X106765966Y-103323538D01*
X106659431Y-103394723D01*
X106659427Y-103394726D01*
X106568826Y-103485327D01*
X106568823Y-103485331D01*
X106497638Y-103591866D01*
X106497635Y-103591873D01*
X106482837Y-103627598D01*
X106438995Y-103682001D01*
X106372701Y-103704065D01*
X106305002Y-103686785D01*
X106260889Y-103642144D01*
X106231866Y-103591875D01*
X106214609Y-103561985D01*
X106112115Y-103459491D01*
X106112113Y-103459490D01*
X106112111Y-103459488D01*
X105986588Y-103387017D01*
X105986589Y-103387017D01*
X105975106Y-103383940D01*
X105846575Y-103349500D01*
X105701625Y-103349500D01*
X105573093Y-103383940D01*
X105561611Y-103387017D01*
X105436088Y-103459488D01*
X105436082Y-103459493D01*
X105333593Y-103561982D01*
X105333588Y-103561988D01*
X105261117Y-103687511D01*
X105261116Y-103687515D01*
X105223600Y-103827525D01*
X104624600Y-103827525D01*
X104587084Y-103687515D01*
X104583900Y-103682001D01*
X104514611Y-103561988D01*
X104514606Y-103561982D01*
X104412117Y-103459493D01*
X104412111Y-103459488D01*
X104286588Y-103387017D01*
X104286589Y-103387017D01*
X104275106Y-103383940D01*
X104146575Y-103349500D01*
X104001625Y-103349500D01*
X103873093Y-103383940D01*
X103861611Y-103387017D01*
X103736088Y-103459488D01*
X103736082Y-103459493D01*
X103633593Y-103561982D01*
X103633591Y-103561985D01*
X103587310Y-103642145D01*
X103536742Y-103690360D01*
X103468135Y-103703582D01*
X103403270Y-103677614D01*
X103365362Y-103627596D01*
X103350565Y-103591873D01*
X103350561Y-103591866D01*
X103279376Y-103485331D01*
X103279373Y-103485327D01*
X103188772Y-103394726D01*
X103188768Y-103394723D01*
X103082233Y-103323538D01*
X103082224Y-103323533D01*
X102963844Y-103274499D01*
X102963838Y-103274497D01*
X102838171Y-103249500D01*
X102838169Y-103249500D01*
X102710031Y-103249500D01*
X102710029Y-103249500D01*
X102584361Y-103274497D01*
X102584355Y-103274499D01*
X102465975Y-103323533D01*
X102465966Y-103323538D01*
X102359431Y-103394723D01*
X102359427Y-103394726D01*
X102268826Y-103485327D01*
X102268823Y-103485331D01*
X102197638Y-103591866D01*
X102197633Y-103591875D01*
X102148599Y-103710255D01*
X102148597Y-103710261D01*
X102123600Y-103835928D01*
X102123600Y-103835931D01*
X102123600Y-103964069D01*
X102123600Y-103964071D01*
X102123599Y-103964071D01*
X92724600Y-103964071D01*
X92724600Y-103835928D01*
X92699602Y-103710261D01*
X92699601Y-103710260D01*
X92699601Y-103710256D01*
X92650565Y-103591873D01*
X92650564Y-103591872D01*
X92650561Y-103591866D01*
X92579376Y-103485331D01*
X92579373Y-103485327D01*
X92488772Y-103394726D01*
X92488768Y-103394723D01*
X92382233Y-103323538D01*
X92382224Y-103323533D01*
X92263844Y-103274499D01*
X92263838Y-103274497D01*
X92138171Y-103249500D01*
X92138169Y-103249500D01*
X92010031Y-103249500D01*
X92010029Y-103249500D01*
X91884361Y-103274497D01*
X91884355Y-103274499D01*
X91765975Y-103323533D01*
X91765966Y-103323538D01*
X91659431Y-103394723D01*
X91659427Y-103394726D01*
X91568826Y-103485327D01*
X91568823Y-103485331D01*
X91497638Y-103591866D01*
X91497635Y-103591873D01*
X91482837Y-103627598D01*
X91438995Y-103682001D01*
X91372701Y-103704065D01*
X91305002Y-103686785D01*
X91260889Y-103642144D01*
X91231866Y-103591875D01*
X91214609Y-103561985D01*
X91112115Y-103459491D01*
X91112113Y-103459490D01*
X91112111Y-103459488D01*
X90986588Y-103387017D01*
X90986589Y-103387017D01*
X90975106Y-103383940D01*
X90846575Y-103349500D01*
X90701625Y-103349500D01*
X90573093Y-103383940D01*
X90561611Y-103387017D01*
X90436088Y-103459488D01*
X90436082Y-103459493D01*
X90333593Y-103561982D01*
X90333588Y-103561988D01*
X90261117Y-103687511D01*
X90261116Y-103687515D01*
X90223600Y-103827525D01*
X89624600Y-103827525D01*
X89587084Y-103687515D01*
X89583900Y-103682001D01*
X89514611Y-103561988D01*
X89514606Y-103561982D01*
X89412117Y-103459493D01*
X89412111Y-103459488D01*
X89286588Y-103387017D01*
X89286589Y-103387017D01*
X89275106Y-103383940D01*
X89146575Y-103349500D01*
X89001625Y-103349500D01*
X88873093Y-103383940D01*
X88861611Y-103387017D01*
X88736088Y-103459488D01*
X88736082Y-103459493D01*
X88633593Y-103561982D01*
X88633591Y-103561985D01*
X88587310Y-103642145D01*
X88536742Y-103690360D01*
X88468135Y-103703582D01*
X88403270Y-103677614D01*
X88365362Y-103627596D01*
X88350565Y-103591873D01*
X88350561Y-103591866D01*
X88279376Y-103485331D01*
X88279373Y-103485327D01*
X88188772Y-103394726D01*
X88188768Y-103394723D01*
X88082233Y-103323538D01*
X88082224Y-103323533D01*
X87963844Y-103274499D01*
X87963838Y-103274497D01*
X87838171Y-103249500D01*
X87838169Y-103249500D01*
X87710031Y-103249500D01*
X87710029Y-103249500D01*
X87584361Y-103274497D01*
X87584355Y-103274499D01*
X87465975Y-103323533D01*
X87465966Y-103323538D01*
X87359431Y-103394723D01*
X87359427Y-103394726D01*
X87268826Y-103485327D01*
X87268823Y-103485331D01*
X87197638Y-103591866D01*
X87197633Y-103591875D01*
X87148599Y-103710255D01*
X87148597Y-103710261D01*
X87123600Y-103835928D01*
X87123600Y-103835931D01*
X87123600Y-103964069D01*
X87123600Y-103964071D01*
X87123599Y-103964071D01*
X83667347Y-103964071D01*
X83712197Y-103881934D01*
X83806050Y-103630304D01*
X83863137Y-103367879D01*
X83882296Y-103100000D01*
X83863137Y-102832121D01*
X83855052Y-102794957D01*
X83806051Y-102569702D01*
X83806050Y-102569696D01*
X83712197Y-102318066D01*
X83583488Y-102082354D01*
X83558894Y-102049500D01*
X83422550Y-101867365D01*
X83422534Y-101867347D01*
X83232652Y-101677465D01*
X83232634Y-101677449D01*
X83017648Y-101516513D01*
X83017640Y-101516508D01*
X82781939Y-101387805D01*
X82781935Y-101387803D01*
X82686537Y-101352222D01*
X82530304Y-101293950D01*
X82530300Y-101293949D01*
X82530297Y-101293948D01*
X82267884Y-101236863D01*
X82000001Y-101217704D01*
X81999999Y-101217704D01*
X81732115Y-101236863D01*
X81469702Y-101293948D01*
X81469697Y-101293949D01*
X81469696Y-101293950D01*
X81459910Y-101297600D01*
X81218064Y-101387803D01*
X81218060Y-101387805D01*
X80982359Y-101516508D01*
X80982351Y-101516513D01*
X80767365Y-101677449D01*
X80767347Y-101677465D01*
X80577465Y-101867347D01*
X80577449Y-101867365D01*
X80416513Y-102082351D01*
X80416508Y-102082359D01*
X80287805Y-102318060D01*
X80287803Y-102318064D01*
X80193948Y-102569702D01*
X80145666Y-102791651D01*
X80112181Y-102852974D01*
X80050858Y-102886459D01*
X79981166Y-102881475D01*
X79925233Y-102839603D01*
X79900816Y-102774139D01*
X79900500Y-102765293D01*
X79900500Y-70735687D01*
X79920185Y-70668648D01*
X79972989Y-70622893D01*
X80040042Y-70612665D01*
X80339526Y-70650499D01*
X80339532Y-70650499D01*
X80339536Y-70650500D01*
X80339538Y-70650500D01*
X80660462Y-70650500D01*
X80660464Y-70650500D01*
X80660467Y-70650499D01*
X80660475Y-70650499D01*
X80878995Y-70622893D01*
X80978861Y-70610277D01*
X81289706Y-70530466D01*
X81588097Y-70412324D01*
X81869328Y-70257716D01*
X82128964Y-70069080D01*
X82362911Y-69849390D01*
X82567478Y-69602110D01*
X82739439Y-69331142D01*
X82876084Y-69040758D01*
X82975256Y-68735538D01*
X83035392Y-68420294D01*
X83040603Y-68337471D01*
X83055543Y-68100005D01*
X83055543Y-68099994D01*
X83035393Y-67779716D01*
X83035392Y-67779709D01*
X83035392Y-67779706D01*
X82975256Y-67464462D01*
X82876084Y-67159242D01*
X82876081Y-67159235D01*
X82739441Y-66868861D01*
X82739437Y-66868855D01*
X82639343Y-66711131D01*
X82620042Y-66643980D01*
X82640109Y-66577055D01*
X82693174Y-66531602D01*
X82762388Y-66522054D01*
X82825777Y-66551442D01*
X82831721Y-66557008D01*
X83586181Y-67311468D01*
X83619666Y-67372791D01*
X83622500Y-67399149D01*
X83622500Y-69250851D01*
X83602815Y-69317890D01*
X83586181Y-69338532D01*
X80867906Y-72056806D01*
X80867902Y-72056811D01*
X80805042Y-72165689D01*
X80805041Y-72165690D01*
X80788770Y-72226414D01*
X80772500Y-72287136D01*
X80772500Y-82037136D01*
X80772500Y-82162864D01*
X80779471Y-82188879D01*
X80805041Y-82284309D01*
X80805042Y-82284310D01*
X80867902Y-82393188D01*
X80867906Y-82393193D01*
X84686181Y-86211468D01*
X84719666Y-86272791D01*
X84722500Y-86299149D01*
X84722500Y-98619533D01*
X84722500Y-98745261D01*
X84746905Y-98836344D01*
X84755041Y-98866706D01*
X84755042Y-98866707D01*
X84817902Y-98975585D01*
X84817904Y-98975588D01*
X84817905Y-98975589D01*
X88485508Y-102643192D01*
X88574411Y-102732095D01*
X88683295Y-102794959D01*
X88804739Y-102827500D01*
X88804742Y-102827500D01*
X111112861Y-102827500D01*
X111112864Y-102827500D01*
X111234308Y-102794959D01*
X111343192Y-102732095D01*
X113993923Y-100081364D01*
X117646300Y-100081364D01*
X117646300Y-100258835D01*
X117674063Y-100434124D01*
X117674063Y-100434127D01*
X117728903Y-100602907D01*
X117754896Y-100653921D01*
X117798254Y-100739015D01*
X117809478Y-100761042D01*
X117913785Y-100904610D01*
X117913789Y-100904615D01*
X118039284Y-101030110D01*
X118039289Y-101030114D01*
X118164516Y-101121096D01*
X118182861Y-101134424D01*
X118340990Y-101214995D01*
X118340992Y-101214996D01*
X118509773Y-101269836D01*
X118509774Y-101269836D01*
X118509777Y-101269837D01*
X118685064Y-101297600D01*
X118685065Y-101297600D01*
X120062535Y-101297600D01*
X120062536Y-101297600D01*
X120237823Y-101269837D01*
X120237826Y-101269836D01*
X120237827Y-101269836D01*
X120406607Y-101214996D01*
X120406607Y-101214995D01*
X120406610Y-101214995D01*
X120564739Y-101134424D01*
X120708317Y-101030109D01*
X120833809Y-100904617D01*
X120938124Y-100761039D01*
X121018695Y-100602910D01*
X121073537Y-100434123D01*
X121101300Y-100258836D01*
X121101300Y-100081364D01*
X121073537Y-99906077D01*
X121073536Y-99906073D01*
X121073536Y-99906072D01*
X121018696Y-99737292D01*
X121008570Y-99717419D01*
X120938124Y-99579161D01*
X120920112Y-99554369D01*
X120833814Y-99435589D01*
X120833810Y-99435584D01*
X120708315Y-99310089D01*
X120708310Y-99310085D01*
X120564742Y-99205778D01*
X120564741Y-99205777D01*
X120564739Y-99205776D01*
X120485674Y-99165490D01*
X120406607Y-99125203D01*
X120237826Y-99070363D01*
X120106357Y-99049540D01*
X120062536Y-99042600D01*
X118685064Y-99042600D01*
X118626635Y-99051854D01*
X118509775Y-99070363D01*
X118509772Y-99070363D01*
X118340992Y-99125203D01*
X118182857Y-99205778D01*
X118039289Y-99310085D01*
X118039284Y-99310089D01*
X117913789Y-99435584D01*
X117913785Y-99435589D01*
X117809478Y-99579157D01*
X117728903Y-99737292D01*
X117674063Y-99906072D01*
X117674063Y-99906075D01*
X117646300Y-100081364D01*
X113993923Y-100081364D01*
X117225088Y-96850199D01*
X120634468Y-96850199D01*
X120634469Y-96850200D01*
X121490409Y-96850200D01*
X121447958Y-96923727D01*
X121416800Y-97040008D01*
X121416800Y-97160392D01*
X121447958Y-97276673D01*
X121490409Y-97350200D01*
X120634469Y-97350200D01*
X120683575Y-97533470D01*
X120683580Y-97533484D01*
X120776899Y-97733607D01*
X120776900Y-97733609D01*
X120903563Y-97914501D01*
X121059698Y-98070636D01*
X121240590Y-98197299D01*
X121240592Y-98197300D01*
X121440715Y-98290619D01*
X121440729Y-98290624D01*
X121623999Y-98339731D01*
X121624000Y-98339730D01*
X121624000Y-97483791D01*
X121697527Y-97526242D01*
X121813808Y-97557400D01*
X121934192Y-97557400D01*
X122050473Y-97526242D01*
X122124000Y-97483791D01*
X122124000Y-98339731D01*
X122307270Y-98290624D01*
X122307284Y-98290619D01*
X122507407Y-98197300D01*
X122507409Y-98197299D01*
X122688301Y-98070636D01*
X122844436Y-97914501D01*
X122971099Y-97733609D01*
X122971100Y-97733607D01*
X123064419Y-97533484D01*
X123064424Y-97533470D01*
X123113531Y-97350200D01*
X122257591Y-97350200D01*
X122300042Y-97276673D01*
X122331200Y-97160392D01*
X122331200Y-97040008D01*
X122300042Y-96923727D01*
X122257591Y-96850200D01*
X123113531Y-96850200D01*
X123113531Y-96850199D01*
X123064424Y-96666929D01*
X123064420Y-96666920D01*
X122971099Y-96466791D01*
X122971098Y-96466789D01*
X122844442Y-96285904D01*
X122688297Y-96129760D01*
X122507409Y-96003100D01*
X122507407Y-96003099D01*
X122307283Y-95909780D01*
X122124000Y-95860668D01*
X122124000Y-96716608D01*
X122050473Y-96674158D01*
X121934192Y-96643000D01*
X121813808Y-96643000D01*
X121697527Y-96674158D01*
X121624000Y-96716608D01*
X121624000Y-95860668D01*
X121440718Y-95909779D01*
X121240591Y-96003100D01*
X121240589Y-96003101D01*
X121059700Y-96129760D01*
X120903560Y-96285900D01*
X120776901Y-96466789D01*
X120776900Y-96466791D01*
X120683579Y-96666920D01*
X120683575Y-96666929D01*
X120634468Y-96850199D01*
X117225088Y-96850199D01*
X118082095Y-95993192D01*
X118144959Y-95884308D01*
X118177500Y-95762864D01*
X118177500Y-95637136D01*
X118144959Y-95515692D01*
X118082095Y-95406808D01*
X117993192Y-95317905D01*
X117993191Y-95317904D01*
X117993188Y-95317902D01*
X117884310Y-95255042D01*
X117884309Y-95255041D01*
X117853947Y-95246905D01*
X117762864Y-95222500D01*
X117637136Y-95222500D01*
X117564269Y-95242024D01*
X117515690Y-95255041D01*
X117515689Y-95255042D01*
X117406811Y-95317902D01*
X117406806Y-95317906D01*
X110888532Y-101836181D01*
X110827209Y-101869666D01*
X110800851Y-101872500D01*
X102651500Y-101872500D01*
X102584461Y-101852815D01*
X102538706Y-101800011D01*
X102527500Y-101748500D01*
X102527500Y-100724128D01*
X102547185Y-100657089D01*
X102599989Y-100611334D01*
X102669147Y-100601390D01*
X102732703Y-100630415D01*
X102761985Y-100667833D01*
X102798254Y-100739015D01*
X102809478Y-100761042D01*
X102913785Y-100904610D01*
X102913789Y-100904615D01*
X103039284Y-101030110D01*
X103039289Y-101030114D01*
X103164516Y-101121096D01*
X103182861Y-101134424D01*
X103340990Y-101214995D01*
X103340992Y-101214996D01*
X103509773Y-101269836D01*
X103509774Y-101269836D01*
X103509777Y-101269837D01*
X103685064Y-101297600D01*
X103685065Y-101297600D01*
X105062535Y-101297600D01*
X105062536Y-101297600D01*
X105237823Y-101269837D01*
X105237826Y-101269836D01*
X105237827Y-101269836D01*
X105406607Y-101214996D01*
X105406607Y-101214995D01*
X105406610Y-101214995D01*
X105564739Y-101134424D01*
X105708317Y-101030109D01*
X105833809Y-100904617D01*
X105938124Y-100761039D01*
X106018695Y-100602910D01*
X106073537Y-100434123D01*
X106101300Y-100258836D01*
X106101300Y-100081364D01*
X106073537Y-99906077D01*
X106073536Y-99906073D01*
X106073536Y-99906072D01*
X106018696Y-99737292D01*
X106008570Y-99717419D01*
X105938124Y-99579161D01*
X105920112Y-99554369D01*
X105833814Y-99435589D01*
X105833810Y-99435584D01*
X105708315Y-99310089D01*
X105708310Y-99310085D01*
X105564742Y-99205778D01*
X105564741Y-99205777D01*
X105564739Y-99205776D01*
X105485674Y-99165490D01*
X105406607Y-99125203D01*
X105237826Y-99070363D01*
X105106357Y-99049540D01*
X105062536Y-99042600D01*
X103685064Y-99042600D01*
X103626635Y-99051854D01*
X103509775Y-99070363D01*
X103509772Y-99070363D01*
X103340992Y-99125203D01*
X103182857Y-99205778D01*
X103039289Y-99310085D01*
X103039284Y-99310089D01*
X102913789Y-99435584D01*
X102913785Y-99435589D01*
X102809476Y-99579159D01*
X102761984Y-99672367D01*
X102714010Y-99723162D01*
X102646189Y-99739957D01*
X102580054Y-99717419D01*
X102536603Y-99662704D01*
X102527500Y-99616071D01*
X102527500Y-96850199D01*
X105634468Y-96850199D01*
X105634469Y-96850200D01*
X106490409Y-96850200D01*
X106447958Y-96923727D01*
X106416800Y-97040008D01*
X106416800Y-97160392D01*
X106447958Y-97276673D01*
X106490409Y-97350200D01*
X105634469Y-97350200D01*
X105683575Y-97533470D01*
X105683580Y-97533484D01*
X105776899Y-97733607D01*
X105776900Y-97733609D01*
X105903563Y-97914501D01*
X106059698Y-98070636D01*
X106240590Y-98197299D01*
X106240592Y-98197300D01*
X106440715Y-98290619D01*
X106440729Y-98290624D01*
X106623999Y-98339731D01*
X106624000Y-98339730D01*
X106624000Y-97483791D01*
X106697527Y-97526242D01*
X106813808Y-97557400D01*
X106934192Y-97557400D01*
X107050473Y-97526242D01*
X107124000Y-97483791D01*
X107124000Y-98339731D01*
X107307270Y-98290624D01*
X107307284Y-98290619D01*
X107507407Y-98197300D01*
X107507409Y-98197299D01*
X107688301Y-98070636D01*
X107844436Y-97914501D01*
X107971099Y-97733609D01*
X107971100Y-97733607D01*
X108064419Y-97533484D01*
X108064424Y-97533470D01*
X108113531Y-97350200D01*
X107257591Y-97350200D01*
X107300042Y-97276673D01*
X107331200Y-97160392D01*
X107331200Y-97040008D01*
X107300042Y-96923727D01*
X107257591Y-96850200D01*
X108113531Y-96850200D01*
X108113531Y-96850199D01*
X108064424Y-96666929D01*
X108064420Y-96666920D01*
X107971099Y-96466791D01*
X107971098Y-96466789D01*
X107844442Y-96285904D01*
X107688297Y-96129760D01*
X107507409Y-96003100D01*
X107507407Y-96003099D01*
X107307283Y-95909780D01*
X107124000Y-95860668D01*
X107124000Y-96716608D01*
X107050473Y-96674158D01*
X106934192Y-96643000D01*
X106813808Y-96643000D01*
X106697527Y-96674158D01*
X106624000Y-96716608D01*
X106624000Y-95860668D01*
X106440718Y-95909779D01*
X106240591Y-96003100D01*
X106240589Y-96003101D01*
X106059700Y-96129760D01*
X105903560Y-96285900D01*
X105776901Y-96466789D01*
X105776900Y-96466791D01*
X105683579Y-96666920D01*
X105683575Y-96666929D01*
X105634468Y-96850199D01*
X102527500Y-96850199D01*
X102527500Y-94249149D01*
X102547185Y-94182110D01*
X102563819Y-94161468D01*
X104015493Y-92709794D01*
X104125987Y-92599300D01*
X105979600Y-92599300D01*
X105999145Y-92785258D01*
X105999146Y-92785260D01*
X106056925Y-92963086D01*
X106150413Y-93125013D01*
X106275530Y-93263969D01*
X106426795Y-93373870D01*
X106426796Y-93373870D01*
X106426800Y-93373873D01*
X106503143Y-93407863D01*
X106597609Y-93449923D01*
X106597615Y-93449925D01*
X106733510Y-93478810D01*
X106794992Y-93512002D01*
X106828768Y-93573165D01*
X106824116Y-93642880D01*
X106782511Y-93699012D01*
X106733510Y-93721390D01*
X106597615Y-93750274D01*
X106597609Y-93750276D01*
X106426800Y-93826327D01*
X106426795Y-93826329D01*
X106275530Y-93936230D01*
X106150413Y-94075186D01*
X106056925Y-94237113D01*
X105999146Y-94414939D01*
X105999145Y-94414941D01*
X105979600Y-94600900D01*
X105999145Y-94786858D01*
X105999146Y-94786860D01*
X106056925Y-94964686D01*
X106150413Y-95126613D01*
X106275530Y-95265569D01*
X106426795Y-95375470D01*
X106426796Y-95375470D01*
X106426800Y-95375473D01*
X106528996Y-95420973D01*
X106597609Y-95451523D01*
X106597615Y-95451525D01*
X106780510Y-95490400D01*
X106780511Y-95490400D01*
X106967489Y-95490400D01*
X106967490Y-95490400D01*
X107150385Y-95451525D01*
X107150387Y-95451523D01*
X107150390Y-95451523D01*
X107173501Y-95441232D01*
X107321200Y-95375473D01*
X107472470Y-95265569D01*
X107597585Y-95126615D01*
X107691075Y-94964685D01*
X107748855Y-94786856D01*
X107768400Y-94600900D01*
X107748855Y-94414944D01*
X107691075Y-94237115D01*
X107659318Y-94182110D01*
X107597586Y-94075186D01*
X107472469Y-93936230D01*
X107321204Y-93826329D01*
X107321201Y-93826327D01*
X107321200Y-93826327D01*
X107275698Y-93806068D01*
X107150390Y-93750276D01*
X107150384Y-93750274D01*
X107041011Y-93727027D01*
X107014488Y-93721389D01*
X106953007Y-93688198D01*
X106919231Y-93627035D01*
X106923883Y-93557320D01*
X106965488Y-93501188D01*
X107014488Y-93478810D01*
X107150385Y-93449925D01*
X107150387Y-93449923D01*
X107150390Y-93449923D01*
X107173501Y-93439632D01*
X107321200Y-93373873D01*
X107472470Y-93263969D01*
X107597585Y-93125015D01*
X107691075Y-92963085D01*
X107748855Y-92785256D01*
X107768400Y-92599300D01*
X107748855Y-92413344D01*
X107691075Y-92235515D01*
X107628081Y-92126405D01*
X107597586Y-92073586D01*
X107472469Y-91934630D01*
X107321204Y-91824729D01*
X107321201Y-91824727D01*
X107321200Y-91824727D01*
X107275698Y-91804468D01*
X107150390Y-91748676D01*
X107150384Y-91748674D01*
X107006364Y-91718062D01*
X106967490Y-91709800D01*
X106780510Y-91709800D01*
X106764345Y-91713236D01*
X106597615Y-91748674D01*
X106597609Y-91748676D01*
X106426800Y-91824727D01*
X106426795Y-91824729D01*
X106275530Y-91934630D01*
X106150413Y-92073586D01*
X106056925Y-92235513D01*
X105999146Y-92413339D01*
X105999145Y-92413341D01*
X105979600Y-92599300D01*
X104125987Y-92599300D01*
X105482095Y-91243192D01*
X105544959Y-91134308D01*
X105577500Y-91012864D01*
X105577500Y-90887136D01*
X105544959Y-90765692D01*
X105482095Y-90656808D01*
X105393192Y-90567905D01*
X105393191Y-90567904D01*
X105393188Y-90567902D01*
X105284310Y-90505042D01*
X105284309Y-90505041D01*
X105253947Y-90496905D01*
X105162864Y-90472500D01*
X105037136Y-90472500D01*
X104964269Y-90492024D01*
X104915690Y-90505041D01*
X104915689Y-90505042D01*
X104806811Y-90567902D01*
X104806806Y-90567906D01*
X101667906Y-93706806D01*
X101667902Y-93706811D01*
X101605042Y-93815689D01*
X101605041Y-93815690D01*
X101588770Y-93876414D01*
X101572500Y-93937136D01*
X101572500Y-93937138D01*
X101572500Y-101748500D01*
X101552815Y-101815539D01*
X101500011Y-101861294D01*
X101448500Y-101872500D01*
X89116752Y-101872500D01*
X89049713Y-101852815D01*
X89029071Y-101836181D01*
X87166308Y-99973418D01*
X88346300Y-99973418D01*
X88346300Y-100126581D01*
X88376176Y-100276780D01*
X88376179Y-100276789D01*
X88434784Y-100418277D01*
X88434791Y-100418290D01*
X88519875Y-100545626D01*
X88519878Y-100545630D01*
X88628169Y-100653921D01*
X88628173Y-100653924D01*
X88755509Y-100739008D01*
X88755522Y-100739015D01*
X88861638Y-100782968D01*
X88897012Y-100797621D01*
X88897014Y-100797621D01*
X88897019Y-100797623D01*
X89047218Y-100827499D01*
X89047221Y-100827500D01*
X89047223Y-100827500D01*
X90700379Y-100827500D01*
X90700380Y-100827499D01*
X90750447Y-100817540D01*
X90850580Y-100797623D01*
X90850583Y-100797621D01*
X90850588Y-100797621D01*
X90992084Y-100739012D01*
X91119427Y-100653924D01*
X91227724Y-100545627D01*
X91312812Y-100418284D01*
X91371421Y-100276788D01*
X91401300Y-100126577D01*
X91401300Y-99973423D01*
X91401300Y-99973420D01*
X91401299Y-99973418D01*
X91371423Y-99823219D01*
X91371420Y-99823210D01*
X91312815Y-99681722D01*
X91312808Y-99681709D01*
X91227724Y-99554373D01*
X91227721Y-99554369D01*
X91119430Y-99446078D01*
X91119426Y-99446075D01*
X90992090Y-99360991D01*
X90992077Y-99360984D01*
X90850589Y-99302379D01*
X90850580Y-99302376D01*
X90700380Y-99272500D01*
X90700377Y-99272500D01*
X89047223Y-99272500D01*
X89047220Y-99272500D01*
X88897019Y-99302376D01*
X88897010Y-99302379D01*
X88755522Y-99360984D01*
X88755509Y-99360991D01*
X88628173Y-99446075D01*
X88628169Y-99446078D01*
X88519878Y-99554369D01*
X88519875Y-99554373D01*
X88434791Y-99681709D01*
X88434784Y-99681722D01*
X88376179Y-99823210D01*
X88376176Y-99823219D01*
X88346300Y-99973418D01*
X87166308Y-99973418D01*
X85713819Y-98520929D01*
X85680334Y-98459606D01*
X85677500Y-98433248D01*
X85677500Y-96850099D01*
X90095127Y-96850099D01*
X90095128Y-96850100D01*
X90940988Y-96850100D01*
X90908075Y-96907107D01*
X90874000Y-97034274D01*
X90874000Y-97165926D01*
X90908075Y-97293093D01*
X90940988Y-97350100D01*
X90095128Y-97350100D01*
X90147730Y-97546417D01*
X90147734Y-97546426D01*
X90243865Y-97752582D01*
X90374342Y-97938920D01*
X90535179Y-98099757D01*
X90721517Y-98230234D01*
X90927673Y-98326365D01*
X90927682Y-98326369D01*
X91123999Y-98378972D01*
X91124000Y-98378971D01*
X91124000Y-97533112D01*
X91181007Y-97566025D01*
X91308174Y-97600100D01*
X91439826Y-97600100D01*
X91566993Y-97566025D01*
X91624000Y-97533112D01*
X91624000Y-98378972D01*
X91820317Y-98326369D01*
X91820326Y-98326365D01*
X92026482Y-98230234D01*
X92212820Y-98099757D01*
X92373657Y-97938920D01*
X92504134Y-97752582D01*
X92600265Y-97546426D01*
X92600269Y-97546417D01*
X92652872Y-97350100D01*
X91807012Y-97350100D01*
X91839925Y-97293093D01*
X91874000Y-97165926D01*
X91874000Y-97034274D01*
X91839925Y-96907107D01*
X91807012Y-96850100D01*
X92652872Y-96850100D01*
X92652872Y-96850099D01*
X92600269Y-96653782D01*
X92600265Y-96653773D01*
X92504134Y-96447617D01*
X92373657Y-96261279D01*
X92212820Y-96100442D01*
X92026482Y-95969965D01*
X91820328Y-95873834D01*
X91624000Y-95821227D01*
X91624000Y-96667088D01*
X91566993Y-96634175D01*
X91439826Y-96600100D01*
X91308174Y-96600100D01*
X91181007Y-96634175D01*
X91124000Y-96667088D01*
X91124000Y-95821227D01*
X90927671Y-95873834D01*
X90721517Y-95969965D01*
X90535179Y-96100442D01*
X90374342Y-96261279D01*
X90243865Y-96447617D01*
X90147734Y-96653773D01*
X90147730Y-96653782D01*
X90095127Y-96850099D01*
X85677500Y-96850099D01*
X85677500Y-89287541D01*
X90446500Y-89287541D01*
X90446500Y-90912658D01*
X90453898Y-90949849D01*
X90482077Y-90992022D01*
X90524250Y-91020201D01*
X90524252Y-91020202D01*
X90552205Y-91025762D01*
X90561441Y-91027600D01*
X90561442Y-91027600D01*
X92186559Y-91027600D01*
X92193957Y-91026128D01*
X92223748Y-91020202D01*
X92265922Y-90992022D01*
X92294102Y-90949848D01*
X92301500Y-90912658D01*
X92301500Y-89287542D01*
X92294102Y-89250352D01*
X92293450Y-89249376D01*
X92265922Y-89208177D01*
X92223749Y-89179998D01*
X92186559Y-89172600D01*
X92186558Y-89172600D01*
X90561442Y-89172600D01*
X90561441Y-89172600D01*
X90524250Y-89179998D01*
X90482077Y-89208177D01*
X90453898Y-89250350D01*
X90446500Y-89287541D01*
X85677500Y-89287541D01*
X85677500Y-87073618D01*
X88346300Y-87073618D01*
X88346300Y-87226781D01*
X88376176Y-87376980D01*
X88376179Y-87376989D01*
X88434784Y-87518477D01*
X88434791Y-87518490D01*
X88519875Y-87645826D01*
X88519878Y-87645830D01*
X88628169Y-87754121D01*
X88628173Y-87754124D01*
X88755509Y-87839208D01*
X88755522Y-87839215D01*
X88861638Y-87883168D01*
X88897012Y-87897821D01*
X88897014Y-87897821D01*
X88897019Y-87897823D01*
X89047218Y-87927699D01*
X89047221Y-87927700D01*
X89047223Y-87927700D01*
X90700379Y-87927700D01*
X90700380Y-87927699D01*
X90750447Y-87917740D01*
X90850580Y-87897823D01*
X90850583Y-87897821D01*
X90850588Y-87897821D01*
X90992084Y-87839212D01*
X91119427Y-87754124D01*
X91227724Y-87645827D01*
X91312812Y-87518484D01*
X91371421Y-87376988D01*
X91378209Y-87342866D01*
X91397546Y-87245648D01*
X91401300Y-87226777D01*
X91401300Y-87073623D01*
X91401300Y-87073620D01*
X91401299Y-87073618D01*
X91371423Y-86923419D01*
X91371420Y-86923410D01*
X91312815Y-86781922D01*
X91312808Y-86781909D01*
X91227724Y-86654573D01*
X91227721Y-86654569D01*
X91119430Y-86546278D01*
X91119426Y-86546275D01*
X90992090Y-86461191D01*
X90992077Y-86461184D01*
X90850589Y-86402579D01*
X90850580Y-86402576D01*
X90700380Y-86372700D01*
X90700377Y-86372700D01*
X89047223Y-86372700D01*
X89047220Y-86372700D01*
X88897019Y-86402576D01*
X88897010Y-86402579D01*
X88755522Y-86461184D01*
X88755509Y-86461191D01*
X88628173Y-86546275D01*
X88628169Y-86546278D01*
X88519878Y-86654569D01*
X88519875Y-86654573D01*
X88434791Y-86781909D01*
X88434784Y-86781922D01*
X88376179Y-86923410D01*
X88376176Y-86923419D01*
X88346300Y-87073618D01*
X85677500Y-87073618D01*
X85677500Y-85987138D01*
X85677500Y-85987136D01*
X85644959Y-85865692D01*
X85582095Y-85756808D01*
X85493192Y-85667905D01*
X81763819Y-81938532D01*
X81730334Y-81877209D01*
X81727500Y-81850851D01*
X81727500Y-72897922D01*
X87193966Y-72897922D01*
X87193966Y-73046551D01*
X87206743Y-73094233D01*
X87211805Y-73113125D01*
X87224565Y-73160748D01*
X87230562Y-73171134D01*
X87283677Y-73263131D01*
X87468473Y-73447928D01*
X87468474Y-73447929D01*
X87890343Y-73869799D01*
X87890345Y-73869800D01*
X87890349Y-73869803D01*
X87992720Y-73928907D01*
X87992723Y-73928907D01*
X87992727Y-73928910D01*
X88016859Y-73935376D01*
X88106923Y-73959509D01*
X90428692Y-73959509D01*
X90495731Y-73979194D01*
X90516373Y-73995828D01*
X92929681Y-76409136D01*
X92963166Y-76470459D01*
X92966000Y-76496817D01*
X92966000Y-91232911D01*
X92946315Y-91299950D01*
X92929681Y-91320592D01*
X92253940Y-91996332D01*
X92192617Y-92029817D01*
X92122925Y-92024833D01*
X92074110Y-91991624D01*
X91998037Y-91907136D01*
X91917070Y-91848310D01*
X91840304Y-91792536D01*
X91662197Y-91713237D01*
X91662191Y-91713235D01*
X91497929Y-91678321D01*
X91471484Y-91672700D01*
X91276516Y-91672700D01*
X91250071Y-91678321D01*
X91085808Y-91713235D01*
X91085803Y-91713237D01*
X90907696Y-91792536D01*
X90907691Y-91792539D01*
X90749969Y-91907130D01*
X90749963Y-91907135D01*
X90619501Y-92052027D01*
X90522020Y-92220870D01*
X90522019Y-92220871D01*
X90461771Y-92406298D01*
X90441391Y-92600200D01*
X90461771Y-92794101D01*
X90522019Y-92979528D01*
X90522020Y-92979529D01*
X90619501Y-93148372D01*
X90723586Y-93263969D01*
X90749963Y-93293264D01*
X90860912Y-93373873D01*
X90907695Y-93407863D01*
X91085260Y-93486921D01*
X91138497Y-93532171D01*
X91158818Y-93599020D01*
X91139773Y-93666244D01*
X91087406Y-93712499D01*
X91085260Y-93713479D01*
X90907696Y-93792536D01*
X90907691Y-93792539D01*
X90749969Y-93907130D01*
X90749963Y-93907135D01*
X90619501Y-94052027D01*
X90522020Y-94220870D01*
X90522019Y-94220871D01*
X90461771Y-94406298D01*
X90441391Y-94600200D01*
X90461771Y-94794101D01*
X90522019Y-94979528D01*
X90522020Y-94979529D01*
X90619501Y-95148372D01*
X90715548Y-95255042D01*
X90749963Y-95293264D01*
X90783880Y-95317906D01*
X90907695Y-95407863D01*
X91085802Y-95487162D01*
X91085808Y-95487164D01*
X91276516Y-95527700D01*
X91276517Y-95527700D01*
X91471482Y-95527700D01*
X91471484Y-95527700D01*
X91662192Y-95487164D01*
X91662194Y-95487162D01*
X91662197Y-95487162D01*
X91722190Y-95460451D01*
X91840305Y-95407863D01*
X91998037Y-95293264D01*
X92128497Y-95148374D01*
X92225981Y-94979526D01*
X92286229Y-94794100D01*
X92306609Y-94600200D01*
X92286229Y-94406300D01*
X92286227Y-94406294D01*
X92285616Y-94403419D01*
X92285746Y-94401712D01*
X92285549Y-94399837D01*
X92285892Y-94399800D01*
X92290931Y-94333752D01*
X92319223Y-94289957D01*
X93859181Y-92750000D01*
X99018104Y-92750000D01*
X99035598Y-92871678D01*
X99035599Y-92871682D01*
X99084852Y-92979529D01*
X99086666Y-92983501D01*
X99167168Y-93076405D01*
X99270584Y-93142866D01*
X99388535Y-93177500D01*
X99511465Y-93177500D01*
X99629416Y-93142866D01*
X99732832Y-93076405D01*
X99813334Y-92983501D01*
X99864401Y-92871679D01*
X99881896Y-92750000D01*
X99864401Y-92628321D01*
X99864400Y-92628317D01*
X99831505Y-92556288D01*
X99813334Y-92516499D01*
X99732832Y-92423595D01*
X99732826Y-92423591D01*
X99726131Y-92417790D01*
X99727325Y-92416411D01*
X99688699Y-92371824D01*
X99677500Y-92320326D01*
X99677500Y-92124567D01*
X99697185Y-92057528D01*
X99749989Y-92011773D01*
X99819147Y-92001829D01*
X99882703Y-92030854D01*
X99895208Y-92043359D01*
X99967168Y-92126405D01*
X100070584Y-92192866D01*
X100188535Y-92227500D01*
X100311465Y-92227500D01*
X100429416Y-92192866D01*
X100532832Y-92126405D01*
X100613334Y-92033501D01*
X100664401Y-91921679D01*
X100681896Y-91800000D01*
X100676881Y-91765124D01*
X100686822Y-91695967D01*
X100711934Y-91659797D01*
X103407914Y-88963819D01*
X103469237Y-88930334D01*
X103495595Y-88927500D01*
X104224838Y-88927500D01*
X104291877Y-88947185D01*
X104318547Y-88970293D01*
X104367168Y-89026405D01*
X104470584Y-89092866D01*
X104563311Y-89120093D01*
X104590720Y-89128142D01*
X104649498Y-89165917D01*
X104678522Y-89229473D01*
X104668578Y-89298632D01*
X104643465Y-89334800D01*
X101592085Y-92386181D01*
X101530762Y-92419666D01*
X101504404Y-92422500D01*
X101388535Y-92422500D01*
X101270584Y-92457134D01*
X101270582Y-92457134D01*
X101270582Y-92457135D01*
X101167169Y-92523594D01*
X101086667Y-92616497D01*
X101086665Y-92616500D01*
X101035599Y-92728317D01*
X101035598Y-92728321D01*
X101018104Y-92850000D01*
X101035598Y-92971678D01*
X101035599Y-92971682D01*
X101071001Y-93049200D01*
X101086666Y-93083501D01*
X101167168Y-93176405D01*
X101270584Y-93242866D01*
X101388535Y-93277500D01*
X101511465Y-93277500D01*
X101629416Y-93242866D01*
X101732832Y-93176405D01*
X101813334Y-93083501D01*
X101860817Y-92979528D01*
X101864400Y-92971682D01*
X101864401Y-92971678D01*
X101881896Y-92850000D01*
X101876881Y-92815124D01*
X101886822Y-92745967D01*
X101911934Y-92709797D01*
X104521732Y-90100000D01*
X105979600Y-90100000D01*
X105999145Y-90285958D01*
X105999146Y-90285960D01*
X106056925Y-90463786D01*
X106150413Y-90625713D01*
X106275530Y-90764669D01*
X106426795Y-90874570D01*
X106426796Y-90874570D01*
X106426800Y-90874573D01*
X106512340Y-90912658D01*
X106597609Y-90950623D01*
X106597615Y-90950625D01*
X106780510Y-90989500D01*
X106780511Y-90989500D01*
X106967489Y-90989500D01*
X106967490Y-90989500D01*
X107150385Y-90950625D01*
X107150387Y-90950623D01*
X107150390Y-90950623D01*
X107173501Y-90940332D01*
X107321200Y-90874573D01*
X107472470Y-90764669D01*
X107597585Y-90625715D01*
X107691075Y-90463785D01*
X107748855Y-90285956D01*
X107768400Y-90100000D01*
X107748855Y-89914044D01*
X107691075Y-89736215D01*
X107597585Y-89574285D01*
X107472470Y-89435331D01*
X107472469Y-89435330D01*
X107321204Y-89325429D01*
X107321201Y-89325427D01*
X107321200Y-89325427D01*
X107261018Y-89298632D01*
X107150390Y-89249376D01*
X107150384Y-89249374D01*
X107006364Y-89218762D01*
X106967490Y-89210500D01*
X106780510Y-89210500D01*
X106748450Y-89217314D01*
X106597615Y-89249374D01*
X106597609Y-89249376D01*
X106426800Y-89325427D01*
X106426795Y-89325429D01*
X106275530Y-89435330D01*
X106150413Y-89574286D01*
X106056925Y-89736213D01*
X105999146Y-89914039D01*
X105999145Y-89914041D01*
X105979600Y-90100000D01*
X104521732Y-90100000D01*
X105807914Y-88813819D01*
X105869237Y-88780334D01*
X105895595Y-88777500D01*
X107595252Y-88777500D01*
X107595253Y-88777500D01*
X107678868Y-88742865D01*
X108007914Y-88413817D01*
X108069236Y-88380334D01*
X108095594Y-88377500D01*
X108211465Y-88377500D01*
X108329416Y-88342866D01*
X108432832Y-88276405D01*
X108513334Y-88183501D01*
X108555941Y-88090204D01*
X108564400Y-88071682D01*
X108564401Y-88071678D01*
X108581896Y-87950000D01*
X108564401Y-87828321D01*
X108564400Y-87828317D01*
X108513334Y-87716500D01*
X108513334Y-87716499D01*
X108432832Y-87623595D01*
X108329416Y-87557134D01*
X108211465Y-87522500D01*
X108088535Y-87522500D01*
X107970584Y-87557134D01*
X107970582Y-87557134D01*
X107970582Y-87557135D01*
X107867169Y-87623594D01*
X107786667Y-87716497D01*
X107786665Y-87716500D01*
X107735599Y-87828317D01*
X107735598Y-87828321D01*
X107718104Y-87950000D01*
X107718104Y-87950001D01*
X107723118Y-87984877D01*
X107713174Y-88054036D01*
X107688061Y-88090204D01*
X107492084Y-88286182D01*
X107430764Y-88319666D01*
X107404405Y-88322500D01*
X105704746Y-88322500D01*
X105621129Y-88357136D01*
X105281745Y-88696520D01*
X105220422Y-88730005D01*
X105150730Y-88725021D01*
X105094797Y-88683149D01*
X105071326Y-88626486D01*
X105064401Y-88578321D01*
X105064400Y-88578317D01*
X105031505Y-88506288D01*
X105013334Y-88466499D01*
X104932832Y-88373595D01*
X104932830Y-88373594D01*
X104927024Y-88366893D01*
X104928551Y-88365569D01*
X104897039Y-88316533D01*
X104897040Y-88246664D01*
X104934815Y-88187886D01*
X104998371Y-88158862D01*
X105016017Y-88157600D01*
X105062535Y-88157600D01*
X105062536Y-88157600D01*
X105237823Y-88129837D01*
X105237826Y-88129836D01*
X105237827Y-88129836D01*
X105406607Y-88074996D01*
X105406607Y-88074995D01*
X105406610Y-88074995D01*
X105564739Y-87994424D01*
X105708317Y-87890109D01*
X105833809Y-87764617D01*
X105938124Y-87621039D01*
X106018695Y-87462910D01*
X106035216Y-87412064D01*
X106073536Y-87294127D01*
X106073536Y-87294126D01*
X106073537Y-87294123D01*
X106101300Y-87118836D01*
X106101300Y-86941364D01*
X106073537Y-86766077D01*
X106073536Y-86766073D01*
X106073536Y-86766072D01*
X106018696Y-86597292D01*
X105998234Y-86557134D01*
X105938124Y-86439161D01*
X105900202Y-86386966D01*
X105833814Y-86295589D01*
X105833810Y-86295584D01*
X105708315Y-86170089D01*
X105708310Y-86170085D01*
X105564742Y-86065778D01*
X105564741Y-86065777D01*
X105564739Y-86065776D01*
X105485674Y-86025490D01*
X105406607Y-85985203D01*
X105237826Y-85930363D01*
X105093410Y-85907490D01*
X105062536Y-85902600D01*
X103685064Y-85902600D01*
X103631025Y-85911159D01*
X103509775Y-85930363D01*
X103509772Y-85930363D01*
X103340992Y-85985203D01*
X103182857Y-86065778D01*
X103039289Y-86170085D01*
X103039284Y-86170089D01*
X102913789Y-86295584D01*
X102913785Y-86295589D01*
X102809478Y-86439157D01*
X102728903Y-86597292D01*
X102674063Y-86766072D01*
X102674063Y-86766075D01*
X102674063Y-86766077D01*
X102646300Y-86941364D01*
X102646300Y-87118836D01*
X102656542Y-87183499D01*
X102674063Y-87294124D01*
X102674063Y-87294127D01*
X102728903Y-87462907D01*
X102759268Y-87522500D01*
X102807948Y-87618041D01*
X102809478Y-87621042D01*
X102913785Y-87764610D01*
X102913789Y-87764615D01*
X103039284Y-87890110D01*
X103039289Y-87890114D01*
X103164516Y-87981096D01*
X103182861Y-87994424D01*
X103284701Y-88046314D01*
X103340992Y-88074996D01*
X103509773Y-88129836D01*
X103509774Y-88129836D01*
X103509777Y-88129837D01*
X103685064Y-88157600D01*
X103685065Y-88157600D01*
X104283983Y-88157600D01*
X104351022Y-88177285D01*
X104396777Y-88230089D01*
X104406721Y-88299247D01*
X104377696Y-88362803D01*
X104368886Y-88371612D01*
X104367168Y-88373595D01*
X104318548Y-88429704D01*
X104259773Y-88467477D01*
X104224838Y-88472500D01*
X103304746Y-88472500D01*
X103221130Y-88507136D01*
X100392085Y-91336181D01*
X100330762Y-91369666D01*
X100304404Y-91372500D01*
X100188535Y-91372500D01*
X100070584Y-91407134D01*
X100070582Y-91407134D01*
X100070582Y-91407135D01*
X99967168Y-91473595D01*
X99967165Y-91473597D01*
X99895212Y-91556635D01*
X99836434Y-91594409D01*
X99766564Y-91594409D01*
X99707786Y-91556634D01*
X99678762Y-91493078D01*
X99677500Y-91475432D01*
X99677500Y-86011806D01*
X99697185Y-85944767D01*
X99734462Y-85907490D01*
X99742072Y-85902600D01*
X99782832Y-85876405D01*
X99863334Y-85783501D01*
X99914401Y-85671679D01*
X99931896Y-85550000D01*
X99914401Y-85428321D01*
X99914400Y-85428317D01*
X99863334Y-85316500D01*
X99863334Y-85316499D01*
X99782832Y-85223595D01*
X99679416Y-85157134D01*
X99561465Y-85122500D01*
X99438535Y-85122500D01*
X99320584Y-85157134D01*
X99320582Y-85157134D01*
X99320582Y-85157135D01*
X99217169Y-85223594D01*
X99136667Y-85316497D01*
X99136665Y-85316500D01*
X99085599Y-85428317D01*
X99085598Y-85428321D01*
X99068104Y-85550000D01*
X99085598Y-85671678D01*
X99085599Y-85671682D01*
X99124477Y-85756811D01*
X99136666Y-85783501D01*
X99192213Y-85847605D01*
X99221238Y-85911159D01*
X99222500Y-85928807D01*
X99222500Y-92320326D01*
X99202815Y-92387365D01*
X99173184Y-92416999D01*
X99173869Y-92417790D01*
X99167166Y-92423597D01*
X99086667Y-92516497D01*
X99086665Y-92516500D01*
X99035599Y-92628317D01*
X99035598Y-92628321D01*
X99018104Y-92750000D01*
X93859181Y-92750000D01*
X94544289Y-92064893D01*
X94603401Y-91962508D01*
X94614341Y-91921679D01*
X94634000Y-91848312D01*
X94634000Y-86950000D01*
X95068104Y-86950000D01*
X95085598Y-87071678D01*
X95085599Y-87071682D01*
X95116916Y-87140255D01*
X95136666Y-87183501D01*
X95217168Y-87276405D01*
X95320584Y-87342866D01*
X95438535Y-87377500D01*
X95561465Y-87377500D01*
X95679416Y-87342866D01*
X95782832Y-87276405D01*
X95863334Y-87183501D01*
X95899676Y-87103922D01*
X95914400Y-87071682D01*
X95914401Y-87071678D01*
X95926377Y-86988382D01*
X95931896Y-86950000D01*
X95914401Y-86828321D01*
X95914400Y-86828317D01*
X95863334Y-86716500D01*
X95863334Y-86716499D01*
X95807786Y-86652393D01*
X95778762Y-86588839D01*
X95777500Y-86571192D01*
X95777500Y-82255918D01*
X95797185Y-82188879D01*
X95849989Y-82143124D01*
X95919147Y-82133180D01*
X95982703Y-82162205D01*
X95990234Y-82170201D01*
X95990491Y-82169945D01*
X95996238Y-82175692D01*
X98364835Y-84544289D01*
X98467219Y-84603401D01*
X98491351Y-84609867D01*
X98581415Y-84634000D01*
X105903183Y-84634000D01*
X105970222Y-84653685D01*
X105990863Y-84670318D01*
X115664935Y-94344391D01*
X115664937Y-94344392D01*
X115664941Y-94344395D01*
X115754099Y-94395870D01*
X115754100Y-94395870D01*
X115758188Y-94398229D01*
X115767320Y-94403502D01*
X115881515Y-94434101D01*
X120859415Y-94434101D01*
X120926454Y-94453786D01*
X120972209Y-94506590D01*
X120982736Y-94571061D01*
X120979600Y-94600899D01*
X120999145Y-94786858D01*
X120999146Y-94786860D01*
X121056925Y-94964686D01*
X121150413Y-95126613D01*
X121275530Y-95265569D01*
X121426795Y-95375470D01*
X121426796Y-95375470D01*
X121426800Y-95375473D01*
X121528996Y-95420973D01*
X121597609Y-95451523D01*
X121597615Y-95451525D01*
X121780510Y-95490400D01*
X121780511Y-95490400D01*
X121967489Y-95490400D01*
X121967490Y-95490400D01*
X122150385Y-95451525D01*
X122150387Y-95451523D01*
X122150390Y-95451523D01*
X122173501Y-95441232D01*
X122321200Y-95375473D01*
X122472470Y-95265569D01*
X122597585Y-95126615D01*
X122691075Y-94964685D01*
X122748855Y-94786856D01*
X122768400Y-94600900D01*
X122748855Y-94414944D01*
X122691075Y-94237115D01*
X122659318Y-94182110D01*
X122597586Y-94075186D01*
X122472469Y-93936230D01*
X122321204Y-93826329D01*
X122321201Y-93826327D01*
X122321200Y-93826327D01*
X122275698Y-93806068D01*
X122150390Y-93750276D01*
X122150384Y-93750274D01*
X122041011Y-93727027D01*
X122014488Y-93721389D01*
X121953007Y-93688198D01*
X121919231Y-93627035D01*
X121923883Y-93557320D01*
X121965488Y-93501188D01*
X122014488Y-93478810D01*
X122150385Y-93449925D01*
X122150387Y-93449923D01*
X122150390Y-93449923D01*
X122173501Y-93439632D01*
X122321200Y-93373873D01*
X122472470Y-93263969D01*
X122597585Y-93125015D01*
X122691075Y-92963085D01*
X122748855Y-92785256D01*
X122768400Y-92599300D01*
X122748855Y-92413344D01*
X122691075Y-92235515D01*
X122628081Y-92126405D01*
X122597586Y-92073586D01*
X122472469Y-91934630D01*
X122321204Y-91824729D01*
X122321201Y-91824727D01*
X122321200Y-91824727D01*
X122275698Y-91804468D01*
X122150390Y-91748676D01*
X122150384Y-91748674D01*
X122006364Y-91718062D01*
X121967490Y-91709800D01*
X121780510Y-91709800D01*
X121764345Y-91713236D01*
X121597615Y-91748674D01*
X121597609Y-91748676D01*
X121426800Y-91824727D01*
X121426795Y-91824729D01*
X121275530Y-91934630D01*
X121150413Y-92073586D01*
X121056925Y-92235513D01*
X120999146Y-92413339D01*
X120999145Y-92413341D01*
X120979600Y-92599300D01*
X120982736Y-92629139D01*
X120970166Y-92697868D01*
X120922433Y-92748892D01*
X120859415Y-92766099D01*
X116496917Y-92766099D01*
X116429878Y-92746414D01*
X116409236Y-92729780D01*
X115388097Y-91708641D01*
X115354612Y-91647318D01*
X115359596Y-91577626D01*
X115401468Y-91521693D01*
X115440840Y-91501984D01*
X115482542Y-91489740D01*
X115585958Y-91423279D01*
X115666460Y-91330375D01*
X115717527Y-91218553D01*
X115735022Y-91096874D01*
X115730007Y-91061996D01*
X115739950Y-90992838D01*
X115765064Y-90956668D01*
X116357915Y-90363819D01*
X116419238Y-90330334D01*
X116445596Y-90327500D01*
X120922552Y-90327500D01*
X120989591Y-90347185D01*
X121035346Y-90399989D01*
X121040483Y-90413182D01*
X121056922Y-90463779D01*
X121056925Y-90463785D01*
X121150415Y-90625715D01*
X121275530Y-90764669D01*
X121426795Y-90874570D01*
X121426796Y-90874570D01*
X121426800Y-90874573D01*
X121512340Y-90912658D01*
X121597609Y-90950623D01*
X121597615Y-90950625D01*
X121780510Y-90989500D01*
X121780511Y-90989500D01*
X121967489Y-90989500D01*
X121967490Y-90989500D01*
X122150385Y-90950625D01*
X122150387Y-90950623D01*
X122150390Y-90950623D01*
X122173501Y-90940332D01*
X122321200Y-90874573D01*
X122472470Y-90764669D01*
X122597585Y-90625715D01*
X122691075Y-90463785D01*
X122748855Y-90285956D01*
X122768400Y-90100000D01*
X122748855Y-89914044D01*
X122691075Y-89736215D01*
X122597585Y-89574285D01*
X122472470Y-89435331D01*
X122472469Y-89435330D01*
X122321204Y-89325429D01*
X122321201Y-89325427D01*
X122321200Y-89325427D01*
X122261018Y-89298632D01*
X122150390Y-89249376D01*
X122150384Y-89249374D01*
X122006364Y-89218762D01*
X121967490Y-89210500D01*
X121780510Y-89210500D01*
X121748450Y-89217314D01*
X121597615Y-89249374D01*
X121597609Y-89249376D01*
X121426800Y-89325427D01*
X121426795Y-89325429D01*
X121275530Y-89435330D01*
X121150414Y-89574286D01*
X121056925Y-89736214D01*
X121056922Y-89736220D01*
X121040483Y-89786818D01*
X121001046Y-89844493D01*
X120936687Y-89871692D01*
X120922552Y-89872500D01*
X116345253Y-89872500D01*
X116254747Y-89872500D01*
X116254745Y-89872500D01*
X116254743Y-89872501D01*
X116171134Y-89907131D01*
X116171132Y-89907133D01*
X115445211Y-90633055D01*
X115383888Y-90666540D01*
X115357530Y-90669374D01*
X115241661Y-90669374D01*
X115123710Y-90704008D01*
X115123708Y-90704008D01*
X115123708Y-90704009D01*
X115020295Y-90770468D01*
X114939793Y-90863371D01*
X114939791Y-90863374D01*
X114889530Y-90973430D01*
X114843775Y-91026234D01*
X114776735Y-91045918D01*
X114709696Y-91026233D01*
X114689055Y-91009599D01*
X111385177Y-87705721D01*
X111351692Y-87644398D01*
X111356676Y-87574706D01*
X111385175Y-87530361D01*
X111397977Y-87517559D01*
X111397989Y-87517550D01*
X111406885Y-87508652D01*
X111406888Y-87508652D01*
X111448685Y-87466853D01*
X111490475Y-87425063D01*
X111490476Y-87425060D01*
X111496013Y-87419524D01*
X111496511Y-87418954D01*
X111503397Y-87412069D01*
X111589427Y-87283316D01*
X111648688Y-87140255D01*
X111661946Y-87073618D01*
X111678905Y-86988383D01*
X111678905Y-86988380D01*
X111678908Y-86941364D01*
X117646300Y-86941364D01*
X117646300Y-87118836D01*
X117656542Y-87183499D01*
X117674063Y-87294124D01*
X117674063Y-87294127D01*
X117728903Y-87462907D01*
X117759268Y-87522500D01*
X117807948Y-87618041D01*
X117809478Y-87621042D01*
X117913785Y-87764610D01*
X117913789Y-87764615D01*
X118039284Y-87890110D01*
X118039289Y-87890114D01*
X118164516Y-87981096D01*
X118182861Y-87994424D01*
X118284701Y-88046314D01*
X118340992Y-88074996D01*
X118509773Y-88129836D01*
X118509774Y-88129836D01*
X118509777Y-88129837D01*
X118685064Y-88157600D01*
X118685065Y-88157600D01*
X120062535Y-88157600D01*
X120062536Y-88157600D01*
X120237823Y-88129837D01*
X120237826Y-88129836D01*
X120237827Y-88129836D01*
X120406607Y-88074996D01*
X120406607Y-88074995D01*
X120406610Y-88074995D01*
X120564739Y-87994424D01*
X120708317Y-87890109D01*
X120833809Y-87764617D01*
X120938124Y-87621039D01*
X121018695Y-87462910D01*
X121035216Y-87412064D01*
X121073536Y-87294127D01*
X121073536Y-87294126D01*
X121073537Y-87294123D01*
X121101300Y-87118836D01*
X121101300Y-86941364D01*
X121073537Y-86766077D01*
X121073536Y-86766073D01*
X121073536Y-86766072D01*
X121018696Y-86597292D01*
X120998234Y-86557134D01*
X120938124Y-86439161D01*
X120900202Y-86386966D01*
X120833814Y-86295589D01*
X120833810Y-86295584D01*
X120708315Y-86170089D01*
X120708310Y-86170085D01*
X120564742Y-86065778D01*
X120564741Y-86065777D01*
X120564739Y-86065776D01*
X120485674Y-86025490D01*
X120406607Y-85985203D01*
X120237826Y-85930363D01*
X120093410Y-85907490D01*
X120062536Y-85902600D01*
X118685064Y-85902600D01*
X118631025Y-85911159D01*
X118509775Y-85930363D01*
X118509772Y-85930363D01*
X118340992Y-85985203D01*
X118182857Y-86065778D01*
X118039289Y-86170085D01*
X118039284Y-86170089D01*
X117913789Y-86295584D01*
X117913785Y-86295589D01*
X117809478Y-86439157D01*
X117728903Y-86597292D01*
X117674063Y-86766072D01*
X117674063Y-86766075D01*
X117674063Y-86766077D01*
X117646300Y-86941364D01*
X111678908Y-86941364D01*
X111678916Y-86833532D01*
X111648722Y-86681655D01*
X111637506Y-86654569D01*
X111610290Y-86588839D01*
X111589481Y-86538585D01*
X111503470Y-86409819D01*
X111496497Y-86402844D01*
X111496390Y-86402721D01*
X111448745Y-86355076D01*
X111448735Y-86355058D01*
X111448732Y-86355062D01*
X111401171Y-86307486D01*
X111401034Y-86307366D01*
X111352251Y-86258583D01*
X111329460Y-86235790D01*
X111274703Y-86181033D01*
X111145933Y-86094992D01*
X111002856Y-86035728D01*
X111002848Y-86035726D01*
X110850967Y-86005515D01*
X110850963Y-86005515D01*
X110696095Y-86005515D01*
X110696093Y-86005515D01*
X110544208Y-86035727D01*
X110544202Y-86035729D01*
X110401125Y-86094993D01*
X110401116Y-86094998D01*
X110272359Y-86181031D01*
X110272352Y-86181037D01*
X110241969Y-86211417D01*
X110241960Y-86211429D01*
X110154102Y-86299286D01*
X110092778Y-86332770D01*
X110023087Y-86327786D01*
X109978742Y-86299286D01*
X109521691Y-85842236D01*
X109521690Y-85842234D01*
X106735168Y-83055713D01*
X106735166Y-83055711D01*
X106632782Y-82996599D01*
X106632781Y-82996598D01*
X106632780Y-82996598D01*
X106620715Y-82993365D01*
X106608649Y-82990132D01*
X106518586Y-82966000D01*
X106518585Y-82966000D01*
X99196817Y-82966000D01*
X99129778Y-82946315D01*
X99109136Y-82929681D01*
X96863133Y-80683679D01*
X96863131Y-80683677D01*
X96760747Y-80624565D01*
X96760746Y-80624564D01*
X96760745Y-80624564D01*
X96748680Y-80621331D01*
X96736614Y-80618098D01*
X96646551Y-80593966D01*
X96497922Y-80593966D01*
X96407862Y-80618098D01*
X96383723Y-80624566D01*
X96281345Y-80683674D01*
X96281339Y-80683679D01*
X96197747Y-80767271D01*
X96197742Y-80767277D01*
X96138634Y-80869655D01*
X96138633Y-80869659D01*
X96108034Y-80983854D01*
X96108034Y-81102078D01*
X96128244Y-81177500D01*
X96138634Y-81216276D01*
X96201809Y-81325697D01*
X96199006Y-81327314D01*
X96218740Y-81378349D01*
X96204706Y-81446794D01*
X96157172Y-81496060D01*
X96079835Y-81540711D01*
X96079832Y-81540713D01*
X95990491Y-81630055D01*
X95988391Y-81627955D01*
X95943441Y-81660773D01*
X95873694Y-81664923D01*
X95812776Y-81630707D01*
X95780027Y-81568988D01*
X95777500Y-81544081D01*
X95777500Y-76845595D01*
X95797185Y-76778556D01*
X95813819Y-76757914D01*
X96690319Y-75881414D01*
X97642866Y-74928868D01*
X97642866Y-74928866D01*
X97642868Y-74928865D01*
X97666214Y-74872500D01*
X97677500Y-74845253D01*
X97677500Y-74754747D01*
X97677500Y-74129673D01*
X97697185Y-74062634D01*
X97726817Y-74033003D01*
X97726131Y-74032211D01*
X97732826Y-74026408D01*
X97732832Y-74026405D01*
X97813334Y-73933501D01*
X97864401Y-73821679D01*
X97881896Y-73700000D01*
X97864401Y-73578321D01*
X97864400Y-73578317D01*
X97813334Y-73466500D01*
X97813334Y-73466499D01*
X97732832Y-73373595D01*
X97629416Y-73307134D01*
X97511465Y-73272500D01*
X97388535Y-73272500D01*
X97270584Y-73307134D01*
X97270582Y-73307134D01*
X97270582Y-73307135D01*
X97167169Y-73373594D01*
X97086667Y-73466497D01*
X97086665Y-73466500D01*
X97035599Y-73578317D01*
X97035598Y-73578321D01*
X97018104Y-73700000D01*
X97035598Y-73821678D01*
X97035599Y-73821682D01*
X97086665Y-73933499D01*
X97086667Y-73933502D01*
X97167166Y-74026403D01*
X97173869Y-74032211D01*
X97172671Y-74033592D01*
X97211288Y-74078148D01*
X97222500Y-74129673D01*
X97222500Y-74654404D01*
X97202815Y-74721443D01*
X97186180Y-74742085D01*
X95421132Y-76507135D01*
X95357135Y-76571132D01*
X95348134Y-76592863D01*
X95322500Y-76654746D01*
X95322500Y-86488193D01*
X95302815Y-86555232D01*
X95265539Y-86592508D01*
X95217172Y-86623591D01*
X95217169Y-86623593D01*
X95136667Y-86716497D01*
X95136665Y-86716500D01*
X95085599Y-86828317D01*
X95085598Y-86828321D01*
X95068104Y-86950000D01*
X94634000Y-86950000D01*
X94634000Y-75881414D01*
X94603401Y-75767219D01*
X94578416Y-75723945D01*
X94544289Y-75664833D01*
X94544288Y-75664832D01*
X94544285Y-75664828D01*
X91260677Y-72381222D01*
X91260675Y-72381220D01*
X91158291Y-72322108D01*
X91158290Y-72322107D01*
X91158289Y-72322107D01*
X91146224Y-72318874D01*
X91134158Y-72315641D01*
X91044095Y-72291509D01*
X88425871Y-72291509D01*
X88335811Y-72315641D01*
X88311672Y-72322109D01*
X88209294Y-72381217D01*
X88209288Y-72381222D01*
X88125696Y-72464814D01*
X88125694Y-72464817D01*
X88078375Y-72546776D01*
X88027808Y-72594991D01*
X87959200Y-72608213D01*
X87908988Y-72592162D01*
X87816276Y-72538634D01*
X87816277Y-72538634D01*
X87791929Y-72532110D01*
X87702078Y-72508034D01*
X87583854Y-72508034D01*
X87494003Y-72532110D01*
X87469655Y-72538634D01*
X87367277Y-72597742D01*
X87367271Y-72597747D01*
X87283679Y-72681339D01*
X87283674Y-72681345D01*
X87224566Y-72783723D01*
X87224565Y-72783727D01*
X87193966Y-72897922D01*
X81727500Y-72897922D01*
X81727500Y-72599149D01*
X81747185Y-72532110D01*
X81763819Y-72511468D01*
X83068601Y-71206686D01*
X84482095Y-69793192D01*
X84544959Y-69684308D01*
X84577500Y-69562864D01*
X84577500Y-69437136D01*
X84577500Y-67087136D01*
X84544959Y-66965692D01*
X84489052Y-66868858D01*
X84482097Y-66856811D01*
X84482093Y-66856806D01*
X82625287Y-65000000D01*
X83868104Y-65000000D01*
X83870809Y-65018817D01*
X83871238Y-65021797D01*
X83872500Y-65039444D01*
X83872500Y-65056282D01*
X83878564Y-65078913D01*
X83881527Y-65093358D01*
X83885598Y-65121678D01*
X83885599Y-65121679D01*
X83892004Y-65135704D01*
X83898982Y-65155118D01*
X83901633Y-65165009D01*
X83916640Y-65191001D01*
X83922044Y-65201484D01*
X83936666Y-65233501D01*
X83942421Y-65240143D01*
X83942432Y-65240155D01*
X83956103Y-65259353D01*
X83956109Y-65259364D01*
X83957915Y-65262491D01*
X83983787Y-65288363D01*
X83989808Y-65294830D01*
X84017168Y-65326405D01*
X84018992Y-65327577D01*
X84030985Y-65337241D01*
X84031064Y-65337139D01*
X84037512Y-65342087D01*
X84074891Y-65363667D01*
X84079923Y-65366734D01*
X84113106Y-65388060D01*
X84120584Y-65392866D01*
X84122013Y-65393519D01*
X84130597Y-65396547D01*
X84134988Y-65398366D01*
X84134990Y-65398366D01*
X84134991Y-65398367D01*
X84183067Y-65411248D01*
X84185836Y-65412025D01*
X84238535Y-65427500D01*
X84238537Y-65427500D01*
X84361463Y-65427500D01*
X84361465Y-65427500D01*
X84414193Y-65412016D01*
X84416863Y-65411266D01*
X84465009Y-65398367D01*
X84465017Y-65398361D01*
X84469390Y-65396551D01*
X84477989Y-65393517D01*
X84479410Y-65392867D01*
X84479416Y-65392866D01*
X84520101Y-65366717D01*
X84525059Y-65363694D01*
X84562491Y-65342085D01*
X84562495Y-65342081D01*
X84568946Y-65337132D01*
X84569025Y-65337235D01*
X84581007Y-65327577D01*
X84582832Y-65326405D01*
X84610179Y-65294843D01*
X84616212Y-65288363D01*
X84621074Y-65283501D01*
X84642085Y-65262491D01*
X84643890Y-65259363D01*
X84657569Y-65240152D01*
X84663334Y-65233501D01*
X84671801Y-65214957D01*
X84677953Y-65201489D01*
X84683363Y-65190995D01*
X84691983Y-65176065D01*
X84698367Y-65165009D01*
X84701016Y-65155117D01*
X84707996Y-65135701D01*
X84714401Y-65121679D01*
X84718471Y-65093366D01*
X84721435Y-65078914D01*
X84729592Y-65048474D01*
X84761683Y-64992891D01*
X85290757Y-64463819D01*
X85352080Y-64430334D01*
X85378438Y-64427500D01*
X87871562Y-64427500D01*
X87938601Y-64447185D01*
X87959243Y-64463819D01*
X88434744Y-64939320D01*
X88468229Y-65000643D01*
X88463245Y-65070335D01*
X88421373Y-65126268D01*
X88355909Y-65150685D01*
X88347063Y-65151001D01*
X88240888Y-65151001D01*
X88155241Y-65173950D01*
X88126691Y-65181600D01*
X88024308Y-65240709D01*
X87937681Y-65327337D01*
X87876357Y-65360821D01*
X87806666Y-65355837D01*
X87762320Y-65327337D01*
X87675695Y-65240714D01*
X87675694Y-65240713D01*
X87675692Y-65240711D01*
X87624500Y-65211155D01*
X87573309Y-65181599D01*
X87511381Y-65165006D01*
X87459112Y-65151001D01*
X87340888Y-65151001D01*
X87226690Y-65181599D01*
X87124308Y-65240711D01*
X87124305Y-65240713D01*
X87040713Y-65324305D01*
X87040711Y-65324308D01*
X86981599Y-65426690D01*
X86952000Y-65537160D01*
X86951001Y-65540888D01*
X86951001Y-65659112D01*
X86981599Y-65773308D01*
X86999385Y-65804114D01*
X87015999Y-65866114D01*
X87015999Y-68197657D01*
X86996314Y-68264696D01*
X86979680Y-68285338D01*
X85740713Y-69524305D01*
X85740711Y-69524308D01*
X85681599Y-69626690D01*
X85651001Y-69740888D01*
X85651001Y-69859111D01*
X85681599Y-69973309D01*
X85686269Y-69981397D01*
X85740711Y-70075692D01*
X85824308Y-70159289D01*
X85912972Y-70210480D01*
X85926688Y-70218399D01*
X85926692Y-70218401D01*
X86040888Y-70248999D01*
X86040890Y-70248999D01*
X86159110Y-70248999D01*
X86159112Y-70248999D01*
X86273308Y-70218401D01*
X86375692Y-70159289D01*
X86662124Y-69872856D01*
X86723445Y-69839373D01*
X86793136Y-69844357D01*
X86849070Y-69886228D01*
X86869577Y-69928444D01*
X86881598Y-69973305D01*
X86881600Y-69973310D01*
X86940708Y-70075688D01*
X86940710Y-70075690D01*
X86940711Y-70075692D01*
X87024308Y-70159289D01*
X87024309Y-70159290D01*
X87024311Y-70159291D01*
X87126689Y-70218399D01*
X87126690Y-70218399D01*
X87126693Y-70218401D01*
X87240888Y-70249000D01*
X87240890Y-70249000D01*
X87359110Y-70249000D01*
X87359112Y-70249000D01*
X87473307Y-70218401D01*
X87575692Y-70159289D01*
X87659289Y-70075692D01*
X87718401Y-69973307D01*
X87734612Y-69912804D01*
X87766703Y-69857221D01*
X88594290Y-69029637D01*
X88653402Y-68927252D01*
X88673190Y-68853402D01*
X88684001Y-68813056D01*
X88684001Y-65866114D01*
X88700614Y-65804114D01*
X88710416Y-65787136D01*
X88718400Y-65773308D01*
X88748999Y-65659112D01*
X88748999Y-65540888D01*
X88748000Y-65537159D01*
X88748077Y-65533892D01*
X88747938Y-65532831D01*
X88748103Y-65532809D01*
X88749663Y-65467310D01*
X88788826Y-65409448D01*
X88853054Y-65381944D01*
X88911840Y-65391114D01*
X88912061Y-65390364D01*
X88917770Y-65392039D01*
X88919298Y-65392278D01*
X88920579Y-65392863D01*
X88920584Y-65392866D01*
X88920588Y-65392867D01*
X88922020Y-65393521D01*
X88930597Y-65396547D01*
X88934988Y-65398366D01*
X88934990Y-65398366D01*
X88934991Y-65398367D01*
X88983067Y-65411248D01*
X88985836Y-65412025D01*
X89038535Y-65427500D01*
X89038537Y-65427500D01*
X89161464Y-65427500D01*
X89161465Y-65427500D01*
X89214176Y-65412022D01*
X89216958Y-65411242D01*
X89223653Y-65409448D01*
X89265009Y-65398367D01*
X89265015Y-65398363D01*
X89269389Y-65396552D01*
X89277984Y-65393519D01*
X89279416Y-65392866D01*
X89286894Y-65388060D01*
X89320092Y-65366724D01*
X89325070Y-65363690D01*
X89362492Y-65342085D01*
X89362492Y-65342084D01*
X89362495Y-65342083D01*
X89368939Y-65337138D01*
X89369017Y-65337240D01*
X89381007Y-65327577D01*
X89382832Y-65326405D01*
X89410191Y-65294830D01*
X89416208Y-65288368D01*
X89442081Y-65262496D01*
X89442081Y-65262495D01*
X89442085Y-65262492D01*
X89443893Y-65259359D01*
X89457572Y-65240149D01*
X89463334Y-65233501D01*
X89477958Y-65201475D01*
X89483348Y-65191019D01*
X89498367Y-65165009D01*
X89501016Y-65155117D01*
X89507996Y-65135701D01*
X89514401Y-65121679D01*
X89518474Y-65093345D01*
X89521435Y-65078914D01*
X89527500Y-65056282D01*
X89527500Y-65039444D01*
X89528762Y-65021797D01*
X89529190Y-65018817D01*
X89531896Y-65000000D01*
X89528762Y-64978201D01*
X89527500Y-64960555D01*
X89527500Y-64943720D01*
X89526321Y-64939320D01*
X89521432Y-64921076D01*
X89518471Y-64906634D01*
X89516258Y-64891238D01*
X89514401Y-64878321D01*
X89507997Y-64864298D01*
X89501017Y-64844881D01*
X89498368Y-64834995D01*
X89498367Y-64834991D01*
X89483360Y-64808999D01*
X89477958Y-64798523D01*
X89463334Y-64766499D01*
X89457566Y-64759843D01*
X89443895Y-64740644D01*
X89443884Y-64740626D01*
X89442085Y-64737509D01*
X89416222Y-64711646D01*
X89410191Y-64705168D01*
X89382834Y-64673597D01*
X89382829Y-64673592D01*
X89380998Y-64672416D01*
X89360360Y-64655784D01*
X88362493Y-63657917D01*
X88362491Y-63657915D01*
X88274539Y-63607135D01*
X88265010Y-63601633D01*
X88210645Y-63587066D01*
X88156281Y-63572500D01*
X85206282Y-63572500D01*
X85093719Y-63572500D01*
X84984989Y-63601633D01*
X84887509Y-63657915D01*
X84887506Y-63657917D01*
X83957917Y-64587506D01*
X83957915Y-64587509D01*
X83901633Y-64684989D01*
X83872500Y-64793719D01*
X83872500Y-64960555D01*
X83871238Y-64978201D01*
X83868104Y-65000000D01*
X82625287Y-65000000D01*
X82579389Y-64954102D01*
X82579384Y-64954098D01*
X82470506Y-64891238D01*
X82470505Y-64891237D01*
X82440143Y-64883101D01*
X82349060Y-64858696D01*
X82349057Y-64858696D01*
X81636126Y-64858696D01*
X81569087Y-64839011D01*
X81548445Y-64822377D01*
X81364600Y-64638532D01*
X81331115Y-64577209D01*
X81328281Y-64550851D01*
X81328281Y-62896867D01*
X81697500Y-62896867D01*
X81697500Y-63930332D01*
X81723533Y-64061210D01*
X81723536Y-64061220D01*
X81774607Y-64184517D01*
X81774608Y-64184520D01*
X81848750Y-64295480D01*
X81848753Y-64295484D01*
X81943115Y-64389846D01*
X81943119Y-64389849D01*
X82054079Y-64463991D01*
X82054081Y-64463991D01*
X82054083Y-64463993D01*
X82177381Y-64515064D01*
X82177384Y-64515064D01*
X82177389Y-64515066D01*
X82308267Y-64541099D01*
X82308270Y-64541100D01*
X82308272Y-64541100D01*
X82441730Y-64541100D01*
X82441731Y-64541099D01*
X82506312Y-64528253D01*
X82572610Y-64515066D01*
X82572612Y-64515065D01*
X82572619Y-64515064D01*
X82695917Y-64463993D01*
X82806881Y-64389849D01*
X82901249Y-64295481D01*
X82975393Y-64184517D01*
X83026464Y-64061219D01*
X83052500Y-63930328D01*
X83052500Y-63135584D01*
X83072185Y-63068545D01*
X83124989Y-63022790D01*
X83194147Y-63012846D01*
X83257703Y-63041871D01*
X83295477Y-63100649D01*
X83296275Y-63103492D01*
X83296916Y-63105886D01*
X83296917Y-63105888D01*
X83369388Y-63231411D01*
X83369390Y-63231413D01*
X83369391Y-63231415D01*
X83471885Y-63333909D01*
X83471886Y-63333910D01*
X83471888Y-63333911D01*
X83597411Y-63406382D01*
X83597412Y-63406382D01*
X83597415Y-63406384D01*
X83737425Y-63443900D01*
X83737428Y-63443900D01*
X83882372Y-63443900D01*
X83882375Y-63443900D01*
X84022385Y-63406384D01*
X84147915Y-63333909D01*
X84250409Y-63231415D01*
X84322884Y-63105885D01*
X84360400Y-62965875D01*
X84360400Y-62820925D01*
X89039400Y-62820925D01*
X89039400Y-62965875D01*
X89074940Y-63098510D01*
X89076917Y-63105888D01*
X89149388Y-63231411D01*
X89149390Y-63231413D01*
X89149391Y-63231415D01*
X89251885Y-63333909D01*
X89251886Y-63333910D01*
X89251888Y-63333911D01*
X89377411Y-63406382D01*
X89377412Y-63406382D01*
X89377415Y-63406384D01*
X89517425Y-63443900D01*
X89517428Y-63443900D01*
X89662372Y-63443900D01*
X89662375Y-63443900D01*
X89802385Y-63406384D01*
X89927915Y-63333909D01*
X90030409Y-63231415D01*
X90102884Y-63105885D01*
X90103725Y-63102743D01*
X90105158Y-63100392D01*
X90105992Y-63098381D01*
X90106305Y-63098510D01*
X90140090Y-63043084D01*
X90202937Y-63012555D01*
X90272312Y-63020850D01*
X90326190Y-63065335D01*
X90347465Y-63131887D01*
X90347500Y-63134838D01*
X90347500Y-63930332D01*
X90373533Y-64061210D01*
X90373536Y-64061220D01*
X90424607Y-64184517D01*
X90424608Y-64184520D01*
X90498750Y-64295480D01*
X90498753Y-64295484D01*
X90593115Y-64389846D01*
X90593119Y-64389849D01*
X90704079Y-64463991D01*
X90704081Y-64463991D01*
X90704083Y-64463993D01*
X90827381Y-64515064D01*
X90827384Y-64515064D01*
X90827389Y-64515066D01*
X90958267Y-64541099D01*
X90958270Y-64541100D01*
X90958272Y-64541100D01*
X91091730Y-64541100D01*
X91091731Y-64541099D01*
X91156312Y-64528253D01*
X91222610Y-64515066D01*
X91222612Y-64515065D01*
X91222619Y-64515064D01*
X91345917Y-64463993D01*
X91456881Y-64389849D01*
X91551249Y-64295481D01*
X91625393Y-64184517D01*
X91676464Y-64061219D01*
X91702500Y-63930328D01*
X91702500Y-62896872D01*
X91702500Y-62896869D01*
X91702499Y-62896867D01*
X91676466Y-62765989D01*
X91676463Y-62765979D01*
X91641229Y-62680915D01*
X91625393Y-62642683D01*
X91625391Y-62642681D01*
X91625391Y-62642679D01*
X91551249Y-62531719D01*
X91551246Y-62531715D01*
X91456884Y-62437353D01*
X91456880Y-62437350D01*
X91345920Y-62363208D01*
X91345917Y-62363207D01*
X91222620Y-62312136D01*
X91222610Y-62312133D01*
X91091731Y-62286100D01*
X91091728Y-62286100D01*
X90958272Y-62286100D01*
X90958269Y-62286100D01*
X90827389Y-62312133D01*
X90827379Y-62312136D01*
X90704082Y-62363207D01*
X90704079Y-62363208D01*
X90593119Y-62437350D01*
X90593115Y-62437353D01*
X90498753Y-62531715D01*
X90498750Y-62531719D01*
X90424608Y-62642679D01*
X90424607Y-62642682D01*
X90373536Y-62765979D01*
X90373533Y-62765991D01*
X90371681Y-62775301D01*
X90339294Y-62837211D01*
X90278577Y-62871783D01*
X90208807Y-62868040D01*
X90152137Y-62827172D01*
X90130292Y-62783202D01*
X90102884Y-62680915D01*
X90080808Y-62642679D01*
X90030411Y-62555388D01*
X90030406Y-62555382D01*
X89927917Y-62452893D01*
X89927911Y-62452888D01*
X89802388Y-62380417D01*
X89802389Y-62380417D01*
X89790906Y-62377340D01*
X89662375Y-62342900D01*
X89517425Y-62342900D01*
X89388893Y-62377340D01*
X89377411Y-62380417D01*
X89251888Y-62452888D01*
X89251882Y-62452893D01*
X89149393Y-62555382D01*
X89149388Y-62555388D01*
X89076917Y-62680911D01*
X89076916Y-62680915D01*
X89039400Y-62820925D01*
X84360400Y-62820925D01*
X84322884Y-62680915D01*
X84300808Y-62642679D01*
X84250411Y-62555388D01*
X84250406Y-62555382D01*
X84147917Y-62452893D01*
X84147911Y-62452888D01*
X84022388Y-62380417D01*
X84022389Y-62380417D01*
X84010906Y-62377340D01*
X83882375Y-62342900D01*
X83737425Y-62342900D01*
X83608893Y-62377340D01*
X83597411Y-62380417D01*
X83471888Y-62452888D01*
X83471882Y-62452893D01*
X83369393Y-62555382D01*
X83369388Y-62555388D01*
X83296917Y-62680911D01*
X83296916Y-62680915D01*
X83271742Y-62774867D01*
X83269624Y-62782770D01*
X83233258Y-62842430D01*
X83170411Y-62872959D01*
X83101036Y-62864664D01*
X83047158Y-62820178D01*
X83028232Y-62774867D01*
X83026466Y-62765988D01*
X83026463Y-62765979D01*
X82991229Y-62680915D01*
X82975393Y-62642683D01*
X82975391Y-62642681D01*
X82975391Y-62642679D01*
X82901249Y-62531719D01*
X82901246Y-62531715D01*
X82806884Y-62437353D01*
X82806880Y-62437350D01*
X82695920Y-62363208D01*
X82695917Y-62363207D01*
X82572620Y-62312136D01*
X82572610Y-62312133D01*
X82441731Y-62286100D01*
X82441728Y-62286100D01*
X82308272Y-62286100D01*
X82308269Y-62286100D01*
X82177389Y-62312133D01*
X82177379Y-62312136D01*
X82054082Y-62363207D01*
X82054079Y-62363208D01*
X81943119Y-62437350D01*
X81943115Y-62437353D01*
X81848753Y-62531715D01*
X81848750Y-62531719D01*
X81774608Y-62642679D01*
X81774607Y-62642682D01*
X81723536Y-62765979D01*
X81723533Y-62765989D01*
X81697500Y-62896867D01*
X81328281Y-62896867D01*
X81328281Y-61848368D01*
X81347966Y-61781329D01*
X81364600Y-61760687D01*
X81561468Y-61563819D01*
X81622791Y-61530334D01*
X81649149Y-61527500D01*
X96237136Y-61527500D01*
X107650851Y-61527500D01*
X107717890Y-61547185D01*
X107738532Y-61563819D01*
X112317905Y-66143192D01*
X112406808Y-66232095D01*
X112515692Y-66294959D01*
X112637136Y-66327500D01*
X112637139Y-66327500D01*
X112812861Y-66327500D01*
X112812864Y-66327500D01*
X112934308Y-66294959D01*
X113043192Y-66232095D01*
X113132095Y-66143192D01*
X113194959Y-66034308D01*
X113227500Y-65912864D01*
X113227500Y-65787136D01*
X113194959Y-65665692D01*
X113163527Y-65611250D01*
X113132097Y-65556811D01*
X113132093Y-65556806D01*
X113043193Y-65467906D01*
X113043188Y-65467902D01*
X112939028Y-65407766D01*
X112913347Y-65388060D01*
X111168952Y-63643665D01*
X111135467Y-63582342D01*
X111140451Y-63512650D01*
X111182323Y-63456717D01*
X111247787Y-63432300D01*
X111288724Y-63436209D01*
X111317425Y-63443900D01*
X111317427Y-63443900D01*
X111462372Y-63443900D01*
X111462375Y-63443900D01*
X111602385Y-63406384D01*
X111727915Y-63333909D01*
X111830409Y-63231415D01*
X111902884Y-63105885D01*
X111903725Y-63102743D01*
X111905158Y-63100392D01*
X111905992Y-63098381D01*
X111906305Y-63098510D01*
X111940090Y-63043084D01*
X112002937Y-63012555D01*
X112072312Y-63020850D01*
X112126190Y-63065335D01*
X112147465Y-63131887D01*
X112147500Y-63134838D01*
X112147500Y-63930332D01*
X112173533Y-64061210D01*
X112173536Y-64061220D01*
X112224607Y-64184517D01*
X112224608Y-64184520D01*
X112298750Y-64295480D01*
X112298753Y-64295484D01*
X112393115Y-64389846D01*
X112393119Y-64389849D01*
X112504079Y-64463991D01*
X112504081Y-64463991D01*
X112504083Y-64463993D01*
X112627381Y-64515064D01*
X112627384Y-64515064D01*
X112627389Y-64515066D01*
X112758267Y-64541099D01*
X112758270Y-64541100D01*
X112758272Y-64541100D01*
X112891730Y-64541100D01*
X112891731Y-64541099D01*
X112956312Y-64528253D01*
X113022610Y-64515066D01*
X113022612Y-64515065D01*
X113022619Y-64515064D01*
X113145917Y-64463993D01*
X113256881Y-64389849D01*
X113351249Y-64295481D01*
X113425393Y-64184517D01*
X113476464Y-64061219D01*
X113502500Y-63930328D01*
X113502500Y-62896872D01*
X113502500Y-62896869D01*
X113502499Y-62896867D01*
X113476466Y-62765989D01*
X113476463Y-62765979D01*
X113441229Y-62680915D01*
X113425393Y-62642683D01*
X113425391Y-62642681D01*
X113425391Y-62642679D01*
X113351249Y-62531719D01*
X113351246Y-62531715D01*
X113256884Y-62437353D01*
X113256880Y-62437350D01*
X113145920Y-62363208D01*
X113145917Y-62363207D01*
X113022620Y-62312136D01*
X113022610Y-62312133D01*
X112891731Y-62286100D01*
X112891728Y-62286100D01*
X112758272Y-62286100D01*
X112758269Y-62286100D01*
X112627389Y-62312133D01*
X112627379Y-62312136D01*
X112504082Y-62363207D01*
X112504079Y-62363208D01*
X112393119Y-62437350D01*
X112393115Y-62437353D01*
X112298753Y-62531715D01*
X112298750Y-62531719D01*
X112224608Y-62642679D01*
X112224607Y-62642682D01*
X112173536Y-62765979D01*
X112173533Y-62765991D01*
X112171681Y-62775301D01*
X112139294Y-62837211D01*
X112078577Y-62871783D01*
X112008807Y-62868040D01*
X111952137Y-62827172D01*
X111930292Y-62783202D01*
X111902884Y-62680915D01*
X111880808Y-62642679D01*
X111830411Y-62555388D01*
X111830406Y-62555382D01*
X111727917Y-62452893D01*
X111727911Y-62452888D01*
X111602388Y-62380417D01*
X111602389Y-62380417D01*
X111590906Y-62377340D01*
X111462375Y-62342900D01*
X111317425Y-62342900D01*
X111188893Y-62377340D01*
X111177411Y-62380417D01*
X111051888Y-62452888D01*
X111051882Y-62452893D01*
X110949393Y-62555382D01*
X110949388Y-62555388D01*
X110876917Y-62680911D01*
X110876916Y-62680915D01*
X110839400Y-62820925D01*
X110839400Y-62965875D01*
X110847089Y-62994573D01*
X110845427Y-63064422D01*
X110806265Y-63122285D01*
X110742036Y-63149789D01*
X110673134Y-63138203D01*
X110639634Y-63114347D01*
X108193193Y-60667906D01*
X108193188Y-60667902D01*
X108084310Y-60605042D01*
X108084309Y-60605041D01*
X108043666Y-60594151D01*
X107962864Y-60572500D01*
X96362864Y-60572500D01*
X81462864Y-60572500D01*
X81337136Y-60572500D01*
X81264269Y-60592024D01*
X81215690Y-60605041D01*
X81215689Y-60605042D01*
X81106811Y-60667902D01*
X81106806Y-60667906D01*
X80468687Y-61306025D01*
X80468683Y-61306030D01*
X80405823Y-61414908D01*
X80405822Y-61414909D01*
X80391150Y-61469666D01*
X80373281Y-61536355D01*
X80373281Y-64737136D01*
X80373281Y-64862864D01*
X80397686Y-64953947D01*
X80405822Y-64984309D01*
X80405823Y-64984310D01*
X80468683Y-65093188D01*
X80468687Y-65093193D01*
X80713313Y-65337819D01*
X80746798Y-65399142D01*
X80741814Y-65468834D01*
X80699942Y-65524767D01*
X80634478Y-65549184D01*
X80625632Y-65549500D01*
X80339524Y-65549500D01*
X80040041Y-65587334D01*
X79971063Y-65576207D01*
X79919051Y-65529554D01*
X79900500Y-65464312D01*
X79900500Y-59704427D01*
X79900816Y-59695581D01*
X79909819Y-59569702D01*
X79915130Y-59495436D01*
X79917646Y-59477938D01*
X79959356Y-59286199D01*
X79964333Y-59269248D01*
X80032911Y-59085385D01*
X80040259Y-59069298D01*
X80065856Y-59022420D01*
X80134291Y-58897089D01*
X80143845Y-58882221D01*
X80261448Y-58725123D01*
X80273020Y-58711769D01*
X80411769Y-58573020D01*
X80425123Y-58561448D01*
X80582221Y-58443845D01*
X80597089Y-58434291D01*
X80769298Y-58340258D01*
X80785385Y-58332911D01*
X80969248Y-58264333D01*
X80986199Y-58259356D01*
X81177938Y-58217646D01*
X81195436Y-58215130D01*
X81395582Y-58200816D01*
X81404428Y-58200500D01*
X81465892Y-58200500D01*
X81759797Y-58200500D01*
X81826836Y-58220185D01*
G37*
G04 #@! TD.AperFunction*
G04 #@! TA.AperFunction,Conductor*
G36*
X129689429Y-65426200D02*
G01*
X129735183Y-65479004D01*
X129745127Y-65548162D01*
X129716102Y-65611718D01*
X129710070Y-65618196D01*
X112842086Y-82486181D01*
X112780763Y-82519666D01*
X112754405Y-82522500D01*
X108995595Y-82522500D01*
X108928556Y-82502815D01*
X108907914Y-82486181D01*
X107130937Y-80709204D01*
X107097452Y-80647881D01*
X107102436Y-80578189D01*
X107144308Y-80522256D01*
X107209772Y-80497839D01*
X107253548Y-80502545D01*
X107338535Y-80527500D01*
X107338536Y-80527500D01*
X107461465Y-80527500D01*
X107579416Y-80492866D01*
X107682832Y-80426405D01*
X107763334Y-80333501D01*
X107799676Y-80253922D01*
X107814400Y-80221682D01*
X107814401Y-80221678D01*
X107819182Y-80188427D01*
X107831896Y-80100000D01*
X107814401Y-79978321D01*
X107814400Y-79978317D01*
X107781505Y-79906288D01*
X107763334Y-79866499D01*
X107682832Y-79773595D01*
X107682826Y-79773591D01*
X107676131Y-79767790D01*
X107677325Y-79766411D01*
X107638699Y-79721824D01*
X107627500Y-79670326D01*
X107627500Y-79054748D01*
X107627500Y-79054747D01*
X107592865Y-78971132D01*
X107528868Y-78907135D01*
X105861938Y-77240205D01*
X105828453Y-77178882D01*
X105826881Y-77134876D01*
X105831896Y-77100000D01*
X105814401Y-76978321D01*
X105814400Y-76978317D01*
X105801468Y-76950000D01*
X110418104Y-76950000D01*
X110435598Y-77071678D01*
X110435599Y-77071682D01*
X110486219Y-77182523D01*
X110486666Y-77183501D01*
X110567168Y-77276405D01*
X110670584Y-77342866D01*
X110788535Y-77377500D01*
X110911465Y-77377500D01*
X111029416Y-77342866D01*
X111132832Y-77276405D01*
X111181451Y-77220295D01*
X111240227Y-77182523D01*
X111275162Y-77177500D01*
X114904405Y-77177500D01*
X114971444Y-77197185D01*
X114992086Y-77213819D01*
X115438061Y-77659794D01*
X115471546Y-77721117D01*
X115473118Y-77765120D01*
X115468104Y-77799997D01*
X115468104Y-77799999D01*
X115485598Y-77921678D01*
X115485599Y-77921682D01*
X115536665Y-78033499D01*
X115536666Y-78033501D01*
X115617168Y-78126405D01*
X115720584Y-78192866D01*
X115838535Y-78227500D01*
X115961465Y-78227500D01*
X116079416Y-78192866D01*
X116182832Y-78126405D01*
X116263334Y-78033501D01*
X116314401Y-77921679D01*
X116331896Y-77800000D01*
X116314401Y-77678321D01*
X116314400Y-77678317D01*
X116263334Y-77566500D01*
X116263334Y-77566499D01*
X116182832Y-77473595D01*
X116079416Y-77407134D01*
X115961465Y-77372500D01*
X115845595Y-77372500D01*
X115778556Y-77352815D01*
X115757914Y-77336181D01*
X115478868Y-77057135D01*
X115178870Y-76757136D01*
X115095253Y-76722500D01*
X111275162Y-76722500D01*
X111208123Y-76702815D01*
X111181452Y-76679706D01*
X111132832Y-76623595D01*
X111029416Y-76557134D01*
X110911465Y-76522500D01*
X110788535Y-76522500D01*
X110670584Y-76557134D01*
X110670582Y-76557134D01*
X110670582Y-76557135D01*
X110567169Y-76623594D01*
X110486667Y-76716497D01*
X110486665Y-76716500D01*
X110435599Y-76828317D01*
X110435598Y-76828321D01*
X110418104Y-76950000D01*
X105801468Y-76950000D01*
X105781505Y-76906288D01*
X105763334Y-76866499D01*
X105734050Y-76832703D01*
X105705024Y-76769148D01*
X105714967Y-76699989D01*
X105760722Y-76647185D01*
X105827761Y-76627500D01*
X109424838Y-76627500D01*
X109491877Y-76647185D01*
X109518547Y-76670293D01*
X109567168Y-76726405D01*
X109670584Y-76792866D01*
X109788535Y-76827500D01*
X109911465Y-76827500D01*
X110029416Y-76792866D01*
X110132832Y-76726405D01*
X110213334Y-76633501D01*
X110264401Y-76521679D01*
X110281896Y-76400000D01*
X110264401Y-76278321D01*
X110264399Y-76278314D01*
X110230009Y-76203011D01*
X110220065Y-76133853D01*
X110249090Y-76070297D01*
X110307868Y-76032523D01*
X110342803Y-76027500D01*
X118645252Y-76027500D01*
X118645253Y-76027500D01*
X118728868Y-75992865D01*
X129207914Y-65513819D01*
X129269237Y-65480334D01*
X129295595Y-65477500D01*
X129411465Y-65477500D01*
X129529416Y-65442866D01*
X129534052Y-65439886D01*
X129555350Y-65426200D01*
X129622389Y-65406515D01*
X129689429Y-65426200D01*
G37*
G04 #@! TD.AperFunction*
G04 #@! TA.AperFunction,Conductor*
G36*
X134529027Y-58220185D02*
G01*
X134574782Y-58272989D01*
X134584726Y-58342147D01*
X134555701Y-58405703D01*
X134514393Y-58436882D01*
X134322422Y-58526399D01*
X134322420Y-58526400D01*
X134128926Y-58661886D01*
X134128920Y-58661891D01*
X133961891Y-58828920D01*
X133961886Y-58828926D01*
X133826400Y-59022420D01*
X133826399Y-59022422D01*
X133726570Y-59236507D01*
X133726567Y-59236513D01*
X133669364Y-59449999D01*
X133669364Y-59450000D01*
X134566988Y-59450000D01*
X134534075Y-59507007D01*
X134500000Y-59634174D01*
X134500000Y-59765826D01*
X134534075Y-59892993D01*
X134566988Y-59950000D01*
X133669364Y-59950000D01*
X133726567Y-60163486D01*
X133726570Y-60163492D01*
X133826399Y-60377578D01*
X133961894Y-60571082D01*
X134128917Y-60738105D01*
X134322421Y-60873600D01*
X134536507Y-60973429D01*
X134536516Y-60973433D01*
X134750000Y-61030634D01*
X134750000Y-60133012D01*
X134807007Y-60165925D01*
X134934174Y-60200000D01*
X135065826Y-60200000D01*
X135192993Y-60165925D01*
X135250000Y-60133012D01*
X135250000Y-61030633D01*
X135463483Y-60973433D01*
X135463492Y-60973429D01*
X135677579Y-60873599D01*
X135741047Y-60829158D01*
X135807253Y-60806830D01*
X135875021Y-60823839D01*
X135922834Y-60874787D01*
X135935513Y-60943496D01*
X135909032Y-61008153D01*
X135899853Y-61018413D01*
X135482086Y-61436181D01*
X135420763Y-61469666D01*
X135394405Y-61472500D01*
X133904746Y-61472500D01*
X133821129Y-61507136D01*
X129920731Y-65407534D01*
X129859408Y-65441019D01*
X129789716Y-65436035D01*
X129733783Y-65394163D01*
X129709366Y-65328699D01*
X129720254Y-65268346D01*
X129764401Y-65171679D01*
X129781896Y-65050000D01*
X129764401Y-64928321D01*
X129764400Y-64928317D01*
X129730862Y-64854881D01*
X129713334Y-64816499D01*
X129632832Y-64723595D01*
X129529416Y-64657134D01*
X129411465Y-64622500D01*
X129288535Y-64622500D01*
X129170584Y-64657134D01*
X129170582Y-64657134D01*
X129170582Y-64657135D01*
X129067169Y-64723594D01*
X128986667Y-64816497D01*
X128986665Y-64816500D01*
X128935599Y-64928317D01*
X128935598Y-64928321D01*
X128918104Y-65050000D01*
X128918104Y-65050001D01*
X128923118Y-65084877D01*
X128913174Y-65154036D01*
X128888061Y-65190204D01*
X118542086Y-75536181D01*
X118480763Y-75569666D01*
X118454405Y-75572500D01*
X114777762Y-75572500D01*
X114710723Y-75552815D01*
X114664968Y-75500011D01*
X114655024Y-75430853D01*
X114684048Y-75367298D01*
X114713334Y-75333501D01*
X114764401Y-75221679D01*
X114781896Y-75100000D01*
X114764401Y-74978321D01*
X114764400Y-74978317D01*
X114723516Y-74888794D01*
X114713334Y-74866499D01*
X114632832Y-74773595D01*
X114529416Y-74707134D01*
X114411465Y-74672500D01*
X114288535Y-74672500D01*
X114170584Y-74707134D01*
X114170582Y-74707134D01*
X114170582Y-74707135D01*
X114067169Y-74773594D01*
X114067168Y-74773594D01*
X114067168Y-74773595D01*
X114018548Y-74829704D01*
X113959773Y-74867477D01*
X113924838Y-74872500D01*
X108792803Y-74872500D01*
X108725764Y-74852815D01*
X108680009Y-74800011D01*
X108670065Y-74730853D01*
X108680009Y-74696989D01*
X108714399Y-74621685D01*
X108714401Y-74621678D01*
X108716835Y-74604747D01*
X108731896Y-74500000D01*
X108714401Y-74378321D01*
X108714400Y-74378317D01*
X108671098Y-74283501D01*
X108663334Y-74266499D01*
X108582832Y-74173595D01*
X108582826Y-74173591D01*
X108576131Y-74167790D01*
X108577325Y-74166411D01*
X108538699Y-74121824D01*
X108527500Y-74070326D01*
X108527500Y-71908125D01*
X108528561Y-71891940D01*
X108541469Y-71793894D01*
X108549847Y-71762626D01*
X108584556Y-71678831D01*
X108600741Y-71650798D01*
X108655958Y-71578837D01*
X108678837Y-71555958D01*
X108750800Y-71500739D01*
X108778829Y-71484556D01*
X108862627Y-71449846D01*
X108893893Y-71441469D01*
X108991941Y-71428561D01*
X109008126Y-71427500D01*
X114929025Y-71427500D01*
X114929042Y-71427500D01*
X115586090Y-71390601D01*
X116240036Y-71316919D01*
X116888822Y-71206686D01*
X117530406Y-71060248D01*
X118162770Y-70878067D01*
X118783925Y-70660716D01*
X119391915Y-70408878D01*
X119984828Y-70123346D01*
X120560798Y-69805019D01*
X121118014Y-69454897D01*
X121654721Y-69074083D01*
X122169232Y-68663774D01*
X122659927Y-68225262D01*
X123125262Y-67759927D01*
X123563774Y-67269232D01*
X123974083Y-66754721D01*
X124119340Y-66550000D01*
X125368104Y-66550000D01*
X125385598Y-66671678D01*
X125385599Y-66671682D01*
X125436665Y-66783499D01*
X125436666Y-66783501D01*
X125517168Y-66876405D01*
X125620584Y-66942866D01*
X125738535Y-66977500D01*
X125861465Y-66977500D01*
X125979416Y-66942866D01*
X126082832Y-66876405D01*
X126163334Y-66783501D01*
X126214401Y-66671679D01*
X126231896Y-66550000D01*
X126226881Y-66515124D01*
X126236822Y-66445967D01*
X126261934Y-66409797D01*
X128407915Y-64263819D01*
X128469238Y-64230334D01*
X128495596Y-64227500D01*
X129424838Y-64227500D01*
X129491877Y-64247185D01*
X129518547Y-64270293D01*
X129567168Y-64326405D01*
X129670584Y-64392866D01*
X129788535Y-64427500D01*
X129911465Y-64427500D01*
X130029416Y-64392866D01*
X130132832Y-64326405D01*
X130213334Y-64233501D01*
X130258719Y-64134122D01*
X130264400Y-64121682D01*
X130264401Y-64121678D01*
X130267518Y-64100000D01*
X130281896Y-64000000D01*
X130264401Y-63878321D01*
X130264400Y-63878317D01*
X130231505Y-63806288D01*
X130213334Y-63766499D01*
X130132832Y-63673595D01*
X130029416Y-63607134D01*
X129911465Y-63572500D01*
X129788535Y-63572500D01*
X129670584Y-63607134D01*
X129670582Y-63607134D01*
X129670582Y-63607135D01*
X129567169Y-63673594D01*
X129567168Y-63673594D01*
X129567168Y-63673595D01*
X129518548Y-63729704D01*
X129459773Y-63767477D01*
X129424838Y-63772500D01*
X128304747Y-63772500D01*
X128280257Y-63782644D01*
X128258415Y-63791690D01*
X128221132Y-63807133D01*
X125942085Y-66086181D01*
X125880762Y-66119666D01*
X125854404Y-66122500D01*
X125738535Y-66122500D01*
X125620584Y-66157134D01*
X125620582Y-66157134D01*
X125620582Y-66157135D01*
X125517169Y-66223594D01*
X125436667Y-66316497D01*
X125436665Y-66316500D01*
X125385599Y-66428317D01*
X125385598Y-66428321D01*
X125368104Y-66550000D01*
X124119340Y-66550000D01*
X124354897Y-66218014D01*
X124705019Y-65660798D01*
X125023346Y-65084828D01*
X125308878Y-64491915D01*
X125560716Y-63883925D01*
X125778067Y-63262770D01*
X125960248Y-62630406D01*
X126106686Y-61988822D01*
X126216919Y-61340036D01*
X126284080Y-60743960D01*
X126311146Y-60679548D01*
X126368741Y-60639992D01*
X126371217Y-60639211D01*
X126475883Y-60607462D01*
X126645698Y-60516694D01*
X126794541Y-60394541D01*
X126916694Y-60245698D01*
X127007462Y-60075883D01*
X127063357Y-59891624D01*
X127082230Y-59700000D01*
X127657770Y-59700000D01*
X127676643Y-59891626D01*
X127732538Y-60075884D01*
X127823302Y-60245692D01*
X127823306Y-60245699D01*
X127945458Y-60394541D01*
X128094300Y-60516693D01*
X128094307Y-60516697D01*
X128264113Y-60607460D01*
X128264117Y-60607462D01*
X128448376Y-60663357D01*
X128640000Y-60682230D01*
X128831624Y-60663357D01*
X129015883Y-60607462D01*
X129185698Y-60516694D01*
X129334541Y-60394541D01*
X129456694Y-60245698D01*
X129547462Y-60075883D01*
X129603357Y-59891624D01*
X129622230Y-59700000D01*
X129603357Y-59508376D01*
X129547462Y-59324117D01*
X129544227Y-59318064D01*
X129456697Y-59154307D01*
X129456693Y-59154300D01*
X129334541Y-59005458D01*
X129185699Y-58883306D01*
X129185692Y-58883302D01*
X129099892Y-58837441D01*
X130202500Y-58837441D01*
X130202500Y-60562558D01*
X130209898Y-60599749D01*
X130238077Y-60641922D01*
X130280250Y-60670101D01*
X130280252Y-60670102D01*
X130308205Y-60675662D01*
X130317441Y-60677500D01*
X130317442Y-60677500D01*
X132042559Y-60677500D01*
X132049957Y-60676028D01*
X132079748Y-60670102D01*
X132121922Y-60641922D01*
X132150102Y-60599748D01*
X132157500Y-60562558D01*
X132157500Y-58837442D01*
X132150102Y-58800252D01*
X132144948Y-58792538D01*
X132121922Y-58758077D01*
X132079749Y-58729898D01*
X132042559Y-58722500D01*
X132042558Y-58722500D01*
X130317442Y-58722500D01*
X130317441Y-58722500D01*
X130280250Y-58729898D01*
X130238077Y-58758077D01*
X130209898Y-58800250D01*
X130202500Y-58837441D01*
X129099892Y-58837441D01*
X129015884Y-58792538D01*
X128831626Y-58736643D01*
X128640000Y-58717770D01*
X128448373Y-58736643D01*
X128264115Y-58792538D01*
X128094307Y-58883302D01*
X128094300Y-58883306D01*
X127945458Y-59005458D01*
X127823306Y-59154300D01*
X127823302Y-59154307D01*
X127732538Y-59324115D01*
X127676643Y-59508373D01*
X127657770Y-59700000D01*
X127082230Y-59700000D01*
X127063357Y-59508376D01*
X127007462Y-59324117D01*
X127004227Y-59318064D01*
X126916697Y-59154307D01*
X126916693Y-59154300D01*
X126794541Y-59005458D01*
X126645699Y-58883306D01*
X126645692Y-58883302D01*
X126475884Y-58792538D01*
X126291626Y-58736643D01*
X126100000Y-58717770D01*
X125908373Y-58736643D01*
X125724115Y-58792538D01*
X125554307Y-58883302D01*
X125554300Y-58883306D01*
X125405458Y-59005458D01*
X125283306Y-59154300D01*
X125283302Y-59154307D01*
X125192538Y-59324115D01*
X125136643Y-59508373D01*
X125117770Y-59700000D01*
X125136643Y-59891626D01*
X125192538Y-60075884D01*
X125283302Y-60245692D01*
X125283306Y-60245699D01*
X125405458Y-60394541D01*
X125554300Y-60516693D01*
X125554307Y-60516697D01*
X125724109Y-60607458D01*
X125724111Y-60607459D01*
X125724117Y-60607462D01*
X125732303Y-60609945D01*
X125790741Y-60648243D01*
X125819197Y-60712056D01*
X125819834Y-60739412D01*
X125796594Y-61005054D01*
X125795757Y-61012219D01*
X125701766Y-61653888D01*
X125700513Y-61660991D01*
X125569378Y-62296079D01*
X125567715Y-62303097D01*
X125399871Y-62929503D01*
X125397802Y-62936414D01*
X125193819Y-63551997D01*
X125191352Y-63558775D01*
X124951922Y-64161457D01*
X124949065Y-64168080D01*
X124675000Y-64755814D01*
X124671763Y-64762259D01*
X124363977Y-65333084D01*
X124360370Y-65339331D01*
X124019932Y-65891265D01*
X124015969Y-65897291D01*
X123644007Y-66428508D01*
X123639699Y-66434294D01*
X123237471Y-66942993D01*
X123232835Y-66948519D01*
X122801712Y-67432969D01*
X122796762Y-67438215D01*
X122338215Y-67896762D01*
X122332969Y-67901712D01*
X121848519Y-68332835D01*
X121842993Y-68337471D01*
X121334294Y-68739699D01*
X121328508Y-68744007D01*
X120797291Y-69115969D01*
X120791265Y-69119932D01*
X120239331Y-69460370D01*
X120233084Y-69463977D01*
X119662259Y-69771763D01*
X119655814Y-69775000D01*
X119068080Y-70049065D01*
X119061457Y-70051922D01*
X118458775Y-70291352D01*
X118451997Y-70293819D01*
X117836414Y-70497802D01*
X117829503Y-70499871D01*
X117203097Y-70667715D01*
X117196079Y-70669378D01*
X116560991Y-70800513D01*
X116553888Y-70801766D01*
X115912219Y-70895757D01*
X115905054Y-70896594D01*
X115409588Y-70939942D01*
X115341088Y-70926175D01*
X115290905Y-70877560D01*
X115274972Y-70809532D01*
X115298347Y-70743688D01*
X115353609Y-70700934D01*
X115363835Y-70697440D01*
X115379416Y-70692866D01*
X115482832Y-70626405D01*
X115539879Y-70560569D01*
X115598656Y-70522796D01*
X115625480Y-70518038D01*
X116042173Y-70490727D01*
X116599614Y-70417338D01*
X116865014Y-70364546D01*
X117151038Y-70307653D01*
X117151045Y-70307651D01*
X117151062Y-70307648D01*
X117694155Y-70162127D01*
X117702516Y-70159289D01*
X117721487Y-70152848D01*
X118226568Y-69981397D01*
X118746020Y-69766233D01*
X119250288Y-69517556D01*
X119737212Y-69236430D01*
X120204707Y-68924060D01*
X120650771Y-68581783D01*
X121073493Y-68211065D01*
X121471065Y-67813493D01*
X121841783Y-67390771D01*
X122184060Y-66944707D01*
X122496430Y-66477212D01*
X122777556Y-65990288D01*
X123026233Y-65486020D01*
X123241397Y-64966568D01*
X123422127Y-64434155D01*
X123567648Y-63891062D01*
X123570183Y-63878321D01*
X123658124Y-63436210D01*
X123677338Y-63339614D01*
X123750727Y-62782173D01*
X123787500Y-62221126D01*
X123787500Y-61940000D01*
X123787500Y-61894747D01*
X123787500Y-60744438D01*
X123807185Y-60677399D01*
X123859989Y-60631644D01*
X123875495Y-60625780D01*
X123935883Y-60607462D01*
X123935891Y-60607458D01*
X124105692Y-60516697D01*
X124105698Y-60516694D01*
X124254541Y-60394541D01*
X124376694Y-60245698D01*
X124467462Y-60075883D01*
X124523357Y-59891624D01*
X124542230Y-59700000D01*
X124523357Y-59508376D01*
X124467462Y-59324117D01*
X124464227Y-59318064D01*
X124376697Y-59154307D01*
X124376693Y-59154300D01*
X124254541Y-59005458D01*
X124105699Y-58883306D01*
X124105692Y-58883302D01*
X123935884Y-58792538D01*
X123751626Y-58736643D01*
X123560000Y-58717770D01*
X123368373Y-58736643D01*
X123184115Y-58792538D01*
X123014307Y-58883302D01*
X123014300Y-58883306D01*
X122865458Y-59005458D01*
X122743306Y-59154300D01*
X122743302Y-59154307D01*
X122652538Y-59324115D01*
X122597988Y-59503940D01*
X122559691Y-59562378D01*
X122495878Y-59590835D01*
X122426811Y-59580274D01*
X122374418Y-59534049D01*
X122355800Y-59478751D01*
X122354569Y-59464684D01*
X122354567Y-59464673D01*
X122293433Y-59236516D01*
X122293429Y-59236507D01*
X122193600Y-59022422D01*
X122193599Y-59022420D01*
X122058113Y-58828926D01*
X122058108Y-58828920D01*
X121891082Y-58661894D01*
X121697578Y-58526399D01*
X121505607Y-58436882D01*
X121453168Y-58390710D01*
X121434016Y-58323516D01*
X121454232Y-58256635D01*
X121507397Y-58211300D01*
X121558012Y-58200500D01*
X134461988Y-58200500D01*
X134529027Y-58220185D01*
G37*
G04 #@! TD.AperFunction*
M02*
