G04 #@! TF.GenerationSoftware,KiCad,Pcbnew,8.0.2*
G04 #@! TF.CreationDate,2024-05-22T22:05:32+08:00*
G04 #@! TF.ProjectId,pppc_usb_hub,70707063-5f75-4736-925f-6875622e6b69,rev?*
G04 #@! TF.SameCoordinates,Original*
G04 #@! TF.FileFunction,Legend,Bot*
G04 #@! TF.FilePolarity,Positive*
%FSLAX46Y46*%
G04 Gerber Fmt 4.6, Leading zero omitted, Abs format (unit mm)*
G04 Created by KiCad (PCBNEW 8.0.2) date 2024-05-22 22:05:32*
%MOMM*%
%LPD*%
G01*
G04 APERTURE LIST*
G04 Aperture macros list*
%AMRoundRect*
0 Rectangle with rounded corners*
0 $1 Rounding radius*
0 $2 $3 $4 $5 $6 $7 $8 $9 X,Y pos of 4 corners*
0 Add a 4 corners polygon primitive as box body*
4,1,4,$2,$3,$4,$5,$6,$7,$8,$9,$2,$3,0*
0 Add four circle primitives for the rounded corners*
1,1,$1+$1,$2,$3*
1,1,$1+$1,$4,$5*
1,1,$1+$1,$6,$7*
1,1,$1+$1,$8,$9*
0 Add four rect primitives between the rounded corners*
20,1,$1+$1,$2,$3,$4,$5,0*
20,1,$1+$1,$4,$5,$6,$7,0*
20,1,$1+$1,$6,$7,$8,$9,0*
20,1,$1+$1,$8,$9,$2,$3,0*%
G04 Aperture macros list end*
%ADD10C,0.900000*%
%ADD11C,0.700000*%
%ADD12R,1.700000X1.700000*%
%ADD13O,1.700000X1.700000*%
%ADD14C,3.000000*%
%ADD15C,2.500000*%
%ADD16O,1.625600X1.625600*%
%ADD17O,3.301600X2.101600*%
%ADD18RoundRect,0.050000X0.800000X-0.800000X0.800000X0.800000X-0.800000X0.800000X-0.800000X-0.800000X0*%
%ADD19O,2.900000X1.400000*%
%ADD20O,1.200000X2.100000*%
%ADD21O,1.300000X1.900000*%
%ADD22O,2.501600X2.501600*%
%ADD23C,3.500000*%
G04 APERTURE END LIST*
%LPC*%
D10*
X117774100Y-103900000D03*
D11*
X119074100Y-103900000D03*
X120774100Y-103900000D03*
D10*
X122074100Y-103900000D03*
D12*
X131180000Y-59700000D03*
D13*
X128640000Y-59700000D03*
X126100000Y-59700000D03*
X123560000Y-59700000D03*
X121020000Y-59700000D03*
D14*
X139370000Y-76748012D03*
D15*
X133320000Y-78698012D03*
D14*
X133320000Y-90898012D03*
X145370000Y-90948012D03*
D15*
X145320000Y-78698012D03*
D12*
X140080000Y-59700000D03*
D13*
X137540000Y-59700000D03*
X135000000Y-59700000D03*
D10*
X87774100Y-103900000D03*
D11*
X89074100Y-103900000D03*
X90774100Y-103900000D03*
D10*
X92074100Y-103900000D03*
X102774100Y-103900000D03*
D11*
X104074100Y-103900000D03*
X105774100Y-103900000D03*
D10*
X107074100Y-103900000D03*
D16*
X121874000Y-90100000D03*
X121874000Y-92599300D03*
X121874000Y-94600900D03*
X121874000Y-97100200D03*
D17*
X119373800Y-87030100D03*
X119373800Y-100170100D03*
D16*
X106874000Y-90100000D03*
X106874000Y-92599300D03*
X106874000Y-94600900D03*
X106874000Y-97100200D03*
D17*
X104373800Y-87030100D03*
X104373800Y-100170100D03*
D18*
X91374000Y-90100100D03*
D13*
X91374000Y-92600200D03*
X91374000Y-94600200D03*
X91374000Y-97100100D03*
D19*
X89873800Y-87150200D03*
X89873800Y-100050000D03*
D11*
X89589900Y-62893400D03*
X83809900Y-62893400D03*
D20*
X91025000Y-63413600D03*
D21*
X91025000Y-59213500D03*
D20*
X82375000Y-63413600D03*
D21*
X82375000Y-59213500D03*
D22*
X134290000Y-100450000D03*
X139370000Y-100450000D03*
X144450000Y-100450000D03*
D11*
X111389900Y-62893400D03*
X105609900Y-62893400D03*
D20*
X112825000Y-63413600D03*
D21*
X112825000Y-59213500D03*
D20*
X104175000Y-63413600D03*
D21*
X104175000Y-59213500D03*
D23*
X82000000Y-103100000D03*
X146500000Y-60100000D03*
%LPD*%
M02*
