M48
; DRILL file {KiCad 8.0.2} date 2024-05-22T22:06:36+0800
; FORMAT={-:-/ absolute / metric / decimal}
; #@! TF.CreationDate,2024-05-22T22:06:36+08:00
; #@! TF.GenerationSoftware,Kicad,Pcbnew,8.0.2
; #@! TF.FileFunction,Plated,1,2,PTH
FMAT,2
METRIC
; #@! TA.AperFunction,Plated,PTH,ViaDrill
T1C0.300
; #@! TA.AperFunction,Plated,PTH,ComponentDrill
T2C0.600
; #@! TA.AperFunction,Plated,PTH,ComponentDrill
T3C0.800
; #@! TA.AperFunction,Plated,PTH,ComponentDrill
T4C0.914
; #@! TA.AperFunction,Plated,PTH,ComponentDrill
T5C1.000
; #@! TA.AperFunction,Plated,PTH,ComponentDrill
T6C1.300
; #@! TA.AperFunction,Plated,PTH,ComponentDrill
T7C1.600
; #@! TA.AperFunction,Plated,PTH,ComponentDrill
T8C2.200
%
G90
G05
T1
X80.4Y-71.3
X80.4Y-74.9
X80.6Y-90.4
X80.6Y-95.4
X80.7Y-59.6
X80.8Y-85.7
X80.8Y-100.5
X81.575Y-72.025
X82.1Y-100.3
X82.2Y-79.1
X82.5Y-73.9
X82.5Y-75.2
X83.2Y-72.9
X83.6Y-100.9
X83.7Y-80.6
X84.3Y-65.0
X84.5Y-103.5
X84.5Y-104.7
X84.6Y-66.1
X84.9Y-62.0
X84.9Y-69.9
X85.0Y-83.9
X85.2Y-59.3
X85.2Y-86.05
X86.1Y-69.8
X86.7Y-89.3
X86.9Y-96.9
X87.1Y-62.6
X87.1Y-77.4
X87.2Y-102.9
X87.3Y-69.8
X87.4Y-65.6
X87.643Y-72.957
X88.1Y-80.5
X88.3Y-65.6
X88.485Y-72.741
X88.5Y-95.7
X88.9Y-93.1
X89.0Y-59.3
X89.1Y-65.0
X89.4Y-88.6
X89.6Y-67.8
X89.9Y-76.7
X90.4Y-65.0
X90.4Y-85.1
X91.3Y-65.1
X92.4Y-83.1
X92.8Y-58.9
X93.0Y-95.3
X94.9Y-99.8
X95.1Y-76.1
X95.1Y-92.7
X95.1Y-104.1
X95.5Y-86.95
X95.6Y-71.7
X95.7Y-69.6
X96.3Y-61.05
X96.356Y-81.9
X96.557Y-81.043
X96.9Y-78.7
X97.0Y-100.8
X97.45Y-73.7
X97.6Y-70.5
X98.1Y-104.1
X99.1Y-99.7
X99.25Y-73.439
X99.4Y-94.5
X99.45Y-92.75
X99.5Y-70.9
X99.5Y-80.75
X99.5Y-85.55
X100.25Y-91.8
X100.758Y-101.351
X101.45Y-92.85
X101.6Y-66.5
X101.9Y-58.8
X102.2Y-69.6
X102.25Y-75.3
X102.5Y-78.2
X102.8Y-81.9
X102.95Y-64.1
X103.2Y-72.0
X103.7Y-81.9
X103.75Y-77.2
X103.8Y-96.4
X104.0Y-66.7
X104.1Y-69.8
X104.3Y-74.05
X104.55Y-78.2
X104.65Y-88.7
X105.1Y-90.95
X105.3Y-74.05
X105.35Y-75.1
X105.4Y-77.1
X105.55Y-81.25
X105.551Y-80.299
X105.6Y-79.45
X106.6Y-71.7
X106.9Y-59.4
X106.9Y-67.2
X107.3Y-62.3
X107.4Y-80.1
X107.9Y-69.6
X108.15Y-87.95
X108.293Y-79.993
X108.3Y-74.5
X108.5Y-78.3
X108.8Y-65.6
X109.6Y-60.2
X109.85Y-76.4
X109.95Y-85.05
X110.1Y-100.2
X110.2Y-94.0
X110.6Y-104.1
X110.8Y-74.5
X110.85Y-76.95
X110.9Y-73.0
X111.3Y-67.9
X112.2Y-61.4
X112.5Y-76.4
X112.7Y-77.6
X112.75Y-65.85
X113.4Y-103.1
X114.2Y-93.8
X114.35Y-75.1
X114.4Y-73.0
X114.5Y-69.2
X114.55Y-83.1
X114.55Y-84.8
X115.1Y-65.8
X115.2Y-60.0
X115.2Y-70.3
X115.303Y-91.097
X115.4Y-78.9
X115.9Y-77.8
X116.1Y-74.9
X116.4Y-71.9
X116.4Y-76.6
X117.3Y-80.9
X117.3Y-102.9
X117.7Y-95.7
X117.9Y-59.2
X119.2Y-79.3
X119.3Y-96.2
X119.5Y-91.9
X119.7Y-64.6
X121.5Y-62.3
X121.6Y-65.0
X122.0Y-80.3
X122.4Y-75.9
X123.1Y-78.9
X123.5Y-68.9
X124.1Y-104.1
X124.2Y-64.0
X124.4Y-83.0
X124.6Y-62.6
X125.1Y-95.8
X125.1Y-102.0
X125.2Y-93.7
X125.5Y-86.0
X125.6Y-99.1
X125.7Y-88.2
X125.8Y-66.55
X125.8Y-74.5
X126.8Y-63.4
X127.5Y-101.4
X128.4Y-72.6
X129.35Y-65.05
X129.7Y-68.6
X129.7Y-92.4
X129.7Y-102.0
X129.85Y-64.0
X129.9Y-99.6
X130.0Y-75.5
X130.0Y-88.0
X130.1Y-85.9
X130.1Y-95.0
X130.7Y-104.4
X132.2Y-62.2
X134.1Y-66.3
X135.8Y-69.0
X136.1Y-74.2
X136.2Y-66.9
X139.2Y-70.2
X141.1Y-65.0
X143.4Y-74.0
X143.5Y-59.0
X143.6Y-60.4
X144.1Y-62.0
X144.7Y-67.7
X145.9Y-62.8
X146.3Y-66.9
X146.7Y-71.3
X147.8Y-62.7
T4
X106.874Y-90.1
X106.874Y-92.599
X106.874Y-94.601
X106.874Y-97.1
X121.874Y-90.1
X121.874Y-92.599
X121.874Y-94.601
X121.874Y-97.1
T5
X91.374Y-90.1
X91.374Y-92.6
X91.374Y-94.6
X91.374Y-97.1
X121.02Y-59.7
X123.56Y-59.7
X126.1Y-59.7
X128.64Y-59.7
X131.18Y-59.7
X133.32Y-78.698
X135.0Y-59.7
X137.54Y-59.7
X140.08Y-59.7
X145.32Y-78.698
T6
X133.32Y-90.898
X139.37Y-76.748
X145.37Y-90.948
T7
X134.29Y-100.45
X139.37Y-100.45
X144.45Y-100.45
T8
X82.0Y-103.1
X146.5Y-60.1
T2
X82.375Y-59.514G85X82.375Y-58.913
G05
X82.375Y-63.864G85X82.375Y-62.964
G05
X91.025Y-59.514G85X91.025Y-58.913
G05
X91.025Y-63.864G85X91.025Y-62.964
G05
X104.175Y-59.514G85X104.175Y-58.913
G05
X104.175Y-63.864G85X104.175Y-62.964
G05
X112.825Y-59.514G85X112.825Y-58.913
G05
X112.825Y-63.864G85X112.825Y-62.964
G05
T3
X89.224Y-87.15G85X90.524Y-87.15
G05
X89.224Y-100.05G85X90.524Y-100.05
G05
T5
X105.074Y-87.03G85X103.674Y-87.03
G05
X103.674Y-100.17G85X105.074Y-100.17
G05
X120.074Y-87.03G85X118.674Y-87.03
G05
X118.674Y-100.17G85X120.074Y-100.17
G05
M30
